G04*
G04 #@! TF.GenerationSoftware,Altium Limited,Altium Designer,22.10.1 (41)*
G04*
G04 Layer_Color=8242323*
%FSLAX44Y44*%
%MOMM*%
G71*
G04*
G04 #@! TF.SameCoordinates,C522AA7B-F4F4-4EC6-81A6-D5D12569EC36*
G04*
G04*
G04 #@! TF.FilePolarity,Positive*
G04*
G01*
G75*
%ADD10C,0.2540*%
%ADD41C,1.2700*%
G36*
X2286687Y1326126D02*
X2286922Y1325774D01*
X2287392Y1325186D01*
X2287862Y1324480D01*
X2288568Y1323422D01*
X2289391Y1322364D01*
X2290331Y1321071D01*
X2291272Y1319660D01*
X2292448Y1318014D01*
X2293506Y1316367D01*
X2295975Y1312723D01*
X2298562Y1308725D01*
X2301148Y1304610D01*
X2292918Y1299554D01*
X2292800Y1299672D01*
X2292565Y1300024D01*
X2292213Y1300612D01*
X2291742Y1301435D01*
X2291154Y1302493D01*
X2290449Y1303669D01*
X2289626Y1305080D01*
X2288685Y1306609D01*
X2287745Y1308137D01*
X2286687Y1309901D01*
X2284335Y1313663D01*
X2281866Y1317661D01*
X2279279Y1321658D01*
X2286569Y1326244D01*
X2286687Y1326126D01*
D02*
G37*
G36*
X2342535Y1321541D02*
X2342418Y1321423D01*
X2342183Y1320953D01*
X2341830Y1320365D01*
X2341242Y1319424D01*
X2340654Y1318366D01*
X2339831Y1317073D01*
X2338891Y1315662D01*
X2337950Y1314016D01*
X2335716Y1310606D01*
X2333247Y1306844D01*
X2330542Y1302964D01*
X2327838Y1299201D01*
X2320431Y1304375D01*
X2320549Y1304492D01*
X2320784Y1304845D01*
X2321136Y1305315D01*
X2321607Y1306138D01*
X2322195Y1306961D01*
X2322900Y1308137D01*
X2323723Y1309431D01*
X2324664Y1310841D01*
X2325604Y1312370D01*
X2326662Y1314016D01*
X2327838Y1315897D01*
X2329014Y1317778D01*
X2331483Y1322011D01*
X2334070Y1326479D01*
X2342535Y1321541D01*
D02*
G37*
G36*
X2269755Y1311664D02*
X2283159D01*
Y1303199D01*
X2269755D01*
Y1290736D01*
X2271754Y1293793D01*
X2271872Y1293675D01*
X2272107Y1293440D01*
X2272577Y1292970D01*
X2273165Y1292382D01*
X2273988Y1291676D01*
X2274811Y1290853D01*
X2276810Y1288737D01*
X2279162Y1286385D01*
X2281631Y1283799D01*
X2284217Y1281095D01*
X2286687Y1278390D01*
X2279632Y1272276D01*
X2279514Y1272394D01*
X2279397Y1272629D01*
X2279044Y1272982D01*
X2278691Y1273452D01*
X2277516Y1274745D01*
X2276222Y1276392D01*
X2274694Y1278390D01*
X2273048Y1280507D01*
X2271284Y1282858D01*
X2269755Y1285092D01*
Y1236063D01*
X2260467D01*
Y1284975D01*
X2260349Y1284504D01*
X2260114Y1283681D01*
X2259879Y1282623D01*
X2259526Y1281447D01*
X2259056Y1279919D01*
X2258468Y1278273D01*
X2257880Y1276509D01*
X2257175Y1274628D01*
X2256234Y1272629D01*
X2254353Y1268396D01*
X2251884Y1264164D01*
X2250590Y1262047D01*
X2249062Y1260048D01*
X2248944Y1260284D01*
X2248709Y1260871D01*
X2248239Y1261812D01*
X2247769Y1262988D01*
X2247063Y1264399D01*
X2246358Y1266045D01*
X2244947Y1269454D01*
X2245064Y1269690D01*
X2245417Y1270160D01*
X2245887Y1270983D01*
X2246593Y1272159D01*
X2247416Y1273570D01*
X2248474Y1275216D01*
X2249532Y1277215D01*
X2250708Y1279331D01*
X2251884Y1281800D01*
X2253177Y1284387D01*
X2254353Y1287091D01*
X2255646Y1290148D01*
X2256940Y1293205D01*
X2258115Y1296380D01*
X2260232Y1303199D01*
X2245887D01*
Y1311664D01*
X2260467D01*
Y1330947D01*
X2269755D01*
Y1311664D01*
D02*
G37*
G36*
X2194624Y1332123D02*
X2195094Y1331417D01*
X2195800Y1330359D01*
X2196270Y1329536D01*
X2196740Y1328713D01*
X2197328Y1327773D01*
X2198034Y1326597D01*
X2198739Y1325421D01*
X2199562Y1324128D01*
X2200385Y1322599D01*
X2201208Y1320953D01*
X2202149Y1319307D01*
X2203207Y1317426D01*
X2196270Y1315427D01*
X2241420D01*
Y1306256D01*
X2223430D01*
Y1306138D01*
Y1305903D01*
X2223313Y1305551D01*
X2223195Y1305080D01*
X2223078Y1304492D01*
X2222842Y1303669D01*
X2222372Y1301788D01*
X2221784Y1299554D01*
X2220961Y1296967D01*
X2220020Y1294028D01*
X2218845Y1290853D01*
X2217551Y1287561D01*
X2215905Y1284034D01*
X2214142Y1280507D01*
X2212143Y1276862D01*
X2209909Y1273335D01*
X2207440Y1269925D01*
X2204736Y1266633D01*
X2201679Y1263458D01*
X2201796Y1263341D01*
X2202267Y1263105D01*
X2202972Y1262635D01*
X2204030Y1262047D01*
X2205323Y1261224D01*
X2206969Y1260401D01*
X2208968Y1259343D01*
X2211320Y1258167D01*
X2213907Y1256991D01*
X2216846Y1255698D01*
X2220138Y1254405D01*
X2223901Y1252994D01*
X2227898Y1251583D01*
X2232249Y1250172D01*
X2236952Y1248643D01*
X2242125Y1247233D01*
Y1247115D01*
X2241890Y1246997D01*
X2241655Y1246645D01*
X2241420Y1246174D01*
X2240479Y1245116D01*
X2239538Y1243705D01*
X2238362Y1242177D01*
X2237069Y1240531D01*
X2235893Y1238885D01*
X2234835Y1237356D01*
X2234718D01*
X2234482Y1237474D01*
X2234130Y1237591D01*
X2233659Y1237826D01*
X2232954Y1238062D01*
X2232131Y1238297D01*
X2230250Y1239002D01*
X2228016Y1239825D01*
X2225311Y1240883D01*
X2222372Y1242059D01*
X2219315Y1243353D01*
X2216023Y1244763D01*
X2212613Y1246292D01*
X2206029Y1249584D01*
X2202737Y1251348D01*
X2199680Y1253111D01*
X2196858Y1254993D01*
X2194389Y1256874D01*
X2194271Y1256756D01*
X2193801Y1256404D01*
X2193096Y1255933D01*
X2192037Y1255228D01*
X2190626Y1254287D01*
X2188980Y1253229D01*
X2186864Y1251936D01*
X2184512Y1250642D01*
X2181808Y1249231D01*
X2178751Y1247585D01*
X2175341Y1245939D01*
X2171579Y1244175D01*
X2167464Y1242412D01*
X2162878Y1240531D01*
X2157940Y1238532D01*
X2152649Y1236651D01*
X2152532Y1236768D01*
X2152179Y1237356D01*
X2151591Y1238062D01*
X2150768Y1239237D01*
X2149827Y1240531D01*
X2148769Y1242059D01*
X2147593Y1243705D01*
X2146300Y1245586D01*
X2146418D01*
X2146653Y1245704D01*
X2147005Y1245822D01*
X2147476Y1245939D01*
X2148181Y1246174D01*
X2149004Y1246410D01*
X2150885Y1247115D01*
X2153237Y1247820D01*
X2155824Y1248761D01*
X2158763Y1249819D01*
X2161938Y1250995D01*
X2165230Y1252288D01*
X2168640Y1253699D01*
X2175577Y1256756D01*
X2178869Y1258402D01*
X2182043Y1260048D01*
X2184865Y1261694D01*
X2187569Y1263458D01*
X2187334Y1263693D01*
X2186864Y1264281D01*
X2185923Y1265339D01*
X2184747Y1266633D01*
X2183337Y1268396D01*
X2181808Y1270513D01*
X2180045Y1272864D01*
X2178281Y1275568D01*
X2176400Y1278625D01*
X2174518Y1281918D01*
X2172637Y1285445D01*
X2170874Y1289207D01*
X2169227Y1293087D01*
X2167699Y1297320D01*
X2166523Y1301671D01*
X2165465Y1306256D01*
X2147241D01*
Y1315427D01*
X2193213D01*
Y1315544D01*
X2192978Y1315780D01*
X2192743Y1316132D01*
X2192390Y1316720D01*
X2192037Y1317426D01*
X2191567Y1318131D01*
X2190509Y1319895D01*
X2189333Y1322011D01*
X2188040Y1324128D01*
X2186864Y1326244D01*
X2185688Y1328243D01*
X2194506Y1332358D01*
X2194624Y1332123D01*
D02*
G37*
G36*
X2315022Y1296262D02*
X2339478D01*
Y1235710D01*
X2330072D01*
Y1241118D01*
X2278691D01*
Y1249819D01*
X2330072D01*
Y1264751D01*
X2282806D01*
Y1273335D01*
X2330072D01*
Y1287444D01*
X2281160D01*
Y1296262D01*
X2305616D01*
Y1331065D01*
X2315022D01*
Y1296262D01*
D02*
G37*
%LPC*%
G36*
X2213319Y1306256D02*
X2175106D01*
Y1306138D01*
Y1306021D01*
X2175224Y1305668D01*
X2175341Y1305315D01*
X2175577Y1304140D01*
X2176047Y1302611D01*
X2176517Y1300730D01*
X2177223Y1298496D01*
X2178163Y1296027D01*
X2179104Y1293322D01*
X2180397Y1290501D01*
X2181691Y1287561D01*
X2183337Y1284504D01*
X2185100Y1281447D01*
X2187099Y1278273D01*
X2189451Y1275216D01*
X2191920Y1272276D01*
X2194624Y1269454D01*
X2194742Y1269572D01*
X2195212Y1270042D01*
X2196035Y1270865D01*
X2196976Y1272041D01*
X2198151Y1273335D01*
X2199445Y1275098D01*
X2200856Y1276979D01*
X2202384Y1279213D01*
X2204030Y1281800D01*
X2205559Y1284504D01*
X2207205Y1287561D01*
X2208616Y1290853D01*
X2210027Y1294381D01*
X2211320Y1298143D01*
X2212378Y1302023D01*
X2213319Y1306256D01*
D02*
G37*
%LPD*%
D10*
X1986280Y947500D02*
X3016280D01*
X1986280Y1207500D02*
X3016280D01*
Y947500D02*
Y1207500D01*
X1986280Y947500D02*
Y1207500D01*
X2797500Y500D02*
X3017500D01*
X2797500Y840500D02*
X3017500D01*
Y500D02*
Y840500D01*
X2797500Y500D02*
Y840500D01*
X0Y500D02*
X220000D01*
X0Y840500D02*
X220000D01*
Y500D02*
Y840500D01*
X0Y500D02*
Y840500D01*
Y947500D02*
X842000D01*
X0Y1207500D02*
X842000D01*
Y947500D02*
Y1207500D01*
X0Y947500D02*
Y1207500D01*
X220000Y840500D02*
X2797500D01*
X220000Y270000D02*
X2839720Y269240D01*
D41*
X0Y500D02*
X3017500D01*
X0Y1207500D02*
X3017500D01*
Y500D02*
Y1207500D01*
X0Y500D02*
Y1207500D01*
M02*
