G04*
G04 #@! TF.GenerationSoftware,Altium Limited,Altium Designer,22.10.1 (41)*
G04*
G04 Layer_Color=128*
%FSLAX44Y44*%
%MOMM*%
G71*
G04*
G04 #@! TF.SameCoordinates,9A037A66-6DE6-4E6B-824F-FEF4343B680E*
G04*
G04*
G04 #@! TF.FilePolarity,Positive*
G04*
G01*
G75*
%ADD138C,0.0508*%
D138*
X378211Y175540D02*
X395229D01*
X386720Y167031D02*
Y184049D01*
X479811Y175540D02*
X496829D01*
X488320Y167031D02*
Y184049D01*
X397120Y124740D02*
X427120D01*
X412120Y109740D02*
Y139740D01*
X460220Y150140D02*
X490220D01*
X475220Y135140D02*
Y165140D01*
X198600Y912140D02*
X228600D01*
X213600Y897140D02*
Y927140D01*
X135500Y886740D02*
X165500D01*
X150500Y871740D02*
Y901740D01*
X218191Y937540D02*
X235209D01*
X226700Y929031D02*
Y946049D01*
X116591Y937540D02*
X133609D01*
X125100Y929031D02*
Y946049D01*
X2021591Y937540D02*
X2038609D01*
X2030100Y929031D02*
Y946049D01*
X2123191Y937540D02*
X2140209D01*
X2131700Y929031D02*
Y946049D01*
X2040500Y886740D02*
X2070500D01*
X2055500Y871740D02*
Y901740D01*
X2103600Y912140D02*
X2133600D01*
X2118600Y897140D02*
Y927140D01*
X389100Y912140D02*
X419100D01*
X404100Y897140D02*
Y927140D01*
X326000Y886740D02*
X356000D01*
X341000Y871740D02*
Y901740D01*
X408691Y937540D02*
X425709D01*
X417200Y929031D02*
Y946049D01*
X307091Y937540D02*
X324109D01*
X315600Y929031D02*
Y946049D01*
X497591Y937540D02*
X514609D01*
X506100Y929031D02*
Y946049D01*
X599191Y937540D02*
X616209D01*
X607700Y929031D02*
Y946049D01*
X516500Y886740D02*
X546500D01*
X531500Y871740D02*
Y901740D01*
X579600Y912140D02*
X609600D01*
X594600Y897140D02*
Y927140D01*
X768830Y912140D02*
X798830D01*
X783830Y897140D02*
Y927140D01*
X705730Y886740D02*
X735730D01*
X720730Y871740D02*
Y901740D01*
X788421Y937540D02*
X805439D01*
X796930Y929031D02*
Y946049D01*
X686821Y937540D02*
X703839D01*
X695330Y929031D02*
Y946049D01*
X878591Y937540D02*
X895609D01*
X887100Y929031D02*
Y946049D01*
X980191Y937540D02*
X997209D01*
X988700Y929031D02*
Y946049D01*
X897500Y886740D02*
X927500D01*
X912500Y871740D02*
Y901740D01*
X960600Y912140D02*
X990600D01*
X975600Y897140D02*
Y927140D01*
X1149830Y912140D02*
X1179830D01*
X1164830Y897140D02*
Y927140D01*
X1086730Y886740D02*
X1116730D01*
X1101730Y871740D02*
Y901740D01*
X1169421Y937540D02*
X1186439D01*
X1177930Y929031D02*
Y946049D01*
X1067821Y937540D02*
X1084839D01*
X1076330Y929031D02*
Y946049D01*
X1258321Y937540D02*
X1275339D01*
X1266830Y929031D02*
Y946049D01*
X1359921Y937540D02*
X1376939D01*
X1368430Y929031D02*
Y946049D01*
X1277230Y886740D02*
X1307230D01*
X1292230Y871740D02*
Y901740D01*
X1340330Y912140D02*
X1370330D01*
X1355330Y897140D02*
Y927140D01*
X1532100Y912140D02*
X1562100D01*
X1547100Y897140D02*
Y927140D01*
X1469000Y886740D02*
X1499000D01*
X1484000Y871740D02*
Y901740D01*
X1551691Y937540D02*
X1568709D01*
X1560200Y929031D02*
Y946049D01*
X1450091Y937540D02*
X1467109D01*
X1458600Y929031D02*
Y946049D01*
X1639321Y937540D02*
X1656339D01*
X1647830Y929031D02*
Y946049D01*
X1740921Y937540D02*
X1757939D01*
X1749430Y929031D02*
Y946049D01*
X1658230Y886740D02*
X1688230D01*
X1673230Y871740D02*
Y901740D01*
X1721330Y912140D02*
X1751330D01*
X1736330Y897140D02*
Y927140D01*
X1911830Y912140D02*
X1941830D01*
X1926830Y897140D02*
Y927140D01*
X1848730Y886740D02*
X1878730D01*
X1863730Y871740D02*
Y901740D01*
X1931421Y937540D02*
X1948439D01*
X1939930Y929031D02*
Y946049D01*
X1829821Y937540D02*
X1846839D01*
X1838330Y929031D02*
Y946049D01*
X2354331Y556540D02*
X2371349D01*
X2362840Y548031D02*
Y565049D01*
X2455931Y556540D02*
X2472949D01*
X2464440Y548031D02*
Y565049D01*
X2373240Y505740D02*
X2403240D01*
X2388240Y490740D02*
Y520740D01*
X2436340Y531140D02*
X2466340D01*
X2451340Y516140D02*
Y546140D01*
X1913100Y340640D02*
X1943100D01*
X1928100Y325640D02*
Y355640D01*
X1850000Y315240D02*
X1880000D01*
X1865000Y300240D02*
Y330240D01*
X1932691Y366040D02*
X1949709D01*
X1941200Y357531D02*
Y374549D01*
X1831091Y366040D02*
X1848109D01*
X1839600Y357531D02*
Y374549D01*
X2211691Y937540D02*
X2228709D01*
X2220200Y929031D02*
Y946049D01*
X2313291Y937540D02*
X2330309D01*
X2321800Y929031D02*
Y946049D01*
X2230600Y886740D02*
X2260600D01*
X2245600Y871740D02*
Y901740D01*
X2293700Y912140D02*
X2323700D01*
X2308700Y897140D02*
Y927140D01*
X2103200Y340640D02*
X2133200D01*
X2118200Y325640D02*
Y355640D01*
X2040100Y315240D02*
X2070100D01*
X2055100Y300240D02*
Y330240D01*
X2122791Y366040D02*
X2139809D01*
X2131300Y357531D02*
Y374549D01*
X2021191Y366040D02*
X2038209D01*
X2029700Y357531D02*
Y374549D01*
X2163831Y556540D02*
X2180849D01*
X2172340Y548031D02*
Y565049D01*
X2265431Y556540D02*
X2282449D01*
X2273940Y548031D02*
Y565049D01*
X2182740Y505740D02*
X2212740D01*
X2197740Y490740D02*
Y520740D01*
X2245840Y531140D02*
X2275840D01*
X2260840Y516140D02*
Y546140D01*
X2483330Y912140D02*
X2513330D01*
X2498330Y897140D02*
Y927140D01*
X2420230Y886740D02*
X2450230D01*
X2435230Y871740D02*
Y901740D01*
X2502921Y937540D02*
X2519939D01*
X2511430Y929031D02*
Y946049D01*
X2401321Y937540D02*
X2418339D01*
X2409830Y929031D02*
Y946049D01*
X2306071Y747040D02*
X2323089D01*
X2314580Y738531D02*
Y755549D01*
X2407671Y747040D02*
X2424689D01*
X2416180Y738531D02*
Y755549D01*
X2324980Y696240D02*
X2354980D01*
X2339980Y681240D02*
Y711240D01*
X2388080Y721640D02*
X2418080D01*
X2403080Y706640D02*
Y736640D01*
X2817340Y721640D02*
X2847340D01*
X2832340Y706640D02*
Y736640D01*
X2754240Y696240D02*
X2784240D01*
X2769240Y681240D02*
Y711240D01*
X2836931Y747040D02*
X2853949D01*
X2845440Y738531D02*
Y755549D01*
X2735331Y747040D02*
X2752349D01*
X2743840Y738531D02*
Y755549D01*
X2496571Y747040D02*
X2513589D01*
X2505080Y738531D02*
Y755549D01*
X2598171Y747040D02*
X2615189D01*
X2606680Y738531D02*
Y755549D01*
X2515480Y696240D02*
X2545480D01*
X2530480Y681240D02*
Y711240D01*
X2578580Y721640D02*
X2608580D01*
X2593580Y706640D02*
Y736640D01*
X531340Y531140D02*
X561340D01*
X546340Y516140D02*
Y546140D01*
X468240Y505740D02*
X498240D01*
X483240Y490740D02*
Y520740D01*
X550931Y556540D02*
X567949D01*
X559440Y548031D02*
Y565049D01*
X449331Y556540D02*
X466349D01*
X457840Y548031D02*
Y565049D01*
X2687071Y937540D02*
X2704089D01*
X2695580Y929031D02*
Y946049D01*
X2788671Y937540D02*
X2805689D01*
X2797180Y929031D02*
Y946049D01*
X2705980Y886740D02*
X2735980D01*
X2720980Y871740D02*
Y901740D01*
X2769080Y912140D02*
X2799080D01*
X2784080Y897140D02*
Y927140D01*
X1341200Y340640D02*
X1371200D01*
X1356200Y325640D02*
Y355640D01*
X1278100Y315240D02*
X1308100D01*
X1293100Y300240D02*
Y330240D01*
X1360791Y366040D02*
X1377809D01*
X1369300Y357531D02*
Y374549D01*
X1259191Y366040D02*
X1276209D01*
X1267700Y357531D02*
Y374549D01*
X187711Y556540D02*
X204729D01*
X196220Y548031D02*
Y565049D01*
X289311Y556540D02*
X306329D01*
X297820Y548031D02*
Y565049D01*
X206620Y505740D02*
X236620D01*
X221620Y490740D02*
Y520740D01*
X269720Y531140D02*
X299720D01*
X284720Y516140D02*
Y546140D01*
X960200Y340640D02*
X990200D01*
X975200Y325640D02*
Y355640D01*
X897100Y315240D02*
X927100D01*
X912100Y300240D02*
Y330240D01*
X979791Y366040D02*
X996809D01*
X988300Y357531D02*
Y374549D01*
X878191Y366040D02*
X895209D01*
X886700Y357531D02*
Y374549D01*
X2783191Y366040D02*
X2800209D01*
X2791700Y357531D02*
Y374549D01*
X2884791Y366040D02*
X2901809D01*
X2893300Y357531D02*
Y374549D01*
X2802100Y315240D02*
X2832100D01*
X2817100Y300240D02*
Y330240D01*
X2865200Y340640D02*
X2895200D01*
X2880200Y325640D02*
Y355640D01*
X2673830Y150140D02*
X2703830D01*
X2688830Y135140D02*
Y165140D01*
X2610730Y124740D02*
X2640730D01*
X2625730Y109740D02*
Y139740D01*
X2693421Y175540D02*
X2710439D01*
X2701930Y167031D02*
Y184049D01*
X2591821Y175540D02*
X2608839D01*
X2600330Y167031D02*
Y184049D01*
X829931Y556540D02*
X846949D01*
X838440Y548031D02*
Y565049D01*
X931531Y556540D02*
X948549D01*
X940040Y548031D02*
Y565049D01*
X848840Y505740D02*
X878840D01*
X863840Y490740D02*
Y520740D01*
X911940Y531140D02*
X941940D01*
X926940Y516140D02*
Y546140D01*
X2744950Y531140D02*
X2774950D01*
X2759950Y516140D02*
Y546140D01*
X2681850Y505740D02*
X2711850D01*
X2696850Y490740D02*
Y520740D01*
X2764541Y556540D02*
X2781559D01*
X2773050Y548031D02*
Y565049D01*
X2662941Y556540D02*
X2679959D01*
X2671450Y548031D02*
Y565049D01*
X782071Y747040D02*
X799089D01*
X790580Y738531D02*
Y755549D01*
X883671Y747040D02*
X900689D01*
X892180Y738531D02*
Y755549D01*
X800980Y696240D02*
X830980D01*
X815980Y681240D02*
Y711240D01*
X864080Y721640D02*
X894080D01*
X879080Y706640D02*
Y736640D01*
X1102840Y531140D02*
X1132840D01*
X1117840Y516140D02*
Y546140D01*
X1039740Y505740D02*
X1069740D01*
X1054740Y490740D02*
Y520740D01*
X1122431Y556540D02*
X1139449D01*
X1130940Y548031D02*
Y565049D01*
X1020831Y556540D02*
X1037849D01*
X1029340Y548031D02*
Y565049D01*
X2021591Y175540D02*
X2038609D01*
X2030100Y167031D02*
Y184049D01*
X2123191Y175540D02*
X2140209D01*
X2131700Y167031D02*
Y184049D01*
X2040500Y124740D02*
X2070500D01*
X2055500Y109740D02*
Y139740D01*
X2103600Y150140D02*
X2133600D01*
X2118600Y135140D02*
Y165140D01*
X1292940Y531140D02*
X1322940D01*
X1307940Y516140D02*
Y546140D01*
X1229840Y505740D02*
X1259840D01*
X1244840Y490740D02*
Y520740D01*
X1312531Y556540D02*
X1329549D01*
X1321040Y548031D02*
Y565049D01*
X1210931Y556540D02*
X1227949D01*
X1219440Y548031D02*
Y565049D01*
X1401831Y556540D02*
X1418849D01*
X1410340Y548031D02*
Y565049D01*
X1503431Y556540D02*
X1520449D01*
X1511940Y548031D02*
Y565049D01*
X1420740Y505740D02*
X1450740D01*
X1435740Y490740D02*
Y520740D01*
X1483840Y531140D02*
X1513840D01*
X1498840Y516140D02*
Y546140D01*
X1816580Y721640D02*
X1846580D01*
X1831580Y706640D02*
Y736640D01*
X1753480Y696240D02*
X1783480D01*
X1768480Y681240D02*
Y711240D01*
X1836171Y747040D02*
X1853189D01*
X1844680Y738531D02*
Y755549D01*
X1734571Y747040D02*
X1751589D01*
X1743080Y738531D02*
Y755549D01*
X1592331Y556540D02*
X1609349D01*
X1600840Y548031D02*
Y565049D01*
X1693931Y556540D02*
X1710949D01*
X1702440Y548031D02*
Y565049D01*
X1611240Y505740D02*
X1641240D01*
X1626240Y490740D02*
Y520740D01*
X1674340Y531140D02*
X1704340D01*
X1689340Y516140D02*
Y546140D01*
X1864840Y531140D02*
X1894840D01*
X1879840Y516140D02*
Y546140D01*
X1801740Y505740D02*
X1831740D01*
X1816740Y490740D02*
Y520740D01*
X1884431Y556540D02*
X1901449D01*
X1892940Y548031D02*
Y565049D01*
X1782831Y556540D02*
X1799849D01*
X1791340Y548031D02*
Y565049D01*
X615701Y175540D02*
X632719D01*
X624210Y167031D02*
Y184049D01*
X717301Y175540D02*
X734319D01*
X725810Y167031D02*
Y184049D01*
X634610Y124740D02*
X664610D01*
X649610Y109740D02*
Y139740D01*
X697710Y150140D02*
X727710D01*
X712710Y135140D02*
Y165140D01*
X221460Y150140D02*
X251460D01*
X236460Y135140D02*
Y165140D01*
X158360Y124740D02*
X188360D01*
X173360Y109740D02*
Y139740D01*
X241051Y175540D02*
X258069D01*
X249560Y167031D02*
Y184049D01*
X139451Y175540D02*
X156469D01*
X147960Y167031D02*
Y184049D01*
X2401321Y175540D02*
X2418339D01*
X2409830Y167031D02*
Y184049D01*
X2502921Y175540D02*
X2519939D01*
X2511430Y167031D02*
Y184049D01*
X2420230Y124740D02*
X2450230D01*
X2435230Y109740D02*
Y139740D01*
X2483330Y150140D02*
X2513330D01*
X2498330Y135140D02*
Y165140D01*
X292580Y340640D02*
X322580D01*
X307580Y325640D02*
Y355640D01*
X229480Y315240D02*
X259480D01*
X244480Y300240D02*
Y330240D01*
X312171Y366040D02*
X329189D01*
X320680Y357531D02*
Y374549D01*
X210571Y366040D02*
X227589D01*
X219080Y357531D02*
Y374549D01*
X1973331Y556540D02*
X1990349D01*
X1981840Y548031D02*
Y565049D01*
X2074931Y556540D02*
X2091949D01*
X2083440Y548031D02*
Y565049D01*
X1992240Y505740D02*
X2022240D01*
X2007240Y490740D02*
Y520740D01*
X2055340Y531140D02*
X2085340D01*
X2070340Y516140D02*
Y546140D01*
X2292830Y150140D02*
X2322830D01*
X2307830Y135140D02*
Y165140D01*
X2229730Y124740D02*
X2259730D01*
X2244730Y109740D02*
Y139740D01*
X2312421Y175540D02*
X2329439D01*
X2320930Y167031D02*
Y184049D01*
X2210821Y175540D02*
X2227839D01*
X2219330Y167031D02*
Y184049D01*
X1639321Y366040D02*
X1656339D01*
X1647830Y357531D02*
Y374549D01*
X1740921Y366040D02*
X1757939D01*
X1749430Y357531D02*
Y374549D01*
X1658230Y315240D02*
X1688230D01*
X1673230Y300240D02*
Y330240D01*
X1721330Y340640D02*
X1751330D01*
X1736330Y325640D02*
Y355640D01*
X1530830Y340640D02*
X1560830D01*
X1545830Y325640D02*
Y355640D01*
X1467730Y315240D02*
X1497730D01*
X1482730Y300240D02*
Y330240D01*
X1550421Y366040D02*
X1567439D01*
X1558930Y357531D02*
Y374549D01*
X1448821Y366040D02*
X1465839D01*
X1457330Y357531D02*
Y374549D01*
X1925071Y747040D02*
X1942089D01*
X1933580Y738531D02*
Y755549D01*
X2026671Y747040D02*
X2043689D01*
X2035180Y738531D02*
Y755549D01*
X1943980Y696240D02*
X1973980D01*
X1958980Y681240D02*
Y711240D01*
X2007080Y721640D02*
X2037080D01*
X2022080Y706640D02*
Y736640D01*
X2197580Y721640D02*
X2227580D01*
X2212580Y706640D02*
Y736640D01*
X2134480Y696240D02*
X2164480D01*
X2149480Y681240D02*
Y711240D01*
X2217171Y747040D02*
X2234189D01*
X2225680Y738531D02*
Y755549D01*
X2115571Y747040D02*
X2132589D01*
X2124080Y738531D02*
Y755549D01*
X401071Y747040D02*
X418089D01*
X409580Y738531D02*
Y755549D01*
X502671Y747040D02*
X519689D01*
X511180Y738531D02*
Y755549D01*
X419980Y696240D02*
X449980D01*
X434980Y681240D02*
Y711240D01*
X483080Y721640D02*
X513080D01*
X498080Y706640D02*
Y736640D01*
X2863930Y150140D02*
X2893930D01*
X2878930Y135140D02*
Y165140D01*
X2800830Y124740D02*
X2830830D01*
X2815830Y109740D02*
Y139740D01*
X2883521Y175540D02*
X2900539D01*
X2892030Y167031D02*
Y184049D01*
X2781921Y175540D02*
X2798939D01*
X2790430Y167031D02*
Y184049D01*
X2401721Y366040D02*
X2418739D01*
X2410230Y357531D02*
Y374549D01*
X2503321Y366040D02*
X2520339D01*
X2511830Y357531D02*
Y374549D01*
X2420630Y315240D02*
X2450630D01*
X2435630Y300240D02*
Y330240D01*
X2483730Y340640D02*
X2513730D01*
X2498730Y325640D02*
Y355640D01*
X1054580Y721640D02*
X1084580D01*
X1069580Y706640D02*
Y736640D01*
X991480Y696240D02*
X1021480D01*
X1006480Y681240D02*
Y711240D01*
X1074171Y747040D02*
X1091189D01*
X1082680Y738531D02*
Y755549D01*
X972571Y747040D02*
X989589D01*
X981080Y738531D02*
Y755549D01*
X1330711Y175540D02*
X1347729D01*
X1339220Y167031D02*
Y184049D01*
X1432311Y175540D02*
X1449329D01*
X1440820Y167031D02*
Y184049D01*
X1349620Y124740D02*
X1379620D01*
X1364620Y109740D02*
Y139740D01*
X1412720Y150140D02*
X1442720D01*
X1427720Y135140D02*
Y165140D01*
X721840Y531140D02*
X751840D01*
X736840Y516140D02*
Y546140D01*
X658740Y505740D02*
X688740D01*
X673740Y490740D02*
Y520740D01*
X741431Y556540D02*
X758449D01*
X749940Y548031D02*
Y565049D01*
X639831Y556540D02*
X656849D01*
X648340Y548031D02*
Y565049D01*
X1163941Y747040D02*
X1180959D01*
X1172450Y738531D02*
Y755549D01*
X1265541Y747040D02*
X1282559D01*
X1274050Y738531D02*
Y755549D01*
X1182850Y696240D02*
X1212850D01*
X1197850Y681240D02*
Y711240D01*
X1245950Y721640D02*
X1275950D01*
X1260950Y706640D02*
Y736640D01*
X2673830Y340640D02*
X2703830D01*
X2688830Y325640D02*
Y355640D01*
X2610730Y315240D02*
X2640730D01*
X2625730Y300240D02*
Y330240D01*
X2693421Y366040D02*
X2710439D01*
X2701930Y357531D02*
Y374549D01*
X2591821Y366040D02*
X2608839D01*
X2600330Y357531D02*
Y374549D01*
X1545341Y747040D02*
X1562359D01*
X1553850Y738531D02*
Y755549D01*
X1646941Y747040D02*
X1663959D01*
X1655450Y738531D02*
Y755549D01*
X1564250Y696240D02*
X1594250D01*
X1579250Y681240D02*
Y711240D01*
X1627350Y721640D02*
X1657350D01*
X1642350Y706640D02*
Y736640D01*
X1151100Y340640D02*
X1181100D01*
X1166100Y325640D02*
Y355640D01*
X1088000Y315240D02*
X1118000D01*
X1103000Y300240D02*
Y330240D01*
X1170691Y366040D02*
X1187709D01*
X1179200Y357531D02*
Y374549D01*
X1069091Y366040D02*
X1086109D01*
X1077600Y357531D02*
Y374549D01*
X591571Y747040D02*
X608589D01*
X600080Y738531D02*
Y755549D01*
X693171Y747040D02*
X710189D01*
X701680Y738531D02*
Y755549D01*
X610480Y696240D02*
X640480D01*
X625480Y681240D02*
Y711240D01*
X673580Y721640D02*
X703580D01*
X688580Y706640D02*
Y736640D01*
X769230Y340640D02*
X799230D01*
X784230Y325640D02*
Y355640D01*
X706130Y315240D02*
X736130D01*
X721130Y300240D02*
Y330240D01*
X788821Y366040D02*
X805839D01*
X797330Y357531D02*
Y374549D01*
X687221Y366040D02*
X704239D01*
X695730Y357531D02*
Y374549D01*
X1353571Y747040D02*
X1370589D01*
X1362080Y738531D02*
Y755549D01*
X1455171Y747040D02*
X1472189D01*
X1463680Y738531D02*
Y755549D01*
X1372480Y696240D02*
X1402480D01*
X1387480Y681240D02*
Y711240D01*
X1435580Y721640D02*
X1465580D01*
X1450580Y706640D02*
Y736640D01*
X578330Y340640D02*
X608330D01*
X593330Y325640D02*
Y355640D01*
X515230Y315240D02*
X545230D01*
X530230Y300240D02*
Y330240D01*
X597921Y366040D02*
X614939D01*
X606430Y357531D02*
Y374549D01*
X496321Y366040D02*
X513339D01*
X504830Y357531D02*
Y374549D01*
X2210821Y366040D02*
X2227839D01*
X2219330Y357531D02*
Y374549D01*
X2312421Y366040D02*
X2329439D01*
X2320930Y357531D02*
Y374549D01*
X2229730Y315240D02*
X2259730D01*
X2244730Y300240D02*
Y330240D01*
X2292830Y340640D02*
X2322830D01*
X2307830Y325640D02*
Y355640D01*
X246860Y721640D02*
X276860D01*
X261860Y706640D02*
Y736640D01*
X183760Y696240D02*
X213760D01*
X198760Y681240D02*
Y711240D01*
X266451Y747040D02*
X283469D01*
X274960Y738531D02*
Y755549D01*
X164851Y747040D02*
X181869D01*
X173360Y738531D02*
Y755549D01*
X1758950Y109220D02*
X1766570D01*
X1762760Y105410D02*
Y113030D01*
X1860550Y109220D02*
X1868170D01*
X1864360Y105410D02*
Y113030D01*
X1784350Y109220D02*
X1791970D01*
X1788160Y105410D02*
Y113030D01*
X1809750Y109220D02*
X1817370D01*
X1813560Y105410D02*
Y113030D01*
X1835150Y109220D02*
X1842770D01*
X1838960Y105410D02*
Y113030D01*
X831000Y947500D02*
X853000D01*
X842000Y936500D02*
Y958500D01*
X1975920Y947318D02*
X1997920D01*
X1986920Y936318D02*
Y958317D01*
X209000Y840500D02*
X231000D01*
X220000Y829500D02*
Y851500D01*
X2786500Y840500D02*
X2808500D01*
X2797500Y829500D02*
Y851500D01*
X2786500Y269252D02*
X2808500D01*
X2797500Y258252D02*
Y280252D01*
X209000Y270000D02*
X231000D01*
X220000Y259000D02*
Y281000D01*
X1733550Y109220D02*
X1741170D01*
X1737360Y105410D02*
Y113030D01*
X1708150Y109220D02*
X1715770D01*
X1711960Y105410D02*
Y113030D01*
X437110Y258852D02*
X440158D01*
X438634Y257328D02*
Y260376D01*
X2868676Y417614D02*
X2871724D01*
X2870200Y416090D02*
Y419138D01*
X2707386Y998220D02*
X2710434D01*
X2708910Y996696D02*
Y999744D01*
X327406Y436880D02*
X330454D01*
X328930Y435356D02*
Y438404D01*
X248666Y798614D02*
X251714D01*
X250190Y797090D02*
Y800138D01*
X255208Y833648D02*
X258256D01*
X256732Y832124D02*
Y835172D01*
X461706Y227114D02*
X464753D01*
X463229Y225590D02*
Y228638D01*
X409326Y277140D02*
X412374D01*
X410850Y275616D02*
Y278664D01*
X849376Y1093470D02*
X852424D01*
X850900Y1091946D02*
Y1094994D01*
X2706116Y298450D02*
X2709164D01*
X2707640Y296926D02*
Y299974D01*
X2706116Y311150D02*
X2709164D01*
X2707640Y309626D02*
Y312674D01*
X2701036Y304800D02*
X2704084D01*
X2702560Y303276D02*
Y306324D01*
X1839976Y194310D02*
X1843024D01*
X1841500Y192786D02*
Y195834D01*
X1900936Y194310D02*
X1903984D01*
X1902460Y192786D02*
Y195834D01*
X1412626Y688620D02*
X1415674D01*
X1414150Y687096D02*
Y690144D01*
X650626Y688620D02*
X653674D01*
X652150Y687096D02*
Y690144D01*
X1387226Y129820D02*
X1390274D01*
X1388750Y128296D02*
Y131344D01*
X1031626Y688620D02*
X1034674D01*
X1033150Y687096D02*
Y690144D01*
X2454026Y333020D02*
X2457074D01*
X2455550Y331496D02*
Y334544D01*
X2174626Y688620D02*
X2177674D01*
X2176150Y687096D02*
Y690144D01*
X1692026Y333020D02*
X1695074D01*
X1693550Y331496D02*
Y334544D01*
X2034926Y510820D02*
X2037974D01*
X2036450Y509296D02*
Y512344D01*
X676026Y129820D02*
X679074D01*
X677550Y128296D02*
Y131344D01*
X1653926Y510820D02*
X1656974D01*
X1655450Y509296D02*
Y512344D01*
X1793626Y688620D02*
X1796674D01*
X1795150Y687096D02*
Y690144D01*
X1272926Y510820D02*
X1275974D01*
X1274450Y509296D02*
Y512344D01*
X891926Y510820D02*
X894974D01*
X893450Y509296D02*
Y512344D01*
X930026Y333020D02*
X933074D01*
X931550Y331496D02*
Y334544D01*
X1311026Y333020D02*
X1314074D01*
X1312550Y331496D02*
Y334544D01*
X2555626Y688620D02*
X2558674D01*
X2557150Y687096D02*
Y690144D01*
X2073026Y333020D02*
X2076074D01*
X2074550Y331496D02*
Y334544D01*
X2415926Y510820D02*
X2418974D01*
X2417450Y509296D02*
Y512344D01*
X383942Y511690D02*
X386990D01*
X385466Y510166D02*
Y513214D01*
X422026Y383820D02*
X425074D01*
X423550Y382296D02*
Y385344D01*
X422026Y333020D02*
X425074D01*
X423550Y331496D02*
Y334544D01*
X1193546Y1005840D02*
X1196594D01*
X1195070Y1004316D02*
Y1007364D01*
X1202436Y1005840D02*
X1205484D01*
X1203960Y1004316D02*
Y1007364D01*
X1211326Y1005840D02*
X1214374D01*
X1212850Y1004316D02*
Y1007364D01*
X1220216Y1005840D02*
X1223264D01*
X1221740Y1004316D02*
Y1007364D01*
X1236726Y998220D02*
X1239774D01*
X1238250Y996696D02*
Y999744D01*
X1241806Y991870D02*
X1244854D01*
X1243330Y990346D02*
Y993394D01*
X1236726Y985520D02*
X1239774D01*
X1238250Y983996D02*
Y987044D01*
X1241806Y979170D02*
X1244854D01*
X1243330Y977646D02*
Y980694D01*
X1615826Y979450D02*
X1618874D01*
X1617350Y977926D02*
Y980974D01*
X1596776Y979450D02*
X1599824D01*
X1598300Y977926D02*
Y980974D01*
X1577726Y979450D02*
X1580774D01*
X1579250Y977926D02*
Y980974D01*
X1657096Y104140D02*
X1660144D01*
X1658620Y102616D02*
Y105664D01*
X1643762Y106884D02*
X1646810D01*
X1645286Y105360D02*
Y108408D01*
X1620266Y118110D02*
X1623314D01*
X1621790Y116586D02*
Y119634D01*
X1614048Y99060D02*
X1617096D01*
X1615572Y97536D02*
Y100584D01*
X1635506Y96520D02*
X1638554D01*
X1637030Y94996D02*
Y98044D01*
X1588944Y99525D02*
X1591992D01*
X1590468Y98001D02*
Y101049D01*
X1787906Y173990D02*
X1790954D01*
X1789430Y172466D02*
Y175514D01*
X1773936Y160020D02*
X1776984D01*
X1775460Y158496D02*
Y161544D01*
X1787906Y160020D02*
X1790954D01*
X1789430Y158496D02*
Y161544D01*
X2844546Y956310D02*
X2847594D01*
X2846070Y954786D02*
Y957834D01*
X2873756Y968018D02*
X2876804D01*
X2875280Y966494D02*
Y969542D01*
X2883916Y1009650D02*
X2886964D01*
X2885440Y1008126D02*
Y1011174D01*
X1932686Y195580D02*
X1935734D01*
X1934210Y194056D02*
Y197104D01*
X1714246Y185420D02*
X1717294D01*
X1715770Y183896D02*
Y186944D01*
X1705356Y185420D02*
X1708404D01*
X1706880Y183896D02*
Y186944D01*
X1691386Y61748D02*
X1694434D01*
X1692910Y60224D02*
Y63272D01*
X1589005Y235866D02*
X1592053D01*
X1590529Y234342D02*
Y237390D01*
X1516126Y233680D02*
X1519174D01*
X1517650Y232156D02*
Y235204D01*
X1516661Y184938D02*
X1519709D01*
X1518185Y183414D02*
Y186462D01*
X1653596Y146050D02*
X1656644D01*
X1655120Y144526D02*
Y147574D01*
X1630426Y146050D02*
X1633474D01*
X1631950Y144526D02*
Y147574D01*
X1678199Y107724D02*
X1681247D01*
X1679723Y106200D02*
Y109248D01*
X1678199Y118687D02*
X1681247D01*
X1679723Y117163D02*
Y120211D01*
X1678207Y178841D02*
X1681255D01*
X1679731Y177317D02*
Y180365D01*
X1678207Y190144D02*
X1681255D01*
X1679731Y188620D02*
Y191668D01*
X1602007Y178714D02*
X1605055D01*
X1603531Y177190D02*
Y180238D01*
X1602007Y190144D02*
X1605055D01*
X1603531Y188620D02*
Y191668D01*
X1554226Y233680D02*
X1557274D01*
X1555750Y232156D02*
Y235204D01*
X1561846Y233680D02*
X1564894D01*
X1563370Y232156D02*
Y235204D01*
X1545336Y241300D02*
X1548384D01*
X1546860Y239776D02*
Y242824D01*
X1570736Y241300D02*
X1573784D01*
X1572260Y239776D02*
Y242824D01*
X1638046Y181610D02*
X1641094D01*
X1639570Y180086D02*
Y183134D01*
X1638046Y190500D02*
X1641094D01*
X1639570Y188976D02*
Y192024D01*
X1629156Y190500D02*
X1632204D01*
X1630680Y188976D02*
Y192024D01*
X1629156Y181610D02*
X1632204D01*
X1630680Y180086D02*
Y183134D01*
X1505966Y241300D02*
X1509014D01*
X1507490Y239776D02*
Y242824D01*
X1590171Y77346D02*
X1593219D01*
X1591695Y75822D02*
Y78870D01*
X1587721Y115740D02*
X1590769D01*
X1589245Y114216D02*
Y117264D01*
X1597284Y118794D02*
X1600332D01*
X1598808Y117270D02*
Y120318D01*
X1582166Y193040D02*
X1585214D01*
X1583690Y191516D02*
Y194564D01*
X1597284Y80694D02*
X1600332D01*
X1598808Y79170D02*
Y82218D01*
X1502156Y233680D02*
X1505204D01*
X1503680Y232156D02*
Y235204D01*
X1909636Y156713D02*
X1912684D01*
X1911160Y155189D02*
Y158237D01*
X1979676Y160020D02*
X1982724D01*
X1981200Y158496D02*
Y161544D01*
X1916793Y147950D02*
X1919841D01*
X1918317Y146426D02*
Y149474D01*
X1946656Y135538D02*
X1949704D01*
X1948180Y134014D02*
Y137062D01*
X1986026Y126746D02*
X1989074D01*
X1987550Y125222D02*
Y128270D01*
X1588516Y132080D02*
X1591564D01*
X1590040Y130556D02*
Y133604D01*
X1526006Y233960D02*
X1529054D01*
X1527530Y232436D02*
Y235484D01*
X1485646Y190500D02*
X1488694D01*
X1487170Y188976D02*
Y192024D01*
X1481836Y233680D02*
X1484884D01*
X1483360Y232156D02*
Y235204D01*
X1561216Y183160D02*
X1564264D01*
X1562740Y181636D02*
Y184684D01*
X1553596Y183160D02*
X1556644D01*
X1555120Y181636D02*
Y184684D01*
X1831086Y177800D02*
X1834134D01*
X1832610Y176276D02*
Y179324D01*
X1911096Y68580D02*
X1914144D01*
X1912620Y67056D02*
Y70104D01*
X1903476Y68580D02*
X1906524D01*
X1905000Y67056D02*
Y70104D01*
X1693926Y232410D02*
X1696974D01*
X1695450Y230886D02*
Y233934D01*
X1693926Y238760D02*
X1696974D01*
X1695450Y237236D02*
Y240284D01*
X1687576Y238760D02*
X1690624D01*
X1689100Y237236D02*
Y240284D01*
X1478807Y195959D02*
X1481855D01*
X1480331Y194435D02*
Y197483D01*
X1466596Y237490D02*
X1469644D01*
X1468120Y235966D02*
Y239014D01*
X1447546Y237490D02*
X1450594D01*
X1449070Y235966D02*
Y239014D01*
X1457706Y181610D02*
X1460754D01*
X1459230Y180086D02*
Y183134D01*
X1466596Y181610D02*
X1469644D01*
X1468120Y180086D02*
Y183134D01*
X1475486Y181610D02*
X1478534D01*
X1477010Y180086D02*
Y183134D01*
X1484376Y181610D02*
X1487424D01*
X1485900Y180086D02*
Y183134D01*
X2632407Y502871D02*
X2635455D01*
X2633931Y501347D02*
Y504395D01*
X2590497Y518111D02*
X2593545D01*
X2592021Y516587D02*
Y519635D01*
X1848866Y226060D02*
X1851914D01*
X1850390Y224536D02*
Y227584D01*
X1848866Y157480D02*
X1851914D01*
X1850390Y155956D02*
Y159004D01*
X1861566Y157480D02*
X1864614D01*
X1863090Y155956D02*
Y159004D01*
X76745Y101575D02*
X79793D01*
X78269Y100051D02*
Y103099D01*
X99384Y78793D02*
X102432D01*
X100908Y77269D02*
Y80317D01*
X79756Y1035050D02*
X82804D01*
X81280Y1033526D02*
Y1036574D01*
X79756Y1043940D02*
X82804D01*
X81280Y1042416D02*
Y1045464D01*
X79756Y1052830D02*
X82804D01*
X81280Y1051306D02*
Y1054354D01*
X2932176Y1035050D02*
X2935224D01*
X2933700Y1033526D02*
Y1036574D01*
X2932176Y1043940D02*
X2935224D01*
X2933700Y1042416D02*
Y1045464D01*
X2932176Y1052830D02*
X2935224D01*
X2933700Y1051306D02*
Y1054354D01*
X2913805Y78978D02*
X2916852D01*
X2915328Y77454D02*
Y80502D01*
X2937871Y101903D02*
X2940919D01*
X2939395Y100379D02*
Y103427D01*
X2590546Y560070D02*
X2593594D01*
X2592070Y558546D02*
Y561594D01*
X2571496Y560070D02*
X2574544D01*
X2573020Y558546D02*
Y561594D01*
X917326Y155220D02*
X920374D01*
X918850Y153696D02*
Y156744D01*
X904626Y180620D02*
X907674D01*
X906150Y179096D02*
Y182144D01*
X891926Y155220D02*
X894974D01*
X893450Y153696D02*
Y156744D01*
X904626Y129820D02*
X907674D01*
X906150Y128296D02*
Y131344D01*
X879226Y180620D02*
X882274D01*
X880750Y179096D02*
Y182144D01*
X879226Y129820D02*
X882274D01*
X880750Y128296D02*
Y131344D01*
X2923926Y1120420D02*
X2926974D01*
X2925450Y1118896D02*
Y1121944D01*
X2923926Y1069620D02*
X2926974D01*
X2925450Y1068096D02*
Y1071144D01*
X2898526Y968020D02*
X2901574D01*
X2900050Y966496D02*
Y969544D01*
X2898526Y815620D02*
X2901574D01*
X2900050Y814096D02*
Y817144D01*
X2898526Y510820D02*
X2901574D01*
X2900050Y509296D02*
Y512344D01*
X2898526Y307620D02*
X2901574D01*
X2900050Y306096D02*
Y309144D01*
X2898526Y256820D02*
X2901574D01*
X2900050Y255296D02*
Y258344D01*
X2898526Y206020D02*
X2901574D01*
X2900050Y204496D02*
Y207544D01*
X2885826Y993420D02*
X2888874D01*
X2887350Y991896D02*
Y994944D01*
X2885826Y942620D02*
X2888874D01*
X2887350Y941096D02*
Y944144D01*
X2873126Y917220D02*
X2876174D01*
X2874650Y915696D02*
Y918744D01*
X2873126Y866420D02*
X2876174D01*
X2874650Y864896D02*
Y867944D01*
X2885826Y841020D02*
X2888874D01*
X2887350Y839496D02*
Y842544D01*
X2873126Y815620D02*
X2876174D01*
X2874650Y814096D02*
Y817144D01*
X2885826Y790220D02*
X2888874D01*
X2887350Y788696D02*
Y791744D01*
X2885826Y688620D02*
X2888874D01*
X2887350Y687096D02*
Y690144D01*
X2873126Y663220D02*
X2876174D01*
X2874650Y661696D02*
Y664744D01*
X2885826Y637820D02*
X2888874D01*
X2887350Y636296D02*
Y639344D01*
X2873126Y612420D02*
X2876174D01*
X2874650Y610896D02*
Y613944D01*
X2885826Y587020D02*
X2888874D01*
X2887350Y585496D02*
Y588544D01*
X2873126Y561620D02*
X2876174D01*
X2874650Y560096D02*
Y563144D01*
X2885826Y536220D02*
X2888874D01*
X2887350Y534696D02*
Y537744D01*
X2885826Y282220D02*
X2888874D01*
X2887350Y280696D02*
Y283744D01*
X2873126Y206020D02*
X2876174D01*
X2874650Y204496D02*
Y207544D01*
X2860426Y637820D02*
X2863474D01*
X2861950Y636296D02*
Y639344D01*
X2860426Y587020D02*
X2863474D01*
X2861950Y585496D02*
Y588544D01*
X2860426Y536220D02*
X2863474D01*
X2861950Y534696D02*
Y537744D01*
X2847726Y460020D02*
X2850774D01*
X2849250Y458496D02*
Y461544D01*
X2847726Y206020D02*
X2850774D01*
X2849250Y204496D02*
Y207544D01*
X2860426Y129820D02*
X2863474D01*
X2861950Y128296D02*
Y131344D01*
X2835026Y942620D02*
X2838074D01*
X2836550Y941096D02*
Y944144D01*
X2835026Y841020D02*
X2838074D01*
X2836550Y839496D02*
Y842544D01*
X2835026Y790220D02*
X2838074D01*
X2836550Y788696D02*
Y791744D01*
X2835026Y688620D02*
X2838074D01*
X2836550Y687096D02*
Y690144D01*
X2822326Y460020D02*
X2825374D01*
X2823850Y458496D02*
Y461544D01*
X2822326Y206020D02*
X2825374D01*
X2823850Y204496D02*
Y207544D01*
X2796926Y663220D02*
X2799974D01*
X2798450Y661696D02*
Y664744D01*
X2796926Y612420D02*
X2799974D01*
X2798450Y610896D02*
Y613944D01*
X2796926Y561620D02*
X2799974D01*
X2798450Y560096D02*
Y563144D01*
X2796926Y460020D02*
X2799974D01*
X2798450Y458496D02*
Y461544D01*
X2796926Y206020D02*
X2799974D01*
X2798450Y204496D02*
Y207544D01*
X2809626Y180620D02*
X2812674D01*
X2811150Y179096D02*
Y182144D01*
X2796926Y155220D02*
X2799974D01*
X2798450Y153696D02*
Y156744D01*
X2771526Y663220D02*
X2774574D01*
X2773050Y661696D02*
Y664744D01*
X2784226Y637820D02*
X2787274D01*
X2785750Y636296D02*
Y639344D01*
X2771526Y612420D02*
X2774574D01*
X2773050Y610896D02*
Y613944D01*
X2771526Y460020D02*
X2774574D01*
X2773050Y458496D02*
Y461544D01*
X2771526Y409220D02*
X2774574D01*
X2773050Y407696D02*
Y410744D01*
X2784226Y383820D02*
X2787274D01*
X2785750Y382296D02*
Y385344D01*
X2771526Y358420D02*
X2774574D01*
X2773050Y356896D02*
Y359944D01*
X2784226Y231420D02*
X2787274D01*
X2785750Y229896D02*
Y232944D01*
X2771526Y206020D02*
X2774574D01*
X2773050Y204496D02*
Y207544D01*
X2771526Y155220D02*
X2774574D01*
X2773050Y153696D02*
Y156744D01*
X2758826Y637820D02*
X2761874D01*
X2760350Y636296D02*
Y639344D01*
X2746126Y460020D02*
X2749174D01*
X2747650Y458496D02*
Y461544D01*
X2746126Y206020D02*
X2749174D01*
X2747650Y204496D02*
Y207544D01*
X2733426Y841020D02*
X2736474D01*
X2734950Y839496D02*
Y842544D01*
X2733426Y790220D02*
X2736474D01*
X2734950Y788696D02*
Y791744D01*
X2720726Y764820D02*
X2723774D01*
X2722250Y763296D02*
Y766344D01*
X2720726Y663220D02*
X2723774D01*
X2722250Y661696D02*
Y664744D01*
X2733426Y637820D02*
X2736474D01*
X2734950Y636296D02*
Y639344D01*
X2733426Y180620D02*
X2736474D01*
X2734950Y179096D02*
Y182144D01*
X2695326Y663220D02*
X2698374D01*
X2696850Y661696D02*
Y664744D01*
X2708026Y637820D02*
X2711074D01*
X2709550Y636296D02*
Y639344D01*
X2708026Y383820D02*
X2711074D01*
X2709550Y382296D02*
Y385344D01*
X2708026Y282220D02*
X2711074D01*
X2709550Y280696D02*
Y283744D01*
X2682626Y282220D02*
X2685674D01*
X2684150Y280696D02*
Y283744D01*
X2682626Y180620D02*
X2685674D01*
X2684150Y179096D02*
Y182144D01*
X2669926Y155220D02*
X2672974D01*
X2671450Y153696D02*
Y156744D01*
X2682626Y129820D02*
X2685674D01*
X2684150Y128296D02*
Y131344D01*
X2644526Y764820D02*
X2647574D01*
X2646050Y763296D02*
Y766344D01*
X2657226Y282220D02*
X2660274D01*
X2658750Y280696D02*
Y283744D01*
X2657226Y129820D02*
X2660274D01*
X2658750Y128296D02*
Y131344D01*
X2631826Y891820D02*
X2634874D01*
X2633350Y890296D02*
Y893344D01*
X2631826Y790220D02*
X2634874D01*
X2633350Y788696D02*
Y791744D01*
X2619126Y764820D02*
X2622174D01*
X2620650Y763296D02*
Y766344D01*
X2631826Y688620D02*
X2634874D01*
X2633350Y687096D02*
Y690144D01*
X2619126Y663220D02*
X2622174D01*
X2620650Y661696D02*
Y664744D01*
X2619126Y155220D02*
X2622174D01*
X2620650Y153696D02*
Y156744D01*
X2593726Y917220D02*
X2596774D01*
X2595250Y915696D02*
Y918744D01*
X2606426Y891820D02*
X2609474D01*
X2607950Y890296D02*
Y893344D01*
X2606426Y790220D02*
X2609474D01*
X2607950Y788696D02*
Y791744D01*
X2593726Y764820D02*
X2596774D01*
X2595250Y763296D02*
Y766344D01*
X2606426Y688620D02*
X2609474D01*
X2607950Y687096D02*
Y690144D01*
X2593726Y663220D02*
X2596774D01*
X2595250Y661696D02*
Y664744D01*
X2606426Y282220D02*
X2609474D01*
X2607950Y280696D02*
Y283744D01*
X2581026Y942620D02*
X2584074D01*
X2582550Y941096D02*
Y944144D01*
X2568326Y917220D02*
X2571374D01*
X2569850Y915696D02*
Y918744D01*
X2581026Y739420D02*
X2584074D01*
X2582550Y737896D02*
Y740944D01*
X2568326Y714020D02*
X2571374D01*
X2569850Y712496D02*
Y715544D01*
X2581026Y688620D02*
X2584074D01*
X2582550Y687096D02*
Y690144D01*
X2568326Y663220D02*
X2571374D01*
X2569850Y661696D02*
Y664744D01*
X2581026Y383820D02*
X2584074D01*
X2582550Y382296D02*
Y385344D01*
X2555626Y942620D02*
X2558674D01*
X2557150Y941096D02*
Y944144D01*
X2542926Y663220D02*
X2545974D01*
X2544450Y661696D02*
Y664744D01*
X2542926Y307620D02*
X2545974D01*
X2544450Y306096D02*
Y309144D01*
X2530226Y942620D02*
X2533274D01*
X2531750Y941096D02*
Y944144D01*
X2530226Y891820D02*
X2533274D01*
X2531750Y890296D02*
Y893344D01*
X2517526Y764820D02*
X2520574D01*
X2519050Y763296D02*
Y766344D01*
X2517526Y663220D02*
X2520574D01*
X2519050Y661696D02*
Y664744D01*
X2517526Y409220D02*
X2520574D01*
X2519050Y407696D02*
Y410744D01*
X2530226Y383820D02*
X2533274D01*
X2531750Y382296D02*
Y385344D01*
X2517526Y307620D02*
X2520574D01*
X2519050Y306096D02*
Y309144D01*
X2504826Y790220D02*
X2507874D01*
X2506350Y788696D02*
Y791744D01*
X2492126Y764820D02*
X2495174D01*
X2493650Y763296D02*
Y766344D01*
X2492126Y561620D02*
X2495174D01*
X2493650Y560096D02*
Y563144D01*
X2504826Y485420D02*
X2507874D01*
X2506350Y483896D02*
Y486944D01*
X2504826Y383820D02*
X2507874D01*
X2506350Y382296D02*
Y385344D01*
X2492126Y358420D02*
X2495174D01*
X2493650Y356896D02*
Y359944D01*
X2492126Y307620D02*
X2495174D01*
X2493650Y306096D02*
Y309144D01*
X2479426Y790220D02*
X2482474D01*
X2480950Y788696D02*
Y791744D01*
X2466726Y764820D02*
X2469774D01*
X2468250Y763296D02*
Y766344D01*
X2479426Y739420D02*
X2482474D01*
X2480950Y737896D02*
Y740944D01*
X2466726Y663220D02*
X2469774D01*
X2468250Y661696D02*
Y664744D01*
X2479426Y485420D02*
X2482474D01*
X2480950Y483896D02*
Y486944D01*
X2479426Y333020D02*
X2482474D01*
X2480950Y331496D02*
Y334544D01*
X2466726Y307620D02*
X2469774D01*
X2468250Y306096D02*
Y309144D01*
X2454026Y790220D02*
X2457074D01*
X2455550Y788696D02*
Y791744D01*
X2441326Y764820D02*
X2444374D01*
X2442850Y763296D02*
Y766344D01*
X2454026Y688620D02*
X2457074D01*
X2455550Y687096D02*
Y690144D01*
X2441326Y663220D02*
X2444374D01*
X2442850Y661696D02*
Y664744D01*
X2441326Y561620D02*
X2444374D01*
X2442850Y560096D02*
Y563144D01*
X2441326Y510820D02*
X2444374D01*
X2442850Y509296D02*
Y512344D01*
X2454026Y485420D02*
X2457074D01*
X2455550Y483896D02*
Y486944D01*
X2428626Y942620D02*
X2431674D01*
X2430150Y941096D02*
Y944144D01*
X2428626Y790220D02*
X2431674D01*
X2430150Y788696D02*
Y791744D01*
X2428626Y688620D02*
X2431674D01*
X2430150Y687096D02*
Y690144D01*
X2415926Y663220D02*
X2418974D01*
X2417450Y661696D02*
Y664744D01*
X2428626Y485420D02*
X2431674D01*
X2430150Y483896D02*
Y486944D01*
X2428626Y383820D02*
X2431674D01*
X2430150Y382296D02*
Y385344D01*
X2428626Y180620D02*
X2431674D01*
X2430150Y179096D02*
Y182144D01*
X2390526Y764820D02*
X2393574D01*
X2392050Y763296D02*
Y766344D01*
X2403226Y688620D02*
X2406274D01*
X2404750Y687096D02*
Y690144D01*
X2390526Y663220D02*
X2393574D01*
X2392050Y661696D02*
Y664744D01*
X2403226Y485420D02*
X2406274D01*
X2404750Y483896D02*
Y486944D01*
X2390526Y409220D02*
X2393574D01*
X2392050Y407696D02*
Y410744D01*
X2403226Y383820D02*
X2406274D01*
X2404750Y382296D02*
Y385344D01*
X2390526Y358420D02*
X2393574D01*
X2392050Y356896D02*
Y359944D01*
X2403226Y231420D02*
X2406274D01*
X2404750Y229896D02*
Y232944D01*
X2377826Y942620D02*
X2380874D01*
X2379350Y941096D02*
Y944144D01*
X2365126Y714020D02*
X2368174D01*
X2366650Y712496D02*
Y715544D01*
X2377826Y688620D02*
X2380874D01*
X2379350Y687096D02*
Y690144D01*
X2365126Y663220D02*
X2368174D01*
X2366650Y661696D02*
Y664744D01*
X2377826Y536220D02*
X2380874D01*
X2379350Y534696D02*
Y537744D01*
X2365126Y409220D02*
X2368174D01*
X2366650Y407696D02*
Y410744D01*
X2377826Y383820D02*
X2380874D01*
X2379350Y382296D02*
Y385344D01*
X2377826Y333020D02*
X2380874D01*
X2379350Y331496D02*
Y334544D01*
X2365126Y307620D02*
X2368174D01*
X2366650Y306096D02*
Y309144D01*
X2377826Y231420D02*
X2380874D01*
X2379350Y229896D02*
Y232944D01*
X2352426Y942620D02*
X2355474D01*
X2353950Y941096D02*
Y944144D01*
X2339726Y764820D02*
X2342774D01*
X2341250Y763296D02*
Y766344D01*
X2339726Y663220D02*
X2342774D01*
X2341250Y661696D02*
Y664744D01*
X2339726Y561620D02*
X2342774D01*
X2341250Y560096D02*
Y563144D01*
X2352426Y536220D02*
X2355474D01*
X2353950Y534696D02*
Y537744D01*
X2352426Y485420D02*
X2355474D01*
X2353950Y483896D02*
Y486944D01*
X2339726Y409220D02*
X2342774D01*
X2341250Y407696D02*
Y410744D01*
X2352426Y383820D02*
X2355474D01*
X2353950Y382296D02*
Y385344D01*
X2339726Y307620D02*
X2342774D01*
X2341250Y306096D02*
Y309144D01*
X2314326Y561620D02*
X2317374D01*
X2315850Y560096D02*
Y563144D01*
X2327026Y485420D02*
X2330074D01*
X2328550Y483896D02*
Y486944D01*
X2314326Y409220D02*
X2317374D01*
X2315850Y407696D02*
Y410744D01*
X2327026Y383820D02*
X2330074D01*
X2328550Y382296D02*
Y385344D01*
X2314326Y307620D02*
X2317374D01*
X2315850Y306096D02*
Y309144D01*
X2327026Y231420D02*
X2330074D01*
X2328550Y229896D02*
Y232944D01*
X2301626Y942620D02*
X2304674D01*
X2303150Y941096D02*
Y944144D01*
X2288926Y917220D02*
X2291974D01*
X2290450Y915696D02*
Y918744D01*
X2301626Y891820D02*
X2304674D01*
X2303150Y890296D02*
Y893344D01*
X2301626Y790220D02*
X2304674D01*
X2303150Y788696D02*
Y791744D01*
X2288926Y764820D02*
X2291974D01*
X2290450Y763296D02*
Y766344D01*
X2288926Y663220D02*
X2291974D01*
X2290450Y661696D02*
Y664744D01*
X2288926Y510820D02*
X2291974D01*
X2290450Y509296D02*
Y512344D01*
X2301626Y485420D02*
X2304674D01*
X2303150Y483896D02*
Y486944D01*
X2301626Y383820D02*
X2304674D01*
X2303150Y382296D02*
Y385344D01*
X2288926Y307620D02*
X2291974D01*
X2290450Y306096D02*
Y309144D01*
X2301626Y180620D02*
X2304674D01*
X2303150Y179096D02*
Y182144D01*
X2288926Y155220D02*
X2291974D01*
X2290450Y153696D02*
Y156744D01*
X2276226Y790220D02*
X2279274D01*
X2277750Y788696D02*
Y791744D01*
X2263526Y764820D02*
X2266574D01*
X2265050Y763296D02*
Y766344D01*
X2276226Y688620D02*
X2279274D01*
X2277750Y687096D02*
Y690144D01*
X2263526Y663220D02*
X2266574D01*
X2265050Y661696D02*
Y664744D01*
X2276226Y485420D02*
X2279274D01*
X2277750Y483896D02*
Y486944D01*
X2276226Y333020D02*
X2279274D01*
X2277750Y331496D02*
Y334544D01*
X2250826Y790220D02*
X2253874D01*
X2252350Y788696D02*
Y791744D01*
X2238126Y764820D02*
X2241174D01*
X2239650Y763296D02*
Y766344D01*
X2250826Y688620D02*
X2253874D01*
X2252350Y687096D02*
Y690144D01*
X2238126Y663220D02*
X2241174D01*
X2239650Y661696D02*
Y664744D01*
X2238126Y510820D02*
X2241174D01*
X2239650Y509296D02*
Y512344D01*
X2250826Y485420D02*
X2253874D01*
X2252350Y483896D02*
Y486944D01*
X2238126Y358420D02*
X2241174D01*
X2239650Y356896D02*
Y359944D01*
X2225426Y790220D02*
X2228474D01*
X2226950Y788696D02*
Y791744D01*
X2212726Y764820D02*
X2215774D01*
X2214250Y763296D02*
Y766344D01*
X2225426Y688620D02*
X2228474D01*
X2226950Y687096D02*
Y690144D01*
X2212726Y663220D02*
X2215774D01*
X2214250Y661696D02*
Y664744D01*
X2225426Y485420D02*
X2228474D01*
X2226950Y483896D02*
Y486944D01*
X2212726Y409220D02*
X2215774D01*
X2214250Y407696D02*
Y410744D01*
X2225426Y383820D02*
X2228474D01*
X2226950Y382296D02*
Y385344D01*
X2225426Y231420D02*
X2228474D01*
X2226950Y229896D02*
Y232944D01*
X2200026Y942620D02*
X2203074D01*
X2201550Y941096D02*
Y944144D01*
X2200026Y739420D02*
X2203074D01*
X2201550Y737896D02*
Y740944D01*
X2187326Y714020D02*
X2190374D01*
X2188850Y712496D02*
Y715544D01*
X2200026Y688620D02*
X2203074D01*
X2201550Y687096D02*
Y690144D01*
X2187326Y663220D02*
X2190374D01*
X2188850Y661696D02*
Y664744D01*
X2200026Y536220D02*
X2203074D01*
X2201550Y534696D02*
Y537744D01*
X2187326Y409220D02*
X2190374D01*
X2188850Y407696D02*
Y410744D01*
X2200026Y383820D02*
X2203074D01*
X2201550Y382296D02*
Y385344D01*
X2187326Y358420D02*
X2190374D01*
X2188850Y356896D02*
Y359944D01*
X2200026Y231420D02*
X2203074D01*
X2201550Y229896D02*
Y232944D01*
X2174626Y942620D02*
X2177674D01*
X2176150Y941096D02*
Y944144D01*
X2161926Y663220D02*
X2164974D01*
X2163450Y661696D02*
Y664744D01*
X2174626Y536220D02*
X2177674D01*
X2176150Y534696D02*
Y537744D01*
X2161926Y409220D02*
X2164974D01*
X2163450Y407696D02*
Y410744D01*
X2174626Y383820D02*
X2177674D01*
X2176150Y382296D02*
Y385344D01*
X2161926Y307620D02*
X2164974D01*
X2163450Y306096D02*
Y309144D01*
X2149226Y942620D02*
X2152274D01*
X2150750Y941096D02*
Y944144D01*
X2136526Y764820D02*
X2139574D01*
X2138050Y763296D02*
Y766344D01*
X2136526Y663220D02*
X2139574D01*
X2138050Y661696D02*
Y664744D01*
X2136526Y561620D02*
X2139574D01*
X2138050Y560096D02*
Y563144D01*
X2149226Y536220D02*
X2152274D01*
X2150750Y534696D02*
Y537744D01*
X2136526Y510820D02*
X2139574D01*
X2138050Y509296D02*
Y512344D01*
X2149226Y485420D02*
X2152274D01*
X2150750Y483896D02*
Y486944D01*
X2136526Y409220D02*
X2139574D01*
X2138050Y407696D02*
Y410744D01*
X2149226Y383820D02*
X2152274D01*
X2150750Y382296D02*
Y385344D01*
X2136526Y307620D02*
X2139574D01*
X2138050Y306096D02*
Y309144D01*
X2123826Y790220D02*
X2126874D01*
X2125350Y788696D02*
Y791744D01*
X2111126Y764820D02*
X2114174D01*
X2112650Y763296D02*
Y766344D01*
X2111126Y561620D02*
X2114174D01*
X2112650Y560096D02*
Y563144D01*
X2123826Y485420D02*
X2126874D01*
X2125350Y483896D02*
Y486944D01*
X2123826Y383820D02*
X2126874D01*
X2125350Y382296D02*
Y385344D01*
X2111126Y358420D02*
X2114174D01*
X2112650Y356896D02*
Y359944D01*
X2111126Y307620D02*
X2114174D01*
X2112650Y306096D02*
Y309144D01*
X2098426Y790220D02*
X2101474D01*
X2099950Y788696D02*
Y791744D01*
X2085726Y764820D02*
X2088774D01*
X2087250Y763296D02*
Y766344D01*
X2098426Y739420D02*
X2101474D01*
X2099950Y737896D02*
Y740944D01*
X2098426Y485420D02*
X2101474D01*
X2099950Y483896D02*
Y486944D01*
X2098426Y333020D02*
X2101474D01*
X2099950Y331496D02*
Y334544D01*
X2085726Y307620D02*
X2088774D01*
X2087250Y306096D02*
Y309144D01*
X2073026Y790220D02*
X2076074D01*
X2074550Y788696D02*
Y791744D01*
X2060326Y764820D02*
X2063374D01*
X2061850Y763296D02*
Y766344D01*
X2073026Y688620D02*
X2076074D01*
X2074550Y687096D02*
Y690144D01*
X2060326Y561620D02*
X2063374D01*
X2061850Y560096D02*
Y563144D01*
X2060326Y510820D02*
X2063374D01*
X2061850Y509296D02*
Y512344D01*
X2073026Y485420D02*
X2076074D01*
X2074550Y483896D02*
Y486944D01*
X2047626Y942620D02*
X2050674D01*
X2049150Y941096D02*
Y944144D01*
X2047626Y790220D02*
X2050674D01*
X2049150Y788696D02*
Y791744D01*
X2047626Y688620D02*
X2050674D01*
X2049150Y687096D02*
Y690144D01*
X2047626Y485420D02*
X2050674D01*
X2049150Y483896D02*
Y486944D01*
X2047626Y383820D02*
X2050674D01*
X2049150Y382296D02*
Y385344D01*
X2047626Y180620D02*
X2050674D01*
X2049150Y179096D02*
Y182144D01*
X2009526Y764820D02*
X2012574D01*
X2011050Y763296D02*
Y766344D01*
X2022226Y688620D02*
X2025274D01*
X2023750Y687096D02*
Y690144D01*
X2022226Y485420D02*
X2025274D01*
X2023750Y483896D02*
Y486944D01*
X2009526Y409220D02*
X2012574D01*
X2011050Y407696D02*
Y410744D01*
X2022226Y383820D02*
X2025274D01*
X2023750Y382296D02*
Y385344D01*
X2009526Y358420D02*
X2012574D01*
X2011050Y356896D02*
Y359944D01*
X1984126Y866420D02*
X1987174D01*
X1985650Y864896D02*
Y867944D01*
X1984126Y714020D02*
X1987174D01*
X1985650Y712496D02*
Y715544D01*
X1996826Y688620D02*
X1999874D01*
X1998350Y687096D02*
Y690144D01*
X1996826Y536220D02*
X1999874D01*
X1998350Y534696D02*
Y537744D01*
X1984126Y409220D02*
X1987174D01*
X1985650Y407696D02*
Y410744D01*
X1996826Y383820D02*
X1999874D01*
X1998350Y382296D02*
Y385344D01*
X1984126Y307620D02*
X1987174D01*
X1985650Y306096D02*
Y309144D01*
X1958726Y866420D02*
X1961774D01*
X1960250Y864896D02*
Y867944D01*
X1958726Y764820D02*
X1961774D01*
X1960250Y763296D02*
Y766344D01*
X1958726Y561620D02*
X1961774D01*
X1960250Y560096D02*
Y563144D01*
X1971426Y536220D02*
X1974474D01*
X1972950Y534696D02*
Y537744D01*
X1971426Y485420D02*
X1974474D01*
X1972950Y483896D02*
Y486944D01*
X1958726Y409220D02*
X1961774D01*
X1960250Y407696D02*
Y410744D01*
X1971426Y383820D02*
X1974474D01*
X1972950Y382296D02*
Y385344D01*
X1958726Y307620D02*
X1961774D01*
X1960250Y306096D02*
Y309144D01*
X1933326Y866420D02*
X1936374D01*
X1934850Y864896D02*
Y867944D01*
X1933326Y561620D02*
X1936374D01*
X1934850Y560096D02*
Y563144D01*
X1946026Y485420D02*
X1949074D01*
X1947550Y483896D02*
Y486944D01*
X1933326Y409220D02*
X1936374D01*
X1934850Y407696D02*
Y410744D01*
X1946026Y383820D02*
X1949074D01*
X1947550Y382296D02*
Y385344D01*
X1933326Y307620D02*
X1936374D01*
X1934850Y306096D02*
Y309144D01*
X1920626Y942620D02*
X1923674D01*
X1922150Y941096D02*
Y944144D01*
X1907926Y917220D02*
X1910974D01*
X1909450Y915696D02*
Y918744D01*
X1920626Y891820D02*
X1923674D01*
X1922150Y890296D02*
Y893344D01*
X1907926Y866420D02*
X1910974D01*
X1909450Y864896D02*
Y867944D01*
X1920626Y790220D02*
X1923674D01*
X1922150Y788696D02*
Y791744D01*
X1907926Y764820D02*
X1910974D01*
X1909450Y763296D02*
Y766344D01*
X1907926Y510820D02*
X1910974D01*
X1909450Y509296D02*
Y512344D01*
X1920626Y485420D02*
X1923674D01*
X1922150Y483896D02*
Y486944D01*
X1920626Y383820D02*
X1923674D01*
X1922150Y382296D02*
Y385344D01*
X1907926Y307620D02*
X1910974D01*
X1909450Y306096D02*
Y309144D01*
X1882526Y866420D02*
X1885574D01*
X1884050Y864896D02*
Y867944D01*
X1895226Y790220D02*
X1898274D01*
X1896750Y788696D02*
Y791744D01*
X1882526Y764820D02*
X1885574D01*
X1884050Y763296D02*
Y766344D01*
X1895226Y688620D02*
X1898274D01*
X1896750Y687096D02*
Y690144D01*
X1895226Y485420D02*
X1898274D01*
X1896750Y483896D02*
Y486944D01*
X1895226Y333020D02*
X1898274D01*
X1896750Y331496D02*
Y334544D01*
X1869826Y790220D02*
X1872874D01*
X1871350Y788696D02*
Y791744D01*
X1857126Y764820D02*
X1860174D01*
X1858650Y763296D02*
Y766344D01*
X1869826Y688620D02*
X1872874D01*
X1871350Y687096D02*
Y690144D01*
X1857126Y510820D02*
X1860174D01*
X1858650Y509296D02*
Y512344D01*
X1869826Y485420D02*
X1872874D01*
X1871350Y483896D02*
Y486944D01*
X1857126Y358420D02*
X1860174D01*
X1858650Y356896D02*
Y359944D01*
X1844426Y790220D02*
X1847474D01*
X1845950Y788696D02*
Y791744D01*
X1831726Y764820D02*
X1834774D01*
X1833250Y763296D02*
Y766344D01*
X1844426Y688620D02*
X1847474D01*
X1845950Y687096D02*
Y690144D01*
X1844426Y485420D02*
X1847474D01*
X1845950Y483896D02*
Y486944D01*
X1831726Y409220D02*
X1834774D01*
X1833250Y407696D02*
Y410744D01*
X1844426Y383820D02*
X1847474D01*
X1845950Y382296D02*
Y385344D01*
X1831726Y155220D02*
X1834774D01*
X1833250Y153696D02*
Y156744D01*
X1819026Y942620D02*
X1822074D01*
X1820550Y941096D02*
Y944144D01*
X1806326Y866420D02*
X1809374D01*
X1807850Y864896D02*
Y867944D01*
X1819026Y739420D02*
X1822074D01*
X1820550Y737896D02*
Y740944D01*
X1806326Y714020D02*
X1809374D01*
X1807850Y712496D02*
Y715544D01*
X1819026Y688620D02*
X1822074D01*
X1820550Y687096D02*
Y690144D01*
X1819026Y536220D02*
X1822074D01*
X1820550Y534696D02*
Y537744D01*
X1806326Y409220D02*
X1809374D01*
X1807850Y407696D02*
Y410744D01*
X1819026Y383820D02*
X1822074D01*
X1820550Y382296D02*
Y385344D01*
X1806326Y358420D02*
X1809374D01*
X1807850Y356896D02*
Y359944D01*
X1819026Y129820D02*
X1822074D01*
X1820550Y128296D02*
Y131344D01*
X1793626Y942620D02*
X1796674D01*
X1795150Y941096D02*
Y944144D01*
X1780926Y866420D02*
X1783974D01*
X1782450Y864896D02*
Y867944D01*
X1793626Y536220D02*
X1796674D01*
X1795150Y534696D02*
Y537744D01*
X1780926Y409220D02*
X1783974D01*
X1782450Y407696D02*
Y410744D01*
X1793626Y383820D02*
X1796674D01*
X1795150Y382296D02*
Y385344D01*
X1780926Y307620D02*
X1783974D01*
X1782450Y306096D02*
Y309144D01*
X1793626Y129820D02*
X1796674D01*
X1795150Y128296D02*
Y131344D01*
X1768226Y942620D02*
X1771274D01*
X1769750Y941096D02*
Y944144D01*
X1755526Y866420D02*
X1758574D01*
X1757050Y864896D02*
Y867944D01*
X1755526Y764820D02*
X1758574D01*
X1757050Y763296D02*
Y766344D01*
X1755526Y561620D02*
X1758574D01*
X1757050Y560096D02*
Y563144D01*
X1768226Y536220D02*
X1771274D01*
X1769750Y534696D02*
Y537744D01*
X1755526Y510820D02*
X1758574D01*
X1757050Y509296D02*
Y512344D01*
X1768226Y485420D02*
X1771274D01*
X1769750Y483896D02*
Y486944D01*
X1755526Y409220D02*
X1758574D01*
X1757050Y407696D02*
Y410744D01*
X1768226Y383820D02*
X1771274D01*
X1769750Y382296D02*
Y385344D01*
X1755526Y307620D02*
X1758574D01*
X1757050Y306096D02*
Y309144D01*
X1768226Y129820D02*
X1771274D01*
X1769750Y128296D02*
Y131344D01*
X1730126Y866420D02*
X1733174D01*
X1731650Y864896D02*
Y867944D01*
X1742826Y790220D02*
X1745874D01*
X1744350Y788696D02*
Y791744D01*
X1730126Y764820D02*
X1733174D01*
X1731650Y763296D02*
Y766344D01*
X1730126Y561620D02*
X1733174D01*
X1731650Y560096D02*
Y563144D01*
X1742826Y485420D02*
X1745874D01*
X1744350Y483896D02*
Y486944D01*
X1742826Y383820D02*
X1745874D01*
X1744350Y382296D02*
Y385344D01*
X1730126Y358420D02*
X1733174D01*
X1731650Y356896D02*
Y359944D01*
X1730126Y307620D02*
X1733174D01*
X1731650Y306096D02*
Y309144D01*
X1742826Y129820D02*
X1745874D01*
X1744350Y128296D02*
Y131344D01*
X1704726Y866420D02*
X1707774D01*
X1706250Y864896D02*
Y867944D01*
X1717426Y790220D02*
X1720474D01*
X1718950Y788696D02*
Y791744D01*
X1704726Y764820D02*
X1707774D01*
X1706250Y763296D02*
Y766344D01*
X1717426Y739420D02*
X1720474D01*
X1718950Y737896D02*
Y740944D01*
X1717426Y485420D02*
X1720474D01*
X1718950Y483896D02*
Y486944D01*
X1717426Y333020D02*
X1720474D01*
X1718950Y331496D02*
Y334544D01*
X1704726Y307620D02*
X1707774D01*
X1706250Y306096D02*
Y309144D01*
X1717426Y129820D02*
X1720474D01*
X1718950Y128296D02*
Y131344D01*
X1692026Y790220D02*
X1695074D01*
X1693550Y788696D02*
Y791744D01*
X1679326Y764820D02*
X1682374D01*
X1680850Y763296D02*
Y766344D01*
X1692026Y688620D02*
X1695074D01*
X1693550Y687096D02*
Y690144D01*
X1679326Y561620D02*
X1682374D01*
X1680850Y560096D02*
Y563144D01*
X1679326Y510820D02*
X1682374D01*
X1680850Y509296D02*
Y512344D01*
X1692026Y485420D02*
X1695074D01*
X1693550Y483896D02*
Y486944D01*
X1692026Y180620D02*
X1695074D01*
X1693550Y179096D02*
Y182144D01*
X1692026Y129820D02*
X1695074D01*
X1693550Y128296D02*
Y131344D01*
X1666626Y942620D02*
X1669674D01*
X1668150Y941096D02*
Y944144D01*
X1666626Y790220D02*
X1669674D01*
X1668150Y788696D02*
Y791744D01*
X1666626Y688620D02*
X1669674D01*
X1668150Y687096D02*
Y690144D01*
X1666626Y485420D02*
X1669674D01*
X1668150Y483896D02*
Y486944D01*
X1666626Y383820D02*
X1669674D01*
X1668150Y382296D02*
Y385344D01*
X1628526Y866420D02*
X1631574D01*
X1630050Y864896D02*
Y867944D01*
X1628526Y764820D02*
X1631574D01*
X1630050Y763296D02*
Y766344D01*
X1641226Y688620D02*
X1644274D01*
X1642750Y687096D02*
Y690144D01*
X1641226Y485420D02*
X1644274D01*
X1642750Y483896D02*
Y486944D01*
X1628526Y409220D02*
X1631574D01*
X1630050Y407696D02*
Y410744D01*
X1641226Y383820D02*
X1644274D01*
X1642750Y382296D02*
Y385344D01*
X1628526Y358420D02*
X1631574D01*
X1630050Y356896D02*
Y359944D01*
X1615826Y942620D02*
X1618874D01*
X1617350Y941096D02*
Y944144D01*
X1603126Y866420D02*
X1606174D01*
X1604650Y864896D02*
Y867944D01*
X1603126Y714020D02*
X1606174D01*
X1604650Y712496D02*
Y715544D01*
X1615826Y688620D02*
X1618874D01*
X1617350Y687096D02*
Y690144D01*
X1615826Y536220D02*
X1618874D01*
X1617350Y534696D02*
Y537744D01*
X1603126Y409220D02*
X1606174D01*
X1604650Y407696D02*
Y410744D01*
X1615826Y383820D02*
X1618874D01*
X1617350Y382296D02*
Y385344D01*
X1603126Y307620D02*
X1606174D01*
X1604650Y306096D02*
Y309144D01*
X1590426Y942620D02*
X1593474D01*
X1591950Y941096D02*
Y944144D01*
X1577726Y866420D02*
X1580774D01*
X1579250Y864896D02*
Y867944D01*
X1577726Y764820D02*
X1580774D01*
X1579250Y763296D02*
Y766344D01*
X1577726Y561620D02*
X1580774D01*
X1579250Y560096D02*
Y563144D01*
X1590426Y536220D02*
X1593474D01*
X1591950Y534696D02*
Y537744D01*
X1590426Y485420D02*
X1593474D01*
X1591950Y483896D02*
Y486944D01*
X1577726Y409220D02*
X1580774D01*
X1579250Y407696D02*
Y410744D01*
X1590426Y383820D02*
X1593474D01*
X1591950Y382296D02*
Y385344D01*
X1577726Y307620D02*
X1580774D01*
X1579250Y306096D02*
Y309144D01*
X1552326Y866420D02*
X1555374D01*
X1553850Y864896D02*
Y867944D01*
X1552326Y561620D02*
X1555374D01*
X1553850Y560096D02*
Y563144D01*
X1565026Y485420D02*
X1568074D01*
X1566550Y483896D02*
Y486944D01*
X1552326Y409220D02*
X1555374D01*
X1553850Y407696D02*
Y410744D01*
X1565026Y383820D02*
X1568074D01*
X1566550Y382296D02*
Y385344D01*
X1552326Y307620D02*
X1555374D01*
X1553850Y306096D02*
Y309144D01*
X1539626Y942620D02*
X1542674D01*
X1541150Y941096D02*
Y944144D01*
X1526926Y917220D02*
X1529974D01*
X1528450Y915696D02*
Y918744D01*
X1539626Y891820D02*
X1542674D01*
X1541150Y890296D02*
Y893344D01*
X1526926Y866420D02*
X1529974D01*
X1528450Y864896D02*
Y867944D01*
X1539626Y790220D02*
X1542674D01*
X1541150Y788696D02*
Y791744D01*
X1526926Y764820D02*
X1529974D01*
X1528450Y763296D02*
Y766344D01*
X1526926Y510820D02*
X1529974D01*
X1528450Y509296D02*
Y512344D01*
X1539626Y485420D02*
X1542674D01*
X1541150Y483896D02*
Y486944D01*
X1539626Y383820D02*
X1542674D01*
X1541150Y382296D02*
Y385344D01*
X1526926Y307620D02*
X1529974D01*
X1528450Y306096D02*
Y309144D01*
X1501526Y866420D02*
X1504574D01*
X1503050Y864896D02*
Y867944D01*
X1514226Y790220D02*
X1517274D01*
X1515750Y788696D02*
Y791744D01*
X1501526Y764820D02*
X1504574D01*
X1503050Y763296D02*
Y766344D01*
X1514226Y688620D02*
X1517274D01*
X1515750Y687096D02*
Y690144D01*
X1514226Y485420D02*
X1517274D01*
X1515750Y483896D02*
Y486944D01*
X1514226Y333020D02*
X1517274D01*
X1515750Y331496D02*
Y334544D01*
X1488826Y790220D02*
X1491874D01*
X1490350Y788696D02*
Y791744D01*
X1476126Y764820D02*
X1479174D01*
X1477650Y763296D02*
Y766344D01*
X1488826Y688620D02*
X1491874D01*
X1490350Y687096D02*
Y690144D01*
X1476126Y510820D02*
X1479174D01*
X1477650Y509296D02*
Y512344D01*
X1488826Y485420D02*
X1491874D01*
X1490350Y483896D02*
Y486944D01*
X1476126Y358420D02*
X1479174D01*
X1477650Y356896D02*
Y359944D01*
X1463426Y790220D02*
X1466474D01*
X1464950Y788696D02*
Y791744D01*
X1450726Y764820D02*
X1453774D01*
X1452250Y763296D02*
Y766344D01*
X1463426Y688620D02*
X1466474D01*
X1464950Y687096D02*
Y690144D01*
X1463426Y485420D02*
X1466474D01*
X1464950Y483896D02*
Y486944D01*
X1450726Y409220D02*
X1453774D01*
X1452250Y407696D02*
Y410744D01*
X1463426Y383820D02*
X1466474D01*
X1464950Y382296D02*
Y385344D01*
X1438026Y942620D02*
X1441074D01*
X1439550Y941096D02*
Y944144D01*
X1438026Y739420D02*
X1441074D01*
X1439550Y737896D02*
Y740944D01*
X1425326Y714020D02*
X1428374D01*
X1426850Y712496D02*
Y715544D01*
X1438026Y688620D02*
X1441074D01*
X1439550Y687096D02*
Y690144D01*
X1438026Y536220D02*
X1441074D01*
X1439550Y534696D02*
Y537744D01*
X1425326Y409220D02*
X1428374D01*
X1426850Y407696D02*
Y410744D01*
X1438026Y383820D02*
X1441074D01*
X1439550Y382296D02*
Y385344D01*
X1425326Y358420D02*
X1428374D01*
X1426850Y356896D02*
Y359944D01*
X1412626Y942620D02*
X1415674D01*
X1414150Y941096D02*
Y944144D01*
X1399926Y866420D02*
X1402974D01*
X1401450Y864896D02*
Y867944D01*
X1412626Y536220D02*
X1415674D01*
X1414150Y534696D02*
Y537744D01*
X1399926Y409220D02*
X1402974D01*
X1401450Y407696D02*
Y410744D01*
X1412626Y383820D02*
X1415674D01*
X1414150Y382296D02*
Y385344D01*
X1399926Y307620D02*
X1402974D01*
X1401450Y306096D02*
Y309144D01*
X1412626Y129820D02*
X1415674D01*
X1414150Y128296D02*
Y131344D01*
X1387226Y942620D02*
X1390274D01*
X1388750Y941096D02*
Y944144D01*
X1374526Y866420D02*
X1377574D01*
X1376050Y864896D02*
Y867944D01*
X1374526Y764820D02*
X1377574D01*
X1376050Y763296D02*
Y766344D01*
X1374526Y561620D02*
X1377574D01*
X1376050Y560096D02*
Y563144D01*
X1387226Y536220D02*
X1390274D01*
X1388750Y534696D02*
Y537744D01*
X1374526Y510820D02*
X1377574D01*
X1376050Y509296D02*
Y512344D01*
X1387226Y485420D02*
X1390274D01*
X1388750Y483896D02*
Y486944D01*
X1374526Y409220D02*
X1377574D01*
X1376050Y407696D02*
Y410744D01*
X1387226Y383820D02*
X1390274D01*
X1388750Y382296D02*
Y385344D01*
X1374526Y307620D02*
X1377574D01*
X1376050Y306096D02*
Y309144D01*
X1349126Y866420D02*
X1352174D01*
X1350650Y864896D02*
Y867944D01*
X1361826Y790220D02*
X1364874D01*
X1363350Y788696D02*
Y791744D01*
X1349126Y764820D02*
X1352174D01*
X1350650Y763296D02*
Y766344D01*
X1349126Y561620D02*
X1352174D01*
X1350650Y560096D02*
Y563144D01*
X1361826Y485420D02*
X1364874D01*
X1363350Y483896D02*
Y486944D01*
X1361826Y383820D02*
X1364874D01*
X1363350Y382296D02*
Y385344D01*
X1349126Y358420D02*
X1352174D01*
X1350650Y356896D02*
Y359944D01*
X1349126Y307620D02*
X1352174D01*
X1350650Y306096D02*
Y309144D01*
X1349126Y155220D02*
X1352174D01*
X1350650Y153696D02*
Y156744D01*
X1323726Y866420D02*
X1326774D01*
X1325250Y864896D02*
Y867944D01*
X1336426Y790220D02*
X1339474D01*
X1337950Y788696D02*
Y791744D01*
X1323726Y764820D02*
X1326774D01*
X1325250Y763296D02*
Y766344D01*
X1336426Y739420D02*
X1339474D01*
X1337950Y737896D02*
Y740944D01*
X1336426Y485420D02*
X1339474D01*
X1337950Y483896D02*
Y486944D01*
X1336426Y333020D02*
X1339474D01*
X1337950Y331496D02*
Y334544D01*
X1323726Y307620D02*
X1326774D01*
X1325250Y306096D02*
Y309144D01*
X1336426Y231420D02*
X1339474D01*
X1337950Y229896D02*
Y232944D01*
X1311026Y790220D02*
X1314074D01*
X1312550Y788696D02*
Y791744D01*
X1298326Y764820D02*
X1301374D01*
X1299850Y763296D02*
Y766344D01*
X1311026Y688620D02*
X1314074D01*
X1312550Y687096D02*
Y690144D01*
X1298326Y561620D02*
X1301374D01*
X1299850Y560096D02*
Y563144D01*
X1298326Y510820D02*
X1301374D01*
X1299850Y509296D02*
Y512344D01*
X1311026Y485420D02*
X1314074D01*
X1312550Y483896D02*
Y486944D01*
X1311026Y231420D02*
X1314074D01*
X1312550Y229896D02*
Y232944D01*
X1298326Y155220D02*
X1301374D01*
X1299850Y153696D02*
Y156744D01*
X1285626Y942620D02*
X1288674D01*
X1287150Y941096D02*
Y944144D01*
X1285626Y790220D02*
X1288674D01*
X1287150Y788696D02*
Y791744D01*
X1285626Y688620D02*
X1288674D01*
X1287150Y687096D02*
Y690144D01*
X1285626Y485420D02*
X1288674D01*
X1287150Y483896D02*
Y486944D01*
X1285626Y383820D02*
X1288674D01*
X1287150Y382296D02*
Y385344D01*
X1285626Y231420D02*
X1288674D01*
X1287150Y229896D02*
Y232944D01*
X1285626Y180620D02*
X1288674D01*
X1287150Y179096D02*
Y182144D01*
X1272926Y155220D02*
X1275974D01*
X1274450Y153696D02*
Y156744D01*
X1285626Y129820D02*
X1288674D01*
X1287150Y128296D02*
Y131344D01*
X1247526Y866420D02*
X1250574D01*
X1249050Y864896D02*
Y867944D01*
X1247526Y764820D02*
X1250574D01*
X1249050Y763296D02*
Y766344D01*
X1260226Y688620D02*
X1263274D01*
X1261750Y687096D02*
Y690144D01*
X1260226Y485420D02*
X1263274D01*
X1261750Y483896D02*
Y486944D01*
X1247526Y409220D02*
X1250574D01*
X1249050Y407696D02*
Y410744D01*
X1260226Y383820D02*
X1263274D01*
X1261750Y382296D02*
Y385344D01*
X1247526Y358420D02*
X1250574D01*
X1249050Y356896D02*
Y359944D01*
X1260226Y231420D02*
X1263274D01*
X1261750Y229896D02*
Y232944D01*
X1260226Y180620D02*
X1263274D01*
X1261750Y179096D02*
Y182144D01*
X1247526Y155220D02*
X1250574D01*
X1249050Y153696D02*
Y156744D01*
X1260226Y129820D02*
X1263274D01*
X1261750Y128296D02*
Y131344D01*
X1234826Y942620D02*
X1237874D01*
X1236350Y941096D02*
Y944144D01*
X1222126Y866420D02*
X1225174D01*
X1223650Y864896D02*
Y867944D01*
X1222126Y714020D02*
X1225174D01*
X1223650Y712496D02*
Y715544D01*
X1234826Y688620D02*
X1237874D01*
X1236350Y687096D02*
Y690144D01*
X1234826Y536220D02*
X1237874D01*
X1236350Y534696D02*
Y537744D01*
X1222126Y409220D02*
X1225174D01*
X1223650Y407696D02*
Y410744D01*
X1234826Y383820D02*
X1237874D01*
X1236350Y382296D02*
Y385344D01*
X1222126Y307620D02*
X1225174D01*
X1223650Y306096D02*
Y309144D01*
X1234826Y231420D02*
X1237874D01*
X1236350Y229896D02*
Y232944D01*
X1234826Y180620D02*
X1237874D01*
X1236350Y179096D02*
Y182144D01*
X1222126Y155220D02*
X1225174D01*
X1223650Y153696D02*
Y156744D01*
X1234826Y129820D02*
X1237874D01*
X1236350Y128296D02*
Y131344D01*
X1209426Y942620D02*
X1212474D01*
X1210950Y941096D02*
Y944144D01*
X1196726Y866420D02*
X1199774D01*
X1198250Y864896D02*
Y867944D01*
X1196726Y764820D02*
X1199774D01*
X1198250Y763296D02*
Y766344D01*
X1196726Y561620D02*
X1199774D01*
X1198250Y560096D02*
Y563144D01*
X1209426Y536220D02*
X1212474D01*
X1210950Y534696D02*
Y537744D01*
X1209426Y485420D02*
X1212474D01*
X1210950Y483896D02*
Y486944D01*
X1196726Y409220D02*
X1199774D01*
X1198250Y407696D02*
Y410744D01*
X1209426Y383820D02*
X1212474D01*
X1210950Y382296D02*
Y385344D01*
X1196726Y307620D02*
X1199774D01*
X1198250Y306096D02*
Y309144D01*
X1209426Y231420D02*
X1212474D01*
X1210950Y229896D02*
Y232944D01*
X1209426Y180620D02*
X1212474D01*
X1210950Y179096D02*
Y182144D01*
X1171326Y866420D02*
X1174374D01*
X1172850Y864896D02*
Y867944D01*
X1171326Y561620D02*
X1174374D01*
X1172850Y560096D02*
Y563144D01*
X1184026Y485420D02*
X1187074D01*
X1185550Y483896D02*
Y486944D01*
X1171326Y409220D02*
X1174374D01*
X1172850Y407696D02*
Y410744D01*
X1184026Y383820D02*
X1187074D01*
X1185550Y382296D02*
Y385344D01*
X1171326Y307620D02*
X1174374D01*
X1172850Y306096D02*
Y309144D01*
X1184026Y231420D02*
X1187074D01*
X1185550Y229896D02*
Y232944D01*
X1158626Y942620D02*
X1161674D01*
X1160150Y941096D02*
Y944144D01*
X1145926Y917220D02*
X1148974D01*
X1147450Y915696D02*
Y918744D01*
X1158626Y891820D02*
X1161674D01*
X1160150Y890296D02*
Y893344D01*
X1145926Y866420D02*
X1148974D01*
X1147450Y864896D02*
Y867944D01*
X1158626Y790220D02*
X1161674D01*
X1160150Y788696D02*
Y791744D01*
X1145926Y764820D02*
X1148974D01*
X1147450Y763296D02*
Y766344D01*
X1145926Y510820D02*
X1148974D01*
X1147450Y509296D02*
Y512344D01*
X1158626Y485420D02*
X1161674D01*
X1160150Y483896D02*
Y486944D01*
X1158626Y383820D02*
X1161674D01*
X1160150Y382296D02*
Y385344D01*
X1145926Y307620D02*
X1148974D01*
X1147450Y306096D02*
Y309144D01*
X1158626Y231420D02*
X1161674D01*
X1160150Y229896D02*
Y232944D01*
X1120526Y866420D02*
X1123574D01*
X1122050Y864896D02*
Y867944D01*
X1133226Y790220D02*
X1136274D01*
X1134750Y788696D02*
Y791744D01*
X1120526Y764820D02*
X1123574D01*
X1122050Y763296D02*
Y766344D01*
X1133226Y688620D02*
X1136274D01*
X1134750Y687096D02*
Y690144D01*
X1133226Y485420D02*
X1136274D01*
X1134750Y483896D02*
Y486944D01*
X1133226Y333020D02*
X1136274D01*
X1134750Y331496D02*
Y334544D01*
X1133226Y231420D02*
X1136274D01*
X1134750Y229896D02*
Y232944D01*
X1107826Y790220D02*
X1110874D01*
X1109350Y788696D02*
Y791744D01*
X1095126Y764820D02*
X1098174D01*
X1096650Y763296D02*
Y766344D01*
X1107826Y688620D02*
X1110874D01*
X1109350Y687096D02*
Y690144D01*
X1095126Y510820D02*
X1098174D01*
X1096650Y509296D02*
Y512344D01*
X1107826Y485420D02*
X1110874D01*
X1109350Y483896D02*
Y486944D01*
X1095126Y358420D02*
X1098174D01*
X1096650Y356896D02*
Y359944D01*
X1107826Y231420D02*
X1110874D01*
X1109350Y229896D02*
Y232944D01*
X1082426Y993420D02*
X1085474D01*
X1083950Y991896D02*
Y994944D01*
X1082426Y790220D02*
X1085474D01*
X1083950Y788696D02*
Y791744D01*
X1069726Y764820D02*
X1072774D01*
X1071250Y763296D02*
Y766344D01*
X1082426Y688620D02*
X1085474D01*
X1083950Y687096D02*
Y690144D01*
X1082426Y485420D02*
X1085474D01*
X1083950Y483896D02*
Y486944D01*
X1069726Y409220D02*
X1072774D01*
X1071250Y407696D02*
Y410744D01*
X1082426Y383820D02*
X1085474D01*
X1083950Y382296D02*
Y385344D01*
X1082426Y231420D02*
X1085474D01*
X1083950Y229896D02*
Y232944D01*
X1057026Y942620D02*
X1060074D01*
X1058550Y941096D02*
Y944144D01*
X1057026Y739420D02*
X1060074D01*
X1058550Y737896D02*
Y740944D01*
X1044326Y714020D02*
X1047374D01*
X1045850Y712496D02*
Y715544D01*
X1057026Y688620D02*
X1060074D01*
X1058550Y687096D02*
Y690144D01*
X1057026Y536220D02*
X1060074D01*
X1058550Y534696D02*
Y537744D01*
X1044326Y409220D02*
X1047374D01*
X1045850Y407696D02*
Y410744D01*
X1057026Y383820D02*
X1060074D01*
X1058550Y382296D02*
Y385344D01*
X1044326Y358420D02*
X1047374D01*
X1045850Y356896D02*
Y359944D01*
X1057026Y231420D02*
X1060074D01*
X1058550Y229896D02*
Y232944D01*
X1031626Y942620D02*
X1034674D01*
X1033150Y941096D02*
Y944144D01*
X1031626Y536220D02*
X1034674D01*
X1033150Y534696D02*
Y537744D01*
X1018926Y409220D02*
X1021974D01*
X1020450Y407696D02*
Y410744D01*
X1031626Y383820D02*
X1034674D01*
X1033150Y382296D02*
Y385344D01*
X1018926Y307620D02*
X1021974D01*
X1020450Y306096D02*
Y309144D01*
X1031626Y231420D02*
X1034674D01*
X1033150Y229896D02*
Y232944D01*
X1006226Y942620D02*
X1009274D01*
X1007750Y941096D02*
Y944144D01*
X993526Y764820D02*
X996574D01*
X995050Y763296D02*
Y766344D01*
X993526Y561620D02*
X996574D01*
X995050Y560096D02*
Y563144D01*
X1006226Y536220D02*
X1009274D01*
X1007750Y534696D02*
Y537744D01*
X993526Y510820D02*
X996574D01*
X995050Y509296D02*
Y512344D01*
X993526Y409220D02*
X996574D01*
X995050Y407696D02*
Y410744D01*
X1006226Y383820D02*
X1009274D01*
X1007750Y382296D02*
Y385344D01*
X993526Y307620D02*
X996574D01*
X995050Y306096D02*
Y309144D01*
X1006226Y231420D02*
X1009274D01*
X1007750Y229896D02*
Y232944D01*
X980826Y790220D02*
X983874D01*
X982350Y788696D02*
Y791744D01*
X968126Y764820D02*
X971174D01*
X969650Y763296D02*
Y766344D01*
X968126Y561620D02*
X971174D01*
X969650Y560096D02*
Y563144D01*
X980826Y383820D02*
X983874D01*
X982350Y382296D02*
Y385344D01*
X968126Y358420D02*
X971174D01*
X969650Y356896D02*
Y359944D01*
X968126Y307620D02*
X971174D01*
X969650Y306096D02*
Y309144D01*
X980826Y231420D02*
X983874D01*
X982350Y229896D02*
Y232944D01*
X955426Y790220D02*
X958474D01*
X956950Y788696D02*
Y791744D01*
X942726Y764820D02*
X945774D01*
X944250Y763296D02*
Y766344D01*
X955426Y739420D02*
X958474D01*
X956950Y737896D02*
Y740944D01*
X955426Y333020D02*
X958474D01*
X956950Y331496D02*
Y334544D01*
X942726Y307620D02*
X945774D01*
X944250Y306096D02*
Y309144D01*
X955426Y231420D02*
X958474D01*
X956950Y229896D02*
Y232944D01*
X930026Y790220D02*
X933074D01*
X931550Y788696D02*
Y791744D01*
X917326Y764820D02*
X920374D01*
X918850Y763296D02*
Y766344D01*
X930026Y688620D02*
X933074D01*
X931550Y687096D02*
Y690144D01*
X917326Y561620D02*
X920374D01*
X918850Y560096D02*
Y563144D01*
X917326Y510820D02*
X920374D01*
X918850Y509296D02*
Y512344D01*
X930026Y231420D02*
X933074D01*
X931550Y229896D02*
Y232944D01*
X904626Y942620D02*
X907674D01*
X906150Y941096D02*
Y944144D01*
X904626Y790220D02*
X907674D01*
X906150Y788696D02*
Y791744D01*
X904626Y688620D02*
X907674D01*
X906150Y687096D02*
Y690144D01*
X904626Y383820D02*
X907674D01*
X906150Y382296D02*
Y385344D01*
X904626Y231420D02*
X907674D01*
X906150Y229896D02*
Y232944D01*
X866526Y764820D02*
X869574D01*
X868050Y763296D02*
Y766344D01*
X879226Y688620D02*
X882274D01*
X880750Y687096D02*
Y690144D01*
X866526Y409220D02*
X869574D01*
X868050Y407696D02*
Y410744D01*
X879226Y383820D02*
X882274D01*
X880750Y382296D02*
Y385344D01*
X866526Y358420D02*
X869574D01*
X868050Y356896D02*
Y359944D01*
X879226Y231420D02*
X882274D01*
X880750Y229896D02*
Y232944D01*
X866526Y155220D02*
X869574D01*
X868050Y153696D02*
Y156744D01*
X841126Y714020D02*
X844174D01*
X842650Y712496D02*
Y715544D01*
X853826Y688620D02*
X856874D01*
X855350Y687096D02*
Y690144D01*
X853826Y536220D02*
X856874D01*
X855350Y534696D02*
Y537744D01*
X841126Y409220D02*
X844174D01*
X842650Y407696D02*
Y410744D01*
X853826Y383820D02*
X856874D01*
X855350Y382296D02*
Y385344D01*
X853826Y333020D02*
X856874D01*
X855350Y331496D02*
Y334544D01*
X841126Y307620D02*
X844174D01*
X842650Y306096D02*
Y309144D01*
X853826Y231420D02*
X856874D01*
X855350Y229896D02*
Y232944D01*
X853826Y180620D02*
X856874D01*
X855350Y179096D02*
Y182144D01*
X841126Y155220D02*
X844174D01*
X842650Y153696D02*
Y156744D01*
X853826Y129820D02*
X856874D01*
X855350Y128296D02*
Y131344D01*
X815726Y764820D02*
X818774D01*
X817250Y763296D02*
Y766344D01*
X815726Y561620D02*
X818774D01*
X817250Y560096D02*
Y563144D01*
X828426Y536220D02*
X831474D01*
X829950Y534696D02*
Y537744D01*
X815726Y409220D02*
X818774D01*
X817250Y407696D02*
Y410744D01*
X828426Y383820D02*
X831474D01*
X829950Y382296D02*
Y385344D01*
X815726Y307620D02*
X818774D01*
X817250Y306096D02*
Y309144D01*
X815726Y155220D02*
X818774D01*
X817250Y153696D02*
Y156744D01*
X828426Y129820D02*
X831474D01*
X829950Y128296D02*
Y131344D01*
X790326Y561620D02*
X793374D01*
X791850Y560096D02*
Y563144D01*
X790326Y409220D02*
X793374D01*
X791850Y407696D02*
Y410744D01*
X803026Y383820D02*
X806074D01*
X804550Y382296D02*
Y385344D01*
X790326Y307620D02*
X793374D01*
X791850Y306096D02*
Y309144D01*
X790326Y155220D02*
X793374D01*
X791850Y153696D02*
Y156744D01*
X803026Y129820D02*
X806074D01*
X804550Y128296D02*
Y131344D01*
X777626Y942620D02*
X780674D01*
X779150Y941096D02*
Y944144D01*
X764926Y917220D02*
X767974D01*
X766450Y915696D02*
Y918744D01*
X777626Y891820D02*
X780674D01*
X779150Y890296D02*
Y893344D01*
X777626Y790220D02*
X780674D01*
X779150Y788696D02*
Y791744D01*
X764926Y764820D02*
X767974D01*
X766450Y763296D02*
Y766344D01*
X764926Y510820D02*
X767974D01*
X766450Y509296D02*
Y512344D01*
X777626Y383820D02*
X780674D01*
X779150Y382296D02*
Y385344D01*
X764926Y307620D02*
X767974D01*
X766450Y306096D02*
Y309144D01*
X752226Y790220D02*
X755274D01*
X753750Y788696D02*
Y791744D01*
X739526Y764820D02*
X742574D01*
X741050Y763296D02*
Y766344D01*
X752226Y688620D02*
X755274D01*
X753750Y687096D02*
Y690144D01*
X752226Y333020D02*
X755274D01*
X753750Y331496D02*
Y334544D01*
X726826Y790220D02*
X729874D01*
X728350Y788696D02*
Y791744D01*
X714126Y764820D02*
X717174D01*
X715650Y763296D02*
Y766344D01*
X726826Y688620D02*
X729874D01*
X728350Y687096D02*
Y690144D01*
X714126Y510820D02*
X717174D01*
X715650Y509296D02*
Y512344D01*
X714126Y358420D02*
X717174D01*
X715650Y356896D02*
Y359944D01*
X726826Y231420D02*
X729874D01*
X728350Y229896D02*
Y232944D01*
X701426Y790220D02*
X704474D01*
X702950Y788696D02*
Y791744D01*
X688726Y764820D02*
X691774D01*
X690250Y763296D02*
Y766344D01*
X701426Y688620D02*
X704474D01*
X702950Y687096D02*
Y690144D01*
X688726Y409220D02*
X691774D01*
X690250Y407696D02*
Y410744D01*
X701426Y383820D02*
X704474D01*
X702950Y382296D02*
Y385344D01*
X701426Y129820D02*
X704474D01*
X702950Y128296D02*
Y131344D01*
X676026Y942620D02*
X679074D01*
X677550Y941096D02*
Y944144D01*
X676026Y739420D02*
X679074D01*
X677550Y737896D02*
Y740944D01*
X663326Y714020D02*
X666374D01*
X664850Y712496D02*
Y715544D01*
X676026Y688620D02*
X679074D01*
X677550Y687096D02*
Y690144D01*
X676026Y536220D02*
X679074D01*
X677550Y534696D02*
Y537744D01*
X663326Y409220D02*
X666374D01*
X664850Y407696D02*
Y410744D01*
X676026Y383820D02*
X679074D01*
X677550Y382296D02*
Y385344D01*
X663326Y358420D02*
X666374D01*
X664850Y356896D02*
Y359944D01*
X650626Y942620D02*
X653674D01*
X652150Y941096D02*
Y944144D01*
X650626Y536220D02*
X653674D01*
X652150Y534696D02*
Y537744D01*
X637926Y409220D02*
X640974D01*
X639450Y407696D02*
Y410744D01*
X650626Y383820D02*
X653674D01*
X652150Y382296D02*
Y385344D01*
X637926Y307620D02*
X640974D01*
X639450Y306096D02*
Y309144D01*
X625226Y942620D02*
X628274D01*
X626750Y941096D02*
Y944144D01*
X612526Y764820D02*
X615574D01*
X614050Y763296D02*
Y766344D01*
X612526Y561620D02*
X615574D01*
X614050Y560096D02*
Y563144D01*
X625226Y536220D02*
X628274D01*
X626750Y534696D02*
Y537744D01*
X612526Y510820D02*
X615574D01*
X614050Y509296D02*
Y512344D01*
X612526Y409220D02*
X615574D01*
X614050Y407696D02*
Y410744D01*
X625226Y383820D02*
X628274D01*
X626750Y382296D02*
Y385344D01*
X612526Y307620D02*
X615574D01*
X614050Y306096D02*
Y309144D01*
X599826Y790220D02*
X602874D01*
X601350Y788696D02*
Y791744D01*
X587126Y764820D02*
X590174D01*
X588650Y763296D02*
Y766344D01*
X587126Y561620D02*
X590174D01*
X588650Y560096D02*
Y563144D01*
X599826Y383820D02*
X602874D01*
X601350Y382296D02*
Y385344D01*
X587126Y358420D02*
X590174D01*
X588650Y356896D02*
Y359944D01*
X587126Y307620D02*
X590174D01*
X588650Y306096D02*
Y309144D01*
X561726Y1120420D02*
X564774D01*
X563250Y1118896D02*
Y1121944D01*
X574426Y790220D02*
X577474D01*
X575950Y788696D02*
Y791744D01*
X561726Y764820D02*
X564774D01*
X563250Y763296D02*
Y766344D01*
X574426Y739420D02*
X577474D01*
X575950Y737896D02*
Y740944D01*
X574426Y333020D02*
X577474D01*
X575950Y331496D02*
Y334544D01*
X574426Y231420D02*
X577474D01*
X575950Y229896D02*
Y232944D01*
X549026Y790220D02*
X552074D01*
X550550Y788696D02*
Y791744D01*
X536326Y764820D02*
X539374D01*
X537850Y763296D02*
Y766344D01*
X549026Y688620D02*
X552074D01*
X550550Y687096D02*
Y690144D01*
X536326Y561620D02*
X539374D01*
X537850Y560096D02*
Y563144D01*
X536326Y510820D02*
X539374D01*
X537850Y509296D02*
Y512344D01*
X549026Y231420D02*
X552074D01*
X550550Y229896D02*
Y232944D01*
X549026Y129820D02*
X552074D01*
X550550Y128296D02*
Y131344D01*
X523626Y942620D02*
X526674D01*
X525150Y941096D02*
Y944144D01*
X523626Y688620D02*
X526674D01*
X525150Y687096D02*
Y690144D01*
X523626Y129820D02*
X526674D01*
X525150Y128296D02*
Y131344D01*
X498226Y688620D02*
X501274D01*
X499750Y687096D02*
Y690144D01*
X472826Y942620D02*
X475874D01*
X474350Y941096D02*
Y944144D01*
X472826Y688620D02*
X475874D01*
X474350Y687096D02*
Y690144D01*
X447426Y942620D02*
X450474D01*
X448950Y941096D02*
Y944144D01*
X434726Y764820D02*
X437774D01*
X436250Y763296D02*
Y766344D01*
X396626Y942620D02*
X399674D01*
X398150Y941096D02*
Y944144D01*
X383926Y917220D02*
X386974D01*
X385450Y915696D02*
Y918744D01*
X396626Y891820D02*
X399674D01*
X398150Y890296D02*
Y893344D01*
X358526Y155220D02*
X361574D01*
X360050Y153696D02*
Y156744D01*
X345826Y688620D02*
X348874D01*
X347350Y687096D02*
Y690144D01*
X333126Y663220D02*
X336174D01*
X334650Y661696D02*
Y664744D01*
X307726Y917220D02*
X310774D01*
X309250Y915696D02*
Y918744D01*
X320426Y637820D02*
X323474D01*
X321950Y636296D02*
Y639344D01*
X295026Y942620D02*
X298074D01*
X296550Y941096D02*
Y944144D01*
X282326Y460020D02*
X285374D01*
X283850Y458496D02*
Y461544D01*
X295026Y282220D02*
X298074D01*
X296550Y280696D02*
Y283744D01*
X295026Y231420D02*
X298074D01*
X296550Y229896D02*
Y232944D01*
X295026Y180620D02*
X298074D01*
X296550Y179096D02*
Y182144D01*
X269626Y942620D02*
X272674D01*
X271150Y941096D02*
Y944144D01*
X256926Y866420D02*
X259974D01*
X258450Y864896D02*
Y867944D01*
X269626Y637820D02*
X272674D01*
X271150Y636296D02*
Y639344D01*
X269626Y485420D02*
X272674D01*
X271150Y483896D02*
Y486944D01*
X269626Y282220D02*
X272674D01*
X271150Y280696D02*
Y283744D01*
X269626Y231420D02*
X272674D01*
X271150Y229896D02*
Y232944D01*
X269626Y180620D02*
X272674D01*
X271150Y179096D02*
Y182144D01*
X244226Y942620D02*
X247274D01*
X245750Y941096D02*
Y944144D01*
X244226Y891820D02*
X247274D01*
X245750Y890296D02*
Y893344D01*
X231526Y714020D02*
X234574D01*
X233050Y712496D02*
Y715544D01*
X244226Y637820D02*
X247274D01*
X245750Y636296D02*
Y639344D01*
X244226Y485420D02*
X247274D01*
X245750Y483896D02*
Y486944D01*
X231526Y460020D02*
X234574D01*
X233050Y458496D02*
Y461544D01*
X244226Y282220D02*
X247274D01*
X245750Y280696D02*
Y283744D01*
X206126Y663220D02*
X209174D01*
X207650Y661696D02*
Y664744D01*
X206126Y460020D02*
X209174D01*
X207650Y458496D02*
Y461544D01*
X206126Y409220D02*
X209174D01*
X207650Y407696D02*
Y410744D01*
X218826Y129820D02*
X221874D01*
X220350Y128296D02*
Y131344D01*
X193426Y841020D02*
X196474D01*
X194950Y839496D02*
Y842544D01*
X180726Y663220D02*
X183774D01*
X182250Y661696D02*
Y664744D01*
X193426Y536220D02*
X196474D01*
X194950Y534696D02*
Y537744D01*
X193426Y485420D02*
X196474D01*
X194950Y483896D02*
Y486944D01*
X180726Y460020D02*
X183774D01*
X182250Y458496D02*
Y461544D01*
X193426Y434620D02*
X196474D01*
X194950Y433096D02*
Y436144D01*
X180726Y409220D02*
X183774D01*
X182250Y407696D02*
Y410744D01*
X193426Y383820D02*
X196474D01*
X194950Y382296D02*
Y385344D01*
X180726Y307620D02*
X183774D01*
X182250Y306096D02*
Y309144D01*
X193426Y282220D02*
X196474D01*
X194950Y280696D02*
Y283744D01*
X155326Y917220D02*
X158374D01*
X156850Y915696D02*
Y918744D01*
X168026Y637820D02*
X171074D01*
X169550Y636296D02*
Y639344D01*
X168026Y536220D02*
X171074D01*
X169550Y534696D02*
Y537744D01*
X168026Y485420D02*
X171074D01*
X169550Y483896D02*
Y486944D01*
X168026Y434620D02*
X171074D01*
X169550Y433096D02*
Y436144D01*
X168026Y333020D02*
X171074D01*
X169550Y331496D02*
Y334544D01*
X155326Y206020D02*
X158374D01*
X156850Y204496D02*
Y207544D01*
X168026Y180620D02*
X171074D01*
X169550Y179096D02*
Y182144D01*
X155326Y155220D02*
X158374D01*
X156850Y153696D02*
Y156744D01*
X129926Y968020D02*
X132974D01*
X131450Y966496D02*
Y969544D01*
X142626Y841020D02*
X145674D01*
X144150Y839496D02*
Y842544D01*
X129926Y815620D02*
X132974D01*
X131450Y814096D02*
Y817144D01*
X142626Y790220D02*
X145674D01*
X144150Y788696D02*
Y791744D01*
X129926Y764820D02*
X132974D01*
X131450Y763296D02*
Y766344D01*
X142626Y739420D02*
X145674D01*
X144150Y737896D02*
Y740944D01*
X129926Y714020D02*
X132974D01*
X131450Y712496D02*
Y715544D01*
X129926Y663220D02*
X132974D01*
X131450Y661696D02*
Y664744D01*
X142626Y637820D02*
X145674D01*
X144150Y636296D02*
Y639344D01*
X129926Y612420D02*
X132974D01*
X131450Y610896D02*
Y613944D01*
X142626Y587020D02*
X145674D01*
X144150Y585496D02*
Y588544D01*
X129926Y561620D02*
X132974D01*
X131450Y560096D02*
Y563144D01*
X142626Y536220D02*
X145674D01*
X144150Y534696D02*
Y537744D01*
X129926Y510820D02*
X132974D01*
X131450Y509296D02*
Y512344D01*
X142626Y485420D02*
X145674D01*
X144150Y483896D02*
Y486944D01*
X129926Y460020D02*
X132974D01*
X131450Y458496D02*
Y461544D01*
X142626Y434620D02*
X145674D01*
X144150Y433096D02*
Y436144D01*
X129926Y409220D02*
X132974D01*
X131450Y407696D02*
Y410744D01*
X142626Y383820D02*
X145674D01*
X144150Y382296D02*
Y385344D01*
X129926Y358420D02*
X132974D01*
X131450Y356896D02*
Y359944D01*
X142626Y333020D02*
X145674D01*
X144150Y331496D02*
Y334544D01*
X142626Y282220D02*
X145674D01*
X144150Y280696D02*
Y283744D01*
X129926Y256820D02*
X132974D01*
X131450Y255296D02*
Y258344D01*
X142626Y231420D02*
X145674D01*
X144150Y229896D02*
Y232944D01*
X129926Y206020D02*
X132974D01*
X131450Y204496D02*
Y207544D01*
X129926Y155220D02*
X132974D01*
X131450Y153696D02*
Y156744D01*
X117226Y993420D02*
X120274D01*
X118750Y991896D02*
Y994944D01*
X117226Y841020D02*
X120274D01*
X118750Y839496D02*
Y842544D01*
X117226Y688620D02*
X120274D01*
X118750Y687096D02*
Y690144D01*
X117226Y637820D02*
X120274D01*
X118750Y636296D02*
Y639344D01*
X117226Y587020D02*
X120274D01*
X118750Y585496D02*
Y588544D01*
X117226Y536220D02*
X120274D01*
X118750Y534696D02*
Y537744D01*
X117226Y485420D02*
X120274D01*
X118750Y483896D02*
Y486944D01*
X117226Y434620D02*
X120274D01*
X118750Y433096D02*
Y436144D01*
X117226Y383820D02*
X120274D01*
X118750Y382296D02*
Y385344D01*
X117226Y231420D02*
X120274D01*
X118750Y229896D02*
Y232944D01*
X117226Y180620D02*
X120274D01*
X118750Y179096D02*
Y182144D01*
X79126Y1069620D02*
X82174D01*
X80650Y1068096D02*
Y1071144D01*
X2704846Y240030D02*
X2707894D01*
X2706370Y238506D02*
Y241554D01*
X2717546Y240030D02*
X2720594D01*
X2719070Y238506D02*
Y241554D01*
X2396706Y144668D02*
X2399754D01*
X2398230Y143144D02*
Y146192D01*
X2428604Y146758D02*
X2431651D01*
X2430128Y145234D02*
Y148282D01*
X2375598Y172556D02*
X2378646D01*
X2377122Y171032D02*
Y174080D01*
X2382784Y165331D02*
X2385832D01*
X2384308Y163807D02*
Y166855D01*
X2186629Y171028D02*
X2189677D01*
X2188153Y169504D02*
Y172552D01*
X2193036Y163830D02*
X2196084D01*
X2194560Y162306D02*
Y165354D01*
X2235143Y146809D02*
X2238191D01*
X2236667Y145285D02*
Y148333D01*
X2207006Y144780D02*
X2210054D01*
X2208530Y143256D02*
Y146304D01*
X2020316Y144780D02*
X2023364D01*
X2021840Y143256D02*
Y146304D01*
X2047059Y146836D02*
X2050107D01*
X2048582Y145312D02*
Y148360D01*
X1554226Y241300D02*
X1557274D01*
X1555750Y239776D02*
Y242824D01*
X1561846Y241300D02*
X1564894D01*
X1563370Y239776D02*
Y242824D01*
X2520523Y533453D02*
X2523571D01*
X2522047Y531929D02*
Y534977D01*
X2614676Y515620D02*
X2617724D01*
X2616200Y514096D02*
Y517144D01*
X2555626Y560700D02*
X2558674D01*
X2557150Y559176D02*
Y562224D01*
X2549276Y553212D02*
X2552324D01*
X2550800Y551688D02*
Y554736D01*
X2543394Y481102D02*
X2546442D01*
X2544918Y479578D02*
Y482626D01*
X2573866Y524183D02*
X2576914D01*
X2575390Y522659D02*
Y525707D01*
X2542660Y568960D02*
X2545708D01*
X2544184Y567436D02*
Y570484D01*
X2629286Y628930D02*
X2632334D01*
X2630810Y627406D02*
Y630454D01*
X2365726Y1120200D02*
X2368774D01*
X2367250Y1118676D02*
Y1121724D01*
X2445136Y1120420D02*
X2448184D01*
X2446660Y1118896D02*
Y1121944D01*
X2512226Y1120200D02*
X2515274D01*
X2513750Y1118676D02*
Y1121724D01*
X2625476Y1128040D02*
X2628524D01*
X2627000Y1126516D02*
Y1129564D01*
X2602616Y1128040D02*
X2605664D01*
X2604140Y1126516D02*
Y1129564D01*
X2574676Y1128040D02*
X2577724D01*
X2576200Y1126516D02*
Y1129564D01*
X2419736Y1128040D02*
X2422784D01*
X2421260Y1126516D02*
Y1129564D01*
X1988566Y153670D02*
X1991614D01*
X1990090Y152146D02*
Y155194D01*
X2012766Y176405D02*
X2015814D01*
X2014290Y174881D02*
Y177929D01*
X1900936Y174778D02*
X1903984D01*
X1902460Y173254D02*
Y176302D01*
X1737106Y1126490D02*
X1740154D01*
X1738630Y1124966D02*
Y1128014D01*
X652526Y619760D02*
X655574D01*
X654050Y618236D02*
Y621284D01*
X2309876Y603250D02*
X2312924D01*
X2311400Y601726D02*
Y604774D01*
X2496566Y603250D02*
X2499614D01*
X2498090Y601726D02*
Y604774D01*
X2534666Y110490D02*
X2537714D01*
X2536190Y108966D02*
Y112014D01*
X2520696Y110490D02*
X2523744D01*
X2522220Y108966D02*
Y112014D01*
X2505456Y110490D02*
X2508504D01*
X2506980Y108966D02*
Y112014D01*
X2491486Y110490D02*
X2494534D01*
X2493010Y108966D02*
Y112014D01*
X2478786Y110490D02*
X2481834D01*
X2480310Y108966D02*
Y112014D01*
X2349246Y110490D02*
X2352294D01*
X2350770Y108966D02*
Y112014D01*
X2332736Y110490D02*
X2335784D01*
X2334260Y108966D02*
Y112014D01*
X2316226Y110490D02*
X2319274D01*
X2317750Y108966D02*
Y112014D01*
X2300986Y110490D02*
X2304034D01*
X2302510Y108966D02*
Y112014D01*
X2285746Y110490D02*
X2288794D01*
X2287270Y108966D02*
Y112014D01*
X2152396Y111760D02*
X2155444D01*
X2153920Y110236D02*
Y113284D01*
X2137156Y111760D02*
X2140204D01*
X2138680Y110236D02*
Y113284D01*
X2123186Y111760D02*
X2126234D01*
X2124710Y110236D02*
Y113284D01*
X2108180Y111640D02*
X2111228D01*
X2109704Y110116D02*
Y113164D01*
X2092706Y111760D02*
X2095754D01*
X2094230Y110236D02*
Y113284D01*
X2567218Y1014977D02*
X2570266D01*
X2568742Y1013453D02*
Y1016501D01*
X1979970Y107722D02*
X1983018D01*
X1981494Y106198D02*
Y109246D01*
X1948710Y109486D02*
X1951758D01*
X1950234Y107962D02*
Y111010D01*
X2731745Y107945D02*
X2734793D01*
X2733269Y106421D02*
Y109469D01*
X2904236Y492760D02*
X2907284D01*
X2905760Y491236D02*
Y494284D01*
X2896616Y492760D02*
X2899664D01*
X2898140Y491236D02*
Y494284D01*
X322326Y132080D02*
X325374D01*
X323850Y130556D02*
Y133604D01*
X315976Y132080D02*
X319024D01*
X317500Y130556D02*
Y133604D01*
X748634Y107722D02*
X751682D01*
X750158Y106198D02*
Y109246D01*
X1489456Y133350D02*
X1492504D01*
X1490980Y131826D02*
Y134874D01*
X1527556Y99060D02*
X1530604D01*
X1529080Y97536D02*
Y100584D01*
X1521206Y99060D02*
X1524254D01*
X1522730Y97536D02*
Y100584D01*
X1714246Y194310D02*
X1717294D01*
X1715770Y192786D02*
Y195834D01*
X1705356Y194310D02*
X1708404D01*
X1706880Y192786D02*
Y195834D01*
X1756156Y149860D02*
X1759204D01*
X1757680Y148336D02*
Y151384D01*
X1748536Y149860D02*
X1751584D01*
X1750060Y148336D02*
Y151384D01*
X1724406Y194310D02*
X1727454D01*
X1725930Y192786D02*
Y195834D01*
X1687576Y232410D02*
X1690624D01*
X1689100Y230886D02*
Y233934D01*
X309760Y611004D02*
X312808D01*
X311284Y609480D02*
Y612528D01*
X2207995Y971651D02*
X2211043D01*
X2209519Y970127D02*
Y973175D01*
X676341Y783275D02*
X679389D01*
X677865Y781751D02*
Y784799D01*
X858266Y1093470D02*
X861314D01*
X859790Y1091946D02*
Y1094994D01*
X822706Y1093470D02*
X825754D01*
X824230Y1091946D02*
Y1094994D01*
X867156Y1093470D02*
X870204D01*
X868680Y1091946D02*
Y1094994D01*
X831596Y1093470D02*
X834644D01*
X833120Y1091946D02*
Y1094994D01*
X780796Y1049020D02*
X783844D01*
X782320Y1047496D02*
Y1050544D01*
X2144776Y1049020D02*
X2147824D01*
X2146300Y1047496D02*
Y1050544D01*
X2099056Y1092200D02*
X2102104D01*
X2100580Y1090676D02*
Y1093724D01*
X1983486Y979678D02*
X1986534D01*
X1985010Y978154D02*
Y981202D01*
X2010156Y1012190D02*
X2013204D01*
X2011680Y1010666D02*
Y1013714D01*
X1954276Y1012190D02*
X1957324D01*
X1955800Y1010666D02*
Y1013714D01*
X2156809Y991267D02*
X2159857D01*
X2158333Y989743D02*
Y992791D01*
X2157476Y979170D02*
X2160524D01*
X2159000Y977646D02*
Y980694D01*
X1044956Y979170D02*
X1048004D01*
X1046480Y977646D02*
Y980694D01*
X1980946Y1015518D02*
X1983994D01*
X1982470Y1013994D02*
Y1017042D01*
X1944116Y1120140D02*
X1947164D01*
X1945640Y1118616D02*
Y1121664D01*
X2125726Y1092200D02*
X2128774D01*
X2127250Y1090676D02*
Y1093724D01*
X2072386Y1092200D02*
X2075434D01*
X2073910Y1090676D02*
Y1093724D01*
X2090166Y1092200D02*
X2093214D01*
X2091690Y1090676D02*
Y1093724D01*
X2107946Y1092200D02*
X2110994D01*
X2109470Y1090676D02*
Y1093724D01*
X2081276Y1092200D02*
X2084324D01*
X2082800Y1090676D02*
Y1093724D01*
X2134616Y1092200D02*
X2137664D01*
X2136140Y1090676D02*
Y1093724D01*
X2116836Y1092200D02*
X2119884D01*
X2118360Y1090676D02*
Y1093724D01*
X840486Y1093470D02*
X843534D01*
X842010Y1091946D02*
Y1094994D01*
X804926Y1093470D02*
X807974D01*
X806450Y1091946D02*
Y1094994D01*
X813816Y1093470D02*
X816864D01*
X815340Y1091946D02*
Y1094994D01*
X2270506Y1120140D02*
X2273554D01*
X2272030Y1118616D02*
Y1121664D01*
X2246376Y1120140D02*
X2249424D01*
X2247900Y1118616D02*
Y1121664D01*
X1961896Y979170D02*
X1964944D01*
X1963420Y977646D02*
Y980694D01*
X1965076Y1037870D02*
X1968124D01*
X1966600Y1036346D02*
Y1039394D01*
X2563876Y524510D02*
X2566924D01*
X2565400Y522986D02*
Y526034D01*
X2217166Y193000D02*
X2220214D01*
X2218690Y191476D02*
Y194524D01*
X2129536Y193000D02*
X2132584D01*
X2131060Y191476D02*
Y194524D01*
X1697736Y85090D02*
X1700784D01*
X1699260Y83566D02*
Y86614D01*
X1616456Y77902D02*
X1619504D01*
X1617980Y76378D02*
Y79426D01*
X170566Y227114D02*
X173614D01*
X172090Y225590D02*
Y228638D01*
X260096Y690880D02*
X263144D01*
X261620Y689356D02*
Y692404D01*
X339603Y801482D02*
X342651D01*
X341127Y799958D02*
Y803006D01*
X356748Y807014D02*
X359796D01*
X358272Y805490D02*
Y808538D01*
X371498Y802024D02*
X374546D01*
X373022Y800500D02*
Y803548D01*
X343916Y789940D02*
X346964D01*
X345440Y788416D02*
Y791464D01*
X345064Y845840D02*
X348112D01*
X346588Y844316D02*
Y847364D01*
X361696Y839340D02*
X364744D01*
X363220Y837816D02*
Y840864D01*
X367000Y820014D02*
X370048D01*
X368524Y818490D02*
Y821538D01*
X387923Y791668D02*
X390971D01*
X389447Y790144D02*
Y793192D01*
X319786Y801370D02*
X322834D01*
X321310Y799846D02*
Y802894D01*
X233426Y819366D02*
X236474D01*
X234950Y817842D02*
Y820890D01*
X349770Y608536D02*
X352818D01*
X351294Y607012D02*
Y610060D01*
X354166Y601700D02*
X357214D01*
X355690Y600176D02*
Y603224D01*
X402214Y614680D02*
X405262D01*
X403738Y613156D02*
Y616204D01*
X395864Y368494D02*
X398912D01*
X397388Y366970D02*
Y370018D01*
X385716Y342320D02*
X388764D01*
X387240Y340796D02*
Y343844D01*
X423924Y476938D02*
X426972D01*
X425448Y475414D02*
Y478462D01*
X423169Y515766D02*
X426217D01*
X424693Y514242D02*
Y517290D01*
X363933Y558815D02*
X366981D01*
X365457Y557291D02*
Y560339D01*
X340666Y548466D02*
X343714D01*
X342190Y546942D02*
Y549990D01*
X419070Y552494D02*
X422118D01*
X420594Y550970D02*
Y554018D01*
X376936Y580390D02*
X379984D01*
X378460Y578866D02*
Y581914D01*
X395986Y580390D02*
X399034D01*
X397510Y578866D02*
Y581914D01*
X396626Y570370D02*
X399674D01*
X398150Y568846D02*
Y571894D01*
X376936Y570230D02*
X379984D01*
X378460Y568706D02*
Y571754D01*
X402214Y558800D02*
X405262D01*
X403738Y557276D02*
Y560324D01*
X402214Y502920D02*
X405262D01*
X403738Y501396D02*
Y504444D01*
X394213Y436734D02*
X397261D01*
X395737Y435210D02*
Y438258D01*
X433964Y422910D02*
X437012D01*
X435488Y421386D02*
Y424434D01*
X433964Y368300D02*
X437012D01*
X435488Y366776D02*
Y369824D01*
X433964Y312420D02*
X437012D01*
X435488Y310896D02*
Y313944D01*
X399796Y247422D02*
X402844D01*
X401320Y245898D02*
Y248946D01*
X409326Y253137D02*
X412374D01*
X410850Y251613D02*
Y254661D01*
X321056Y241300D02*
X324104D01*
X322580Y239776D02*
Y242824D01*
X369316Y215900D02*
X372364D01*
X370840Y214376D02*
Y217424D01*
X393446Y216497D02*
X396494D01*
X394970Y214973D02*
Y218021D01*
X401066Y222250D02*
X404114D01*
X402590Y220726D02*
Y223774D01*
X716026Y216580D02*
X719074D01*
X717550Y215056D02*
Y218104D01*
X699516Y231140D02*
X702564D01*
X701040Y229616D02*
Y232664D01*
X1414526Y229966D02*
X1417574D01*
X1416050Y228442D02*
Y231490D01*
X2105406Y231140D02*
X2108454D01*
X2106930Y229616D02*
Y232664D01*
X1895856Y226060D02*
X1898904D01*
X1897380Y224536D02*
Y227584D01*
X1960626Y220752D02*
X1963674D01*
X1962150Y219228D02*
Y222276D01*
X1728216Y220752D02*
X1731264D01*
X1729740Y219228D02*
Y222276D01*
X1970217Y195745D02*
X1973265D01*
X1971741Y194221D02*
Y197269D01*
X1905310Y107458D02*
X1908358D01*
X1906834Y105934D02*
Y108982D01*
X2909194Y453162D02*
X2912242D01*
X2910718Y451638D02*
Y454686D01*
X2909194Y461010D02*
X2912242D01*
X2910718Y459486D02*
Y462534D01*
X2874904Y462204D02*
X2877952D01*
X2876428Y460680D02*
Y463728D01*
X2890398Y432205D02*
X2893446D01*
X2891922Y430681D02*
Y433729D01*
X2909194Y418276D02*
X2912242D01*
X2910718Y416752D02*
Y419800D01*
X2909194Y426552D02*
X2912242D01*
X2910718Y425028D02*
Y428076D01*
X2768478Y294920D02*
X2771526D01*
X2770002Y293396D02*
Y296444D01*
X2775966Y289078D02*
X2779014D01*
X2777490Y287554D02*
Y290602D01*
X2546037Y295682D02*
X2549085D01*
X2547561Y294158D02*
Y297206D01*
X2546037Y283998D02*
X2549085D01*
X2547561Y282474D02*
Y285522D01*
X2658726Y1120200D02*
X2661774D01*
X2660250Y1118676D02*
Y1121724D01*
X2723896Y959003D02*
X2726944D01*
X2725420Y957479D02*
Y960527D01*
X2701036Y953669D02*
X2704084D01*
X2702560Y952145D02*
Y955193D01*
X2660534Y863740D02*
X2663582D01*
X2662058Y862216D02*
Y865264D01*
X2645918Y895350D02*
X2648966D01*
X2647442Y893826D02*
Y896874D01*
X2654046Y895350D02*
X2657094D01*
X2655570Y893826D02*
Y896874D01*
X2645918Y930947D02*
X2648966D01*
X2647442Y929423D02*
Y932471D01*
X2654046Y930910D02*
X2657094D01*
X2655570Y929386D02*
Y932434D01*
X2608326Y975360D02*
X2611374D01*
X2609850Y973836D02*
Y976884D01*
X2162556Y998220D02*
X2165604D01*
X2164080Y996696D02*
Y999744D01*
X2162556Y985520D02*
X2165604D01*
X2164080Y983996D02*
Y987044D01*
X2217804Y1015518D02*
X2220852D01*
X2219328Y1013994D02*
Y1017042D01*
X2227326Y1015518D02*
X2230374D01*
X2228850Y1013994D02*
Y1017042D01*
X2208758Y1015518D02*
X2211806D01*
X2210282Y1013994D02*
Y1017042D01*
X2139696Y1015518D02*
X2142744D01*
X2141220Y1013994D02*
Y1017042D01*
X2130662Y1015518D02*
X2133710D01*
X2132186Y1013994D02*
Y1017042D01*
X2121166Y1015518D02*
X2124214D01*
X2122690Y1013994D02*
Y1017042D01*
X2112516Y1015518D02*
X2115564D01*
X2114040Y1013994D02*
Y1017042D01*
X2116349Y997706D02*
X2119397D01*
X2117872Y996182D02*
Y999230D01*
X1422146Y979170D02*
X1425194D01*
X1423670Y977646D02*
Y980694D01*
X1404366Y1003072D02*
X1407414D01*
X1405890Y1001548D02*
Y1004596D01*
X1716156Y221260D02*
X1719204D01*
X1717680Y219736D02*
Y222784D01*
X2626106Y571500D02*
X2629154D01*
X2627630Y569976D02*
Y573024D01*
X488696Y377190D02*
X491744D01*
X490220Y375666D02*
Y378714D01*
X488696Y388620D02*
X491744D01*
X490220Y387096D02*
Y390144D01*
X305816Y496570D02*
X308864D01*
X307340Y495046D02*
Y498094D01*
X332486Y728980D02*
X335534D01*
X334010Y727456D02*
Y730504D01*
X366776Y740410D02*
X369824D01*
X368300Y738886D02*
Y741934D01*
X339662Y811559D02*
X342710D01*
X341186Y810035D02*
Y813083D01*
X281686Y845820D02*
X284734D01*
X283210Y844296D02*
Y847344D01*
X280416Y789940D02*
X283464D01*
X281940Y788416D02*
Y791464D01*
X2844546Y982980D02*
X2847594D01*
X2846070Y981456D02*
Y984504D01*
X2835656Y998220D02*
X2838704D01*
X2837180Y996696D02*
Y999744D01*
X2902966Y389890D02*
X2906014D01*
X2904490Y388366D02*
Y391414D01*
X2892806Y389890D02*
X2895854D01*
X2894330Y388366D02*
Y391414D01*
X314706Y852170D02*
X317754D01*
X316230Y850646D02*
Y853694D01*
X385826Y756920D02*
X388874D01*
X387350Y755396D02*
Y758444D01*
X436626Y563880D02*
X439674D01*
X438150Y562356D02*
Y565404D01*
X505206Y488950D02*
X508254D01*
X506730Y487426D02*
Y490474D01*
X340106Y421640D02*
X343154D01*
X341630Y420116D02*
Y423164D01*
X512826Y341630D02*
X515874D01*
X514350Y340106D02*
Y343154D01*
X592836Y245110D02*
X595884D01*
X594360Y243586D02*
Y246634D01*
X568706Y245110D02*
X571754D01*
X570230Y243586D02*
Y246634D01*
X547116Y245110D02*
X550164D01*
X548640Y243586D02*
Y246634D01*
X561086Y599440D02*
X564134D01*
X562610Y597916D02*
Y600964D01*
X561086Y627380D02*
X564134D01*
X562610Y625856D02*
Y628904D01*
X469646Y628650D02*
X472694D01*
X471170Y627126D02*
Y630174D01*
X2563876Y463550D02*
X2566924D01*
X2565400Y462026D02*
Y465074D01*
X2175256Y972820D02*
X2178304D01*
X2176780Y971296D02*
Y974344D01*
X2166366Y972820D02*
X2169414D01*
X2167890Y971296D02*
Y974344D01*
X2184146Y972820D02*
X2187194D01*
X2185670Y971296D02*
Y974344D01*
X2199386Y971550D02*
X2202434D01*
X2200910Y970026D02*
Y973074D01*
X2675636Y939800D02*
X2678684D01*
X2677160Y938276D02*
Y941324D01*
X2673096Y928370D02*
X2676144D01*
X2674620Y926846D02*
Y929894D01*
X1794896Y180671D02*
X1797944D01*
X1796420Y179147D02*
Y182195D01*
X1766905Y152680D02*
X1769953D01*
X1768429Y151156D02*
Y154204D01*
X1780901Y166675D02*
X1783949D01*
X1782425Y165151D02*
Y168199D01*
X1780901Y152680D02*
X1783949D01*
X1782425Y151156D02*
Y154204D01*
X1794896Y152680D02*
X1797944D01*
X1796420Y151156D02*
Y154204D01*
X1794896Y166675D02*
X1797944D01*
X1796420Y165151D02*
Y168199D01*
X2198116Y180340D02*
X2201164D01*
X2199640Y178816D02*
Y181864D01*
X2020316Y223520D02*
X2023364D01*
X2021840Y221996D02*
Y225044D01*
X2612136Y958850D02*
X2615184D01*
X2613660Y957326D02*
Y960374D01*
X2619756Y952500D02*
X2622804D01*
X2621280Y950976D02*
Y954024D01*
X2627376Y944880D02*
X2630424D01*
X2628900Y943356D02*
Y946404D01*
X2637536Y934720D02*
X2640584D01*
X2639060Y933196D02*
Y936244D01*
X2618486Y975360D02*
X2621534D01*
X2620010Y973836D02*
Y976884D01*
X2598166Y975360D02*
X2601214D01*
X2599690Y973836D02*
Y976884D01*
X2618486Y991870D02*
X2621534D01*
X2620010Y990346D02*
Y993394D01*
X2608326Y991870D02*
X2611374D01*
X2609850Y990346D02*
Y993394D01*
X2598166Y991870D02*
X2601214D01*
X2599690Y990346D02*
Y993394D01*
X2173986Y1014730D02*
X2177034D01*
X2175510Y1013206D02*
Y1016254D01*
X2184146Y1014730D02*
X2187194D01*
X2185670Y1013206D02*
Y1016254D01*
X2165096Y1014730D02*
X2168144D01*
X2166620Y1013206D02*
Y1016254D01*
X2383536Y980440D02*
X2386584D01*
X2385060Y978916D02*
Y981964D01*
X2346706Y980440D02*
X2349754D01*
X2348230Y978916D02*
Y981964D01*
X2364486Y980440D02*
X2367534D01*
X2366010Y978916D02*
Y981964D01*
X1450086Y999490D02*
X1453134D01*
X1451610Y997966D02*
Y1001014D01*
X1384046Y1000760D02*
X1387094D01*
X1385570Y999236D02*
Y1002284D01*
X1458976Y992021D02*
X1462024D01*
X1460500Y990497D02*
Y993545D01*
X2844546Y1120140D02*
X2847594D01*
X2846070Y1118616D02*
Y1121664D01*
X2226056Y993140D02*
X2229104D01*
X2227580Y991616D02*
Y994664D01*
X2036826Y1000760D02*
X2039874D01*
X2038350Y999236D02*
Y1002284D01*
X2015236Y979170D02*
X2018284D01*
X2016760Y977646D02*
Y980694D01*
X1996186Y979170D02*
X1999234D01*
X1997710Y977646D02*
Y980694D01*
X1963166Y1014730D02*
X1966214D01*
X1964690Y1013206D02*
Y1016254D01*
X2001266Y1014730D02*
X2004314D01*
X2002790Y1013206D02*
Y1016254D01*
X1992376Y1014730D02*
X1995424D01*
X1993900Y1013206D02*
Y1016254D01*
X2281936Y1127760D02*
X2284984D01*
X2283460Y1126236D02*
Y1129284D01*
X2780056Y819430D02*
X2783104D01*
X2781580Y817906D02*
Y820954D01*
X183896Y806450D02*
X186944D01*
X185420Y804926D02*
Y807974D01*
X991616Y1003326D02*
X994664D01*
X993140Y1001802D02*
Y1004850D01*
X1810766Y979170D02*
X1813814D01*
X1812290Y977646D02*
Y980694D01*
X1773936Y979170D02*
X1776984D01*
X1775460Y977646D02*
Y980694D01*
X1791716Y979170D02*
X1794764D01*
X1793240Y977646D02*
Y980694D01*
X2730886Y1120420D02*
X2733934D01*
X2732410Y1118896D02*
Y1121944D01*
X2742316Y278410D02*
X2745364D01*
X2743840Y276886D02*
Y279934D01*
X2748666Y273330D02*
X2751714D01*
X2750190Y271806D02*
Y274854D01*
X2036826Y1127760D02*
X2039874D01*
X2038350Y1126236D02*
Y1129284D01*
X2034926Y108230D02*
X2037974D01*
X2036450Y106706D02*
Y109754D01*
X1973966Y239040D02*
X1977014D01*
X1975490Y237516D02*
Y240564D01*
X1879986Y235230D02*
X1883034D01*
X1881510Y233706D02*
Y236754D01*
X1938406Y239040D02*
X1941454D01*
X1939930Y237516D02*
Y240564D01*
X367416Y312700D02*
X370464D01*
X368940Y311176D02*
Y314224D01*
X394086Y235230D02*
X397134D01*
X395610Y233706D02*
Y236754D01*
X1647576Y1115340D02*
X1650624D01*
X1649100Y1113816D02*
Y1116864D01*
X772546Y1126770D02*
X775594D01*
X774070Y1125246D02*
Y1128294D01*
X2883603Y1120200D02*
X2886651D01*
X2885127Y1118676D02*
Y1121724D01*
X2776606Y1128040D02*
X2779654D01*
X2778130Y1126516D02*
Y1129564D01*
X2725806Y1128040D02*
X2728854D01*
X2727330Y1126516D02*
Y1129564D01*
X2306706Y1128040D02*
X2309754D01*
X2308230Y1126516D02*
Y1129564D01*
X2142876Y1128040D02*
X2145924D01*
X2144400Y1126516D02*
Y1129564D01*
X1867286Y1128040D02*
X1870334D01*
X1868810Y1126516D02*
Y1129564D01*
X1838076Y1128040D02*
X1841124D01*
X1839600Y1126516D02*
Y1129564D01*
X1716156Y1126770D02*
X1719204D01*
X1717680Y1125246D02*
Y1128294D01*
X1349126Y1112800D02*
X1352174D01*
X1350650Y1111276D02*
Y1114324D01*
X1270386Y1126770D02*
X1273434D01*
X1271910Y1125246D02*
Y1128294D01*
X1209426Y1114070D02*
X1212474D01*
X1210950Y1112546D02*
Y1115594D01*
X1121796Y1126770D02*
X1124844D01*
X1123320Y1125246D02*
Y1128294D01*
X1097666Y1126770D02*
X1100714D01*
X1099190Y1125246D02*
Y1128294D01*
X1060196Y1127760D02*
X1063244D01*
X1061720Y1126236D02*
Y1129284D01*
X714126Y1126770D02*
X717174D01*
X715650Y1125246D02*
Y1128294D01*
X969396Y1126770D02*
X972444D01*
X970920Y1125246D02*
Y1128294D01*
X945266Y1126770D02*
X948314D01*
X946790Y1125246D02*
Y1128294D01*
X924946Y1126770D02*
X927994D01*
X926470Y1125246D02*
Y1128294D01*
X819536Y1126770D02*
X822584D01*
X821060Y1125246D02*
Y1128294D01*
X795406Y1126770D02*
X798454D01*
X796930Y1125246D02*
Y1128294D01*
X296296Y1114070D02*
X299344D01*
X297820Y1112546D02*
Y1115594D01*
X211206Y1126770D02*
X214254D01*
X212730Y1125246D02*
Y1128294D01*
X181996Y1126770D02*
X185044D01*
X183520Y1125246D02*
Y1128294D01*
X315346Y1126770D02*
X318394D01*
X316870Y1125246D02*
Y1128294D01*
X368686Y1126770D02*
X371734D01*
X370210Y1125246D02*
Y1128294D01*
X347096Y1126770D02*
X350144D01*
X348620Y1125246D02*
Y1128294D01*
X510926Y1126770D02*
X513974D01*
X512450Y1125246D02*
Y1128294D01*
X479176Y1126770D02*
X482224D01*
X480700Y1125246D02*
Y1128294D01*
X620146Y1126770D02*
X623194D01*
X621670Y1125246D02*
Y1128294D01*
X649356Y1126770D02*
X652404D01*
X650880Y1125246D02*
Y1128294D01*
X681106Y1126770D02*
X684154D01*
X682630Y1125246D02*
Y1128294D01*
X1664716Y57150D02*
X1667764D01*
X1666240Y55626D02*
Y58674D01*
X1981586Y1128040D02*
X1984634D01*
X1983110Y1126516D02*
Y1129564D01*
X1637416Y227610D02*
X1640464D01*
X1638940Y226086D02*
Y229134D01*
X1629796Y227610D02*
X1632844D01*
X1631320Y226086D02*
Y229134D01*
X1608206Y195860D02*
X1611254D01*
X1609730Y194336D02*
Y197384D01*
X1637416Y233960D02*
X1640464D01*
X1638940Y232436D02*
Y235484D01*
X1629796Y233960D02*
X1632844D01*
X1631320Y232436D02*
Y235484D01*
X1971426Y1120420D02*
X1974474D01*
X1972950Y1118896D02*
Y1121944D01*
X668926Y1120830D02*
X671974D01*
X670450Y1119306D02*
Y1122354D01*
X1486540Y63780D02*
X1491620D01*
X1489080Y61240D02*
Y66320D01*
X1459870Y63780D02*
X1464950D01*
X1462410Y61240D02*
Y66320D01*
X1433200Y63780D02*
X1438280D01*
X1435740Y61240D02*
Y66320D01*
X1406530Y63780D02*
X1411610D01*
X1409070Y61240D02*
Y66320D01*
X1379860Y63780D02*
X1384940D01*
X1382400Y61240D02*
Y66320D01*
X1513210Y63780D02*
X1518290D01*
X1515750Y61240D02*
Y66320D01*
X1299850Y63780D02*
X1304930D01*
X1302390Y61240D02*
Y66320D01*
X1273180Y63780D02*
X1278260D01*
X1275720Y61240D02*
Y66320D01*
X1246510Y63780D02*
X1251590D01*
X1249050Y61240D02*
Y66320D01*
X1219840Y63780D02*
X1224920D01*
X1222380Y61240D02*
Y66320D01*
X1193170Y63780D02*
X1198250D01*
X1195710Y61240D02*
Y66320D01*
X1326520Y63780D02*
X1331600D01*
X1329060Y61240D02*
Y66320D01*
X1353190Y63780D02*
X1358270D01*
X1355730Y61240D02*
Y66320D01*
X1113160Y63780D02*
X1118240D01*
X1115700Y61240D02*
Y66320D01*
X1086490Y63780D02*
X1091570D01*
X1089030Y61240D02*
Y66320D01*
X1059820Y63780D02*
X1064900D01*
X1062360Y61240D02*
Y66320D01*
X1033150Y63780D02*
X1038230D01*
X1035690Y61240D02*
Y66320D01*
X1006480Y63780D02*
X1011560D01*
X1009020Y61240D02*
Y66320D01*
X1139830Y63780D02*
X1144910D01*
X1142370Y61240D02*
Y66320D01*
X1166500Y63780D02*
X1171580D01*
X1169040Y61240D02*
Y66320D01*
X926470Y63780D02*
X931550D01*
X929010Y61240D02*
Y66320D01*
X899800Y63780D02*
X904880D01*
X902340Y61240D02*
Y66320D01*
X873130Y63780D02*
X878210D01*
X875670Y61240D02*
Y66320D01*
X846460Y63780D02*
X851540D01*
X849000Y61240D02*
Y66320D01*
X819790Y63780D02*
X824870D01*
X822330Y61240D02*
Y66320D01*
X953140Y63780D02*
X958220D01*
X955680Y61240D02*
Y66320D01*
X979810Y63780D02*
X984890D01*
X982350Y61240D02*
Y66320D01*
X1596776Y95530D02*
X1599824D01*
X1598300Y94006D02*
Y97054D01*
X1538090Y63780D02*
X1543170D01*
X1540630Y61240D02*
Y66320D01*
X1712600Y1144550D02*
X1717680D01*
X1715140Y1142010D02*
Y1147090D01*
X2912750Y1144550D02*
X2917830D01*
X2915290Y1142010D02*
Y1147090D01*
X2939420Y1133120D02*
X2944500D01*
X2941960Y1130580D02*
Y1135660D01*
X71760Y1133120D02*
X76840D01*
X74300Y1130580D02*
Y1135660D01*
X99611Y1144550D02*
X104691D01*
X102151Y1142010D02*
Y1147090D01*
X60330Y1089940D02*
X65410D01*
X62870Y1087400D02*
Y1092480D01*
X60330Y1063270D02*
X65410D01*
X62870Y1060730D02*
Y1065810D01*
X60330Y1036600D02*
X65410D01*
X62870Y1034060D02*
Y1039140D01*
X1193081Y1144550D02*
X1198161D01*
X1195621Y1142010D02*
Y1147090D01*
X1086401Y1144550D02*
X1091481D01*
X1088941Y1142010D02*
Y1147090D01*
X1059731Y1144550D02*
X1064811D01*
X1062271Y1142010D02*
Y1147090D01*
X1113071Y1144550D02*
X1118151D01*
X1115611Y1142010D02*
Y1147090D01*
X1139741Y1144550D02*
X1144821D01*
X1142281Y1142010D02*
Y1147090D01*
X1166411Y1144550D02*
X1171491D01*
X1168951Y1142010D02*
Y1147090D01*
X953051Y1144550D02*
X958131D01*
X955591Y1142010D02*
Y1147090D01*
X926381Y1144550D02*
X931461D01*
X928921Y1142010D02*
Y1147090D01*
X979721Y1144550D02*
X984801D01*
X982261Y1142010D02*
Y1147090D01*
X1006391Y1144550D02*
X1011471D01*
X1008931Y1142010D02*
Y1147090D01*
X1033061Y1144550D02*
X1038141D01*
X1035601Y1142010D02*
Y1147090D01*
X819701Y1144550D02*
X824781D01*
X822241Y1142010D02*
Y1147090D01*
X793031Y1144550D02*
X798111D01*
X795571Y1142010D02*
Y1147090D01*
X846371Y1144550D02*
X851451D01*
X848911Y1142010D02*
Y1147090D01*
X873041Y1144550D02*
X878121D01*
X875581Y1142010D02*
Y1147090D01*
X899711Y1144550D02*
X904791D01*
X902251Y1142010D02*
Y1147090D01*
X686351Y1144550D02*
X691431D01*
X688891Y1142010D02*
Y1147090D01*
X659681Y1144550D02*
X664761D01*
X662221Y1142010D02*
Y1147090D01*
X713021Y1144550D02*
X718101D01*
X715561Y1142010D02*
Y1147090D01*
X739691Y1144550D02*
X744771D01*
X742231Y1142010D02*
Y1147090D01*
X766361Y1144550D02*
X771441D01*
X768901Y1142010D02*
Y1147090D01*
X553001Y1144550D02*
X558081D01*
X555541Y1142010D02*
Y1147090D01*
X526331Y1144550D02*
X531411D01*
X528871Y1142010D02*
Y1147090D01*
X579671Y1144550D02*
X584751D01*
X582211Y1142010D02*
Y1147090D01*
X606341Y1144550D02*
X611421D01*
X608881Y1142010D02*
Y1147090D01*
X633011Y1144550D02*
X638091D01*
X635551Y1142010D02*
Y1147090D01*
X419651Y1144550D02*
X424731D01*
X422191Y1142010D02*
Y1147090D01*
X392981Y1144550D02*
X398061D01*
X395521Y1142010D02*
Y1147090D01*
X446321Y1144550D02*
X451401D01*
X448861Y1142010D02*
Y1147090D01*
X472991Y1144550D02*
X478071D01*
X475531Y1142010D02*
Y1147090D01*
X499661Y1144550D02*
X504741D01*
X502201Y1142010D02*
Y1147090D01*
X286301Y1144550D02*
X291381D01*
X288841Y1142010D02*
Y1147090D01*
X259631Y1144550D02*
X264711D01*
X262171Y1142010D02*
Y1147090D01*
X312971Y1144550D02*
X318051D01*
X315511Y1142010D02*
Y1147090D01*
X339641Y1144550D02*
X344721D01*
X342181Y1142010D02*
Y1147090D01*
X366311Y1144550D02*
X371391D01*
X368851Y1142010D02*
Y1147090D01*
X152951Y1144550D02*
X158031D01*
X155491Y1142010D02*
Y1147090D01*
X126281Y1144550D02*
X131361D01*
X128821Y1142010D02*
Y1147090D01*
X179621Y1144550D02*
X184701D01*
X182161Y1142010D02*
Y1147090D01*
X206291Y1144550D02*
X211371D01*
X208831Y1142010D02*
Y1147090D01*
X232961Y1144550D02*
X238041D01*
X235501Y1142010D02*
Y1147090D01*
X1765940Y1144550D02*
X1771020D01*
X1768480Y1142010D02*
Y1147090D01*
X1792610Y1144550D02*
X1797690D01*
X1795150Y1142010D02*
Y1147090D01*
X1739270Y1144550D02*
X1744350D01*
X1741810Y1142010D02*
Y1147090D01*
X1899290Y1144550D02*
X1904370D01*
X1901830Y1142010D02*
Y1147090D01*
X1925960Y1144550D02*
X1931040D01*
X1928500Y1142010D02*
Y1147090D01*
X1872620Y1144550D02*
X1877700D01*
X1875160Y1142010D02*
Y1147090D01*
X1845950Y1144550D02*
X1851030D01*
X1848490Y1142010D02*
Y1147090D01*
X1819280Y1144550D02*
X1824360D01*
X1821820Y1142010D02*
Y1147090D01*
X2032640Y1144550D02*
X2037720D01*
X2035180Y1142010D02*
Y1147090D01*
X2059310Y1144550D02*
X2064390D01*
X2061850Y1142010D02*
Y1147090D01*
X2005970Y1144550D02*
X2011050D01*
X2008510Y1142010D02*
Y1147090D01*
X1979300Y1144550D02*
X1984380D01*
X1981840Y1142010D02*
Y1147090D01*
X1952630Y1144550D02*
X1957710D01*
X1955170Y1142010D02*
Y1147090D01*
X2165990Y1144550D02*
X2171070D01*
X2168530Y1142010D02*
Y1147090D01*
X2192660Y1144550D02*
X2197740D01*
X2195200Y1142010D02*
Y1147090D01*
X2139320Y1144550D02*
X2144400D01*
X2141860Y1142010D02*
Y1147090D01*
X2112650Y1144550D02*
X2117730D01*
X2115190Y1142010D02*
Y1147090D01*
X2085980Y1144550D02*
X2091060D01*
X2088520Y1142010D02*
Y1147090D01*
X2299340Y1144550D02*
X2304420D01*
X2301880Y1142010D02*
Y1147090D01*
X2326010Y1144550D02*
X2331090D01*
X2328550Y1142010D02*
Y1147090D01*
X2272670Y1144550D02*
X2277750D01*
X2275210Y1142010D02*
Y1147090D01*
X2246000Y1144550D02*
X2251080D01*
X2248540Y1142010D02*
Y1147090D01*
X2219330Y1144550D02*
X2224410D01*
X2221870Y1142010D02*
Y1147090D01*
X2432690Y1144550D02*
X2437770D01*
X2435230Y1142010D02*
Y1147090D01*
X2459360Y1144550D02*
X2464440D01*
X2461900Y1142010D02*
Y1147090D01*
X2406020Y1144550D02*
X2411100D01*
X2408560Y1142010D02*
Y1147090D01*
X2379350Y1144550D02*
X2384430D01*
X2381890Y1142010D02*
Y1147090D01*
X2352680Y1144550D02*
X2357760D01*
X2355220Y1142010D02*
Y1147090D01*
X2566040Y1144550D02*
X2571120D01*
X2568580Y1142010D02*
Y1147090D01*
X2592710Y1144550D02*
X2597790D01*
X2595250Y1142010D02*
Y1147090D01*
X2539370Y1144550D02*
X2544450D01*
X2541910Y1142010D02*
Y1147090D01*
X2512700Y1144550D02*
X2517780D01*
X2515240Y1142010D02*
Y1147090D01*
X2486030Y1144550D02*
X2491110D01*
X2488570Y1142010D02*
Y1147090D01*
X2699390Y1144550D02*
X2704470D01*
X2701930Y1142010D02*
Y1147090D01*
X2726060Y1144550D02*
X2731140D01*
X2728600Y1142010D02*
Y1147090D01*
X2672720Y1144550D02*
X2677800D01*
X2675260Y1142010D02*
Y1147090D01*
X2646050Y1144550D02*
X2651130D01*
X2648590Y1142010D02*
Y1147090D01*
X2619380Y1144550D02*
X2624460D01*
X2621920Y1142010D02*
Y1147090D01*
X2832740Y1144550D02*
X2837820D01*
X2835280Y1142010D02*
Y1147090D01*
X2859410Y1144550D02*
X2864490D01*
X2861950Y1142010D02*
Y1147090D01*
X2806070Y1144550D02*
X2811150D01*
X2808610Y1142010D02*
Y1147090D01*
X2779400Y1144550D02*
X2784480D01*
X2781940Y1142010D02*
Y1147090D01*
X2752730Y1144550D02*
X2757810D01*
X2755270Y1142010D02*
Y1147090D01*
X2886080Y1144550D02*
X2891160D01*
X2888620Y1142010D02*
Y1147090D01*
X2952120Y1089940D02*
X2957200D01*
X2954660Y1087400D02*
Y1092480D01*
X2952120Y1063270D02*
X2957200D01*
X2954660Y1060730D02*
Y1065810D01*
X2952120Y1036600D02*
X2957200D01*
X2954660Y1034060D02*
Y1039140D01*
X2940690Y75210D02*
X2945770D01*
X2943230Y72670D02*
Y77750D01*
X2952120Y103150D02*
X2957200D01*
X2954660Y100610D02*
Y105690D01*
X70490Y76480D02*
X75570D01*
X73030Y73940D02*
Y79020D01*
X60330Y104420D02*
X65410D01*
X62870Y101880D02*
Y106960D01*
X99700Y63780D02*
X104780D01*
X102240Y61240D02*
Y66320D01*
X793120Y63780D02*
X798200D01*
X795660Y61240D02*
Y66320D01*
X766450Y63780D02*
X771530D01*
X768990Y61240D02*
Y66320D01*
X2952120Y769900D02*
X2957200D01*
X2954660Y767360D02*
Y772440D01*
X2952120Y796570D02*
X2957200D01*
X2954660Y794030D02*
Y799110D01*
X2952120Y823240D02*
X2957200D01*
X2954660Y820700D02*
Y825780D01*
X2952120Y849910D02*
X2957200D01*
X2954660Y847370D02*
Y852450D01*
X2952120Y876580D02*
X2957200D01*
X2954660Y874040D02*
Y879120D01*
X2952120Y903250D02*
X2957200D01*
X2954660Y900710D02*
Y905790D01*
X2952120Y929920D02*
X2957200D01*
X2954660Y927380D02*
Y932460D01*
X2952120Y956590D02*
X2957200D01*
X2954660Y954050D02*
Y959130D01*
X2952120Y983260D02*
X2957200D01*
X2954660Y980720D02*
Y985800D01*
X2952120Y1009930D02*
X2957200D01*
X2954660Y1007390D02*
Y1012470D01*
X2952120Y449860D02*
X2957200D01*
X2954660Y447320D02*
Y452400D01*
X2952120Y476530D02*
X2957200D01*
X2954660Y473990D02*
Y479070D01*
X2952120Y503200D02*
X2957200D01*
X2954660Y500660D02*
Y505740D01*
X2952120Y529870D02*
X2957200D01*
X2954660Y527330D02*
Y532410D01*
X2952120Y556540D02*
X2957200D01*
X2954660Y554000D02*
Y559080D01*
X2952120Y583210D02*
X2957200D01*
X2954660Y580670D02*
Y585750D01*
X2952120Y609880D02*
X2957200D01*
X2954660Y607340D02*
Y612420D01*
X2952120Y636550D02*
X2957200D01*
X2954660Y634010D02*
Y639090D01*
X2952120Y663220D02*
X2957200D01*
X2954660Y660680D02*
Y665760D01*
X2952120Y689890D02*
X2957200D01*
X2954660Y687350D02*
Y692430D01*
X2952120Y716560D02*
X2957200D01*
X2954660Y714020D02*
Y719100D01*
X2952120Y743230D02*
X2957200D01*
X2954660Y740690D02*
Y745770D01*
X2952120Y129820D02*
X2957200D01*
X2954660Y127280D02*
Y132360D01*
X2952120Y156490D02*
X2957200D01*
X2954660Y153950D02*
Y159030D01*
X2952120Y183160D02*
X2957200D01*
X2954660Y180620D02*
Y185700D01*
X2952120Y209830D02*
X2957200D01*
X2954660Y207290D02*
Y212370D01*
X2952120Y236500D02*
X2957200D01*
X2954660Y233960D02*
Y239040D01*
X2952120Y263170D02*
X2957200D01*
X2954660Y260630D02*
Y265710D01*
X2952120Y289840D02*
X2957200D01*
X2954660Y287300D02*
Y292380D01*
X2952120Y316510D02*
X2957200D01*
X2954660Y313970D02*
Y319050D01*
X2952120Y343180D02*
X2957200D01*
X2954660Y340640D02*
Y345720D01*
X2952120Y369850D02*
X2957200D01*
X2954660Y367310D02*
Y372390D01*
X2952120Y396520D02*
X2957200D01*
X2954660Y393980D02*
Y399060D01*
X2952120Y423190D02*
X2957200D01*
X2954660Y420650D02*
Y425730D01*
X60330Y769900D02*
X65410D01*
X62870Y767360D02*
Y772440D01*
X60330Y796570D02*
X65410D01*
X62870Y794030D02*
Y799110D01*
X60330Y823240D02*
X65410D01*
X62870Y820700D02*
Y825780D01*
X60330Y849910D02*
X65410D01*
X62870Y847370D02*
Y852450D01*
X60330Y876580D02*
X65410D01*
X62870Y874040D02*
Y879120D01*
X60330Y903250D02*
X65410D01*
X62870Y900710D02*
Y905790D01*
X60330Y929920D02*
X65410D01*
X62870Y927380D02*
Y932460D01*
X60330Y956590D02*
X65410D01*
X62870Y954050D02*
Y959130D01*
X60330Y983260D02*
X65410D01*
X62870Y980720D02*
Y985800D01*
X60330Y1009930D02*
X65410D01*
X62870Y1007390D02*
Y1012470D01*
X60330Y449860D02*
X65410D01*
X62870Y447320D02*
Y452400D01*
X60330Y476530D02*
X65410D01*
X62870Y473990D02*
Y479070D01*
X60330Y503200D02*
X65410D01*
X62870Y500660D02*
Y505740D01*
X60330Y529870D02*
X65410D01*
X62870Y527330D02*
Y532410D01*
X60330Y556540D02*
X65410D01*
X62870Y554000D02*
Y559080D01*
X60330Y583210D02*
X65410D01*
X62870Y580670D02*
Y585750D01*
X60330Y609880D02*
X65410D01*
X62870Y607340D02*
Y612420D01*
X60330Y636550D02*
X65410D01*
X62870Y634010D02*
Y639090D01*
X60330Y663220D02*
X65410D01*
X62870Y660680D02*
Y665760D01*
X60330Y689890D02*
X65410D01*
X62870Y687350D02*
Y692430D01*
X60330Y716560D02*
X65410D01*
X62870Y714020D02*
Y719100D01*
X60330Y743230D02*
X65410D01*
X62870Y740690D02*
Y745770D01*
X60330Y129820D02*
X65410D01*
X62870Y127280D02*
Y132360D01*
X60330Y156490D02*
X65410D01*
X62870Y153950D02*
Y159030D01*
X60330Y183160D02*
X65410D01*
X62870Y180620D02*
Y185700D01*
X60330Y209830D02*
X65410D01*
X62870Y207290D02*
Y212370D01*
X60330Y236500D02*
X65410D01*
X62870Y233960D02*
Y239040D01*
X60330Y263170D02*
X65410D01*
X62870Y260630D02*
Y265710D01*
X60330Y289840D02*
X65410D01*
X62870Y287300D02*
Y292380D01*
X60330Y316510D02*
X65410D01*
X62870Y313970D02*
Y319050D01*
X60330Y343180D02*
X65410D01*
X62870Y340640D02*
Y345720D01*
X60330Y369850D02*
X65410D01*
X62870Y367310D02*
Y372390D01*
X60330Y396520D02*
X65410D01*
X62870Y393980D02*
Y399060D01*
X60330Y423190D02*
X65410D01*
X62870Y420650D02*
Y425730D01*
X446410Y63780D02*
X451490D01*
X448950Y61240D02*
Y66320D01*
X473080Y63780D02*
X478160D01*
X475620Y61240D02*
Y66320D01*
X499750Y63780D02*
X504830D01*
X502290Y61240D02*
Y66320D01*
X526420Y63780D02*
X531500D01*
X528960Y61240D02*
Y66320D01*
X553090Y63780D02*
X558170D01*
X555630Y61240D02*
Y66320D01*
X579760Y63780D02*
X584840D01*
X582300Y61240D02*
Y66320D01*
X606430Y63780D02*
X611510D01*
X608970Y61240D02*
Y66320D01*
X633100Y63780D02*
X638180D01*
X635640Y61240D02*
Y66320D01*
X659770Y63780D02*
X664850D01*
X662310Y61240D02*
Y66320D01*
X686440Y63780D02*
X691520D01*
X688980Y61240D02*
Y66320D01*
X713110Y63780D02*
X718190D01*
X715650Y61240D02*
Y66320D01*
X739780Y63780D02*
X744860D01*
X742320Y61240D02*
Y66320D01*
X126370Y63780D02*
X131450D01*
X128910Y61240D02*
Y66320D01*
X153040Y63780D02*
X158120D01*
X155580Y61240D02*
Y66320D01*
X179710Y63780D02*
X184790D01*
X182250Y61240D02*
Y66320D01*
X206380Y63780D02*
X211460D01*
X208920Y61240D02*
Y66320D01*
X233050Y63780D02*
X238130D01*
X235590Y61240D02*
Y66320D01*
X259720Y63780D02*
X264800D01*
X262260Y61240D02*
Y66320D01*
X286390Y63780D02*
X291470D01*
X288930Y61240D02*
Y66320D01*
X313060Y63780D02*
X318140D01*
X315600Y61240D02*
Y66320D01*
X339730Y63780D02*
X344810D01*
X342270Y61240D02*
Y66320D01*
X366400Y63780D02*
X371480D01*
X368940Y61240D02*
Y66320D01*
X393070Y63780D02*
X398150D01*
X395610Y61240D02*
Y66320D01*
X419740Y63780D02*
X424820D01*
X422280Y61240D02*
Y66320D01*
X1925960Y63780D02*
X1931040D01*
X1928500Y61240D02*
Y66320D01*
X2246000Y63780D02*
X2251080D01*
X2248540Y61240D02*
Y66320D01*
X2219330Y63780D02*
X2224410D01*
X2221870Y61240D02*
Y66320D01*
X2192660Y63780D02*
X2197740D01*
X2195200Y61240D02*
Y66320D01*
X2165990Y63780D02*
X2171070D01*
X2168530Y61240D02*
Y66320D01*
X2139320Y63780D02*
X2144400D01*
X2141860Y61240D02*
Y66320D01*
X2112650Y63780D02*
X2117730D01*
X2115190Y61240D02*
Y66320D01*
X2085980Y63780D02*
X2091060D01*
X2088520Y61240D02*
Y66320D01*
X2059310Y63780D02*
X2064390D01*
X2061850Y61240D02*
Y66320D01*
X2032640Y63780D02*
X2037720D01*
X2035180Y61240D02*
Y66320D01*
X2005970Y63780D02*
X2011050D01*
X2008510Y61240D02*
Y66320D01*
X1979300Y63780D02*
X1984380D01*
X1981840Y61240D02*
Y66320D01*
X1952630Y63780D02*
X1957710D01*
X1955170Y61240D02*
Y66320D01*
X2566040Y63780D02*
X2571120D01*
X2568580Y61240D02*
Y66320D01*
X2539370Y63780D02*
X2544450D01*
X2541910Y61240D02*
Y66320D01*
X2512700Y63780D02*
X2517780D01*
X2515240Y61240D02*
Y66320D01*
X2486030Y63780D02*
X2491110D01*
X2488570Y61240D02*
Y66320D01*
X2459360Y63780D02*
X2464440D01*
X2461900Y61240D02*
Y66320D01*
X2432690Y63780D02*
X2437770D01*
X2435230Y61240D02*
Y66320D01*
X2406020Y63780D02*
X2411100D01*
X2408560Y61240D02*
Y66320D01*
X2379350Y63780D02*
X2384430D01*
X2381890Y61240D02*
Y66320D01*
X2352680Y63780D02*
X2357760D01*
X2355220Y61240D02*
Y66320D01*
X2326010Y63780D02*
X2331090D01*
X2328550Y61240D02*
Y66320D01*
X2299340Y63780D02*
X2304420D01*
X2301880Y61240D02*
Y66320D01*
X2272670Y63780D02*
X2277750D01*
X2275210Y61240D02*
Y66320D01*
X2592710Y63780D02*
X2597790D01*
X2595250Y61240D02*
Y66320D01*
X2619380Y63780D02*
X2624460D01*
X2621920Y61240D02*
Y66320D01*
X2646050Y63780D02*
X2651130D01*
X2648590Y61240D02*
Y66320D01*
X2672720Y63780D02*
X2677800D01*
X2675260Y61240D02*
Y66320D01*
X2699390Y63780D02*
X2704470D01*
X2701930Y61240D02*
Y66320D01*
X2726060Y63780D02*
X2731140D01*
X2728600Y61240D02*
Y66320D01*
X2752730Y63780D02*
X2757810D01*
X2755270Y61240D02*
Y66320D01*
X2779400Y63780D02*
X2784480D01*
X2781940Y61240D02*
Y66320D01*
X2806070Y63780D02*
X2811150D01*
X2808610Y61240D02*
Y66320D01*
X2832740Y63780D02*
X2837820D01*
X2835280Y61240D02*
Y66320D01*
X2859410Y63780D02*
X2864490D01*
X2861950Y61240D02*
Y66320D01*
X2886080Y63780D02*
X2891160D01*
X2888620Y61240D02*
Y66320D01*
X2912750Y63780D02*
X2917830D01*
X2915290Y61240D02*
Y66320D01*
X2953136Y938290D02*
X2956184D01*
X2954660Y936766D02*
Y939814D01*
X312806Y241580D02*
X315854D01*
X314330Y240056D02*
Y243104D01*
X2893446Y1128040D02*
X2896494D01*
X2894970Y1126516D02*
Y1129564D01*
X2819786Y999770D02*
X2822834D01*
X2821310Y998246D02*
Y1001294D01*
X138816Y1007390D02*
X141864D01*
X140340Y1005866D02*
Y1008914D01*
X2535035Y502260D02*
X2538083D01*
X2536559Y500736D02*
Y503784D01*
X2549276Y534950D02*
X2552324D01*
X2550800Y533426D02*
Y536474D01*
X2555626Y528854D02*
X2558674D01*
X2557150Y527330D02*
Y530378D01*
X2040636Y1055370D02*
X2043684D01*
X2042160Y1053846D02*
Y1056894D01*
X2048256Y1049020D02*
X2051304D01*
X2049780Y1047496D02*
Y1050544D01*
X2319406Y192050D02*
X2322454D01*
X2320930Y190526D02*
Y193574D01*
X2422276Y192050D02*
X2425324D01*
X2423800Y190526D02*
Y193574D01*
X2489586Y192050D02*
X2492634D01*
X2491110Y190526D02*
Y193574D01*
X2840022Y866697D02*
X2843070D01*
X2841546Y865173D02*
Y868221D01*
X2887694Y898290D02*
X2890742D01*
X2889218Y896766D02*
Y899814D01*
X2784226Y1120420D02*
X2787274D01*
X2785750Y1118896D02*
Y1121944D01*
X2695976Y1120200D02*
X2699024D01*
X2697500Y1118676D02*
Y1121724D01*
X2212226Y1120200D02*
X2215274D01*
X2213750Y1118676D02*
Y1121724D01*
X2023496Y1120420D02*
X2026544D01*
X2025020Y1118896D02*
Y1121944D01*
X1912226Y1120200D02*
X1915274D01*
X1913750Y1118676D02*
Y1121724D01*
X1641226Y79020D02*
X1644274D01*
X1642750Y77496D02*
Y80544D01*
X1792356Y195860D02*
X1795404D01*
X1793880Y194336D02*
Y197384D01*
X1779656Y195860D02*
X1782704D01*
X1781180Y194336D02*
Y197384D01*
X1766956Y195860D02*
X1770004D01*
X1768480Y194336D02*
Y197384D01*
X1754256Y195860D02*
X1757304D01*
X1755780Y194336D02*
Y197384D01*
X1741556Y195860D02*
X1744604D01*
X1743080Y194336D02*
Y197384D01*
X1502161Y193320D02*
X1505209D01*
X1503685Y191796D02*
Y194844D01*
X1608136Y221260D02*
X1611183D01*
X1609659Y219736D02*
Y222784D01*
X1580186Y172746D02*
X1583234D01*
X1581710Y171222D02*
Y174270D01*
X1659073Y221260D02*
X1662121D01*
X1660597Y219736D02*
Y222784D01*
X1502161Y221260D02*
X1505209D01*
X1503685Y219736D02*
Y222784D01*
X2688976Y833400D02*
X2692024D01*
X2690500Y831876D02*
Y834924D01*
X2542926Y515900D02*
X2545974D01*
X2544450Y514376D02*
Y517424D01*
X2766446Y797840D02*
X2769494D01*
X2767970Y796316D02*
Y799364D01*
X2790576Y866420D02*
X2793624D01*
X2792100Y864896D02*
Y867944D01*
X213746Y981990D02*
X216794D01*
X215270Y980466D02*
Y983514D01*
X2784226Y983260D02*
X2787274D01*
X2785750Y981736D02*
Y984784D01*
X2498476Y983260D02*
X2501524D01*
X2500000Y981736D02*
Y984784D01*
X2309246Y983260D02*
X2312294D01*
X2310770Y981736D02*
Y984784D01*
X2118746Y983260D02*
X2121794D01*
X2120270Y981736D02*
Y984784D01*
X1926976Y983260D02*
X1930024D01*
X1928500Y981736D02*
Y984784D01*
X1736476Y983260D02*
X1739524D01*
X1738000Y981736D02*
Y984784D01*
X1547246Y983260D02*
X1550294D01*
X1548770Y981736D02*
Y984784D01*
X1355476Y983260D02*
X1358524D01*
X1357000Y981736D02*
Y984784D01*
X1164976Y983260D02*
X1168024D01*
X1166500Y981736D02*
Y984784D01*
X975746Y983260D02*
X978794D01*
X977270Y981736D02*
Y984784D01*
X783976Y983260D02*
X787024D01*
X785500Y981736D02*
Y984784D01*
X594746Y983260D02*
X597794D01*
X596270Y981736D02*
Y984784D01*
X404246Y983260D02*
X407294D01*
X405770Y981736D02*
Y984784D01*
X771906Y1056640D02*
X774954D01*
X773430Y1055116D02*
Y1058164D01*
X876046Y1049020D02*
X879094D01*
X877570Y1047496D02*
Y1050544D01*
X869696Y1055370D02*
X872744D01*
X871220Y1053846D02*
Y1056894D01*
X2137156Y1055370D02*
X2140204D01*
X2138680Y1053846D02*
Y1056894D01*
X2819786Y1102640D02*
X2822834D01*
X2821310Y1101116D02*
Y1104164D01*
X1634876Y1102640D02*
X1637924D01*
X1636400Y1101116D02*
Y1104164D01*
X1350396Y221260D02*
X1353444D01*
X1351920Y219736D02*
Y222784D01*
X1430406Y236475D02*
X1433454D01*
X1431930Y234951D02*
Y237999D01*
X602366Y227610D02*
X605414D01*
X603890Y226086D02*
Y229134D01*
X2825916Y1120200D02*
X2828964D01*
X2827440Y1118676D02*
Y1121724D01*
X109606Y1112800D02*
X112654D01*
X111130Y1111276D02*
Y1114324D01*
X1232286Y1102640D02*
X1235334D01*
X1233810Y1101116D02*
Y1104164D01*
X1284356Y1102640D02*
X1287404D01*
X1285880Y1101116D02*
Y1104164D01*
X1684406Y1102640D02*
X1687454D01*
X1685930Y1101116D02*
Y1104164D01*
X1276736Y1112800D02*
X1279784D01*
X1278260Y1111276D02*
Y1114324D01*
X1197624Y1127450D02*
X1200672D01*
X1199148Y1125926D02*
Y1128974D01*
X1709806Y1112800D02*
X1712854D01*
X1711330Y1111276D02*
Y1114324D01*
X1655042Y1127450D02*
X1658090D01*
X1656566Y1125926D02*
Y1128974D01*
X1909196Y145060D02*
X1912244D01*
X1910720Y143536D02*
Y146584D01*
X1901576Y157760D02*
X1904624D01*
X1903100Y156236D02*
Y159284D01*
X1893956Y170460D02*
X1897004D01*
X1895480Y168936D02*
Y171984D01*
X1523116Y79020D02*
X1526164D01*
X1524640Y77496D02*
Y80544D01*
X714126Y233960D02*
X717174D01*
X715650Y232436D02*
Y235484D01*
X2540386Y289840D02*
X2543434D01*
X2541910Y288316D02*
Y291364D01*
X2688976Y628930D02*
X2692024D01*
X2690500Y627406D02*
Y630454D01*
X385716Y409930D02*
X388764D01*
X387240Y408406D02*
Y411454D01*
X390796Y416430D02*
X393844D01*
X392320Y414906D02*
Y417954D01*
X390796Y403430D02*
X393844D01*
X392320Y401906D02*
Y404954D01*
X385716Y396930D02*
X388764D01*
X387240Y395406D02*
Y398454D01*
X385716Y355320D02*
X388764D01*
X387240Y353796D02*
Y356844D01*
X235336Y236500D02*
X238384D01*
X236860Y234976D02*
Y238024D01*
X2041276Y221260D02*
X2044324D01*
X2042800Y219736D02*
Y222784D01*
X2230506Y221260D02*
X2233554D01*
X2232030Y219736D02*
Y222784D01*
X2295276Y230150D02*
X2298324D01*
X2296800Y228626D02*
Y231674D01*
X2421006Y221260D02*
X2424054D01*
X2422530Y219736D02*
Y222784D01*
X2485776Y230150D02*
X2488824D01*
X2487300Y228626D02*
Y231674D01*
X2611506Y221260D02*
X2614554D01*
X2613030Y219736D02*
Y222784D01*
X2676276Y230150D02*
X2679324D01*
X2677800Y228626D02*
Y231674D01*
X2802006Y221260D02*
X2805054D01*
X2803530Y219736D02*
Y222784D01*
X516006Y411760D02*
X519054D01*
X517530Y410236D02*
Y413284D01*
X592206Y427000D02*
X595254D01*
X593730Y425476D02*
Y428524D01*
X706506Y411760D02*
X709554D01*
X708030Y410236D02*
Y413284D01*
X782706Y427000D02*
X785754D01*
X784230Y425476D02*
Y428524D01*
X898276Y411760D02*
X901324D01*
X899800Y410236D02*
Y413284D01*
X974476Y427000D02*
X977524D01*
X976000Y425476D02*
Y428524D01*
X1088776Y411760D02*
X1091824D01*
X1090300Y410236D02*
Y413284D01*
X1164976Y427000D02*
X1168024D01*
X1166500Y425476D02*
Y428524D01*
X1279276Y411760D02*
X1282324D01*
X1280800Y410236D02*
Y413284D01*
X1355476Y427000D02*
X1358524D01*
X1357000Y425476D02*
Y428524D01*
X1468506Y411760D02*
X1471554D01*
X1470030Y410236D02*
Y413284D01*
X1544706Y427000D02*
X1547754D01*
X1546230Y425476D02*
Y428524D01*
X1659006Y411760D02*
X1662054D01*
X1660530Y410236D02*
Y413284D01*
X1735206Y427000D02*
X1738254D01*
X1736730Y425476D02*
Y428524D01*
X1850776Y411760D02*
X1853824D01*
X1852300Y410236D02*
Y413284D01*
X1926976Y427000D02*
X1930024D01*
X1928500Y425476D02*
Y428524D01*
X2041276Y411760D02*
X2044324D01*
X2042800Y410236D02*
Y413284D01*
X2117476Y427000D02*
X2120524D01*
X2119000Y425476D02*
Y428524D01*
X2230506Y411760D02*
X2233554D01*
X2232030Y410236D02*
Y413284D01*
X2306706Y427000D02*
X2309754D01*
X2308230Y425476D02*
Y428524D01*
X2421006Y411760D02*
X2424054D01*
X2422530Y410236D02*
Y413284D01*
X2497206Y427000D02*
X2500254D01*
X2498730Y425476D02*
Y428524D01*
X2611506Y411760D02*
X2614554D01*
X2613030Y410236D02*
Y413284D01*
X2687706Y427000D02*
X2690754D01*
X2689230Y425476D02*
Y428524D01*
X2803276Y411760D02*
X2806324D01*
X2804800Y410236D02*
Y413284D01*
X207396Y602260D02*
X210444D01*
X208920Y600736D02*
Y603784D01*
X283596Y617500D02*
X286644D01*
X285120Y615976D02*
Y619024D01*
X480446Y593370D02*
X483494D01*
X481970Y591846D02*
Y594894D01*
X545216Y617500D02*
X548264D01*
X546740Y615976D02*
Y619024D01*
X659516Y602260D02*
X662564D01*
X661040Y600736D02*
Y603784D01*
X735716Y617500D02*
X738764D01*
X737240Y615976D02*
Y619024D01*
X850016Y602260D02*
X853064D01*
X851540Y600736D02*
Y603784D01*
X926216Y617500D02*
X929264D01*
X927740Y615976D02*
Y619024D01*
X1040516Y602260D02*
X1043564D01*
X1042040Y600736D02*
Y603784D01*
X1116716Y617500D02*
X1119764D01*
X1118240Y615976D02*
Y619024D01*
X1231016Y602260D02*
X1234064D01*
X1232540Y600736D02*
Y603784D01*
X1307216Y617500D02*
X1310264D01*
X1308740Y615976D02*
Y619024D01*
X1421516Y602260D02*
X1424564D01*
X1423040Y600736D02*
Y603784D01*
X1497716Y617500D02*
X1500764D01*
X1499240Y615976D02*
Y619024D01*
X1612016Y602260D02*
X1615064D01*
X1613540Y600736D02*
Y603784D01*
X1688216Y617500D02*
X1691264D01*
X1689740Y615976D02*
Y619024D01*
X1802516Y602260D02*
X1805564D01*
X1804040Y600736D02*
Y603784D01*
X1878716Y617500D02*
X1881764D01*
X1880240Y615976D02*
Y619024D01*
X1993016Y602260D02*
X1996064D01*
X1994540Y600736D02*
Y603784D01*
X2069216Y617500D02*
X2072264D01*
X2070740Y615976D02*
Y619024D01*
X2183516Y602260D02*
X2186564D01*
X2185040Y600736D02*
Y603784D01*
X2259716Y617500D02*
X2262764D01*
X2261240Y615976D02*
Y619024D01*
X2374016Y602260D02*
X2377064D01*
X2375540Y600736D02*
Y603784D01*
X2450216Y617500D02*
X2453264D01*
X2451740Y615976D02*
Y619024D01*
X2682626Y602260D02*
X2685674D01*
X2684150Y600736D02*
Y603784D01*
X420756Y791490D02*
X423804D01*
X422280Y789966D02*
Y793014D01*
X496956Y808000D02*
X500004D01*
X498480Y806476D02*
Y809524D01*
X611256Y792760D02*
X614304D01*
X612780Y791236D02*
Y794284D01*
X687456Y808000D02*
X690504D01*
X688980Y806476D02*
Y809524D01*
X801756Y792760D02*
X804804D01*
X803280Y791236D02*
Y794284D01*
X877956Y808000D02*
X881004D01*
X879480Y806476D02*
Y809524D01*
X992256Y792760D02*
X995304D01*
X993780Y791236D02*
Y794284D01*
X1184026Y792760D02*
X1187074D01*
X1185550Y791236D02*
Y794284D01*
X1068456Y808000D02*
X1071504D01*
X1069980Y806476D02*
Y809524D01*
X1260226Y808000D02*
X1263274D01*
X1261750Y806476D02*
Y809524D01*
X1373256Y792760D02*
X1376304D01*
X1374780Y791236D02*
Y794284D01*
X1449456Y808000D02*
X1452504D01*
X1450980Y806476D02*
Y809524D01*
X1565026Y792760D02*
X1568074D01*
X1566550Y791236D02*
Y794284D01*
X1641226Y808000D02*
X1644274D01*
X1642750Y806476D02*
Y809524D01*
X1754256Y792760D02*
X1757304D01*
X1755780Y791236D02*
Y794284D01*
X1830456Y808000D02*
X1833504D01*
X1831980Y806476D02*
Y809524D01*
X1944756Y792760D02*
X1947804D01*
X1946280Y791236D02*
Y794284D01*
X2020956Y808000D02*
X2024004D01*
X2022480Y806476D02*
Y809524D01*
X2135256Y792760D02*
X2138304D01*
X2136780Y791236D02*
Y794284D01*
X2211456Y808000D02*
X2214504D01*
X2212980Y806476D02*
Y809524D01*
X2325756Y792760D02*
X2328804D01*
X2327280Y791236D02*
Y794284D01*
X2401956Y808000D02*
X2405004D01*
X2403480Y806476D02*
Y809524D01*
X2516256Y792760D02*
X2519304D01*
X2517780Y791236D02*
Y794284D01*
X2592456Y808000D02*
X2595504D01*
X2593980Y806476D02*
Y809524D01*
X212476Y998500D02*
X215524D01*
X214000Y996976D02*
Y1000024D01*
X326776Y983260D02*
X329824D01*
X328300Y981736D02*
Y984784D01*
X402976Y998500D02*
X406024D01*
X404500Y996976D02*
Y1000024D01*
X517276Y983260D02*
X520324D01*
X518800Y981736D02*
Y984784D01*
X593476Y998500D02*
X596524D01*
X595000Y996976D02*
Y1000024D01*
X706506Y983260D02*
X709554D01*
X708030Y981736D02*
Y984784D01*
X782706Y998500D02*
X785754D01*
X784230Y996976D02*
Y1000024D01*
X898276Y983260D02*
X901324D01*
X899800Y981736D02*
Y984784D01*
X974476Y998500D02*
X977524D01*
X976000Y996976D02*
Y1000024D01*
X1087506Y983260D02*
X1090554D01*
X1089030Y981736D02*
Y984784D01*
X1163706Y998500D02*
X1166754D01*
X1165230Y996976D02*
Y1000024D01*
X1278006Y983260D02*
X1281054D01*
X1279530Y981736D02*
Y984784D01*
X1354206Y998500D02*
X1357254D01*
X1355730Y996976D02*
Y1000024D01*
X1469776Y983260D02*
X1472824D01*
X1471300Y981736D02*
Y984784D01*
X1545976Y998500D02*
X1549024D01*
X1547500Y996976D02*
Y1000024D01*
X1659006Y983260D02*
X1662054D01*
X1660530Y981736D02*
Y984784D01*
X1735206Y998500D02*
X1738254D01*
X1736730Y996976D02*
Y1000024D01*
X1849506Y983260D02*
X1852554D01*
X1851030Y981736D02*
Y984784D01*
X1925706Y998500D02*
X1928754D01*
X1927230Y996976D02*
Y1000024D01*
X2041276Y983260D02*
X2044324D01*
X2042800Y981736D02*
Y984784D01*
X2231776Y983260D02*
X2234824D01*
X2233300Y981736D02*
Y984784D01*
X2307976Y998500D02*
X2311024D01*
X2309500Y996976D02*
Y1000024D01*
X2421006Y983260D02*
X2424054D01*
X2422530Y981736D02*
Y984784D01*
X2497206Y998500D02*
X2500254D01*
X2498730Y996976D02*
Y1000024D01*
X2706756Y983260D02*
X2709804D01*
X2708280Y981736D02*
Y984784D01*
X223906Y213640D02*
X226954D01*
X225430Y212116D02*
Y215164D01*
X295026Y402870D02*
X298074D01*
X296550Y401346D02*
Y404394D01*
X272166Y593370D02*
X275214D01*
X273690Y591846D02*
Y594894D01*
X2819786Y783870D02*
X2822834D01*
X2821310Y782346D02*
Y785394D01*
X580776Y402870D02*
X583824D01*
X582300Y401346D02*
Y404394D01*
X771276Y402870D02*
X774324D01*
X772800Y401346D02*
Y404394D01*
X963046Y402870D02*
X966094D01*
X964570Y401346D02*
Y404394D01*
X1153546Y402870D02*
X1156594D01*
X1155070Y401346D02*
Y404394D01*
X1344046Y402870D02*
X1347094D01*
X1345570Y401346D02*
Y404394D01*
X1533276Y402870D02*
X1536324D01*
X1534800Y401346D02*
Y404394D01*
X1723776Y402870D02*
X1726824D01*
X1725300Y401346D02*
Y404394D01*
X1915546Y402870D02*
X1918594D01*
X1917070Y401346D02*
Y404394D01*
X2106046Y402870D02*
X2109094D01*
X2107570Y401346D02*
Y404394D01*
X2295276Y402870D02*
X2298324D01*
X2296800Y401346D02*
Y404394D01*
X2485776Y402870D02*
X2488824D01*
X2487300Y401346D02*
Y404394D01*
X2676276Y402870D02*
X2679324D01*
X2677800Y401346D02*
Y404394D01*
X533786Y593370D02*
X536834D01*
X535310Y591846D02*
Y594894D01*
X724286Y593370D02*
X727334D01*
X725810Y591846D02*
Y594894D01*
X914786Y593370D02*
X917834D01*
X916310Y591846D02*
Y594894D01*
X1105286Y593370D02*
X1108334D01*
X1106810Y591846D02*
Y594894D01*
X1295786Y593370D02*
X1298834D01*
X1297310Y591846D02*
Y594894D01*
X1486286Y593370D02*
X1489334D01*
X1487810Y591846D02*
Y594894D01*
X1676786Y593370D02*
X1679834D01*
X1678310Y591846D02*
Y594894D01*
X1867286Y593370D02*
X1870334D01*
X1868810Y591846D02*
Y594894D01*
X2057786Y593370D02*
X2060834D01*
X2059310Y591846D02*
Y594894D01*
X2248286Y593370D02*
X2251334D01*
X2249810Y591846D02*
Y594894D01*
X2438786Y593370D02*
X2441834D01*
X2440310Y591846D02*
Y594894D01*
X2747226Y593200D02*
X2750274D01*
X2748750Y591676D02*
Y594724D01*
X485526Y783870D02*
X488574D01*
X487050Y782346D02*
Y785394D01*
X866356Y783700D02*
X869404D01*
X867880Y782176D02*
Y785224D01*
X1057026Y783870D02*
X1060074D01*
X1058550Y782346D02*
Y785394D01*
X1248796Y783870D02*
X1251844D01*
X1250320Y782346D02*
Y785394D01*
X1438026Y783870D02*
X1441074D01*
X1439550Y782346D02*
Y785394D01*
X1629796Y783870D02*
X1632844D01*
X1631320Y782346D02*
Y785394D01*
X1819026Y783870D02*
X1822074D01*
X1820550Y782346D02*
Y785394D01*
X2009526Y783870D02*
X2012574D01*
X2011050Y782346D02*
Y785394D01*
X2200026Y783870D02*
X2203074D01*
X2201550Y782346D02*
Y785394D01*
X2390526Y783870D02*
X2393574D01*
X2392050Y782346D02*
Y785394D01*
X2581026Y783870D02*
X2584074D01*
X2582550Y782346D02*
Y785394D01*
X376306Y726359D02*
X379354D01*
X377830Y724835D02*
Y727883D01*
X356816Y789960D02*
X359864D01*
X358340Y788436D02*
Y791484D01*
X356816Y845840D02*
X359864D01*
X358340Y844316D02*
Y847364D01*
X445716Y368320D02*
X448764D01*
X447240Y366796D02*
Y369844D01*
X445716Y312440D02*
X448764D01*
X447240Y310916D02*
Y313964D01*
X413966Y502940D02*
X417014D01*
X415490Y501416D02*
Y504464D01*
X413966Y558820D02*
X417014D01*
X415490Y557296D02*
Y560344D01*
X413966Y614700D02*
X417014D01*
X415490Y613176D02*
Y616224D01*
X445716Y422930D02*
X448764D01*
X447240Y421406D02*
Y424454D01*
X359046Y552320D02*
X362094D01*
X360570Y550796D02*
Y553844D01*
X450796Y416430D02*
X453844D01*
X452320Y414906D02*
Y417954D01*
X450796Y403430D02*
X453844D01*
X452320Y401906D02*
Y404954D01*
X354028Y545868D02*
X357076D01*
X355552Y544344D02*
Y547392D01*
X450796Y292940D02*
X453844D01*
X452320Y291416D02*
Y294464D01*
X353966Y588700D02*
X357014D01*
X355490Y587176D02*
Y590224D01*
X361896Y770460D02*
X364944D01*
X363420Y768936D02*
Y771984D01*
X424126Y545820D02*
X427174D01*
X425650Y544296D02*
Y547344D01*
X390796Y305940D02*
X393844D01*
X392320Y304416D02*
Y307464D01*
X359046Y595200D02*
X362094D01*
X360570Y593676D02*
Y596724D01*
X455876Y299440D02*
X458924D01*
X457400Y297916D02*
Y300964D01*
X366976Y763960D02*
X370024D01*
X368500Y762436D02*
Y765484D01*
X424126Y588700D02*
X427174D01*
X425650Y587176D02*
Y590224D01*
X353966Y532820D02*
X357014D01*
X355490Y531296D02*
Y534344D01*
X450796Y361820D02*
X453844D01*
X452320Y360296D02*
Y363344D01*
X455876Y355320D02*
X458924D01*
X457400Y353796D02*
Y356844D01*
X390796Y348820D02*
X393844D01*
X392320Y347296D02*
Y350344D01*
X353966Y489940D02*
X357014D01*
X355490Y488416D02*
Y491464D01*
X390796Y292940D02*
X393844D01*
X392320Y291416D02*
Y294464D01*
X385716Y286440D02*
X388764D01*
X387240Y284916D02*
Y287964D01*
X385716Y299440D02*
X388764D01*
X387240Y297916D02*
Y300964D01*
X419046Y483440D02*
X422094D01*
X420570Y481916D02*
Y484964D01*
X359046Y539320D02*
X362094D01*
X360570Y537796D02*
Y540844D01*
X424126Y489940D02*
X427174D01*
X425650Y488416D02*
Y491464D01*
X419046Y496440D02*
X422094D01*
X420570Y494916D02*
Y497964D01*
X424126Y532820D02*
X427174D01*
X425650Y531296D02*
Y534344D01*
X301896Y839340D02*
X304944D01*
X303420Y837816D02*
Y840864D01*
X419046Y539320D02*
X422094D01*
X420570Y537796D02*
Y540844D01*
X390796Y361820D02*
X393844D01*
X392320Y360296D02*
Y363344D01*
X455876Y286440D02*
X458924D01*
X457400Y284916D02*
Y287964D01*
X455876Y409930D02*
X458924D01*
X457400Y408406D02*
Y411454D01*
X359046Y496440D02*
X362094D01*
X360570Y494916D02*
Y497964D01*
X455876Y396930D02*
X458924D01*
X457400Y395406D02*
Y398454D01*
X366976Y776960D02*
X370024D01*
X368500Y775436D02*
Y778484D01*
X424126Y601700D02*
X427174D01*
X425650Y600176D02*
Y603224D01*
X419046Y608200D02*
X422094D01*
X420570Y606676D02*
Y609724D01*
X419046Y595200D02*
X422094D01*
X420570Y593676D02*
Y596724D01*
X361896Y783460D02*
X364944D01*
X363420Y781936D02*
Y784984D01*
X359046Y483440D02*
X362094D01*
X360570Y481916D02*
Y484964D01*
X450796Y305940D02*
X453844D01*
X452320Y304416D02*
Y307464D01*
X455876Y342320D02*
X458924D01*
X457400Y340796D02*
Y343844D01*
X450796Y348820D02*
X453844D01*
X452320Y347296D02*
Y350344D01*
X353966Y476940D02*
X357014D01*
X355490Y475416D02*
Y478464D01*
X356816Y832840D02*
X359864D01*
X358340Y831316D02*
Y834364D01*
X296816Y763960D02*
X299864D01*
X298340Y762436D02*
Y765484D01*
X301896Y770460D02*
X304944D01*
X303420Y768936D02*
Y771984D01*
X296816Y776960D02*
X299864D01*
X298340Y775436D02*
Y778484D01*
X301896Y783460D02*
X304944D01*
X303420Y781936D02*
Y784984D01*
X296816Y819840D02*
X299864D01*
X298340Y818316D02*
Y821364D01*
X301896Y826340D02*
X304944D01*
X303420Y824816D02*
Y827864D01*
X296816Y832840D02*
X299864D01*
X298340Y831316D02*
Y834364D01*
X361896Y826340D02*
X364944D01*
X363420Y824816D02*
Y827864D01*
X294856Y426540D02*
X297904D01*
X296380Y425016D02*
Y428064D01*
X292232Y604800D02*
X295280D01*
X293756Y603276D02*
Y606324D01*
X433308Y583358D02*
X436356D01*
X434832Y581834D02*
Y584882D01*
X477906Y584480D02*
X480954D01*
X479430Y582956D02*
Y586004D01*
X462666Y584480D02*
X465714D01*
X464190Y582956D02*
Y586004D01*
X386466Y872770D02*
X389514D01*
X387990Y871246D02*
Y874294D01*
X126116Y776250D02*
X129164D01*
X127640Y774726D02*
Y777774D01*
X275976Y259360D02*
X279024D01*
X277500Y257836D02*
Y260884D01*
X698926Y1022630D02*
X701974D01*
X700450Y1021106D02*
Y1024154D01*
X2257216Y1022630D02*
X2260264D01*
X2258740Y1021106D02*
Y1024154D01*
X763656Y100610D02*
X766704D01*
X765180Y99086D02*
Y102134D01*
X297566Y100610D02*
X300614D01*
X299090Y99086D02*
Y102134D01*
X1504066Y100610D02*
X1507114D01*
X1505590Y99086D02*
Y102134D01*
X1959996Y100610D02*
X1963044D01*
X1961520Y99086D02*
Y102134D01*
X2711836Y100610D02*
X2714884D01*
X2713360Y99086D02*
Y102134D01*
X2916306Y437160D02*
X2919354D01*
X2917830Y435636D02*
Y438684D01*
X2916306Y903250D02*
X2919354D01*
X2917830Y901726D02*
Y904774D01*
X2716916Y1022630D02*
X2719964D01*
X2718440Y1021106D02*
Y1024154D01*
X1975236Y1022630D02*
X1978284D01*
X1976760Y1021106D02*
Y1024154D01*
X1371986Y1022630D02*
X1375034D01*
X1373510Y1021106D02*
Y1024154D01*
X1044326Y1022630D02*
X1047374D01*
X1045850Y1021106D02*
Y1024154D01*
X302646Y1022630D02*
X305694D01*
X304170Y1021106D02*
Y1024154D01*
X98176Y771170D02*
X101224D01*
X99700Y769646D02*
Y772694D01*
X98176Y305080D02*
X101224D01*
X99700Y303556D02*
Y306604D01*
X2121286Y236500D02*
X2124334D01*
X2122810Y234976D02*
Y238024D01*
X2310516Y236500D02*
X2313564D01*
X2312040Y234976D02*
Y238024D01*
X2501016Y236500D02*
X2504064D01*
X2502540Y234976D02*
Y238024D01*
X2691516Y236500D02*
X2694564D01*
X2693040Y234976D02*
Y238024D01*
X2882016Y236500D02*
X2885064D01*
X2883540Y234976D02*
Y238024D01*
X704260Y1030290D02*
X707308D01*
X705784Y1028766D02*
Y1031814D01*
X2262550Y1030290D02*
X2265598D01*
X2264074Y1028766D02*
Y1031814D01*
X768690Y93000D02*
X771738D01*
X770214Y91476D02*
Y94524D01*
X302600Y93000D02*
X305648D01*
X304124Y91476D02*
Y94524D01*
X1509100Y93000D02*
X1512148D01*
X1510624Y91476D02*
Y94524D01*
X1965030Y93000D02*
X1968078D01*
X1966554Y91476D02*
Y94524D01*
X2716870Y93000D02*
X2719918D01*
X2718394Y91476D02*
Y94524D01*
X2923926Y442237D02*
X2926974D01*
X2925450Y440713D02*
Y443761D01*
X2923926Y908327D02*
X2926974D01*
X2925450Y906803D02*
Y909851D01*
X2711836Y1030250D02*
X2714884D01*
X2713360Y1028726D02*
Y1031774D01*
X1970156Y1030250D02*
X1973204D01*
X1971680Y1028726D02*
Y1031774D01*
X1366906Y1030250D02*
X1369954D01*
X1368430Y1028726D02*
Y1031774D01*
X1039246Y1030250D02*
X1042294D01*
X1040770Y1028726D02*
Y1031774D01*
X297566Y1030250D02*
X300614D01*
X299090Y1028726D02*
Y1031774D01*
X90556Y766093D02*
X93604D01*
X92080Y764569D02*
Y767617D01*
X90556Y300003D02*
X93604D01*
X92080Y298479D02*
Y301527D01*
X708926Y1037870D02*
X711974D01*
X710450Y1036346D02*
Y1039394D01*
X2267216Y1037870D02*
X2270264D01*
X2268740Y1036346D02*
Y1039394D01*
X773816Y85370D02*
X776864D01*
X775340Y83846D02*
Y86894D01*
X307726Y85370D02*
X310774D01*
X309250Y83846D02*
Y86894D01*
X1514226Y85370D02*
X1517274D01*
X1515750Y83846D02*
Y86894D01*
X1970156Y85370D02*
X1973204D01*
X1971680Y83846D02*
Y86894D01*
X2721996Y85370D02*
X2725044D01*
X2723520Y83846D02*
Y86894D01*
X2931546Y447320D02*
X2934594D01*
X2933070Y445796D02*
Y448844D01*
X2931546Y913410D02*
X2934594D01*
X2933070Y911886D02*
Y914934D01*
X2706756Y1037870D02*
X2709804D01*
X2708280Y1036346D02*
Y1039394D01*
X1361826Y1037870D02*
X1364874D01*
X1363350Y1036346D02*
Y1039394D01*
X1034166Y1037870D02*
X1037214D01*
X1035690Y1036346D02*
Y1039394D01*
X292486Y1037870D02*
X295534D01*
X294010Y1036346D02*
Y1039394D01*
X82936Y761010D02*
X85984D01*
X84460Y759486D02*
Y762534D01*
X82936Y294920D02*
X85984D01*
X84460Y293396D02*
Y296444D01*
X512286Y439700D02*
X515335D01*
X513811Y438176D02*
Y441224D01*
X2752476Y439700D02*
X2755524D01*
X2754000Y438176D02*
Y441224D01*
X383926Y447320D02*
X386974D01*
X385450Y445796D02*
Y448844D01*
X395354Y444782D02*
X398402D01*
X396878Y443258D02*
Y446306D01*
X2485776Y439700D02*
X2488824D01*
X2487300Y438176D02*
Y441224D01*
X386466Y719100D02*
X389514D01*
X387990Y717576D02*
Y720624D01*
X2649606Y819430D02*
X2652654D01*
X2651130Y817906D02*
Y820954D01*
M02*
