G04*
G04 #@! TF.GenerationSoftware,Altium Limited,Altium Designer,22.10.1 (41)*
G04*
G04 Layer_Color=255*
%FSLAX44Y44*%
%MOMM*%
G71*
G04*
G04 #@! TF.SameCoordinates,43F64E9B-3785-48AA-9826-90990096846F*
G04*
G04*
G04 #@! TF.FilePolarity,Positive*
G04*
G01*
G75*
%ADD12R,1.5000X0.8000*%
%ADD13O,10.0000X1.2700*%
%ADD14O,12.0000X1.2700*%
%ADD15R,0.9000X1.6000*%
%ADD36C,0.6000*%
%ADD37C,1.5240*%
%ADD38C,2.1000*%
%ADD39C,3.4000*%
%ADD40C,2.6000*%
%ADD41C,3.6000*%
D12*
X1896859Y1112950D02*
D03*
X1930641D02*
D03*
Y1127450D02*
D03*
X1896859D02*
D03*
X2905511Y1127670D02*
D03*
Y1113170D02*
D03*
X2871729Y1127670D02*
D03*
Y1113170D02*
D03*
X2802641Y1127670D02*
D03*
Y1113170D02*
D03*
X2768859Y1127670D02*
D03*
Y1113170D02*
D03*
X2680641Y1127450D02*
D03*
Y1112950D02*
D03*
X2646859Y1127450D02*
D03*
Y1112950D02*
D03*
X2530641Y1127450D02*
D03*
Y1112950D02*
D03*
X2496859Y1127450D02*
D03*
Y1112950D02*
D03*
X2380641Y1127450D02*
D03*
Y1112950D02*
D03*
X2346859Y1127450D02*
D03*
Y1112950D02*
D03*
X696859Y1127450D02*
D03*
X730641D02*
D03*
Y1112950D02*
D03*
X696859D02*
D03*
X2196859D02*
D03*
X2230641D02*
D03*
Y1127450D02*
D03*
X2196859D02*
D03*
X546859D02*
D03*
X580641D02*
D03*
Y1112950D02*
D03*
X546859D02*
D03*
X246859Y1127450D02*
D03*
X280641D02*
D03*
Y1112950D02*
D03*
X246859D02*
D03*
X101939D02*
D03*
X135721D02*
D03*
Y1127450D02*
D03*
X101939D02*
D03*
X1146859D02*
D03*
X1180641D02*
D03*
Y1112950D02*
D03*
X1146859D02*
D03*
X996859Y1127450D02*
D03*
X1030641D02*
D03*
Y1112950D02*
D03*
X996859D02*
D03*
X396859Y1127450D02*
D03*
X430641D02*
D03*
Y1112950D02*
D03*
X396859D02*
D03*
X846859Y1127450D02*
D03*
X880641D02*
D03*
Y1112950D02*
D03*
X846859D02*
D03*
X1446859Y1127450D02*
D03*
X1480641D02*
D03*
Y1112950D02*
D03*
X1446859D02*
D03*
X2046859Y1127450D02*
D03*
X2080641D02*
D03*
Y1112950D02*
D03*
X2046859D02*
D03*
X1746859Y1127450D02*
D03*
X1780641D02*
D03*
Y1112950D02*
D03*
X1746859D02*
D03*
X1596859Y1127450D02*
D03*
X1630641D02*
D03*
Y1112950D02*
D03*
X1596859D02*
D03*
X1296859Y1127450D02*
D03*
X1330641D02*
D03*
Y1112950D02*
D03*
X1296859D02*
D03*
D13*
X1941720Y1067500D02*
D03*
X616440D02*
D03*
X175120D02*
D03*
X285450D02*
D03*
X395780D02*
D03*
X506110D02*
D03*
X726770D02*
D03*
X837100D02*
D03*
X947430D02*
D03*
X1057760D02*
D03*
X1168090D02*
D03*
X1278420D02*
D03*
X2602380D02*
D03*
X2492050D02*
D03*
X2381720D02*
D03*
X2271390D02*
D03*
X2161060D02*
D03*
X2050730D02*
D03*
X1830070D02*
D03*
X1719740D02*
D03*
X1609410D02*
D03*
X1499080D02*
D03*
X1388750D02*
D03*
D14*
X2837500D02*
D03*
D15*
X2819500Y1120200D02*
D03*
X2855500D02*
D03*
D36*
X1863090Y147320D02*
D03*
X1850390D02*
D03*
X1863090Y132080D02*
D03*
X1850390D02*
D03*
D37*
X1762760Y109220D02*
D03*
X1864360D02*
D03*
X1788160D02*
D03*
X1813560D02*
D03*
X1838960D02*
D03*
X1737360D02*
D03*
X1711960D02*
D03*
D38*
X297820Y556540D02*
D03*
X196220D02*
D03*
X226700Y937540D02*
D03*
X125100D02*
D03*
X2030100D02*
D03*
X2131700D02*
D03*
X417200D02*
D03*
X315600D02*
D03*
X506100D02*
D03*
X607700D02*
D03*
X796930D02*
D03*
X695330D02*
D03*
X887100D02*
D03*
X988700D02*
D03*
X1177930D02*
D03*
X1076330D02*
D03*
X1266830D02*
D03*
X1368430D02*
D03*
X1560200D02*
D03*
X1458600D02*
D03*
X1647830D02*
D03*
X1749430D02*
D03*
X1939930D02*
D03*
X1838330D02*
D03*
X2362840Y556540D02*
D03*
X2464440D02*
D03*
X1941200Y366040D02*
D03*
X1839600D02*
D03*
X2220200Y937540D02*
D03*
X2321800D02*
D03*
X2131300Y366040D02*
D03*
X2029700D02*
D03*
X2172340Y556540D02*
D03*
X2273940D02*
D03*
X2511430Y937540D02*
D03*
X2409830D02*
D03*
X2314580Y747040D02*
D03*
X2416180D02*
D03*
X2845440D02*
D03*
X2743840D02*
D03*
X2505080D02*
D03*
X2606680D02*
D03*
X559440Y556540D02*
D03*
X457840D02*
D03*
X2695580Y937540D02*
D03*
X2797180D02*
D03*
X1369300Y366040D02*
D03*
X1267700D02*
D03*
X988300D02*
D03*
X886700D02*
D03*
X2791700D02*
D03*
X2893300D02*
D03*
X2701930Y175540D02*
D03*
X2600330D02*
D03*
X838440Y556540D02*
D03*
X940040D02*
D03*
X2773050D02*
D03*
X2671450D02*
D03*
X790580Y747040D02*
D03*
X892180D02*
D03*
X1130940Y556540D02*
D03*
X1029340D02*
D03*
X2030100Y175540D02*
D03*
X2131700D02*
D03*
X1321040Y556540D02*
D03*
X1219440D02*
D03*
X1410340D02*
D03*
X1511940D02*
D03*
X1844680Y747040D02*
D03*
X1743080D02*
D03*
X1600840Y556540D02*
D03*
X1702440D02*
D03*
X1892940D02*
D03*
X1791340D02*
D03*
X624210Y175540D02*
D03*
X725810D02*
D03*
X249560D02*
D03*
X147960D02*
D03*
X2409830D02*
D03*
X2511430D02*
D03*
X320680Y366040D02*
D03*
X219080D02*
D03*
X1981840Y556540D02*
D03*
X2083440D02*
D03*
X2320930Y175540D02*
D03*
X2219330D02*
D03*
X1647830Y366040D02*
D03*
X1749430D02*
D03*
X1558930D02*
D03*
X1457330D02*
D03*
X1933580Y747040D02*
D03*
X2035180D02*
D03*
X2225680D02*
D03*
X2124080D02*
D03*
X409580D02*
D03*
X511180D02*
D03*
X2892030Y175540D02*
D03*
X2790430D02*
D03*
X2410230Y366040D02*
D03*
X2511830D02*
D03*
X1082680Y747040D02*
D03*
X981080D02*
D03*
X1339220Y175540D02*
D03*
X1440820D02*
D03*
X749940Y556540D02*
D03*
X648340D02*
D03*
X1172450Y747040D02*
D03*
X1274050D02*
D03*
X2701930Y366040D02*
D03*
X2600330D02*
D03*
X1553850Y747040D02*
D03*
X1655450D02*
D03*
X1179200Y366040D02*
D03*
X1077600D02*
D03*
X600080Y747040D02*
D03*
X701680D02*
D03*
X797330Y366040D02*
D03*
X695730D02*
D03*
X1362080Y747040D02*
D03*
X1463680D02*
D03*
X606430Y366040D02*
D03*
X504830D02*
D03*
X2219330D02*
D03*
X2320930D02*
D03*
X274960Y747040D02*
D03*
X173360D02*
D03*
X386720Y175540D02*
D03*
X488320D02*
D03*
D39*
X297820Y531140D02*
D03*
X221620Y505740D02*
D03*
X226700Y912140D02*
D03*
X150500Y886740D02*
D03*
X2055500D02*
D03*
X2131700Y912140D02*
D03*
X417200D02*
D03*
X341000Y886740D02*
D03*
X531500D02*
D03*
X607700Y912140D02*
D03*
X796930D02*
D03*
X720730Y886740D02*
D03*
X912500D02*
D03*
X988700Y912140D02*
D03*
X1177930D02*
D03*
X1101730Y886740D02*
D03*
X1292230D02*
D03*
X1368430Y912140D02*
D03*
X1560200D02*
D03*
X1484000Y886740D02*
D03*
X1673230D02*
D03*
X1749430Y912140D02*
D03*
X1939930D02*
D03*
X1863730Y886740D02*
D03*
X2388240Y505740D02*
D03*
X2464440Y531140D02*
D03*
X1941200Y340640D02*
D03*
X1865000Y315240D02*
D03*
X2245600Y886740D02*
D03*
X2321800Y912140D02*
D03*
X2131300Y340640D02*
D03*
X2055100Y315240D02*
D03*
X2197740Y505740D02*
D03*
X2273940Y531140D02*
D03*
X2511430Y912140D02*
D03*
X2435230Y886740D02*
D03*
X2339980Y696240D02*
D03*
X2416180Y721640D02*
D03*
X2845440D02*
D03*
X2769240Y696240D02*
D03*
X2530480D02*
D03*
X2606680Y721640D02*
D03*
X559440Y531140D02*
D03*
X483240Y505740D02*
D03*
X2720980Y886740D02*
D03*
X2797180Y912140D02*
D03*
X1369300Y340640D02*
D03*
X1293100Y315240D02*
D03*
X988300Y340640D02*
D03*
X912100Y315240D02*
D03*
X2817100D02*
D03*
X2893300Y340640D02*
D03*
X2701930Y150140D02*
D03*
X2625730Y124740D02*
D03*
X863840Y505740D02*
D03*
X940040Y531140D02*
D03*
X2773050D02*
D03*
X2696850Y505740D02*
D03*
X815980Y696240D02*
D03*
X892180Y721640D02*
D03*
X1130940Y531140D02*
D03*
X1054740Y505740D02*
D03*
X2055500Y124740D02*
D03*
X2131700Y150140D02*
D03*
X1321040Y531140D02*
D03*
X1244840Y505740D02*
D03*
X1435740D02*
D03*
X1511940Y531140D02*
D03*
X1844680Y721640D02*
D03*
X1768480Y696240D02*
D03*
X1626240Y505740D02*
D03*
X1702440Y531140D02*
D03*
X1892940D02*
D03*
X1816740Y505740D02*
D03*
X649610Y124740D02*
D03*
X725810Y150140D02*
D03*
X249560D02*
D03*
X173360Y124740D02*
D03*
X2435230D02*
D03*
X2511430Y150140D02*
D03*
X320680Y340640D02*
D03*
X244480Y315240D02*
D03*
X2007240Y505740D02*
D03*
X2083440Y531140D02*
D03*
X2320930Y150140D02*
D03*
X2244730Y124740D02*
D03*
X1673230Y315240D02*
D03*
X1749430Y340640D02*
D03*
X1558930D02*
D03*
X1482730Y315240D02*
D03*
X1958980Y696240D02*
D03*
X2035180Y721640D02*
D03*
X2225680D02*
D03*
X2149480Y696240D02*
D03*
X434980D02*
D03*
X511180Y721640D02*
D03*
X2892030Y150140D02*
D03*
X2815830Y124740D02*
D03*
X2435630Y315240D02*
D03*
X2511830Y340640D02*
D03*
X1082680Y721640D02*
D03*
X1006480Y696240D02*
D03*
X1364620Y124740D02*
D03*
X1440820Y150140D02*
D03*
X749940Y531140D02*
D03*
X673740Y505740D02*
D03*
X1197850Y696240D02*
D03*
X1274050Y721640D02*
D03*
X2701930Y340640D02*
D03*
X2625730Y315240D02*
D03*
X1579250Y696240D02*
D03*
X1655450Y721640D02*
D03*
X1179200Y340640D02*
D03*
X1103000Y315240D02*
D03*
X625480Y696240D02*
D03*
X701680Y721640D02*
D03*
X797330Y340640D02*
D03*
X721130Y315240D02*
D03*
X1387480Y696240D02*
D03*
X1463680Y721640D02*
D03*
X606430Y340640D02*
D03*
X530230Y315240D02*
D03*
X2244730D02*
D03*
X2320930Y340640D02*
D03*
X274960Y721640D02*
D03*
X198760Y696240D02*
D03*
X412120Y124740D02*
D03*
X488320Y150140D02*
D03*
D40*
X842000Y947500D02*
D03*
X1986920Y947318D02*
D03*
X220000Y840500D02*
D03*
X2797500D02*
D03*
Y269252D02*
D03*
X220000Y270000D02*
D03*
D41*
X561980Y166650D02*
D03*
M02*
