G04*
G04 #@! TF.GenerationSoftware,Altium Limited,Altium Designer,22.10.1 (41)*
G04*
G04 Layer_Color=6740479*
%FSLAX44Y44*%
%MOMM*%
G71*
G04*
G04 #@! TF.SameCoordinates,9A037A66-6DE6-4E6B-824F-FEF4343B680E*
G04*
G04*
G04 #@! TF.FilePolarity,Positive*
G04*
G01*
G75*
%ADD10C,0.2540*%
%ADD11C,0.0254*%
%ADD12C,0.1524*%
G36*
X2837391Y1100094D02*
X2837603Y1100000D01*
X2837697Y1099953D01*
X2837791Y1099859D01*
X2837814D01*
X2837838Y1099812D01*
X2837932Y1099695D01*
X2838002Y1099507D01*
X2838049Y1099389D01*
Y1099249D01*
Y1092200D01*
Y1092177D01*
Y1092130D01*
X2838026Y1092059D01*
Y1091989D01*
X2837932Y1091777D01*
X2837885Y1091660D01*
X2837791Y1091566D01*
X2837744Y1091519D01*
X2837626Y1091448D01*
X2837438Y1091378D01*
X2837180Y1091331D01*
X2837109D01*
X2837039Y1091354D01*
X2836968D01*
X2836757Y1091425D01*
X2836546Y1091566D01*
Y1091589D01*
X2836499Y1091613D01*
X2836428Y1091754D01*
X2836358Y1091942D01*
X2836311Y1092200D01*
Y1099249D01*
Y1099272D01*
Y1099319D01*
X2836334Y1099460D01*
X2836405Y1099671D01*
X2836546Y1099859D01*
X2836569Y1099883D01*
X2836593Y1099906D01*
X2836734Y1100000D01*
X2836922Y1100071D01*
X2837039Y1100118D01*
X2837250D01*
X2837391Y1100094D01*
D02*
G37*
G36*
X2842560Y1097862D02*
X2842772Y1097768D01*
X2842866Y1097698D01*
X2842960Y1097604D01*
X2842983Y1097580D01*
X2843007Y1097557D01*
X2843124Y1097416D01*
X2843312Y1097181D01*
X2843547Y1096876D01*
X2843806Y1096500D01*
X2844064Y1096077D01*
X2844323Y1095630D01*
X2844534Y1095113D01*
Y1095090D01*
X2844557Y1095043D01*
X2844581Y1094972D01*
X2844628Y1094878D01*
X2844675Y1094737D01*
X2844722Y1094596D01*
X2844816Y1094221D01*
X2844910Y1093798D01*
X2845004Y1093304D01*
X2845074Y1092764D01*
X2845098Y1092200D01*
Y1092177D01*
Y1092130D01*
Y1092036D01*
Y1091918D01*
X2845074Y1091777D01*
Y1091613D01*
X2845027Y1091190D01*
X2844933Y1090720D01*
X2844839Y1090203D01*
X2844675Y1089662D01*
X2844464Y1089099D01*
Y1089075D01*
X2844440Y1089028D01*
X2844393Y1088958D01*
X2844346Y1088864D01*
X2844205Y1088582D01*
X2844017Y1088253D01*
X2843782Y1087853D01*
X2843500Y1087430D01*
X2843148Y1087008D01*
X2842772Y1086585D01*
X2842725Y1086538D01*
X2842584Y1086420D01*
X2842372Y1086209D01*
X2842067Y1085974D01*
X2841691Y1085715D01*
X2841268Y1085433D01*
X2840775Y1085152D01*
X2840258Y1084893D01*
X2840234D01*
X2840187Y1084870D01*
X2840117Y1084846D01*
X2839999Y1084799D01*
X2839882Y1084752D01*
X2839717Y1084705D01*
X2839341Y1084588D01*
X2838871Y1084470D01*
X2838355Y1084376D01*
X2837791Y1084306D01*
X2837180Y1084282D01*
X2836898D01*
X2836757Y1084306D01*
X2836593D01*
X2836170Y1084353D01*
X2835700Y1084423D01*
X2835183Y1084541D01*
X2834643Y1084682D01*
X2834079Y1084893D01*
X2834055D01*
X2834008Y1084917D01*
X2833938Y1084964D01*
X2833844Y1085011D01*
X2833562Y1085152D01*
X2833233Y1085340D01*
X2832833Y1085574D01*
X2832411Y1085880D01*
X2831988Y1086209D01*
X2831565Y1086585D01*
Y1086608D01*
X2831518Y1086632D01*
X2831400Y1086773D01*
X2831189Y1087008D01*
X2830954Y1087313D01*
X2830695Y1087665D01*
X2830414Y1088112D01*
X2830132Y1088582D01*
X2829873Y1089099D01*
Y1089122D01*
X2829850Y1089169D01*
X2829826Y1089240D01*
X2829779Y1089357D01*
X2829732Y1089498D01*
X2829685Y1089639D01*
X2829568Y1090039D01*
X2829450Y1090508D01*
X2829356Y1091025D01*
X2829286Y1091589D01*
X2829262Y1092200D01*
Y1092224D01*
Y1092271D01*
Y1092341D01*
Y1092458D01*
X2829286Y1092599D01*
Y1092764D01*
X2829333Y1093140D01*
X2829403Y1093586D01*
X2829497Y1094080D01*
X2829615Y1094596D01*
X2829803Y1095113D01*
Y1095137D01*
X2829826Y1095184D01*
X2829873Y1095254D01*
X2829897Y1095348D01*
X2830038Y1095607D01*
X2830226Y1095936D01*
X2830437Y1096335D01*
X2830719Y1096758D01*
X2831024Y1097181D01*
X2831400Y1097604D01*
Y1097627D01*
X2831447Y1097651D01*
X2831565Y1097745D01*
X2831753Y1097839D01*
X2831870Y1097886D01*
X2832082D01*
X2832152Y1097862D01*
X2832223D01*
X2832434Y1097768D01*
X2832552Y1097698D01*
X2832646Y1097604D01*
X2832693Y1097557D01*
X2832763Y1097439D01*
X2832833Y1097251D01*
X2832857Y1097134D01*
Y1096993D01*
Y1096970D01*
Y1096946D01*
X2832833Y1096781D01*
X2832739Y1096570D01*
X2832693Y1096476D01*
X2832599Y1096359D01*
X2832575Y1096312D01*
X2832481Y1096218D01*
X2832340Y1096030D01*
X2832152Y1095795D01*
X2831964Y1095513D01*
X2831776Y1095184D01*
X2831588Y1094808D01*
X2831424Y1094432D01*
X2831400Y1094385D01*
X2831353Y1094244D01*
X2831306Y1094033D01*
X2831236Y1093751D01*
X2831142Y1093422D01*
X2831095Y1093046D01*
X2831048Y1092623D01*
X2831024Y1092200D01*
Y1092177D01*
Y1092083D01*
X2831048Y1091942D01*
Y1091777D01*
X2831071Y1091542D01*
X2831118Y1091284D01*
X2831165Y1091002D01*
X2831259Y1090696D01*
X2831353Y1090344D01*
X2831471Y1089992D01*
X2831612Y1089639D01*
X2831776Y1089263D01*
X2831988Y1088887D01*
X2832223Y1088535D01*
X2832505Y1088182D01*
X2832810Y1087830D01*
X2832833Y1087806D01*
X2832904Y1087759D01*
X2832998Y1087665D01*
X2833139Y1087548D01*
X2833303Y1087407D01*
X2833515Y1087266D01*
X2833750Y1087102D01*
X2834032Y1086937D01*
X2834337Y1086773D01*
X2834666Y1086608D01*
X2835019Y1086467D01*
X2835418Y1086326D01*
X2835817Y1086209D01*
X2836240Y1086115D01*
X2836710Y1086068D01*
X2837180Y1086044D01*
X2837297D01*
X2837438Y1086068D01*
X2837603D01*
X2837838Y1086091D01*
X2838096Y1086138D01*
X2838378Y1086185D01*
X2838707Y1086279D01*
X2839036Y1086373D01*
X2839388Y1086491D01*
X2839741Y1086632D01*
X2840117Y1086796D01*
X2840493Y1087008D01*
X2840845Y1087243D01*
X2841198Y1087524D01*
X2841550Y1087830D01*
X2841573Y1087853D01*
X2841620Y1087924D01*
X2841714Y1088018D01*
X2841832Y1088159D01*
X2841973Y1088323D01*
X2842114Y1088535D01*
X2842278Y1088770D01*
X2842443Y1089052D01*
X2842607Y1089357D01*
X2842772Y1089686D01*
X2842913Y1090039D01*
X2843054Y1090438D01*
X2843171Y1090837D01*
X2843265Y1091260D01*
X2843312Y1091730D01*
X2843336Y1092200D01*
Y1092224D01*
Y1092247D01*
Y1092318D01*
Y1092411D01*
X2843312Y1092623D01*
X2843289Y1092928D01*
X2843242Y1093257D01*
X2843148Y1093657D01*
X2843054Y1094056D01*
X2842913Y1094455D01*
Y1094479D01*
X2842889Y1094502D01*
X2842842Y1094643D01*
X2842748Y1094855D01*
X2842607Y1095113D01*
X2842443Y1095419D01*
X2842255Y1095724D01*
X2842020Y1096077D01*
X2841738Y1096406D01*
Y1096429D01*
X2841691Y1096453D01*
X2841620Y1096570D01*
X2841526Y1096781D01*
X2841479Y1097017D01*
Y1097040D01*
Y1097087D01*
X2841503Y1097228D01*
X2841573Y1097416D01*
X2841714Y1097604D01*
X2841738Y1097627D01*
X2841761Y1097651D01*
X2841902Y1097745D01*
X2842090Y1097839D01*
X2842208Y1097886D01*
X2842419D01*
X2842560Y1097862D01*
D02*
G37*
G36*
X1715047Y97776D02*
X1715132Y97762D01*
X1715315Y97705D01*
X1715414Y97663D01*
X1715498Y97607D01*
X1715513Y97593D01*
X1715527Y97564D01*
X1715569Y97522D01*
X1715611Y97466D01*
X1715639Y97395D01*
X1715682Y97311D01*
X1715696Y97212D01*
X1715710Y97099D01*
Y97015D01*
X1715696Y96958D01*
X1715653Y96803D01*
X1715583Y96620D01*
X1712623Y90459D01*
Y90445D01*
X1712608Y90417D01*
X1712538Y90333D01*
X1712453Y90220D01*
X1712327Y90107D01*
X1712312D01*
X1712298Y90093D01*
X1712214Y90037D01*
X1712101Y89994D01*
X1711946Y89980D01*
X1711932D01*
X1711918D01*
X1711819Y89994D01*
X1711706Y90037D01*
X1711565Y90107D01*
X1711551D01*
X1711537Y90135D01*
X1711467Y90192D01*
X1711368Y90304D01*
X1711269Y90459D01*
X1708309Y96620D01*
Y96634D01*
X1708295Y96662D01*
X1708267Y96719D01*
X1708253Y96775D01*
X1708196Y96930D01*
X1708182Y97099D01*
Y97156D01*
X1708196Y97212D01*
X1708210Y97282D01*
X1708238Y97353D01*
X1708267Y97437D01*
X1708323Y97522D01*
X1708394Y97607D01*
X1708408Y97621D01*
X1708436Y97635D01*
X1708478Y97663D01*
X1708549Y97691D01*
X1708633Y97734D01*
X1708732Y97762D01*
X1708845Y97776D01*
X1708972Y97790D01*
X1714920D01*
X1714935D01*
X1714977D01*
X1715047Y97776D01*
D02*
G37*
G36*
X1715794Y86259D02*
X1715879Y86244D01*
X1715964Y86216D01*
X1716062Y86174D01*
X1716147Y86118D01*
X1716231Y86047D01*
X1716246Y86033D01*
X1716260Y86005D01*
X1716302Y85948D01*
X1716344Y85878D01*
X1716372Y85793D01*
X1716415Y85695D01*
X1716429Y85568D01*
X1716443Y85427D01*
Y79746D01*
X1716429Y79689D01*
X1716415Y79591D01*
X1716387Y79506D01*
X1716358Y79393D01*
X1716302Y79295D01*
X1716231Y79210D01*
X1716217Y79196D01*
X1716189Y79168D01*
X1716147Y79140D01*
X1716090Y79083D01*
X1716006Y79041D01*
X1715907Y79013D01*
X1715794Y78985D01*
X1715668Y78970D01*
X1715653D01*
X1715611D01*
X1715541Y78985D01*
X1715456Y78999D01*
X1715372Y79027D01*
X1715273Y79069D01*
X1715174Y79125D01*
X1715090Y79210D01*
X1715076Y79224D01*
X1715061Y79252D01*
X1715033Y79295D01*
X1714991Y79365D01*
X1714949Y79450D01*
X1714920Y79563D01*
X1714906Y79675D01*
X1714892Y79816D01*
Y81691D01*
X1708309D01*
X1708295D01*
X1708238D01*
X1708154Y81705D01*
X1708055Y81719D01*
X1707942Y81748D01*
X1707816Y81790D01*
X1707703Y81846D01*
X1707590Y81931D01*
X1707576Y81945D01*
X1707548Y81973D01*
X1707520Y82029D01*
X1707477Y82114D01*
X1707421Y82213D01*
X1707393Y82340D01*
X1707364Y82481D01*
X1707350Y82636D01*
Y82706D01*
X1707364Y82791D01*
X1707379Y82889D01*
X1707407Y83002D01*
X1707463Y83115D01*
X1707520Y83228D01*
X1707604Y83327D01*
X1707618Y83341D01*
X1707646Y83369D01*
X1707703Y83397D01*
X1707787Y83439D01*
X1707886Y83496D01*
X1708013Y83524D01*
X1708154Y83552D01*
X1708309Y83566D01*
X1714892D01*
Y85483D01*
X1714906Y85554D01*
X1714920Y85653D01*
X1714977Y85850D01*
X1715019Y85948D01*
X1715090Y86047D01*
X1715104Y86061D01*
X1715132Y86075D01*
X1715174Y86118D01*
X1715245Y86160D01*
X1715329Y86202D01*
X1715428Y86230D01*
X1715541Y86259D01*
X1715668Y86273D01*
X1715682D01*
X1715724D01*
X1715794Y86259D01*
D02*
G37*
G36*
X1708281Y78153D02*
X1708365Y78139D01*
X1708464Y78111D01*
X1708577Y78054D01*
X1708704Y77998D01*
X1708831Y77913D01*
X1711960Y75672D01*
X1712016D01*
X1714963Y77843D01*
X1714977Y77857D01*
X1715019Y77885D01*
X1715104Y77927D01*
X1715188Y77970D01*
X1715301Y78026D01*
X1715428Y78068D01*
X1715555Y78096D01*
X1715682Y78111D01*
X1715696D01*
X1715752D01*
X1715823Y78096D01*
X1715907Y78082D01*
X1716006Y78040D01*
X1716104Y77998D01*
X1716217Y77927D01*
X1716316Y77843D01*
X1716330Y77829D01*
X1716358Y77800D01*
X1716401Y77730D01*
X1716443Y77660D01*
X1716485Y77561D01*
X1716528Y77448D01*
X1716556Y77307D01*
X1716570Y77166D01*
Y77067D01*
X1716556Y77011D01*
X1716513Y76856D01*
X1716443Y76701D01*
Y76687D01*
X1716415Y76659D01*
X1716344Y76574D01*
X1716217Y76447D01*
X1716048Y76320D01*
X1713201Y74389D01*
Y74347D01*
X1716104Y72359D01*
X1716119Y72345D01*
X1716147Y72331D01*
X1716189Y72303D01*
X1716246Y72246D01*
X1716358Y72147D01*
X1716415Y72077D01*
X1716457Y72021D01*
Y72007D01*
X1716471Y71993D01*
X1716499Y71950D01*
X1716513Y71908D01*
X1716556Y71767D01*
X1716570Y71584D01*
Y71527D01*
X1716556Y71457D01*
X1716542Y71372D01*
X1716513Y71273D01*
X1716471Y71161D01*
X1716415Y71048D01*
X1716330Y70949D01*
X1716316Y70935D01*
X1716288Y70907D01*
X1716246Y70865D01*
X1716175Y70808D01*
X1716090Y70752D01*
X1715992Y70710D01*
X1715893Y70681D01*
X1715766Y70667D01*
X1715752D01*
X1715710D01*
X1715639Y70681D01*
X1715555Y70696D01*
X1715442Y70724D01*
X1715329Y70780D01*
X1715216Y70837D01*
X1715090Y70921D01*
X1711974Y73261D01*
X1711932D01*
X1708873Y70992D01*
X1708859Y70978D01*
X1708816Y70949D01*
X1708746Y70907D01*
X1708661Y70865D01*
X1708563Y70822D01*
X1708450Y70780D01*
X1708323Y70752D01*
X1708182Y70738D01*
X1708168D01*
X1708126D01*
X1708055Y70752D01*
X1707971Y70766D01*
X1707872Y70794D01*
X1707773Y70851D01*
X1707675Y70907D01*
X1707576Y70992D01*
X1707562Y71006D01*
X1707548Y71034D01*
X1707505Y71090D01*
X1707463Y71161D01*
X1707421Y71259D01*
X1707393Y71372D01*
X1707364Y71499D01*
X1707350Y71640D01*
Y71725D01*
X1707364Y71795D01*
X1707393Y71936D01*
X1707463Y72091D01*
Y72105D01*
X1707477Y72119D01*
X1707548Y72204D01*
X1707646Y72317D01*
X1707801Y72458D01*
X1710607Y74459D01*
Y74516D01*
X1707801Y76489D01*
X1707787Y76504D01*
X1707759Y76518D01*
X1707717Y76560D01*
X1707660Y76602D01*
X1707548Y76715D01*
X1707491Y76771D01*
X1707449Y76842D01*
Y76856D01*
X1707435Y76870D01*
X1707421Y76912D01*
X1707407Y76955D01*
X1707364Y77096D01*
X1707350Y77279D01*
Y77335D01*
X1707364Y77406D01*
X1707379Y77504D01*
X1707407Y77603D01*
X1707449Y77702D01*
X1707505Y77814D01*
X1707576Y77913D01*
X1707590Y77927D01*
X1707618Y77955D01*
X1707675Y77998D01*
X1707745Y78040D01*
X1707830Y78082D01*
X1707928Y78125D01*
X1708027Y78153D01*
X1708154Y78167D01*
X1708168D01*
X1708210D01*
X1708281Y78153D01*
D02*
G37*
G36*
X1715625Y69286D02*
X1715724Y69272D01*
X1715837Y69243D01*
X1715964Y69201D01*
X1716076Y69145D01*
X1716175Y69060D01*
X1716189Y69046D01*
X1716217Y69018D01*
X1716260Y68962D01*
X1716316Y68877D01*
X1716358Y68778D01*
X1716401Y68666D01*
X1716429Y68525D01*
X1716443Y68369D01*
Y65790D01*
X1716429Y65677D01*
Y65536D01*
X1716401Y65367D01*
X1716387Y65170D01*
X1716344Y64958D01*
X1716302Y64718D01*
X1716231Y64465D01*
X1716161Y64211D01*
X1716062Y63943D01*
X1715950Y63689D01*
X1715823Y63422D01*
X1715653Y63182D01*
X1715484Y62942D01*
X1715273Y62717D01*
X1715259Y62702D01*
X1715216Y62674D01*
X1715146Y62618D01*
X1715061Y62533D01*
X1714935Y62449D01*
X1714794Y62364D01*
X1714624Y62251D01*
X1714427Y62153D01*
X1714216Y62054D01*
X1713962Y61941D01*
X1713694Y61857D01*
X1713398Y61758D01*
X1713088Y61688D01*
X1712735Y61631D01*
X1712383Y61603D01*
X1711988Y61589D01*
X1711960D01*
X1711889D01*
X1711777D01*
X1711636Y61603D01*
X1711452Y61617D01*
X1711241Y61645D01*
X1711015Y61688D01*
X1710762Y61730D01*
X1710508Y61786D01*
X1710226Y61857D01*
X1709958Y61955D01*
X1709676Y62068D01*
X1709394Y62195D01*
X1709141Y62350D01*
X1708887Y62519D01*
X1708647Y62717D01*
X1708633Y62731D01*
X1708591Y62773D01*
X1708535Y62829D01*
X1708464Y62928D01*
X1708379Y63041D01*
X1708267Y63182D01*
X1708168Y63351D01*
X1708055Y63534D01*
X1707942Y63746D01*
X1707844Y63985D01*
X1707745Y64239D01*
X1707646Y64521D01*
X1707576Y64831D01*
X1707520Y65155D01*
X1707477Y65508D01*
X1707463Y65874D01*
Y68440D01*
X1707477Y68525D01*
X1707491Y68623D01*
X1707520Y68736D01*
X1707576Y68849D01*
X1707632Y68962D01*
X1707717Y69060D01*
X1707731Y69074D01*
X1707759Y69103D01*
X1707816Y69131D01*
X1707900Y69173D01*
X1707999Y69229D01*
X1708126Y69258D01*
X1708267Y69286D01*
X1708436Y69300D01*
X1715470D01*
X1715484D01*
X1715541D01*
X1715625Y69286D01*
D02*
G37*
G36*
X1737480Y97776D02*
X1737607Y97734D01*
X1737734Y97663D01*
X1737748D01*
X1737762Y97635D01*
X1737846Y97564D01*
X1737931Y97466D01*
X1738030Y97311D01*
X1740990Y91136D01*
Y91122D01*
X1741004Y91094D01*
X1741032Y91052D01*
X1741060Y90981D01*
X1741103Y90840D01*
X1741117Y90671D01*
Y90615D01*
X1741103Y90558D01*
X1741089Y90488D01*
X1741060Y90417D01*
X1741032Y90333D01*
X1740976Y90248D01*
X1740905Y90178D01*
X1740891Y90163D01*
X1740863Y90149D01*
X1740821Y90121D01*
X1740750Y90079D01*
X1740666Y90037D01*
X1740567Y90008D01*
X1740454Y89994D01*
X1740327Y89980D01*
X1734379D01*
X1734364D01*
X1734322D01*
X1734252Y89994D01*
X1734167Y90008D01*
X1733984Y90065D01*
X1733885Y90107D01*
X1733801Y90178D01*
X1733786Y90192D01*
X1733772Y90206D01*
X1733730Y90248D01*
X1733702Y90304D01*
X1733660Y90375D01*
X1733617Y90460D01*
X1733603Y90558D01*
X1733589Y90671D01*
Y90713D01*
X1733603Y90756D01*
Y90812D01*
X1733645Y90967D01*
X1733716Y91136D01*
X1736676Y97311D01*
Y97325D01*
X1736690Y97353D01*
X1736761Y97438D01*
X1736846Y97550D01*
X1736972Y97663D01*
X1736986D01*
X1737000Y97677D01*
X1737085Y97719D01*
X1737212Y97776D01*
X1737353Y97790D01*
X1737367D01*
X1737395D01*
X1737480Y97776D01*
D02*
G37*
G36*
X1741032Y85441D02*
X1741131Y85427D01*
X1741244Y85399D01*
X1741371Y85356D01*
X1741483Y85300D01*
X1741582Y85216D01*
X1741596Y85201D01*
X1741624Y85173D01*
X1741667Y85117D01*
X1741723Y85032D01*
X1741765Y84934D01*
X1741808Y84821D01*
X1741836Y84680D01*
X1741850Y84525D01*
Y81635D01*
X1741836Y81522D01*
X1741822Y81395D01*
X1741808Y81240D01*
X1741794Y81085D01*
X1741751Y80902D01*
X1741667Y80521D01*
X1741526Y80126D01*
X1741441Y79929D01*
X1741342Y79732D01*
X1741230Y79563D01*
X1741089Y79393D01*
X1741075Y79379D01*
X1741060Y79351D01*
X1741004Y79309D01*
X1740948Y79252D01*
X1740877Y79196D01*
X1740779Y79126D01*
X1740666Y79041D01*
X1740539Y78956D01*
X1740398Y78886D01*
X1740243Y78801D01*
X1740074Y78731D01*
X1739876Y78660D01*
X1739679Y78618D01*
X1739467Y78576D01*
X1739228Y78548D01*
X1738988Y78534D01*
X1738974D01*
X1738946D01*
X1738904D01*
X1738847D01*
X1738678Y78548D01*
X1738481Y78590D01*
X1738241Y78632D01*
X1737973Y78703D01*
X1737705Y78801D01*
X1737452Y78942D01*
X1737437D01*
X1737423Y78956D01*
X1737339Y79013D01*
X1737226Y79111D01*
X1737085Y79224D01*
X1736930Y79393D01*
X1736761Y79591D01*
X1736606Y79816D01*
X1736479Y80070D01*
X1734238Y78773D01*
X1734223Y78759D01*
X1734181Y78745D01*
X1734111Y78717D01*
X1734026Y78675D01*
X1733927Y78632D01*
X1733829Y78604D01*
X1733702Y78590D01*
X1733589Y78576D01*
X1733575D01*
X1733533D01*
X1733462Y78590D01*
X1733378Y78604D01*
X1733279Y78646D01*
X1733180Y78689D01*
X1733082Y78759D01*
X1732983Y78844D01*
X1732969Y78858D01*
X1732941Y78886D01*
X1732912Y78956D01*
X1732870Y79027D01*
X1732814Y79126D01*
X1732785Y79238D01*
X1732757Y79379D01*
X1732743Y79520D01*
Y79577D01*
X1732757Y79633D01*
Y79718D01*
X1732800Y79887D01*
X1732884Y80056D01*
X1732898Y80070D01*
X1732912Y80084D01*
X1732955Y80126D01*
X1733011Y80183D01*
X1733082Y80239D01*
X1733180Y80324D01*
X1733307Y80394D01*
X1733448Y80479D01*
X1736155Y81973D01*
Y83580D01*
X1733716D01*
X1733702D01*
X1733645D01*
X1733561Y83594D01*
X1733448Y83608D01*
X1733335Y83637D01*
X1733223Y83693D01*
X1733096Y83749D01*
X1732997Y83834D01*
X1732983Y83848D01*
X1732955Y83876D01*
X1732912Y83933D01*
X1732870Y84003D01*
X1732828Y84102D01*
X1732785Y84229D01*
X1732757Y84370D01*
X1732743Y84525D01*
Y84595D01*
X1732757Y84680D01*
X1732771Y84778D01*
X1732800Y84891D01*
X1732856Y85004D01*
X1732912Y85117D01*
X1732997Y85216D01*
X1733011Y85230D01*
X1733039Y85258D01*
X1733096Y85286D01*
X1733180Y85328D01*
X1733279Y85385D01*
X1733406Y85413D01*
X1733547Y85441D01*
X1733716Y85455D01*
X1740877D01*
X1740891D01*
X1740948D01*
X1741032Y85441D01*
D02*
G37*
G36*
X1733688Y77406D02*
X1733772Y77392D01*
X1733871Y77363D01*
X1733984Y77307D01*
X1734111Y77251D01*
X1734238Y77166D01*
X1737367Y74925D01*
X1737423D01*
X1740370Y77096D01*
X1740384Y77110D01*
X1740426Y77138D01*
X1740511Y77180D01*
X1740595Y77222D01*
X1740708Y77279D01*
X1740835Y77321D01*
X1740962Y77349D01*
X1741089Y77363D01*
X1741103D01*
X1741159D01*
X1741230Y77349D01*
X1741314Y77335D01*
X1741413Y77293D01*
X1741512Y77251D01*
X1741624Y77180D01*
X1741723Y77096D01*
X1741737Y77081D01*
X1741765Y77053D01*
X1741808Y76983D01*
X1741850Y76912D01*
X1741892Y76814D01*
X1741935Y76701D01*
X1741963Y76560D01*
X1741977Y76419D01*
Y76320D01*
X1741963Y76264D01*
X1741920Y76109D01*
X1741850Y75954D01*
Y75940D01*
X1741822Y75911D01*
X1741751Y75827D01*
X1741624Y75700D01*
X1741455Y75573D01*
X1738608Y73642D01*
Y73600D01*
X1741512Y71612D01*
X1741526Y71598D01*
X1741554Y71584D01*
X1741596Y71556D01*
X1741653Y71499D01*
X1741765Y71400D01*
X1741822Y71330D01*
X1741864Y71273D01*
Y71259D01*
X1741878Y71245D01*
X1741906Y71203D01*
X1741920Y71161D01*
X1741963Y71020D01*
X1741977Y70837D01*
Y70780D01*
X1741963Y70710D01*
X1741949Y70625D01*
X1741920Y70526D01*
X1741878Y70414D01*
X1741822Y70301D01*
X1741737Y70202D01*
X1741723Y70188D01*
X1741695Y70160D01*
X1741653Y70118D01*
X1741582Y70061D01*
X1741497Y70005D01*
X1741399Y69963D01*
X1741300Y69934D01*
X1741173Y69920D01*
X1741159D01*
X1741117D01*
X1741046Y69934D01*
X1740962Y69948D01*
X1740849Y69977D01*
X1740736Y70033D01*
X1740623Y70089D01*
X1740497Y70174D01*
X1737381Y72514D01*
X1737339D01*
X1734280Y70244D01*
X1734266Y70230D01*
X1734223Y70202D01*
X1734153Y70160D01*
X1734068Y70118D01*
X1733970Y70075D01*
X1733857Y70033D01*
X1733730Y70005D01*
X1733589Y69991D01*
X1733575D01*
X1733533D01*
X1733462Y70005D01*
X1733378Y70019D01*
X1733279Y70047D01*
X1733180Y70104D01*
X1733082Y70160D01*
X1732983Y70244D01*
X1732969Y70259D01*
X1732955Y70287D01*
X1732912Y70343D01*
X1732870Y70414D01*
X1732828Y70512D01*
X1732800Y70625D01*
X1732771Y70752D01*
X1732757Y70893D01*
Y70978D01*
X1732771Y71048D01*
X1732800Y71189D01*
X1732870Y71344D01*
Y71358D01*
X1732884Y71372D01*
X1732955Y71457D01*
X1733053Y71570D01*
X1733208Y71711D01*
X1736014Y73712D01*
Y73769D01*
X1733208Y75742D01*
X1733194Y75756D01*
X1733166Y75771D01*
X1733124Y75813D01*
X1733067Y75855D01*
X1732955Y75968D01*
X1732898Y76024D01*
X1732856Y76095D01*
Y76109D01*
X1732842Y76123D01*
X1732828Y76165D01*
X1732814Y76207D01*
X1732771Y76349D01*
X1732757Y76532D01*
Y76588D01*
X1732771Y76659D01*
X1732785Y76757D01*
X1732814Y76856D01*
X1732856Y76955D01*
X1732912Y77067D01*
X1732983Y77166D01*
X1732997Y77180D01*
X1733025Y77208D01*
X1733082Y77251D01*
X1733152Y77293D01*
X1733237Y77335D01*
X1733335Y77378D01*
X1733434Y77406D01*
X1733561Y77420D01*
X1733575D01*
X1733617D01*
X1733688Y77406D01*
D02*
G37*
G36*
X1741032Y68539D02*
X1741131Y68525D01*
X1741244Y68496D01*
X1741371Y68454D01*
X1741483Y68398D01*
X1741582Y68313D01*
X1741596Y68299D01*
X1741624Y68271D01*
X1741667Y68215D01*
X1741723Y68130D01*
X1741765Y68031D01*
X1741808Y67919D01*
X1741836Y67778D01*
X1741850Y67622D01*
Y65043D01*
X1741836Y64930D01*
Y64789D01*
X1741808Y64620D01*
X1741794Y64422D01*
X1741751Y64211D01*
X1741709Y63971D01*
X1741638Y63718D01*
X1741568Y63464D01*
X1741469Y63196D01*
X1741357Y62942D01*
X1741230Y62674D01*
X1741060Y62435D01*
X1740891Y62195D01*
X1740680Y61969D01*
X1740666Y61955D01*
X1740623Y61927D01*
X1740553Y61871D01*
X1740468Y61786D01*
X1740341Y61702D01*
X1740201Y61617D01*
X1740031Y61504D01*
X1739834Y61406D01*
X1739623Y61307D01*
X1739369Y61194D01*
X1739101Y61110D01*
X1738805Y61011D01*
X1738495Y60940D01*
X1738142Y60884D01*
X1737790Y60856D01*
X1737395Y60842D01*
X1737367D01*
X1737297D01*
X1737184D01*
X1737043Y60856D01*
X1736860Y60870D01*
X1736648Y60898D01*
X1736423Y60940D01*
X1736169Y60983D01*
X1735915Y61039D01*
X1735633Y61110D01*
X1735365Y61208D01*
X1735083Y61321D01*
X1734801Y61448D01*
X1734548Y61603D01*
X1734294Y61772D01*
X1734054Y61969D01*
X1734040Y61984D01*
X1733998Y62026D01*
X1733941Y62082D01*
X1733871Y62181D01*
X1733786Y62294D01*
X1733674Y62435D01*
X1733575Y62604D01*
X1733462Y62787D01*
X1733349Y62999D01*
X1733251Y63238D01*
X1733152Y63492D01*
X1733053Y63774D01*
X1732983Y64084D01*
X1732926Y64408D01*
X1732884Y64761D01*
X1732870Y65127D01*
Y67693D01*
X1732884Y67778D01*
X1732898Y67876D01*
X1732926Y67989D01*
X1732983Y68102D01*
X1733039Y68215D01*
X1733124Y68313D01*
X1733138Y68327D01*
X1733166Y68355D01*
X1733223Y68384D01*
X1733307Y68426D01*
X1733406Y68482D01*
X1733533Y68510D01*
X1733674Y68539D01*
X1733843Y68553D01*
X1740877D01*
X1740891D01*
X1740948D01*
X1741032Y68539D01*
D02*
G37*
G36*
X1836547Y151558D02*
X1836660D01*
X1836787Y151544D01*
X1836928Y151530D01*
X1837083Y151502D01*
X1837421Y151445D01*
X1837788Y151347D01*
X1838168Y151220D01*
X1838535Y151037D01*
X1838549D01*
X1838577Y151008D01*
X1838620Y150980D01*
X1838690Y150938D01*
X1838859Y150811D01*
X1839071Y150642D01*
X1839296Y150430D01*
X1839522Y150177D01*
X1839747Y149867D01*
X1839945Y149528D01*
X1839959Y149514D01*
X1839973Y149472D01*
X1840001Y149401D01*
X1840043Y149303D01*
X1840072Y149204D01*
X1840100Y149077D01*
X1840114Y148950D01*
X1840128Y148823D01*
Y148809D01*
Y148767D01*
X1840114Y148696D01*
X1840100Y148612D01*
X1840072Y148513D01*
X1840029Y148414D01*
X1839973Y148316D01*
X1839902Y148231D01*
X1839888Y148217D01*
X1839860Y148203D01*
X1839818Y148161D01*
X1839747Y148132D01*
X1839663Y148090D01*
X1839550Y148048D01*
X1839437Y148034D01*
X1839296Y148020D01*
X1839240D01*
X1839184Y148034D01*
X1839113D01*
X1838944Y148076D01*
X1838761Y148161D01*
X1838746Y148175D01*
X1838732Y148189D01*
X1838690Y148231D01*
X1838634Y148273D01*
X1838577Y148344D01*
X1838521Y148429D01*
X1838450Y148527D01*
X1838394Y148640D01*
Y148654D01*
X1838380Y148668D01*
X1838338Y148753D01*
X1838267Y148880D01*
X1838183Y149021D01*
X1838056Y149190D01*
X1837915Y149359D01*
X1837746Y149528D01*
X1837562Y149669D01*
X1837534Y149683D01*
X1837464Y149726D01*
X1837365Y149782D01*
X1837210Y149852D01*
X1837041Y149909D01*
X1836829Y149965D01*
X1836604Y150007D01*
X1836350Y150021D01*
X1836251D01*
X1836181Y150007D01*
X1836082Y149993D01*
X1835983Y149979D01*
X1835744Y149923D01*
X1835476Y149810D01*
X1835335Y149754D01*
X1835194Y149669D01*
X1835053Y149570D01*
X1834912Y149458D01*
X1834785Y149331D01*
X1834658Y149176D01*
Y149162D01*
X1834630Y149133D01*
X1834602Y149091D01*
X1834560Y149021D01*
X1834517Y148936D01*
X1834461Y148837D01*
X1834405Y148725D01*
X1834348Y148584D01*
X1834278Y148429D01*
X1834221Y148259D01*
X1834165Y148076D01*
X1834123Y147879D01*
X1834080Y147667D01*
X1834052Y147442D01*
X1834038Y147188D01*
X1834024Y146934D01*
Y146920D01*
Y146878D01*
Y146793D01*
X1834038Y146695D01*
Y146582D01*
X1834052Y146441D01*
X1834080Y146286D01*
X1834109Y146117D01*
X1834179Y145750D01*
X1834292Y145370D01*
X1834447Y145003D01*
X1834532Y144834D01*
X1834644Y144665D01*
X1834658Y144651D01*
X1834673Y144622D01*
X1834715Y144594D01*
X1834757Y144538D01*
X1834898Y144397D01*
X1835095Y144256D01*
X1835349Y144101D01*
X1835631Y143960D01*
X1835800Y143903D01*
X1835983Y143875D01*
X1836167Y143847D01*
X1836364Y143833D01*
X1836435D01*
X1836505Y143847D01*
X1836604Y143861D01*
X1836716Y143875D01*
X1836857Y143903D01*
X1837013Y143946D01*
X1837168Y144002D01*
X1837337Y144073D01*
X1837506Y144157D01*
X1837689Y144270D01*
X1837858Y144397D01*
X1838013Y144538D01*
X1838168Y144721D01*
X1838295Y144918D01*
X1838422Y145158D01*
Y145172D01*
X1838450Y145215D01*
X1838479Y145271D01*
X1838521Y145341D01*
X1838620Y145482D01*
X1838690Y145553D01*
X1838761Y145609D01*
X1838775D01*
X1838803Y145637D01*
X1838845Y145652D01*
X1838902Y145680D01*
X1839057Y145722D01*
X1839254Y145750D01*
X1839324D01*
X1839395Y145736D01*
X1839480Y145722D01*
X1839578Y145694D01*
X1839691Y145652D01*
X1839790Y145595D01*
X1839888Y145525D01*
X1839902Y145511D01*
X1839931Y145482D01*
X1839959Y145440D01*
X1840015Y145370D01*
X1840058Y145285D01*
X1840086Y145172D01*
X1840114Y145059D01*
X1840128Y144918D01*
Y144904D01*
Y144862D01*
Y144806D01*
X1840114Y144735D01*
X1840100Y144636D01*
X1840072Y144538D01*
X1839987Y144298D01*
Y144284D01*
X1839973Y144256D01*
X1839945Y144214D01*
X1839902Y144143D01*
X1839860Y144059D01*
X1839804Y143974D01*
X1839663Y143763D01*
X1839465Y143523D01*
X1839226Y143269D01*
X1838944Y143029D01*
X1838605Y142818D01*
X1838591D01*
X1838563Y142790D01*
X1838507Y142776D01*
X1838436Y142733D01*
X1838352Y142691D01*
X1838239Y142649D01*
X1838112Y142606D01*
X1837971Y142564D01*
X1837816Y142508D01*
X1837647Y142466D01*
X1837280Y142381D01*
X1836857Y142325D01*
X1836392Y142296D01*
X1836308D01*
X1836195Y142310D01*
X1836068D01*
X1835899Y142339D01*
X1835702Y142367D01*
X1835476Y142395D01*
X1835251Y142451D01*
X1834997Y142522D01*
X1834743Y142592D01*
X1834489Y142691D01*
X1834221Y142818D01*
X1833968Y142959D01*
X1833714Y143114D01*
X1833474Y143311D01*
X1833249Y143523D01*
X1833235Y143537D01*
X1833206Y143579D01*
X1833150Y143650D01*
X1833065Y143748D01*
X1832981Y143875D01*
X1832882Y144030D01*
X1832784Y144199D01*
X1832685Y144411D01*
X1832572Y144636D01*
X1832473Y144890D01*
X1832375Y145172D01*
X1832290Y145482D01*
X1832220Y145807D01*
X1832163Y146159D01*
X1832121Y146540D01*
X1832107Y146934D01*
Y146962D01*
Y147033D01*
X1832121Y147146D01*
Y147287D01*
X1832149Y147470D01*
X1832163Y147681D01*
X1832206Y147921D01*
X1832248Y148175D01*
X1832304Y148429D01*
X1832389Y148710D01*
X1832473Y148993D01*
X1832586Y149274D01*
X1832713Y149556D01*
X1832868Y149824D01*
X1833051Y150092D01*
X1833249Y150332D01*
X1833263Y150346D01*
X1833305Y150388D01*
X1833362Y150444D01*
X1833460Y150529D01*
X1833573Y150614D01*
X1833714Y150726D01*
X1833883Y150839D01*
X1834066Y150952D01*
X1834278Y151065D01*
X1834503Y151178D01*
X1834757Y151290D01*
X1835039Y151375D01*
X1835335Y151459D01*
X1835645Y151516D01*
X1835983Y151558D01*
X1836336Y151572D01*
X1836463D01*
X1836547Y151558D01*
D02*
G37*
G36*
X1827455D02*
X1827568D01*
X1827695Y151544D01*
X1827835Y151530D01*
X1827991Y151502D01*
X1828329Y151445D01*
X1828695Y151347D01*
X1829076Y151220D01*
X1829442Y151037D01*
X1829457D01*
X1829485Y151008D01*
X1829527Y150980D01*
X1829598Y150938D01*
X1829767Y150811D01*
X1829978Y150642D01*
X1830204Y150430D01*
X1830429Y150177D01*
X1830655Y149867D01*
X1830852Y149528D01*
X1830866Y149514D01*
X1830880Y149472D01*
X1830909Y149401D01*
X1830951Y149303D01*
X1830979Y149204D01*
X1831007Y149077D01*
X1831021Y148950D01*
X1831035Y148823D01*
Y148809D01*
Y148767D01*
X1831021Y148696D01*
X1831007Y148612D01*
X1830979Y148513D01*
X1830937Y148414D01*
X1830880Y148316D01*
X1830810Y148231D01*
X1830796Y148217D01*
X1830768Y148203D01*
X1830725Y148161D01*
X1830655Y148132D01*
X1830570Y148090D01*
X1830457Y148048D01*
X1830345Y148034D01*
X1830204Y148020D01*
X1830147D01*
X1830091Y148034D01*
X1830020D01*
X1829851Y148076D01*
X1829668Y148161D01*
X1829654Y148175D01*
X1829640Y148189D01*
X1829598Y148231D01*
X1829541Y148273D01*
X1829485Y148344D01*
X1829428Y148429D01*
X1829358Y148527D01*
X1829301Y148640D01*
Y148654D01*
X1829287Y148668D01*
X1829245Y148753D01*
X1829175Y148880D01*
X1829090Y149021D01*
X1828963Y149190D01*
X1828822Y149359D01*
X1828653Y149528D01*
X1828470Y149669D01*
X1828442Y149683D01*
X1828371Y149726D01*
X1828272Y149782D01*
X1828117Y149852D01*
X1827948Y149909D01*
X1827737Y149965D01*
X1827511Y150007D01*
X1827258Y150021D01*
X1827159D01*
X1827088Y150007D01*
X1826990Y149993D01*
X1826891Y149979D01*
X1826651Y149923D01*
X1826383Y149810D01*
X1826243Y149754D01*
X1826102Y149669D01*
X1825961Y149570D01*
X1825820Y149458D01*
X1825693Y149331D01*
X1825566Y149176D01*
Y149162D01*
X1825538Y149133D01*
X1825509Y149091D01*
X1825467Y149021D01*
X1825425Y148936D01*
X1825368Y148837D01*
X1825312Y148725D01*
X1825256Y148584D01*
X1825185Y148429D01*
X1825129Y148259D01*
X1825072Y148076D01*
X1825030Y147879D01*
X1824988Y147667D01*
X1824960Y147442D01*
X1824946Y147188D01*
X1824931Y146934D01*
Y146920D01*
Y146878D01*
Y146793D01*
X1824946Y146695D01*
Y146582D01*
X1824960Y146441D01*
X1824988Y146286D01*
X1825016Y146117D01*
X1825087Y145750D01*
X1825199Y145370D01*
X1825354Y145003D01*
X1825439Y144834D01*
X1825552Y144665D01*
X1825566Y144651D01*
X1825580Y144622D01*
X1825622Y144594D01*
X1825665Y144538D01*
X1825806Y144397D01*
X1826003Y144256D01*
X1826257Y144101D01*
X1826539Y143960D01*
X1826708Y143903D01*
X1826891Y143875D01*
X1827074Y143847D01*
X1827272Y143833D01*
X1827342D01*
X1827413Y143847D01*
X1827511Y143861D01*
X1827624Y143875D01*
X1827765Y143903D01*
X1827920Y143946D01*
X1828075Y144002D01*
X1828244Y144073D01*
X1828413Y144157D01*
X1828597Y144270D01*
X1828766Y144397D01*
X1828921Y144538D01*
X1829076Y144721D01*
X1829203Y144918D01*
X1829330Y145158D01*
Y145172D01*
X1829358Y145215D01*
X1829386Y145271D01*
X1829428Y145341D01*
X1829527Y145482D01*
X1829598Y145553D01*
X1829668Y145609D01*
X1829682D01*
X1829710Y145637D01*
X1829753Y145652D01*
X1829809Y145680D01*
X1829964Y145722D01*
X1830161Y145750D01*
X1830232D01*
X1830302Y145736D01*
X1830387Y145722D01*
X1830486Y145694D01*
X1830598Y145652D01*
X1830697Y145595D01*
X1830796Y145525D01*
X1830810Y145511D01*
X1830838Y145482D01*
X1830866Y145440D01*
X1830923Y145370D01*
X1830965Y145285D01*
X1830993Y145172D01*
X1831021Y145059D01*
X1831035Y144918D01*
Y144904D01*
Y144862D01*
Y144806D01*
X1831021Y144735D01*
X1831007Y144636D01*
X1830979Y144538D01*
X1830894Y144298D01*
Y144284D01*
X1830880Y144256D01*
X1830852Y144214D01*
X1830810Y144143D01*
X1830768Y144059D01*
X1830711Y143974D01*
X1830570Y143763D01*
X1830373Y143523D01*
X1830133Y143269D01*
X1829851Y143029D01*
X1829513Y142818D01*
X1829499D01*
X1829471Y142790D01*
X1829414Y142776D01*
X1829344Y142733D01*
X1829259Y142691D01*
X1829147Y142649D01*
X1829020Y142606D01*
X1828879Y142564D01*
X1828723Y142508D01*
X1828554Y142466D01*
X1828188Y142381D01*
X1827765Y142325D01*
X1827300Y142296D01*
X1827215D01*
X1827102Y142310D01*
X1826976D01*
X1826806Y142339D01*
X1826609Y142367D01*
X1826383Y142395D01*
X1826158Y142451D01*
X1825904Y142522D01*
X1825650Y142592D01*
X1825397Y142691D01*
X1825129Y142818D01*
X1824875Y142959D01*
X1824621Y143114D01*
X1824382Y143311D01*
X1824156Y143523D01*
X1824142Y143537D01*
X1824114Y143579D01*
X1824057Y143650D01*
X1823973Y143748D01*
X1823888Y143875D01*
X1823790Y144030D01*
X1823691Y144199D01*
X1823592Y144411D01*
X1823479Y144636D01*
X1823381Y144890D01*
X1823282Y145172D01*
X1823197Y145482D01*
X1823127Y145807D01*
X1823071Y146159D01*
X1823028Y146540D01*
X1823014Y146934D01*
Y146962D01*
Y147033D01*
X1823028Y147146D01*
Y147287D01*
X1823057Y147470D01*
X1823071Y147681D01*
X1823113Y147921D01*
X1823155Y148175D01*
X1823212Y148429D01*
X1823296Y148710D01*
X1823381Y148993D01*
X1823494Y149274D01*
X1823620Y149556D01*
X1823775Y149824D01*
X1823959Y150092D01*
X1824156Y150332D01*
X1824170Y150346D01*
X1824212Y150388D01*
X1824269Y150444D01*
X1824368Y150529D01*
X1824480Y150614D01*
X1824621Y150726D01*
X1824790Y150839D01*
X1824974Y150952D01*
X1825185Y151065D01*
X1825411Y151178D01*
X1825665Y151290D01*
X1825946Y151375D01*
X1826243Y151459D01*
X1826553Y151516D01*
X1826891Y151558D01*
X1827243Y151572D01*
X1827370D01*
X1827455Y151558D01*
D02*
G37*
G36*
X1809199Y150599D02*
X1809270Y150585D01*
X1809354Y150557D01*
X1809453Y150515D01*
X1809538Y150459D01*
X1809636Y150374D01*
X1812427Y147625D01*
X1812442Y147611D01*
X1812470Y147583D01*
X1812498Y147541D01*
X1812540Y147470D01*
X1812583Y147385D01*
X1812625Y147287D01*
X1812639Y147174D01*
X1812653Y147047D01*
Y147033D01*
Y146991D01*
X1812639Y146934D01*
X1812625Y146850D01*
X1812597Y146765D01*
X1812554Y146666D01*
X1812498Y146568D01*
X1812427Y146483D01*
X1809636Y143720D01*
X1809622Y143706D01*
X1809594Y143678D01*
X1809552Y143650D01*
X1809481Y143607D01*
X1809397Y143551D01*
X1809312Y143523D01*
X1809199Y143495D01*
X1809086Y143481D01*
X1809030D01*
X1808974Y143495D01*
X1808889Y143509D01*
X1808706Y143565D01*
X1808621Y143607D01*
X1808537Y143678D01*
X1808522Y143692D01*
X1808508Y143720D01*
X1808480Y143763D01*
X1808438Y143819D01*
X1808396Y143903D01*
X1808367Y143988D01*
X1808353Y144101D01*
X1808339Y144214D01*
Y144228D01*
Y144270D01*
X1808353Y144326D01*
X1808367Y144397D01*
X1808396Y144481D01*
X1808438Y144580D01*
X1808494Y144665D01*
X1808579Y144763D01*
X1809664Y145821D01*
X1810285Y146328D01*
X1809270Y146286D01*
X1805421D01*
X1804420Y146328D01*
X1805027Y145821D01*
X1806112Y144763D01*
X1806126Y144749D01*
X1806154Y144721D01*
X1806196Y144665D01*
X1806239Y144608D01*
X1806281Y144524D01*
X1806323Y144425D01*
X1806352Y144326D01*
X1806366Y144214D01*
Y144199D01*
Y144157D01*
X1806352Y144101D01*
X1806337Y144030D01*
X1806309Y143946D01*
X1806281Y143847D01*
X1806225Y143763D01*
X1806154Y143678D01*
X1806140Y143664D01*
X1806112Y143650D01*
X1806070Y143622D01*
X1806013Y143579D01*
X1805929Y143537D01*
X1805844Y143509D01*
X1805731Y143495D01*
X1805619Y143481D01*
X1805562D01*
X1805506Y143495D01*
X1805435Y143509D01*
X1805351Y143537D01*
X1805252Y143579D01*
X1805168Y143636D01*
X1805069Y143720D01*
X1802278Y146483D01*
X1802263Y146497D01*
X1802249Y146525D01*
X1802207Y146568D01*
X1802165Y146638D01*
X1802122Y146723D01*
X1802094Y146821D01*
X1802066Y146920D01*
X1802052Y147047D01*
Y147061D01*
Y147104D01*
X1802066Y147174D01*
X1802080Y147259D01*
X1802108Y147343D01*
X1802151Y147442D01*
X1802207Y147541D01*
X1802278Y147625D01*
X1805069Y150374D01*
X1805083Y150388D01*
X1805111Y150416D01*
X1805168Y150444D01*
X1805224Y150501D01*
X1805308Y150543D01*
X1805407Y150571D01*
X1805506Y150599D01*
X1805619Y150614D01*
X1805675D01*
X1805731Y150599D01*
X1805802Y150585D01*
X1805886Y150557D01*
X1805985Y150529D01*
X1806070Y150473D01*
X1806154Y150402D01*
X1806168Y150388D01*
X1806182Y150360D01*
X1806225Y150318D01*
X1806267Y150261D01*
X1806295Y150191D01*
X1806337Y150106D01*
X1806352Y149993D01*
X1806366Y149881D01*
Y149867D01*
Y149824D01*
X1806352Y149768D01*
X1806337Y149697D01*
X1806309Y149613D01*
X1806253Y149528D01*
X1806196Y149430D01*
X1806112Y149331D01*
X1805027Y148273D01*
X1804420Y147780D01*
X1805421Y147822D01*
X1809270D01*
X1810285Y147780D01*
X1809664Y148273D01*
X1808579Y149331D01*
X1808565Y149345D01*
X1808537Y149373D01*
X1808508Y149430D01*
X1808466Y149500D01*
X1808382Y149669D01*
X1808353Y149768D01*
X1808339Y149881D01*
Y149895D01*
Y149937D01*
X1808353Y149993D01*
X1808367Y150064D01*
X1808424Y150233D01*
X1808466Y150318D01*
X1808537Y150402D01*
X1808551Y150416D01*
X1808579Y150430D01*
X1808621Y150473D01*
X1808692Y150515D01*
X1808762Y150543D01*
X1808861Y150585D01*
X1808960Y150599D01*
X1809086Y150614D01*
X1809143D01*
X1809199Y150599D01*
D02*
G37*
G36*
X1821449Y151530D02*
X1821534Y151516D01*
X1821647Y151488D01*
X1821760Y151445D01*
X1821872Y151389D01*
X1821985Y151304D01*
X1821999Y151290D01*
X1822027Y151262D01*
X1822070Y151206D01*
X1822126Y151135D01*
X1822168Y151051D01*
X1822211Y150938D01*
X1822239Y150825D01*
X1822253Y150684D01*
Y150670D01*
Y150642D01*
Y150585D01*
X1822239Y150529D01*
X1822225Y150360D01*
X1822168Y150177D01*
X1819645Y143396D01*
X1819631Y143368D01*
X1819603Y143311D01*
X1819561Y143199D01*
X1819504Y143086D01*
X1819420Y142945D01*
X1819335Y142818D01*
X1819222Y142691D01*
X1819095Y142578D01*
X1819081Y142564D01*
X1819039Y142536D01*
X1818954Y142494D01*
X1818856Y142451D01*
X1818729Y142409D01*
X1818574Y142367D01*
X1818405Y142339D01*
X1818207Y142325D01*
X1818123D01*
X1818010Y142339D01*
X1817883Y142353D01*
X1817742Y142381D01*
X1817601Y142437D01*
X1817446Y142494D01*
X1817305Y142578D01*
X1817291Y142592D01*
X1817249Y142621D01*
X1817192Y142691D01*
X1817108Y142776D01*
X1817023Y142888D01*
X1816938Y143029D01*
X1816854Y143199D01*
X1816769Y143396D01*
X1814260Y150120D01*
Y150134D01*
X1814246Y150162D01*
X1814232Y150219D01*
X1814218Y150289D01*
X1814175Y150459D01*
X1814161Y150656D01*
Y150670D01*
Y150726D01*
X1814175Y150797D01*
X1814189Y150882D01*
X1814232Y150980D01*
X1814274Y151093D01*
X1814345Y151192D01*
X1814429Y151290D01*
X1814443Y151304D01*
X1814486Y151333D01*
X1814542Y151375D01*
X1814626Y151417D01*
X1814739Y151459D01*
X1814852Y151502D01*
X1815007Y151530D01*
X1815162Y151544D01*
X1815190D01*
X1815275Y151530D01*
X1815402Y151502D01*
X1815557Y151445D01*
X1815712Y151361D01*
X1815881Y151234D01*
X1815952Y151149D01*
X1816022Y151051D01*
X1816078Y150924D01*
X1816121Y150797D01*
X1818221Y144369D01*
X1818264D01*
X1820364Y150825D01*
Y150839D01*
X1820392Y150882D01*
X1820406Y150952D01*
X1820449Y151037D01*
X1820561Y151220D01*
X1820618Y151304D01*
X1820702Y151375D01*
X1820716Y151389D01*
X1820745Y151403D01*
X1820787Y151431D01*
X1820857Y151459D01*
X1820942Y151488D01*
X1821055Y151516D01*
X1821168Y151544D01*
X1821365D01*
X1821449Y151530D01*
D02*
G37*
G36*
X1796977Y151600D02*
X1797090D01*
X1797231Y151586D01*
X1797386Y151558D01*
X1797555Y151530D01*
X1797922Y151459D01*
X1798302Y151347D01*
X1798683Y151178D01*
X1798866Y151079D01*
X1799035Y150966D01*
X1799049Y150952D01*
X1799078Y150938D01*
X1799120Y150896D01*
X1799176Y150853D01*
X1799317Y150698D01*
X1799472Y150501D01*
X1799627Y150261D01*
X1799768Y149965D01*
X1799825Y149796D01*
X1799867Y149613D01*
X1799895Y149430D01*
X1799909Y149232D01*
Y149218D01*
Y149190D01*
Y149148D01*
X1799895Y149091D01*
X1799881Y148950D01*
X1799839Y148753D01*
X1799782Y148541D01*
X1799684Y148302D01*
X1799557Y148076D01*
X1799388Y147851D01*
X1799359Y147822D01*
X1799289Y147766D01*
X1799176Y147667D01*
X1799021Y147555D01*
X1798824Y147428D01*
X1798598Y147315D01*
X1798330Y147216D01*
X1798034Y147132D01*
Y147089D01*
X1798077D01*
X1798133Y147075D01*
X1798203Y147061D01*
X1798288Y147047D01*
X1798387Y147033D01*
X1798612Y146977D01*
X1798880Y146892D01*
X1799148Y146779D01*
X1799402Y146624D01*
X1799641Y146427D01*
X1799655D01*
X1799670Y146399D01*
X1799740Y146328D01*
X1799839Y146201D01*
X1799952Y146032D01*
X1800050Y145821D01*
X1800149Y145567D01*
X1800219Y145271D01*
X1800248Y145116D01*
Y144947D01*
Y144932D01*
Y144890D01*
Y144834D01*
X1800233Y144749D01*
X1800219Y144636D01*
X1800191Y144524D01*
X1800121Y144242D01*
X1800078Y144087D01*
X1800008Y143932D01*
X1799937Y143763D01*
X1799839Y143593D01*
X1799726Y143438D01*
X1799599Y143269D01*
X1799444Y143114D01*
X1799275Y142973D01*
X1799261Y142959D01*
X1799233Y142945D01*
X1799176Y142903D01*
X1799106Y142860D01*
X1799007Y142804D01*
X1798894Y142747D01*
X1798753Y142677D01*
X1798598Y142606D01*
X1798429Y142536D01*
X1798232Y142466D01*
X1798020Y142409D01*
X1797795Y142353D01*
X1797555Y142310D01*
X1797301Y142268D01*
X1797034Y142254D01*
X1796738Y142240D01*
X1796625D01*
X1796540Y142254D01*
X1796427D01*
X1796315Y142268D01*
X1796174Y142282D01*
X1796033Y142296D01*
X1795708Y142353D01*
X1795370Y142437D01*
X1795032Y142536D01*
X1794707Y142691D01*
X1794693D01*
X1794665Y142719D01*
X1794637Y142733D01*
X1794581Y142776D01*
X1794426Y142874D01*
X1794256Y143001D01*
X1794073Y143170D01*
X1793876Y143382D01*
X1793692Y143607D01*
X1793551Y143861D01*
Y143875D01*
X1793523Y143918D01*
X1793509Y143974D01*
X1793481Y144044D01*
X1793453Y144129D01*
X1793439Y144228D01*
X1793411Y144453D01*
Y144467D01*
Y144510D01*
X1793425Y144580D01*
X1793439Y144665D01*
X1793467Y144749D01*
X1793495Y144848D01*
X1793551Y144947D01*
X1793622Y145031D01*
X1793636Y145045D01*
X1793664Y145059D01*
X1793721Y145102D01*
X1793791Y145144D01*
X1793876Y145172D01*
X1793974Y145215D01*
X1794101Y145229D01*
X1794242Y145243D01*
X1794270D01*
X1794327Y145229D01*
X1794426Y145215D01*
X1794538Y145186D01*
X1794665Y145116D01*
X1794792Y145031D01*
X1794919Y144918D01*
X1795032Y144749D01*
X1795046Y144721D01*
X1795074Y144665D01*
X1795130Y144580D01*
X1795215Y144467D01*
X1795300Y144354D01*
X1795412Y144228D01*
X1795553Y144101D01*
X1795694Y144002D01*
X1795708Y143988D01*
X1795765Y143960D01*
X1795863Y143918D01*
X1795990Y143875D01*
X1796145Y143833D01*
X1796329Y143791D01*
X1796540Y143763D01*
X1796780Y143748D01*
X1796893D01*
X1797019Y143763D01*
X1797175Y143791D01*
X1797358Y143833D01*
X1797541Y143903D01*
X1797724Y143988D01*
X1797893Y144101D01*
X1797908Y144115D01*
X1797964Y144171D01*
X1798034Y144242D01*
X1798119Y144354D01*
X1798189Y144495D01*
X1798260Y144651D01*
X1798316Y144834D01*
X1798330Y145031D01*
Y145045D01*
Y145059D01*
Y145144D01*
X1798316Y145257D01*
X1798274Y145398D01*
X1798232Y145567D01*
X1798147Y145722D01*
X1798034Y145891D01*
X1797879Y146032D01*
X1797865Y146046D01*
X1797795Y146088D01*
X1797696Y146145D01*
X1797555Y146215D01*
X1797372Y146272D01*
X1797160Y146328D01*
X1796907Y146370D01*
X1796611Y146384D01*
X1796160D01*
X1796103Y146399D01*
X1796019Y146413D01*
X1795849Y146469D01*
X1795765Y146511D01*
X1795680Y146568D01*
X1795666Y146582D01*
X1795652Y146596D01*
X1795624Y146638D01*
X1795596Y146695D01*
X1795553Y146765D01*
X1795525Y146850D01*
X1795511Y146948D01*
X1795497Y147061D01*
Y147075D01*
Y147118D01*
X1795511Y147160D01*
X1795525Y147230D01*
X1795582Y147385D01*
X1795624Y147470D01*
X1795680Y147541D01*
X1795694Y147555D01*
X1795723Y147569D01*
X1795765Y147597D01*
X1795821Y147639D01*
X1795892Y147667D01*
X1795990Y147696D01*
X1796103Y147710D01*
X1796216Y147724D01*
X1796695D01*
X1796822Y147738D01*
X1796991Y147766D01*
X1797175Y147808D01*
X1797358Y147865D01*
X1797541Y147949D01*
X1797710Y148062D01*
X1797724Y148076D01*
X1797781Y148132D01*
X1797851Y148203D01*
X1797922Y148302D01*
X1798006Y148443D01*
X1798063Y148598D01*
X1798119Y148767D01*
X1798133Y148964D01*
Y148993D01*
Y149063D01*
X1798119Y149162D01*
X1798091Y149289D01*
X1798049Y149430D01*
X1797978Y149570D01*
X1797893Y149726D01*
X1797767Y149852D01*
X1797752Y149867D01*
X1797696Y149909D01*
X1797612Y149951D01*
X1797499Y150021D01*
X1797358Y150078D01*
X1797175Y150120D01*
X1796977Y150162D01*
X1796738Y150177D01*
X1796639D01*
X1796540Y150162D01*
X1796413Y150148D01*
X1796258Y150120D01*
X1796103Y150078D01*
X1795948Y150021D01*
X1795807Y149937D01*
X1795793Y149923D01*
X1795751Y149895D01*
X1795680Y149838D01*
X1795610Y149768D01*
X1795511Y149669D01*
X1795412Y149542D01*
X1795314Y149387D01*
X1795229Y149218D01*
Y149204D01*
X1795201Y149162D01*
X1795173Y149119D01*
X1795130Y149049D01*
X1795018Y148894D01*
X1794947Y148823D01*
X1794877Y148767D01*
X1794863D01*
X1794848Y148753D01*
X1794806Y148725D01*
X1794750Y148710D01*
X1794679Y148682D01*
X1794595Y148654D01*
X1794383Y148640D01*
X1794313D01*
X1794242Y148654D01*
X1794158Y148668D01*
X1793960Y148725D01*
X1793862Y148767D01*
X1793777Y148837D01*
X1793763Y148851D01*
X1793749Y148880D01*
X1793721Y148922D01*
X1793678Y148993D01*
X1793636Y149063D01*
X1793608Y149162D01*
X1793594Y149274D01*
X1793580Y149401D01*
Y149415D01*
Y149458D01*
X1793594Y149514D01*
Y149585D01*
X1793608Y149683D01*
X1793636Y149782D01*
X1793721Y150007D01*
Y150021D01*
X1793735Y150036D01*
X1793777Y150120D01*
X1793862Y150261D01*
X1793974Y150416D01*
X1794129Y150599D01*
X1794327Y150797D01*
X1794552Y150980D01*
X1794820Y151163D01*
X1794834D01*
X1794863Y151178D01*
X1794905Y151206D01*
X1794961Y151234D01*
X1795032Y151262D01*
X1795130Y151304D01*
X1795229Y151347D01*
X1795356Y151389D01*
X1795624Y151474D01*
X1795962Y151544D01*
X1796329Y151600D01*
X1796738Y151615D01*
X1796878D01*
X1796977Y151600D01*
D02*
G37*
G36*
X1781626Y151530D02*
X1781724Y151516D01*
X1781837Y151474D01*
X1781950Y151431D01*
X1782063Y151361D01*
X1782161Y151276D01*
X1782175Y151262D01*
X1782203Y151234D01*
X1782246Y151178D01*
X1782288Y151093D01*
X1782330Y150994D01*
X1782373Y150867D01*
X1782401Y150726D01*
X1782415Y150557D01*
Y143283D01*
Y143269D01*
Y143213D01*
X1782401Y143128D01*
X1782387Y143029D01*
X1782359Y142917D01*
X1782302Y142790D01*
X1782246Y142677D01*
X1782161Y142564D01*
X1782147Y142550D01*
X1782119Y142522D01*
X1782063Y142494D01*
X1781992Y142451D01*
X1781893Y142395D01*
X1781766Y142367D01*
X1781626Y142339D01*
X1781470Y142325D01*
X1781400D01*
X1781315Y142339D01*
X1781217Y142353D01*
X1781104Y142381D01*
X1780991Y142437D01*
X1780878Y142494D01*
X1780780Y142578D01*
X1780766Y142592D01*
X1780737Y142621D01*
X1780709Y142677D01*
X1780667Y142762D01*
X1780611Y142860D01*
X1780582Y142987D01*
X1780554Y143128D01*
X1780540Y143283D01*
Y150557D01*
Y150571D01*
Y150628D01*
X1780554Y150712D01*
X1780568Y150825D01*
X1780596Y150938D01*
X1780639Y151051D01*
X1780695Y151178D01*
X1780780Y151276D01*
X1780794Y151290D01*
X1780822Y151319D01*
X1780878Y151361D01*
X1780963Y151417D01*
X1781062Y151459D01*
X1781174Y151502D01*
X1781315Y151530D01*
X1781470Y151544D01*
X1781541D01*
X1781626Y151530D01*
D02*
G37*
G36*
X1788167Y151558D02*
X1788307D01*
X1788463Y151530D01*
X1788660Y151502D01*
X1788885Y151474D01*
X1789111Y151417D01*
X1789365Y151347D01*
X1789619Y151262D01*
X1789886Y151163D01*
X1790154Y151037D01*
X1790408Y150896D01*
X1790676Y150726D01*
X1790915Y150543D01*
X1791141Y150318D01*
X1791155Y150303D01*
X1791197Y150261D01*
X1791254Y150191D01*
X1791324Y150092D01*
X1791409Y149965D01*
X1791508Y149810D01*
X1791620Y149627D01*
X1791733Y149430D01*
X1791832Y149204D01*
X1791944Y148950D01*
X1792043Y148668D01*
X1792128Y148358D01*
X1792198Y148034D01*
X1792255Y147681D01*
X1792297Y147315D01*
X1792311Y146920D01*
Y146892D01*
Y146821D01*
X1792297Y146709D01*
Y146568D01*
X1792269Y146384D01*
X1792255Y146173D01*
X1792212Y145948D01*
X1792170Y145694D01*
X1792099Y145426D01*
X1792029Y145144D01*
X1791930Y144862D01*
X1791818Y144580D01*
X1791691Y144298D01*
X1791522Y144030D01*
X1791352Y143763D01*
X1791141Y143523D01*
X1791127Y143509D01*
X1791085Y143466D01*
X1791014Y143410D01*
X1790930Y143326D01*
X1790803Y143241D01*
X1790662Y143142D01*
X1790493Y143029D01*
X1790309Y142917D01*
X1790098Y142790D01*
X1789858Y142691D01*
X1789590Y142578D01*
X1789308Y142494D01*
X1789012Y142409D01*
X1788674Y142353D01*
X1788336Y142310D01*
X1787969Y142296D01*
X1787885D01*
X1787772Y142310D01*
X1787645D01*
X1787476Y142339D01*
X1787278Y142367D01*
X1787053Y142395D01*
X1786827Y142451D01*
X1786573Y142522D01*
X1786320Y142606D01*
X1786052Y142705D01*
X1785784Y142818D01*
X1785530Y142959D01*
X1785277Y143128D01*
X1785023Y143326D01*
X1784797Y143537D01*
X1784783Y143551D01*
X1784755Y143593D01*
X1784684Y143664D01*
X1784614Y143763D01*
X1784530Y143889D01*
X1784431Y144044D01*
X1784332Y144228D01*
X1784219Y144425D01*
X1784106Y144651D01*
X1784008Y144904D01*
X1783909Y145186D01*
X1783825Y145482D01*
X1783754Y145807D01*
X1783698Y146159D01*
X1783655Y146525D01*
X1783641Y146920D01*
Y146948D01*
Y147019D01*
X1783655Y147132D01*
Y147273D01*
X1783684Y147456D01*
X1783698Y147667D01*
X1783740Y147907D01*
X1783782Y148161D01*
X1783853Y148414D01*
X1783923Y148696D01*
X1784022Y148978D01*
X1784135Y149260D01*
X1784262Y149542D01*
X1784417Y149810D01*
X1784600Y150078D01*
X1784797Y150318D01*
X1784811Y150332D01*
X1784854Y150374D01*
X1784924Y150430D01*
X1785009Y150515D01*
X1785136Y150614D01*
X1785277Y150712D01*
X1785446Y150825D01*
X1785629Y150952D01*
X1785855Y151065D01*
X1786080Y151178D01*
X1786348Y151276D01*
X1786630Y151375D01*
X1786940Y151459D01*
X1787264Y151516D01*
X1787603Y151558D01*
X1787969Y151572D01*
X1788054D01*
X1788167Y151558D01*
D02*
G37*
G36*
X1818856Y136318D02*
X1818968D01*
X1819095Y136304D01*
X1819236Y136290D01*
X1819391Y136262D01*
X1819730Y136205D01*
X1820110Y136107D01*
X1820491Y135980D01*
X1820857Y135796D01*
X1820871D01*
X1820900Y135768D01*
X1820956Y135740D01*
X1821013Y135698D01*
X1821182Y135585D01*
X1821393Y135430D01*
X1821619Y135233D01*
X1821844Y135007D01*
X1822056Y134725D01*
X1822225Y134429D01*
Y134415D01*
X1822239Y134387D01*
X1822267Y134330D01*
X1822295Y134246D01*
X1822309Y134161D01*
X1822338Y134063D01*
X1822352Y133837D01*
Y133823D01*
Y133781D01*
X1822338Y133710D01*
X1822323Y133640D01*
X1822295Y133541D01*
X1822253Y133442D01*
X1822197Y133344D01*
X1822126Y133259D01*
X1822112Y133245D01*
X1822084Y133231D01*
X1822042Y133189D01*
X1821971Y133146D01*
X1821886Y133104D01*
X1821788Y133076D01*
X1821661Y133048D01*
X1821534Y133034D01*
X1821506D01*
X1821435Y133048D01*
X1821337Y133062D01*
X1821210Y133104D01*
X1821055Y133174D01*
X1820914Y133259D01*
X1820759Y133400D01*
X1820632Y133583D01*
X1820618Y133597D01*
X1820604Y133640D01*
X1820561Y133696D01*
X1820505Y133767D01*
X1820435Y133865D01*
X1820350Y133964D01*
X1820251Y134077D01*
X1820139Y134190D01*
X1819998Y134288D01*
X1819857Y134401D01*
X1819687Y134500D01*
X1819518Y134598D01*
X1819321Y134669D01*
X1819109Y134725D01*
X1818884Y134767D01*
X1818644Y134782D01*
X1818531D01*
X1818461Y134767D01*
X1818362Y134753D01*
X1818264Y134739D01*
X1818010Y134683D01*
X1817728Y134584D01*
X1817587Y134528D01*
X1817432Y134443D01*
X1817291Y134345D01*
X1817150Y134246D01*
X1817023Y134119D01*
X1816896Y133978D01*
Y133964D01*
X1816868Y133936D01*
X1816840Y133893D01*
X1816797Y133837D01*
X1816755Y133752D01*
X1816699Y133654D01*
X1816642Y133527D01*
X1816586Y133400D01*
X1816530Y133245D01*
X1816473Y133076D01*
X1816417Y132893D01*
X1816375Y132695D01*
X1816332Y132484D01*
X1816304Y132244D01*
X1816290Y132004D01*
X1816276Y131737D01*
Y131722D01*
Y131666D01*
Y131596D01*
X1816290Y131497D01*
Y131370D01*
X1816304Y131229D01*
X1816332Y131074D01*
X1816360Y130905D01*
X1816431Y130538D01*
X1816544Y130158D01*
X1816713Y129777D01*
X1816812Y129608D01*
X1816924Y129439D01*
X1816938Y129425D01*
X1816953Y129396D01*
X1816995Y129354D01*
X1817051Y129312D01*
X1817108Y129241D01*
X1817192Y129171D01*
X1817404Y129016D01*
X1817657Y128861D01*
X1817953Y128720D01*
X1818137Y128678D01*
X1818320Y128635D01*
X1818503Y128607D01*
X1818715Y128593D01*
X1818799D01*
X1818870Y128607D01*
X1818940D01*
X1819039Y128621D01*
X1819250Y128663D01*
X1819476Y128720D01*
X1819730Y128819D01*
X1819983Y128945D01*
X1820209Y129115D01*
X1820237Y129143D01*
X1820308Y129213D01*
X1820392Y129326D01*
X1820505Y129481D01*
X1820618Y129678D01*
X1820716Y129904D01*
X1820801Y130172D01*
X1820829Y130468D01*
X1820843Y130609D01*
X1819476D01*
X1819420Y130623D01*
X1819335Y130637D01*
X1819152Y130693D01*
X1819067Y130736D01*
X1818983Y130792D01*
X1818968Y130806D01*
X1818954Y130820D01*
X1818912Y130863D01*
X1818884Y130919D01*
X1818842Y130990D01*
X1818799Y131074D01*
X1818785Y131173D01*
X1818771Y131285D01*
Y131300D01*
Y131342D01*
X1818785Y131398D01*
X1818799Y131469D01*
X1818828Y131553D01*
X1818856Y131638D01*
X1818912Y131722D01*
X1818983Y131793D01*
X1818997Y131807D01*
X1819025Y131821D01*
X1819067Y131849D01*
X1819138Y131892D01*
X1819208Y131920D01*
X1819307Y131948D01*
X1819405Y131962D01*
X1819532Y131976D01*
X1821802D01*
X1821886Y131962D01*
X1821985Y131948D01*
X1822098Y131920D01*
X1822211Y131863D01*
X1822323Y131807D01*
X1822422Y131722D01*
X1822436Y131708D01*
X1822464Y131680D01*
X1822507Y131624D01*
X1822549Y131539D01*
X1822591Y131441D01*
X1822634Y131314D01*
X1822662Y131173D01*
X1822676Y131004D01*
Y130863D01*
Y130849D01*
Y130792D01*
Y130693D01*
X1822662Y130581D01*
X1822648Y130426D01*
X1822619Y130256D01*
X1822591Y130059D01*
X1822549Y129862D01*
X1822493Y129636D01*
X1822422Y129411D01*
X1822338Y129185D01*
X1822225Y128960D01*
X1822112Y128720D01*
X1821971Y128494D01*
X1821802Y128283D01*
X1821619Y128085D01*
X1821605Y128071D01*
X1821576Y128043D01*
X1821506Y127987D01*
X1821421Y127930D01*
X1821323Y127846D01*
X1821182Y127761D01*
X1821027Y127663D01*
X1820857Y127578D01*
X1820660Y127479D01*
X1820435Y127381D01*
X1820195Y127296D01*
X1819941Y127212D01*
X1819659Y127155D01*
X1819349Y127099D01*
X1819025Y127071D01*
X1818687Y127056D01*
X1818602D01*
X1818489Y127071D01*
X1818348D01*
X1818179Y127099D01*
X1817982Y127127D01*
X1817770Y127155D01*
X1817531Y127212D01*
X1817291Y127282D01*
X1817023Y127352D01*
X1816769Y127451D01*
X1816501Y127578D01*
X1816234Y127719D01*
X1815980Y127874D01*
X1815740Y128071D01*
X1815515Y128283D01*
X1815501Y128297D01*
X1815472Y128339D01*
X1815402Y128410D01*
X1815331Y128508D01*
X1815247Y128635D01*
X1815148Y128790D01*
X1815049Y128974D01*
X1814937Y129171D01*
X1814824Y129411D01*
X1814725Y129664D01*
X1814626Y129946D01*
X1814542Y130256D01*
X1814471Y130581D01*
X1814415Y130933D01*
X1814373Y131314D01*
X1814359Y131708D01*
Y131737D01*
Y131807D01*
X1814373Y131920D01*
Y132061D01*
X1814401Y132244D01*
X1814415Y132456D01*
X1814457Y132695D01*
X1814500Y132935D01*
X1814556Y133203D01*
X1814641Y133485D01*
X1814725Y133767D01*
X1814838Y134049D01*
X1814965Y134330D01*
X1815120Y134598D01*
X1815303Y134852D01*
X1815501Y135092D01*
X1815515Y135106D01*
X1815557Y135148D01*
X1815627Y135204D01*
X1815712Y135289D01*
X1815825Y135374D01*
X1815966Y135486D01*
X1816135Y135599D01*
X1816332Y135712D01*
X1816544Y135825D01*
X1816783Y135938D01*
X1817037Y136050D01*
X1817319Y136135D01*
X1817615Y136219D01*
X1817939Y136276D01*
X1818278Y136318D01*
X1818644Y136332D01*
X1818771D01*
X1818856Y136318D01*
D02*
G37*
G36*
X1809199Y135359D02*
X1809270Y135345D01*
X1809354Y135317D01*
X1809453Y135275D01*
X1809538Y135219D01*
X1809636Y135134D01*
X1812427Y132385D01*
X1812442Y132371D01*
X1812470Y132343D01*
X1812498Y132301D01*
X1812540Y132230D01*
X1812583Y132145D01*
X1812625Y132047D01*
X1812639Y131934D01*
X1812653Y131807D01*
Y131793D01*
Y131751D01*
X1812639Y131694D01*
X1812625Y131610D01*
X1812597Y131525D01*
X1812554Y131426D01*
X1812498Y131328D01*
X1812427Y131243D01*
X1809636Y128480D01*
X1809622Y128466D01*
X1809594Y128438D01*
X1809552Y128410D01*
X1809481Y128367D01*
X1809397Y128311D01*
X1809312Y128283D01*
X1809199Y128255D01*
X1809086Y128240D01*
X1809030D01*
X1808974Y128255D01*
X1808889Y128269D01*
X1808706Y128325D01*
X1808621Y128367D01*
X1808537Y128438D01*
X1808522Y128452D01*
X1808508Y128480D01*
X1808480Y128523D01*
X1808438Y128579D01*
X1808396Y128663D01*
X1808367Y128748D01*
X1808353Y128861D01*
X1808339Y128974D01*
Y128988D01*
Y129030D01*
X1808353Y129086D01*
X1808367Y129157D01*
X1808396Y129241D01*
X1808438Y129340D01*
X1808494Y129425D01*
X1808579Y129523D01*
X1809664Y130581D01*
X1810285Y131088D01*
X1809270Y131046D01*
X1805421D01*
X1804420Y131088D01*
X1805027Y130581D01*
X1806112Y129523D01*
X1806126Y129509D01*
X1806154Y129481D01*
X1806196Y129425D01*
X1806239Y129368D01*
X1806281Y129284D01*
X1806323Y129185D01*
X1806352Y129086D01*
X1806366Y128974D01*
Y128960D01*
Y128917D01*
X1806352Y128861D01*
X1806337Y128790D01*
X1806309Y128706D01*
X1806281Y128607D01*
X1806225Y128523D01*
X1806154Y128438D01*
X1806140Y128424D01*
X1806112Y128410D01*
X1806070Y128382D01*
X1806013Y128339D01*
X1805929Y128297D01*
X1805844Y128269D01*
X1805731Y128255D01*
X1805619Y128240D01*
X1805562D01*
X1805506Y128255D01*
X1805435Y128269D01*
X1805351Y128297D01*
X1805252Y128339D01*
X1805168Y128396D01*
X1805069Y128480D01*
X1802278Y131243D01*
X1802263Y131257D01*
X1802249Y131285D01*
X1802207Y131328D01*
X1802165Y131398D01*
X1802122Y131483D01*
X1802094Y131581D01*
X1802066Y131680D01*
X1802052Y131807D01*
Y131821D01*
Y131863D01*
X1802066Y131934D01*
X1802080Y132018D01*
X1802108Y132103D01*
X1802151Y132202D01*
X1802207Y132301D01*
X1802278Y132385D01*
X1805069Y135134D01*
X1805083Y135148D01*
X1805111Y135176D01*
X1805168Y135204D01*
X1805224Y135261D01*
X1805308Y135303D01*
X1805407Y135331D01*
X1805506Y135359D01*
X1805619Y135374D01*
X1805675D01*
X1805731Y135359D01*
X1805802Y135345D01*
X1805886Y135317D01*
X1805985Y135289D01*
X1806070Y135233D01*
X1806154Y135162D01*
X1806168Y135148D01*
X1806182Y135120D01*
X1806225Y135078D01*
X1806267Y135021D01*
X1806295Y134951D01*
X1806337Y134866D01*
X1806352Y134753D01*
X1806366Y134641D01*
Y134627D01*
Y134584D01*
X1806352Y134528D01*
X1806337Y134457D01*
X1806309Y134373D01*
X1806253Y134288D01*
X1806196Y134190D01*
X1806112Y134091D01*
X1805027Y133034D01*
X1804420Y132540D01*
X1805421Y132582D01*
X1809270D01*
X1810285Y132540D01*
X1809664Y133034D01*
X1808579Y134091D01*
X1808565Y134105D01*
X1808537Y134133D01*
X1808508Y134190D01*
X1808466Y134260D01*
X1808382Y134429D01*
X1808353Y134528D01*
X1808339Y134641D01*
Y134655D01*
Y134697D01*
X1808353Y134753D01*
X1808367Y134824D01*
X1808424Y134993D01*
X1808466Y135078D01*
X1808537Y135162D01*
X1808551Y135176D01*
X1808579Y135190D01*
X1808621Y135233D01*
X1808692Y135275D01*
X1808762Y135303D01*
X1808861Y135345D01*
X1808960Y135359D01*
X1809086Y135374D01*
X1809143D01*
X1809199Y135359D01*
D02*
G37*
G36*
X1830768Y136290D02*
X1830866Y136276D01*
X1830979Y136248D01*
X1831092Y136191D01*
X1831190Y136135D01*
X1831289Y136050D01*
X1831303Y136036D01*
X1831331Y136008D01*
X1831360Y135952D01*
X1831416Y135881D01*
X1831458Y135782D01*
X1831487Y135656D01*
X1831515Y135515D01*
X1831529Y135359D01*
Y127987D01*
Y127973D01*
Y127916D01*
X1831515Y127832D01*
X1831501Y127733D01*
X1831472Y127634D01*
X1831430Y127522D01*
X1831374Y127409D01*
X1831289Y127310D01*
X1831275Y127296D01*
X1831247Y127282D01*
X1831190Y127240D01*
X1831120Y127197D01*
X1831021Y127155D01*
X1830909Y127127D01*
X1830768Y127099D01*
X1830612Y127085D01*
X1830500D01*
X1830429Y127099D01*
X1830260Y127127D01*
X1830091Y127197D01*
X1830077D01*
X1830049Y127226D01*
X1830006Y127254D01*
X1829964Y127296D01*
X1829894Y127352D01*
X1829823Y127423D01*
X1829753Y127507D01*
X1829668Y127620D01*
X1825763Y133076D01*
X1825707D01*
Y128015D01*
Y128001D01*
Y127944D01*
X1825693Y127860D01*
X1825679Y127761D01*
X1825650Y127648D01*
X1825608Y127536D01*
X1825552Y127423D01*
X1825467Y127324D01*
X1825453Y127310D01*
X1825425Y127282D01*
X1825368Y127254D01*
X1825298Y127212D01*
X1825213Y127155D01*
X1825101Y127127D01*
X1824974Y127099D01*
X1824819Y127085D01*
X1824748D01*
X1824678Y127099D01*
X1824579Y127113D01*
X1824466Y127141D01*
X1824368Y127183D01*
X1824255Y127240D01*
X1824156Y127324D01*
X1824142Y127338D01*
X1824114Y127367D01*
X1824086Y127423D01*
X1824043Y127507D01*
X1823987Y127592D01*
X1823959Y127719D01*
X1823931Y127860D01*
X1823916Y128015D01*
Y135359D01*
Y135374D01*
Y135430D01*
X1823931Y135515D01*
X1823945Y135613D01*
X1823973Y135726D01*
X1824015Y135839D01*
X1824072Y135952D01*
X1824156Y136050D01*
X1824170Y136064D01*
X1824198Y136093D01*
X1824255Y136135D01*
X1824339Y136177D01*
X1824438Y136219D01*
X1824565Y136262D01*
X1824706Y136290D01*
X1824861Y136304D01*
X1824960D01*
X1825030Y136290D01*
X1825185Y136248D01*
X1825354Y136177D01*
X1825368D01*
X1825397Y136149D01*
X1825439Y136121D01*
X1825495Y136079D01*
X1825566Y136022D01*
X1825636Y135952D01*
X1825707Y135853D01*
X1825791Y135754D01*
X1829682Y130327D01*
X1829724D01*
Y135359D01*
Y135374D01*
Y135430D01*
X1829738Y135515D01*
X1829753Y135613D01*
X1829781Y135726D01*
X1829823Y135839D01*
X1829879Y135952D01*
X1829964Y136050D01*
X1829978Y136064D01*
X1830006Y136093D01*
X1830063Y136135D01*
X1830133Y136177D01*
X1830232Y136219D01*
X1830345Y136262D01*
X1830472Y136290D01*
X1830627Y136304D01*
X1830697D01*
X1830768Y136290D01*
D02*
G37*
G36*
X1796977Y136360D02*
X1797090D01*
X1797231Y136346D01*
X1797386Y136318D01*
X1797555Y136290D01*
X1797922Y136219D01*
X1798302Y136107D01*
X1798683Y135938D01*
X1798866Y135839D01*
X1799035Y135726D01*
X1799049Y135712D01*
X1799078Y135698D01*
X1799120Y135656D01*
X1799176Y135613D01*
X1799317Y135458D01*
X1799472Y135261D01*
X1799627Y135021D01*
X1799768Y134725D01*
X1799825Y134556D01*
X1799867Y134373D01*
X1799895Y134190D01*
X1799909Y133992D01*
Y133978D01*
Y133950D01*
Y133907D01*
X1799895Y133851D01*
X1799881Y133710D01*
X1799839Y133513D01*
X1799782Y133301D01*
X1799684Y133062D01*
X1799557Y132836D01*
X1799388Y132611D01*
X1799359Y132582D01*
X1799289Y132526D01*
X1799176Y132427D01*
X1799021Y132315D01*
X1798824Y132188D01*
X1798598Y132075D01*
X1798330Y131976D01*
X1798034Y131892D01*
Y131849D01*
X1798077D01*
X1798133Y131835D01*
X1798203Y131821D01*
X1798288Y131807D01*
X1798387Y131793D01*
X1798612Y131737D01*
X1798880Y131652D01*
X1799148Y131539D01*
X1799402Y131384D01*
X1799641Y131187D01*
X1799655D01*
X1799670Y131159D01*
X1799740Y131088D01*
X1799839Y130961D01*
X1799952Y130792D01*
X1800050Y130581D01*
X1800149Y130327D01*
X1800219Y130031D01*
X1800248Y129876D01*
Y129707D01*
Y129692D01*
Y129650D01*
Y129594D01*
X1800233Y129509D01*
X1800219Y129396D01*
X1800191Y129284D01*
X1800121Y129002D01*
X1800078Y128847D01*
X1800008Y128692D01*
X1799937Y128523D01*
X1799839Y128353D01*
X1799726Y128198D01*
X1799599Y128029D01*
X1799444Y127874D01*
X1799275Y127733D01*
X1799261Y127719D01*
X1799233Y127705D01*
X1799176Y127663D01*
X1799106Y127620D01*
X1799007Y127564D01*
X1798894Y127507D01*
X1798753Y127437D01*
X1798598Y127367D01*
X1798429Y127296D01*
X1798232Y127226D01*
X1798020Y127169D01*
X1797795Y127113D01*
X1797555Y127071D01*
X1797301Y127028D01*
X1797034Y127014D01*
X1796738Y127000D01*
X1796625D01*
X1796540Y127014D01*
X1796427D01*
X1796315Y127028D01*
X1796174Y127042D01*
X1796033Y127056D01*
X1795708Y127113D01*
X1795370Y127197D01*
X1795032Y127296D01*
X1794707Y127451D01*
X1794693D01*
X1794665Y127479D01*
X1794637Y127493D01*
X1794581Y127536D01*
X1794426Y127634D01*
X1794256Y127761D01*
X1794073Y127930D01*
X1793876Y128142D01*
X1793692Y128367D01*
X1793551Y128621D01*
Y128635D01*
X1793523Y128678D01*
X1793509Y128734D01*
X1793481Y128804D01*
X1793453Y128889D01*
X1793439Y128988D01*
X1793411Y129213D01*
Y129227D01*
Y129270D01*
X1793425Y129340D01*
X1793439Y129425D01*
X1793467Y129509D01*
X1793495Y129608D01*
X1793551Y129707D01*
X1793622Y129791D01*
X1793636Y129805D01*
X1793664Y129819D01*
X1793721Y129862D01*
X1793791Y129904D01*
X1793876Y129932D01*
X1793974Y129974D01*
X1794101Y129989D01*
X1794242Y130003D01*
X1794270D01*
X1794327Y129989D01*
X1794426Y129974D01*
X1794538Y129946D01*
X1794665Y129876D01*
X1794792Y129791D01*
X1794919Y129678D01*
X1795032Y129509D01*
X1795046Y129481D01*
X1795074Y129425D01*
X1795130Y129340D01*
X1795215Y129227D01*
X1795300Y129115D01*
X1795412Y128988D01*
X1795553Y128861D01*
X1795694Y128762D01*
X1795708Y128748D01*
X1795765Y128720D01*
X1795863Y128678D01*
X1795990Y128635D01*
X1796145Y128593D01*
X1796329Y128551D01*
X1796540Y128523D01*
X1796780Y128508D01*
X1796893D01*
X1797019Y128523D01*
X1797175Y128551D01*
X1797358Y128593D01*
X1797541Y128663D01*
X1797724Y128748D01*
X1797893Y128861D01*
X1797908Y128875D01*
X1797964Y128931D01*
X1798034Y129002D01*
X1798119Y129115D01*
X1798189Y129256D01*
X1798260Y129411D01*
X1798316Y129594D01*
X1798330Y129791D01*
Y129805D01*
Y129819D01*
Y129904D01*
X1798316Y130017D01*
X1798274Y130158D01*
X1798232Y130327D01*
X1798147Y130482D01*
X1798034Y130651D01*
X1797879Y130792D01*
X1797865Y130806D01*
X1797795Y130849D01*
X1797696Y130905D01*
X1797555Y130975D01*
X1797372Y131032D01*
X1797160Y131088D01*
X1796907Y131130D01*
X1796611Y131145D01*
X1796160D01*
X1796103Y131159D01*
X1796019Y131173D01*
X1795849Y131229D01*
X1795765Y131271D01*
X1795680Y131328D01*
X1795666Y131342D01*
X1795652Y131356D01*
X1795624Y131398D01*
X1795596Y131455D01*
X1795553Y131525D01*
X1795525Y131610D01*
X1795511Y131708D01*
X1795497Y131821D01*
Y131835D01*
Y131878D01*
X1795511Y131920D01*
X1795525Y131990D01*
X1795582Y132145D01*
X1795624Y132230D01*
X1795680Y132301D01*
X1795694Y132315D01*
X1795723Y132329D01*
X1795765Y132357D01*
X1795821Y132399D01*
X1795892Y132427D01*
X1795990Y132456D01*
X1796103Y132470D01*
X1796216Y132484D01*
X1796695D01*
X1796822Y132498D01*
X1796991Y132526D01*
X1797175Y132568D01*
X1797358Y132625D01*
X1797541Y132709D01*
X1797710Y132822D01*
X1797724Y132836D01*
X1797781Y132893D01*
X1797851Y132963D01*
X1797922Y133062D01*
X1798006Y133203D01*
X1798063Y133358D01*
X1798119Y133527D01*
X1798133Y133724D01*
Y133752D01*
Y133823D01*
X1798119Y133922D01*
X1798091Y134049D01*
X1798049Y134190D01*
X1797978Y134330D01*
X1797893Y134486D01*
X1797767Y134612D01*
X1797752Y134627D01*
X1797696Y134669D01*
X1797612Y134711D01*
X1797499Y134782D01*
X1797358Y134838D01*
X1797175Y134880D01*
X1796977Y134923D01*
X1796738Y134937D01*
X1796639D01*
X1796540Y134923D01*
X1796413Y134908D01*
X1796258Y134880D01*
X1796103Y134838D01*
X1795948Y134782D01*
X1795807Y134697D01*
X1795793Y134683D01*
X1795751Y134655D01*
X1795680Y134598D01*
X1795610Y134528D01*
X1795511Y134429D01*
X1795412Y134302D01*
X1795314Y134147D01*
X1795229Y133978D01*
Y133964D01*
X1795201Y133922D01*
X1795173Y133879D01*
X1795130Y133809D01*
X1795018Y133654D01*
X1794947Y133583D01*
X1794877Y133527D01*
X1794863D01*
X1794848Y133513D01*
X1794806Y133485D01*
X1794750Y133470D01*
X1794679Y133442D01*
X1794595Y133414D01*
X1794383Y133400D01*
X1794313D01*
X1794242Y133414D01*
X1794158Y133428D01*
X1793960Y133485D01*
X1793862Y133527D01*
X1793777Y133597D01*
X1793763Y133611D01*
X1793749Y133640D01*
X1793721Y133682D01*
X1793678Y133752D01*
X1793636Y133823D01*
X1793608Y133922D01*
X1793594Y134034D01*
X1793580Y134161D01*
Y134175D01*
Y134218D01*
X1793594Y134274D01*
Y134345D01*
X1793608Y134443D01*
X1793636Y134542D01*
X1793721Y134767D01*
Y134782D01*
X1793735Y134796D01*
X1793777Y134880D01*
X1793862Y135021D01*
X1793974Y135176D01*
X1794129Y135359D01*
X1794327Y135557D01*
X1794552Y135740D01*
X1794820Y135923D01*
X1794834D01*
X1794863Y135938D01*
X1794905Y135966D01*
X1794961Y135994D01*
X1795032Y136022D01*
X1795130Y136064D01*
X1795229Y136107D01*
X1795356Y136149D01*
X1795624Y136234D01*
X1795962Y136304D01*
X1796329Y136360D01*
X1796738Y136375D01*
X1796878D01*
X1796977Y136360D01*
D02*
G37*
G36*
X1836646Y136163D02*
X1836787D01*
X1836956Y136135D01*
X1837154Y136121D01*
X1837365Y136079D01*
X1837605Y136036D01*
X1837858Y135966D01*
X1838112Y135895D01*
X1838380Y135796D01*
X1838634Y135684D01*
X1838902Y135557D01*
X1839141Y135388D01*
X1839381Y135219D01*
X1839606Y135007D01*
X1839621Y134993D01*
X1839649Y134951D01*
X1839705Y134880D01*
X1839790Y134796D01*
X1839874Y134669D01*
X1839959Y134528D01*
X1840072Y134359D01*
X1840170Y134161D01*
X1840269Y133950D01*
X1840382Y133696D01*
X1840466Y133428D01*
X1840565Y133132D01*
X1840636Y132822D01*
X1840692Y132470D01*
X1840720Y132117D01*
X1840734Y131722D01*
Y131694D01*
Y131624D01*
Y131511D01*
X1840720Y131370D01*
X1840706Y131187D01*
X1840678Y130975D01*
X1840636Y130750D01*
X1840593Y130496D01*
X1840537Y130242D01*
X1840466Y129960D01*
X1840368Y129692D01*
X1840255Y129411D01*
X1840128Y129129D01*
X1839973Y128875D01*
X1839804Y128621D01*
X1839606Y128382D01*
X1839592Y128367D01*
X1839550Y128325D01*
X1839494Y128269D01*
X1839395Y128198D01*
X1839282Y128114D01*
X1839141Y128001D01*
X1838972Y127902D01*
X1838789Y127789D01*
X1838577Y127677D01*
X1838338Y127578D01*
X1838084Y127479D01*
X1837802Y127381D01*
X1837492Y127310D01*
X1837168Y127254D01*
X1836815Y127212D01*
X1836449Y127197D01*
X1833883D01*
X1833799Y127212D01*
X1833700Y127226D01*
X1833587Y127254D01*
X1833474Y127310D01*
X1833362Y127367D01*
X1833263Y127451D01*
X1833249Y127465D01*
X1833221Y127493D01*
X1833192Y127550D01*
X1833150Y127634D01*
X1833094Y127733D01*
X1833065Y127860D01*
X1833037Y128001D01*
X1833023Y128170D01*
Y135204D01*
Y135219D01*
Y135275D01*
X1833037Y135359D01*
X1833051Y135458D01*
X1833080Y135571D01*
X1833122Y135698D01*
X1833178Y135811D01*
X1833263Y135909D01*
X1833277Y135923D01*
X1833305Y135952D01*
X1833362Y135994D01*
X1833446Y136050D01*
X1833545Y136093D01*
X1833658Y136135D01*
X1833799Y136163D01*
X1833954Y136177D01*
X1836533D01*
X1836646Y136163D01*
D02*
G37*
G36*
X1781626Y136290D02*
X1781724Y136276D01*
X1781837Y136234D01*
X1781950Y136191D01*
X1782063Y136121D01*
X1782161Y136036D01*
X1782175Y136022D01*
X1782203Y135994D01*
X1782246Y135938D01*
X1782288Y135853D01*
X1782330Y135754D01*
X1782373Y135627D01*
X1782401Y135486D01*
X1782415Y135317D01*
Y128043D01*
Y128029D01*
Y127973D01*
X1782401Y127888D01*
X1782387Y127789D01*
X1782359Y127677D01*
X1782302Y127550D01*
X1782246Y127437D01*
X1782161Y127324D01*
X1782147Y127310D01*
X1782119Y127282D01*
X1782063Y127254D01*
X1781992Y127212D01*
X1781893Y127155D01*
X1781766Y127127D01*
X1781626Y127099D01*
X1781470Y127085D01*
X1781400D01*
X1781315Y127099D01*
X1781217Y127113D01*
X1781104Y127141D01*
X1780991Y127197D01*
X1780878Y127254D01*
X1780780Y127338D01*
X1780766Y127352D01*
X1780737Y127381D01*
X1780709Y127437D01*
X1780667Y127522D01*
X1780611Y127620D01*
X1780582Y127747D01*
X1780554Y127888D01*
X1780540Y128043D01*
Y135317D01*
Y135331D01*
Y135388D01*
X1780554Y135472D01*
X1780568Y135585D01*
X1780596Y135698D01*
X1780639Y135811D01*
X1780695Y135938D01*
X1780780Y136036D01*
X1780794Y136050D01*
X1780822Y136079D01*
X1780878Y136121D01*
X1780963Y136177D01*
X1781062Y136219D01*
X1781174Y136262D01*
X1781315Y136290D01*
X1781470Y136304D01*
X1781541D01*
X1781626Y136290D01*
D02*
G37*
G36*
X1788167Y136318D02*
X1788307D01*
X1788463Y136290D01*
X1788660Y136262D01*
X1788885Y136234D01*
X1789111Y136177D01*
X1789365Y136107D01*
X1789619Y136022D01*
X1789886Y135923D01*
X1790154Y135796D01*
X1790408Y135656D01*
X1790676Y135486D01*
X1790915Y135303D01*
X1791141Y135078D01*
X1791155Y135063D01*
X1791197Y135021D01*
X1791254Y134951D01*
X1791324Y134852D01*
X1791409Y134725D01*
X1791508Y134570D01*
X1791620Y134387D01*
X1791733Y134190D01*
X1791832Y133964D01*
X1791944Y133710D01*
X1792043Y133428D01*
X1792128Y133118D01*
X1792198Y132794D01*
X1792255Y132441D01*
X1792297Y132075D01*
X1792311Y131680D01*
Y131652D01*
Y131581D01*
X1792297Y131469D01*
Y131328D01*
X1792269Y131145D01*
X1792255Y130933D01*
X1792212Y130708D01*
X1792170Y130454D01*
X1792099Y130186D01*
X1792029Y129904D01*
X1791930Y129622D01*
X1791818Y129340D01*
X1791691Y129058D01*
X1791522Y128790D01*
X1791352Y128523D01*
X1791141Y128283D01*
X1791127Y128269D01*
X1791085Y128226D01*
X1791014Y128170D01*
X1790930Y128085D01*
X1790803Y128001D01*
X1790662Y127902D01*
X1790493Y127789D01*
X1790309Y127677D01*
X1790098Y127550D01*
X1789858Y127451D01*
X1789590Y127338D01*
X1789308Y127254D01*
X1789012Y127169D01*
X1788674Y127113D01*
X1788336Y127071D01*
X1787969Y127056D01*
X1787885D01*
X1787772Y127071D01*
X1787645D01*
X1787476Y127099D01*
X1787278Y127127D01*
X1787053Y127155D01*
X1786827Y127212D01*
X1786573Y127282D01*
X1786320Y127367D01*
X1786052Y127465D01*
X1785784Y127578D01*
X1785530Y127719D01*
X1785277Y127888D01*
X1785023Y128085D01*
X1784797Y128297D01*
X1784783Y128311D01*
X1784755Y128353D01*
X1784684Y128424D01*
X1784614Y128523D01*
X1784530Y128649D01*
X1784431Y128804D01*
X1784332Y128988D01*
X1784219Y129185D01*
X1784106Y129411D01*
X1784008Y129664D01*
X1783909Y129946D01*
X1783825Y130242D01*
X1783754Y130567D01*
X1783698Y130919D01*
X1783655Y131285D01*
X1783641Y131680D01*
Y131708D01*
Y131779D01*
X1783655Y131892D01*
Y132033D01*
X1783684Y132216D01*
X1783698Y132427D01*
X1783740Y132667D01*
X1783782Y132921D01*
X1783853Y133174D01*
X1783923Y133456D01*
X1784022Y133738D01*
X1784135Y134020D01*
X1784262Y134302D01*
X1784417Y134570D01*
X1784600Y134838D01*
X1784797Y135078D01*
X1784811Y135092D01*
X1784854Y135134D01*
X1784924Y135190D01*
X1785009Y135275D01*
X1785136Y135374D01*
X1785277Y135472D01*
X1785446Y135585D01*
X1785629Y135712D01*
X1785855Y135825D01*
X1786080Y135938D01*
X1786348Y136036D01*
X1786630Y136135D01*
X1786940Y136219D01*
X1787264Y136276D01*
X1787603Y136318D01*
X1787969Y136332D01*
X1788054D01*
X1788167Y136318D01*
D02*
G37*
G36*
X1864473Y97776D02*
X1864600Y97734D01*
X1864727Y97663D01*
X1864741D01*
X1864755Y97635D01*
X1864839Y97564D01*
X1864924Y97466D01*
X1865022Y97311D01*
X1867983Y91136D01*
Y91122D01*
X1867997Y91094D01*
X1868025Y91052D01*
X1868053Y90981D01*
X1868096Y90840D01*
X1868110Y90671D01*
Y90615D01*
X1868096Y90558D01*
X1868082Y90488D01*
X1868053Y90417D01*
X1868025Y90333D01*
X1867969Y90248D01*
X1867898Y90178D01*
X1867884Y90163D01*
X1867856Y90149D01*
X1867814Y90121D01*
X1867743Y90079D01*
X1867659Y90037D01*
X1867560Y90008D01*
X1867447Y89994D01*
X1867320Y89980D01*
X1861371D01*
X1861357D01*
X1861315D01*
X1861245Y89994D01*
X1861160Y90008D01*
X1860977Y90065D01*
X1860878Y90107D01*
X1860793Y90178D01*
X1860779Y90192D01*
X1860765Y90206D01*
X1860723Y90248D01*
X1860695Y90304D01*
X1860652Y90375D01*
X1860610Y90459D01*
X1860596Y90558D01*
X1860582Y90671D01*
Y90713D01*
X1860596Y90756D01*
Y90812D01*
X1860638Y90967D01*
X1860709Y91136D01*
X1863669Y97311D01*
Y97325D01*
X1863683Y97353D01*
X1863754Y97437D01*
X1863838Y97550D01*
X1863965Y97663D01*
X1863979D01*
X1863994Y97677D01*
X1864078Y97719D01*
X1864205Y97776D01*
X1864346Y97790D01*
X1864360D01*
X1864388D01*
X1864473Y97776D01*
D02*
G37*
G36*
X1868194Y86005D02*
X1868279Y85991D01*
X1868363Y85963D01*
X1868462Y85920D01*
X1868547Y85864D01*
X1868631Y85793D01*
X1868645Y85779D01*
X1868660Y85751D01*
X1868702Y85695D01*
X1868744Y85624D01*
X1868772Y85540D01*
X1868815Y85441D01*
X1868829Y85314D01*
X1868843Y85173D01*
Y79492D01*
X1868829Y79436D01*
X1868815Y79337D01*
X1868786Y79252D01*
X1868758Y79140D01*
X1868702Y79041D01*
X1868631Y78956D01*
X1868617Y78942D01*
X1868589Y78914D01*
X1868547Y78886D01*
X1868490Y78829D01*
X1868406Y78787D01*
X1868307Y78759D01*
X1868194Y78731D01*
X1868067Y78717D01*
X1868053D01*
X1868011D01*
X1867941Y78731D01*
X1867856Y78745D01*
X1867771Y78773D01*
X1867673Y78815D01*
X1867574Y78872D01*
X1867489Y78956D01*
X1867475Y78970D01*
X1867461Y78999D01*
X1867433Y79041D01*
X1867391Y79111D01*
X1867348Y79196D01*
X1867320Y79309D01*
X1867306Y79422D01*
X1867292Y79563D01*
Y81438D01*
X1860709D01*
X1860695D01*
X1860638D01*
X1860554Y81452D01*
X1860455Y81466D01*
X1860342Y81494D01*
X1860215Y81536D01*
X1860103Y81593D01*
X1859990Y81677D01*
X1859976Y81691D01*
X1859948Y81719D01*
X1859919Y81776D01*
X1859877Y81860D01*
X1859821Y81959D01*
X1859792Y82086D01*
X1859764Y82227D01*
X1859750Y82382D01*
Y82452D01*
X1859764Y82537D01*
X1859778Y82636D01*
X1859807Y82748D01*
X1859863Y82861D01*
X1859919Y82974D01*
X1860004Y83073D01*
X1860018Y83087D01*
X1860046Y83115D01*
X1860103Y83143D01*
X1860187Y83186D01*
X1860286Y83242D01*
X1860413Y83270D01*
X1860554Y83298D01*
X1860709Y83312D01*
X1867292D01*
Y85230D01*
X1867306Y85300D01*
X1867320Y85399D01*
X1867377Y85596D01*
X1867419Y85695D01*
X1867489Y85793D01*
X1867504Y85808D01*
X1867532Y85822D01*
X1867574Y85864D01*
X1867645Y85906D01*
X1867729Y85948D01*
X1867828Y85977D01*
X1867941Y86005D01*
X1868067Y86019D01*
X1868082D01*
X1868124D01*
X1868194Y86005D01*
D02*
G37*
G36*
X1864571Y78054D02*
X1864712D01*
X1864896Y78026D01*
X1865107Y78012D01*
X1865347Y77970D01*
X1865600Y77927D01*
X1865854Y77871D01*
X1866136Y77786D01*
X1866418Y77702D01*
X1866700Y77589D01*
X1866982Y77462D01*
X1867250Y77307D01*
X1867518Y77124D01*
X1867757Y76926D01*
X1867771Y76912D01*
X1867814Y76870D01*
X1867870Y76814D01*
X1867955Y76715D01*
X1868039Y76602D01*
X1868152Y76461D01*
X1868265Y76292D01*
X1868378Y76109D01*
X1868490Y75897D01*
X1868603Y75672D01*
X1868716Y75418D01*
X1868801Y75136D01*
X1868885Y74840D01*
X1868941Y74530D01*
X1868984Y74192D01*
X1868998Y73839D01*
Y73712D01*
X1868984Y73628D01*
Y73515D01*
X1868970Y73388D01*
X1868956Y73247D01*
X1868927Y73092D01*
X1868871Y72754D01*
X1868772Y72387D01*
X1868645Y72007D01*
X1868462Y71640D01*
Y71626D01*
X1868434Y71598D01*
X1868406Y71556D01*
X1868363Y71485D01*
X1868237Y71316D01*
X1868067Y71104D01*
X1867856Y70879D01*
X1867602Y70653D01*
X1867292Y70428D01*
X1866954Y70230D01*
X1866940Y70216D01*
X1866897Y70202D01*
X1866827Y70174D01*
X1866728Y70132D01*
X1866630Y70104D01*
X1866503Y70075D01*
X1866376Y70061D01*
X1866249Y70047D01*
X1866235D01*
X1866193D01*
X1866122Y70061D01*
X1866037Y70075D01*
X1865939Y70104D01*
X1865840Y70146D01*
X1865741Y70202D01*
X1865657Y70273D01*
X1865643Y70287D01*
X1865629Y70315D01*
X1865586Y70357D01*
X1865558Y70428D01*
X1865516Y70512D01*
X1865474Y70625D01*
X1865459Y70738D01*
X1865445Y70879D01*
Y70935D01*
X1865459Y70992D01*
Y71062D01*
X1865502Y71231D01*
X1865586Y71414D01*
X1865600Y71429D01*
X1865615Y71443D01*
X1865657Y71485D01*
X1865699Y71541D01*
X1865770Y71598D01*
X1865854Y71654D01*
X1865953Y71725D01*
X1866066Y71781D01*
X1866080D01*
X1866094Y71795D01*
X1866178Y71837D01*
X1866305Y71908D01*
X1866446Y71993D01*
X1866615Y72119D01*
X1866785Y72260D01*
X1866954Y72429D01*
X1867095Y72613D01*
X1867109Y72641D01*
X1867151Y72711D01*
X1867208Y72810D01*
X1867278Y72965D01*
X1867334Y73134D01*
X1867391Y73346D01*
X1867433Y73571D01*
X1867447Y73825D01*
Y73924D01*
X1867433Y73994D01*
X1867419Y74093D01*
X1867405Y74192D01*
X1867348Y74431D01*
X1867236Y74699D01*
X1867179Y74840D01*
X1867095Y74981D01*
X1866996Y75122D01*
X1866883Y75263D01*
X1866756Y75390D01*
X1866601Y75517D01*
X1866587D01*
X1866559Y75545D01*
X1866517Y75573D01*
X1866446Y75615D01*
X1866362Y75658D01*
X1866263Y75714D01*
X1866150Y75771D01*
X1866009Y75827D01*
X1865854Y75897D01*
X1865685Y75954D01*
X1865502Y76010D01*
X1865305Y76052D01*
X1865093Y76095D01*
X1864868Y76123D01*
X1864614Y76137D01*
X1864360Y76151D01*
X1864346D01*
X1864304D01*
X1864219D01*
X1864120Y76137D01*
X1864008D01*
X1863867Y76123D01*
X1863712Y76095D01*
X1863542Y76066D01*
X1863176Y75996D01*
X1862795Y75883D01*
X1862429Y75728D01*
X1862260Y75644D01*
X1862090Y75531D01*
X1862076Y75517D01*
X1862048Y75503D01*
X1862020Y75460D01*
X1861964Y75418D01*
X1861823Y75277D01*
X1861682Y75080D01*
X1861526Y74826D01*
X1861385Y74544D01*
X1861329Y74375D01*
X1861301Y74192D01*
X1861273Y74008D01*
X1861259Y73811D01*
Y73741D01*
X1861273Y73670D01*
X1861287Y73571D01*
X1861301Y73459D01*
X1861329Y73318D01*
X1861371Y73162D01*
X1861428Y73007D01*
X1861498Y72838D01*
X1861583Y72669D01*
X1861696Y72486D01*
X1861823Y72317D01*
X1861964Y72162D01*
X1862147Y72007D01*
X1862344Y71880D01*
X1862584Y71753D01*
X1862598D01*
X1862640Y71725D01*
X1862697Y71696D01*
X1862767Y71654D01*
X1862908Y71556D01*
X1862979Y71485D01*
X1863035Y71414D01*
Y71400D01*
X1863063Y71372D01*
X1863077Y71330D01*
X1863105Y71273D01*
X1863148Y71118D01*
X1863176Y70921D01*
Y70851D01*
X1863162Y70780D01*
X1863148Y70696D01*
X1863119Y70597D01*
X1863077Y70484D01*
X1863021Y70385D01*
X1862950Y70287D01*
X1862936Y70273D01*
X1862908Y70244D01*
X1862866Y70216D01*
X1862795Y70160D01*
X1862711Y70118D01*
X1862598Y70089D01*
X1862485Y70061D01*
X1862344Y70047D01*
X1862330D01*
X1862288D01*
X1862231D01*
X1862161Y70061D01*
X1862062Y70075D01*
X1861964Y70104D01*
X1861724Y70188D01*
X1861710D01*
X1861682Y70202D01*
X1861639Y70230D01*
X1861569Y70273D01*
X1861484Y70315D01*
X1861400Y70371D01*
X1861188Y70512D01*
X1860948Y70710D01*
X1860695Y70949D01*
X1860455Y71231D01*
X1860244Y71570D01*
Y71584D01*
X1860215Y71612D01*
X1860201Y71668D01*
X1860159Y71739D01*
X1860117Y71823D01*
X1860074Y71936D01*
X1860032Y72063D01*
X1859990Y72204D01*
X1859933Y72359D01*
X1859891Y72528D01*
X1859807Y72895D01*
X1859750Y73318D01*
X1859722Y73783D01*
Y73867D01*
X1859736Y73980D01*
Y74107D01*
X1859764Y74276D01*
X1859792Y74474D01*
X1859821Y74699D01*
X1859877Y74925D01*
X1859948Y75178D01*
X1860018Y75432D01*
X1860117Y75686D01*
X1860244Y75954D01*
X1860385Y76207D01*
X1860540Y76461D01*
X1860737Y76701D01*
X1860948Y76926D01*
X1860963Y76940D01*
X1861005Y76969D01*
X1861075Y77025D01*
X1861174Y77110D01*
X1861301Y77194D01*
X1861456Y77293D01*
X1861625Y77392D01*
X1861837Y77490D01*
X1862062Y77603D01*
X1862316Y77702D01*
X1862598Y77800D01*
X1862908Y77885D01*
X1863232Y77955D01*
X1863585Y78012D01*
X1863965Y78054D01*
X1864360Y78068D01*
X1864388D01*
X1864459D01*
X1864571Y78054D01*
D02*
G37*
G36*
X1868138Y68680D02*
X1868251Y68666D01*
X1868363Y68637D01*
X1868476Y68595D01*
X1868603Y68539D01*
X1868702Y68454D01*
X1868716Y68440D01*
X1868744Y68412D01*
X1868786Y68355D01*
X1868843Y68271D01*
X1868885Y68172D01*
X1868927Y68059D01*
X1868956Y67918D01*
X1868970Y67763D01*
Y67693D01*
X1868956Y67608D01*
X1868941Y67510D01*
X1868899Y67397D01*
X1868857Y67284D01*
X1868786Y67171D01*
X1868702Y67073D01*
X1868688Y67059D01*
X1868660Y67030D01*
X1868603Y66988D01*
X1868519Y66946D01*
X1868420Y66903D01*
X1868293Y66861D01*
X1868152Y66833D01*
X1867983Y66819D01*
X1864868D01*
Y66762D01*
X1868561Y63379D01*
X1868575Y63365D01*
X1868631Y63309D01*
X1868688Y63238D01*
X1868772Y63140D01*
X1868843Y63027D01*
X1868913Y62886D01*
X1868956Y62731D01*
X1868970Y62576D01*
Y62505D01*
X1868956Y62435D01*
X1868941Y62350D01*
X1868913Y62251D01*
X1868857Y62153D01*
X1868801Y62040D01*
X1868716Y61941D01*
X1868702Y61927D01*
X1868674Y61899D01*
X1868617Y61857D01*
X1868547Y61814D01*
X1868462Y61772D01*
X1868363Y61730D01*
X1868237Y61702D01*
X1868110Y61688D01*
X1868096D01*
X1868053D01*
X1867969Y61702D01*
X1867884Y61730D01*
X1867771Y61772D01*
X1867659Y61828D01*
X1867518Y61899D01*
X1867391Y62012D01*
X1864783Y64493D01*
X1861512Y61800D01*
X1861484Y61786D01*
X1861428Y61730D01*
X1861329Y61673D01*
X1861216Y61589D01*
X1861075Y61518D01*
X1860934Y61448D01*
X1860779Y61406D01*
X1860638Y61392D01*
X1860624D01*
X1860582D01*
X1860511Y61406D01*
X1860413Y61420D01*
X1860314Y61462D01*
X1860215Y61504D01*
X1860103Y61575D01*
X1860004Y61659D01*
X1859990Y61673D01*
X1859962Y61702D01*
X1859919Y61758D01*
X1859877Y61828D01*
X1859835Y61927D01*
X1859792Y62040D01*
X1859764Y62167D01*
X1859750Y62308D01*
Y62407D01*
X1859764Y62477D01*
X1859792Y62646D01*
X1859863Y62815D01*
Y62829D01*
X1859877Y62858D01*
X1859905Y62900D01*
X1859948Y62942D01*
X1860004Y63013D01*
X1860060Y63083D01*
X1860145Y63154D01*
X1860244Y63238D01*
X1863542Y65917D01*
X1862598Y66819D01*
X1860709D01*
X1860695D01*
X1860638D01*
X1860554Y66833D01*
X1860455Y66847D01*
X1860342Y66875D01*
X1860215Y66932D01*
X1860103Y66988D01*
X1859990Y67073D01*
X1859976Y67087D01*
X1859948Y67115D01*
X1859919Y67171D01*
X1859877Y67242D01*
X1859821Y67340D01*
X1859792Y67467D01*
X1859764Y67608D01*
X1859750Y67763D01*
Y67834D01*
X1859764Y67918D01*
X1859778Y68017D01*
X1859807Y68130D01*
X1859863Y68243D01*
X1859919Y68355D01*
X1860004Y68454D01*
X1860018Y68468D01*
X1860046Y68496D01*
X1860103Y68525D01*
X1860187Y68567D01*
X1860286Y68623D01*
X1860413Y68651D01*
X1860554Y68680D01*
X1860709Y68694D01*
X1867983D01*
X1867997D01*
X1868053D01*
X1868138Y68680D01*
D02*
G37*
G36*
X1842047Y97776D02*
X1842132Y97762D01*
X1842315Y97705D01*
X1842414Y97663D01*
X1842498Y97607D01*
X1842512Y97593D01*
X1842527Y97564D01*
X1842569Y97522D01*
X1842611Y97466D01*
X1842639Y97395D01*
X1842682Y97311D01*
X1842696Y97212D01*
X1842710Y97099D01*
Y97015D01*
X1842696Y96958D01*
X1842653Y96803D01*
X1842583Y96620D01*
X1839623Y90460D01*
Y90445D01*
X1839608Y90417D01*
X1839538Y90333D01*
X1839453Y90220D01*
X1839326Y90107D01*
X1839312D01*
X1839298Y90093D01*
X1839214Y90037D01*
X1839101Y89994D01*
X1838946Y89980D01*
X1838932D01*
X1838918D01*
X1838819Y89994D01*
X1838706Y90037D01*
X1838565Y90107D01*
X1838551D01*
X1838537Y90135D01*
X1838467Y90192D01*
X1838368Y90304D01*
X1838269Y90460D01*
X1835309Y96620D01*
Y96634D01*
X1835295Y96662D01*
X1835267Y96719D01*
X1835253Y96775D01*
X1835196Y96930D01*
X1835182Y97099D01*
Y97156D01*
X1835196Y97212D01*
X1835210Y97282D01*
X1835238Y97353D01*
X1835267Y97438D01*
X1835323Y97522D01*
X1835394Y97607D01*
X1835408Y97621D01*
X1835436Y97635D01*
X1835478Y97663D01*
X1835549Y97691D01*
X1835633Y97734D01*
X1835732Y97762D01*
X1835845Y97776D01*
X1835971Y97790D01*
X1841920D01*
X1841935D01*
X1841977D01*
X1842047Y97776D01*
D02*
G37*
G36*
X1842794Y86259D02*
X1842879Y86245D01*
X1842964Y86216D01*
X1843062Y86174D01*
X1843147Y86118D01*
X1843231Y86047D01*
X1843246Y86033D01*
X1843260Y86005D01*
X1843302Y85948D01*
X1843344Y85878D01*
X1843372Y85794D01*
X1843415Y85695D01*
X1843429Y85568D01*
X1843443Y85427D01*
Y79746D01*
X1843429Y79689D01*
X1843415Y79591D01*
X1843387Y79506D01*
X1843358Y79393D01*
X1843302Y79295D01*
X1843231Y79210D01*
X1843217Y79196D01*
X1843189Y79168D01*
X1843147Y79140D01*
X1843090Y79083D01*
X1843006Y79041D01*
X1842907Y79013D01*
X1842794Y78985D01*
X1842668Y78970D01*
X1842653D01*
X1842611D01*
X1842541Y78985D01*
X1842456Y78999D01*
X1842372Y79027D01*
X1842273Y79069D01*
X1842174Y79126D01*
X1842090Y79210D01*
X1842075Y79224D01*
X1842061Y79252D01*
X1842033Y79295D01*
X1841991Y79365D01*
X1841949Y79450D01*
X1841920Y79563D01*
X1841906Y79675D01*
X1841892Y79816D01*
Y81691D01*
X1835309D01*
X1835295D01*
X1835238D01*
X1835154Y81705D01*
X1835055Y81719D01*
X1834942Y81748D01*
X1834816Y81790D01*
X1834703Y81846D01*
X1834590Y81931D01*
X1834576Y81945D01*
X1834548Y81973D01*
X1834519Y82030D01*
X1834477Y82114D01*
X1834421Y82213D01*
X1834393Y82340D01*
X1834364Y82481D01*
X1834350Y82636D01*
Y82706D01*
X1834364Y82791D01*
X1834379Y82889D01*
X1834407Y83002D01*
X1834463Y83115D01*
X1834519Y83228D01*
X1834604Y83327D01*
X1834618Y83341D01*
X1834646Y83369D01*
X1834703Y83397D01*
X1834787Y83439D01*
X1834886Y83496D01*
X1835013Y83524D01*
X1835154Y83552D01*
X1835309Y83566D01*
X1841892D01*
Y85483D01*
X1841906Y85554D01*
X1841920Y85653D01*
X1841977Y85850D01*
X1842019Y85948D01*
X1842090Y86047D01*
X1842104Y86061D01*
X1842132Y86075D01*
X1842174Y86118D01*
X1842245Y86160D01*
X1842329Y86202D01*
X1842428Y86230D01*
X1842541Y86259D01*
X1842668Y86273D01*
X1842682D01*
X1842724D01*
X1842794Y86259D01*
D02*
G37*
G36*
X1842625Y78026D02*
X1842724Y78012D01*
X1842837Y77984D01*
X1842964Y77941D01*
X1843076Y77885D01*
X1843175Y77800D01*
X1843189Y77786D01*
X1843217Y77758D01*
X1843260Y77702D01*
X1843316Y77617D01*
X1843358Y77519D01*
X1843401Y77406D01*
X1843429Y77265D01*
X1843443Y77110D01*
Y74530D01*
X1843429Y74417D01*
Y74276D01*
X1843401Y74107D01*
X1843387Y73910D01*
X1843344Y73698D01*
X1843302Y73459D01*
X1843231Y73205D01*
X1843161Y72951D01*
X1843062Y72683D01*
X1842950Y72429D01*
X1842823Y72162D01*
X1842653Y71922D01*
X1842484Y71682D01*
X1842273Y71457D01*
X1842259Y71443D01*
X1842216Y71414D01*
X1842146Y71358D01*
X1842061Y71273D01*
X1841935Y71189D01*
X1841794Y71104D01*
X1841624Y70992D01*
X1841427Y70893D01*
X1841216Y70794D01*
X1840962Y70682D01*
X1840694Y70597D01*
X1840398Y70498D01*
X1840088Y70428D01*
X1839735Y70371D01*
X1839383Y70343D01*
X1838988Y70329D01*
X1838960D01*
X1838889D01*
X1838777D01*
X1838636Y70343D01*
X1838452Y70357D01*
X1838241Y70385D01*
X1838015Y70428D01*
X1837762Y70470D01*
X1837508Y70526D01*
X1837226Y70597D01*
X1836958Y70696D01*
X1836676Y70808D01*
X1836394Y70935D01*
X1836141Y71090D01*
X1835887Y71259D01*
X1835647Y71457D01*
X1835633Y71471D01*
X1835591Y71513D01*
X1835534Y71570D01*
X1835464Y71668D01*
X1835379Y71781D01*
X1835267Y71922D01*
X1835168Y72091D01*
X1835055Y72274D01*
X1834942Y72486D01*
X1834844Y72726D01*
X1834745Y72979D01*
X1834646Y73261D01*
X1834576Y73571D01*
X1834519Y73896D01*
X1834477Y74248D01*
X1834463Y74615D01*
Y77180D01*
X1834477Y77265D01*
X1834491Y77363D01*
X1834519Y77476D01*
X1834576Y77589D01*
X1834632Y77702D01*
X1834717Y77800D01*
X1834731Y77815D01*
X1834759Y77843D01*
X1834816Y77871D01*
X1834900Y77913D01*
X1834999Y77970D01*
X1835126Y77998D01*
X1835267Y78026D01*
X1835436Y78040D01*
X1842470D01*
X1842484D01*
X1842541D01*
X1842625Y78026D01*
D02*
G37*
G36*
X1839157Y69384D02*
X1839298D01*
X1839482Y69356D01*
X1839693Y69342D01*
X1839933Y69300D01*
X1840186Y69258D01*
X1840440Y69187D01*
X1840722Y69117D01*
X1841004Y69018D01*
X1841286Y68905D01*
X1841568Y68778D01*
X1841836Y68623D01*
X1842104Y68440D01*
X1842343Y68243D01*
X1842357Y68229D01*
X1842400Y68186D01*
X1842456Y68116D01*
X1842541Y68031D01*
X1842639Y67904D01*
X1842738Y67763D01*
X1842851Y67594D01*
X1842978Y67411D01*
X1843090Y67185D01*
X1843203Y66960D01*
X1843302Y66692D01*
X1843401Y66410D01*
X1843485Y66100D01*
X1843542Y65776D01*
X1843584Y65437D01*
X1843598Y65071D01*
Y64986D01*
X1843584Y64873D01*
Y64732D01*
X1843556Y64577D01*
X1843527Y64380D01*
X1843499Y64155D01*
X1843443Y63929D01*
X1843372Y63675D01*
X1843288Y63422D01*
X1843189Y63154D01*
X1843062Y62886D01*
X1842921Y62632D01*
X1842752Y62364D01*
X1842569Y62125D01*
X1842343Y61899D01*
X1842329Y61885D01*
X1842287Y61843D01*
X1842216Y61786D01*
X1842118Y61716D01*
X1841991Y61631D01*
X1841836Y61533D01*
X1841653Y61420D01*
X1841455Y61307D01*
X1841230Y61208D01*
X1840976Y61095D01*
X1840694Y60997D01*
X1840384Y60912D01*
X1840060Y60842D01*
X1839707Y60785D01*
X1839341Y60743D01*
X1838946Y60729D01*
X1838918D01*
X1838847D01*
X1838734Y60743D01*
X1838593D01*
X1838410Y60771D01*
X1838199Y60785D01*
X1837973Y60828D01*
X1837720Y60870D01*
X1837452Y60940D01*
X1837170Y61011D01*
X1836888Y61110D01*
X1836606Y61222D01*
X1836324Y61349D01*
X1836056Y61518D01*
X1835788Y61688D01*
X1835549Y61899D01*
X1835534Y61913D01*
X1835492Y61955D01*
X1835436Y62026D01*
X1835351Y62111D01*
X1835267Y62237D01*
X1835168Y62378D01*
X1835055Y62547D01*
X1834942Y62731D01*
X1834816Y62942D01*
X1834717Y63182D01*
X1834604Y63450D01*
X1834519Y63732D01*
X1834435Y64028D01*
X1834379Y64366D01*
X1834336Y64704D01*
X1834322Y65071D01*
Y65155D01*
X1834336Y65268D01*
Y65395D01*
X1834364Y65564D01*
X1834393Y65762D01*
X1834421Y65987D01*
X1834477Y66213D01*
X1834548Y66466D01*
X1834632Y66720D01*
X1834731Y66988D01*
X1834844Y67256D01*
X1834985Y67510D01*
X1835154Y67763D01*
X1835351Y68017D01*
X1835563Y68243D01*
X1835577Y68257D01*
X1835619Y68285D01*
X1835690Y68355D01*
X1835788Y68426D01*
X1835915Y68510D01*
X1836070Y68609D01*
X1836253Y68708D01*
X1836451Y68821D01*
X1836676Y68933D01*
X1836930Y69032D01*
X1837212Y69131D01*
X1837508Y69215D01*
X1837832Y69286D01*
X1838185Y69342D01*
X1838551Y69384D01*
X1838946Y69399D01*
X1838974D01*
X1839045D01*
X1839157Y69384D01*
D02*
G37*
G36*
X1813673Y97776D02*
X1813800Y97734D01*
X1813927Y97663D01*
X1813941D01*
X1813955Y97635D01*
X1814039Y97564D01*
X1814124Y97466D01*
X1814223Y97311D01*
X1817183Y91136D01*
Y91122D01*
X1817197Y91094D01*
X1817225Y91052D01*
X1817253Y90981D01*
X1817296Y90840D01*
X1817310Y90671D01*
Y90615D01*
X1817296Y90558D01*
X1817282Y90488D01*
X1817253Y90417D01*
X1817225Y90333D01*
X1817169Y90248D01*
X1817098Y90178D01*
X1817084Y90163D01*
X1817056Y90149D01*
X1817014Y90121D01*
X1816943Y90079D01*
X1816859Y90037D01*
X1816760Y90008D01*
X1816647Y89994D01*
X1816520Y89980D01*
X1810571D01*
X1810557D01*
X1810515D01*
X1810445Y89994D01*
X1810360Y90008D01*
X1810177Y90065D01*
X1810078Y90107D01*
X1809993Y90178D01*
X1809979Y90192D01*
X1809965Y90206D01*
X1809923Y90248D01*
X1809895Y90304D01*
X1809852Y90375D01*
X1809810Y90460D01*
X1809796Y90558D01*
X1809782Y90671D01*
Y90713D01*
X1809796Y90756D01*
Y90812D01*
X1809838Y90967D01*
X1809909Y91136D01*
X1812869Y97311D01*
Y97325D01*
X1812883Y97353D01*
X1812954Y97438D01*
X1813038Y97550D01*
X1813165Y97663D01*
X1813179D01*
X1813194Y97677D01*
X1813278Y97719D01*
X1813405Y97776D01*
X1813546Y97790D01*
X1813560D01*
X1813588D01*
X1813673Y97776D01*
D02*
G37*
G36*
X1817394Y86005D02*
X1817479Y85991D01*
X1817563Y85963D01*
X1817662Y85920D01*
X1817747Y85864D01*
X1817831Y85794D01*
X1817845Y85779D01*
X1817860Y85751D01*
X1817902Y85695D01*
X1817944Y85624D01*
X1817972Y85540D01*
X1818015Y85441D01*
X1818029Y85314D01*
X1818043Y85173D01*
Y79492D01*
X1818029Y79436D01*
X1818015Y79337D01*
X1817986Y79252D01*
X1817958Y79140D01*
X1817902Y79041D01*
X1817831Y78956D01*
X1817817Y78942D01*
X1817789Y78914D01*
X1817747Y78886D01*
X1817690Y78829D01*
X1817606Y78787D01*
X1817507Y78759D01*
X1817394Y78731D01*
X1817267Y78717D01*
X1817253D01*
X1817211D01*
X1817141Y78731D01*
X1817056Y78745D01*
X1816971Y78773D01*
X1816873Y78815D01*
X1816774Y78872D01*
X1816689Y78956D01*
X1816675Y78970D01*
X1816661Y78999D01*
X1816633Y79041D01*
X1816591Y79111D01*
X1816549Y79196D01*
X1816520Y79309D01*
X1816506Y79422D01*
X1816492Y79563D01*
Y81438D01*
X1809909D01*
X1809895D01*
X1809838D01*
X1809754Y81452D01*
X1809655Y81466D01*
X1809542Y81494D01*
X1809415Y81536D01*
X1809303Y81593D01*
X1809190Y81677D01*
X1809176Y81691D01*
X1809148Y81719D01*
X1809119Y81776D01*
X1809077Y81860D01*
X1809021Y81959D01*
X1808993Y82086D01*
X1808964Y82227D01*
X1808950Y82382D01*
Y82452D01*
X1808964Y82537D01*
X1808978Y82636D01*
X1809007Y82748D01*
X1809063Y82861D01*
X1809119Y82974D01*
X1809204Y83073D01*
X1809218Y83087D01*
X1809246Y83115D01*
X1809303Y83143D01*
X1809387Y83186D01*
X1809486Y83242D01*
X1809613Y83270D01*
X1809754Y83298D01*
X1809909Y83312D01*
X1816492D01*
Y85230D01*
X1816506Y85300D01*
X1816520Y85399D01*
X1816577Y85596D01*
X1816619Y85695D01*
X1816689Y85794D01*
X1816704Y85808D01*
X1816732Y85822D01*
X1816774Y85864D01*
X1816845Y85906D01*
X1816929Y85948D01*
X1817028Y85977D01*
X1817141Y86005D01*
X1817267Y86019D01*
X1817282D01*
X1817324D01*
X1817394Y86005D01*
D02*
G37*
G36*
X1817225Y77772D02*
X1817324Y77758D01*
X1817437Y77730D01*
X1817563Y77688D01*
X1817676Y77631D01*
X1817775Y77547D01*
X1817789Y77533D01*
X1817817Y77504D01*
X1817860Y77448D01*
X1817916Y77363D01*
X1817958Y77265D01*
X1818001Y77152D01*
X1818029Y77011D01*
X1818043Y76856D01*
Y74276D01*
X1818029Y74163D01*
Y74022D01*
X1818001Y73853D01*
X1817986Y73656D01*
X1817944Y73444D01*
X1817902Y73205D01*
X1817831Y72951D01*
X1817761Y72697D01*
X1817662Y72429D01*
X1817549Y72176D01*
X1817423Y71908D01*
X1817253Y71668D01*
X1817084Y71429D01*
X1816873Y71203D01*
X1816859Y71189D01*
X1816816Y71161D01*
X1816746Y71104D01*
X1816661Y71020D01*
X1816534Y70935D01*
X1816393Y70851D01*
X1816224Y70738D01*
X1816027Y70639D01*
X1815815Y70540D01*
X1815562Y70428D01*
X1815294Y70343D01*
X1814998Y70244D01*
X1814688Y70174D01*
X1814335Y70118D01*
X1813983Y70089D01*
X1813588Y70075D01*
X1813560D01*
X1813490D01*
X1813377D01*
X1813236Y70089D01*
X1813053Y70104D01*
X1812841Y70132D01*
X1812616Y70174D01*
X1812362Y70216D01*
X1812108Y70273D01*
X1811826Y70343D01*
X1811558Y70442D01*
X1811276Y70555D01*
X1810994Y70682D01*
X1810741Y70837D01*
X1810487Y71006D01*
X1810247Y71203D01*
X1810233Y71217D01*
X1810191Y71259D01*
X1810134Y71316D01*
X1810064Y71414D01*
X1809979Y71527D01*
X1809867Y71668D01*
X1809768Y71837D01*
X1809655Y72021D01*
X1809542Y72232D01*
X1809444Y72472D01*
X1809345Y72726D01*
X1809246Y73007D01*
X1809176Y73318D01*
X1809119Y73642D01*
X1809077Y73994D01*
X1809063Y74361D01*
Y76926D01*
X1809077Y77011D01*
X1809091Y77110D01*
X1809119Y77222D01*
X1809176Y77335D01*
X1809232Y77448D01*
X1809317Y77547D01*
X1809331Y77561D01*
X1809359Y77589D01*
X1809415Y77617D01*
X1809500Y77660D01*
X1809599Y77716D01*
X1809726Y77744D01*
X1809867Y77772D01*
X1810036Y77786D01*
X1817070D01*
X1817084D01*
X1817141D01*
X1817225Y77772D01*
D02*
G37*
G36*
X1817338Y68849D02*
X1817451Y68835D01*
X1817563Y68807D01*
X1817676Y68764D01*
X1817803Y68708D01*
X1817902Y68623D01*
X1817916Y68609D01*
X1817944Y68581D01*
X1817986Y68525D01*
X1818043Y68440D01*
X1818085Y68341D01*
X1818127Y68229D01*
X1818156Y68088D01*
X1818170Y67933D01*
Y67862D01*
X1818156Y67778D01*
X1818141Y67679D01*
X1818099Y67566D01*
X1818057Y67453D01*
X1817986Y67340D01*
X1817902Y67242D01*
X1817888Y67228D01*
X1817860Y67200D01*
X1817803Y67157D01*
X1817719Y67115D01*
X1817620Y67073D01*
X1817493Y67030D01*
X1817352Y67002D01*
X1817183Y66988D01*
X1809909D01*
X1809895D01*
X1809838D01*
X1809754Y67002D01*
X1809655Y67016D01*
X1809542Y67044D01*
X1809415Y67101D01*
X1809303Y67157D01*
X1809190Y67242D01*
X1809176Y67256D01*
X1809148Y67284D01*
X1809119Y67340D01*
X1809077Y67411D01*
X1809021Y67510D01*
X1808993Y67636D01*
X1808964Y67778D01*
X1808950Y67933D01*
Y68003D01*
X1808964Y68088D01*
X1808978Y68186D01*
X1809007Y68299D01*
X1809063Y68412D01*
X1809119Y68525D01*
X1809204Y68623D01*
X1809218Y68637D01*
X1809246Y68666D01*
X1809303Y68694D01*
X1809387Y68736D01*
X1809486Y68793D01*
X1809613Y68821D01*
X1809754Y68849D01*
X1809909Y68863D01*
X1817183D01*
X1817197D01*
X1817253D01*
X1817338Y68849D01*
D02*
G37*
G36*
X1788273Y97776D02*
X1788400Y97734D01*
X1788526Y97663D01*
X1788541D01*
X1788555Y97635D01*
X1788639Y97564D01*
X1788724Y97466D01*
X1788822Y97311D01*
X1791783Y91136D01*
Y91122D01*
X1791797Y91094D01*
X1791825Y91052D01*
X1791853Y90981D01*
X1791896Y90840D01*
X1791910Y90671D01*
Y90615D01*
X1791896Y90558D01*
X1791882Y90488D01*
X1791853Y90417D01*
X1791825Y90333D01*
X1791769Y90248D01*
X1791698Y90178D01*
X1791684Y90163D01*
X1791656Y90149D01*
X1791614Y90121D01*
X1791543Y90079D01*
X1791459Y90037D01*
X1791360Y90008D01*
X1791247Y89994D01*
X1791120Y89980D01*
X1785171D01*
X1785157D01*
X1785115D01*
X1785045Y89994D01*
X1784960Y90008D01*
X1784777Y90065D01*
X1784678Y90107D01*
X1784593Y90178D01*
X1784579Y90192D01*
X1784565Y90206D01*
X1784523Y90248D01*
X1784495Y90304D01*
X1784453Y90375D01*
X1784410Y90459D01*
X1784396Y90558D01*
X1784382Y90671D01*
Y90713D01*
X1784396Y90756D01*
Y90812D01*
X1784438Y90967D01*
X1784509Y91136D01*
X1787469Y97311D01*
Y97325D01*
X1787483Y97353D01*
X1787554Y97437D01*
X1787638Y97550D01*
X1787765Y97663D01*
X1787779D01*
X1787793Y97677D01*
X1787878Y97719D01*
X1788005Y97776D01*
X1788146Y97790D01*
X1788160D01*
X1788188D01*
X1788273Y97776D01*
D02*
G37*
G36*
X1791994Y86005D02*
X1792079Y85991D01*
X1792164Y85963D01*
X1792262Y85920D01*
X1792347Y85864D01*
X1792431Y85793D01*
X1792446Y85779D01*
X1792460Y85751D01*
X1792502Y85695D01*
X1792544Y85624D01*
X1792572Y85540D01*
X1792615Y85441D01*
X1792629Y85314D01*
X1792643Y85173D01*
Y79492D01*
X1792629Y79436D01*
X1792615Y79337D01*
X1792586Y79252D01*
X1792558Y79140D01*
X1792502Y79041D01*
X1792431Y78956D01*
X1792417Y78942D01*
X1792389Y78914D01*
X1792347Y78886D01*
X1792290Y78829D01*
X1792206Y78787D01*
X1792107Y78759D01*
X1791994Y78731D01*
X1791868Y78717D01*
X1791853D01*
X1791811D01*
X1791741Y78731D01*
X1791656Y78745D01*
X1791571Y78773D01*
X1791473Y78815D01*
X1791374Y78872D01*
X1791290Y78956D01*
X1791275Y78970D01*
X1791261Y78999D01*
X1791233Y79041D01*
X1791191Y79111D01*
X1791149Y79196D01*
X1791120Y79309D01*
X1791106Y79422D01*
X1791092Y79563D01*
Y81438D01*
X1784509D01*
X1784495D01*
X1784438D01*
X1784354Y81452D01*
X1784255Y81466D01*
X1784142Y81494D01*
X1784016Y81536D01*
X1783903Y81593D01*
X1783790Y81677D01*
X1783776Y81691D01*
X1783748Y81719D01*
X1783719Y81776D01*
X1783677Y81860D01*
X1783621Y81959D01*
X1783593Y82086D01*
X1783564Y82227D01*
X1783550Y82382D01*
Y82452D01*
X1783564Y82537D01*
X1783578Y82636D01*
X1783607Y82748D01*
X1783663Y82861D01*
X1783719Y82974D01*
X1783804Y83073D01*
X1783818Y83087D01*
X1783846Y83115D01*
X1783903Y83143D01*
X1783987Y83186D01*
X1784086Y83242D01*
X1784213Y83270D01*
X1784354Y83298D01*
X1784509Y83312D01*
X1791092D01*
Y85230D01*
X1791106Y85300D01*
X1791120Y85399D01*
X1791177Y85596D01*
X1791219Y85695D01*
X1791290Y85793D01*
X1791304Y85808D01*
X1791332Y85822D01*
X1791374Y85864D01*
X1791445Y85906D01*
X1791529Y85948D01*
X1791628Y85977D01*
X1791741Y86005D01*
X1791868Y86019D01*
X1791882D01*
X1791924D01*
X1791994Y86005D01*
D02*
G37*
G36*
X1791755Y77772D02*
X1791882Y77744D01*
X1792023Y77716D01*
X1792164Y77660D01*
X1792319Y77575D01*
X1792446Y77476D01*
X1792460Y77462D01*
X1792502Y77420D01*
X1792544Y77349D01*
X1792615Y77236D01*
X1792671Y77110D01*
X1792713Y76955D01*
X1792756Y76771D01*
X1792770Y76574D01*
Y76489D01*
X1792756Y76405D01*
X1792742Y76292D01*
X1792713Y76165D01*
X1792671Y76038D01*
X1792615Y75897D01*
X1792544Y75785D01*
X1792530Y75771D01*
X1792502Y75728D01*
X1792446Y75686D01*
X1792361Y75615D01*
X1792262Y75531D01*
X1792135Y75446D01*
X1791980Y75362D01*
X1791797Y75291D01*
X1786271Y73064D01*
Y73007D01*
X1791797Y70780D01*
X1791825Y70766D01*
X1791882Y70738D01*
X1791980Y70696D01*
X1792093Y70639D01*
X1792333Y70484D01*
X1792446Y70399D01*
X1792544Y70287D01*
X1792558Y70273D01*
X1792586Y70230D01*
X1792615Y70160D01*
X1792657Y70075D01*
X1792699Y69948D01*
X1792742Y69822D01*
X1792756Y69652D01*
X1792770Y69483D01*
Y69384D01*
X1792756Y69286D01*
X1792727Y69159D01*
X1792685Y69018D01*
X1792629Y68863D01*
X1792558Y68722D01*
X1792446Y68595D01*
X1792431Y68581D01*
X1792389Y68539D01*
X1792319Y68496D01*
X1792220Y68426D01*
X1792093Y68369D01*
X1791938Y68327D01*
X1791755Y68285D01*
X1791557Y68271D01*
X1784410D01*
X1784396D01*
X1784340D01*
X1784269Y68285D01*
X1784185Y68299D01*
X1784072Y68327D01*
X1783973Y68369D01*
X1783875Y68426D01*
X1783776Y68496D01*
X1783762Y68510D01*
X1783748Y68539D01*
X1783705Y68595D01*
X1783663Y68651D01*
X1783621Y68750D01*
X1783593Y68849D01*
X1783564Y68976D01*
X1783550Y69117D01*
Y69187D01*
X1783564Y69258D01*
X1783578Y69342D01*
X1783607Y69441D01*
X1783649Y69540D01*
X1783705Y69638D01*
X1783776Y69737D01*
X1783790Y69751D01*
X1783818Y69765D01*
X1783875Y69807D01*
X1783945Y69836D01*
X1784030Y69878D01*
X1784142Y69920D01*
X1784269Y69934D01*
X1784410Y69948D01*
X1789725D01*
Y70005D01*
X1784283Y72218D01*
X1784255Y72232D01*
X1784199Y72260D01*
X1784100Y72317D01*
X1784001Y72401D01*
X1783889Y72514D01*
X1783790Y72655D01*
X1783734Y72824D01*
X1783705Y73021D01*
Y73050D01*
X1783719Y73120D01*
X1783734Y73219D01*
X1783776Y73346D01*
X1783846Y73487D01*
X1783945Y73614D01*
X1784086Y73741D01*
X1784283Y73839D01*
X1789725Y76066D01*
Y76123D01*
X1784410D01*
X1784396D01*
X1784340D01*
X1784269Y76137D01*
X1784171Y76151D01*
X1784072Y76179D01*
X1783959Y76207D01*
X1783860Y76264D01*
X1783762Y76334D01*
X1783748Y76348D01*
X1783734Y76377D01*
X1783691Y76433D01*
X1783663Y76489D01*
X1783621Y76588D01*
X1783578Y76687D01*
X1783564Y76814D01*
X1783550Y76955D01*
Y77025D01*
X1783564Y77096D01*
X1783578Y77180D01*
X1783607Y77279D01*
X1783649Y77378D01*
X1783705Y77476D01*
X1783776Y77575D01*
X1783790Y77589D01*
X1783818Y77603D01*
X1783875Y77645D01*
X1783945Y77674D01*
X1784030Y77716D01*
X1784142Y77758D01*
X1784269Y77772D01*
X1784410Y77786D01*
X1791557D01*
X1791586D01*
X1791656D01*
X1791755Y77772D01*
D02*
G37*
G36*
X1785862Y66988D02*
X1785961Y66974D01*
X1786045Y66946D01*
X1786158Y66903D01*
X1786257Y66847D01*
X1786342Y66777D01*
X1786356Y66762D01*
X1786384Y66734D01*
X1786412Y66678D01*
X1786454Y66607D01*
X1786496Y66523D01*
X1786539Y66424D01*
X1786553Y66297D01*
X1786567Y66170D01*
Y66072D01*
X1786553Y66001D01*
X1786511Y65832D01*
X1786440Y65677D01*
Y65663D01*
X1786412Y65649D01*
X1786342Y65550D01*
X1786285Y65494D01*
X1786215Y65437D01*
X1786116Y65381D01*
X1786017Y65311D01*
X1785989Y65296D01*
X1785933Y65268D01*
X1785848Y65212D01*
X1785735Y65141D01*
X1785623Y65043D01*
X1785496Y64930D01*
X1785369Y64775D01*
X1785270Y64606D01*
X1785256Y64577D01*
X1785228Y64521D01*
X1785186Y64408D01*
X1785143Y64281D01*
X1785101Y64112D01*
X1785059Y63915D01*
X1785030Y63689D01*
X1785016Y63450D01*
Y63323D01*
X1785030Y63182D01*
X1785059Y63013D01*
X1785101Y62829D01*
X1785157Y62618D01*
X1785228Y62421D01*
X1785341Y62237D01*
X1785355Y62223D01*
X1785397Y62167D01*
X1785467Y62082D01*
X1785566Y61998D01*
X1785693Y61913D01*
X1785834Y61828D01*
X1785989Y61772D01*
X1786172Y61758D01*
X1786186D01*
X1786243D01*
X1786327Y61772D01*
X1786426Y61800D01*
X1786539Y61843D01*
X1786652Y61913D01*
X1786764Y61998D01*
X1786877Y62111D01*
X1786891Y62125D01*
X1786919Y62181D01*
X1786976Y62266D01*
X1787032Y62392D01*
X1787103Y62562D01*
X1787187Y62759D01*
X1787258Y63013D01*
X1787328Y63309D01*
X1787511Y64253D01*
Y64281D01*
X1787540Y64366D01*
X1787568Y64507D01*
X1787624Y64676D01*
X1787695Y64873D01*
X1787793Y65099D01*
X1787892Y65339D01*
X1788033Y65592D01*
X1788188Y65846D01*
X1788371Y66086D01*
X1788583Y66311D01*
X1788808Y66509D01*
X1789076Y66678D01*
X1789372Y66819D01*
X1789697Y66903D01*
X1789880Y66918D01*
X1790063Y66932D01*
X1790077D01*
X1790105D01*
X1790148D01*
X1790204Y66918D01*
X1790359Y66903D01*
X1790556Y66875D01*
X1790768Y66819D01*
X1791022Y66748D01*
X1791261Y66636D01*
X1791501Y66495D01*
X1791515D01*
X1791529Y66480D01*
X1791600Y66410D01*
X1791712Y66311D01*
X1791853Y66185D01*
X1792009Y66001D01*
X1792164Y65804D01*
X1792319Y65550D01*
X1792460Y65282D01*
Y65268D01*
X1792474Y65240D01*
X1792488Y65198D01*
X1792516Y65141D01*
X1792544Y65071D01*
X1792572Y64986D01*
X1792629Y64761D01*
X1792685Y64507D01*
X1792742Y64197D01*
X1792784Y63858D01*
X1792798Y63506D01*
Y63379D01*
X1792784Y63295D01*
Y63196D01*
X1792770Y63069D01*
X1792756Y62928D01*
X1792742Y62773D01*
X1792671Y62449D01*
X1792586Y62096D01*
X1792474Y61730D01*
X1792305Y61392D01*
Y61377D01*
X1792276Y61349D01*
X1792248Y61307D01*
X1792220Y61251D01*
X1792107Y61095D01*
X1791952Y60912D01*
X1791755Y60715D01*
X1791515Y60532D01*
X1791247Y60362D01*
X1790937Y60222D01*
X1790923D01*
X1790909Y60207D01*
X1790867Y60193D01*
X1790810Y60179D01*
X1790669Y60165D01*
X1790514Y60151D01*
X1790500D01*
X1790458D01*
X1790401Y60165D01*
X1790331Y60179D01*
X1790246Y60207D01*
X1790148Y60250D01*
X1790063Y60306D01*
X1789978Y60377D01*
X1789964Y60391D01*
X1789950Y60419D01*
X1789908Y60461D01*
X1789880Y60532D01*
X1789837Y60616D01*
X1789795Y60715D01*
X1789781Y60828D01*
X1789767Y60954D01*
Y61011D01*
X1789781Y61067D01*
Y61138D01*
X1789823Y61307D01*
X1789894Y61476D01*
X1789908Y61490D01*
X1789922Y61504D01*
X1790007Y61603D01*
X1790134Y61716D01*
X1790317Y61843D01*
X1790331D01*
X1790359Y61857D01*
X1790401Y61885D01*
X1790472Y61927D01*
X1790627Y62040D01*
X1790712Y62125D01*
X1790796Y62209D01*
X1790881Y62322D01*
X1790979Y62435D01*
X1791050Y62576D01*
X1791120Y62731D01*
X1791191Y62900D01*
X1791233Y63083D01*
X1791261Y63281D01*
X1791275Y63506D01*
Y63619D01*
X1791261Y63746D01*
X1791233Y63901D01*
X1791205Y64084D01*
X1791149Y64267D01*
X1791078Y64451D01*
X1790979Y64620D01*
X1790965Y64634D01*
X1790923Y64690D01*
X1790867Y64747D01*
X1790768Y64831D01*
X1790655Y64902D01*
X1790528Y64972D01*
X1790359Y65029D01*
X1790190Y65043D01*
X1790176D01*
X1790119D01*
X1790049Y65029D01*
X1789950Y65000D01*
X1789837Y64958D01*
X1789725Y64888D01*
X1789612Y64803D01*
X1789499Y64690D01*
X1789485Y64676D01*
X1789457Y64620D01*
X1789400Y64535D01*
X1789344Y64408D01*
X1789274Y64253D01*
X1789203Y64056D01*
X1789133Y63830D01*
X1789076Y63548D01*
X1788879Y62604D01*
Y62590D01*
X1788865Y62547D01*
X1788851Y62463D01*
X1788822Y62364D01*
X1788794Y62251D01*
X1788752Y62125D01*
X1788667Y61814D01*
X1788541Y61476D01*
X1788385Y61124D01*
X1788202Y60799D01*
X1788104Y60658D01*
X1787991Y60532D01*
Y60518D01*
X1787963Y60503D01*
X1787878Y60433D01*
X1787751Y60320D01*
X1787568Y60193D01*
X1787328Y60080D01*
X1787060Y59968D01*
X1786736Y59897D01*
X1786553Y59869D01*
X1786370D01*
X1786356D01*
X1786313D01*
X1786243D01*
X1786158Y59883D01*
X1786045Y59897D01*
X1785905Y59925D01*
X1785764Y59954D01*
X1785608Y59996D01*
X1785453Y60038D01*
X1785284Y60109D01*
X1785101Y60179D01*
X1784932Y60278D01*
X1784763Y60391D01*
X1784593Y60518D01*
X1784438Y60673D01*
X1784283Y60842D01*
X1784269Y60856D01*
X1784255Y60884D01*
X1784213Y60940D01*
X1784171Y61025D01*
X1784114Y61124D01*
X1784044Y61237D01*
X1783973Y61377D01*
X1783903Y61533D01*
X1783832Y61716D01*
X1783762Y61913D01*
X1783705Y62139D01*
X1783635Y62364D01*
X1783593Y62618D01*
X1783550Y62900D01*
X1783536Y63182D01*
X1783522Y63492D01*
Y63619D01*
X1783536Y63717D01*
Y63830D01*
X1783550Y63971D01*
X1783564Y64112D01*
X1783578Y64281D01*
X1783635Y64634D01*
X1783719Y65014D01*
X1783832Y65381D01*
X1783987Y65733D01*
Y65747D01*
X1784016Y65776D01*
X1784044Y65818D01*
X1784072Y65874D01*
X1784185Y66029D01*
X1784326Y66213D01*
X1784495Y66410D01*
X1784720Y66607D01*
X1784960Y66777D01*
X1785087Y66847D01*
X1785228Y66903D01*
X1785242D01*
X1785270Y66918D01*
X1785327Y66932D01*
X1785397Y66946D01*
X1785552Y66988D01*
X1785735Y67002D01*
X1785749D01*
X1785806D01*
X1785862Y66988D01*
D02*
G37*
G36*
X1765840Y97776D02*
X1765995Y97762D01*
X1766193Y97734D01*
X1766404Y97677D01*
X1766615Y97593D01*
X1766841Y97480D01*
X1767024Y97325D01*
X1767039Y97297D01*
X1767095Y97240D01*
X1767179Y97127D01*
X1767264Y96972D01*
X1767349Y96789D01*
X1767433Y96564D01*
X1767490Y96296D01*
X1767504Y95986D01*
Y89980D01*
X1767475Y89825D01*
X1767447Y89628D01*
X1767391Y89416D01*
X1767306Y89191D01*
X1767179Y88979D01*
X1767024Y88782D01*
X1766996Y88768D01*
X1766940Y88712D01*
X1766827Y88627D01*
X1766686Y88542D01*
X1766503Y88458D01*
X1766263Y88373D01*
X1766009Y88317D01*
X1765699Y88303D01*
X1759821D01*
X1759807D01*
X1759778D01*
X1759736D01*
X1759680D01*
X1759525Y88331D01*
X1759327Y88359D01*
X1759116Y88415D01*
X1758890Y88500D01*
X1758679Y88627D01*
X1758482Y88782D01*
X1758468Y88810D01*
X1758411Y88867D01*
X1758341Y88979D01*
X1758256Y89120D01*
X1758157Y89318D01*
X1758087Y89543D01*
X1758031Y89811D01*
X1758016Y90121D01*
Y96070D01*
X1758031Y96127D01*
X1758045Y96282D01*
X1758073Y96479D01*
X1758129Y96690D01*
X1758214Y96916D01*
X1758327Y97127D01*
X1758482Y97325D01*
X1758510Y97339D01*
X1758566Y97395D01*
X1758679Y97466D01*
X1758820Y97550D01*
X1759017Y97649D01*
X1759243Y97719D01*
X1759511Y97776D01*
X1759821Y97790D01*
X1765699D01*
X1765713D01*
X1765741D01*
X1765784D01*
X1765840Y97776D01*
D02*
G37*
G36*
X1762993Y84045D02*
X1763134D01*
X1763317Y84017D01*
X1763528Y84003D01*
X1763768Y83961D01*
X1764008Y83919D01*
X1764275Y83862D01*
X1764557Y83778D01*
X1764839Y83693D01*
X1765121Y83580D01*
X1765403Y83453D01*
X1765671Y83298D01*
X1765925Y83115D01*
X1766164Y82918D01*
X1766178Y82904D01*
X1766221Y82861D01*
X1766277Y82791D01*
X1766362Y82706D01*
X1766446Y82593D01*
X1766559Y82452D01*
X1766672Y82283D01*
X1766785Y82086D01*
X1766897Y81875D01*
X1767010Y81635D01*
X1767123Y81381D01*
X1767208Y81099D01*
X1767292Y80803D01*
X1767349Y80479D01*
X1767391Y80141D01*
X1767405Y79774D01*
Y79647D01*
X1767391Y79563D01*
Y79450D01*
X1767377Y79323D01*
X1767363Y79182D01*
X1767334Y79027D01*
X1767278Y78689D01*
X1767179Y78308D01*
X1767052Y77927D01*
X1766869Y77561D01*
Y77547D01*
X1766841Y77519D01*
X1766813Y77462D01*
X1766771Y77406D01*
X1766658Y77237D01*
X1766503Y77025D01*
X1766305Y76800D01*
X1766080Y76574D01*
X1765798Y76363D01*
X1765502Y76193D01*
X1765488D01*
X1765460Y76179D01*
X1765403Y76151D01*
X1765319Y76123D01*
X1765234Y76109D01*
X1765135Y76081D01*
X1764910Y76066D01*
X1764896D01*
X1764853D01*
X1764783Y76081D01*
X1764712Y76095D01*
X1764614Y76123D01*
X1764515Y76165D01*
X1764416Y76222D01*
X1764332Y76292D01*
X1764318Y76306D01*
X1764304Y76334D01*
X1764261Y76377D01*
X1764219Y76447D01*
X1764177Y76532D01*
X1764149Y76630D01*
X1764120Y76757D01*
X1764106Y76884D01*
Y76912D01*
X1764120Y76983D01*
X1764135Y77081D01*
X1764177Y77208D01*
X1764247Y77363D01*
X1764332Y77504D01*
X1764473Y77660D01*
X1764656Y77786D01*
X1764670Y77800D01*
X1764712Y77815D01*
X1764769Y77857D01*
X1764839Y77913D01*
X1764938Y77984D01*
X1765037Y78068D01*
X1765150Y78167D01*
X1765262Y78280D01*
X1765361Y78421D01*
X1765474Y78562D01*
X1765572Y78731D01*
X1765671Y78900D01*
X1765741Y79097D01*
X1765798Y79309D01*
X1765840Y79534D01*
X1765854Y79774D01*
Y79887D01*
X1765840Y79957D01*
X1765826Y80056D01*
X1765812Y80155D01*
X1765756Y80408D01*
X1765657Y80690D01*
X1765601Y80831D01*
X1765516Y80986D01*
X1765417Y81127D01*
X1765319Y81268D01*
X1765192Y81395D01*
X1765051Y81522D01*
X1765037D01*
X1765009Y81550D01*
X1764966Y81579D01*
X1764910Y81621D01*
X1764825Y81663D01*
X1764727Y81719D01*
X1764600Y81776D01*
X1764473Y81832D01*
X1764318Y81889D01*
X1764149Y81945D01*
X1763965Y82001D01*
X1763768Y82044D01*
X1763557Y82086D01*
X1763317Y82114D01*
X1763077Y82128D01*
X1762809Y82142D01*
X1762795D01*
X1762739D01*
X1762668D01*
X1762570Y82128D01*
X1762443D01*
X1762302Y82114D01*
X1762147Y82086D01*
X1761978Y82058D01*
X1761611Y81987D01*
X1761230Y81875D01*
X1760850Y81705D01*
X1760681Y81607D01*
X1760511Y81494D01*
X1760497Y81480D01*
X1760469Y81466D01*
X1760427Y81423D01*
X1760385Y81367D01*
X1760314Y81311D01*
X1760244Y81226D01*
X1760089Y81015D01*
X1759934Y80761D01*
X1759793Y80465D01*
X1759750Y80281D01*
X1759708Y80098D01*
X1759680Y79915D01*
X1759666Y79703D01*
Y79619D01*
X1759680Y79549D01*
Y79478D01*
X1759694Y79379D01*
X1759736Y79168D01*
X1759793Y78942D01*
X1759891Y78689D01*
X1760018Y78435D01*
X1760187Y78209D01*
X1760215Y78181D01*
X1760286Y78111D01*
X1760399Y78026D01*
X1760554Y77913D01*
X1760751Y77800D01*
X1760977Y77702D01*
X1761245Y77617D01*
X1761541Y77589D01*
X1761682Y77575D01*
Y78942D01*
X1761696Y78999D01*
X1761710Y79083D01*
X1761766Y79267D01*
X1761808Y79351D01*
X1761865Y79436D01*
X1761879Y79450D01*
X1761893Y79464D01*
X1761935Y79506D01*
X1761992Y79534D01*
X1762062Y79577D01*
X1762147Y79619D01*
X1762245Y79633D01*
X1762358Y79647D01*
X1762372D01*
X1762415D01*
X1762471Y79633D01*
X1762542Y79619D01*
X1762626Y79591D01*
X1762711Y79563D01*
X1762795Y79506D01*
X1762866Y79436D01*
X1762880Y79422D01*
X1762894Y79393D01*
X1762922Y79351D01*
X1762964Y79281D01*
X1762993Y79210D01*
X1763021Y79111D01*
X1763035Y79013D01*
X1763049Y78886D01*
Y76616D01*
X1763035Y76532D01*
X1763021Y76433D01*
X1762993Y76320D01*
X1762936Y76207D01*
X1762880Y76095D01*
X1762795Y75996D01*
X1762781Y75982D01*
X1762753Y75954D01*
X1762697Y75911D01*
X1762612Y75869D01*
X1762513Y75827D01*
X1762386Y75785D01*
X1762245Y75756D01*
X1762076Y75742D01*
X1761935D01*
X1761921D01*
X1761865D01*
X1761766D01*
X1761653Y75756D01*
X1761498Y75771D01*
X1761329Y75799D01*
X1761132Y75827D01*
X1760934Y75869D01*
X1760709Y75926D01*
X1760483Y75996D01*
X1760258Y76081D01*
X1760032Y76193D01*
X1759793Y76306D01*
X1759567Y76447D01*
X1759356Y76616D01*
X1759158Y76800D01*
X1759144Y76814D01*
X1759116Y76842D01*
X1759060Y76912D01*
X1759003Y76997D01*
X1758919Y77096D01*
X1758834Y77237D01*
X1758735Y77392D01*
X1758651Y77561D01*
X1758552Y77758D01*
X1758453Y77984D01*
X1758369Y78223D01*
X1758284Y78477D01*
X1758228Y78759D01*
X1758171Y79069D01*
X1758143Y79393D01*
X1758129Y79732D01*
Y79816D01*
X1758143Y79929D01*
Y80070D01*
X1758171Y80239D01*
X1758200Y80437D01*
X1758228Y80648D01*
X1758284Y80888D01*
X1758355Y81127D01*
X1758425Y81395D01*
X1758524Y81649D01*
X1758651Y81917D01*
X1758792Y82185D01*
X1758947Y82438D01*
X1759144Y82678D01*
X1759356Y82904D01*
X1759370Y82918D01*
X1759412Y82946D01*
X1759483Y83016D01*
X1759581Y83087D01*
X1759708Y83171D01*
X1759863Y83270D01*
X1760046Y83369D01*
X1760244Y83482D01*
X1760483Y83594D01*
X1760737Y83693D01*
X1761019Y83792D01*
X1761329Y83876D01*
X1761653Y83947D01*
X1762006Y84003D01*
X1762386Y84045D01*
X1762781Y84059D01*
X1762809D01*
X1762880D01*
X1762993Y84045D01*
D02*
G37*
G36*
X1766587Y74488D02*
X1766686Y74474D01*
X1766799Y74445D01*
X1766912Y74403D01*
X1767024Y74347D01*
X1767123Y74262D01*
X1767137Y74248D01*
X1767165Y74220D01*
X1767208Y74163D01*
X1767250Y74079D01*
X1767292Y73980D01*
X1767334Y73853D01*
X1767363Y73712D01*
X1767377Y73557D01*
Y73459D01*
X1767363Y73388D01*
X1767320Y73233D01*
X1767250Y73064D01*
Y73050D01*
X1767222Y73022D01*
X1767193Y72979D01*
X1767151Y72923D01*
X1767095Y72852D01*
X1767024Y72782D01*
X1766926Y72711D01*
X1766827Y72627D01*
X1761400Y68736D01*
Y68694D01*
X1766432D01*
X1766446D01*
X1766503D01*
X1766587Y68680D01*
X1766686Y68666D01*
X1766799Y68637D01*
X1766912Y68595D01*
X1767024Y68539D01*
X1767123Y68454D01*
X1767137Y68440D01*
X1767165Y68412D01*
X1767208Y68355D01*
X1767250Y68285D01*
X1767292Y68186D01*
X1767334Y68074D01*
X1767363Y67947D01*
X1767377Y67792D01*
Y67721D01*
X1767363Y67651D01*
X1767349Y67552D01*
X1767320Y67439D01*
X1767264Y67326D01*
X1767208Y67228D01*
X1767123Y67129D01*
X1767109Y67115D01*
X1767081Y67087D01*
X1767024Y67059D01*
X1766954Y67002D01*
X1766855Y66960D01*
X1766728Y66932D01*
X1766587Y66904D01*
X1766432Y66889D01*
X1759060D01*
X1759046D01*
X1758989D01*
X1758905Y66904D01*
X1758806Y66918D01*
X1758707Y66946D01*
X1758594Y66988D01*
X1758482Y67044D01*
X1758383Y67129D01*
X1758369Y67143D01*
X1758355Y67171D01*
X1758312Y67228D01*
X1758270Y67298D01*
X1758228Y67397D01*
X1758200Y67510D01*
X1758171Y67651D01*
X1758157Y67806D01*
Y67919D01*
X1758171Y67989D01*
X1758200Y68158D01*
X1758270Y68327D01*
Y68341D01*
X1758298Y68370D01*
X1758327Y68412D01*
X1758369Y68454D01*
X1758425Y68525D01*
X1758496Y68595D01*
X1758580Y68666D01*
X1758693Y68750D01*
X1764149Y72655D01*
Y72711D01*
X1759088D01*
X1759074D01*
X1759017D01*
X1758933Y72726D01*
X1758834Y72740D01*
X1758721Y72768D01*
X1758608Y72810D01*
X1758496Y72867D01*
X1758397Y72951D01*
X1758383Y72965D01*
X1758355Y72993D01*
X1758327Y73050D01*
X1758284Y73120D01*
X1758228Y73205D01*
X1758200Y73318D01*
X1758171Y73444D01*
X1758157Y73600D01*
Y73670D01*
X1758171Y73741D01*
X1758185Y73839D01*
X1758214Y73952D01*
X1758256Y74051D01*
X1758312Y74163D01*
X1758397Y74262D01*
X1758411Y74276D01*
X1758439Y74304D01*
X1758496Y74333D01*
X1758580Y74375D01*
X1758665Y74431D01*
X1758792Y74460D01*
X1758933Y74488D01*
X1759088Y74502D01*
X1766432D01*
X1766446D01*
X1766503D01*
X1766587Y74488D01*
D02*
G37*
G36*
X1766432Y65381D02*
X1766531Y65367D01*
X1766644Y65339D01*
X1766771Y65296D01*
X1766883Y65240D01*
X1766982Y65155D01*
X1766996Y65141D01*
X1767024Y65113D01*
X1767067Y65057D01*
X1767123Y64972D01*
X1767165Y64873D01*
X1767208Y64761D01*
X1767236Y64620D01*
X1767250Y64465D01*
Y61885D01*
X1767236Y61772D01*
Y61631D01*
X1767208Y61462D01*
X1767193Y61265D01*
X1767151Y61053D01*
X1767109Y60814D01*
X1767039Y60560D01*
X1766968Y60306D01*
X1766869Y60038D01*
X1766756Y59784D01*
X1766630Y59517D01*
X1766461Y59277D01*
X1766291Y59037D01*
X1766080Y58812D01*
X1766066Y58798D01*
X1766024Y58769D01*
X1765953Y58713D01*
X1765868Y58629D01*
X1765741Y58544D01*
X1765601Y58459D01*
X1765431Y58347D01*
X1765234Y58248D01*
X1765023Y58149D01*
X1764769Y58036D01*
X1764501Y57952D01*
X1764205Y57853D01*
X1763895Y57783D01*
X1763542Y57726D01*
X1763190Y57698D01*
X1762795Y57684D01*
X1762767D01*
X1762697D01*
X1762584D01*
X1762443Y57698D01*
X1762260Y57712D01*
X1762048Y57740D01*
X1761823Y57783D01*
X1761569Y57825D01*
X1761315Y57881D01*
X1761033Y57952D01*
X1760765Y58051D01*
X1760483Y58163D01*
X1760201Y58290D01*
X1759948Y58445D01*
X1759694Y58614D01*
X1759454Y58812D01*
X1759440Y58826D01*
X1759398Y58868D01*
X1759341Y58925D01*
X1759271Y59023D01*
X1759186Y59136D01*
X1759074Y59277D01*
X1758975Y59446D01*
X1758862Y59629D01*
X1758749Y59841D01*
X1758651Y60080D01*
X1758552Y60334D01*
X1758453Y60616D01*
X1758383Y60926D01*
X1758327Y61251D01*
X1758284Y61603D01*
X1758270Y61969D01*
Y64535D01*
X1758284Y64620D01*
X1758298Y64718D01*
X1758327Y64831D01*
X1758383Y64944D01*
X1758439Y65057D01*
X1758524Y65155D01*
X1758538Y65170D01*
X1758566Y65198D01*
X1758622Y65226D01*
X1758707Y65268D01*
X1758806Y65325D01*
X1758933Y65353D01*
X1759074Y65381D01*
X1759243Y65395D01*
X1766277D01*
X1766291D01*
X1766348D01*
X1766432Y65381D01*
D02*
G37*
%LPC*%
G36*
X1714892Y67425D02*
X1709014D01*
Y65973D01*
X1709028Y65889D01*
X1709042Y65790D01*
X1709056Y65663D01*
X1709112Y65381D01*
X1709197Y65071D01*
X1709324Y64747D01*
X1709409Y64591D01*
X1709521Y64436D01*
X1709634Y64296D01*
X1709761Y64169D01*
X1709775Y64155D01*
X1709803Y64140D01*
X1709845Y64112D01*
X1709902Y64070D01*
X1709986Y64014D01*
X1710085Y63957D01*
X1710198Y63901D01*
X1710325Y63830D01*
X1710466Y63774D01*
X1710635Y63717D01*
X1710818Y63661D01*
X1711015Y63605D01*
X1711227Y63562D01*
X1711467Y63534D01*
X1711706Y63506D01*
X1711974D01*
X1711988D01*
X1712030D01*
X1712115D01*
X1712200Y63520D01*
X1712327D01*
X1712453Y63534D01*
X1712608Y63562D01*
X1712778Y63591D01*
X1713116Y63675D01*
X1713483Y63788D01*
X1713821Y63957D01*
X1713990Y64070D01*
X1714131Y64183D01*
X1714145Y64197D01*
X1714159Y64211D01*
X1714201Y64253D01*
X1714244Y64310D01*
X1714314Y64380D01*
X1714371Y64465D01*
X1714441Y64563D01*
X1714512Y64676D01*
X1714582Y64803D01*
X1714653Y64944D01*
X1714723Y65099D01*
X1714779Y65282D01*
X1714864Y65663D01*
X1714878Y65874D01*
X1714892Y66100D01*
Y67425D01*
D02*
G37*
G36*
X1740384Y83580D02*
X1737522D01*
Y81846D01*
X1737536Y81719D01*
X1737564Y81550D01*
X1737621Y81381D01*
X1737677Y81198D01*
X1737776Y81015D01*
X1737903Y80859D01*
X1737917Y80845D01*
X1737973Y80803D01*
X1738058Y80733D01*
X1738171Y80662D01*
X1738326Y80592D01*
X1738509Y80521D01*
X1738706Y80479D01*
X1738946Y80465D01*
X1738960D01*
X1738974D01*
X1739059D01*
X1739171Y80479D01*
X1739326Y80521D01*
X1739496Y80563D01*
X1739665Y80634D01*
X1739834Y80733D01*
X1739989Y80874D01*
X1740003Y80888D01*
X1740045Y80944D01*
X1740116Y81043D01*
X1740186Y81170D01*
X1740257Y81325D01*
X1740327Y81508D01*
X1740370Y81734D01*
X1740384Y81973D01*
Y83580D01*
D02*
G37*
G36*
X1740299Y66678D02*
X1734421D01*
Y65226D01*
X1734435Y65141D01*
X1734449Y65043D01*
X1734463Y64916D01*
X1734520Y64634D01*
X1734604Y64324D01*
X1734731Y64000D01*
X1734816Y63844D01*
X1734928Y63689D01*
X1735041Y63548D01*
X1735168Y63422D01*
X1735182Y63407D01*
X1735210Y63393D01*
X1735253Y63365D01*
X1735309Y63323D01*
X1735394Y63266D01*
X1735492Y63210D01*
X1735605Y63154D01*
X1735732Y63083D01*
X1735873Y63027D01*
X1736042Y62970D01*
X1736225Y62914D01*
X1736423Y62858D01*
X1736634Y62815D01*
X1736874Y62787D01*
X1737113Y62759D01*
X1737381D01*
X1737395D01*
X1737437D01*
X1737522D01*
X1737607Y62773D01*
X1737734D01*
X1737861Y62787D01*
X1738015Y62815D01*
X1738185Y62843D01*
X1738523Y62928D01*
X1738889Y63041D01*
X1739228Y63210D01*
X1739397Y63323D01*
X1739538Y63436D01*
X1739552Y63450D01*
X1739566Y63464D01*
X1739608Y63506D01*
X1739651Y63562D01*
X1739721Y63633D01*
X1739778Y63718D01*
X1739848Y63816D01*
X1739919Y63929D01*
X1739989Y64056D01*
X1740060Y64197D01*
X1740130Y64352D01*
X1740186Y64535D01*
X1740271Y64916D01*
X1740285Y65127D01*
X1740299Y65353D01*
Y66678D01*
D02*
G37*
G36*
X1787969Y150007D02*
X1787870D01*
X1787786Y149993D01*
X1787701Y149979D01*
X1787589Y149965D01*
X1787335Y149909D01*
X1787053Y149796D01*
X1786912Y149740D01*
X1786757Y149655D01*
X1786616Y149556D01*
X1786475Y149444D01*
X1786334Y149317D01*
X1786207Y149162D01*
Y149148D01*
X1786179Y149119D01*
X1786151Y149077D01*
X1786108Y149007D01*
X1786052Y148922D01*
X1785995Y148823D01*
X1785939Y148710D01*
X1785883Y148570D01*
X1785826Y148414D01*
X1785770Y148245D01*
X1785714Y148062D01*
X1785657Y147865D01*
X1785615Y147653D01*
X1785587Y147428D01*
X1785573Y147174D01*
X1785558Y146920D01*
Y146906D01*
Y146864D01*
Y146779D01*
X1785573Y146681D01*
Y146568D01*
X1785587Y146427D01*
X1785615Y146272D01*
X1785643Y146117D01*
X1785714Y145750D01*
X1785826Y145384D01*
X1785995Y145017D01*
X1786094Y144848D01*
X1786207Y144679D01*
X1786221Y144665D01*
X1786235Y144636D01*
X1786277Y144608D01*
X1786334Y144552D01*
X1786390Y144481D01*
X1786475Y144411D01*
X1786672Y144270D01*
X1786926Y144115D01*
X1787236Y143974D01*
X1787405Y143918D01*
X1787574Y143889D01*
X1787772Y143861D01*
X1787969Y143847D01*
X1788082D01*
X1788152Y143861D01*
X1788251Y143875D01*
X1788350Y143889D01*
X1788604Y143946D01*
X1788885Y144044D01*
X1789026Y144115D01*
X1789167Y144199D01*
X1789322Y144298D01*
X1789449Y144411D01*
X1789590Y144538D01*
X1789717Y144679D01*
X1789731Y144693D01*
X1789745Y144721D01*
X1789774Y144763D01*
X1789816Y144834D01*
X1789872Y144918D01*
X1789929Y145017D01*
X1789985Y145130D01*
X1790056Y145271D01*
X1790112Y145426D01*
X1790168Y145595D01*
X1790225Y145778D01*
X1790281Y145976D01*
X1790323Y146187D01*
X1790352Y146413D01*
X1790380Y146666D01*
Y146920D01*
Y146934D01*
Y146977D01*
Y147061D01*
X1790366Y147160D01*
Y147273D01*
X1790352Y147414D01*
X1790323Y147569D01*
X1790295Y147724D01*
X1790225Y148090D01*
X1790098Y148457D01*
X1789943Y148823D01*
X1789830Y149007D01*
X1789717Y149162D01*
X1789703Y149176D01*
X1789689Y149204D01*
X1789647Y149246D01*
X1789604Y149289D01*
X1789449Y149430D01*
X1789252Y149585D01*
X1789012Y149740D01*
X1788702Y149881D01*
X1788533Y149923D01*
X1788364Y149965D01*
X1788167Y149993D01*
X1787969Y150007D01*
D02*
G37*
G36*
X1836223Y134627D02*
X1834898D01*
Y128748D01*
X1836350D01*
X1836435Y128762D01*
X1836533Y128776D01*
X1836660Y128790D01*
X1836942Y128847D01*
X1837252Y128931D01*
X1837576Y129058D01*
X1837731Y129143D01*
X1837887Y129256D01*
X1838028Y129368D01*
X1838154Y129495D01*
X1838168Y129509D01*
X1838183Y129537D01*
X1838211Y129580D01*
X1838253Y129636D01*
X1838309Y129721D01*
X1838366Y129819D01*
X1838422Y129932D01*
X1838493Y130059D01*
X1838549Y130200D01*
X1838605Y130369D01*
X1838662Y130552D01*
X1838718Y130750D01*
X1838761Y130961D01*
X1838789Y131201D01*
X1838817Y131441D01*
Y131708D01*
Y131722D01*
Y131765D01*
Y131849D01*
X1838803Y131934D01*
Y132061D01*
X1838789Y132188D01*
X1838761Y132343D01*
X1838732Y132512D01*
X1838648Y132850D01*
X1838535Y133217D01*
X1838366Y133555D01*
X1838253Y133724D01*
X1838140Y133865D01*
X1838126Y133879D01*
X1838112Y133893D01*
X1838070Y133936D01*
X1838013Y133978D01*
X1837943Y134049D01*
X1837858Y134105D01*
X1837760Y134175D01*
X1837647Y134246D01*
X1837520Y134316D01*
X1837379Y134387D01*
X1837224Y134457D01*
X1837041Y134514D01*
X1836660Y134598D01*
X1836449Y134612D01*
X1836223Y134627D01*
D02*
G37*
G36*
X1787969Y134767D02*
X1787870D01*
X1787786Y134753D01*
X1787701Y134739D01*
X1787589Y134725D01*
X1787335Y134669D01*
X1787053Y134556D01*
X1786912Y134500D01*
X1786757Y134415D01*
X1786616Y134316D01*
X1786475Y134204D01*
X1786334Y134077D01*
X1786207Y133922D01*
Y133907D01*
X1786179Y133879D01*
X1786151Y133837D01*
X1786108Y133767D01*
X1786052Y133682D01*
X1785995Y133583D01*
X1785939Y133470D01*
X1785883Y133330D01*
X1785826Y133174D01*
X1785770Y133005D01*
X1785714Y132822D01*
X1785657Y132625D01*
X1785615Y132413D01*
X1785587Y132188D01*
X1785573Y131934D01*
X1785558Y131680D01*
Y131666D01*
Y131624D01*
Y131539D01*
X1785573Y131441D01*
Y131328D01*
X1785587Y131187D01*
X1785615Y131032D01*
X1785643Y130877D01*
X1785714Y130510D01*
X1785826Y130144D01*
X1785995Y129777D01*
X1786094Y129608D01*
X1786207Y129439D01*
X1786221Y129425D01*
X1786235Y129396D01*
X1786277Y129368D01*
X1786334Y129312D01*
X1786390Y129241D01*
X1786475Y129171D01*
X1786672Y129030D01*
X1786926Y128875D01*
X1787236Y128734D01*
X1787405Y128678D01*
X1787574Y128649D01*
X1787772Y128621D01*
X1787969Y128607D01*
X1788082D01*
X1788152Y128621D01*
X1788251Y128635D01*
X1788350Y128649D01*
X1788604Y128706D01*
X1788885Y128804D01*
X1789026Y128875D01*
X1789167Y128960D01*
X1789322Y129058D01*
X1789449Y129171D01*
X1789590Y129298D01*
X1789717Y129439D01*
X1789731Y129453D01*
X1789745Y129481D01*
X1789774Y129523D01*
X1789816Y129594D01*
X1789872Y129678D01*
X1789929Y129777D01*
X1789985Y129890D01*
X1790056Y130031D01*
X1790112Y130186D01*
X1790168Y130355D01*
X1790225Y130538D01*
X1790281Y130736D01*
X1790323Y130947D01*
X1790352Y131173D01*
X1790380Y131426D01*
Y131680D01*
Y131694D01*
Y131737D01*
Y131821D01*
X1790366Y131920D01*
Y132033D01*
X1790352Y132174D01*
X1790323Y132329D01*
X1790295Y132484D01*
X1790225Y132850D01*
X1790098Y133217D01*
X1789943Y133583D01*
X1789830Y133767D01*
X1789717Y133922D01*
X1789703Y133936D01*
X1789689Y133964D01*
X1789647Y134006D01*
X1789604Y134049D01*
X1789449Y134190D01*
X1789252Y134345D01*
X1789012Y134500D01*
X1788702Y134641D01*
X1788533Y134683D01*
X1788364Y134725D01*
X1788167Y134753D01*
X1787969Y134767D01*
D02*
G37*
G36*
X1841892Y76165D02*
X1836014D01*
Y74713D01*
X1836028Y74629D01*
X1836042Y74530D01*
X1836056Y74403D01*
X1836112Y74121D01*
X1836197Y73811D01*
X1836324Y73487D01*
X1836408Y73332D01*
X1836521Y73177D01*
X1836634Y73036D01*
X1836761Y72909D01*
X1836775Y72895D01*
X1836803Y72881D01*
X1836845Y72852D01*
X1836902Y72810D01*
X1836986Y72754D01*
X1837085Y72697D01*
X1837198Y72641D01*
X1837325Y72571D01*
X1837466Y72514D01*
X1837635Y72458D01*
X1837818Y72401D01*
X1838015Y72345D01*
X1838227Y72303D01*
X1838467Y72274D01*
X1838706Y72246D01*
X1838974D01*
X1838988D01*
X1839030D01*
X1839115D01*
X1839200Y72260D01*
X1839326D01*
X1839453Y72274D01*
X1839608Y72303D01*
X1839778Y72331D01*
X1840116Y72415D01*
X1840482Y72528D01*
X1840821Y72697D01*
X1840990Y72810D01*
X1841131Y72923D01*
X1841145Y72937D01*
X1841159Y72951D01*
X1841201Y72993D01*
X1841244Y73050D01*
X1841314Y73120D01*
X1841371Y73205D01*
X1841441Y73303D01*
X1841512Y73416D01*
X1841582Y73543D01*
X1841653Y73684D01*
X1841723Y73839D01*
X1841779Y74022D01*
X1841864Y74403D01*
X1841878Y74615D01*
X1841892Y74840D01*
Y76165D01*
D02*
G37*
G36*
X1838946Y67481D02*
X1838932D01*
X1838889D01*
X1838805D01*
X1838706Y67467D01*
X1838593D01*
X1838452Y67453D01*
X1838297Y67425D01*
X1838142Y67397D01*
X1837776Y67326D01*
X1837409Y67214D01*
X1837043Y67044D01*
X1836874Y66946D01*
X1836705Y66833D01*
X1836690Y66819D01*
X1836662Y66805D01*
X1836634Y66762D01*
X1836578Y66706D01*
X1836507Y66650D01*
X1836437Y66565D01*
X1836296Y66368D01*
X1836141Y66114D01*
X1836000Y65804D01*
X1835943Y65635D01*
X1835915Y65466D01*
X1835887Y65268D01*
X1835873Y65071D01*
Y64958D01*
X1835887Y64888D01*
X1835901Y64789D01*
X1835915Y64690D01*
X1835971Y64436D01*
X1836070Y64155D01*
X1836141Y64014D01*
X1836225Y63873D01*
X1836324Y63718D01*
X1836437Y63591D01*
X1836564Y63450D01*
X1836705Y63323D01*
X1836719Y63309D01*
X1836747Y63295D01*
X1836789Y63266D01*
X1836859Y63224D01*
X1836944Y63168D01*
X1837043Y63111D01*
X1837156Y63055D01*
X1837297Y62984D01*
X1837452Y62928D01*
X1837621Y62872D01*
X1837804Y62815D01*
X1838001Y62759D01*
X1838213Y62717D01*
X1838438Y62688D01*
X1838692Y62660D01*
X1838946D01*
X1838960D01*
X1839002D01*
X1839087D01*
X1839186Y62674D01*
X1839298D01*
X1839439Y62688D01*
X1839594Y62717D01*
X1839749Y62745D01*
X1840116Y62815D01*
X1840482Y62942D01*
X1840849Y63097D01*
X1841032Y63210D01*
X1841187Y63323D01*
X1841201Y63337D01*
X1841230Y63351D01*
X1841272Y63393D01*
X1841314Y63436D01*
X1841455Y63591D01*
X1841610Y63788D01*
X1841765Y64028D01*
X1841906Y64338D01*
X1841949Y64507D01*
X1841991Y64676D01*
X1842019Y64873D01*
X1842033Y65071D01*
Y65170D01*
X1842019Y65254D01*
X1842005Y65339D01*
X1841991Y65451D01*
X1841935Y65705D01*
X1841822Y65987D01*
X1841765Y66128D01*
X1841681Y66283D01*
X1841582Y66424D01*
X1841469Y66565D01*
X1841342Y66706D01*
X1841187Y66833D01*
X1841173D01*
X1841145Y66861D01*
X1841103Y66889D01*
X1841032Y66932D01*
X1840948Y66988D01*
X1840849Y67044D01*
X1840736Y67101D01*
X1840595Y67157D01*
X1840440Y67214D01*
X1840271Y67270D01*
X1840088Y67326D01*
X1839890Y67383D01*
X1839679Y67425D01*
X1839453Y67453D01*
X1839200Y67467D01*
X1838946Y67481D01*
D02*
G37*
G36*
X1816492Y75911D02*
X1810614D01*
Y74460D01*
X1810628Y74375D01*
X1810642Y74276D01*
X1810656Y74149D01*
X1810712Y73867D01*
X1810797Y73557D01*
X1810924Y73233D01*
X1811008Y73078D01*
X1811121Y72923D01*
X1811234Y72782D01*
X1811361Y72655D01*
X1811375Y72641D01*
X1811403Y72627D01*
X1811445Y72599D01*
X1811502Y72556D01*
X1811586Y72500D01*
X1811685Y72444D01*
X1811798Y72387D01*
X1811925Y72317D01*
X1812066Y72260D01*
X1812235Y72204D01*
X1812418Y72148D01*
X1812616Y72091D01*
X1812827Y72049D01*
X1813067Y72021D01*
X1813306Y71993D01*
X1813574D01*
X1813588D01*
X1813631D01*
X1813715D01*
X1813800Y72007D01*
X1813927D01*
X1814053Y72021D01*
X1814209Y72049D01*
X1814378Y72077D01*
X1814716Y72162D01*
X1815083Y72274D01*
X1815421Y72444D01*
X1815590Y72556D01*
X1815731Y72669D01*
X1815745Y72683D01*
X1815759Y72697D01*
X1815801Y72740D01*
X1815844Y72796D01*
X1815914Y72867D01*
X1815971Y72951D01*
X1816041Y73050D01*
X1816112Y73162D01*
X1816182Y73289D01*
X1816252Y73430D01*
X1816323Y73586D01*
X1816379Y73769D01*
X1816464Y74149D01*
X1816478Y74361D01*
X1816492Y74586D01*
Y75911D01*
D02*
G37*
G36*
X1765699Y63520D02*
X1759821D01*
Y62068D01*
X1759835Y61984D01*
X1759849Y61885D01*
X1759863Y61758D01*
X1759919Y61476D01*
X1760004Y61166D01*
X1760131Y60842D01*
X1760215Y60687D01*
X1760328Y60532D01*
X1760441Y60391D01*
X1760568Y60264D01*
X1760582Y60250D01*
X1760610Y60236D01*
X1760652Y60207D01*
X1760709Y60165D01*
X1760793Y60109D01*
X1760892Y60052D01*
X1761005Y59996D01*
X1761132Y59925D01*
X1761273Y59869D01*
X1761442Y59813D01*
X1761625Y59756D01*
X1761823Y59700D01*
X1762034Y59658D01*
X1762274Y59629D01*
X1762513Y59601D01*
X1762781D01*
X1762795D01*
X1762838D01*
X1762922D01*
X1763007Y59615D01*
X1763134D01*
X1763260Y59629D01*
X1763416Y59658D01*
X1763585Y59686D01*
X1763923Y59770D01*
X1764290Y59883D01*
X1764628Y60052D01*
X1764797Y60165D01*
X1764938Y60278D01*
X1764952Y60292D01*
X1764966Y60306D01*
X1765009Y60348D01*
X1765051Y60405D01*
X1765121Y60475D01*
X1765178Y60560D01*
X1765248Y60658D01*
X1765319Y60771D01*
X1765389Y60898D01*
X1765460Y61039D01*
X1765530Y61194D01*
X1765587Y61377D01*
X1765671Y61758D01*
X1765685Y61969D01*
X1765699Y62195D01*
Y63520D01*
D02*
G37*
%LPD*%
D10*
X1892541Y1135694D02*
G03*
X1892541Y1135694I-1270J0D01*
G01*
X2867411Y1135914D02*
G03*
X2867411Y1135914I-1270J0D01*
G01*
X2764541D02*
G03*
X2764541Y1135914I-1270J0D01*
G01*
X2642541Y1135694D02*
G03*
X2642541Y1135694I-1270J0D01*
G01*
X2492541D02*
G03*
X2492541Y1135694I-1270J0D01*
G01*
X2342541D02*
G03*
X2342541Y1135694I-1270J0D01*
G01*
X692541D02*
G03*
X692541Y1135694I-1270J0D01*
G01*
X2192541D02*
G03*
X2192541Y1135694I-1270J0D01*
G01*
X542541D02*
G03*
X542541Y1135694I-1270J0D01*
G01*
X242541D02*
G03*
X242541Y1135694I-1270J0D01*
G01*
X97621D02*
G03*
X97621Y1135694I-1270J0D01*
G01*
X1142541D02*
G03*
X1142541Y1135694I-1270J0D01*
G01*
X992541D02*
G03*
X992541Y1135694I-1270J0D01*
G01*
X392541D02*
G03*
X392541Y1135694I-1270J0D01*
G01*
X842541D02*
G03*
X842541Y1135694I-1270J0D01*
G01*
X1442541D02*
G03*
X1442541Y1135694I-1270J0D01*
G01*
X2042541D02*
G03*
X2042541Y1135694I-1270J0D01*
G01*
X1742541D02*
G03*
X1742541Y1135694I-1270J0D01*
G01*
X1592541D02*
G03*
X1592541Y1135694I-1270J0D01*
G01*
X1292541D02*
G03*
X1292541Y1135694I-1270J0D01*
G01*
X2817500Y1105200D02*
Y1135200D01*
X2857500Y1105200D02*
Y1135200D01*
X2817500D02*
X2857500D01*
X2817500Y1105200D02*
X2857500D01*
D11*
X455020Y214540D02*
Y242540D01*
X420020Y214540D02*
Y242540D01*
Y214540D02*
X455020D01*
X420020Y242540D02*
X455020D01*
X193400Y976540D02*
Y1004540D01*
X158400Y976540D02*
Y1004540D01*
Y976540D02*
X193400D01*
X158400Y1004540D02*
X193400D01*
X2098400Y976540D02*
Y1004540D01*
X2063400Y976540D02*
Y1004540D01*
Y976540D02*
X2098400D01*
X2063400Y1004540D02*
X2098400D01*
X383900Y976540D02*
Y1004540D01*
X348900Y976540D02*
Y1004540D01*
Y976540D02*
X383900D01*
X348900Y1004540D02*
X383900D01*
X574400Y976540D02*
Y1004540D01*
X539400Y976540D02*
Y1004540D01*
Y976540D02*
X574400D01*
X539400Y1004540D02*
X574400D01*
X763630Y976540D02*
Y1004540D01*
X728630Y976540D02*
Y1004540D01*
Y976540D02*
X763630D01*
X728630Y1004540D02*
X763630D01*
X955400Y976540D02*
Y1004540D01*
X920400Y976540D02*
Y1004540D01*
Y976540D02*
X955400D01*
X920400Y1004540D02*
X955400D01*
X1144630Y976540D02*
Y1004540D01*
X1109630Y976540D02*
Y1004540D01*
Y976540D02*
X1144630D01*
X1109630Y1004540D02*
X1144630D01*
X1335130Y976540D02*
Y1004540D01*
X1300130Y976540D02*
Y1004540D01*
Y976540D02*
X1335130D01*
X1300130Y1004540D02*
X1335130D01*
X1526900Y976540D02*
Y1004540D01*
X1491900Y976540D02*
Y1004540D01*
Y976540D02*
X1526900D01*
X1491900Y1004540D02*
X1526900D01*
X1716130Y976540D02*
Y1004540D01*
X1681130Y976540D02*
Y1004540D01*
Y976540D02*
X1716130D01*
X1681130Y1004540D02*
X1716130D01*
X1906630Y976540D02*
Y1004540D01*
X1871630Y976540D02*
Y1004540D01*
Y976540D02*
X1906630D01*
X1871630Y1004540D02*
X1906630D01*
X2431140Y595540D02*
Y623540D01*
X2396140Y595540D02*
Y623540D01*
Y595540D02*
X2431140D01*
X2396140Y623540D02*
X2431140D01*
X1907900Y405040D02*
Y433040D01*
X1872900Y405040D02*
Y433040D01*
Y405040D02*
X1907900D01*
X1872900Y433040D02*
X1907900D01*
X2288500Y976540D02*
Y1004540D01*
X2253500Y976540D02*
Y1004540D01*
Y976540D02*
X2288500D01*
X2253500Y1004540D02*
X2288500D01*
X2098000Y405040D02*
Y433040D01*
X2063000Y405040D02*
Y433040D01*
Y405040D02*
X2098000D01*
X2063000Y433040D02*
X2098000D01*
X2240640Y595540D02*
Y623540D01*
X2205640Y595540D02*
Y623540D01*
Y595540D02*
X2240640D01*
X2205640Y623540D02*
X2240640D01*
X2478130Y976540D02*
Y1004540D01*
X2443130Y976540D02*
Y1004540D01*
Y976540D02*
X2478130D01*
X2443130Y1004540D02*
X2478130D01*
X2382880Y786040D02*
Y814040D01*
X2347880Y786040D02*
Y814040D01*
Y786040D02*
X2382880D01*
X2347880Y814040D02*
X2382880D01*
X2812140Y786040D02*
Y814040D01*
X2777140Y786040D02*
Y814040D01*
Y786040D02*
X2812140D01*
X2777140Y814040D02*
X2812140D01*
X2573380Y786040D02*
Y814040D01*
X2538380Y786040D02*
Y814040D01*
Y786040D02*
X2573380D01*
X2538380Y814040D02*
X2573380D01*
X526140Y595540D02*
Y623540D01*
X491140Y595540D02*
Y623540D01*
Y595540D02*
X526140D01*
X491140Y623540D02*
X526140D01*
X2763880Y976540D02*
Y1004540D01*
X2728880Y976540D02*
Y1004540D01*
Y976540D02*
X2763880D01*
X2728880Y1004540D02*
X2763880D01*
X1336000Y405040D02*
Y433040D01*
X1301000Y405040D02*
Y433040D01*
Y405040D02*
X1336000D01*
X1301000Y433040D02*
X1336000D01*
X264520Y595540D02*
Y623540D01*
X229520Y595540D02*
Y623540D01*
Y595540D02*
X264520D01*
X229520Y623540D02*
X264520D01*
X955000Y405040D02*
Y433040D01*
X920000Y405040D02*
Y433040D01*
Y405040D02*
X955000D01*
X920000Y433040D02*
X955000D01*
X2860000Y405040D02*
Y433040D01*
X2825000Y405040D02*
Y433040D01*
Y405040D02*
X2860000D01*
X2825000Y433040D02*
X2860000D01*
X2668630Y214540D02*
Y242540D01*
X2633630Y214540D02*
Y242540D01*
Y214540D02*
X2668630D01*
X2633630Y242540D02*
X2668630D01*
X906740Y595540D02*
Y623540D01*
X871740Y595540D02*
Y623540D01*
Y595540D02*
X906740D01*
X871740Y623540D02*
X906740D01*
X2739750Y595540D02*
Y623540D01*
X2704750Y595540D02*
Y623540D01*
Y595540D02*
X2739750D01*
X2704750Y623540D02*
X2739750D01*
X858880Y786040D02*
Y814040D01*
X823880Y786040D02*
Y814040D01*
Y786040D02*
X858880D01*
X823880Y814040D02*
X858880D01*
X1097640Y595540D02*
Y623540D01*
X1062640Y595540D02*
Y623540D01*
Y595540D02*
X1097640D01*
X1062640Y623540D02*
X1097640D01*
X2098400Y214540D02*
Y242540D01*
X2063400Y214540D02*
Y242540D01*
Y214540D02*
X2098400D01*
X2063400Y242540D02*
X2098400D01*
X1287740Y595540D02*
Y623540D01*
X1252740Y595540D02*
Y623540D01*
Y595540D02*
X1287740D01*
X1252740Y623540D02*
X1287740D01*
X1478640Y595540D02*
Y623540D01*
X1443640Y595540D02*
Y623540D01*
Y595540D02*
X1478640D01*
X1443640Y623540D02*
X1478640D01*
X1811380Y786040D02*
Y814040D01*
X1776380Y786040D02*
Y814040D01*
Y786040D02*
X1811380D01*
X1776380Y814040D02*
X1811380D01*
X1669140Y595540D02*
Y623540D01*
X1634140Y595540D02*
Y623540D01*
Y595540D02*
X1669140D01*
X1634140Y623540D02*
X1669140D01*
X1859640Y595540D02*
Y623540D01*
X1824640Y595540D02*
Y623540D01*
Y595540D02*
X1859640D01*
X1824640Y623540D02*
X1859640D01*
X692510Y214540D02*
Y242540D01*
X657510Y214540D02*
Y242540D01*
Y214540D02*
X692510D01*
X657510Y242540D02*
X692510D01*
X216260Y214540D02*
Y242540D01*
X181260Y214540D02*
Y242540D01*
Y214540D02*
X216260D01*
X181260Y242540D02*
X216260D01*
X2478130Y214540D02*
Y242540D01*
X2443130Y214540D02*
Y242540D01*
Y214540D02*
X2478130D01*
X2443130Y242540D02*
X2478130D01*
X287380Y405040D02*
Y433040D01*
X252380Y405040D02*
Y433040D01*
Y405040D02*
X287380D01*
X252380Y433040D02*
X287380D01*
X2050140Y595540D02*
Y623540D01*
X2015140Y595540D02*
Y623540D01*
Y595540D02*
X2050140D01*
X2015140Y623540D02*
X2050140D01*
X2287630Y214540D02*
Y242540D01*
X2252630Y214540D02*
Y242540D01*
Y214540D02*
X2287630D01*
X2252630Y242540D02*
X2287630D01*
X1716130Y405040D02*
Y433040D01*
X1681130Y405040D02*
Y433040D01*
Y405040D02*
X1716130D01*
X1681130Y433040D02*
X1716130D01*
X1525630Y405040D02*
Y433040D01*
X1490630Y405040D02*
Y433040D01*
Y405040D02*
X1525630D01*
X1490630Y433040D02*
X1525630D01*
X2001880Y786040D02*
Y814040D01*
X1966880Y786040D02*
Y814040D01*
Y786040D02*
X2001880D01*
X1966880Y814040D02*
X2001880D01*
X2192380Y786040D02*
Y814040D01*
X2157380Y786040D02*
Y814040D01*
Y786040D02*
X2192380D01*
X2157380Y814040D02*
X2192380D01*
X477880Y786040D02*
Y814040D01*
X442880Y786040D02*
Y814040D01*
Y786040D02*
X477880D01*
X442880Y814040D02*
X477880D01*
X2858730Y214540D02*
Y242540D01*
X2823730Y214540D02*
Y242540D01*
Y214540D02*
X2858730D01*
X2823730Y242540D02*
X2858730D01*
X2478530Y405040D02*
Y433040D01*
X2443530Y405040D02*
Y433040D01*
Y405040D02*
X2478530D01*
X2443530Y433040D02*
X2478530D01*
X1049380Y786040D02*
Y814040D01*
X1014380Y786040D02*
Y814040D01*
Y786040D02*
X1049380D01*
X1014380Y814040D02*
X1049380D01*
X1407520Y214540D02*
Y242540D01*
X1372520Y214540D02*
Y242540D01*
Y214540D02*
X1407520D01*
X1372520Y242540D02*
X1407520D01*
X716640Y595540D02*
Y623540D01*
X681640Y595540D02*
Y623540D01*
Y595540D02*
X716640D01*
X681640Y623540D02*
X716640D01*
X1240750Y786040D02*
Y814040D01*
X1205750Y786040D02*
Y814040D01*
Y786040D02*
X1240750D01*
X1205750Y814040D02*
X1240750D01*
X2668630Y405040D02*
Y433040D01*
X2633630Y405040D02*
Y433040D01*
Y405040D02*
X2668630D01*
X2633630Y433040D02*
X2668630D01*
X1622150Y786040D02*
Y814040D01*
X1587150Y786040D02*
Y814040D01*
Y786040D02*
X1622150D01*
X1587150Y814040D02*
X1622150D01*
X1145900Y405040D02*
Y433040D01*
X1110900Y405040D02*
Y433040D01*
Y405040D02*
X1145900D01*
X1110900Y433040D02*
X1145900D01*
X668380Y786040D02*
Y814040D01*
X633380Y786040D02*
Y814040D01*
Y786040D02*
X668380D01*
X633380Y814040D02*
X668380D01*
X764030Y405040D02*
Y433040D01*
X729030Y405040D02*
Y433040D01*
Y405040D02*
X764030D01*
X729030Y433040D02*
X764030D01*
X1430380Y786040D02*
Y814040D01*
X1395380Y786040D02*
Y814040D01*
Y786040D02*
X1430380D01*
X1395380Y814040D02*
X1430380D01*
X573130Y405040D02*
Y433040D01*
X538130Y405040D02*
Y433040D01*
Y405040D02*
X573130D01*
X538130Y433040D02*
X573130D01*
X2287630Y405040D02*
Y433040D01*
X2252630Y405040D02*
Y433040D01*
Y405040D02*
X2287630D01*
X2252630Y433040D02*
X2287630D01*
X241660Y786040D02*
Y814040D01*
X206660Y786040D02*
Y814040D01*
Y786040D02*
X241660D01*
X206660Y814040D02*
X241660D01*
D12*
X1896859Y1131884D02*
X1899399Y1134424D01*
X1930641D01*
X1895589Y1105976D02*
X1930641D01*
X1895589Y1117406D02*
Y1122486D01*
Y1105976D02*
Y1108516D01*
X1930641Y1131884D02*
Y1134424D01*
Y1117914D02*
Y1122994D01*
Y1105976D02*
Y1109024D01*
X2905511Y1106196D02*
Y1109244D01*
Y1118134D02*
Y1123214D01*
Y1132104D02*
Y1134644D01*
X2870459Y1106196D02*
Y1108736D01*
Y1117626D02*
Y1122706D01*
Y1106196D02*
X2905511D01*
X2874269Y1134644D02*
X2905511D01*
X2871729Y1132104D02*
X2874269Y1134644D01*
X2802641Y1106196D02*
Y1109244D01*
Y1118134D02*
Y1123214D01*
Y1132104D02*
Y1134644D01*
X2767589Y1106196D02*
Y1108736D01*
Y1117626D02*
Y1122706D01*
Y1106196D02*
X2802641D01*
X2771399Y1134644D02*
X2802641D01*
X2768859Y1132104D02*
X2771399Y1134644D01*
X2680641Y1105976D02*
Y1109024D01*
Y1117914D02*
Y1122994D01*
Y1131884D02*
Y1134424D01*
X2645589Y1105976D02*
Y1108516D01*
Y1117406D02*
Y1122486D01*
Y1105976D02*
X2680641D01*
X2649399Y1134424D02*
X2680641D01*
X2646859Y1131884D02*
X2649399Y1134424D01*
X2530641Y1105976D02*
Y1109024D01*
Y1117914D02*
Y1122994D01*
Y1131884D02*
Y1134424D01*
X2495589Y1105976D02*
Y1108516D01*
Y1117406D02*
Y1122486D01*
Y1105976D02*
X2530641D01*
X2499399Y1134424D02*
X2530641D01*
X2496859Y1131884D02*
X2499399Y1134424D01*
X2380641Y1105976D02*
Y1109024D01*
Y1117914D02*
Y1122994D01*
Y1131884D02*
Y1134424D01*
X2345589Y1105976D02*
Y1108516D01*
Y1117406D02*
Y1122486D01*
Y1105976D02*
X2380641D01*
X2349399Y1134424D02*
X2380641D01*
X2346859Y1131884D02*
X2349399Y1134424D01*
X730641Y1105976D02*
Y1109024D01*
Y1117914D02*
Y1122994D01*
Y1131884D02*
Y1134424D01*
X695589Y1105976D02*
Y1108516D01*
Y1117406D02*
Y1122486D01*
Y1105976D02*
X730641D01*
X699399Y1134424D02*
X730641D01*
X696859Y1131884D02*
X699399Y1134424D01*
X2196859Y1131884D02*
X2199399Y1134424D01*
X2230641D01*
X2195589Y1105976D02*
X2230641D01*
X2195589Y1117406D02*
Y1122486D01*
Y1105976D02*
Y1108516D01*
X2230641Y1131884D02*
Y1134424D01*
Y1117914D02*
Y1122994D01*
Y1105976D02*
Y1109024D01*
X580641Y1105976D02*
Y1109024D01*
Y1117914D02*
Y1122994D01*
Y1131884D02*
Y1134424D01*
X545589Y1105976D02*
Y1108516D01*
Y1117406D02*
Y1122486D01*
Y1105976D02*
X580641D01*
X549399Y1134424D02*
X580641D01*
X546859Y1131884D02*
X549399Y1134424D01*
X280641Y1105976D02*
Y1109024D01*
Y1117914D02*
Y1122994D01*
Y1131884D02*
Y1134424D01*
X245589Y1105976D02*
Y1108516D01*
Y1117406D02*
Y1122486D01*
Y1105976D02*
X280641D01*
X249399Y1134424D02*
X280641D01*
X246859Y1131884D02*
X249399Y1134424D01*
X101939Y1131884D02*
X104479Y1134424D01*
X135721D01*
X100669Y1105976D02*
X135721D01*
X100669Y1117406D02*
Y1122486D01*
Y1105976D02*
Y1108516D01*
X135721Y1131884D02*
Y1134424D01*
Y1117914D02*
Y1122994D01*
Y1105976D02*
Y1109024D01*
X1180641Y1105976D02*
Y1109024D01*
Y1117914D02*
Y1122994D01*
Y1131884D02*
Y1134424D01*
X1145589Y1105976D02*
Y1108516D01*
Y1117406D02*
Y1122486D01*
Y1105976D02*
X1180641D01*
X1149399Y1134424D02*
X1180641D01*
X1146859Y1131884D02*
X1149399Y1134424D01*
X1030641Y1105976D02*
Y1109024D01*
Y1117914D02*
Y1122994D01*
Y1131884D02*
Y1134424D01*
X995589Y1105976D02*
Y1108516D01*
Y1117406D02*
Y1122486D01*
Y1105976D02*
X1030641D01*
X999399Y1134424D02*
X1030641D01*
X996859Y1131884D02*
X999399Y1134424D01*
X430641Y1105976D02*
Y1109024D01*
Y1117914D02*
Y1122994D01*
Y1131884D02*
Y1134424D01*
X395589Y1105976D02*
Y1108516D01*
Y1117406D02*
Y1122486D01*
Y1105976D02*
X430641D01*
X399399Y1134424D02*
X430641D01*
X396859Y1131884D02*
X399399Y1134424D01*
X880641Y1105976D02*
Y1109024D01*
Y1117914D02*
Y1122994D01*
Y1131884D02*
Y1134424D01*
X845589Y1105976D02*
Y1108516D01*
Y1117406D02*
Y1122486D01*
Y1105976D02*
X880641D01*
X849399Y1134424D02*
X880641D01*
X846859Y1131884D02*
X849399Y1134424D01*
X1480641Y1105976D02*
Y1109024D01*
Y1117914D02*
Y1122994D01*
Y1131884D02*
Y1134424D01*
X1445589Y1105976D02*
Y1108516D01*
Y1117406D02*
Y1122486D01*
Y1105976D02*
X1480641D01*
X1449399Y1134424D02*
X1480641D01*
X1446859Y1131884D02*
X1449399Y1134424D01*
X2080641Y1105976D02*
Y1109024D01*
Y1117914D02*
Y1122994D01*
Y1131884D02*
Y1134424D01*
X2045589Y1105976D02*
Y1108516D01*
Y1117406D02*
Y1122486D01*
Y1105976D02*
X2080641D01*
X2049399Y1134424D02*
X2080641D01*
X2046859Y1131884D02*
X2049399Y1134424D01*
X1780641Y1105976D02*
Y1109024D01*
Y1117914D02*
Y1122994D01*
Y1131884D02*
Y1134424D01*
X1745589Y1105976D02*
Y1108516D01*
Y1117406D02*
Y1122486D01*
Y1105976D02*
X1780641D01*
X1749399Y1134424D02*
X1780641D01*
X1746859Y1131884D02*
X1749399Y1134424D01*
X1630641Y1105976D02*
Y1109024D01*
Y1117914D02*
Y1122994D01*
Y1131884D02*
Y1134424D01*
X1595589Y1105976D02*
Y1108516D01*
Y1117406D02*
Y1122486D01*
Y1105976D02*
X1630641D01*
X1599399Y1134424D02*
X1630641D01*
X1596859Y1131884D02*
X1599399Y1134424D01*
X1330641Y1105976D02*
Y1109024D01*
Y1117914D02*
Y1122994D01*
Y1131884D02*
Y1134424D01*
X1295589Y1105976D02*
Y1108516D01*
Y1117406D02*
Y1122486D01*
Y1105976D02*
X1330641D01*
X1299399Y1134424D02*
X1330641D01*
X1296859Y1131884D02*
X1299399Y1134424D01*
M02*
