G04*
G04 #@! TF.GenerationSoftware,Altium Limited,Altium Designer,22.10.1 (41)*
G04*
G04 Layer_Color=255*
%FSLAX44Y44*%
%MOMM*%
G71*
G04*
G04 #@! TF.SameCoordinates,C522AA7B-F4F4-4EC6-81A6-D5D12569EC36*
G04*
G04*
G04 #@! TF.FilePolarity,Positive*
G04*
G01*
G75*
%ADD34C,2.1000*%
%ADD35C,3.4000*%
%ADD36C,2.6000*%
%ADD37C,3.6000*%
%ADD38C,1.5240*%
%ADD47R,1.5000X0.8200*%
%ADD48R,2.5000X2.5000*%
%ADD49R,1.6000X0.9000*%
%ADD50R,0.3000X1.3000*%
%ADD51R,1.8000X2.2000*%
%ADD52R,2.2000X1.8000*%
%ADD53R,1.3000X0.3000*%
%ADD54R,2.5400X1.5200*%
%ADD55R,0.6000X0.3000*%
%ADD56R,0.6000X0.4000*%
%ADD57R,0.7620X0.7620*%
%ADD58R,0.7620X0.7620*%
%ADD59R,1.5748X1.3970*%
%ADD60R,1.3970X1.5748*%
%ADD61R,0.6000X1.2000*%
%ADD62R,0.6500X0.2400*%
%ADD63R,1.0000X1.0000*%
%ADD64R,0.2800X1.0000*%
%ADD65O,0.2800X1.0000*%
%ADD66O,1.0000X0.2800*%
%ADD67R,1.5000X2.5000*%
%ADD68R,0.8200X0.2800*%
%ADD69R,1.5800X2.8500*%
%ADD70R,0.8500X0.6000*%
%ADD71R,0.6000X1.0500*%
%ADD72R,0.6750X0.2400*%
%ADD73R,1.5000X2.3000*%
%ADD74O,0.3500X1.7000*%
%ADD75R,0.3500X1.7000*%
%ADD76O,1.4000X0.3000*%
%ADD77R,1.4000X0.3000*%
%ADD78R,0.8890X1.4986*%
%ADD79R,0.8890X0.8890*%
%ADD80R,1.4986X0.8890*%
D34*
X226700Y937540D02*
D03*
X125100D02*
D03*
X2030100D02*
D03*
X2131700D02*
D03*
X417200D02*
D03*
X315600D02*
D03*
X506100D02*
D03*
X607700D02*
D03*
X796930D02*
D03*
X695330D02*
D03*
X887100D02*
D03*
X988700D02*
D03*
X1177930D02*
D03*
X1076330D02*
D03*
X1266830D02*
D03*
X1368430D02*
D03*
X1560200D02*
D03*
X1458600D02*
D03*
X1647830D02*
D03*
X1749430D02*
D03*
X1939930D02*
D03*
X1838330D02*
D03*
X2362840Y556540D02*
D03*
X2464440D02*
D03*
X1941200Y366040D02*
D03*
X1839600D02*
D03*
X2220200Y937540D02*
D03*
X2321800D02*
D03*
X2131300Y366040D02*
D03*
X2029700D02*
D03*
X2172340Y556540D02*
D03*
X2273940D02*
D03*
X2511430Y937540D02*
D03*
X2409830D02*
D03*
X2314580Y747040D02*
D03*
X2416180D02*
D03*
X2845440D02*
D03*
X2743840D02*
D03*
X2505080D02*
D03*
X2606680D02*
D03*
X559440Y556540D02*
D03*
X457840D02*
D03*
X2695580Y937540D02*
D03*
X2797180D02*
D03*
X1369300Y366040D02*
D03*
X1267700D02*
D03*
X196220Y556540D02*
D03*
X297820D02*
D03*
X988300Y366040D02*
D03*
X886700D02*
D03*
X2791700D02*
D03*
X2893300D02*
D03*
X2701930Y175540D02*
D03*
X2600330D02*
D03*
X838440Y556540D02*
D03*
X940040D02*
D03*
X2773050D02*
D03*
X2671450D02*
D03*
X790580Y747040D02*
D03*
X892180D02*
D03*
X1130940Y556540D02*
D03*
X1029340D02*
D03*
X2030100Y175540D02*
D03*
X2131700D02*
D03*
X1321040Y556540D02*
D03*
X1219440D02*
D03*
X1410340D02*
D03*
X1511940D02*
D03*
X1844680Y747040D02*
D03*
X1743080D02*
D03*
X1600840Y556540D02*
D03*
X1702440D02*
D03*
X1892940D02*
D03*
X1791340D02*
D03*
X624210Y175540D02*
D03*
X725810D02*
D03*
X249560D02*
D03*
X147960D02*
D03*
X2409830D02*
D03*
X2511430D02*
D03*
X320680Y366040D02*
D03*
X219080D02*
D03*
X1981840Y556540D02*
D03*
X2083440D02*
D03*
X2320930Y175540D02*
D03*
X2219330D02*
D03*
X1647830Y366040D02*
D03*
X1749430D02*
D03*
X1558930D02*
D03*
X1457330D02*
D03*
X1933580Y747040D02*
D03*
X2035180D02*
D03*
X2225680D02*
D03*
X2124080D02*
D03*
X409580D02*
D03*
X511180D02*
D03*
X2892030Y175540D02*
D03*
X2790430D02*
D03*
X2410230Y366040D02*
D03*
X2511830D02*
D03*
X1082680Y747040D02*
D03*
X981080D02*
D03*
X1339220Y175540D02*
D03*
X1440820D02*
D03*
X749940Y556540D02*
D03*
X648340D02*
D03*
X1172450Y747040D02*
D03*
X1274050D02*
D03*
X2701930Y366040D02*
D03*
X2600330D02*
D03*
X1553850Y747040D02*
D03*
X1655450D02*
D03*
X1179200Y366040D02*
D03*
X1077600D02*
D03*
X600080Y747040D02*
D03*
X701680D02*
D03*
X797330Y366040D02*
D03*
X695730D02*
D03*
X1362080Y747040D02*
D03*
X1463680D02*
D03*
X606430Y366040D02*
D03*
X504830D02*
D03*
X2219330D02*
D03*
X2320930D02*
D03*
X274960Y747040D02*
D03*
X173360D02*
D03*
X386720Y175540D02*
D03*
X488320D02*
D03*
D35*
X226700Y912140D02*
D03*
X150500Y886740D02*
D03*
X2055500D02*
D03*
X2131700Y912140D02*
D03*
X417200D02*
D03*
X341000Y886740D02*
D03*
X531500D02*
D03*
X607700Y912140D02*
D03*
X796930D02*
D03*
X720730Y886740D02*
D03*
X912500D02*
D03*
X988700Y912140D02*
D03*
X1177930D02*
D03*
X1101730Y886740D02*
D03*
X1292230D02*
D03*
X1368430Y912140D02*
D03*
X1560200D02*
D03*
X1484000Y886740D02*
D03*
X1673230D02*
D03*
X1749430Y912140D02*
D03*
X1939930D02*
D03*
X1863730Y886740D02*
D03*
X2388240Y505740D02*
D03*
X2464440Y531140D02*
D03*
X1941200Y340640D02*
D03*
X1865000Y315240D02*
D03*
X2245600Y886740D02*
D03*
X2321800Y912140D02*
D03*
X2131300Y340640D02*
D03*
X2055100Y315240D02*
D03*
X2197740Y505740D02*
D03*
X2273940Y531140D02*
D03*
X2511430Y912140D02*
D03*
X2435230Y886740D02*
D03*
X2339980Y696240D02*
D03*
X2416180Y721640D02*
D03*
X2845440D02*
D03*
X2769240Y696240D02*
D03*
X2530480D02*
D03*
X2606680Y721640D02*
D03*
X559440Y531140D02*
D03*
X483240Y505740D02*
D03*
X2720980Y886740D02*
D03*
X2797180Y912140D02*
D03*
X1369300Y340640D02*
D03*
X1293100Y315240D02*
D03*
X221620Y505740D02*
D03*
X297820Y531140D02*
D03*
X988300Y340640D02*
D03*
X912100Y315240D02*
D03*
X2817100D02*
D03*
X2893300Y340640D02*
D03*
X2701930Y150140D02*
D03*
X2625730Y124740D02*
D03*
X863840Y505740D02*
D03*
X940040Y531140D02*
D03*
X2773050D02*
D03*
X2696850Y505740D02*
D03*
X815980Y696240D02*
D03*
X892180Y721640D02*
D03*
X1130940Y531140D02*
D03*
X1054740Y505740D02*
D03*
X2055500Y124740D02*
D03*
X2131700Y150140D02*
D03*
X1321040Y531140D02*
D03*
X1244840Y505740D02*
D03*
X1435740D02*
D03*
X1511940Y531140D02*
D03*
X1844680Y721640D02*
D03*
X1768480Y696240D02*
D03*
X1626240Y505740D02*
D03*
X1702440Y531140D02*
D03*
X1892940D02*
D03*
X1816740Y505740D02*
D03*
X649610Y124740D02*
D03*
X725810Y150140D02*
D03*
X249560D02*
D03*
X173360Y124740D02*
D03*
X2435230D02*
D03*
X2511430Y150140D02*
D03*
X320680Y340640D02*
D03*
X244480Y315240D02*
D03*
X2007240Y505740D02*
D03*
X2083440Y531140D02*
D03*
X2320930Y150140D02*
D03*
X2244730Y124740D02*
D03*
X1673230Y315240D02*
D03*
X1749430Y340640D02*
D03*
X1558930D02*
D03*
X1482730Y315240D02*
D03*
X1958980Y696240D02*
D03*
X2035180Y721640D02*
D03*
X2225680D02*
D03*
X2149480Y696240D02*
D03*
X434980D02*
D03*
X511180Y721640D02*
D03*
X2892030Y150140D02*
D03*
X2815830Y124740D02*
D03*
X2435630Y315240D02*
D03*
X2511830Y340640D02*
D03*
X1082680Y721640D02*
D03*
X1006480Y696240D02*
D03*
X1364620Y124740D02*
D03*
X1440820Y150140D02*
D03*
X749940Y531140D02*
D03*
X673740Y505740D02*
D03*
X1197850Y696240D02*
D03*
X1274050Y721640D02*
D03*
X2701930Y340640D02*
D03*
X2625730Y315240D02*
D03*
X1579250Y696240D02*
D03*
X1655450Y721640D02*
D03*
X1179200Y340640D02*
D03*
X1103000Y315240D02*
D03*
X625480Y696240D02*
D03*
X701680Y721640D02*
D03*
X797330Y340640D02*
D03*
X721130Y315240D02*
D03*
X1387480Y696240D02*
D03*
X1463680Y721640D02*
D03*
X606430Y340640D02*
D03*
X530230Y315240D02*
D03*
X2244730D02*
D03*
X2320930Y340640D02*
D03*
X274960Y721640D02*
D03*
X198760Y696240D02*
D03*
X412120Y124740D02*
D03*
X488320Y150140D02*
D03*
D36*
X842000Y947500D02*
D03*
X1986920Y947318D02*
D03*
X220000Y840500D02*
D03*
X2797500D02*
D03*
Y269252D02*
D03*
X220000Y270000D02*
D03*
D37*
X561980Y166650D02*
D03*
D38*
X1863730Y98070D02*
D03*
X1838330D02*
D03*
X1812930D02*
D03*
X1787530D02*
D03*
X1762130D02*
D03*
X1736730D02*
D03*
X1711330D02*
D03*
D47*
X149400Y998040D02*
D03*
Y983040D02*
D03*
X202400Y998040D02*
D03*
Y983040D02*
D03*
X2107400D02*
D03*
Y998040D02*
D03*
X2054400Y983040D02*
D03*
Y998040D02*
D03*
X339900D02*
D03*
Y983040D02*
D03*
X392900Y998040D02*
D03*
Y983040D02*
D03*
X583400D02*
D03*
Y998040D02*
D03*
X530400Y983040D02*
D03*
Y998040D02*
D03*
X719630D02*
D03*
Y983040D02*
D03*
X772630Y998040D02*
D03*
Y983040D02*
D03*
X964400D02*
D03*
Y998040D02*
D03*
X911400Y983040D02*
D03*
Y998040D02*
D03*
X1100630D02*
D03*
Y983040D02*
D03*
X1153630Y998040D02*
D03*
Y983040D02*
D03*
X1344130D02*
D03*
Y998040D02*
D03*
X1291130Y983040D02*
D03*
Y998040D02*
D03*
X1482900D02*
D03*
Y983040D02*
D03*
X1535900Y998040D02*
D03*
Y983040D02*
D03*
X1725130D02*
D03*
Y998040D02*
D03*
X1672130Y983040D02*
D03*
Y998040D02*
D03*
X1862630D02*
D03*
Y983040D02*
D03*
X1915630Y998040D02*
D03*
Y983040D02*
D03*
X2440140Y602040D02*
D03*
Y617040D02*
D03*
X2387140Y602040D02*
D03*
Y617040D02*
D03*
X1863900Y426540D02*
D03*
Y411540D02*
D03*
X1916900Y426540D02*
D03*
Y411540D02*
D03*
X2297500Y983040D02*
D03*
Y998040D02*
D03*
X2244500Y983040D02*
D03*
Y998040D02*
D03*
X2054000Y426540D02*
D03*
Y411540D02*
D03*
X2107000Y426540D02*
D03*
Y411540D02*
D03*
X2249640Y602040D02*
D03*
Y617040D02*
D03*
X2196640Y602040D02*
D03*
Y617040D02*
D03*
X2434130Y998040D02*
D03*
Y983040D02*
D03*
X2487130Y998040D02*
D03*
Y983040D02*
D03*
X2391880Y792540D02*
D03*
Y807540D02*
D03*
X2338880Y792540D02*
D03*
Y807540D02*
D03*
X2768140D02*
D03*
Y792540D02*
D03*
X2821140Y807540D02*
D03*
Y792540D02*
D03*
X2582380D02*
D03*
Y807540D02*
D03*
X2529380Y792540D02*
D03*
Y807540D02*
D03*
X482140Y617040D02*
D03*
Y602040D02*
D03*
X535140Y617040D02*
D03*
Y602040D02*
D03*
X2772880Y983040D02*
D03*
Y998040D02*
D03*
X2719880Y983040D02*
D03*
Y998040D02*
D03*
X1292000Y426540D02*
D03*
Y411540D02*
D03*
X1345000Y426540D02*
D03*
Y411540D02*
D03*
X273520Y602040D02*
D03*
Y617040D02*
D03*
X220520Y602040D02*
D03*
Y617040D02*
D03*
X911000Y426540D02*
D03*
Y411540D02*
D03*
X964000Y426540D02*
D03*
Y411540D02*
D03*
X2869000D02*
D03*
Y426540D02*
D03*
X2816000Y411540D02*
D03*
Y426540D02*
D03*
X2624630Y236040D02*
D03*
Y221040D02*
D03*
X2677630Y236040D02*
D03*
Y221040D02*
D03*
X915740Y602040D02*
D03*
Y617040D02*
D03*
X862740Y602040D02*
D03*
Y617040D02*
D03*
X2695750D02*
D03*
Y602040D02*
D03*
X2748750Y617040D02*
D03*
Y602040D02*
D03*
X867880Y792540D02*
D03*
Y807540D02*
D03*
X814880Y792540D02*
D03*
Y807540D02*
D03*
X1053640Y617040D02*
D03*
Y602040D02*
D03*
X1106640Y617040D02*
D03*
Y602040D02*
D03*
X2107400Y221040D02*
D03*
Y236040D02*
D03*
X2054400Y221040D02*
D03*
Y236040D02*
D03*
X1243740Y617040D02*
D03*
Y602040D02*
D03*
X1296740Y617040D02*
D03*
Y602040D02*
D03*
X1487640D02*
D03*
Y617040D02*
D03*
X1434640Y602040D02*
D03*
Y617040D02*
D03*
X1767380Y807540D02*
D03*
Y792540D02*
D03*
X1820380Y807540D02*
D03*
Y792540D02*
D03*
X1678140Y602040D02*
D03*
Y617040D02*
D03*
X1625140Y602040D02*
D03*
Y617040D02*
D03*
X1815640D02*
D03*
Y602040D02*
D03*
X1868640Y617040D02*
D03*
Y602040D02*
D03*
X701510Y221040D02*
D03*
Y236040D02*
D03*
X648510Y221040D02*
D03*
Y236040D02*
D03*
X172260D02*
D03*
Y221040D02*
D03*
X225260Y236040D02*
D03*
Y221040D02*
D03*
X2487130D02*
D03*
Y236040D02*
D03*
X2434130Y221040D02*
D03*
Y236040D02*
D03*
X243380Y426540D02*
D03*
Y411540D02*
D03*
X296380Y426540D02*
D03*
Y411540D02*
D03*
X2059140Y602040D02*
D03*
Y617040D02*
D03*
X2006140Y602040D02*
D03*
Y617040D02*
D03*
X2243630Y236040D02*
D03*
Y221040D02*
D03*
X2296630Y236040D02*
D03*
Y221040D02*
D03*
X1725130Y411540D02*
D03*
Y426540D02*
D03*
X1672130Y411540D02*
D03*
Y426540D02*
D03*
X1481630D02*
D03*
Y411540D02*
D03*
X1534630Y426540D02*
D03*
Y411540D02*
D03*
X2010880Y792540D02*
D03*
Y807540D02*
D03*
X1957880Y792540D02*
D03*
Y807540D02*
D03*
X2148380D02*
D03*
Y792540D02*
D03*
X2201380Y807540D02*
D03*
Y792540D02*
D03*
X486880D02*
D03*
Y807540D02*
D03*
X433880Y792540D02*
D03*
Y807540D02*
D03*
X2814730Y236040D02*
D03*
Y221040D02*
D03*
X2867730Y236040D02*
D03*
Y221040D02*
D03*
X2487530Y411540D02*
D03*
Y426540D02*
D03*
X2434530Y411540D02*
D03*
Y426540D02*
D03*
X1005380Y807540D02*
D03*
Y792540D02*
D03*
X1058380Y807540D02*
D03*
Y792540D02*
D03*
X1416520Y221040D02*
D03*
Y236040D02*
D03*
X1363520Y221040D02*
D03*
Y236040D02*
D03*
X672640Y617040D02*
D03*
Y602040D02*
D03*
X725640Y617040D02*
D03*
Y602040D02*
D03*
X1249750Y792540D02*
D03*
Y807540D02*
D03*
X1196750Y792540D02*
D03*
Y807540D02*
D03*
X2624630Y426540D02*
D03*
Y411540D02*
D03*
X2677630Y426540D02*
D03*
Y411540D02*
D03*
X1631150Y792540D02*
D03*
Y807540D02*
D03*
X1578150Y792540D02*
D03*
Y807540D02*
D03*
X1101900Y426540D02*
D03*
Y411540D02*
D03*
X1154900Y426540D02*
D03*
Y411540D02*
D03*
X677380Y792540D02*
D03*
Y807540D02*
D03*
X624380Y792540D02*
D03*
Y807540D02*
D03*
X720030Y426540D02*
D03*
Y411540D02*
D03*
X773030Y426540D02*
D03*
Y411540D02*
D03*
X1439380Y792540D02*
D03*
Y807540D02*
D03*
X1386380Y792540D02*
D03*
Y807540D02*
D03*
X529130Y426540D02*
D03*
Y411540D02*
D03*
X582130Y426540D02*
D03*
Y411540D02*
D03*
X2296630D02*
D03*
Y426540D02*
D03*
X2243630Y411540D02*
D03*
Y426540D02*
D03*
X197660Y807540D02*
D03*
Y792540D02*
D03*
X250660Y807540D02*
D03*
Y792540D02*
D03*
X464020Y221040D02*
D03*
Y236040D02*
D03*
X411020Y221040D02*
D03*
Y236040D02*
D03*
D48*
X263950Y912140D02*
D03*
X113250Y886740D02*
D03*
X2018250D02*
D03*
X2168950Y912140D02*
D03*
X454450D02*
D03*
X303750Y886740D02*
D03*
X494250D02*
D03*
X644950Y912140D02*
D03*
X834180D02*
D03*
X683480Y886740D02*
D03*
X875250D02*
D03*
X1025950Y912140D02*
D03*
X1215180D02*
D03*
X1064480Y886740D02*
D03*
X1254980D02*
D03*
X1405680Y912140D02*
D03*
X1597450D02*
D03*
X1446750Y886740D02*
D03*
X1635980D02*
D03*
X1786680Y912140D02*
D03*
X1977180D02*
D03*
X1826480Y886740D02*
D03*
X2350990Y505740D02*
D03*
X2501690Y531140D02*
D03*
X1978450Y340640D02*
D03*
X1827750Y315240D02*
D03*
X2208350Y886740D02*
D03*
X2359050Y912140D02*
D03*
X2168550Y340640D02*
D03*
X2017850Y315240D02*
D03*
X2160490Y505740D02*
D03*
X2311190Y531140D02*
D03*
X2548680Y912140D02*
D03*
X2397980Y886740D02*
D03*
X2302730Y696240D02*
D03*
X2453430Y721640D02*
D03*
X2882690D02*
D03*
X2731990Y696240D02*
D03*
X2493230D02*
D03*
X2643930Y721640D02*
D03*
X596690Y531140D02*
D03*
X445990Y505740D02*
D03*
X2683730Y886740D02*
D03*
X2834430Y912140D02*
D03*
X1406550Y340640D02*
D03*
X1255850Y315240D02*
D03*
X184370Y505740D02*
D03*
X335070Y531140D02*
D03*
X1025550Y340640D02*
D03*
X874850Y315240D02*
D03*
X2779850D02*
D03*
X2930550Y340640D02*
D03*
X2739180Y150140D02*
D03*
X2588480Y124740D02*
D03*
X826590Y505740D02*
D03*
X977290Y531140D02*
D03*
X2810300D02*
D03*
X2659600Y505740D02*
D03*
X778730Y696240D02*
D03*
X929430Y721640D02*
D03*
X1168190Y531140D02*
D03*
X1017490Y505740D02*
D03*
X2018250Y124740D02*
D03*
X2168950Y150140D02*
D03*
X1358290Y531140D02*
D03*
X1207590Y505740D02*
D03*
X1398490D02*
D03*
X1549190Y531140D02*
D03*
X1881930Y721640D02*
D03*
X1731230Y696240D02*
D03*
X1588990Y505740D02*
D03*
X1739690Y531140D02*
D03*
X1930190D02*
D03*
X1779490Y505740D02*
D03*
X612360Y124740D02*
D03*
X763060Y150140D02*
D03*
X286810D02*
D03*
X136110Y124740D02*
D03*
X2397980D02*
D03*
X2548680Y150140D02*
D03*
X357930Y340640D02*
D03*
X207230Y315240D02*
D03*
X1969990Y505740D02*
D03*
X2120690Y531140D02*
D03*
X2358180Y150140D02*
D03*
X2207480Y124740D02*
D03*
X1635980Y315240D02*
D03*
X1786680Y340640D02*
D03*
X1596180D02*
D03*
X1445480Y315240D02*
D03*
X1921730Y696240D02*
D03*
X2072430Y721640D02*
D03*
X2262930D02*
D03*
X2112230Y696240D02*
D03*
X397730D02*
D03*
X548430Y721640D02*
D03*
X2929280Y150140D02*
D03*
X2778580Y124740D02*
D03*
X2398380Y315240D02*
D03*
X2549080Y340640D02*
D03*
X1119930Y721640D02*
D03*
X969230Y696240D02*
D03*
X1327370Y124740D02*
D03*
X1478070Y150140D02*
D03*
X787190Y531140D02*
D03*
X636490Y505740D02*
D03*
X1160600Y696240D02*
D03*
X1311300Y721640D02*
D03*
X2739180Y340640D02*
D03*
X2588480Y315240D02*
D03*
X1542000Y696240D02*
D03*
X1692700Y721640D02*
D03*
X1216450Y340640D02*
D03*
X1065750Y315240D02*
D03*
X588230Y696240D02*
D03*
X738930Y721640D02*
D03*
X834580Y340640D02*
D03*
X683880Y315240D02*
D03*
X1350230Y696240D02*
D03*
X1500930Y721640D02*
D03*
X643680Y340640D02*
D03*
X492980Y315240D02*
D03*
X2207480D02*
D03*
X2358180Y340640D02*
D03*
X312210Y721640D02*
D03*
X161510Y696240D02*
D03*
X374870Y124740D02*
D03*
X525570Y150140D02*
D03*
D49*
X1961520Y240530D02*
D03*
Y204530D02*
D03*
X1923420Y240530D02*
D03*
Y204530D02*
D03*
D50*
X1530630Y115420D02*
D03*
X1525630D02*
D03*
X1520630D02*
D03*
X1495630D02*
D03*
X1490630D02*
D03*
X1485630D02*
D03*
X1470630D02*
D03*
X1475630D02*
D03*
X1480630D02*
D03*
X1500630D02*
D03*
X1515630D02*
D03*
X1535630D02*
D03*
X1540630D02*
D03*
X1545630D02*
D03*
X1510630D02*
D03*
X1505630D02*
D03*
X1476369Y1048497D02*
D03*
X1481369D02*
D03*
X1486369D02*
D03*
X1491369D02*
D03*
X1496369D02*
D03*
X1501369D02*
D03*
X1506369D02*
D03*
X1511369D02*
D03*
X1516369D02*
D03*
X1521369D02*
D03*
X1526369D02*
D03*
X1531369D02*
D03*
X1536369D02*
D03*
X1541369D02*
D03*
X803080Y244960D02*
D03*
X778080D02*
D03*
X783080D02*
D03*
X788080Y244960D02*
D03*
X793080Y244960D02*
D03*
X798080D02*
D03*
X2738400Y1048460D02*
D03*
X2733400D02*
D03*
X2728400D02*
D03*
X2703400D02*
D03*
X2698400D02*
D03*
X2693400D02*
D03*
X2718400D02*
D03*
X2713400D02*
D03*
X2678400D02*
D03*
X2683400D02*
D03*
X2688400D02*
D03*
X2708400D02*
D03*
X2723400D02*
D03*
X2743400D02*
D03*
X2748400D02*
D03*
X2753400D02*
D03*
X2258740Y1108560D02*
D03*
X2263741D02*
D03*
X2298740D02*
D03*
X2293740D02*
D03*
X2288740D02*
D03*
X2268740D02*
D03*
X2253740D02*
D03*
X2233740D02*
D03*
X2228740D02*
D03*
X2223740D02*
D03*
X2238740D02*
D03*
X2243740D02*
D03*
X2248740D02*
D03*
X2273740D02*
D03*
X2278740D02*
D03*
X2283740D02*
D03*
X700450D02*
D03*
X705451D02*
D03*
X740450D02*
D03*
X735450D02*
D03*
X730450D02*
D03*
X710450D02*
D03*
X695450D02*
D03*
X675450D02*
D03*
X670450D02*
D03*
X665450D02*
D03*
X680450D02*
D03*
X685450D02*
D03*
X690450D02*
D03*
X715450D02*
D03*
X720450D02*
D03*
X725450D02*
D03*
X2678400Y115420D02*
D03*
X2683400D02*
D03*
X2688400D02*
D03*
X2693400D02*
D03*
X2698400D02*
D03*
X2703400D02*
D03*
X2708400D02*
D03*
X2723400D02*
D03*
X2728400D02*
D03*
X2733400D02*
D03*
X2738400D02*
D03*
X2743400D02*
D03*
X2748400D02*
D03*
X2753400D02*
D03*
X2718401D02*
D03*
X2713400D02*
D03*
X1926560D02*
D03*
X1931560D02*
D03*
X1936560D02*
D03*
X1956560D02*
D03*
X1971560D02*
D03*
X1991560D02*
D03*
X1996560D02*
D03*
X2001560D02*
D03*
X1966561D02*
D03*
X1961560D02*
D03*
X1986560D02*
D03*
X1981560D02*
D03*
X1976560D02*
D03*
X1951560D02*
D03*
X1946560D02*
D03*
X1941560D02*
D03*
X1996720Y1048460D02*
D03*
X1991720D02*
D03*
X1986720D02*
D03*
X1961720D02*
D03*
X1956720D02*
D03*
X1951720D02*
D03*
X1976720D02*
D03*
X1971720D02*
D03*
X1936720D02*
D03*
X1941720D02*
D03*
X1946720D02*
D03*
X1966720D02*
D03*
X1981720D02*
D03*
X2001720D02*
D03*
X2006720D02*
D03*
X2011720D02*
D03*
X1393470D02*
D03*
X1388470D02*
D03*
X1383470D02*
D03*
X1358470D02*
D03*
X1353470D02*
D03*
X1348470D02*
D03*
X1373470D02*
D03*
X1368470D02*
D03*
X1333470D02*
D03*
X1338470D02*
D03*
X1343470D02*
D03*
X1363470D02*
D03*
X1378470D02*
D03*
X1398470D02*
D03*
X1403470D02*
D03*
X1408470D02*
D03*
X1020810D02*
D03*
X1025810D02*
D03*
X1030810D02*
D03*
X1055810D02*
D03*
X1060810D02*
D03*
X1065810D02*
D03*
X1080810D02*
D03*
X1075810D02*
D03*
X1070810D02*
D03*
X1050810D02*
D03*
X1035810D02*
D03*
X1015810D02*
D03*
X1010810D02*
D03*
X1005810D02*
D03*
X1040810D02*
D03*
X1045810D02*
D03*
X279130D02*
D03*
X284130D02*
D03*
X289130D02*
D03*
X314130D02*
D03*
X319130D02*
D03*
X324130D02*
D03*
X339130D02*
D03*
X334130D02*
D03*
X329130D02*
D03*
X309130D02*
D03*
X294130D02*
D03*
X274130D02*
D03*
X269130D02*
D03*
X264130D02*
D03*
X299130D02*
D03*
X304130D02*
D03*
X279130Y115420D02*
D03*
X284130D02*
D03*
X289130D02*
D03*
X314130D02*
D03*
X319130D02*
D03*
X324130D02*
D03*
X299130D02*
D03*
X304130D02*
D03*
X339130D02*
D03*
X334130D02*
D03*
X329130D02*
D03*
X309130D02*
D03*
X294130D02*
D03*
X274130D02*
D03*
X269130D02*
D03*
X264130D02*
D03*
X745220D02*
D03*
X750220D02*
D03*
X755220D02*
D03*
X780220D02*
D03*
X785220D02*
D03*
X790220D02*
D03*
X765220D02*
D03*
X770220D02*
D03*
X805220D02*
D03*
X800220D02*
D03*
X795220D02*
D03*
X775220D02*
D03*
X760220D02*
D03*
X740220D02*
D03*
X735220D02*
D03*
X730220D02*
D03*
D51*
X1454130Y90450D02*
D03*
X1562130D02*
D03*
X1459869Y1073467D02*
D03*
X1557869D02*
D03*
X819580Y219990D02*
D03*
X761580D02*
D03*
X2661900Y1073430D02*
D03*
X2769900D02*
D03*
X2315240Y1083590D02*
D03*
X2207240D02*
D03*
X756950D02*
D03*
X648950D02*
D03*
X2661900Y90450D02*
D03*
X2769900D02*
D03*
X1910060D02*
D03*
X2018060D02*
D03*
X1920220Y1073430D02*
D03*
X2028220D02*
D03*
X1316970D02*
D03*
X1424970D02*
D03*
X1097310D02*
D03*
X989310D02*
D03*
X355630D02*
D03*
X247630D02*
D03*
X355630Y90450D02*
D03*
X247630D02*
D03*
X821720D02*
D03*
X713720D02*
D03*
D52*
X2926720Y493700D02*
D03*
Y385700D02*
D03*
X90810Y714630D02*
D03*
Y822630D02*
D03*
X2926720Y851790D02*
D03*
Y959790D02*
D03*
X90810Y356540D02*
D03*
Y248540D02*
D03*
D53*
X2901750Y437200D02*
D03*
Y442200D02*
D03*
Y477200D02*
D03*
Y472200D02*
D03*
Y467200D02*
D03*
Y447200D02*
D03*
Y432200D02*
D03*
Y412200D02*
D03*
Y407200D02*
D03*
Y402200D02*
D03*
Y417200D02*
D03*
Y422200D02*
D03*
Y427200D02*
D03*
Y452200D02*
D03*
Y457200D02*
D03*
Y462200D02*
D03*
X115780Y791130D02*
D03*
Y786130D02*
D03*
Y781130D02*
D03*
Y756130D02*
D03*
Y751130D02*
D03*
Y746130D02*
D03*
Y771130D02*
D03*
Y766130D02*
D03*
Y731130D02*
D03*
Y736130D02*
D03*
Y741130D02*
D03*
Y761130D02*
D03*
Y776130D02*
D03*
Y796130D02*
D03*
Y801130D02*
D03*
Y806130D02*
D03*
X2901750Y928290D02*
D03*
Y923290D02*
D03*
Y918290D02*
D03*
Y893290D02*
D03*
Y888290D02*
D03*
Y883290D02*
D03*
Y868290D02*
D03*
Y873290D02*
D03*
Y878290D02*
D03*
Y898290D02*
D03*
Y913290D02*
D03*
Y933290D02*
D03*
Y938290D02*
D03*
Y943290D02*
D03*
Y908290D02*
D03*
Y903290D02*
D03*
X115780Y280040D02*
D03*
Y285040D02*
D03*
Y290040D02*
D03*
Y315040D02*
D03*
Y320040D02*
D03*
Y325040D02*
D03*
Y340040D02*
D03*
Y335040D02*
D03*
Y330040D02*
D03*
Y310040D02*
D03*
Y295040D02*
D03*
Y275040D02*
D03*
Y270040D02*
D03*
Y265040D02*
D03*
Y300040D02*
D03*
Y305040D02*
D03*
D54*
X2169159Y225429D02*
D03*
Y178429D02*
D03*
X2357119Y224159D02*
D03*
Y177159D02*
D03*
X2547704Y226167D02*
D03*
Y179167D02*
D03*
X2339339Y1039499D02*
D03*
Y992499D02*
D03*
X527049Y233049D02*
D03*
Y186049D02*
D03*
X1793239Y1047119D02*
D03*
Y1000119D02*
D03*
D55*
X2517860Y571820D02*
D03*
Y576820D02*
D03*
X2527860D02*
D03*
Y571820D02*
D03*
X391720Y815580D02*
D03*
Y810580D02*
D03*
X381720Y815580D02*
D03*
Y810580D02*
D03*
X275040Y827090D02*
D03*
Y832090D02*
D03*
X285040Y827090D02*
D03*
Y832090D02*
D03*
X391720Y776210D02*
D03*
Y771210D02*
D03*
X381720Y776210D02*
D03*
Y771210D02*
D03*
X275040D02*
D03*
Y776210D02*
D03*
X285040D02*
D03*
Y771210D02*
D03*
X448870Y595950D02*
D03*
Y600950D02*
D03*
X438870Y595950D02*
D03*
Y600950D02*
D03*
X332190Y595950D02*
D03*
Y600950D02*
D03*
X342190Y595950D02*
D03*
Y600950D02*
D03*
X448870Y531180D02*
D03*
Y536180D02*
D03*
X438870Y531180D02*
D03*
Y536180D02*
D03*
X332190Y555310D02*
D03*
Y560310D02*
D03*
X342190D02*
D03*
Y555310D02*
D03*
X448870Y477840D02*
D03*
Y482840D02*
D03*
X438870Y477840D02*
D03*
Y482840D02*
D03*
X332190Y484190D02*
D03*
Y489190D02*
D03*
X342190D02*
D03*
Y484190D02*
D03*
X480620Y404180D02*
D03*
Y409180D02*
D03*
X470620Y404180D02*
D03*
Y409180D02*
D03*
X363940D02*
D03*
Y404180D02*
D03*
X373940Y409180D02*
D03*
Y404180D02*
D03*
X480620Y349570D02*
D03*
Y354570D02*
D03*
X470620Y349570D02*
D03*
Y354570D02*
D03*
X363940Y368540D02*
D03*
Y363540D02*
D03*
X373940Y368540D02*
D03*
Y363540D02*
D03*
X480620Y287340D02*
D03*
Y292340D02*
D03*
X470620Y287340D02*
D03*
Y292340D02*
D03*
X363940Y298690D02*
D03*
Y293690D02*
D03*
X373940Y298690D02*
D03*
Y293690D02*
D03*
D56*
X2517860Y566320D02*
D03*
Y582320D02*
D03*
X2527860D02*
D03*
Y566320D02*
D03*
X391720Y821080D02*
D03*
Y805080D02*
D03*
X381720Y821080D02*
D03*
Y805080D02*
D03*
X275040Y821590D02*
D03*
Y837590D02*
D03*
X285040Y821590D02*
D03*
Y837590D02*
D03*
X391720Y781710D02*
D03*
Y765710D02*
D03*
X381720Y781710D02*
D03*
Y765710D02*
D03*
X275040D02*
D03*
Y781710D02*
D03*
X285040D02*
D03*
Y765710D02*
D03*
X448870Y590450D02*
D03*
Y606450D02*
D03*
X438870Y590450D02*
D03*
Y606450D02*
D03*
X332190Y590450D02*
D03*
Y606450D02*
D03*
X342190Y590450D02*
D03*
Y606450D02*
D03*
X448870Y525680D02*
D03*
Y541680D02*
D03*
X438870Y525680D02*
D03*
Y541680D02*
D03*
X332190Y549810D02*
D03*
Y565810D02*
D03*
X342190D02*
D03*
Y549810D02*
D03*
X448870Y472340D02*
D03*
Y488340D02*
D03*
X438870Y472340D02*
D03*
Y488340D02*
D03*
X332190Y478690D02*
D03*
Y494690D02*
D03*
X342190D02*
D03*
Y478690D02*
D03*
X480620Y398680D02*
D03*
Y414680D02*
D03*
X470620Y398680D02*
D03*
Y414680D02*
D03*
X363940D02*
D03*
Y398680D02*
D03*
X373940Y414680D02*
D03*
Y398680D02*
D03*
X480620Y344070D02*
D03*
Y360070D02*
D03*
X470620Y344070D02*
D03*
Y360070D02*
D03*
X363940Y374040D02*
D03*
Y358040D02*
D03*
X373940Y374040D02*
D03*
Y358040D02*
D03*
X480620Y281840D02*
D03*
Y297840D02*
D03*
X470620Y281840D02*
D03*
Y297840D02*
D03*
X363940Y304190D02*
D03*
Y288190D02*
D03*
X373940Y304190D02*
D03*
Y288190D02*
D03*
D57*
X2003581Y217449D02*
D03*
X1990581D02*
D03*
X2070889Y1042951D02*
D03*
X2057889D02*
D03*
X803429D02*
D03*
X790429D02*
D03*
X803429Y1026441D02*
D03*
X790429D02*
D03*
X2139171Y1040409D02*
D03*
X2152171D02*
D03*
X2070889Y1027711D02*
D03*
X2057889D02*
D03*
X871711Y1040409D02*
D03*
X884711D02*
D03*
X1679729Y118391D02*
D03*
X1666729D02*
D03*
X1679729Y106961D02*
D03*
X1666729D02*
D03*
X1679729Y72671D02*
D03*
X1666729D02*
D03*
X1679729Y84101D02*
D03*
X1666729D02*
D03*
X1666731Y95529D02*
D03*
X1679731D02*
D03*
X1990581Y206019D02*
D03*
X2003581D02*
D03*
X1603531Y172999D02*
D03*
X1590531D02*
D03*
X1603531Y184429D02*
D03*
X1590531D02*
D03*
X1603531Y195859D02*
D03*
X1590531D02*
D03*
X1514329Y183161D02*
D03*
X1527329D02*
D03*
X1514329Y194591D02*
D03*
X1527329D02*
D03*
X1514329Y206021D02*
D03*
X1527329D02*
D03*
X1514329Y217451D02*
D03*
X1527329D02*
D03*
X1603531Y161569D02*
D03*
X1590531D02*
D03*
X1527331Y171729D02*
D03*
X1514331D02*
D03*
X1514329Y160301D02*
D03*
X1527329D02*
D03*
X1649251Y101879D02*
D03*
X1636251D02*
D03*
X2003579Y240311D02*
D03*
X1990579D02*
D03*
X2003579Y228881D02*
D03*
X1990579D02*
D03*
X1679731Y195859D02*
D03*
X1666731D02*
D03*
X1679731Y207289D02*
D03*
X1666731D02*
D03*
X1679731Y218719D02*
D03*
X1666731D02*
D03*
X1590529Y218721D02*
D03*
X1603529D02*
D03*
X1590529Y230151D02*
D03*
X1603529D02*
D03*
X1590529Y207291D02*
D03*
X1603529D02*
D03*
X1679731Y241579D02*
D03*
X1666731D02*
D03*
X1666729Y230151D02*
D03*
X1679729D02*
D03*
X1590529Y241581D02*
D03*
X1603529D02*
D03*
X1679731Y184429D02*
D03*
X1666731D02*
D03*
D58*
X1598301Y1049151D02*
D03*
Y1062151D02*
D03*
X1583061Y115701D02*
D03*
Y128701D02*
D03*
X1583059Y67439D02*
D03*
Y80439D02*
D03*
X1575439Y1062149D02*
D03*
Y1049149D02*
D03*
X1586871Y1049151D02*
D03*
Y1062151D02*
D03*
X1583061Y91571D02*
D03*
Y104571D02*
D03*
D59*
X1673230Y137410D02*
D03*
Y165910D02*
D03*
D60*
X1620630Y145060D02*
D03*
X1649130D02*
D03*
D61*
X1642750Y120930D02*
D03*
D62*
X1652500Y123430D02*
D03*
Y128430D02*
D03*
Y118430D02*
D03*
Y113430D02*
D03*
X1633000Y123430D02*
D03*
Y128430D02*
D03*
Y118430D02*
D03*
Y113430D02*
D03*
D63*
X837570Y1056920D02*
D03*
X2105030D02*
D03*
D64*
X847570Y1036920D02*
D03*
X2115030D02*
D03*
D65*
X842570D02*
D03*
X837570D02*
D03*
X832570D02*
D03*
X827570D02*
D03*
Y1076920D02*
D03*
X832570D02*
D03*
X837570D02*
D03*
X842570D02*
D03*
X847570D02*
D03*
X2110030Y1036920D02*
D03*
X2105030D02*
D03*
X2100030D02*
D03*
X2095030D02*
D03*
Y1076920D02*
D03*
X2100030D02*
D03*
X2105030D02*
D03*
X2110030D02*
D03*
X2115030D02*
D03*
D66*
X817570Y1046920D02*
D03*
Y1051920D02*
D03*
Y1056920D02*
D03*
Y1061920D02*
D03*
Y1066920D02*
D03*
X857570D02*
D03*
Y1061920D02*
D03*
Y1056920D02*
D03*
Y1051920D02*
D03*
Y1046920D02*
D03*
X2085030D02*
D03*
Y1051920D02*
D03*
Y1056920D02*
D03*
Y1061920D02*
D03*
Y1066920D02*
D03*
X2125030D02*
D03*
Y1061920D02*
D03*
Y1056920D02*
D03*
Y1051920D02*
D03*
Y1046920D02*
D03*
D67*
X1541430Y223800D02*
D03*
X1576430D02*
D03*
X1617630Y178080D02*
D03*
X1652630D02*
D03*
D68*
X1543830Y163080D02*
D03*
Y168080D02*
D03*
Y173080D02*
D03*
Y178080D02*
D03*
Y183080D02*
D03*
Y188080D02*
D03*
Y193080D02*
D03*
X1574030D02*
D03*
Y188080D02*
D03*
Y183080D02*
D03*
Y178080D02*
D03*
Y173080D02*
D03*
Y168080D02*
D03*
Y163080D02*
D03*
X1650230Y223800D02*
D03*
Y218800D02*
D03*
X1620030Y238800D02*
D03*
Y233800D02*
D03*
Y228800D02*
D03*
Y223800D02*
D03*
Y218800D02*
D03*
Y213800D02*
D03*
Y208800D02*
D03*
X1650230D02*
D03*
Y213800D02*
D03*
Y228800D02*
D03*
Y233800D02*
D03*
Y238800D02*
D03*
D69*
X1558930Y178080D02*
D03*
X1635130Y223800D02*
D03*
D70*
X1654750Y79020D02*
D03*
Y88520D02*
D03*
Y69520D02*
D03*
X1630750D02*
D03*
Y88520D02*
D03*
X1595190Y107620D02*
D03*
Y117120D02*
D03*
Y126620D02*
D03*
X1619190D02*
D03*
Y107620D02*
D03*
Y88520D02*
D03*
X1595190Y69520D02*
D03*
Y79020D02*
D03*
Y88520D02*
D03*
X1619190Y69520D02*
D03*
D71*
X1577370Y1098590D02*
D03*
Y1074590D02*
D03*
X1596370D02*
D03*
X1586870D02*
D03*
X1596370Y1098590D02*
D03*
D72*
X1947895Y161160D02*
D03*
Y154660D02*
D03*
Y141660D02*
D03*
Y148160D02*
D03*
X1975145Y161160D02*
D03*
Y154660D02*
D03*
Y141660D02*
D03*
Y148160D02*
D03*
D73*
X1961520Y151410D02*
D03*
D74*
X2615760Y502260D02*
D03*
X2609260D02*
D03*
X2615760Y575260D02*
D03*
X2609260D02*
D03*
X2550760D02*
D03*
X2557260D02*
D03*
X2563760D02*
D03*
X2570260D02*
D03*
X2576760D02*
D03*
X2583260D02*
D03*
X2589760D02*
D03*
X2596260D02*
D03*
X2602760D02*
D03*
X2544260Y502260D02*
D03*
X2550760D02*
D03*
X2557260D02*
D03*
X2563760D02*
D03*
X2570260D02*
D03*
X2576760D02*
D03*
X2583260D02*
D03*
X2589760D02*
D03*
X2596260D02*
D03*
X2602760D02*
D03*
D75*
X2544260Y575260D02*
D03*
D76*
X420570Y608200D02*
D03*
Y601700D02*
D03*
Y595200D02*
D03*
Y588700D02*
D03*
Y582200D02*
D03*
X360570Y588700D02*
D03*
Y595200D02*
D03*
Y601700D02*
D03*
Y608200D02*
D03*
Y582200D02*
D03*
Y575700D02*
D03*
X420570Y614700D02*
D03*
Y575700D02*
D03*
X360570Y614700D02*
D03*
Y621200D02*
D03*
X303420Y783460D02*
D03*
Y776960D02*
D03*
Y770460D02*
D03*
Y763960D02*
D03*
X363420Y757460D02*
D03*
Y763960D02*
D03*
Y770460D02*
D03*
Y776960D02*
D03*
Y783460D02*
D03*
X303420Y750960D02*
D03*
Y757460D02*
D03*
X363420Y789960D02*
D03*
Y750960D02*
D03*
X303420Y789960D02*
D03*
Y796460D02*
D03*
Y839340D02*
D03*
Y832840D02*
D03*
Y826340D02*
D03*
Y819840D02*
D03*
Y813340D02*
D03*
X363420D02*
D03*
Y819840D02*
D03*
Y826340D02*
D03*
Y832840D02*
D03*
Y839340D02*
D03*
X303420Y806840D02*
D03*
X363420Y845840D02*
D03*
Y806840D02*
D03*
X303420Y845840D02*
D03*
Y852340D02*
D03*
X360570Y552320D02*
D03*
Y545820D02*
D03*
Y539320D02*
D03*
Y532820D02*
D03*
X420570Y526320D02*
D03*
Y532820D02*
D03*
Y539320D02*
D03*
Y545820D02*
D03*
Y552320D02*
D03*
X360570Y526320D02*
D03*
Y519820D02*
D03*
X420570Y558820D02*
D03*
Y519820D02*
D03*
X360570Y558820D02*
D03*
Y565320D02*
D03*
X392320Y305940D02*
D03*
Y299440D02*
D03*
Y292940D02*
D03*
Y286440D02*
D03*
X452320Y279940D02*
D03*
Y286440D02*
D03*
Y292940D02*
D03*
Y299440D02*
D03*
Y305940D02*
D03*
X392320Y279940D02*
D03*
X452320Y312440D02*
D03*
Y273440D02*
D03*
X392320Y312440D02*
D03*
Y273440D02*
D03*
Y318940D02*
D03*
Y361820D02*
D03*
Y355320D02*
D03*
Y348820D02*
D03*
Y342320D02*
D03*
X452320Y335820D02*
D03*
Y342320D02*
D03*
Y348820D02*
D03*
Y355320D02*
D03*
Y361820D02*
D03*
X392320Y329320D02*
D03*
Y335820D02*
D03*
X452320Y368320D02*
D03*
Y329320D02*
D03*
X392320Y368320D02*
D03*
Y374820D02*
D03*
Y416430D02*
D03*
Y409930D02*
D03*
Y403430D02*
D03*
Y396930D02*
D03*
X452320Y390430D02*
D03*
Y396930D02*
D03*
Y403430D02*
D03*
Y409930D02*
D03*
Y416430D02*
D03*
X392320Y383930D02*
D03*
Y390430D02*
D03*
X452320Y422930D02*
D03*
Y383930D02*
D03*
X392320Y422930D02*
D03*
Y429430D02*
D03*
X360570Y496440D02*
D03*
Y489940D02*
D03*
Y483440D02*
D03*
Y476940D02*
D03*
X420570Y470440D02*
D03*
Y476940D02*
D03*
Y483440D02*
D03*
Y489940D02*
D03*
Y496440D02*
D03*
X360570Y470440D02*
D03*
Y463940D02*
D03*
X420570Y502940D02*
D03*
Y463940D02*
D03*
X360570Y502940D02*
D03*
Y509440D02*
D03*
D77*
X420570Y621200D02*
D03*
X363420Y796460D02*
D03*
Y852340D02*
D03*
X420570Y565320D02*
D03*
X452320Y318940D02*
D03*
Y374820D02*
D03*
Y429430D02*
D03*
X420570Y509440D02*
D03*
D78*
X1730634Y64161D02*
D03*
X1832234Y239167D02*
D03*
X1730634D02*
D03*
X1717934D02*
D03*
X1705234Y64161D02*
D03*
X1717934D02*
D03*
X1743334D02*
D03*
X1756034D02*
D03*
X1768734D02*
D03*
X1781434D02*
D03*
X1794134D02*
D03*
X1806834D02*
D03*
X1819534D02*
D03*
X1832234D02*
D03*
X1844934D02*
D03*
X1857634D02*
D03*
X1870334D02*
D03*
Y239167D02*
D03*
X1857634D02*
D03*
X1844934D02*
D03*
X1819534D02*
D03*
X1806834D02*
D03*
X1794134D02*
D03*
X1781434D02*
D03*
X1768734D02*
D03*
X1756034D02*
D03*
X1743334D02*
D03*
X1705234D02*
D03*
D79*
X1768429Y166675D02*
D03*
Y180671D02*
D03*
X1782425D02*
D03*
X1796420D02*
D03*
Y166675D02*
D03*
Y152680D02*
D03*
X1782425D02*
D03*
X1768429D02*
D03*
X1782425Y166675D02*
D03*
D80*
X1882831Y81814D02*
D03*
Y94514D02*
D03*
Y107214D02*
D03*
Y119914D02*
D03*
Y132614D02*
D03*
Y145314D02*
D03*
Y158014D02*
D03*
Y170714D02*
D03*
Y183414D02*
D03*
Y196114D02*
D03*
Y208814D02*
D03*
Y221514D02*
D03*
M02*
