G04*
G04 #@! TF.GenerationSoftware,Altium Limited,Altium Designer,22.10.1 (41)*
G04*
G04 Layer_Color=8242323*
%FSLAX44Y44*%
%MOMM*%
G71*
G04*
G04 #@! TF.SameCoordinates,C522AA7B-F4F4-4EC6-81A6-D5D12569EC36*
G04*
G04*
G04 #@! TF.FilePolarity,Positive*
G04*
G01*
G75*
%ADD10C,0.2540*%
%ADD11C,0.1524*%
%ADD25C,0.7620*%
%ADD31C,0.5080*%
%ADD41C,1.2700*%
%ADD119C,0.0127*%
G36*
X2508936Y1324856D02*
X2509172Y1324504D01*
X2509642Y1323916D01*
X2510112Y1323210D01*
X2510818Y1322152D01*
X2511641Y1321094D01*
X2512581Y1319801D01*
X2513522Y1318390D01*
X2514698Y1316744D01*
X2515756Y1315098D01*
X2518225Y1311453D01*
X2520812Y1307455D01*
X2523398Y1303340D01*
X2515168Y1298284D01*
X2515050Y1298402D01*
X2514815Y1298754D01*
X2514463Y1299342D01*
X2513992Y1300165D01*
X2513404Y1301223D01*
X2512699Y1302399D01*
X2511876Y1303810D01*
X2510935Y1305339D01*
X2509995Y1306867D01*
X2508936Y1308631D01*
X2506585Y1312393D01*
X2504116Y1316391D01*
X2501529Y1320388D01*
X2508819Y1324974D01*
X2508936Y1324856D01*
D02*
G37*
G36*
X2564785Y1320271D02*
X2564668Y1320153D01*
X2564433Y1319683D01*
X2564080Y1319095D01*
X2563492Y1318154D01*
X2562904Y1317096D01*
X2562081Y1315803D01*
X2561140Y1314392D01*
X2560200Y1312746D01*
X2557966Y1309336D01*
X2555497Y1305574D01*
X2552793Y1301694D01*
X2550088Y1297931D01*
X2542681Y1303105D01*
X2542798Y1303222D01*
X2543034Y1303575D01*
X2543386Y1304045D01*
X2543857Y1304868D01*
X2544445Y1305691D01*
X2545150Y1306867D01*
X2545973Y1308161D01*
X2546914Y1309571D01*
X2547854Y1311100D01*
X2548913Y1312746D01*
X2550088Y1314627D01*
X2551264Y1316508D01*
X2553733Y1320741D01*
X2556320Y1325209D01*
X2564785Y1320271D01*
D02*
G37*
G36*
X2492005Y1310394D02*
X2505409D01*
Y1301929D01*
X2492005D01*
Y1289466D01*
X2494004Y1292523D01*
X2494122Y1292405D01*
X2494357Y1292170D01*
X2494827Y1291700D01*
X2495415Y1291112D01*
X2496238Y1290406D01*
X2497061Y1289583D01*
X2499060Y1287467D01*
X2501412Y1285116D01*
X2503881Y1282529D01*
X2506467Y1279825D01*
X2508936Y1277120D01*
X2501882Y1271006D01*
X2501764Y1271124D01*
X2501647Y1271359D01*
X2501294Y1271712D01*
X2500941Y1272182D01*
X2499765Y1273475D01*
X2498472Y1275122D01*
X2496944Y1277120D01*
X2495298Y1279237D01*
X2493534Y1281588D01*
X2492005Y1283822D01*
Y1234793D01*
X2482717D01*
Y1283705D01*
X2482599Y1283234D01*
X2482364Y1282411D01*
X2482129Y1281353D01*
X2481776Y1280177D01*
X2481306Y1278649D01*
X2480718Y1277003D01*
X2480130Y1275239D01*
X2479425Y1273358D01*
X2478484Y1271359D01*
X2476603Y1267126D01*
X2474134Y1262894D01*
X2472840Y1260777D01*
X2471312Y1258778D01*
X2471194Y1259014D01*
X2470959Y1259601D01*
X2470489Y1260542D01*
X2470019Y1261718D01*
X2469313Y1263129D01*
X2468608Y1264775D01*
X2467197Y1268185D01*
X2467314Y1268420D01*
X2467667Y1268890D01*
X2468137Y1269713D01*
X2468843Y1270889D01*
X2469666Y1272300D01*
X2470724Y1273946D01*
X2471782Y1275945D01*
X2472958Y1278061D01*
X2474134Y1280530D01*
X2475427Y1283117D01*
X2476603Y1285821D01*
X2477896Y1288878D01*
X2479190Y1291935D01*
X2480365Y1295110D01*
X2482482Y1301929D01*
X2468137D01*
Y1310394D01*
X2482717D01*
Y1329677D01*
X2492005D01*
Y1310394D01*
D02*
G37*
G36*
X2416874Y1330853D02*
X2417344Y1330147D01*
X2418050Y1329089D01*
X2418520Y1328266D01*
X2418990Y1327443D01*
X2419578Y1326503D01*
X2420284Y1325327D01*
X2420989Y1324151D01*
X2421812Y1322858D01*
X2422635Y1321329D01*
X2423458Y1319683D01*
X2424399Y1318037D01*
X2425457Y1316156D01*
X2418520Y1314157D01*
X2463669D01*
Y1304986D01*
X2445680D01*
Y1304868D01*
Y1304633D01*
X2445563Y1304281D01*
X2445445Y1303810D01*
X2445327Y1303222D01*
X2445092Y1302399D01*
X2444622Y1300518D01*
X2444034Y1298284D01*
X2443211Y1295697D01*
X2442271Y1292758D01*
X2441095Y1289583D01*
X2439801Y1286291D01*
X2438155Y1282764D01*
X2436392Y1279237D01*
X2434393Y1275592D01*
X2432159Y1272065D01*
X2429690Y1268655D01*
X2426986Y1265363D01*
X2423929Y1262188D01*
X2424046Y1262070D01*
X2424516Y1261835D01*
X2425222Y1261365D01*
X2426280Y1260777D01*
X2427574Y1259954D01*
X2429220Y1259131D01*
X2431218Y1258073D01*
X2433570Y1256897D01*
X2436156Y1255721D01*
X2439096Y1254428D01*
X2442388Y1253135D01*
X2446151Y1251724D01*
X2450148Y1250313D01*
X2454498Y1248902D01*
X2459202Y1247373D01*
X2464375Y1245963D01*
Y1245845D01*
X2464140Y1245727D01*
X2463905Y1245375D01*
X2463669Y1244904D01*
X2462729Y1243846D01*
X2461788Y1242435D01*
X2460612Y1240907D01*
X2459319Y1239261D01*
X2458143Y1237615D01*
X2457085Y1236086D01*
X2456968D01*
X2456732Y1236204D01*
X2456380Y1236321D01*
X2455909Y1236556D01*
X2455204Y1236792D01*
X2454381Y1237027D01*
X2452500Y1237732D01*
X2450266Y1238555D01*
X2447561Y1239613D01*
X2444622Y1240789D01*
X2441565Y1242083D01*
X2438273Y1243493D01*
X2434863Y1245022D01*
X2428279Y1248314D01*
X2424987Y1250078D01*
X2421930Y1251841D01*
X2419108Y1253723D01*
X2416639Y1255604D01*
X2416521Y1255486D01*
X2416051Y1255134D01*
X2415345Y1254663D01*
X2414287Y1253958D01*
X2412876Y1253017D01*
X2411230Y1251959D01*
X2409114Y1250666D01*
X2406762Y1249372D01*
X2404058Y1247961D01*
X2401001Y1246315D01*
X2397591Y1244669D01*
X2393829Y1242906D01*
X2389714Y1241142D01*
X2385128Y1239261D01*
X2380190Y1237262D01*
X2374899Y1235381D01*
X2374782Y1235498D01*
X2374429Y1236086D01*
X2373841Y1236792D01*
X2373018Y1237967D01*
X2372077Y1239261D01*
X2371019Y1240789D01*
X2369843Y1242435D01*
X2368550Y1244316D01*
X2368668D01*
X2368903Y1244434D01*
X2369256Y1244552D01*
X2369726Y1244669D01*
X2370431Y1244904D01*
X2371254Y1245139D01*
X2373136Y1245845D01*
X2375487Y1246550D01*
X2378074Y1247491D01*
X2381013Y1248549D01*
X2384188Y1249725D01*
X2387480Y1251018D01*
X2390890Y1252429D01*
X2397827Y1255486D01*
X2401119Y1257132D01*
X2404293Y1258778D01*
X2407115Y1260424D01*
X2409819Y1262188D01*
X2409584Y1262423D01*
X2409114Y1263011D01*
X2408173Y1264069D01*
X2406998Y1265363D01*
X2405587Y1267126D01*
X2404058Y1269243D01*
X2402294Y1271594D01*
X2400531Y1274298D01*
X2398650Y1277355D01*
X2396768Y1280648D01*
X2394887Y1284175D01*
X2393123Y1287937D01*
X2391477Y1291817D01*
X2389949Y1296050D01*
X2388773Y1300401D01*
X2387715Y1304986D01*
X2369491D01*
Y1314157D01*
X2415463D01*
Y1314274D01*
X2415228Y1314510D01*
X2414993Y1314862D01*
X2414640Y1315450D01*
X2414287Y1316156D01*
X2413817Y1316861D01*
X2412759Y1318625D01*
X2411583Y1320741D01*
X2410290Y1322858D01*
X2409114Y1324974D01*
X2407938Y1326973D01*
X2416756Y1331088D01*
X2416874Y1330853D01*
D02*
G37*
G36*
X2537272Y1294992D02*
X2561729D01*
Y1234440D01*
X2552322D01*
Y1239848D01*
X2500941D01*
Y1248549D01*
X2552322D01*
Y1263481D01*
X2505056D01*
Y1272065D01*
X2552322D01*
Y1286174D01*
X2503410D01*
Y1294992D01*
X2527866D01*
Y1329795D01*
X2537272D01*
Y1294992D01*
D02*
G37*
%LPC*%
G36*
X2435569Y1304986D02*
X2397356D01*
Y1304868D01*
Y1304751D01*
X2397474Y1304398D01*
X2397591Y1304045D01*
X2397827Y1302870D01*
X2398297Y1301341D01*
X2398767Y1299460D01*
X2399473Y1297226D01*
X2400413Y1294757D01*
X2401354Y1292052D01*
X2402647Y1289231D01*
X2403941Y1286291D01*
X2405587Y1283234D01*
X2407350Y1280177D01*
X2409349Y1277003D01*
X2411701Y1273946D01*
X2414170Y1271006D01*
X2416874Y1268185D01*
X2416992Y1268302D01*
X2417462Y1268772D01*
X2418285Y1269595D01*
X2419225Y1270771D01*
X2420401Y1272065D01*
X2421695Y1273828D01*
X2423105Y1275709D01*
X2424634Y1277943D01*
X2426280Y1280530D01*
X2427809Y1283234D01*
X2429455Y1286291D01*
X2430866Y1289583D01*
X2432276Y1293111D01*
X2433570Y1296873D01*
X2434628Y1300753D01*
X2435569Y1304986D01*
D02*
G37*
%LPD*%
D10*
X1207000Y5500D02*
X1810500D01*
X1207000Y500D02*
X1810500D01*
X1207000D02*
Y5500D01*
X1810500Y500D02*
Y5500D01*
X0Y1107500D02*
X100000D01*
X0Y1207500D02*
X100000D01*
Y1107500D02*
Y1207500D01*
X0Y1107500D02*
Y1207500D01*
Y1132500D02*
X75000D01*
X0Y1207500D02*
X75000D01*
Y1132500D02*
Y1207500D01*
X0Y1132500D02*
Y1207500D01*
X1810500Y1202500D02*
X2414000D01*
X1810500Y1207500D02*
X2414000D01*
Y1202500D02*
Y1207500D01*
X1810500Y1202500D02*
Y1207500D01*
X2414000Y1202500D02*
X3017500D01*
X2414000Y1207500D02*
X3017500D01*
Y1202500D02*
Y1207500D01*
X2414000Y1202500D02*
Y1207500D01*
X5000Y500D02*
Y604000D01*
X0Y500D02*
Y604000D01*
X5000D01*
X0Y500D02*
X5000D01*
X603500Y1202500D02*
X1207000D01*
X603500Y1207500D02*
X1207000D01*
Y1202500D02*
Y1207500D01*
X603500Y1202500D02*
Y1207500D01*
X2917500Y1107500D02*
X3017500D01*
X2917500Y1207500D02*
X3017500D01*
Y1107500D02*
Y1207500D01*
X2917500Y1107500D02*
Y1207500D01*
X2917500Y-0D02*
X3017500D01*
X2917500Y100000D02*
X3017500D01*
Y-0D02*
Y100000D01*
X2917500Y-0D02*
Y100000D01*
X2414000Y5500D02*
X3017500D01*
X2414000Y500D02*
X3017500D01*
X2414000D02*
Y5500D01*
X3017500Y500D02*
Y5500D01*
X3012500Y604000D02*
Y1207500D01*
X3017500Y604000D02*
Y1207500D01*
X3012500Y604000D02*
X3017500D01*
X3012500Y1207500D02*
X3017500D01*
X1207000Y1202500D02*
X1810500D01*
X1207000Y1207500D02*
X1810500D01*
Y1202500D02*
Y1207500D01*
X1207000Y1202500D02*
Y1207500D01*
X5000Y604000D02*
Y1207500D01*
X0Y604000D02*
Y1207500D01*
X5000D01*
X0Y604000D02*
X5000D01*
X0Y5500D02*
X603500D01*
X0Y500D02*
X603500D01*
X0D02*
Y5500D01*
X603500Y500D02*
Y5500D01*
X0Y-0D02*
X100000D01*
X0Y100000D02*
X100000D01*
Y-0D02*
Y100000D01*
X0Y-0D02*
Y100000D01*
Y1202500D02*
X603500D01*
X0Y1207500D02*
X603500D01*
Y1202500D02*
Y1207500D01*
X0Y1202500D02*
Y1207500D01*
X3012500Y500D02*
Y604000D01*
X3017500Y500D02*
Y604000D01*
X3012500Y500D02*
X3017500D01*
X3012500Y604000D02*
X3017500D01*
X603500Y5500D02*
X1207000D01*
X603500Y500D02*
X1207000D01*
X603500D02*
Y5500D01*
X1207000Y500D02*
Y5500D01*
X1810500D02*
X2414000D01*
X1810500Y500D02*
X2414000D01*
X1810500D02*
Y5500D01*
X2414000Y500D02*
Y5500D01*
X2837500Y1120200D02*
X3017500D01*
X2837500Y1207500D02*
X3017500D01*
Y1120200D02*
Y1207500D01*
X2837500Y1120200D02*
Y1207500D01*
X2715750Y1044370D02*
Y1202500D01*
X175120Y1067500D02*
X285450D01*
X395780D01*
X506110D01*
X616440D01*
X726770D01*
X837100D01*
X947430D01*
X1057760D01*
X1168090D01*
X1278420D01*
X1388750D01*
X2492050D02*
X2602380D01*
X2381720D02*
X2492050D01*
X2271390D02*
X2381720D01*
X2161060D02*
X2271390D01*
X2050730D02*
X2161060D01*
X1940400D02*
X2050730D01*
X1830070D02*
X1940400D01*
X1719740D02*
X1830070D01*
X1609410D02*
X1719740D01*
X1499080D02*
X1609410D01*
X1388750D02*
X1499080D01*
X1508750Y5500D02*
Y1107500D01*
X5000D02*
X1508750D01*
X1508750Y5500D02*
Y119040D01*
X1107000Y1081240D02*
Y1205000D01*
X2260625Y1035330D02*
Y1107500D01*
X1508750D02*
X3012500D01*
X756875Y1031520D02*
Y1107500D01*
X100000D02*
X2917500D01*
X100000Y1047060D02*
Y1107500D01*
X301750Y1046880D02*
Y1202500D01*
X2715750Y5500D02*
Y109350D01*
X703500Y3000D02*
Y97520D01*
X301750Y5500D02*
Y95410D01*
X2514000Y1039170D02*
Y1105000D01*
X1910500Y1042730D02*
Y1105000D01*
X1307000Y1034530D02*
Y1105000D01*
X703500Y1037150D02*
Y1105000D01*
X5000Y302250D02*
X105760D01*
X2879690Y905750D02*
X3012500D01*
X1307000Y1205000D02*
X1319500D01*
X2500Y704000D02*
X102500D01*
X703500Y1105000D02*
Y1205000D01*
X1307000Y1105000D02*
Y1205000D01*
X1910500Y1105000D02*
Y1205000D01*
X2514000Y1105000D02*
Y1205000D01*
X2915000Y504000D02*
X3015000D01*
X2500Y1107500D02*
Y1207500D01*
Y604000D02*
Y704000D01*
Y504000D02*
Y604000D01*
Y500D02*
Y100500D01*
X0Y3000D02*
X100000D01*
X503500D02*
X603500D01*
X703500D01*
X1107000D02*
X1207000D01*
X1307000D01*
X1710500D02*
X1810500D01*
X1910500D01*
X2313301Y3003D02*
X2413301D01*
X2414000Y3000D02*
X2514000D01*
X2917500D02*
X3017500D01*
X3015000Y500D02*
Y100500D01*
Y504000D02*
Y604000D01*
Y704000D01*
Y1107500D02*
Y1207500D01*
X2917500Y1205000D02*
X3017500D01*
X2414000D02*
X2514000D01*
X2314000D02*
X2414000D01*
X1810500D02*
X1910500D01*
X1710500D02*
X1810500D01*
X1107000D02*
X1207000D01*
X1307000D01*
X603500D02*
X703500D01*
X503500D02*
X603500D01*
X0D02*
X100000D01*
X119900Y1059460D02*
X135140Y1064540D01*
X119900Y1059460D02*
X135140Y1054380D01*
X2642360D02*
X2657600Y1059460D01*
X2642360Y1064540D02*
X2657600Y1059460D01*
X119900D02*
X1338726D01*
X1430647D02*
X2657600D01*
X119900Y1056920D02*
Y1077660D01*
X2657600Y1056920D02*
Y1077660D01*
X0Y1256310D02*
X15240Y1261390D01*
X0Y1256310D02*
X15240Y1251230D01*
X3002260D02*
X3017500Y1256310D01*
X3002260Y1261390D02*
X3017500Y1256310D01*
X0D02*
X1444760D01*
X1564612D02*
X3017500D01*
X0Y1205040D02*
Y1258850D01*
X3017500Y1210040D02*
Y1258850D01*
X3118490Y1207500D02*
X3123570Y1192260D01*
X3113410D02*
X3118490Y1207500D01*
X3113410Y15240D02*
X3118490Y-0D01*
X3123570Y15240D01*
X3118490Y659612D02*
Y1207500D01*
Y-0D02*
Y539760D01*
X3020040Y1207500D02*
X3121030D01*
X3020040Y-0D02*
X3121030D01*
X3035940Y444860D02*
X3041020Y429620D01*
X3030860D02*
X3035940Y444860D01*
X3030860Y470100D02*
X3035940Y454860D01*
X3041020Y470100D01*
X3035940Y419460D02*
Y444860D01*
Y454860D02*
Y480260D01*
X2489920Y454860D02*
X3038480D01*
X2489920Y444860D02*
X3038480D01*
X3035940Y254360D02*
X3041020Y239120D01*
X3030860D02*
X3035940Y254360D01*
X3030860Y279600D02*
X3035940Y264360D01*
X3041020Y279600D01*
X3035940Y228960D02*
Y254360D01*
Y264360D02*
Y289760D01*
X2346330Y264360D02*
X3038480D01*
X2346330Y254360D02*
X3038480D01*
X1408750Y1183920D02*
X1423990Y1189000D01*
X1408750Y1183920D02*
X1423990Y1178840D01*
X1593510D02*
X1608750Y1183920D01*
X1593510Y1189000D02*
X1608750Y1183920D01*
X1408750D02*
X1466343D01*
X1543029D02*
X1608750D01*
X1408750Y1132500D02*
Y1186460D01*
X1608750Y1132500D02*
Y1186460D01*
D11*
X1352946Y1050318D02*
X1342790D01*
X1352946Y1060475D01*
Y1063014D01*
X1350407Y1065553D01*
X1345329D01*
X1342790Y1063014D01*
X1368181Y1065553D02*
X1358025D01*
Y1057936D01*
X1363103Y1060475D01*
X1365642D01*
X1368181Y1057936D01*
Y1052858D01*
X1365642Y1050318D01*
X1360564D01*
X1358025Y1052858D01*
X1373260Y1063014D02*
X1375799Y1065553D01*
X1380877D01*
X1383416Y1063014D01*
Y1060475D01*
X1380877Y1057936D01*
X1378338D01*
X1380877D01*
X1383416Y1055397D01*
Y1052858D01*
X1380877Y1050318D01*
X1375799D01*
X1373260Y1052858D01*
X1388495Y1050318D02*
Y1052858D01*
X1391034D01*
Y1050318D01*
X1388495D01*
X1401191Y1065553D02*
X1411348D01*
Y1063014D01*
X1401191Y1052858D01*
Y1050318D01*
X1416426Y1065553D02*
X1426582D01*
Y1063014D01*
X1416426Y1052858D01*
Y1050318D01*
X1448824Y1259864D02*
X1451363Y1262403D01*
X1456442D01*
X1458981Y1259864D01*
Y1257325D01*
X1456442Y1254786D01*
X1453903D01*
X1456442D01*
X1458981Y1252247D01*
Y1249708D01*
X1456442Y1247168D01*
X1451363D01*
X1448824Y1249708D01*
X1464059Y1259864D02*
X1466599Y1262403D01*
X1471677D01*
X1474216Y1259864D01*
Y1249708D01*
X1471677Y1247168D01*
X1466599D01*
X1464059Y1249708D01*
Y1259864D01*
X1479294Y1247168D02*
X1484373D01*
X1481833D01*
Y1262403D01*
X1479294Y1259864D01*
X1491990Y1247168D02*
Y1249708D01*
X1494529D01*
Y1247168D01*
X1491990D01*
X1504686Y1262403D02*
X1514843D01*
Y1259864D01*
X1504686Y1249708D01*
Y1247168D01*
X1530078Y1262403D02*
X1519921D01*
Y1254786D01*
X1525000Y1257325D01*
X1527539D01*
X1530078Y1254786D01*
Y1249708D01*
X1527539Y1247168D01*
X1522460D01*
X1519921Y1249708D01*
X1535156Y1247168D02*
Y1257325D01*
X1537695D01*
X1540235Y1254786D01*
Y1247168D01*
Y1254786D01*
X1542774Y1257325D01*
X1545313Y1254786D01*
Y1247168D01*
X1550391D02*
Y1257325D01*
X1552930D01*
X1555470Y1254786D01*
Y1247168D01*
Y1254786D01*
X1558009Y1257325D01*
X1560548Y1254786D01*
Y1247168D01*
X3127632Y543824D02*
Y548902D01*
Y546363D01*
X3112397D01*
X3114936Y543824D01*
X3127632Y566677D02*
Y556520D01*
X3117475Y566677D01*
X3114936D01*
X3112397Y564137D01*
Y559059D01*
X3114936Y556520D01*
Y571755D02*
X3112397Y574294D01*
Y579372D01*
X3114936Y581912D01*
X3125092D01*
X3127632Y579372D01*
Y574294D01*
X3125092Y571755D01*
X3114936D01*
X3127632Y586990D02*
X3125092D01*
Y589529D01*
X3127632D01*
Y586990D01*
X3112397Y599686D02*
Y609843D01*
X3114936D01*
X3125092Y599686D01*
X3127632D01*
X3112397Y625078D02*
Y614921D01*
X3120014D01*
X3117475Y619999D01*
Y622538D01*
X3120014Y625078D01*
X3125092D01*
X3127632Y622538D01*
Y617460D01*
X3125092Y614921D01*
X3127632Y630156D02*
X3117475D01*
Y632695D01*
X3120014Y635234D01*
X3127632D01*
X3120014D01*
X3117475Y637774D01*
X3120014Y640313D01*
X3127632D01*
Y645391D02*
X3117475D01*
Y647930D01*
X3120014Y650470D01*
X3127632D01*
X3120014D01*
X3117475Y653009D01*
X3120014Y655548D01*
X3127632D01*
X3072506Y405169D02*
Y410247D01*
Y407708D01*
X3057271D01*
X3059810Y405169D01*
X3072506Y417865D02*
X3069967D01*
Y420404D01*
X3072506D01*
Y417865D01*
X3059810Y430561D02*
X3057271Y433100D01*
Y438178D01*
X3059810Y440718D01*
X3069967D01*
X3072506Y438178D01*
Y433100D01*
X3069967Y430561D01*
X3059810D01*
Y445796D02*
X3057271Y448335D01*
Y453414D01*
X3059810Y455953D01*
X3069967D01*
X3072506Y453414D01*
Y448335D01*
X3069967Y445796D01*
X3059810D01*
X3072506Y461031D02*
X3062350D01*
Y463570D01*
X3064889Y466109D01*
X3072506D01*
X3064889D01*
X3062350Y468648D01*
X3064889Y471188D01*
X3072506D01*
Y476266D02*
X3062350D01*
Y478805D01*
X3064889Y481344D01*
X3072506D01*
X3064889D01*
X3062350Y483884D01*
X3064889Y486423D01*
X3072506D01*
Y214669D02*
Y219747D01*
Y217208D01*
X3057271D01*
X3059810Y214669D01*
X3072506Y227365D02*
X3069967D01*
Y229904D01*
X3072506D01*
Y227365D01*
X3059810Y240061D02*
X3057271Y242600D01*
Y247678D01*
X3059810Y250217D01*
X3069967D01*
X3072506Y247678D01*
Y242600D01*
X3069967Y240061D01*
X3059810D01*
Y255296D02*
X3057271Y257835D01*
Y262913D01*
X3059810Y265452D01*
X3069967D01*
X3072506Y262913D01*
Y257835D01*
X3069967Y255296D01*
X3059810D01*
X3072506Y270531D02*
X3062350D01*
Y273070D01*
X3064889Y275609D01*
X3072506D01*
X3064889D01*
X3062350Y278148D01*
X3064889Y280688D01*
X3072506D01*
Y285766D02*
X3062350D01*
Y288305D01*
X3064889Y290844D01*
X3072506D01*
X3064889D01*
X3062350Y293384D01*
X3064889Y295923D01*
X3072506D01*
X1480564Y1174778D02*
X1470407D01*
X1480564Y1184935D01*
Y1187474D01*
X1478025Y1190013D01*
X1472946D01*
X1470407Y1187474D01*
X1485642D02*
X1488181Y1190013D01*
X1493260D01*
X1495799Y1187474D01*
Y1177318D01*
X1493260Y1174778D01*
X1488181D01*
X1485642Y1177318D01*
Y1187474D01*
X1500877Y1174778D02*
Y1177318D01*
X1503416D01*
Y1174778D01*
X1500877D01*
X1513573Y1187474D02*
X1516112Y1190013D01*
X1521191D01*
X1523730Y1187474D01*
Y1177318D01*
X1521191Y1174778D01*
X1516112D01*
X1513573Y1177318D01*
Y1187474D01*
X1528808D02*
X1531348Y1190013D01*
X1536426D01*
X1538965Y1187474D01*
Y1177318D01*
X1536426Y1174778D01*
X1531348D01*
X1528808Y1177318D01*
Y1187474D01*
D25*
X2697500Y1120300D02*
G03*
X2657600Y1160200I-39900J0D01*
G01*
Y1080200D02*
G03*
X2697500Y1120100I0J39900D01*
G01*
X119900Y1160200D02*
G03*
X80000Y1120300I0J-39900D01*
G01*
Y1120100D02*
G03*
X119900Y1080200I39900J0D01*
G01*
X2937150Y1120080D02*
G03*
X2897150Y1160080I-40000J0D01*
G01*
Y1080080D02*
G03*
X2937150Y1120080I0J40000D01*
G01*
X2777150Y1160080D02*
G03*
X2737150Y1120080I0J-40000D01*
G01*
D02*
G03*
X2777150Y1080080I40000J0D01*
G01*
X119900Y1080200D02*
X2657600D01*
X119900Y1160200D02*
X2657600D01*
X2697500Y1120100D02*
Y1120300D01*
X80000Y1120100D02*
Y1120300D01*
X2777150Y1080080D02*
X2897150D01*
X2777150Y1160080D02*
X2897150D01*
X-1900Y1032495D02*
X3016890D01*
D31*
X113750Y1120200D02*
Y1138120D01*
X263750Y1120200D02*
Y1138420D01*
X413750Y1120200D02*
Y1139110D01*
X563750Y1120200D02*
Y1138970D01*
X713750Y1120200D02*
Y1138830D01*
X863750Y1120200D02*
Y1138980D01*
X1013750Y1120200D02*
Y1139120D01*
X1163750Y1120200D02*
Y1140530D01*
X1313750Y1120200D02*
Y1141940D01*
X2663750Y1120200D02*
Y1139550D01*
X2513750Y1120200D02*
Y1140520D01*
X2363750Y1120200D02*
Y1140380D01*
X2213750Y1120200D02*
Y1140240D01*
X2063750Y1120200D02*
Y1140110D01*
X1913750Y1120200D02*
Y1140250D01*
X1763750Y1120200D02*
Y1140390D01*
X1613750Y1120200D02*
Y1140530D01*
X1463750Y1120200D02*
Y1141940D01*
X38750Y1120200D02*
X188750D01*
X2588750D02*
X2738750D01*
X188750D02*
X338750D01*
X488750D01*
X638750D01*
X788750D01*
X938750D01*
X1088750D01*
X1238750D01*
X1388750D01*
X2438750D02*
X2588750D01*
X2288750D02*
X2438750D01*
X2138750D02*
X2288750D01*
X1988750D02*
X2138750D01*
X1838750D02*
X1988750D01*
X1688750D02*
X1838750D01*
X1538750D02*
X1688750D01*
X1388750D02*
X1538750D01*
X1388750Y1080200D02*
Y1160200D01*
D41*
X3017500Y1107500D02*
G03*
X2917500Y1207500I-100000J0D01*
G01*
Y500D02*
G03*
X3017500Y100500I0J100000D01*
G01*
X100000Y1207500D02*
G03*
X0Y1107500I0J-100000D01*
G01*
Y100500D02*
G03*
X100000Y500I100000J0D01*
G01*
X2917500D01*
X100000Y1207500D02*
X2917500D01*
X3017500Y100500D02*
Y1107500D01*
X0Y100500D02*
Y1107500D01*
D119*
X1962620Y486258D02*
X2102620D01*
Y626251D01*
X1962620Y486258D02*
Y626251D01*
X1912120Y486258D02*
Y626251D01*
X1772120Y486258D02*
X1912120D01*
X1772120Y626251D02*
X1912120D01*
X1772120Y486258D02*
Y626251D01*
X1819750Y435750D02*
X1959740D01*
X2010250Y245251D02*
X2150240D01*
X2010250Y105256D02*
X2150240D01*
Y245251D01*
X2200750Y105256D02*
Y245251D01*
X1959740Y295756D02*
Y435750D01*
X2010250Y295756D02*
Y435750D01*
X2150240D01*
Y295756D02*
Y435750D01*
X2010250Y295756D02*
X2150240D01*
X1819750D02*
X1959740D01*
X2010250Y105256D02*
Y245251D01*
X1931670Y170258D02*
Y198246D01*
X1923430Y170258D02*
X1931670D01*
X1923430Y198246D02*
X1931670D01*
X1923430D02*
Y230548D01*
Y107558D02*
Y170258D01*
X1906180Y107558D02*
X1923430D01*
X1906180Y230548D02*
X1923430D01*
X1906180D02*
Y239767D01*
Y97746D02*
Y107558D01*
X1873170Y239767D02*
X1906180D01*
X1873170Y97746D02*
X1906180D01*
X1629250Y295756D02*
X1769240D01*
X1629250D02*
Y435750D01*
X1769240Y295756D02*
Y435750D01*
X1819750Y295756D02*
Y435750D01*
X1629250D02*
X1769240D01*
X1873170Y230548D02*
Y239767D01*
X1855920Y230548D02*
X1873170D01*
X1855920Y107558D02*
X1873170D01*
X1855920D02*
Y152261D01*
Y198246D02*
Y230548D01*
X1459680Y198246D02*
X1855920D01*
X1459680Y152261D02*
X1855920D01*
X1873170Y97746D02*
Y107558D01*
X1581620Y486258D02*
Y626251D01*
Y486258D02*
X1721620D01*
Y626251D01*
X1581620D02*
X1721620D01*
X2644490Y869558D02*
X2661740D01*
X2644490Y859747D02*
Y869558D01*
Y992547D02*
Y1001768D01*
X2611480D02*
X2644490D01*
X2611480Y992547D02*
Y1001768D01*
Y859747D02*
Y869558D01*
X2594250Y992547D02*
X2611480D01*
X2594250Y869558D02*
X2611480D01*
X2594250Y960246D02*
Y992547D01*
Y869558D02*
Y932257D01*
X2585990Y960246D02*
X2594250D01*
X2585990Y932257D02*
X2594250D01*
X2611480Y859747D02*
X2644490D01*
X2677000Y1007251D02*
X2816990D01*
Y960246D02*
Y1007251D01*
X2677000Y960246D02*
Y1007251D01*
Y867258D02*
Y914248D01*
X2661740Y960246D02*
X2677000D01*
X2661740Y914248D02*
X2677000D01*
X2661740Y960246D02*
Y992547D01*
Y869558D02*
Y914248D01*
X2644490Y992547D02*
X2661740D01*
X2793180Y579246D02*
Y626251D01*
X2724620Y676758D02*
Y816751D01*
X2653170Y626251D02*
X2793180D01*
X2724620Y816751D02*
X2864620D01*
X2724620Y676758D02*
X2864620D01*
X2677000Y867258D02*
X2816990D01*
X2653170Y579246D02*
Y626251D01*
X2585990Y932257D02*
Y960246D01*
X2531240Y867258D02*
Y1007251D01*
X2391250D02*
X2531240D01*
X2486500Y676758D02*
X2626490D01*
X2486500D02*
Y816751D01*
X2391250Y867258D02*
X2531240D01*
X2486500Y816751D02*
X2626490D01*
X2435990Y676758D02*
Y816751D01*
X2626490Y676758D02*
Y816751D01*
X2587670Y620754D02*
X2620660D01*
Y611547D02*
Y620754D01*
X2587670Y611547D02*
Y620754D01*
X2620660Y611547D02*
X2637930D01*
X2570420D02*
X2587670D01*
X2653170Y486258D02*
X2793180D01*
Y533248D02*
X2808420D01*
X2793180Y486258D02*
Y533248D01*
X2808420Y488558D02*
Y533248D01*
X2653170Y486258D02*
Y533248D01*
X2581750Y435750D02*
X2721740D01*
X2793180Y579246D02*
X2808420D01*
Y611547D01*
X2772250Y105256D02*
X2912240D01*
Y245251D01*
Y295756D02*
Y435750D01*
X2772250Y245251D02*
X2912240D01*
X2772250Y295756D02*
X2912240D01*
X2772250D02*
Y435750D01*
X2721740Y295756D02*
Y435750D01*
X2581750Y105256D02*
X2721740D01*
X2581750Y245251D02*
X2721740D01*
X2581750Y295756D02*
X2721740D01*
X2772250Y105256D02*
Y245251D01*
X2721740Y105256D02*
Y245251D01*
X2531240Y295756D02*
Y435750D01*
X2587670Y478747D02*
Y488558D01*
X2581750Y295756D02*
Y435750D01*
X2570420Y488558D02*
X2587670D01*
X2570420D02*
Y551257D01*
X2562180D02*
X2570420D01*
Y579246D02*
Y611547D01*
X2562180Y551257D02*
Y579246D01*
X2483620Y486258D02*
Y626251D01*
X2391250Y435750D02*
X2531240D01*
X2562180Y579246D02*
X2570420D01*
X2391250Y105256D02*
Y245251D01*
X2581750Y105256D02*
Y245251D01*
X2391250D02*
X2531240D01*
Y105256D02*
Y245251D01*
X2391250Y295756D02*
X2531240D01*
X2391250Y105256D02*
X2531240D01*
X2200750Y295756D02*
X2340740D01*
X2200750Y435750D02*
X2340740D01*
X2391250Y295756D02*
Y435750D01*
X2340740Y295756D02*
Y435750D01*
X2200750Y295756D02*
Y435750D01*
X2153120Y486258D02*
X2293120D01*
X2343620D02*
Y626251D01*
X2293120Y486258D02*
Y626251D01*
X2153120Y486258D02*
Y626251D01*
X2293120D01*
X1578740Y867258D02*
Y1007251D01*
X1438750Y867258D02*
X1578740D01*
X1534000Y816751D02*
X1673990D01*
X1438750Y1007251D02*
X1578740D01*
X80001Y1032495D02*
X2937500D01*
X1534000Y676758D02*
X1673990D01*
X1534000D02*
Y816751D01*
X1391120Y626251D02*
X1531120D01*
X1483490Y676758D02*
Y816751D01*
X2343620Y486258D02*
X2483620D01*
X1578740Y295756D02*
Y435750D01*
X1438750Y295756D02*
X1578740D01*
X1438750D02*
Y435750D01*
X1319670Y245251D02*
X1459680D01*
X1319670Y198246D02*
Y245251D01*
X1248230Y295756D02*
X1388240D01*
X1319670Y105256D02*
X1459680D01*
X923431Y198246D02*
X1319670D01*
X1057733Y295756D02*
Y435750D01*
X1007240Y295756D02*
Y435750D01*
X1057733Y295756D02*
X1197740D01*
X867247D02*
X1007240D01*
X923431Y198246D02*
Y230548D01*
Y107558D02*
Y152261D01*
X906176Y107558D02*
X923431D01*
X906176Y230548D02*
X923431D01*
Y152261D02*
X1319670D01*
X80001Y79997D02*
Y1032495D01*
X906176Y97746D02*
Y107558D01*
X873170Y239767D02*
X906176D01*
X873170Y97746D02*
X906176D01*
X873170D02*
Y107558D01*
Y230548D02*
Y239767D01*
X867247Y295756D02*
Y435750D01*
X855920Y107558D02*
X873170D01*
X855920Y230548D02*
X873170D01*
X855920Y198246D02*
Y230548D01*
Y107558D02*
Y170258D01*
X847679Y198246D02*
X855920D01*
X847679Y170258D02*
X855920D01*
X847679D02*
Y198246D01*
X816740Y295756D02*
Y435750D01*
X906176Y230548D02*
Y239767D01*
X2200750Y245251D02*
X2340740D01*
Y105256D02*
Y245251D01*
X2200750Y105256D02*
X2340740D01*
X80001Y79997D02*
X2937500D01*
X1459680Y105256D02*
Y152261D01*
Y198246D02*
Y245251D01*
X605310D02*
X745303D01*
Y105256D02*
Y245251D01*
X605310Y105256D02*
Y245251D01*
Y105256D02*
X745303D01*
X200497Y435750D02*
X340491D01*
Y388746D02*
Y435750D01*
X405990Y421048D02*
Y430268D01*
X372999Y421048D02*
Y430268D01*
X355746Y421048D02*
X372999D01*
X355746Y388746D02*
Y421048D01*
X340491Y388746D02*
X355746D01*
X372999Y430268D02*
X405990D01*
X340491Y342747D02*
X355746D01*
X626240Y295756D02*
Y435750D01*
X676747Y295756D02*
Y435750D01*
X816740D01*
X676747Y295756D02*
X816740D01*
X507178Y105256D02*
Y245251D01*
X367170D02*
X507178D01*
X372999Y288246D02*
X405990D01*
Y298058D01*
X367170Y105256D02*
X507178D01*
X423243Y298058D02*
Y360758D01*
X405990Y298058D02*
X423243D01*
X200497Y388746D02*
Y435750D01*
X185242Y388746D02*
X200497D01*
X185242D02*
Y421048D01*
X167988D02*
X185242D01*
X167988D02*
Y430268D01*
X134999D02*
X167988D01*
X134999Y421048D02*
Y430268D01*
X117746Y421048D02*
X134999D01*
X117746Y388746D02*
Y421048D01*
X109491Y388746D02*
X117746D01*
X109491Y360758D02*
X117746D01*
X109491D02*
Y388746D01*
X185242Y342747D02*
X200497D01*
X438622Y486258D02*
X578615D01*
X176670D02*
X316679D01*
X486247Y435750D02*
X626240D01*
X629122Y486258D02*
X769115D01*
X200497Y295756D02*
X340491D01*
X269054Y105256D02*
Y245251D01*
X355746Y298058D02*
Y342747D01*
X340491Y295756D02*
Y342747D01*
X372999Y288246D02*
Y298058D01*
X355746D02*
X372999D01*
X200497Y295756D02*
Y342747D01*
X367170Y105256D02*
Y245251D01*
X185242Y298058D02*
Y342747D01*
X167988Y298058D02*
X185242D01*
X129059Y105256D02*
X269054D01*
X167988Y288246D02*
Y298058D01*
X134999Y288246D02*
X167988D01*
X129059Y245251D02*
X269054D01*
X134999Y288246D02*
Y298058D01*
X129059Y105256D02*
Y245251D01*
X117746Y298058D02*
X134999D01*
X117746D02*
Y360758D01*
X486247Y295756D02*
X626240D01*
X486247D02*
Y435750D01*
X431497Y360758D02*
Y388746D01*
X423243D02*
X431497D01*
X423243Y360758D02*
X431497D01*
X423243Y388746D02*
Y421048D01*
X405990D02*
X423243D01*
X2858680Y488558D02*
X2875930D01*
X2772250Y435750D02*
X2912240D01*
X2825670Y478747D02*
X2858680D01*
X2825670D02*
Y488558D01*
X2858680Y478747D02*
Y488558D01*
X2808420D02*
X2825670D01*
X2637930D02*
Y533248D01*
X2653170D01*
X2620660Y488558D02*
X2637930D01*
X2620660Y478747D02*
Y488558D01*
X2587670Y478747D02*
X2620660D01*
X2637930Y579246D02*
X2653170D01*
X2637930D02*
Y611547D01*
X2899740Y960246D02*
Y992547D01*
Y869558D02*
Y932257D01*
X2882490Y992547D02*
X2899740D01*
X2882490D02*
Y1001768D01*
X2849500Y992547D02*
Y1001768D01*
X2832250Y992547D02*
X2849500D01*
X2832250Y960246D02*
Y992547D01*
Y869558D02*
Y914248D01*
X2816990Y960246D02*
X2832250D01*
X2816990Y914248D02*
X2832250D01*
X2849500Y1001768D02*
X2882490D01*
X2899740Y932257D02*
X2908000D01*
X2825670Y620754D02*
X2858680D01*
X2825670Y611547D02*
Y620754D01*
X2808420Y611547D02*
X2825670D01*
X2858680D02*
X2875930D01*
X2858680D02*
Y620754D01*
X2882490Y859747D02*
Y869558D01*
X2832250D02*
X2849500D01*
X2816990Y867258D02*
Y914248D01*
X2849500Y859747D02*
X2882490D01*
X2849500D02*
Y869558D01*
X2875930Y488558D02*
Y551257D01*
Y579246D02*
Y611547D01*
X2864620Y676758D02*
Y816751D01*
X2884170Y551257D02*
Y579246D01*
X2875930D02*
X2884170D01*
X2875930Y551257D02*
X2884170D01*
X2937500Y79997D02*
X2937500Y1032495D01*
X2882490Y869558D02*
X2899740D01*
X2908000Y932257D02*
Y960246D01*
X2899740D02*
X2908000D01*
X2150240Y867258D02*
Y1007251D01*
X2010250D02*
X2150240D01*
X2010250Y867258D02*
X2150240D01*
X2105500Y816751D02*
X2245490D01*
X2200750Y867258D02*
Y1007251D01*
X2105500Y676758D02*
X2245490D01*
X2296000D02*
Y816751D01*
X2245490Y676758D02*
Y816751D01*
X2296000Y676758D02*
X2435990D01*
X2343620Y626251D02*
X2483620D01*
X2105500Y676758D02*
Y816751D01*
X2340740Y867258D02*
Y1007251D01*
X2391250Y867258D02*
Y1007251D01*
X2200750D02*
X2340740D01*
X2200750Y867258D02*
X2340740D01*
X2296000Y816751D02*
X2435990D01*
X1819750Y1007251D02*
X1959740D01*
X1819750Y867258D02*
X1959740D01*
X2010250D02*
Y1007251D01*
X1915000Y816751D02*
X2054990D01*
X1959740Y867258D02*
Y1007251D01*
X2054990Y676758D02*
Y816751D01*
X1915000Y676758D02*
X2054990D01*
X1962620Y626251D02*
X2102620D01*
X1915000Y676758D02*
Y816751D01*
X1864490Y676758D02*
Y816751D01*
X1724500Y676758D02*
Y816751D01*
X1673990Y676758D02*
Y816751D01*
X1724500Y676758D02*
X1864490D01*
X1724500Y816751D02*
X1864490D01*
X1629250Y1007251D02*
X1769240D01*
Y867258D02*
Y1007251D01*
X1819750Y867258D02*
Y1007251D01*
X1629250Y867258D02*
X1769240D01*
X1629250D02*
Y1007251D01*
X1343500Y676758D02*
Y816751D01*
X1483490D01*
X1153000Y676758D02*
X1292990D01*
X1248230Y867258D02*
X1388240D01*
Y1007251D01*
X1438750Y867258D02*
Y1007251D01*
X1057733Y867258D02*
X1197740D01*
X1248230D02*
Y1007251D01*
X1197740Y867258D02*
Y1007251D01*
X1057733Y867258D02*
Y1007251D01*
X1197740D01*
X962497Y816751D02*
X1102490D01*
X1153000Y676758D02*
Y816751D01*
X1102490Y676758D02*
Y816751D01*
X1292990Y676758D02*
Y816751D01*
X1153000D02*
X1292990D01*
X1340620Y486258D02*
Y626251D01*
X1200620Y486258D02*
X1340620D01*
X1200620D02*
Y626251D01*
X1340620D01*
X819622D02*
X959615D01*
X771997Y676758D02*
X911990D01*
X962497D02*
Y816751D01*
X771997Y676758D02*
Y816751D01*
X911990Y676758D02*
Y816751D01*
X867247Y1007251D02*
X1007240D01*
X867247Y867258D02*
X1007240D01*
X867247D02*
Y1007251D01*
X1007240Y867258D02*
Y1007251D01*
X816740Y867258D02*
Y1007251D01*
X771997Y816751D02*
X911990D01*
X1248230Y1007251D02*
X1388240D01*
X1343500Y676758D02*
X1483490D01*
X1438750Y435750D02*
X1578740D01*
X1391120Y486258D02*
X1531120D01*
Y626251D01*
X1391120Y486258D02*
Y626251D01*
X819622Y486258D02*
X959615D01*
X819622D02*
Y626251D01*
X1010122D02*
X1150120D01*
X962497Y676758D02*
X1102490D01*
X959615Y486258D02*
Y626251D01*
X1010122Y486258D02*
X1150120D01*
X1010122D02*
Y626251D01*
X1150120Y486258D02*
Y626251D01*
X867247Y435750D02*
X1007240D01*
X1248230D02*
X1388240D01*
X1057733D02*
X1197740D01*
X769115Y486258D02*
Y626251D01*
X629122D02*
X769115D01*
X629122Y486258D02*
Y626251D01*
X676747Y1007251D02*
X816740D01*
X676747Y867258D02*
X816740D01*
X486247D02*
X626240D01*
X721490Y676758D02*
Y816751D01*
X530990Y676758D02*
Y816751D01*
X581497Y676758D02*
X721490D01*
X581497D02*
Y816751D01*
X721490D01*
X316679Y486258D02*
Y626251D01*
X390997Y676758D02*
Y816751D01*
X578615Y486258D02*
Y626251D01*
X438622D02*
X578615D01*
X438622Y486258D02*
Y626251D01*
X390997Y676758D02*
X530990D01*
X1388240Y295756D02*
Y435750D01*
X1319670Y105256D02*
Y152261D01*
X1248230Y295756D02*
Y435750D01*
X1197740Y295756D02*
Y435750D01*
X152872Y816751D02*
X292867D01*
X245242Y867258D02*
Y1007251D01*
X105246D02*
X245242D01*
X105246Y867258D02*
X245242D01*
X486247Y1007251D02*
X626240D01*
X676747Y867258D02*
Y1007251D01*
X626240Y867258D02*
Y1007251D01*
X486247Y867258D02*
Y1007251D01*
X176670Y626251D02*
X316679D01*
X152872Y676758D02*
X292867D01*
Y816751D01*
X152872Y676758D02*
Y816751D01*
X176670Y486258D02*
Y626251D01*
X105246Y867258D02*
Y1007251D01*
X390997Y816751D02*
X530990D01*
X295747Y867258D02*
X435740D01*
Y1007251D01*
X295747Y867258D02*
Y1007251D01*
X435740D01*
M02*
