G04*
G04 #@! TF.GenerationSoftware,Altium Limited,Altium Designer,22.10.1 (41)*
G04*
G04 Layer_Color=7058166*
%FSLAX44Y44*%
%MOMM*%
G71*
G04*
G04 #@! TF.SameCoordinates,43F64E9B-3785-48AA-9826-90990096846F*
G04*
G04*
G04 #@! TF.FilePolarity,Positive*
G04*
G01*
G75*
%ADD10C,0.2540*%
G36*
X3354520Y1131750D02*
X3355460Y1131632D01*
X3356401Y1131280D01*
X3357341Y1130927D01*
X3358400Y1130339D01*
X3359340Y1129633D01*
X3359458Y1129516D01*
X3359693Y1129281D01*
X3360163Y1128810D01*
X3360634Y1128223D01*
X3360986Y1127400D01*
X3361457Y1126459D01*
X3361692Y1125401D01*
X3361809Y1124225D01*
Y1124107D01*
Y1123637D01*
X3361692Y1123049D01*
X3361457Y1122226D01*
X3361221Y1121403D01*
X3360751Y1120462D01*
X3360163Y1119522D01*
X3359340Y1118699D01*
X3359223Y1118581D01*
X3358870Y1118346D01*
X3358400Y1117993D01*
X3357577Y1117641D01*
X3356754Y1117288D01*
X3355578Y1116935D01*
X3354402Y1116700D01*
X3352991Y1116582D01*
X3352403D01*
X3351698Y1116700D01*
X3350875Y1116818D01*
X3349934Y1117053D01*
X3348876Y1117523D01*
X3347818Y1117993D01*
X3346877Y1118699D01*
X3346760Y1118816D01*
X3346524Y1119052D01*
X3346172Y1119639D01*
X3345701Y1120227D01*
X3345231Y1121050D01*
X3344878Y1121991D01*
X3344643Y1123049D01*
X3344525Y1124225D01*
Y1124342D01*
Y1124813D01*
X3344643Y1125401D01*
X3344878Y1126224D01*
X3345114Y1127047D01*
X3345584Y1127987D01*
X3346172Y1128928D01*
X3346995Y1129751D01*
X3347112Y1129869D01*
X3347465Y1130104D01*
X3347935Y1130456D01*
X3348758Y1130809D01*
X3349581Y1131162D01*
X3350640Y1131515D01*
X3351933Y1131750D01*
X3353226Y1131867D01*
X3353814D01*
X3354520Y1131750D01*
D02*
G37*
G36*
X3491379Y1148563D02*
X3503372D01*
Y1139863D01*
X3491379D01*
Y1126694D01*
X3494553Y1130574D01*
X3494671D01*
X3494789Y1130339D01*
X3495494Y1129751D01*
X3496435Y1128693D01*
X3497845Y1127282D01*
X3499492Y1125518D01*
X3501373Y1123402D01*
X3503372Y1121050D01*
X3504312Y1119912D01*
Y1117170D01*
X3499139Y1112467D01*
Y1112585D01*
X3498904Y1112702D01*
X3498316Y1113408D01*
X3497493Y1114584D01*
X3496435Y1115995D01*
X3495141Y1117758D01*
X3493848Y1119522D01*
X3492555Y1121521D01*
X3491379Y1123520D01*
Y1070845D01*
X3482208D01*
Y1121873D01*
X3482090Y1121285D01*
X3481855Y1120462D01*
X3481620Y1119404D01*
X3481267Y1118111D01*
X3480914Y1116582D01*
X3480327Y1114936D01*
X3479739Y1113055D01*
X3478328Y1109057D01*
X3476447Y1104825D01*
X3474213Y1100592D01*
X3472919Y1098593D01*
X3471508Y1096712D01*
X3471391Y1096947D01*
X3471156Y1097535D01*
X3470803Y1098476D01*
X3470333Y1099769D01*
X3469745Y1101180D01*
X3469157Y1102826D01*
X3467746Y1106236D01*
X3467863Y1106471D01*
X3468216Y1106941D01*
X3468687Y1107882D01*
X3469392Y1109057D01*
X3470215Y1110586D01*
X3471156Y1112350D01*
X3472214Y1114349D01*
X3473390Y1116582D01*
X3474565Y1119052D01*
X3475741Y1121638D01*
X3476917Y1124460D01*
X3478093Y1127282D01*
X3480327Y1133513D01*
X3481385Y1136688D01*
X3482208Y1139863D01*
X3468451D01*
Y1148563D01*
X3482208D01*
Y1167258D01*
X3491379D01*
Y1148563D01*
D02*
G37*
G36*
X3277742Y1083661D02*
X3262928D01*
Y1123637D01*
Y1123755D01*
Y1123990D01*
Y1124342D01*
Y1124813D01*
Y1125401D01*
Y1126106D01*
X3263045Y1127870D01*
Y1129986D01*
X3263163Y1132338D01*
X3263280Y1135042D01*
X3263515Y1137864D01*
X3263045D01*
Y1137746D01*
Y1137629D01*
X3262928Y1136923D01*
X3262692Y1135747D01*
X3262457Y1134454D01*
X3262104Y1133043D01*
X3261752Y1131515D01*
X3261399Y1130221D01*
X3261046Y1129046D01*
X3245291Y1083661D01*
X3233063D01*
X3217072Y1128575D01*
Y1128693D01*
X3216955Y1129046D01*
X3216837Y1129516D01*
X3216602Y1130456D01*
X3216249Y1131632D01*
X3215897Y1133278D01*
X3215779Y1134219D01*
X3215544Y1135395D01*
X3215191Y1136571D01*
X3214956Y1137864D01*
X3214603D01*
Y1137746D01*
Y1137393D01*
Y1136923D01*
X3214721Y1136218D01*
Y1135395D01*
X3214839Y1134336D01*
Y1133278D01*
X3214956Y1131985D01*
Y1129281D01*
X3215074Y1126459D01*
X3215191Y1123402D01*
Y1120580D01*
Y1083661D01*
X3201670D01*
Y1150444D01*
X3223657D01*
X3237296Y1110821D01*
X3237413Y1110586D01*
X3237531Y1109998D01*
X3237884Y1109057D01*
X3238236Y1107882D01*
X3238589Y1106471D01*
X3238942Y1104825D01*
X3239294Y1103061D01*
X3239647Y1101298D01*
X3240000D01*
Y1101415D01*
X3240117Y1101533D01*
X3240235Y1102238D01*
X3240470Y1103296D01*
X3240823Y1104590D01*
X3241176Y1106118D01*
X3241646Y1107647D01*
X3242116Y1109293D01*
X3242587Y1110939D01*
X3256343Y1150444D01*
X3277742D01*
Y1083661D01*
D02*
G37*
G36*
X3560984Y1135277D02*
X3543465D01*
Y1123402D01*
X3558868D01*
Y1114936D01*
X3543465D01*
Y1102121D01*
X3562983D01*
Y1093655D01*
X3514777D01*
Y1102121D01*
X3534294D01*
Y1114936D01*
X3518892D01*
Y1123402D01*
X3534294D01*
Y1135277D01*
X3517245D01*
Y1143743D01*
X3560984D01*
Y1135277D01*
D02*
G37*
G36*
X3324067Y1083661D02*
X3309370D01*
Y1135395D01*
X3309135Y1135160D01*
X3308547Y1134689D01*
X3307724Y1133984D01*
X3306548Y1133278D01*
X3306431D01*
X3306313Y1133161D01*
X3305960Y1132926D01*
X3305490Y1132690D01*
X3304314Y1132103D01*
X3303021Y1131515D01*
X3302903D01*
X3302668Y1131397D01*
X3302316Y1131280D01*
X3301845Y1131044D01*
X3300552Y1130692D01*
X3299141Y1130221D01*
X3299023D01*
X3298788Y1130104D01*
X3298435D01*
X3297965Y1129986D01*
X3296672Y1129751D01*
X3295261Y1129516D01*
Y1141979D01*
X3295379D01*
X3295496Y1142097D01*
X3296201Y1142332D01*
X3297260Y1142684D01*
X3298671Y1143155D01*
X3300317Y1143743D01*
X3302198Y1144448D01*
X3305960Y1146212D01*
X3306078D01*
X3306196Y1146329D01*
X3306783Y1146682D01*
X3307842Y1147152D01*
X3309017Y1147858D01*
X3310546Y1148798D01*
X3312074Y1149739D01*
X3315249Y1151973D01*
X3324067D01*
Y1083661D01*
D02*
G37*
G36*
X3354520Y1097653D02*
X3355460Y1097535D01*
X3356401Y1097300D01*
X3357341Y1096830D01*
X3358400Y1096359D01*
X3359340Y1095654D01*
X3359458Y1095536D01*
X3359693Y1095301D01*
X3360163Y1094831D01*
X3360634Y1094125D01*
X3360986Y1093420D01*
X3361457Y1092479D01*
X3361692Y1091303D01*
X3361809Y1090128D01*
Y1090010D01*
Y1089540D01*
X3361692Y1088952D01*
X3361457Y1088129D01*
X3361221Y1087306D01*
X3360751Y1086365D01*
X3360163Y1085425D01*
X3359340Y1084602D01*
X3359223Y1084484D01*
X3358870Y1084249D01*
X3358400Y1084014D01*
X3357577Y1083661D01*
X3356754Y1083191D01*
X3355578Y1082955D01*
X3354402Y1082720D01*
X3352991Y1082603D01*
X3352403D01*
X3351698Y1082720D01*
X3350875Y1082838D01*
X3349934Y1083073D01*
X3348876Y1083543D01*
X3347818Y1084014D01*
X3346877Y1084719D01*
X3346760Y1084837D01*
X3346524Y1085072D01*
X3346172Y1085542D01*
X3345701Y1086248D01*
X3345231Y1087071D01*
X3344878Y1087894D01*
X3344643Y1088952D01*
X3344525Y1090128D01*
Y1090245D01*
Y1090716D01*
X3344643Y1091303D01*
X3344878Y1092126D01*
X3345114Y1092950D01*
X3345584Y1093890D01*
X3346172Y1094831D01*
X3346995Y1095654D01*
X3347112Y1095771D01*
X3347465Y1096006D01*
X3347935Y1096359D01*
X3348758Y1096712D01*
X3349581Y1097065D01*
X3350640Y1097418D01*
X3351933Y1097653D01*
X3353226Y1097770D01*
X3353814D01*
X3354520Y1097653D01*
D02*
G37*
G36*
X3563101Y1152443D02*
X3513718D01*
Y1083779D01*
X3564394D01*
Y1074960D01*
X3504312D01*
Y1117170D01*
X3505605Y1118346D01*
X3504312Y1119912D01*
Y1161379D01*
X3563101D01*
Y1152443D01*
D02*
G37*
G36*
X3391321Y1147623D02*
X3404372D01*
Y1139157D01*
X3391321D01*
Y1126577D01*
X3393672Y1130104D01*
X3393790Y1129986D01*
X3394025Y1129751D01*
X3394378Y1129398D01*
X3394966Y1128928D01*
X3395554Y1128340D01*
X3396377Y1127635D01*
X3398023Y1125989D01*
X3400022Y1124107D01*
X3402138Y1121991D01*
X3404254Y1119875D01*
X3405665Y1118381D01*
Y1117148D01*
X3406253Y1117758D01*
X3405665Y1118381D01*
Y1159145D01*
X3409781D01*
X3412014Y1159263D01*
X3414601D01*
X3417776Y1159380D01*
X3421186Y1159615D01*
X3425066Y1159851D01*
X3429298Y1160086D01*
X3433766Y1160439D01*
X3438705Y1160791D01*
X3443760Y1161379D01*
X3449169Y1161967D01*
X3454930Y1162555D01*
X3460809Y1163378D01*
X3463748Y1153972D01*
X3463395D01*
X3463043Y1153854D01*
X3462455D01*
X3461749Y1153737D01*
X3460927D01*
X3459986Y1153619D01*
X3458928Y1153502D01*
X3456458Y1153266D01*
X3453637Y1153031D01*
X3450345Y1152679D01*
X3446817Y1152443D01*
X3443055Y1152091D01*
X3439175Y1151738D01*
X3435060Y1151503D01*
X3430945Y1151150D01*
X3422596Y1150680D01*
X3418481Y1150562D01*
X3414601Y1150444D01*
Y1136923D01*
X3459280D01*
Y1130221D01*
Y1130104D01*
Y1129986D01*
X3459163Y1129633D01*
X3459045Y1129281D01*
X3458810Y1128105D01*
X3458457Y1126577D01*
X3457987Y1124695D01*
X3457399Y1122579D01*
X3456576Y1120110D01*
X3455753Y1117523D01*
X3454695Y1114819D01*
X3453637Y1111879D01*
X3452343Y1108940D01*
X3450932Y1106001D01*
X3449286Y1103061D01*
X3447640Y1100122D01*
X3445759Y1097300D01*
X3443643Y1094713D01*
X3443760Y1094596D01*
X3443995Y1094361D01*
X3444466Y1093890D01*
X3445171Y1093302D01*
X3445994Y1092597D01*
X3447052Y1091774D01*
X3448228Y1090833D01*
X3449521Y1089893D01*
X3451050Y1088717D01*
X3452696Y1087659D01*
X3454460Y1086365D01*
X3456341Y1085190D01*
X3458457Y1083896D01*
X3460574Y1082720D01*
X3465277Y1080251D01*
X3465042Y1080016D01*
X3464571Y1079428D01*
X3463748Y1078488D01*
X3462808Y1077312D01*
X3461749Y1075901D01*
X3460574Y1074608D01*
X3459515Y1073197D01*
X3458457Y1071903D01*
X3458340Y1072021D01*
X3457987Y1072256D01*
X3457399Y1072609D01*
X3456576Y1073079D01*
X3455635Y1073785D01*
X3454460Y1074608D01*
X3453166Y1075548D01*
X3451755Y1076489D01*
X3448581Y1078958D01*
X3445171Y1081780D01*
X3441526Y1084954D01*
X3437999Y1088482D01*
X3437881Y1088364D01*
X3437646Y1088129D01*
X3437058Y1087659D01*
X3436353Y1086953D01*
X3435530Y1086130D01*
X3434354Y1085190D01*
X3433061Y1084131D01*
X3431532Y1082955D01*
X3429886Y1081662D01*
X3428005Y1080251D01*
X3425889Y1078840D01*
X3423654Y1077312D01*
X3421186Y1075666D01*
X3418481Y1074137D01*
X3415659Y1072491D01*
X3412603Y1070845D01*
X3412485Y1070963D01*
X3412132Y1071433D01*
X3411662Y1072139D01*
X3411074Y1073079D01*
X3410251Y1074255D01*
X3409193Y1075666D01*
X3408134Y1077077D01*
X3406959Y1078723D01*
X3407194Y1078840D01*
X3407664Y1079075D01*
X3408487Y1079428D01*
X3409663Y1080016D01*
X3411074Y1080722D01*
X3412603Y1081545D01*
X3414366Y1082485D01*
X3416247Y1083543D01*
X3420363Y1085895D01*
X3424595Y1088599D01*
X3428710Y1091539D01*
X3430592Y1093067D01*
X3432355Y1094596D01*
X3432238Y1094713D01*
X3431885Y1095183D01*
X3431297Y1096006D01*
X3430592Y1096947D01*
X3429769Y1098241D01*
X3428710Y1099887D01*
X3427652Y1101650D01*
X3426594Y1103767D01*
X3425418Y1106118D01*
X3424243Y1108705D01*
X3423067Y1111527D01*
X3421891Y1114466D01*
X3420950Y1117758D01*
X3420010Y1121168D01*
X3419187Y1124813D01*
X3418599Y1128575D01*
X3414601D01*
Y1113996D01*
Y1113878D01*
Y1113643D01*
Y1113290D01*
Y1112820D01*
Y1112114D01*
X3414484Y1111409D01*
X3414366Y1109528D01*
X3414131Y1107176D01*
X3413778Y1104590D01*
X3413190Y1101650D01*
X3412603Y1098476D01*
X3411662Y1095066D01*
X3410604Y1091539D01*
X3409310Y1087894D01*
X3407664Y1084249D01*
X3405783Y1080722D01*
X3403667Y1077194D01*
X3401080Y1073785D01*
X3398258Y1070610D01*
X3398141Y1070728D01*
X3397670Y1071198D01*
X3397082Y1071903D01*
X3396377Y1072844D01*
X3395436Y1074020D01*
X3394378Y1075195D01*
X3392262Y1077782D01*
X3392379Y1077900D01*
X3392850Y1078370D01*
X3393555Y1079193D01*
X3394378Y1080369D01*
X3395319Y1081662D01*
X3396494Y1083426D01*
X3397670Y1085425D01*
X3398964Y1087659D01*
X3400257Y1090128D01*
X3401432Y1092950D01*
X3402608Y1096006D01*
X3403549Y1099299D01*
X3404490Y1102826D01*
X3405078Y1106706D01*
X3405548Y1110704D01*
X3405665Y1114936D01*
Y1117148D01*
X3400139Y1111409D01*
X3400022Y1111527D01*
X3399904Y1111644D01*
X3399199Y1112350D01*
X3398141Y1113525D01*
X3396965Y1114936D01*
X3395554Y1116582D01*
X3394025Y1118346D01*
X3392614Y1120110D01*
X3391321Y1121991D01*
Y1071080D01*
X3382503D01*
Y1122344D01*
X3382385Y1121873D01*
X3382150Y1121050D01*
X3381915Y1119875D01*
X3381562Y1118581D01*
X3381092Y1116935D01*
X3380622Y1115172D01*
X3379916Y1113290D01*
X3379211Y1111174D01*
X3378387Y1109057D01*
X3376389Y1104707D01*
X3374037Y1100357D01*
X3372626Y1098358D01*
X3371098Y1096359D01*
X3370980Y1096594D01*
X3370745Y1097182D01*
X3370392Y1098123D01*
X3369922Y1099416D01*
X3369334Y1100827D01*
X3368629Y1102473D01*
X3367218Y1106001D01*
X3367336Y1106236D01*
X3367688Y1106706D01*
X3368276Y1107647D01*
X3368982Y1108822D01*
X3369804Y1110351D01*
X3370863Y1112114D01*
X3371921Y1114113D01*
X3373097Y1116230D01*
X3374272Y1118699D01*
X3375448Y1121285D01*
X3376742Y1123990D01*
X3377917Y1126929D01*
X3380034Y1132926D01*
X3380974Y1135983D01*
X3381797Y1139157D01*
X3367923D01*
Y1147623D01*
X3382503D01*
Y1166435D01*
X3391321D01*
Y1147623D01*
D02*
G37*
%LPC*%
G36*
X3449639Y1128575D02*
X3426947D01*
Y1128340D01*
X3427064Y1127870D01*
X3427182Y1126929D01*
X3427417Y1125753D01*
X3427770Y1124342D01*
X3428240Y1122696D01*
X3428710Y1120815D01*
X3429298Y1118816D01*
X3430004Y1116582D01*
X3430709Y1114349D01*
X3431650Y1112114D01*
X3432708Y1109763D01*
X3433884Y1107411D01*
X3435177Y1105060D01*
X3436588Y1102826D01*
X3438116Y1100710D01*
X3438234Y1100827D01*
X3438469Y1101180D01*
X3438940Y1101885D01*
X3439410Y1102708D01*
X3440115Y1103767D01*
X3440938Y1105060D01*
X3441761Y1106588D01*
X3442702Y1108352D01*
X3443643Y1110233D01*
X3444583Y1112350D01*
X3445524Y1114701D01*
X3446465Y1117170D01*
X3447405Y1119757D01*
X3448228Y1122579D01*
X3448934Y1125518D01*
X3449639Y1128575D01*
D02*
G37*
%LPD*%
D10*
X267020Y556540D02*
G03*
X267020Y556540I-20000J0D01*
G01*
X195900Y937540D02*
G03*
X195900Y937540I-20000J0D01*
G01*
X2100900D02*
G03*
X2100900Y937540I-20000J0D01*
G01*
X386400D02*
G03*
X386400Y937540I-20000J0D01*
G01*
X576900D02*
G03*
X576900Y937540I-20000J0D01*
G01*
X766130D02*
G03*
X766130Y937540I-20000J0D01*
G01*
X957900D02*
G03*
X957900Y937540I-20000J0D01*
G01*
X1147130D02*
G03*
X1147130Y937540I-20000J0D01*
G01*
X1337630D02*
G03*
X1337630Y937540I-20000J0D01*
G01*
X1529400D02*
G03*
X1529400Y937540I-20000J0D01*
G01*
X1718630D02*
G03*
X1718630Y937540I-20000J0D01*
G01*
X1909130D02*
G03*
X1909130Y937540I-20000J0D01*
G01*
X2433640Y556540D02*
G03*
X2433640Y556540I-20000J0D01*
G01*
X1910400Y366040D02*
G03*
X1910400Y366040I-20000J0D01*
G01*
X2291000Y937540D02*
G03*
X2291000Y937540I-20000J0D01*
G01*
X2100500Y366040D02*
G03*
X2100500Y366040I-20000J0D01*
G01*
X2243140Y556540D02*
G03*
X2243140Y556540I-20000J0D01*
G01*
X2480630Y937540D02*
G03*
X2480630Y937540I-20000J0D01*
G01*
X2385380Y747040D02*
G03*
X2385380Y747040I-20000J0D01*
G01*
X2814640D02*
G03*
X2814640Y747040I-20000J0D01*
G01*
X2575880D02*
G03*
X2575880Y747040I-20000J0D01*
G01*
X528640Y556540D02*
G03*
X528640Y556540I-20000J0D01*
G01*
X2766380Y937540D02*
G03*
X2766380Y937540I-20000J0D01*
G01*
X1338500Y366040D02*
G03*
X1338500Y366040I-20000J0D01*
G01*
X957500D02*
G03*
X957500Y366040I-20000J0D01*
G01*
X2862500D02*
G03*
X2862500Y366040I-20000J0D01*
G01*
X2671130Y175540D02*
G03*
X2671130Y175540I-20000J0D01*
G01*
X909240Y556540D02*
G03*
X909240Y556540I-20000J0D01*
G01*
X2742250D02*
G03*
X2742250Y556540I-20000J0D01*
G01*
X861380Y747040D02*
G03*
X861380Y747040I-20000J0D01*
G01*
X1100140Y556540D02*
G03*
X1100140Y556540I-20000J0D01*
G01*
X2100900Y175540D02*
G03*
X2100900Y175540I-20000J0D01*
G01*
X1290240Y556540D02*
G03*
X1290240Y556540I-20000J0D01*
G01*
X1481140D02*
G03*
X1481140Y556540I-20000J0D01*
G01*
X1813880Y747040D02*
G03*
X1813880Y747040I-20000J0D01*
G01*
X1671640Y556540D02*
G03*
X1671640Y556540I-20000J0D01*
G01*
X1862140D02*
G03*
X1862140Y556540I-20000J0D01*
G01*
X695010Y175540D02*
G03*
X695010Y175540I-20000J0D01*
G01*
X218760D02*
G03*
X218760Y175540I-20000J0D01*
G01*
X2480630D02*
G03*
X2480630Y175540I-20000J0D01*
G01*
X289880Y366040D02*
G03*
X289880Y366040I-20000J0D01*
G01*
X2052640Y556540D02*
G03*
X2052640Y556540I-20000J0D01*
G01*
X2290130Y175540D02*
G03*
X2290130Y175540I-20000J0D01*
G01*
X1718630Y366040D02*
G03*
X1718630Y366040I-20000J0D01*
G01*
X1528130D02*
G03*
X1528130Y366040I-20000J0D01*
G01*
X2004380Y747040D02*
G03*
X2004380Y747040I-20000J0D01*
G01*
X2194880D02*
G03*
X2194880Y747040I-20000J0D01*
G01*
X480380D02*
G03*
X480380Y747040I-20000J0D01*
G01*
X2861230Y175540D02*
G03*
X2861230Y175540I-20000J0D01*
G01*
X2481030Y366040D02*
G03*
X2481030Y366040I-20000J0D01*
G01*
X1051880Y747040D02*
G03*
X1051880Y747040I-20000J0D01*
G01*
X1410020Y175540D02*
G03*
X1410020Y175540I-20000J0D01*
G01*
X719140Y556540D02*
G03*
X719140Y556540I-20000J0D01*
G01*
X1243250Y747040D02*
G03*
X1243250Y747040I-20000J0D01*
G01*
X2671130Y366040D02*
G03*
X2671130Y366040I-20000J0D01*
G01*
X1624650Y747040D02*
G03*
X1624650Y747040I-20000J0D01*
G01*
X1148400Y366040D02*
G03*
X1148400Y366040I-20000J0D01*
G01*
X670880Y747040D02*
G03*
X670880Y747040I-20000J0D01*
G01*
X766530Y366040D02*
G03*
X766530Y366040I-20000J0D01*
G01*
X1432880Y747040D02*
G03*
X1432880Y747040I-20000J0D01*
G01*
X575630Y366040D02*
G03*
X575630Y366040I-20000J0D01*
G01*
X2290130D02*
G03*
X2290130Y366040I-20000J0D01*
G01*
X244160Y747040D02*
G03*
X244160Y747040I-20000J0D01*
G01*
X457520Y175540D02*
G03*
X457520Y175540I-20000J0D01*
G01*
X50000Y100000D02*
G03*
X100000Y50000I50000J0D01*
G01*
X2917500D02*
G03*
X2967500Y100000I0J50000D01*
G01*
X2967500Y1107500D02*
G03*
X2917500Y1157500I-50000J0D01*
G01*
X1619670Y1157500D02*
G03*
X1608750Y1146580I0J-10920D01*
G01*
X1597830Y1135660D02*
G03*
X1608750Y1146580I0J10920D01*
G01*
X1408750D02*
G03*
X1419670Y1135660I10920J0D01*
G01*
X1408750Y1146580D02*
G03*
X1397830Y1157500I-10920J0D01*
G01*
X100000Y1157500D02*
G03*
X50000Y1107500I0J-50000D01*
G01*
X2342520Y254360D02*
G03*
X2342520Y264360I0J5000D01*
G01*
X481810Y264360D02*
G03*
X481810Y254360I0J-5000D01*
G01*
X2486110Y444860D02*
G03*
X2486110Y454860I0J5000D01*
G01*
X434900Y454860D02*
G03*
X434900Y444860I0J-5000D01*
G01*
X387241Y644770D02*
G03*
X387241Y634770I0J-5000D01*
G01*
X2629620D02*
G03*
X2629620Y644770I0J5000D01*
G01*
X386640Y835780D02*
G03*
X386640Y825780I0J-5000D01*
G01*
X2629620D02*
G03*
X2629620Y835780I0J5000D01*
G01*
X230520Y624040D02*
X263520D01*
X230520Y595040D02*
X263520D01*
X230520D02*
Y624040D01*
X263520Y595040D02*
Y624040D01*
X192400Y976040D02*
Y1005040D01*
X159400Y976040D02*
Y1005040D01*
Y976040D02*
X192400D01*
X159400Y1005040D02*
X192400D01*
X2097400Y976040D02*
Y1005040D01*
X2064400Y976040D02*
Y1005040D01*
Y976040D02*
X2097400D01*
X2064400Y1005040D02*
X2097400D01*
X382900Y976040D02*
Y1005040D01*
X349900Y976040D02*
Y1005040D01*
Y976040D02*
X382900D01*
X349900Y1005040D02*
X382900D01*
X573400Y976040D02*
Y1005040D01*
X540400Y976040D02*
Y1005040D01*
Y976040D02*
X573400D01*
X540400Y1005040D02*
X573400D01*
X762630Y976040D02*
Y1005040D01*
X729630Y976040D02*
Y1005040D01*
Y976040D02*
X762630D01*
X729630Y1005040D02*
X762630D01*
X954400Y976040D02*
Y1005040D01*
X921400Y976040D02*
Y1005040D01*
Y976040D02*
X954400D01*
X921400Y1005040D02*
X954400D01*
X1143630Y976040D02*
Y1005040D01*
X1110630Y976040D02*
Y1005040D01*
Y976040D02*
X1143630D01*
X1110630Y1005040D02*
X1143630D01*
X1334130Y976040D02*
Y1005040D01*
X1301130Y976040D02*
Y1005040D01*
Y976040D02*
X1334130D01*
X1301130Y1005040D02*
X1334130D01*
X1525900Y976040D02*
Y1005040D01*
X1492900Y976040D02*
Y1005040D01*
Y976040D02*
X1525900D01*
X1492900Y1005040D02*
X1525900D01*
X1715130Y976040D02*
Y1005040D01*
X1682130Y976040D02*
Y1005040D01*
Y976040D02*
X1715130D01*
X1682130Y1005040D02*
X1715130D01*
X1905630Y976040D02*
Y1005040D01*
X1872630Y976040D02*
Y1005040D01*
Y976040D02*
X1905630D01*
X1872630Y1005040D02*
X1905630D01*
X2430140Y595040D02*
Y624040D01*
X2397140Y595040D02*
Y624040D01*
Y595040D02*
X2430140D01*
X2397140Y624040D02*
X2430140D01*
X1906900Y404540D02*
Y433540D01*
X1873900Y404540D02*
Y433540D01*
Y404540D02*
X1906900D01*
X1873900Y433540D02*
X1906900D01*
X2287500Y976040D02*
Y1005040D01*
X2254500Y976040D02*
Y1005040D01*
Y976040D02*
X2287500D01*
X2254500Y1005040D02*
X2287500D01*
X2097000Y404540D02*
Y433540D01*
X2064000Y404540D02*
Y433540D01*
Y404540D02*
X2097000D01*
X2064000Y433540D02*
X2097000D01*
X2239640Y595040D02*
Y624040D01*
X2206640Y595040D02*
Y624040D01*
Y595040D02*
X2239640D01*
X2206640Y624040D02*
X2239640D01*
X2477130Y976040D02*
Y1005040D01*
X2444130Y976040D02*
Y1005040D01*
Y976040D02*
X2477130D01*
X2444130Y1005040D02*
X2477130D01*
X2381880Y785540D02*
Y814540D01*
X2348880Y785540D02*
Y814540D01*
Y785540D02*
X2381880D01*
X2348880Y814540D02*
X2381880D01*
X2811140Y785540D02*
Y814540D01*
X2778140Y785540D02*
Y814540D01*
Y785540D02*
X2811140D01*
X2778140Y814540D02*
X2811140D01*
X2572380Y785540D02*
Y814540D01*
X2539380Y785540D02*
Y814540D01*
Y785540D02*
X2572380D01*
X2539380Y814540D02*
X2572380D01*
X525140Y595040D02*
Y624040D01*
X492140Y595040D02*
Y624040D01*
Y595040D02*
X525140D01*
X492140Y624040D02*
X525140D01*
X2762880Y976040D02*
Y1005040D01*
X2729880Y976040D02*
Y1005040D01*
Y976040D02*
X2762880D01*
X2729880Y1005040D02*
X2762880D01*
X1335000Y404540D02*
Y433540D01*
X1302000Y404540D02*
Y433540D01*
Y404540D02*
X1335000D01*
X1302000Y433540D02*
X1335000D01*
X954000Y404540D02*
Y433540D01*
X921000Y404540D02*
Y433540D01*
Y404540D02*
X954000D01*
X921000Y433540D02*
X954000D01*
X2859000Y404540D02*
Y433540D01*
X2826000Y404540D02*
Y433540D01*
Y404540D02*
X2859000D01*
X2826000Y433540D02*
X2859000D01*
X2667630Y214040D02*
Y243040D01*
X2634630Y214040D02*
Y243040D01*
Y214040D02*
X2667630D01*
X2634630Y243040D02*
X2667630D01*
X905740Y595040D02*
Y624040D01*
X872740Y595040D02*
Y624040D01*
Y595040D02*
X905740D01*
X872740Y624040D02*
X905740D01*
X2738750Y595040D02*
Y624040D01*
X2705750Y595040D02*
Y624040D01*
Y595040D02*
X2738750D01*
X2705750Y624040D02*
X2738750D01*
X857880Y785540D02*
Y814540D01*
X824880Y785540D02*
Y814540D01*
Y785540D02*
X857880D01*
X824880Y814540D02*
X857880D01*
X1096640Y595040D02*
Y624040D01*
X1063640Y595040D02*
Y624040D01*
Y595040D02*
X1096640D01*
X1063640Y624040D02*
X1096640D01*
X2097400Y214040D02*
Y243040D01*
X2064400Y214040D02*
Y243040D01*
Y214040D02*
X2097400D01*
X2064400Y243040D02*
X2097400D01*
X1286740Y595040D02*
Y624040D01*
X1253740Y595040D02*
Y624040D01*
Y595040D02*
X1286740D01*
X1253740Y624040D02*
X1286740D01*
X1477640Y595040D02*
Y624040D01*
X1444640Y595040D02*
Y624040D01*
Y595040D02*
X1477640D01*
X1444640Y624040D02*
X1477640D01*
X1810380Y785540D02*
Y814540D01*
X1777380Y785540D02*
Y814540D01*
Y785540D02*
X1810380D01*
X1777380Y814540D02*
X1810380D01*
X1668140Y595040D02*
Y624040D01*
X1635140Y595040D02*
Y624040D01*
Y595040D02*
X1668140D01*
X1635140Y624040D02*
X1668140D01*
X1858640Y595040D02*
Y624040D01*
X1825640Y595040D02*
Y624040D01*
Y595040D02*
X1858640D01*
X1825640Y624040D02*
X1858640D01*
X691510Y214040D02*
Y243040D01*
X658510Y214040D02*
Y243040D01*
Y214040D02*
X691510D01*
X658510Y243040D02*
X691510D01*
X215260Y214040D02*
Y243040D01*
X182260Y214040D02*
Y243040D01*
Y214040D02*
X215260D01*
X182260Y243040D02*
X215260D01*
X2477130Y214040D02*
Y243040D01*
X2444130Y214040D02*
Y243040D01*
Y214040D02*
X2477130D01*
X2444130Y243040D02*
X2477130D01*
X286380Y404540D02*
Y433540D01*
X253380Y404540D02*
Y433540D01*
Y404540D02*
X286380D01*
X253380Y433540D02*
X286380D01*
X2049140Y595040D02*
Y624040D01*
X2016140Y595040D02*
Y624040D01*
Y595040D02*
X2049140D01*
X2016140Y624040D02*
X2049140D01*
X2286630Y214040D02*
Y243040D01*
X2253630Y214040D02*
Y243040D01*
Y214040D02*
X2286630D01*
X2253630Y243040D02*
X2286630D01*
X1715130Y404540D02*
Y433540D01*
X1682130Y404540D02*
Y433540D01*
Y404540D02*
X1715130D01*
X1682130Y433540D02*
X1715130D01*
X1524630Y404540D02*
Y433540D01*
X1491630Y404540D02*
Y433540D01*
Y404540D02*
X1524630D01*
X1491630Y433540D02*
X1524630D01*
X2000880Y785540D02*
Y814540D01*
X1967880Y785540D02*
Y814540D01*
Y785540D02*
X2000880D01*
X1967880Y814540D02*
X2000880D01*
X2191380Y785540D02*
Y814540D01*
X2158380Y785540D02*
Y814540D01*
Y785540D02*
X2191380D01*
X2158380Y814540D02*
X2191380D01*
X476880Y785540D02*
Y814540D01*
X443880Y785540D02*
Y814540D01*
Y785540D02*
X476880D01*
X443880Y814540D02*
X476880D01*
X2857730Y214040D02*
Y243040D01*
X2824730Y214040D02*
Y243040D01*
Y214040D02*
X2857730D01*
X2824730Y243040D02*
X2857730D01*
X2477530Y404540D02*
Y433540D01*
X2444530Y404540D02*
Y433540D01*
Y404540D02*
X2477530D01*
X2444530Y433540D02*
X2477530D01*
X1048380Y785540D02*
Y814540D01*
X1015380Y785540D02*
Y814540D01*
Y785540D02*
X1048380D01*
X1015380Y814540D02*
X1048380D01*
X1406520Y214040D02*
Y243040D01*
X1373520Y214040D02*
Y243040D01*
Y214040D02*
X1406520D01*
X1373520Y243040D02*
X1406520D01*
X715640Y595040D02*
Y624040D01*
X682640Y595040D02*
Y624040D01*
Y595040D02*
X715640D01*
X682640Y624040D02*
X715640D01*
X1239750Y785540D02*
Y814540D01*
X1206750Y785540D02*
Y814540D01*
Y785540D02*
X1239750D01*
X1206750Y814540D02*
X1239750D01*
X2667630Y404540D02*
Y433540D01*
X2634630Y404540D02*
Y433540D01*
Y404540D02*
X2667630D01*
X2634630Y433540D02*
X2667630D01*
X1621150Y785540D02*
Y814540D01*
X1588150Y785540D02*
Y814540D01*
Y785540D02*
X1621150D01*
X1588150Y814540D02*
X1621150D01*
X1144900Y404540D02*
Y433540D01*
X1111900Y404540D02*
Y433540D01*
Y404540D02*
X1144900D01*
X1111900Y433540D02*
X1144900D01*
X667380Y785540D02*
Y814540D01*
X634380Y785540D02*
Y814540D01*
Y785540D02*
X667380D01*
X634380Y814540D02*
X667380D01*
X763030Y404540D02*
Y433540D01*
X730030Y404540D02*
Y433540D01*
Y404540D02*
X763030D01*
X730030Y433540D02*
X763030D01*
X1429380Y785540D02*
Y814540D01*
X1396380Y785540D02*
Y814540D01*
Y785540D02*
X1429380D01*
X1396380Y814540D02*
X1429380D01*
X572130Y404540D02*
Y433540D01*
X539130Y404540D02*
Y433540D01*
Y404540D02*
X572130D01*
X539130Y433540D02*
X572130D01*
X2286630Y404540D02*
Y433540D01*
X2253630Y404540D02*
Y433540D01*
Y404540D02*
X2286630D01*
X2253630Y433540D02*
X2286630D01*
X240660Y785540D02*
Y814540D01*
X207660Y785540D02*
Y814540D01*
Y785540D02*
X240660D01*
X207660Y814540D02*
X240660D01*
X454020Y214040D02*
Y243040D01*
X421020Y214040D02*
Y243040D01*
Y214040D02*
X454020D01*
X421020Y243040D02*
X454020D01*
X100000Y50000D02*
X2917500D01*
X2967500Y100000D02*
Y1107500D01*
X1619671Y1157500D02*
X2917500D01*
X1419670Y1135660D02*
X1597830D01*
X100000Y1157500D02*
X1397830D01*
X50000Y100000D02*
Y1107500D01*
X481810Y254360D02*
X2342520D01*
X481810Y264360D02*
X2342520D01*
X434900Y454860D02*
X2486110D01*
X434900Y444860D02*
X2486110D01*
X387241Y644770D02*
X2629620D01*
X387241Y634770D02*
X2629620D01*
X386640Y825780D02*
X2629620D01*
X386640Y835780D02*
X2629620D01*
M02*
