G04*
G04 #@! TF.GenerationSoftware,Altium Limited,Altium Designer,22.10.1 (41)*
G04*
G04 Layer_Color=6740479*
%FSLAX44Y44*%
%MOMM*%
G71*
G04*
G04 #@! TF.SameCoordinates,C522AA7B-F4F4-4EC6-81A6-D5D12569EC36*
G04*
G04*
G04 #@! TF.FilePolarity,Positive*
G04*
G01*
G75*
%ADD10C,0.2540*%
%ADD11C,0.1524*%
G36*
X2431284Y252794D02*
X2442950Y241129D01*
X2442580Y211132D01*
X2408879Y211317D01*
X2408324Y225019D01*
X2402399D01*
X2400362Y224834D01*
X2396103Y224649D01*
X2392585D01*
X2390733Y224464D01*
X2383512D01*
X2382771Y148361D01*
X2411101Y148916D01*
Y149101D01*
Y149842D01*
Y150768D01*
Y152249D01*
Y153730D01*
Y155397D01*
X2411286Y159285D01*
Y159471D01*
Y160211D01*
Y161137D01*
X2411472Y162618D01*
Y164100D01*
Y165951D01*
Y169840D01*
X2392400Y169655D01*
Y198356D01*
X2443505Y198541D01*
X2444061Y129844D01*
X2431840Y119660D01*
X2361477D01*
X2349256Y131510D01*
X2349441Y240758D01*
X2363329Y253165D01*
X2431284Y252794D01*
D02*
G37*
G36*
X2637189D02*
X2635893Y119660D01*
X2607377D01*
X2577566Y181320D01*
Y119660D01*
X2545532D01*
X2546643Y253165D01*
X2573492D01*
X2605341Y190578D01*
Y253165D01*
X2637189Y252794D01*
D02*
G37*
G36*
X2538496Y224649D02*
X2481650D01*
Y200577D01*
X2527571D01*
X2527386Y172988D01*
X2481835Y173173D01*
Y172988D01*
Y172062D01*
Y170766D01*
Y169284D01*
Y167248D01*
Y165211D01*
X2481650Y160582D01*
Y160396D01*
Y159471D01*
Y158360D01*
Y156693D01*
Y154841D01*
Y152619D01*
Y148175D01*
X2537570D01*
X2537755Y119660D01*
X2451838D01*
X2452393Y253165D01*
X2538125D01*
X2538496Y224649D01*
D02*
G37*
G36*
X2722180Y119660D02*
X2691258D01*
X2691443Y224093D01*
X2674778Y224649D01*
Y252609D01*
X2722365Y252979D01*
X2722180Y119660D01*
D02*
G37*
G36*
X2219084D02*
X2189458D01*
X2220195Y253165D01*
X2250933D01*
X2219084Y119660D01*
D02*
G37*
G36*
X2152239D02*
X2122613D01*
X2153350Y253165D01*
X2184088D01*
X2152239Y119660D01*
D02*
G37*
G36*
X2085394D02*
X2055768D01*
X2086505Y253165D01*
X2117243D01*
X2085394Y119660D01*
D02*
G37*
G36*
X2018549D02*
X1988923D01*
X2019660Y253165D01*
X2050398D01*
X2018549Y119660D01*
D02*
G37*
G36*
X1951705D02*
X1922078D01*
X1952816Y253165D01*
X1983553D01*
X1951705Y119660D01*
D02*
G37*
G36*
X1884860D02*
X1855233D01*
X1885971Y253165D01*
X1916708D01*
X1884860Y119660D01*
D02*
G37*
G36*
X1818015D02*
X1788388D01*
X1819126Y253165D01*
X1849863D01*
X1818015Y119660D01*
D02*
G37*
G36*
X1751170D02*
X1721543D01*
X1752281Y253165D01*
X1783018D01*
X1751170Y119660D01*
D02*
G37*
G36*
X1684325D02*
X1654698D01*
X1685436Y253165D01*
X1716173D01*
X1684325Y119660D01*
D02*
G37*
G36*
X1617480D02*
X1587853D01*
X1618591Y253165D01*
X1649328D01*
X1617480Y119660D01*
D02*
G37*
G36*
X1550635D02*
X1521008D01*
X1551746Y253165D01*
X1582484D01*
X1550635Y119660D01*
D02*
G37*
G36*
X1483790D02*
X1454164D01*
X1484901Y253165D01*
X1515639D01*
X1483790Y119660D01*
D02*
G37*
G36*
X1416945D02*
X1387319D01*
X1418056Y253165D01*
X1448794D01*
X1416945Y119660D01*
D02*
G37*
G36*
X1350100D02*
X1320474D01*
X1351211Y253165D01*
X1381949D01*
X1350100Y119660D01*
D02*
G37*
G36*
X1283255D02*
X1253629D01*
X1284366Y253165D01*
X1315104D01*
X1283255Y119660D01*
D02*
G37*
G36*
X1216410D02*
X1186784D01*
X1217521Y253165D01*
X1248259D01*
X1216410Y119660D01*
D02*
G37*
G36*
X1149565D02*
X1119939D01*
X1150676Y253165D01*
X1181414D01*
X1149565Y119660D01*
D02*
G37*
G36*
X1082720D02*
X1053094D01*
X1083831Y253165D01*
X1114569D01*
X1082720Y119660D01*
D02*
G37*
G36*
X1015875D02*
X986249D01*
X1016986Y253165D01*
X1047724D01*
X1015875Y119660D01*
D02*
G37*
G36*
X949031D02*
X919404D01*
X950142Y253165D01*
X980879D01*
X949031Y119660D01*
D02*
G37*
G36*
X882186D02*
X852559D01*
X883297Y253165D01*
X914034D01*
X882186Y119660D01*
D02*
G37*
G36*
X815341D02*
X785714D01*
X816452Y253165D01*
X847189D01*
X815341Y119660D01*
D02*
G37*
G36*
X748496D02*
X718869D01*
X749607Y253165D01*
X780344D01*
X748496Y119660D01*
D02*
G37*
G36*
X681651D02*
X652024D01*
X682762Y253165D01*
X713500D01*
X681651Y119660D01*
D02*
G37*
G36*
X614806D02*
X585179D01*
X615917Y253165D01*
X646655D01*
X614806Y119660D01*
D02*
G37*
G36*
X547961D02*
X518335D01*
X549072Y253165D01*
X579810D01*
X547961Y119660D01*
D02*
G37*
G36*
X481116D02*
X451490D01*
X482227Y253165D01*
X512965D01*
X481116Y119660D01*
D02*
G37*
G36*
X414271D02*
X384645D01*
X415382Y253165D01*
X446120D01*
X414271Y119660D01*
D02*
G37*
G36*
X347426D02*
X317800D01*
X348537Y253165D01*
X379275D01*
X347426Y119660D01*
D02*
G37*
G36*
X280581D02*
X250955D01*
X281692Y253165D01*
X312430D01*
X280581Y119660D01*
D02*
G37*
G36*
X1696899Y89180D02*
X1647820D01*
Y106076D01*
X1696899D01*
Y89180D01*
D02*
G37*
G36*
X1846336Y53122D02*
X1829440D01*
Y85370D01*
X1846336D01*
Y53122D01*
D02*
G37*
G36*
X1820936Y52206D02*
X1804040D01*
Y85370D01*
X1820936D01*
Y52206D01*
D02*
G37*
G36*
X1795479Y58719D02*
X1778640D01*
Y85370D01*
X1795479D01*
Y58719D01*
D02*
G37*
G36*
X1770136Y51600D02*
X1753240D01*
Y85370D01*
X1770136D01*
Y51600D01*
D02*
G37*
G36*
X1719279Y53066D02*
X1702440D01*
Y85370D01*
X1719279D01*
Y53066D01*
D02*
G37*
G36*
X1744694Y53137D02*
X1727840D01*
Y85370D01*
X1744694D01*
Y53137D01*
D02*
G37*
G36*
X1871736Y51374D02*
X1854840D01*
Y85370D01*
X1871736D01*
Y51374D01*
D02*
G37*
G36*
X1927252Y966202D02*
X1990214Y903240D01*
X1988362Y743058D01*
X1804107Y743984D01*
X1802255Y811576D01*
X1779107D01*
X1770774Y810650D01*
X1751330Y809724D01*
X1734664D01*
X1727256Y808798D01*
X1698553D01*
X1694850Y454176D01*
X1814292Y456028D01*
Y456954D01*
Y458805D01*
Y462509D01*
Y468064D01*
Y474546D01*
Y481027D01*
X1815217Y489360D01*
Y498619D01*
Y499545D01*
Y503249D01*
Y507878D01*
X1816143Y513434D01*
Y527322D01*
Y541211D01*
X1722627Y540285D01*
Y698615D01*
X1992066Y700467D01*
X1994843Y349548D01*
X1929104Y294920D01*
X1577260D01*
X1511520Y358807D01*
X1512446Y901388D01*
X1585593Y968054D01*
X1927252Y966202D01*
D02*
G37*
G36*
X2713347D02*
X2705939Y294920D01*
X2550387D01*
X2419834Y597691D01*
Y294920D01*
X2242986D01*
X2248542Y968054D01*
X2395761D01*
X2537424Y661579D01*
Y968054D01*
X2713347Y966202D01*
D02*
G37*
G36*
X2208728Y294920D02*
X2030954D01*
X2031880Y968054D01*
X2212431D01*
X2208728Y294920D01*
D02*
G37*
G36*
X1470780D02*
X1293006D01*
X1293932Y968054D01*
X1474484D01*
X1470780Y294920D01*
D02*
G37*
G36*
X1193009Y966202D02*
X1253193Y907870D01*
X1255044Y671764D01*
X1219860Y614357D01*
X1146713Y578247D01*
X1277266Y294920D01*
X1080974D01*
X997360Y488795D01*
X996716Y487508D01*
X995790Y485657D01*
X993013Y484731D01*
X991161D01*
X987457Y482879D01*
X981902Y481027D01*
X975421Y479175D01*
X973569D01*
X969865Y477323D01*
X965236Y475472D01*
X958754Y472694D01*
X957828D01*
X955051Y471768D01*
X953199Y470842D01*
X952273Y469916D01*
Y295846D01*
X779128D01*
X780980Y968980D01*
X1193009Y966202D01*
D02*
G37*
G36*
X745796Y902314D02*
X746722Y360659D01*
X674501Y294920D01*
X334693D01*
X269880Y363437D01*
X272658Y897685D01*
X346730Y967128D01*
X668020D01*
X745796Y902314D01*
D02*
G37*
%LPC*%
G36*
X1671902Y102111D02*
X1668800D01*
X1668645Y102097D01*
X1668504Y102068D01*
X1668391Y102026D01*
X1668293Y101984D01*
X1668208Y101927D01*
X1668152Y101885D01*
X1668124Y101857D01*
X1668109Y101843D01*
X1668025Y101744D01*
X1667968Y101631D01*
X1667926Y101504D01*
X1667898Y101392D01*
X1667884Y101293D01*
X1667870Y101208D01*
D01*
D01*
Y93131D01*
Y94104D01*
X1667884Y93934D01*
X1667912Y93793D01*
X1667940Y93667D01*
X1667997Y93568D01*
X1668039Y93483D01*
X1668067Y93427D01*
X1668095Y93399D01*
X1668109Y93385D01*
X1668208Y93300D01*
X1668321Y93244D01*
X1668434Y93187D01*
X1668546Y93159D01*
X1668645Y93145D01*
X1668730Y93131D01*
X1671845D01*
X1672113Y93145D01*
X1672353Y93159D01*
X1672592Y93201D01*
X1672804Y93244D01*
X1673015Y93286D01*
X1673199Y93356D01*
X1673368Y93413D01*
X1673523Y93483D01*
X1673650Y93540D01*
X1673777Y93610D01*
X1673875Y93667D01*
X1673960Y93709D01*
X1674030Y93765D01*
X1674073Y93793D01*
X1674101Y93807D01*
X1674115Y93822D01*
X1674256Y93963D01*
X1674397Y94104D01*
X1674495Y94259D01*
X1674594Y94400D01*
X1674679Y94569D01*
X1674749Y94724D01*
X1674848Y95020D01*
X1674904Y95288D01*
X1674918Y95400D01*
X1674932Y95499D01*
X1674946Y95584D01*
Y95696D01*
X1674918Y96021D01*
X1674848Y96303D01*
X1674763Y96556D01*
X1674651Y96782D01*
X1674538Y96951D01*
X1674453Y97078D01*
X1674383Y97163D01*
X1674369Y97191D01*
X1674355D01*
X1674115Y97388D01*
X1673861Y97557D01*
X1673607Y97670D01*
X1673368Y97755D01*
X1673156Y97811D01*
X1673072Y97839D01*
X1672987Y97853D01*
X1672917D01*
X1672874Y97867D01*
X1672832D01*
Y97924D01*
X1673086Y97980D01*
X1673325Y98065D01*
X1673523Y98178D01*
X1673706Y98290D01*
X1673847Y98389D01*
X1673946Y98488D01*
X1674002Y98544D01*
X1674030Y98572D01*
X1674199Y98784D01*
X1674312Y99009D01*
X1674397Y99235D01*
X1674467Y99432D01*
X1674495Y99601D01*
X1674509Y99742D01*
X1674524Y99799D01*
Y99841D01*
Y99855D01*
Y99869D01*
X1674509Y100052D01*
X1674495Y100236D01*
X1674411Y100560D01*
X1674284Y100842D01*
X1674157Y101067D01*
X1674016Y101265D01*
X1673889Y101392D01*
X1673805Y101476D01*
X1673791Y101504D01*
X1673777D01*
X1673636Y101617D01*
X1673480Y101702D01*
X1673156Y101857D01*
X1672818Y101970D01*
X1672508Y102040D01*
X1672212Y102083D01*
X1672085Y102097D01*
X1671986D01*
X1671902Y102111D01*
D02*
G37*
G36*
X1655140D02*
X1652560D01*
X1652405Y102097D01*
X1652265Y102068D01*
X1652152Y102026D01*
X1652053Y101984D01*
X1651968Y101927D01*
X1651912Y101885D01*
X1651884Y101857D01*
X1651870Y101843D01*
X1651785Y101744D01*
X1651729Y101631D01*
X1651687Y101504D01*
X1651658Y101392D01*
X1651644Y101293D01*
X1651630Y101208D01*
Y101392D01*
Y93131D01*
Y94104D01*
X1651644Y93934D01*
X1651672Y93793D01*
X1651701Y93667D01*
X1651757Y93568D01*
X1651799Y93483D01*
X1651828Y93427D01*
X1651856Y93399D01*
X1651870Y93385D01*
X1651968Y93300D01*
X1652081Y93244D01*
X1652194Y93187D01*
X1652307Y93159D01*
X1652405Y93145D01*
X1652490Y93131D01*
X1659341D01*
X1655056D01*
X1655422Y93145D01*
X1655775Y93187D01*
X1656099Y93244D01*
X1656409Y93314D01*
X1656691Y93413D01*
X1656945Y93511D01*
X1657184Y93610D01*
X1657396Y93723D01*
X1657579Y93836D01*
X1657748Y93934D01*
X1657889Y94047D01*
X1658002Y94132D01*
X1658101Y94202D01*
X1658157Y94259D01*
X1658199Y94301D01*
X1658213Y94315D01*
X1658411Y94555D01*
X1658580Y94808D01*
X1658735Y95062D01*
X1658862Y95344D01*
X1658975Y95626D01*
X1659073Y95894D01*
X1659144Y96176D01*
X1659200Y96430D01*
X1659243Y96683D01*
X1659285Y96909D01*
X1659313Y97120D01*
X1659327Y97304D01*
X1659341Y97445D01*
Y97656D01*
X1659327Y98051D01*
X1659299Y98403D01*
X1659243Y98756D01*
X1659172Y99066D01*
X1659073Y99362D01*
X1658989Y99630D01*
X1658876Y99883D01*
X1658777Y100095D01*
X1658679Y100292D01*
X1658566Y100461D01*
X1658481Y100602D01*
X1658397Y100729D01*
X1658312Y100814D01*
X1658256Y100884D01*
X1658228Y100927D01*
X1658213Y100941D01*
X1657988Y101152D01*
X1657748Y101321D01*
X1657509Y101490D01*
X1657241Y101617D01*
X1656987Y101730D01*
X1656719Y101829D01*
X1656465Y101899D01*
X1656212Y101970D01*
X1655972Y102012D01*
X1655760Y102054D01*
X1655563Y102068D01*
X1655394Y102097D01*
X1655253D01*
X1655140Y102111D01*
D02*
G37*
G36*
X1665826D02*
X1661484D01*
X1661329Y102097D01*
X1661188Y102068D01*
X1661075Y102026D01*
X1660976Y101984D01*
X1660892Y101927D01*
X1660835Y101885D01*
X1660807Y101857D01*
X1660793Y101843D01*
X1660709Y101744D01*
X1660652Y101631D01*
X1660610Y101504D01*
X1660582Y101392D01*
X1660568Y101293D01*
X1660553Y101208D01*
D01*
Y93131D01*
Y94104D01*
X1660568Y93934D01*
X1660596Y93793D01*
X1660624Y93667D01*
X1660680Y93568D01*
X1660723Y93483D01*
X1660751Y93427D01*
X1660779Y93399D01*
X1660793Y93385D01*
X1660892Y93300D01*
X1661005Y93244D01*
X1661117Y93187D01*
X1661230Y93159D01*
X1661329Y93145D01*
X1661413Y93131D01*
X1666615D01*
Y93892D01*
X1666601Y94019D01*
X1666573Y94132D01*
X1666545Y94230D01*
X1666502Y94315D01*
X1666446Y94385D01*
X1666418Y94428D01*
X1666390Y94456D01*
X1666376Y94470D01*
X1666291Y94541D01*
X1666178Y94597D01*
X1666080Y94625D01*
X1665981Y94653D01*
X1665896Y94668D01*
X1665826Y94682D01*
X1662428D01*
Y96951D01*
X1665600D01*
X1665727Y96965D01*
X1665840Y96979D01*
X1665939Y97008D01*
X1666009Y97050D01*
X1666080Y97078D01*
X1666122Y97106D01*
X1666150Y97120D01*
X1666164Y97134D01*
X1666235Y97219D01*
X1666291Y97304D01*
X1666333Y97388D01*
X1666362Y97473D01*
X1666376Y97557D01*
X1666390Y97614D01*
Y97656D01*
Y97670D01*
X1666376Y97797D01*
X1666362Y97896D01*
X1666319Y97980D01*
X1666277Y98065D01*
X1666235Y98121D01*
X1666206Y98163D01*
X1666178Y98178D01*
X1666164Y98192D01*
X1666080Y98262D01*
X1665981Y98305D01*
X1665798Y98361D01*
X1665727Y98375D01*
X1665657Y98389D01*
X1662428D01*
Y100560D01*
X1665755D01*
X1665896Y100574D01*
X1666023Y100588D01*
X1666122Y100616D01*
X1666221Y100659D01*
X1666277Y100701D01*
X1666333Y100729D01*
X1666362Y100743D01*
X1666376Y100757D01*
X1666460Y100842D01*
X1666517Y100941D01*
X1666559Y101039D01*
X1666587Y101124D01*
X1666601Y101208D01*
X1666615Y101279D01*
Y99009D01*
Y101363D01*
Y101335D01*
X1666601Y101462D01*
X1666573Y101575D01*
X1666545Y101674D01*
X1666502Y101758D01*
X1666446Y101815D01*
X1666418Y101857D01*
X1666390Y101885D01*
X1666376Y101899D01*
X1666291Y101970D01*
X1666178Y102026D01*
X1666080Y102054D01*
X1665981Y102083D01*
X1665896Y102097D01*
X1665826Y102111D01*
D02*
G37*
G36*
X1689185Y102266D02*
X1689058D01*
X1688691Y102252D01*
X1688353Y102209D01*
X1688029Y102153D01*
X1687733Y102068D01*
X1687451Y101984D01*
X1687197Y101871D01*
X1686957Y101758D01*
X1686746Y101645D01*
X1686548Y101533D01*
X1686379Y101420D01*
X1686238Y101307D01*
X1686125Y101223D01*
X1686041Y101138D01*
X1685970Y101082D01*
X1685928Y101039D01*
X1685914Y101025D01*
X1685717Y100786D01*
X1685533Y100532D01*
X1685378Y100264D01*
X1685251Y99982D01*
X1685139Y99700D01*
X1685054Y99418D01*
X1684969Y99136D01*
X1684913Y98868D01*
X1684871Y98629D01*
X1684828Y98389D01*
X1684814Y98178D01*
X1684786Y97994D01*
Y97853D01*
X1684772Y97741D01*
Y97642D01*
X1684786Y97247D01*
X1684828Y96867D01*
X1684885Y96514D01*
X1684955Y96190D01*
X1685040Y95880D01*
X1685139Y95598D01*
X1685237Y95344D01*
X1685350Y95105D01*
X1685463Y94907D01*
X1685562Y94724D01*
X1685660Y94569D01*
X1685745Y94442D01*
X1685815Y94343D01*
X1685886Y94273D01*
X1685914Y94230D01*
X1685928Y94216D01*
X1686154Y94005D01*
X1686393Y93807D01*
X1686647Y93652D01*
X1686915Y93511D01*
X1687183Y93385D01*
X1687437Y93286D01*
X1687704Y93216D01*
X1687944Y93145D01*
X1688184Y93089D01*
X1688395Y93060D01*
X1688592Y93032D01*
X1688762Y93004D01*
X1688903D01*
X1689015Y92990D01*
X1684772D01*
X1693089D01*
Y96937D01*
X1693075Y97106D01*
X1693047Y97247D01*
X1693005Y97374D01*
X1692962Y97473D01*
X1692920Y97557D01*
X1692878Y97614D01*
X1692850Y97642D01*
X1692836Y97656D01*
X1692737Y97741D01*
X1692624Y97797D01*
X1692511Y97853D01*
X1692399Y97882D01*
X1692300Y97896D01*
X1692215Y97910D01*
X1689946D01*
X1689819Y97896D01*
X1689720Y97882D01*
X1689621Y97853D01*
X1689551Y97825D01*
X1689480Y97783D01*
X1689438Y97755D01*
X1689410Y97741D01*
X1689396Y97726D01*
X1689326Y97656D01*
X1689269Y97571D01*
X1689241Y97487D01*
X1689213Y97402D01*
X1689199Y97332D01*
X1689185Y97275D01*
Y97233D01*
Y97219D01*
X1689199Y97106D01*
X1689213Y97008D01*
X1689255Y96923D01*
X1689297Y96853D01*
X1689326Y96796D01*
X1689368Y96754D01*
X1689382Y96740D01*
X1689396Y96726D01*
X1689480Y96669D01*
X1689565Y96627D01*
X1689748Y96571D01*
X1689833Y96556D01*
X1689889Y96542D01*
X1691257D01*
X1691243Y96401D01*
X1691214Y96105D01*
X1691130Y95837D01*
X1691031Y95612D01*
X1690918Y95415D01*
X1690806Y95260D01*
X1690721Y95147D01*
X1690651Y95076D01*
X1690622Y95048D01*
X1690397Y94879D01*
X1690143Y94752D01*
X1689889Y94653D01*
X1689664Y94597D01*
X1689452Y94555D01*
X1689354Y94541D01*
X1689283D01*
X1689213Y94527D01*
X1689128D01*
X1688917Y94541D01*
X1688733Y94569D01*
X1688550Y94611D01*
X1688367Y94653D01*
X1688071Y94794D01*
X1687817Y94949D01*
X1687606Y95105D01*
X1687521Y95175D01*
X1687465Y95245D01*
X1687408Y95288D01*
X1687366Y95330D01*
X1687352Y95358D01*
X1687338Y95372D01*
X1687225Y95541D01*
X1687126Y95711D01*
X1686957Y96091D01*
X1686844Y96472D01*
X1686774Y96838D01*
X1686746Y97008D01*
X1686718Y97163D01*
X1686703Y97304D01*
Y97430D01*
X1686689Y97529D01*
Y97600D01*
Y97656D01*
Y97670D01*
X1686703Y97938D01*
X1686718Y98178D01*
X1686746Y98417D01*
X1686788Y98629D01*
X1686830Y98826D01*
X1686887Y99009D01*
X1686943Y99178D01*
X1687000Y99334D01*
X1687056Y99460D01*
X1687112Y99587D01*
X1687169Y99686D01*
X1687211Y99771D01*
X1687253Y99827D01*
X1687281Y99869D01*
X1687310Y99897D01*
Y99911D01*
X1687437Y100052D01*
X1687563Y100179D01*
X1687704Y100278D01*
X1687845Y100377D01*
X1688000Y100461D01*
X1688141Y100518D01*
X1688423Y100616D01*
X1688677Y100673D01*
X1688776Y100687D01*
X1688874Y100701D01*
X1688945Y100715D01*
X1689058D01*
X1689297Y100701D01*
X1689523Y100659D01*
X1689734Y100602D01*
X1689932Y100532D01*
X1690101Y100433D01*
X1690270Y100334D01*
X1690411Y100222D01*
X1690552Y100123D01*
X1690665Y100010D01*
X1690763Y99897D01*
X1690848Y99799D01*
X1690918Y99700D01*
X1690975Y99630D01*
X1691017Y99573D01*
X1691031Y99531D01*
X1691045Y99517D01*
X1691172Y99334D01*
X1691327Y99193D01*
X1691468Y99108D01*
X1691623Y99038D01*
X1691750Y98995D01*
X1691849Y98981D01*
X1691919Y98967D01*
X1691947D01*
X1692074Y98981D01*
X1692201Y99009D01*
X1692300Y99038D01*
X1692384Y99080D01*
X1692455Y99122D01*
X1692497Y99164D01*
X1692525Y99178D01*
X1692540Y99193D01*
X1692610Y99277D01*
X1692666Y99376D01*
X1692709Y99474D01*
X1692737Y99573D01*
X1692751Y99644D01*
X1692765Y99714D01*
Y99756D01*
Y99771D01*
X1692751Y99996D01*
X1692723Y100095D01*
X1692709Y100179D01*
X1692681Y100264D01*
X1692652Y100320D01*
X1692638Y100349D01*
Y100363D01*
X1692469Y100659D01*
X1692258Y100941D01*
X1692032Y101166D01*
X1691806Y101363D01*
X1691595Y101519D01*
X1691426Y101631D01*
X1691369Y101674D01*
X1691313Y101702D01*
X1691285Y101730D01*
X1691271D01*
X1690904Y101913D01*
X1690524Y102040D01*
X1690143Y102139D01*
X1689805Y102195D01*
X1689650Y102223D01*
X1689509Y102238D01*
X1689382Y102252D01*
X1689269D01*
X1689185Y102266D01*
D02*
G37*
G36*
X1682686Y102238D02*
X1682615D01*
X1682460Y102223D01*
X1682319Y102195D01*
X1682207Y102153D01*
X1682108Y102111D01*
X1682023Y102054D01*
X1681967Y102012D01*
X1681939Y101984D01*
X1681925Y101970D01*
X1681840Y101871D01*
X1681784Y101744D01*
X1681727Y101631D01*
X1681699Y101519D01*
X1681685Y101406D01*
X1681671Y101321D01*
Y101265D01*
Y101251D01*
Y96486D01*
X1681657Y96176D01*
X1681600Y95894D01*
X1681516Y95654D01*
X1681431Y95457D01*
X1681333Y95302D01*
X1681262Y95189D01*
X1681206Y95119D01*
X1681177Y95090D01*
X1680980Y94921D01*
X1680755Y94794D01*
X1680529Y94710D01*
X1680303Y94653D01*
X1680106Y94611D01*
X1679937Y94597D01*
X1679881Y94583D01*
X1679796D01*
X1679472Y94611D01*
X1679204Y94668D01*
X1678964Y94738D01*
X1678767Y94837D01*
X1678598Y94935D01*
X1678499Y95006D01*
X1678428Y95062D01*
X1678400Y95090D01*
X1678231Y95302D01*
X1678118Y95527D01*
X1678034Y95767D01*
X1677963Y95978D01*
X1677935Y96176D01*
X1677921Y96345D01*
X1677907Y96401D01*
Y96444D01*
Y96472D01*
Y96486D01*
Y101251D01*
X1677893Y101420D01*
X1677865Y101561D01*
X1677822Y101688D01*
X1677780Y101786D01*
X1677738Y101871D01*
X1677695Y101927D01*
X1677667Y101956D01*
X1677653Y101970D01*
X1677554Y102054D01*
X1677442Y102125D01*
X1677329Y102167D01*
X1677216Y102209D01*
X1677117Y102223D01*
X1677033Y102238D01*
X1676962D01*
X1676807Y102223D01*
X1676666Y102195D01*
X1676554Y102153D01*
X1676455Y102111D01*
X1676370Y102054D01*
X1676314Y102012D01*
X1676286Y101984D01*
X1676272Y101970D01*
X1676187Y101871D01*
X1676131Y101744D01*
X1676088Y101631D01*
X1676060Y101519D01*
X1676046Y101406D01*
X1676032Y101321D01*
Y92990D01*
Y96303D01*
X1676046Y96035D01*
X1676074Y95767D01*
X1676131Y95527D01*
X1676187Y95302D01*
X1676272Y95076D01*
X1676356Y94879D01*
X1676441Y94696D01*
X1676539Y94541D01*
X1676638Y94385D01*
X1676723Y94259D01*
X1676807Y94146D01*
X1676892Y94061D01*
X1676948Y93991D01*
X1677005Y93934D01*
X1677033Y93906D01*
X1677047Y93892D01*
X1677244Y93737D01*
X1677456Y93596D01*
X1677681Y93469D01*
X1677907Y93371D01*
X1678147Y93286D01*
X1678372Y93216D01*
X1678809Y93103D01*
X1679007Y93060D01*
X1679204Y93032D01*
X1679373Y93018D01*
X1679514Y93004D01*
X1679627Y92990D01*
X1676032D01*
X1683560D01*
D01*
X1679796D01*
X1680106Y93004D01*
X1680402Y93032D01*
X1680684Y93075D01*
X1680938Y93131D01*
X1681192Y93201D01*
X1681417Y93272D01*
X1681614Y93356D01*
X1681798Y93441D01*
X1681967Y93526D01*
X1682122Y93610D01*
X1682235Y93681D01*
X1682348Y93751D01*
X1682418Y93807D01*
X1682488Y93850D01*
X1682517Y93878D01*
X1682531Y93892D01*
X1682714Y94075D01*
X1682869Y94259D01*
X1683010Y94456D01*
X1683123Y94653D01*
X1683221Y94851D01*
X1683306Y95062D01*
X1683376Y95260D01*
X1683433Y95443D01*
X1683475Y95612D01*
X1683503Y95781D01*
X1683532Y95922D01*
X1683546Y96049D01*
X1683560Y96162D01*
Y101251D01*
X1683546Y101420D01*
X1683517Y101561D01*
X1683475Y101688D01*
X1683433Y101786D01*
X1683391Y101871D01*
X1683348Y101927D01*
X1683320Y101956D01*
X1683306Y101970D01*
X1683207Y102054D01*
X1683095Y102125D01*
X1682982Y102167D01*
X1682869Y102209D01*
X1682770Y102223D01*
X1682686Y102238D01*
D02*
G37*
%LPD*%
G36*
X1671521Y100701D02*
X1671732Y100673D01*
X1671902Y100616D01*
X1672043Y100574D01*
X1672155Y100518D01*
X1672240Y100461D01*
X1672296Y100433D01*
X1672310Y100419D01*
X1672437Y100292D01*
X1672522Y100165D01*
X1672592Y100024D01*
X1672635Y99883D01*
X1672663Y99756D01*
X1672677Y99658D01*
Y99601D01*
Y99573D01*
X1672663Y99376D01*
X1672606Y99193D01*
X1672550Y99052D01*
X1672466Y98925D01*
X1672395Y98812D01*
X1672325Y98742D01*
X1672268Y98699D01*
X1672254Y98685D01*
X1672085Y98586D01*
X1671902Y98502D01*
X1671704Y98445D01*
X1671521Y98417D01*
X1671352Y98389D01*
X1671225Y98375D01*
X1669745D01*
Y100715D01*
X1671295D01*
X1671521Y100701D01*
D02*
G37*
G36*
X1671620Y97120D02*
X1671873Y97078D01*
X1672085Y97022D01*
X1672268Y96965D01*
X1672409Y96909D01*
X1672508Y96853D01*
X1672578Y96810D01*
X1672592Y96796D01*
X1672733Y96669D01*
X1672846Y96514D01*
X1672917Y96359D01*
X1672973Y96204D01*
X1673001Y96063D01*
X1673029Y95950D01*
Y95880D01*
Y95866D01*
Y95852D01*
X1673015Y95626D01*
X1672959Y95429D01*
X1672903Y95260D01*
X1672818Y95119D01*
X1672747Y95006D01*
X1672677Y94935D01*
X1672621Y94879D01*
X1672606Y94865D01*
X1672437Y94752D01*
X1672240Y94668D01*
X1672029Y94611D01*
X1671831Y94569D01*
X1671648Y94541D01*
X1671507Y94527D01*
X1669745D01*
Y97134D01*
X1671324D01*
X1671620Y97120D01*
D02*
G37*
G36*
X1655056Y100546D02*
X1655267Y100532D01*
X1655648Y100447D01*
X1655831Y100391D01*
X1655986Y100320D01*
X1656127Y100250D01*
X1656254Y100179D01*
X1656367Y100109D01*
X1656465Y100038D01*
X1656550Y99982D01*
X1656620Y99911D01*
X1656677Y99869D01*
X1656719Y99827D01*
X1656733Y99813D01*
X1656747Y99799D01*
X1656860Y99658D01*
X1656973Y99489D01*
X1657142Y99150D01*
X1657255Y98784D01*
X1657339Y98445D01*
X1657368Y98276D01*
X1657396Y98121D01*
X1657410Y97994D01*
Y97867D01*
X1657424Y97783D01*
Y97698D01*
Y97656D01*
Y97642D01*
Y97374D01*
X1657396Y97134D01*
X1657368Y96895D01*
X1657325Y96683D01*
X1657269Y96486D01*
X1657213Y96303D01*
X1657156Y96133D01*
X1657100Y95993D01*
X1657029Y95866D01*
X1656973Y95753D01*
X1656917Y95654D01*
X1656860Y95570D01*
X1656818Y95513D01*
X1656790Y95471D01*
X1656776Y95443D01*
X1656761Y95429D01*
X1656635Y95302D01*
X1656494Y95189D01*
X1656339Y95076D01*
X1656183Y94992D01*
X1655859Y94865D01*
X1655549Y94780D01*
X1655267Y94724D01*
X1655140Y94710D01*
X1655042Y94696D01*
X1654957Y94682D01*
X1653505D01*
Y100560D01*
X1654830D01*
X1655056Y100546D01*
D02*
G37*
G36*
X1666615Y93131D02*
X1665755D01*
X1665896Y93145D01*
X1666023Y93159D01*
X1666122Y93187D01*
X1666221Y93230D01*
X1666277Y93272D01*
X1666333Y93300D01*
X1666362Y93314D01*
X1666376Y93328D01*
X1666460Y93413D01*
X1666517Y93511D01*
X1666559Y93596D01*
X1666587Y93695D01*
X1666601Y93765D01*
X1666615Y93836D01*
Y93131D01*
D02*
G37*
G36*
X1693089Y92990D02*
X1689100D01*
X1689438Y93004D01*
X1689763Y93032D01*
X1690073Y93089D01*
X1690355Y93145D01*
X1690608Y93230D01*
X1690848Y93314D01*
X1691073Y93413D01*
X1691271Y93511D01*
X1691440Y93596D01*
X1691595Y93695D01*
X1691736Y93779D01*
X1691835Y93864D01*
X1691919Y93920D01*
X1691990Y93977D01*
X1692018Y94005D01*
X1692032Y94019D01*
X1692215Y94216D01*
X1692384Y94428D01*
X1692525Y94653D01*
X1692638Y94893D01*
X1692751Y95119D01*
X1692836Y95344D01*
X1692906Y95570D01*
X1692962Y95795D01*
X1693005Y95993D01*
X1693033Y96190D01*
X1693061Y96359D01*
X1693075Y96514D01*
X1693089Y96627D01*
Y92990D01*
D02*
G37*
%LPC*%
G36*
X1841652Y81560D02*
X1841595D01*
X1841469Y81546D01*
X1841356Y81518D01*
X1841257Y81489D01*
X1841173Y81447D01*
X1841102Y81405D01*
X1841060Y81363D01*
X1841032Y81348D01*
X1841017Y81334D01*
X1840947Y81236D01*
X1840905Y81137D01*
X1840848Y80940D01*
X1840834Y80841D01*
X1840820Y80771D01*
Y78853D01*
X1834237D01*
X1834082Y78839D01*
X1833941Y78811D01*
X1833814Y78783D01*
X1833715Y78726D01*
X1833631Y78684D01*
X1833574Y78656D01*
X1833546Y78628D01*
X1833532Y78614D01*
X1833447Y78515D01*
X1833391Y78402D01*
X1833335Y78289D01*
X1833306Y78177D01*
X1833292Y78078D01*
X1833278Y77993D01*
D01*
Y77923D01*
X1833292Y77768D01*
X1833321Y77627D01*
X1833349Y77500D01*
X1833405Y77401D01*
X1833447Y77317D01*
X1833476Y77260D01*
X1833504Y77232D01*
X1833518Y77218D01*
X1833631Y77133D01*
X1833743Y77077D01*
X1833870Y77035D01*
X1833983Y77007D01*
X1834082Y76993D01*
X1834166Y76978D01*
X1834223D01*
X1834237D01*
X1840820D01*
Y75104D01*
X1840834Y74963D01*
X1840848Y74850D01*
X1840877Y74737D01*
X1840919Y74652D01*
X1840961Y74582D01*
X1840989Y74540D01*
X1841003Y74511D01*
X1841017Y74497D01*
X1841102Y74413D01*
X1841201Y74356D01*
X1841299Y74314D01*
X1841384Y74286D01*
X1841469Y74272D01*
X1841539Y74258D01*
X1842371D01*
Y74483D01*
Y74258D01*
X1841595D01*
X1841722Y74272D01*
X1841835Y74300D01*
X1841934Y74328D01*
X1842018Y74370D01*
X1842075Y74427D01*
X1842117Y74455D01*
X1842145Y74483D01*
X1842159Y74497D01*
X1842230Y74582D01*
X1842286Y74681D01*
X1842314Y74793D01*
X1842343Y74878D01*
X1842357Y74977D01*
X1842371Y75033D01*
Y74483D01*
Y75033D01*
Y80771D01*
Y80714D01*
X1842357Y80855D01*
X1842343Y80982D01*
X1842300Y81081D01*
X1842272Y81165D01*
X1842230Y81236D01*
X1842188Y81292D01*
X1842173Y81320D01*
X1842159Y81334D01*
X1842075Y81405D01*
X1841990Y81461D01*
X1841891Y81503D01*
X1841807Y81532D01*
X1841722Y81546D01*
X1841652Y81560D01*
D02*
G37*
G36*
X1842526Y73609D02*
X1833250D01*
X1837888D01*
X1837493Y73595D01*
X1837113Y73553D01*
X1836760Y73496D01*
X1836436Y73426D01*
X1836126Y73341D01*
X1835844Y73243D01*
X1835590Y73144D01*
X1835365Y73031D01*
X1835153Y72933D01*
X1834984Y72834D01*
X1834829Y72735D01*
X1834702Y72651D01*
X1834603Y72566D01*
X1834533Y72510D01*
X1834491Y72481D01*
X1834476Y72467D01*
X1834265Y72242D01*
X1834068Y72002D01*
X1833913Y71748D01*
X1833772Y71495D01*
X1833645Y71227D01*
X1833546Y70973D01*
X1833476Y70719D01*
X1833405Y70466D01*
X1833349Y70240D01*
X1833321Y70015D01*
X1833292Y69817D01*
X1833264Y69648D01*
Y69521D01*
X1833250Y69408D01*
Y65588D01*
Y69324D01*
X1833278Y68858D01*
X1833335Y68436D01*
X1833419Y68069D01*
X1833461Y67900D01*
X1833518Y67745D01*
X1833560Y67604D01*
X1833602Y67477D01*
X1833645Y67364D01*
X1833687Y67280D01*
X1833729Y67209D01*
X1833743Y67153D01*
X1833772Y67125D01*
Y67111D01*
X1833983Y66772D01*
X1834223Y66490D01*
X1834476Y66251D01*
X1834716Y66053D01*
X1834928Y65912D01*
X1835012Y65856D01*
X1835097Y65814D01*
X1835167Y65771D01*
X1835210Y65743D01*
X1835238Y65729D01*
X1835252D01*
X1835491Y65644D01*
X1835590Y65616D01*
X1835689Y65602D01*
X1835759Y65588D01*
X1835872D01*
X1836013Y65602D01*
X1836126Y65630D01*
X1836239Y65658D01*
X1836323Y65701D01*
X1836394Y65757D01*
X1836436Y65785D01*
X1836464Y65814D01*
X1836478Y65828D01*
X1836549Y65926D01*
X1836605Y66025D01*
X1836647Y66138D01*
X1836676Y66237D01*
X1836690Y66321D01*
X1836704Y66392D01*
Y66462D01*
X1836676Y66659D01*
X1836633Y66814D01*
X1836605Y66871D01*
X1836591Y66913D01*
X1836563Y66941D01*
Y66955D01*
X1836507Y67026D01*
X1836436Y67096D01*
X1836295Y67195D01*
X1836225Y67237D01*
X1836168Y67266D01*
X1836126Y67294D01*
X1836112D01*
X1835872Y67421D01*
X1835675Y67547D01*
X1835491Y67703D01*
X1835350Y67858D01*
X1835224Y68027D01*
X1835111Y68210D01*
X1835026Y68379D01*
X1834956Y68548D01*
X1834899Y68703D01*
X1834857Y68858D01*
X1834829Y69000D01*
X1834815Y69112D01*
X1834801Y69211D01*
X1834787Y69281D01*
Y69352D01*
X1834801Y69549D01*
X1834829Y69732D01*
X1834857Y69916D01*
X1834913Y70085D01*
X1835054Y70367D01*
X1835210Y70621D01*
X1835350Y70818D01*
X1835491Y70959D01*
X1835548Y71001D01*
X1835576Y71044D01*
X1835604Y71058D01*
X1835618Y71072D01*
X1835788Y71185D01*
X1835957Y71269D01*
X1836323Y71424D01*
X1836704Y71537D01*
X1837070Y71607D01*
X1837240Y71636D01*
X1837395Y71664D01*
X1837536Y71678D01*
X1837648D01*
X1837747Y71692D01*
X1837832D01*
X1837874D01*
X1837888D01*
X1838142Y71678D01*
X1838396Y71664D01*
X1838621Y71636D01*
X1838833Y71593D01*
X1839030Y71551D01*
X1839213Y71495D01*
X1839382Y71438D01*
X1839537Y71368D01*
X1839678Y71311D01*
X1839791Y71255D01*
X1839890Y71199D01*
X1839974Y71156D01*
X1840045Y71114D01*
X1840087Y71086D01*
X1840115Y71058D01*
X1840129D01*
X1840284Y70931D01*
X1840411Y70804D01*
X1840524Y70663D01*
X1840623Y70522D01*
X1840707Y70381D01*
X1840764Y70240D01*
X1840877Y69972D01*
X1840933Y69732D01*
X1840947Y69634D01*
X1840961Y69535D01*
X1840975Y69465D01*
Y69366D01*
X1840961Y69112D01*
X1840919Y68887D01*
X1840862Y68675D01*
X1840806Y68506D01*
X1840736Y68351D01*
X1840679Y68252D01*
X1840637Y68182D01*
X1840623Y68154D01*
X1840482Y67970D01*
X1840313Y67801D01*
X1840143Y67660D01*
X1839974Y67533D01*
X1839833Y67449D01*
X1839707Y67378D01*
X1839622Y67336D01*
X1839608Y67322D01*
X1839594D01*
X1839481Y67266D01*
X1839382Y67195D01*
X1839298Y67139D01*
X1839227Y67082D01*
X1839185Y67026D01*
X1839143Y66984D01*
X1839129Y66969D01*
X1839114Y66955D01*
X1839030Y66772D01*
X1838988Y66603D01*
Y66533D01*
X1838974Y66476D01*
Y66420D01*
X1838988Y66279D01*
X1839002Y66166D01*
X1839044Y66053D01*
X1839086Y65969D01*
X1839114Y65898D01*
X1839157Y65856D01*
X1839171Y65828D01*
X1839185Y65814D01*
X1839270Y65743D01*
X1839368Y65687D01*
X1839467Y65644D01*
X1839565Y65616D01*
X1839650Y65602D01*
X1839721Y65588D01*
X1836016D01*
X1842526D01*
Y69380D01*
X1842512Y69732D01*
X1842469Y70071D01*
X1842413Y70381D01*
X1842328Y70677D01*
X1842244Y70959D01*
X1842131Y71213D01*
X1842018Y71438D01*
X1841906Y71650D01*
X1841793Y71833D01*
X1841680Y72002D01*
X1841567Y72143D01*
X1841483Y72256D01*
X1841398Y72355D01*
X1841342Y72411D01*
X1841299Y72453D01*
X1841285Y72467D01*
X1841046Y72665D01*
X1840778Y72848D01*
X1840510Y73003D01*
X1840228Y73130D01*
X1839946Y73243D01*
X1839664Y73327D01*
X1839382Y73412D01*
X1839129Y73468D01*
X1838875Y73510D01*
X1838635Y73553D01*
X1838424Y73567D01*
X1838240Y73595D01*
X1838099D01*
X1837987Y73609D01*
X1842526D01*
D02*
G37*
G36*
X1841581Y64235D02*
X1834237D01*
X1834082Y64221D01*
X1833941Y64192D01*
X1833814Y64164D01*
X1833715Y64108D01*
X1833631Y64065D01*
X1833574Y64037D01*
X1833546Y64009D01*
X1833532Y63995D01*
X1833447Y63896D01*
X1833391Y63784D01*
X1833335Y63671D01*
X1833306Y63558D01*
X1833292Y63459D01*
X1833278Y63375D01*
Y62360D01*
Y63304D01*
X1833292Y63149D01*
X1833321Y63008D01*
X1833349Y62881D01*
X1833405Y62783D01*
X1833447Y62712D01*
X1833476Y62656D01*
X1833504Y62628D01*
X1833518Y62614D01*
X1833631Y62529D01*
X1833743Y62473D01*
X1833870Y62416D01*
X1833983Y62388D01*
X1834082Y62374D01*
X1834166Y62360D01*
X1834223D01*
X1834237D01*
X1836126D01*
X1837070Y61458D01*
X1833772Y58779D01*
X1833673Y58695D01*
X1833588Y58624D01*
X1833532Y58554D01*
X1833476Y58483D01*
X1833433Y58441D01*
X1833405Y58398D01*
X1833391Y58370D01*
Y58356D01*
X1833321Y58187D01*
X1833292Y58018D01*
X1833278Y57947D01*
Y57976D01*
Y57849D01*
X1833292Y57708D01*
X1833321Y57581D01*
X1833363Y57468D01*
X1833405Y57369D01*
X1833447Y57299D01*
X1833490Y57243D01*
X1833518Y57214D01*
X1833532Y57200D01*
X1833631Y57116D01*
X1833743Y57045D01*
X1833842Y57003D01*
X1833941Y56961D01*
X1834039Y56947D01*
X1834110Y56932D01*
X1833278D01*
X1842498D01*
Y58398D01*
Y58117D01*
X1842484Y58272D01*
X1842441Y58427D01*
X1842371Y58568D01*
X1842300Y58681D01*
X1842216Y58779D01*
X1842159Y58850D01*
X1842103Y58906D01*
X1842089Y58920D01*
X1838396Y62303D01*
Y62360D01*
X1841511D01*
X1841680Y62374D01*
X1841821Y62402D01*
X1841948Y62444D01*
X1842047Y62487D01*
X1842131Y62529D01*
X1842188Y62571D01*
X1842216Y62599D01*
X1842230Y62614D01*
X1842314Y62712D01*
X1842385Y62825D01*
X1842427Y62938D01*
X1842469Y63050D01*
X1842484Y63149D01*
X1842498Y63234D01*
Y62303D01*
Y63671D01*
Y63304D01*
X1842484Y63459D01*
X1842455Y63600D01*
X1842413Y63713D01*
X1842371Y63812D01*
X1842314Y63896D01*
X1842272Y63953D01*
X1842244Y63981D01*
X1842230Y63995D01*
X1842131Y64080D01*
X1842004Y64136D01*
X1841891Y64178D01*
X1841779Y64207D01*
X1841666Y64221D01*
X1841581Y64235D01*
D02*
G37*
%LPD*%
G36*
X1842526Y65588D02*
X1839777D01*
X1839904Y65602D01*
X1840031Y65616D01*
X1840158Y65644D01*
X1840256Y65673D01*
X1840355Y65715D01*
X1840426Y65743D01*
X1840468Y65757D01*
X1840482Y65771D01*
X1840820Y65969D01*
X1841130Y66194D01*
X1841384Y66420D01*
X1841595Y66645D01*
X1841765Y66857D01*
X1841891Y67026D01*
X1841934Y67096D01*
X1841962Y67139D01*
X1841990Y67167D01*
Y67181D01*
X1842173Y67547D01*
X1842300Y67928D01*
X1842399Y68295D01*
X1842455Y68633D01*
X1842484Y68788D01*
X1842498Y68929D01*
X1842512Y69056D01*
Y69169D01*
X1842526Y69253D01*
Y65588D01*
D02*
G37*
G36*
X1840919Y57553D02*
X1841046Y57440D01*
X1841187Y57369D01*
X1841299Y57313D01*
X1841412Y57271D01*
X1841497Y57243D01*
X1841581Y57228D01*
X1841624D01*
X1841638D01*
X1841765Y57243D01*
X1841891Y57271D01*
X1841990Y57313D01*
X1842075Y57355D01*
X1842145Y57398D01*
X1842202Y57440D01*
X1842230Y57468D01*
X1842244Y57482D01*
X1842328Y57581D01*
X1842385Y57694D01*
X1842441Y57792D01*
X1842469Y57891D01*
X1842484Y57976D01*
X1842498Y58046D01*
Y56932D01*
X1834166D01*
X1834307Y56947D01*
X1834462Y56989D01*
X1834603Y57059D01*
X1834744Y57130D01*
X1834857Y57214D01*
X1834956Y57271D01*
X1835012Y57327D01*
X1835040Y57341D01*
X1838311Y60034D01*
X1840919Y57553D01*
D02*
G37*
%LPC*%
G36*
X1816252Y81560D02*
X1816196D01*
X1816069Y81546D01*
X1815956Y81518D01*
X1815857Y81489D01*
X1815773Y81447D01*
X1815702Y81405D01*
X1815660Y81363D01*
X1815632Y81348D01*
X1815618Y81334D01*
X1815547Y81236D01*
X1815505Y81137D01*
X1815448Y80940D01*
X1815434Y80841D01*
X1815420Y80771D01*
Y78853D01*
X1808837D01*
X1808682Y78839D01*
X1808541Y78811D01*
X1808414Y78783D01*
X1808315Y78726D01*
X1808231Y78684D01*
X1808174Y78656D01*
X1808146Y78628D01*
X1808132Y78614D01*
X1808047Y78515D01*
X1807991Y78402D01*
X1807935Y78289D01*
X1807906Y78177D01*
X1807892Y78078D01*
X1807878Y77993D01*
D01*
Y77923D01*
X1807892Y77768D01*
X1807921Y77627D01*
X1807949Y77500D01*
X1808005Y77401D01*
X1808047Y77317D01*
X1808076Y77260D01*
X1808104Y77232D01*
X1808118Y77218D01*
X1808231Y77133D01*
X1808344Y77077D01*
X1808470Y77035D01*
X1808583Y77007D01*
X1808682Y76993D01*
X1808766Y76978D01*
X1808823D01*
X1808837D01*
X1815420D01*
Y75104D01*
X1815434Y74963D01*
X1815448Y74850D01*
X1815477Y74737D01*
X1815519Y74652D01*
X1815561Y74582D01*
X1815589Y74540D01*
X1815603Y74511D01*
X1815618Y74497D01*
X1815702Y74413D01*
X1815801Y74356D01*
X1815900Y74314D01*
X1815984Y74286D01*
X1816069Y74272D01*
X1816139Y74258D01*
X1816971D01*
Y74483D01*
Y74258D01*
X1816196D01*
X1816322Y74272D01*
X1816435Y74300D01*
X1816534Y74328D01*
X1816618Y74370D01*
X1816675Y74427D01*
X1816717Y74455D01*
X1816745Y74483D01*
X1816759Y74497D01*
X1816830Y74582D01*
X1816886Y74681D01*
X1816915Y74793D01*
X1816943Y74878D01*
X1816957Y74977D01*
X1816971Y75033D01*
Y74483D01*
Y75033D01*
Y80771D01*
Y80714D01*
X1816957Y80855D01*
X1816943Y80982D01*
X1816900Y81081D01*
X1816872Y81165D01*
X1816830Y81236D01*
X1816788Y81292D01*
X1816774Y81320D01*
X1816759Y81334D01*
X1816675Y81405D01*
X1816590Y81461D01*
X1816492Y81503D01*
X1816407Y81532D01*
X1816322Y81546D01*
X1816252Y81560D01*
D02*
G37*
G36*
X1816069Y73327D02*
X1808964D01*
X1808795Y73313D01*
X1808654Y73285D01*
X1808527Y73257D01*
X1808428Y73200D01*
X1808344Y73158D01*
X1808287Y73130D01*
X1808259Y73102D01*
X1808245Y73088D01*
X1808160Y72989D01*
X1808104Y72876D01*
X1808047Y72763D01*
X1808019Y72651D01*
X1808005Y72552D01*
X1807991Y72467D01*
Y73327D01*
D01*
D01*
Y65616D01*
D01*
Y69902D01*
X1808005Y69535D01*
X1808047Y69183D01*
X1808104Y68858D01*
X1808174Y68548D01*
X1808273Y68266D01*
X1808372Y68013D01*
X1808470Y67773D01*
X1808583Y67562D01*
X1808696Y67378D01*
X1808795Y67209D01*
X1808907Y67068D01*
X1808992Y66955D01*
X1809062Y66857D01*
X1809119Y66800D01*
X1809161Y66758D01*
X1809175Y66744D01*
X1809415Y66547D01*
X1809669Y66377D01*
X1809922Y66222D01*
X1810204Y66095D01*
X1810486Y65983D01*
X1810754Y65884D01*
X1811036Y65814D01*
X1811290Y65757D01*
X1811543Y65715D01*
X1811769Y65673D01*
X1811980Y65644D01*
X1812164Y65630D01*
X1812305Y65616D01*
X1816971D01*
X1812516D01*
X1812911Y65630D01*
X1813263Y65658D01*
X1813616Y65715D01*
X1813926Y65785D01*
X1814222Y65884D01*
X1814490Y65969D01*
X1814743Y66081D01*
X1814955Y66180D01*
X1815152Y66279D01*
X1815322Y66392D01*
X1815462Y66476D01*
X1815589Y66561D01*
X1815674Y66645D01*
X1815744Y66702D01*
X1815787Y66730D01*
X1815801Y66744D01*
X1816012Y66969D01*
X1816181Y67209D01*
X1816351Y67449D01*
X1816477Y67717D01*
X1816590Y67970D01*
X1816689Y68238D01*
X1816759Y68492D01*
X1816830Y68746D01*
X1816872Y68985D01*
X1816915Y69197D01*
X1816929Y69394D01*
X1816957Y69563D01*
Y69704D01*
X1816971Y69817D01*
Y72397D01*
X1816957Y72552D01*
X1816929Y72693D01*
X1816886Y72806D01*
X1816844Y72904D01*
X1816788Y72989D01*
X1816745Y73045D01*
X1816717Y73074D01*
X1816703Y73088D01*
X1816604Y73172D01*
X1816492Y73229D01*
X1816365Y73271D01*
X1816252Y73299D01*
X1816153Y73313D01*
X1816069Y73327D01*
D02*
G37*
G36*
X1812573Y64686D02*
X1812474D01*
X1812079Y64672D01*
X1811713Y64629D01*
X1811360Y64573D01*
X1811036Y64503D01*
X1810740Y64418D01*
X1810458Y64319D01*
X1810204Y64221D01*
X1809979Y64108D01*
X1809781Y63995D01*
X1809598Y63896D01*
X1809443Y63798D01*
X1809316Y63713D01*
X1809218Y63643D01*
X1809147Y63572D01*
X1809105Y63544D01*
X1809091Y63530D01*
X1808879Y63304D01*
X1808682Y63050D01*
X1808513Y62797D01*
X1808372Y62543D01*
X1808259Y62275D01*
X1808160Y62007D01*
X1808076Y61754D01*
X1808005Y61500D01*
X1807949Y61274D01*
X1807921Y61049D01*
X1807892Y60851D01*
X1807864Y60682D01*
Y60555D01*
X1807850Y60443D01*
Y64686D01*
D01*
D01*
Y56016D01*
Y60358D01*
X1807864Y59991D01*
X1807906Y59653D01*
X1807963Y59315D01*
X1808047Y59019D01*
X1808132Y58737D01*
X1808245Y58469D01*
X1808344Y58229D01*
X1808470Y58018D01*
X1808583Y57835D01*
X1808696Y57666D01*
X1808795Y57524D01*
X1808879Y57398D01*
X1808964Y57313D01*
X1809020Y57243D01*
X1809062Y57200D01*
X1809077Y57186D01*
X1809316Y56975D01*
X1809584Y56806D01*
X1809852Y56636D01*
X1810134Y56509D01*
X1810416Y56397D01*
X1810698Y56298D01*
X1810980Y56228D01*
X1811248Y56157D01*
X1811501Y56115D01*
X1811727Y56073D01*
X1811938Y56058D01*
X1812121Y56030D01*
X1812262D01*
X1812375Y56016D01*
X1807850D01*
X1817126D01*
X1812474D01*
X1812869Y56030D01*
X1813235Y56073D01*
X1813588Y56129D01*
X1813912Y56199D01*
X1814222Y56284D01*
X1814504Y56383D01*
X1814758Y56495D01*
X1814983Y56594D01*
X1815181Y56707D01*
X1815364Y56820D01*
X1815519Y56918D01*
X1815646Y57003D01*
X1815744Y57073D01*
X1815815Y57130D01*
X1815857Y57172D01*
X1815871Y57186D01*
X1816097Y57412D01*
X1816280Y57651D01*
X1816449Y57919D01*
X1816590Y58173D01*
X1816717Y58441D01*
X1816816Y58709D01*
X1816900Y58962D01*
X1816971Y59216D01*
X1817027Y59442D01*
X1817055Y59667D01*
X1817084Y59865D01*
X1817112Y60020D01*
Y60161D01*
X1817126Y60273D01*
Y60358D01*
X1817112Y60725D01*
X1817070Y61063D01*
X1817013Y61387D01*
X1816929Y61697D01*
X1816830Y61979D01*
X1816731Y62247D01*
X1816618Y62473D01*
X1816506Y62698D01*
X1816379Y62881D01*
X1816266Y63050D01*
X1816167Y63191D01*
X1816069Y63318D01*
X1815984Y63403D01*
X1815928Y63474D01*
X1815885Y63516D01*
X1815871Y63530D01*
X1815632Y63727D01*
X1815364Y63910D01*
X1815096Y64065D01*
X1814814Y64192D01*
X1814532Y64305D01*
X1814250Y64404D01*
X1813968Y64474D01*
X1813714Y64545D01*
X1813461Y64587D01*
X1813221Y64629D01*
X1813010Y64644D01*
X1812826Y64672D01*
X1812685D01*
X1812573Y64686D01*
D02*
G37*
%LPD*%
G36*
X1815420Y70127D02*
X1815406Y69902D01*
X1815392Y69690D01*
X1815307Y69310D01*
X1815251Y69126D01*
X1815181Y68971D01*
X1815110Y68830D01*
X1815040Y68703D01*
X1814969Y68591D01*
X1814899Y68492D01*
X1814842Y68407D01*
X1814772Y68337D01*
X1814729Y68281D01*
X1814687Y68238D01*
X1814673Y68224D01*
X1814659Y68210D01*
X1814518Y68097D01*
X1814349Y67984D01*
X1814010Y67815D01*
X1813644Y67703D01*
X1813306Y67618D01*
X1813136Y67590D01*
X1812981Y67562D01*
X1812854Y67547D01*
X1812728D01*
X1812643Y67533D01*
X1812558D01*
X1812516D01*
X1812502D01*
X1812234D01*
X1811995Y67562D01*
X1811755Y67590D01*
X1811543Y67632D01*
X1811346Y67688D01*
X1811163Y67745D01*
X1810994Y67801D01*
X1810853Y67858D01*
X1810726Y67928D01*
X1810613Y67984D01*
X1810514Y68041D01*
X1810430Y68097D01*
X1810373Y68140D01*
X1810331Y68168D01*
X1810303Y68182D01*
X1810289Y68196D01*
X1810162Y68323D01*
X1810049Y68464D01*
X1809936Y68619D01*
X1809852Y68774D01*
X1809725Y69098D01*
X1809640Y69408D01*
X1809584Y69690D01*
X1809570Y69817D01*
X1809556Y69916D01*
X1809542Y70000D01*
Y71452D01*
X1815420D01*
Y70127D01*
D02*
G37*
G36*
X1812728Y62755D02*
X1812981Y62740D01*
X1813207Y62712D01*
X1813418Y62670D01*
X1813616Y62614D01*
X1813799Y62557D01*
X1813968Y62501D01*
X1814123Y62444D01*
X1814264Y62388D01*
X1814377Y62332D01*
X1814476Y62275D01*
X1814560Y62219D01*
X1814631Y62176D01*
X1814673Y62148D01*
X1814701Y62120D01*
X1814715D01*
X1814870Y61993D01*
X1814997Y61852D01*
X1815110Y61711D01*
X1815209Y61570D01*
X1815293Y61415D01*
X1815350Y61274D01*
X1815462Y60992D01*
X1815519Y60739D01*
X1815533Y60626D01*
X1815547Y60541D01*
X1815561Y60457D01*
Y60358D01*
X1815547Y60161D01*
X1815519Y59963D01*
X1815477Y59794D01*
X1815434Y59625D01*
X1815293Y59315D01*
X1815138Y59075D01*
X1814983Y58878D01*
X1814842Y58723D01*
X1814800Y58681D01*
X1814758Y58638D01*
X1814729Y58624D01*
X1814715Y58610D01*
X1814560Y58497D01*
X1814377Y58384D01*
X1814010Y58229D01*
X1813644Y58102D01*
X1813277Y58032D01*
X1813122Y58004D01*
X1812967Y57976D01*
X1812826Y57962D01*
X1812713D01*
X1812615Y57947D01*
X1812530D01*
X1812488D01*
X1812474D01*
X1812220D01*
X1811966Y57976D01*
X1811741Y58004D01*
X1811529Y58046D01*
X1811332Y58102D01*
X1811149Y58159D01*
X1810980Y58215D01*
X1810824Y58272D01*
X1810684Y58342D01*
X1810571Y58398D01*
X1810472Y58455D01*
X1810388Y58511D01*
X1810317Y58554D01*
X1810275Y58582D01*
X1810247Y58596D01*
X1810233Y58610D01*
X1810092Y58737D01*
X1809965Y58878D01*
X1809852Y59005D01*
X1809753Y59160D01*
X1809669Y59301D01*
X1809598Y59442D01*
X1809499Y59724D01*
X1809443Y59977D01*
X1809429Y60076D01*
X1809415Y60175D01*
X1809401Y60245D01*
Y60358D01*
X1809415Y60555D01*
X1809443Y60753D01*
X1809471Y60922D01*
X1809528Y61091D01*
X1809669Y61401D01*
X1809824Y61655D01*
X1809965Y61852D01*
X1810035Y61937D01*
X1810106Y61993D01*
X1810162Y62050D01*
X1810190Y62092D01*
X1810218Y62106D01*
X1810233Y62120D01*
X1810402Y62233D01*
X1810571Y62332D01*
X1810937Y62501D01*
X1811304Y62614D01*
X1811670Y62684D01*
X1811825Y62712D01*
X1811980Y62740D01*
X1812121Y62755D01*
X1812234D01*
X1812333Y62769D01*
X1812417D01*
X1812460D01*
X1812474D01*
X1812728Y62755D01*
D02*
G37*
%LPC*%
G36*
X1790824Y81560D02*
X1790767D01*
X1790640Y81546D01*
X1790528Y81518D01*
X1790429Y81489D01*
X1790344Y81447D01*
X1790274Y81405D01*
X1790232Y81363D01*
X1790203Y81348D01*
X1790189Y81334D01*
X1790119Y81236D01*
X1790077Y81137D01*
X1790020Y80940D01*
X1790006Y80841D01*
X1789992Y80771D01*
Y78853D01*
X1783409D01*
X1783254Y78839D01*
X1783113Y78811D01*
X1782986Y78783D01*
X1782887Y78726D01*
X1782802Y78684D01*
X1782746Y78656D01*
X1782718Y78628D01*
X1782704Y78614D01*
X1782619Y78515D01*
X1782563Y78402D01*
X1782507Y78289D01*
X1782478Y78177D01*
X1782464Y78078D01*
X1782450Y77993D01*
Y77923D01*
X1782464Y77768D01*
X1782492Y77627D01*
X1782521Y77500D01*
X1782577Y77401D01*
X1782619Y77317D01*
X1782647Y77260D01*
X1782676Y77232D01*
X1782690Y77218D01*
X1782802Y77133D01*
X1782915Y77077D01*
X1783042Y77035D01*
X1783155Y77007D01*
X1783254Y76993D01*
X1783338Y76978D01*
X1783395D01*
X1783409D01*
X1789992D01*
Y75104D01*
X1790006Y74963D01*
X1790020Y74850D01*
X1790048Y74737D01*
X1790091Y74652D01*
X1790133Y74582D01*
X1790161Y74540D01*
X1790175Y74511D01*
X1790189Y74497D01*
X1790274Y74413D01*
X1790373Y74356D01*
X1790471Y74314D01*
X1790556Y74286D01*
X1790640Y74272D01*
X1790711Y74258D01*
X1791543D01*
X1790767D01*
X1790894Y74272D01*
X1791007Y74300D01*
X1791106Y74328D01*
X1791190Y74370D01*
X1791247Y74427D01*
X1791289Y74455D01*
X1791317Y74483D01*
X1791331Y74497D01*
X1791402Y74582D01*
X1791458Y74681D01*
X1791486Y74793D01*
X1791514Y74878D01*
X1791528Y74977D01*
X1791543Y75033D01*
Y80771D01*
Y80714D01*
X1791528Y80855D01*
X1791514Y80982D01*
X1791472Y81081D01*
X1791444Y81165D01*
X1791402Y81236D01*
X1791359Y81292D01*
X1791345Y81320D01*
X1791331Y81334D01*
X1791247Y81405D01*
X1791162Y81461D01*
X1791063Y81503D01*
X1790979Y81532D01*
X1790894Y81546D01*
X1790824Y81560D01*
D02*
G37*
G36*
X1790640Y73327D02*
X1783535D01*
X1783366Y73313D01*
X1783225Y73285D01*
X1783098Y73257D01*
X1783000Y73200D01*
X1782915Y73158D01*
X1782859Y73130D01*
X1782831Y73102D01*
X1782817Y73088D01*
X1782732Y72989D01*
X1782676Y72876D01*
X1782619Y72763D01*
X1782591Y72651D01*
X1782577Y72552D01*
X1782563Y72467D01*
Y65616D01*
Y69902D01*
X1782577Y69535D01*
X1782619Y69183D01*
X1782676Y68858D01*
X1782746Y68548D01*
X1782845Y68266D01*
X1782944Y68013D01*
X1783042Y67773D01*
X1783155Y67562D01*
X1783268Y67378D01*
X1783366Y67209D01*
X1783479Y67068D01*
X1783564Y66955D01*
X1783634Y66857D01*
X1783691Y66800D01*
X1783733Y66758D01*
X1783747Y66744D01*
X1783987Y66547D01*
X1784240Y66377D01*
X1784494Y66222D01*
X1784776Y66095D01*
X1785058Y65983D01*
X1785326Y65884D01*
X1785608Y65814D01*
X1785862Y65757D01*
X1786115Y65715D01*
X1786341Y65673D01*
X1786552Y65644D01*
X1786736Y65630D01*
X1786877Y65616D01*
X1791543D01*
Y72763D01*
Y72397D01*
X1791528Y72552D01*
X1791500Y72693D01*
X1791458Y72806D01*
X1791416Y72904D01*
X1791359Y72989D01*
X1791317Y73045D01*
X1791289Y73074D01*
X1791275Y73088D01*
X1791176Y73172D01*
X1791063Y73229D01*
X1790936Y73271D01*
X1790824Y73299D01*
X1790725Y73313D01*
X1790640Y73327D01*
D02*
G37*
G36*
X1791669Y64404D02*
Y63474D01*
X1791655Y63629D01*
X1791627Y63769D01*
X1791585Y63882D01*
X1791543Y63981D01*
X1791486Y64065D01*
X1791444Y64122D01*
X1791416Y64150D01*
X1791402Y64164D01*
X1791303Y64249D01*
X1791176Y64305D01*
X1791063Y64348D01*
X1790951Y64376D01*
X1790838Y64390D01*
X1790753Y64404D01*
X1783409D01*
X1783254Y64390D01*
X1783113Y64362D01*
X1782986Y64333D01*
X1782887Y64277D01*
X1782802Y64235D01*
X1782746Y64207D01*
X1782718Y64178D01*
X1782704Y64164D01*
X1782619Y64065D01*
X1782563Y63953D01*
X1782507Y63840D01*
X1782478Y63727D01*
X1782464Y63629D01*
X1782450Y63544D01*
Y63840D01*
Y63474D01*
X1782464Y63318D01*
X1782492Y63177D01*
X1782521Y63050D01*
X1782577Y62952D01*
X1782619Y62881D01*
X1782647Y62825D01*
X1782676Y62797D01*
X1782690Y62783D01*
X1782802Y62698D01*
X1782915Y62642D01*
X1783042Y62585D01*
X1783155Y62557D01*
X1783254Y62543D01*
X1783338Y62529D01*
X1782450D01*
X1791669D01*
Y64404D01*
D02*
G37*
%LPD*%
G36*
X1789992Y70127D02*
X1789978Y69902D01*
X1789964Y69690D01*
X1789879Y69310D01*
X1789823Y69126D01*
X1789752Y68971D01*
X1789682Y68830D01*
X1789611Y68703D01*
X1789541Y68591D01*
X1789470Y68492D01*
X1789414Y68407D01*
X1789344Y68337D01*
X1789301Y68281D01*
X1789259Y68238D01*
X1789245Y68224D01*
X1789231Y68210D01*
X1789090Y68097D01*
X1788921Y67984D01*
X1788582Y67815D01*
X1788216Y67703D01*
X1787877Y67618D01*
X1787708Y67590D01*
X1787553Y67562D01*
X1787426Y67547D01*
X1787299D01*
X1787215Y67533D01*
X1787130D01*
X1787088D01*
X1787074D01*
X1786806D01*
X1786566Y67562D01*
X1786327Y67590D01*
X1786115Y67632D01*
X1785918Y67688D01*
X1785735Y67745D01*
X1785565Y67801D01*
X1785424Y67858D01*
X1785298Y67928D01*
X1785185Y67984D01*
X1785086Y68041D01*
X1785002Y68097D01*
X1784945Y68140D01*
X1784903Y68168D01*
X1784875Y68182D01*
X1784861Y68196D01*
X1784734Y68323D01*
X1784621Y68464D01*
X1784508Y68619D01*
X1784424Y68774D01*
X1784297Y69098D01*
X1784212Y69408D01*
X1784156Y69690D01*
X1784142Y69817D01*
X1784128Y69916D01*
X1784113Y70000D01*
Y71452D01*
X1789992D01*
Y70127D01*
D02*
G37*
G36*
X1791543Y65616D02*
X1787088D01*
X1787483Y65630D01*
X1787835Y65658D01*
X1788188Y65715D01*
X1788498Y65785D01*
X1788794Y65884D01*
X1789062Y65969D01*
X1789315Y66081D01*
X1789527Y66180D01*
X1789724Y66279D01*
X1789893Y66392D01*
X1790034Y66476D01*
X1790161Y66561D01*
X1790246Y66645D01*
X1790316Y66702D01*
X1790358Y66730D01*
X1790373Y66744D01*
X1790584Y66969D01*
X1790753Y67209D01*
X1790922Y67449D01*
X1791049Y67717D01*
X1791162Y67970D01*
X1791261Y68238D01*
X1791331Y68492D01*
X1791402Y68746D01*
X1791444Y68985D01*
X1791486Y69197D01*
X1791500Y69394D01*
X1791528Y69563D01*
Y69704D01*
X1791543Y69817D01*
Y65616D01*
D02*
G37*
G36*
X1791669Y62529D02*
X1790683D01*
X1790852Y62543D01*
X1790993Y62571D01*
X1791120Y62614D01*
X1791218Y62656D01*
X1791303Y62698D01*
X1791359Y62740D01*
X1791388Y62769D01*
X1791402Y62783D01*
X1791486Y62881D01*
X1791557Y62994D01*
X1791599Y63107D01*
X1791641Y63220D01*
X1791655Y63318D01*
X1791669Y63403D01*
Y62529D01*
D02*
G37*
%LPC*%
G36*
X1765452Y81560D02*
X1765396D01*
X1765269Y81546D01*
X1765156Y81518D01*
X1765057Y81489D01*
X1764973Y81447D01*
X1764902Y81405D01*
X1764860Y81363D01*
X1764832Y81348D01*
X1764818Y81334D01*
X1764747Y81236D01*
X1764705Y81137D01*
X1764648Y80940D01*
X1764634Y80841D01*
X1764620Y80771D01*
Y78853D01*
X1758037D01*
X1757882Y78839D01*
X1757741Y78811D01*
X1757614Y78783D01*
X1757515Y78726D01*
X1757431Y78684D01*
X1757374Y78656D01*
X1757346Y78628D01*
X1757332Y78614D01*
X1757247Y78515D01*
X1757191Y78402D01*
X1757135Y78289D01*
X1757106Y78177D01*
X1757092Y78078D01*
X1757078Y77993D01*
D01*
Y77923D01*
X1757092Y77768D01*
X1757121Y77627D01*
X1757149Y77500D01*
X1757205Y77401D01*
X1757247Y77317D01*
X1757276Y77260D01*
X1757304Y77232D01*
X1757318Y77218D01*
X1757431Y77133D01*
X1757543Y77077D01*
X1757670Y77035D01*
X1757783Y77007D01*
X1757882Y76993D01*
X1757966Y76978D01*
X1758023D01*
X1758037D01*
X1764620D01*
Y75104D01*
X1764634Y74963D01*
X1764648Y74850D01*
X1764677Y74737D01*
X1764719Y74652D01*
X1764761Y74582D01*
X1764789Y74540D01*
X1764803Y74511D01*
X1764818Y74497D01*
X1764902Y74413D01*
X1765001Y74356D01*
X1765099Y74314D01*
X1765184Y74286D01*
X1765269Y74272D01*
X1765339Y74258D01*
X1766171D01*
Y74483D01*
Y74258D01*
X1765396D01*
X1765522Y74272D01*
X1765635Y74300D01*
X1765734Y74328D01*
X1765818Y74370D01*
X1765875Y74427D01*
X1765917Y74455D01*
X1765945Y74483D01*
X1765959Y74497D01*
X1766030Y74582D01*
X1766086Y74681D01*
X1766115Y74793D01*
X1766143Y74878D01*
X1766157Y74977D01*
X1766171Y75033D01*
Y74483D01*
Y75033D01*
Y80771D01*
Y80714D01*
X1766157Y80855D01*
X1766143Y80982D01*
X1766100Y81081D01*
X1766072Y81165D01*
X1766030Y81236D01*
X1765988Y81292D01*
X1765974Y81320D01*
X1765959Y81334D01*
X1765875Y81405D01*
X1765790Y81461D01*
X1765692Y81503D01*
X1765607Y81532D01*
X1765522Y81546D01*
X1765452Y81560D01*
D02*
G37*
G36*
X1766298Y73327D02*
Y72115D01*
X1766284Y72312D01*
X1766241Y72495D01*
X1766199Y72651D01*
X1766143Y72778D01*
X1766072Y72890D01*
X1766030Y72961D01*
X1765988Y73003D01*
X1765974Y73017D01*
X1765847Y73116D01*
X1765692Y73200D01*
X1765551Y73257D01*
X1765410Y73285D01*
X1765283Y73313D01*
X1765184Y73327D01*
X1757938D01*
X1757797Y73313D01*
X1757670Y73299D01*
X1757558Y73257D01*
X1757473Y73215D01*
X1757402Y73186D01*
X1757346Y73144D01*
X1757318Y73130D01*
X1757304Y73116D01*
X1757233Y73017D01*
X1757177Y72918D01*
X1757135Y72820D01*
X1757106Y72721D01*
X1757092Y72636D01*
X1757078Y72566D01*
Y72495D01*
X1757092Y72355D01*
X1757106Y72228D01*
X1757149Y72129D01*
X1757191Y72030D01*
X1757219Y71974D01*
X1757262Y71918D01*
X1757276Y71889D01*
X1757290Y71875D01*
X1757388Y71805D01*
X1757487Y71748D01*
X1757600Y71720D01*
X1757699Y71692D01*
X1757797Y71678D01*
X1757868Y71664D01*
X1757924D01*
X1757938D01*
X1763253D01*
Y71607D01*
X1757811Y69380D01*
X1757614Y69281D01*
X1757473Y69155D01*
X1757374Y69028D01*
X1757304Y68887D01*
X1757262Y68760D01*
X1757247Y68661D01*
X1757233Y68591D01*
Y68562D01*
X1757262Y68365D01*
X1757318Y68196D01*
X1757417Y68055D01*
X1757529Y67942D01*
X1757628Y67858D01*
X1757727Y67801D01*
X1757783Y67773D01*
X1757811Y67759D01*
X1763253Y65546D01*
Y65489D01*
X1757938D01*
X1757797Y65475D01*
X1757670Y65461D01*
X1757558Y65419D01*
X1757473Y65377D01*
X1757402Y65348D01*
X1757346Y65306D01*
X1757318Y65292D01*
X1757304Y65278D01*
X1757233Y65179D01*
X1757177Y65080D01*
X1757135Y64982D01*
X1757106Y64883D01*
X1757092Y64799D01*
X1757078Y64728D01*
Y68605D01*
Y64658D01*
X1757092Y64517D01*
X1757121Y64390D01*
X1757149Y64291D01*
X1757191Y64192D01*
X1757233Y64136D01*
X1757276Y64080D01*
X1757290Y64051D01*
X1757304Y64037D01*
X1757402Y63967D01*
X1757501Y63910D01*
X1757600Y63868D01*
X1757713Y63840D01*
X1757797Y63826D01*
X1757868Y63812D01*
X1757078D01*
X1766298D01*
X1765085D01*
X1765283Y63826D01*
X1765466Y63868D01*
X1765621Y63910D01*
X1765748Y63967D01*
X1765847Y64037D01*
X1765917Y64080D01*
X1765959Y64122D01*
X1765974Y64136D01*
X1766086Y64263D01*
X1766157Y64404D01*
X1766213Y64559D01*
X1766255Y64700D01*
X1766284Y64827D01*
X1766298Y64925D01*
Y73327D01*
D02*
G37*
G36*
X1766326Y62543D02*
D01*
Y59047D01*
X1766312Y59399D01*
X1766270Y59738D01*
X1766213Y60048D01*
X1766157Y60302D01*
X1766100Y60527D01*
X1766072Y60612D01*
X1766044Y60682D01*
X1766016Y60739D01*
X1766002Y60781D01*
X1765988Y60809D01*
Y60823D01*
X1765847Y61091D01*
X1765692Y61345D01*
X1765536Y61542D01*
X1765381Y61725D01*
X1765240Y61852D01*
X1765128Y61951D01*
X1765057Y62021D01*
X1765043Y62036D01*
X1765029D01*
X1764789Y62176D01*
X1764550Y62289D01*
X1764296Y62360D01*
X1764084Y62416D01*
X1763887Y62444D01*
X1763732Y62459D01*
X1763676Y62473D01*
X1763633D01*
X1763605D01*
X1763591D01*
X1763408Y62459D01*
X1763225Y62444D01*
X1762900Y62360D01*
X1762604Y62219D01*
X1762336Y62050D01*
X1762111Y61852D01*
X1761899Y61627D01*
X1761716Y61387D01*
X1761561Y61133D01*
X1761420Y60880D01*
X1761322Y60640D01*
X1761223Y60414D01*
X1761152Y60217D01*
X1761096Y60048D01*
X1761068Y59907D01*
X1761039Y59822D01*
Y59794D01*
X1760856Y58850D01*
X1760786Y58554D01*
X1760715Y58300D01*
X1760631Y58102D01*
X1760560Y57933D01*
X1760504Y57807D01*
X1760448Y57722D01*
X1760419Y57666D01*
X1760405Y57651D01*
X1760292Y57539D01*
X1760180Y57454D01*
X1760067Y57384D01*
X1759954Y57341D01*
X1759855Y57313D01*
X1759771Y57299D01*
X1759714D01*
X1759700D01*
X1759517Y57313D01*
X1759362Y57369D01*
X1759221Y57454D01*
X1759094Y57539D01*
X1758996Y57623D01*
X1758925Y57708D01*
X1758883Y57764D01*
X1758869Y57778D01*
X1758756Y57962D01*
X1758685Y58159D01*
X1758629Y58370D01*
X1758587Y58554D01*
X1758559Y58723D01*
X1758544Y58864D01*
Y58991D01*
X1758559Y59230D01*
X1758587Y59456D01*
X1758629Y59653D01*
X1758671Y59822D01*
X1758714Y59949D01*
X1758756Y60062D01*
X1758784Y60118D01*
X1758798Y60147D01*
X1758897Y60316D01*
X1759024Y60471D01*
X1759151Y60584D01*
X1759263Y60682D01*
X1759376Y60753D01*
X1759461Y60809D01*
X1759517Y60837D01*
X1759545Y60851D01*
X1759644Y60922D01*
X1759743Y60978D01*
X1759813Y61035D01*
X1759870Y61091D01*
X1759940Y61190D01*
X1759968Y61204D01*
Y61218D01*
X1760039Y61373D01*
X1760081Y61542D01*
X1760095Y61613D01*
Y61711D01*
X1760081Y61838D01*
X1760067Y61965D01*
X1760025Y62064D01*
X1759982Y62148D01*
X1759940Y62219D01*
X1759912Y62275D01*
X1759884Y62303D01*
X1759870Y62318D01*
X1759785Y62388D01*
X1759686Y62444D01*
X1759573Y62487D01*
X1759489Y62515D01*
X1759390Y62529D01*
X1759334Y62543D01*
X1757050D01*
X1759263D01*
X1759080Y62529D01*
X1758925Y62487D01*
X1758855Y62473D01*
X1758798Y62459D01*
X1758770Y62444D01*
X1758756D01*
X1758615Y62388D01*
X1758488Y62318D01*
X1758248Y62148D01*
X1758023Y61951D01*
X1757854Y61754D01*
X1757713Y61570D01*
X1757600Y61415D01*
X1757572Y61359D01*
X1757543Y61317D01*
X1757515Y61288D01*
Y61274D01*
X1757360Y60922D01*
X1757247Y60555D01*
X1757163Y60175D01*
X1757106Y59822D01*
X1757092Y59653D01*
X1757078Y59512D01*
X1757064Y59371D01*
Y59258D01*
X1757050Y59160D01*
Y59033D01*
X1757064Y58723D01*
X1757078Y58441D01*
X1757121Y58159D01*
X1757163Y57905D01*
X1757233Y57680D01*
X1757290Y57454D01*
X1757360Y57257D01*
X1757431Y57073D01*
X1757501Y56918D01*
X1757572Y56777D01*
X1757642Y56665D01*
X1757699Y56566D01*
X1757741Y56481D01*
X1757783Y56425D01*
X1757797Y56397D01*
X1757811Y56383D01*
X1757966Y56213D01*
X1758121Y56058D01*
X1758291Y55932D01*
X1758460Y55819D01*
X1758629Y55720D01*
X1758812Y55650D01*
X1758981Y55579D01*
X1759136Y55537D01*
X1759292Y55495D01*
X1759433Y55466D01*
X1759573Y55438D01*
X1759686Y55424D01*
X1759771Y55410D01*
X1757050D01*
X1766326D01*
Y62543D01*
D02*
G37*
%LPD*%
G36*
X1766298Y65024D02*
X1766284Y65193D01*
X1766270Y65363D01*
X1766227Y65489D01*
X1766185Y65616D01*
X1766143Y65701D01*
X1766115Y65771D01*
X1766086Y65814D01*
X1766072Y65828D01*
X1765974Y65940D01*
X1765861Y66025D01*
X1765621Y66180D01*
X1765508Y66237D01*
X1765410Y66279D01*
X1765353Y66307D01*
X1765325Y66321D01*
X1759799Y68548D01*
Y68605D01*
X1765325Y70832D01*
X1765508Y70903D01*
X1765663Y70987D01*
X1765790Y71072D01*
X1765889Y71156D01*
X1765974Y71227D01*
X1766030Y71269D01*
X1766058Y71311D01*
X1766072Y71325D01*
X1766143Y71438D01*
X1766199Y71579D01*
X1766241Y71706D01*
X1766270Y71833D01*
X1766284Y71946D01*
X1766298Y72030D01*
Y65024D01*
D02*
G37*
G36*
X1763887Y60570D02*
X1764056Y60513D01*
X1764183Y60443D01*
X1764296Y60372D01*
X1764395Y60287D01*
X1764451Y60231D01*
X1764493Y60175D01*
X1764507Y60161D01*
X1764606Y59991D01*
X1764677Y59808D01*
X1764733Y59625D01*
X1764761Y59442D01*
X1764789Y59287D01*
X1764803Y59160D01*
Y59047D01*
X1764789Y58821D01*
X1764761Y58624D01*
X1764719Y58441D01*
X1764648Y58272D01*
X1764578Y58117D01*
X1764507Y57976D01*
X1764409Y57863D01*
X1764324Y57750D01*
X1764240Y57666D01*
X1764155Y57581D01*
X1764000Y57468D01*
X1763929Y57426D01*
X1763887Y57398D01*
X1763859Y57384D01*
X1763845D01*
X1763662Y57257D01*
X1763535Y57144D01*
X1763450Y57045D01*
X1763436Y57031D01*
X1763422Y57017D01*
X1763351Y56848D01*
X1763309Y56679D01*
Y56608D01*
X1763295Y56552D01*
Y56495D01*
X1763309Y56369D01*
X1763323Y56256D01*
X1763365Y56157D01*
X1763408Y56073D01*
X1763436Y56002D01*
X1763478Y55960D01*
X1763492Y55932D01*
X1763506Y55918D01*
X1763591Y55847D01*
X1763676Y55791D01*
X1763774Y55748D01*
X1763859Y55720D01*
X1763929Y55706D01*
X1763986Y55692D01*
X1764028D01*
X1764042D01*
X1764197Y55706D01*
X1764338Y55720D01*
X1764395Y55734D01*
X1764437Y55748D01*
X1764451Y55762D01*
X1764465D01*
X1764775Y55903D01*
X1765043Y56073D01*
X1765283Y56256D01*
X1765480Y56453D01*
X1765635Y56636D01*
X1765748Y56792D01*
X1765776Y56848D01*
X1765804Y56890D01*
X1765833Y56918D01*
Y56932D01*
X1766002Y57271D01*
X1766115Y57637D01*
X1766199Y57990D01*
X1766270Y58314D01*
X1766284Y58469D01*
X1766298Y58610D01*
X1766312Y58737D01*
Y58836D01*
X1766326Y58920D01*
Y55410D01*
X1760081D01*
X1760264Y55438D01*
X1760588Y55509D01*
X1760856Y55621D01*
X1761096Y55734D01*
X1761279Y55861D01*
X1761406Y55974D01*
X1761491Y56044D01*
X1761519Y56058D01*
Y56073D01*
X1761632Y56199D01*
X1761730Y56340D01*
X1761913Y56665D01*
X1762069Y57017D01*
X1762195Y57355D01*
X1762280Y57666D01*
X1762322Y57792D01*
X1762351Y57905D01*
X1762379Y58004D01*
X1762393Y58088D01*
X1762407Y58131D01*
Y58145D01*
X1762604Y59089D01*
X1762661Y59371D01*
X1762731Y59597D01*
X1762802Y59794D01*
X1762872Y59949D01*
X1762928Y60076D01*
X1762985Y60161D01*
X1763013Y60217D01*
X1763027Y60231D01*
X1763140Y60344D01*
X1763253Y60429D01*
X1763365Y60499D01*
X1763478Y60541D01*
X1763577Y60570D01*
X1763647Y60584D01*
X1763704D01*
X1763718D01*
X1763887Y60570D01*
D02*
G37*
%LPC*%
G36*
X1714624Y81560D02*
X1714567D01*
X1714440Y81546D01*
X1714328Y81518D01*
X1714229Y81489D01*
X1714144Y81447D01*
X1714074Y81405D01*
X1714032Y81363D01*
X1714003Y81348D01*
X1713989Y81334D01*
X1713919Y81236D01*
X1713877Y81137D01*
X1713820Y80940D01*
X1713806Y80841D01*
X1713792Y80771D01*
Y78853D01*
X1707209D01*
X1707054Y78839D01*
X1706913Y78811D01*
X1706786Y78783D01*
X1706687Y78726D01*
X1706602Y78684D01*
X1706546Y78656D01*
X1706518Y78628D01*
X1706504Y78614D01*
X1706419Y78515D01*
X1706363Y78402D01*
X1706306Y78289D01*
X1706278Y78177D01*
X1706264Y78078D01*
X1706250Y77993D01*
D01*
Y77923D01*
X1706264Y77768D01*
X1706292Y77627D01*
X1706321Y77500D01*
X1706377Y77401D01*
X1706419Y77317D01*
X1706447Y77260D01*
X1706476Y77232D01*
X1706490Y77218D01*
X1706602Y77133D01*
X1706715Y77077D01*
X1706842Y77035D01*
X1706955Y77007D01*
X1707054Y76993D01*
X1707138Y76978D01*
X1707195D01*
X1707209D01*
X1713792D01*
Y75104D01*
X1713806Y74963D01*
X1713820Y74850D01*
X1713848Y74737D01*
X1713891Y74652D01*
X1713933Y74582D01*
X1713961Y74540D01*
X1713975Y74511D01*
X1713989Y74497D01*
X1714074Y74413D01*
X1714173Y74356D01*
X1714271Y74314D01*
X1714356Y74286D01*
X1714440Y74272D01*
X1714511Y74258D01*
X1715343D01*
Y74483D01*
Y74258D01*
X1714567D01*
X1714694Y74272D01*
X1714807Y74300D01*
X1714906Y74328D01*
X1714990Y74370D01*
X1715047Y74427D01*
X1715089Y74455D01*
X1715117Y74483D01*
X1715131Y74497D01*
X1715202Y74582D01*
X1715258Y74681D01*
X1715286Y74793D01*
X1715314Y74878D01*
X1715329Y74977D01*
X1715343Y75033D01*
Y74483D01*
Y75033D01*
Y80771D01*
Y80714D01*
X1715329Y80855D01*
X1715314Y80982D01*
X1715272Y81081D01*
X1715244Y81165D01*
X1715202Y81236D01*
X1715159Y81292D01*
X1715145Y81320D01*
X1715131Y81334D01*
X1715047Y81405D01*
X1714962Y81461D01*
X1714863Y81503D01*
X1714779Y81532D01*
X1714694Y81546D01*
X1714624Y81560D01*
D02*
G37*
G36*
X1715470Y73454D02*
D01*
Y72453D01*
X1715455Y72594D01*
X1715427Y72735D01*
X1715385Y72848D01*
X1715343Y72947D01*
X1715300Y73017D01*
X1715258Y73088D01*
X1715230Y73116D01*
X1715216Y73130D01*
X1715117Y73215D01*
X1715004Y73285D01*
X1714906Y73327D01*
X1714807Y73370D01*
X1714722Y73384D01*
X1714652Y73398D01*
X1714595D01*
X1714581D01*
X1714454Y73384D01*
X1714328Y73355D01*
X1714201Y73313D01*
X1714088Y73257D01*
X1714003Y73215D01*
X1713919Y73172D01*
X1713877Y73144D01*
X1713862Y73130D01*
X1710916Y70959D01*
X1710860D01*
X1707730Y73200D01*
X1707603Y73285D01*
X1707477Y73341D01*
X1707364Y73398D01*
X1707265Y73426D01*
X1707180Y73440D01*
X1707110Y73454D01*
X1707054D01*
X1706927Y73440D01*
X1706828Y73412D01*
X1706729Y73370D01*
X1706645Y73327D01*
X1706574Y73285D01*
X1706518Y73243D01*
X1706490Y73215D01*
X1706476Y73200D01*
X1706405Y73102D01*
X1706349Y72989D01*
X1706306Y72890D01*
X1706278Y72792D01*
X1706264Y72693D01*
X1706250Y72622D01*
Y72566D01*
X1706264Y72383D01*
X1706306Y72242D01*
X1706321Y72200D01*
X1706335Y72157D01*
X1706349Y72143D01*
Y72129D01*
X1706391Y72059D01*
X1706447Y72002D01*
X1706560Y71889D01*
X1706617Y71847D01*
X1706659Y71805D01*
X1706687Y71791D01*
X1706701Y71777D01*
X1709507Y69803D01*
Y69747D01*
X1706701Y67745D01*
X1706546Y67604D01*
X1706447Y67491D01*
X1706377Y67407D01*
X1706363Y67392D01*
Y67378D01*
X1706292Y67223D01*
X1706264Y67082D01*
X1706250Y67012D01*
Y65954D01*
Y66927D01*
X1706264Y66786D01*
X1706292Y66659D01*
X1706321Y66547D01*
X1706363Y66448D01*
X1706405Y66377D01*
X1706447Y66321D01*
X1706461Y66293D01*
X1706476Y66279D01*
X1706574Y66194D01*
X1706673Y66138D01*
X1706772Y66081D01*
X1706870Y66053D01*
X1706955Y66039D01*
X1707025Y66025D01*
X1707068D01*
X1707082D01*
X1707223Y66039D01*
X1707350Y66067D01*
X1707462Y66110D01*
X1707561Y66152D01*
X1707646Y66194D01*
X1707716Y66237D01*
X1707758Y66265D01*
X1707773Y66279D01*
X1710832Y68548D01*
X1710874D01*
X1713989Y66208D01*
X1714116Y66124D01*
X1714229Y66067D01*
X1714342Y66011D01*
X1714454Y65983D01*
X1714539Y65969D01*
X1714610Y65954D01*
X1706250D01*
X1715470D01*
Y66081D01*
Y65954D01*
X1714666D01*
X1714793Y65969D01*
X1714892Y65997D01*
X1714990Y66039D01*
X1715075Y66095D01*
X1715145Y66152D01*
X1715188Y66194D01*
X1715216Y66222D01*
X1715230Y66237D01*
X1715314Y66335D01*
X1715371Y66448D01*
X1715413Y66561D01*
X1715441Y66659D01*
X1715455Y66744D01*
X1715470Y66814D01*
Y66081D01*
Y66814D01*
Y66871D01*
X1715455Y67054D01*
X1715413Y67195D01*
X1715399Y67237D01*
X1715371Y67280D01*
X1715357Y67294D01*
Y67308D01*
X1715314Y67364D01*
X1715258Y67435D01*
X1715145Y67533D01*
X1715089Y67590D01*
X1715047Y67618D01*
X1715018Y67632D01*
X1715004Y67646D01*
X1712100Y69634D01*
Y69676D01*
X1714948Y71607D01*
X1715117Y71734D01*
X1715244Y71861D01*
X1715314Y71946D01*
X1715343Y71974D01*
Y71988D01*
X1715413Y72143D01*
X1715455Y72298D01*
X1715470Y72355D01*
Y66871D01*
Y73454D01*
D02*
G37*
G36*
X1714440Y64587D02*
X1707336D01*
X1707166Y64573D01*
X1707025Y64545D01*
X1706898Y64517D01*
X1706800Y64460D01*
X1706715Y64418D01*
X1706659Y64390D01*
X1706631Y64362D01*
X1706617Y64348D01*
X1706532Y64249D01*
X1706476Y64136D01*
X1706419Y64023D01*
X1706391Y63910D01*
X1706377Y63812D01*
X1706363Y63727D01*
Y64587D01*
Y61161D01*
X1706377Y60795D01*
X1706419Y60443D01*
X1706476Y60118D01*
X1706546Y59808D01*
X1706645Y59526D01*
X1706743Y59273D01*
X1706842Y59033D01*
X1706955Y58821D01*
X1707068Y58638D01*
X1707166Y58469D01*
X1707279Y58328D01*
X1707364Y58215D01*
X1707434Y58117D01*
X1707491Y58060D01*
X1707533Y58018D01*
X1707547Y58004D01*
X1707787Y57807D01*
X1708040Y57637D01*
X1708294Y57482D01*
X1708576Y57355D01*
X1708858Y57243D01*
X1709126Y57144D01*
X1709408Y57073D01*
X1709662Y57017D01*
X1709915Y56975D01*
X1710141Y56932D01*
X1710352Y56904D01*
X1710536Y56890D01*
X1710677Y56876D01*
X1715343D01*
Y64023D01*
Y63657D01*
X1715329Y63812D01*
X1715300Y63953D01*
X1715258Y64065D01*
X1715216Y64164D01*
X1715159Y64249D01*
X1715117Y64305D01*
X1715089Y64333D01*
X1715075Y64348D01*
X1714976Y64432D01*
X1714863Y64488D01*
X1714736Y64531D01*
X1714624Y64559D01*
X1714525Y64573D01*
X1714440Y64587D01*
D02*
G37*
%LPD*%
G36*
X1713792Y61387D02*
X1713778Y61161D01*
X1713764Y60950D01*
X1713679Y60570D01*
X1713623Y60386D01*
X1713552Y60231D01*
X1713482Y60090D01*
X1713411Y59963D01*
X1713341Y59851D01*
X1713270Y59752D01*
X1713214Y59667D01*
X1713143Y59597D01*
X1713101Y59540D01*
X1713059Y59498D01*
X1713045Y59484D01*
X1713031Y59470D01*
X1712890Y59357D01*
X1712721Y59244D01*
X1712382Y59075D01*
X1712016Y58962D01*
X1711677Y58878D01*
X1711508Y58850D01*
X1711353Y58821D01*
X1711226Y58807D01*
X1711099D01*
X1711015Y58793D01*
X1710930D01*
X1710888D01*
X1710874D01*
X1710606D01*
X1710366Y58821D01*
X1710127Y58850D01*
X1709915Y58892D01*
X1709718Y58948D01*
X1709535Y59005D01*
X1709366Y59061D01*
X1709225Y59117D01*
X1709098Y59188D01*
X1708985Y59244D01*
X1708886Y59301D01*
X1708802Y59357D01*
X1708745Y59399D01*
X1708703Y59428D01*
X1708675Y59442D01*
X1708661Y59456D01*
X1708534Y59583D01*
X1708421Y59724D01*
X1708308Y59879D01*
X1708224Y60034D01*
X1708097Y60358D01*
X1708012Y60668D01*
X1707956Y60950D01*
X1707942Y61077D01*
X1707928Y61176D01*
X1707914Y61260D01*
Y62712D01*
X1713792D01*
Y61387D01*
D02*
G37*
G36*
X1715343Y56876D02*
X1710888D01*
X1711283Y56890D01*
X1711635Y56918D01*
X1711988Y56975D01*
X1712298Y57045D01*
X1712594Y57144D01*
X1712862Y57228D01*
X1713115Y57341D01*
X1713327Y57440D01*
X1713524Y57539D01*
X1713693Y57651D01*
X1713834Y57736D01*
X1713961Y57821D01*
X1714046Y57905D01*
X1714116Y57962D01*
X1714158Y57990D01*
X1714173Y58004D01*
X1714384Y58229D01*
X1714553Y58469D01*
X1714722Y58709D01*
X1714849Y58976D01*
X1714962Y59230D01*
X1715061Y59498D01*
X1715131Y59752D01*
X1715202Y60006D01*
X1715244Y60245D01*
X1715286Y60457D01*
X1715300Y60654D01*
X1715329Y60823D01*
Y60964D01*
X1715343Y61077D01*
Y56876D01*
D02*
G37*
%LPC*%
G36*
X1739854Y81560D02*
X1732623D01*
X1732454Y81546D01*
X1732313Y81518D01*
X1732186Y81489D01*
X1732087Y81433D01*
X1732003Y81391D01*
X1731946Y81362D01*
X1731918Y81334D01*
X1731904Y81320D01*
X1731819Y81222D01*
X1731763Y81109D01*
X1731706Y80996D01*
X1731678Y80883D01*
X1731664Y80785D01*
X1731650Y80700D01*
Y79685D01*
Y80630D01*
X1731664Y80474D01*
X1731692Y80333D01*
X1731735Y80207D01*
X1731777Y80108D01*
X1731819Y80037D01*
X1731862Y79981D01*
X1731890Y79953D01*
X1731904Y79939D01*
X1732003Y79854D01*
X1732129Y79798D01*
X1732242Y79741D01*
X1732355Y79713D01*
X1732468Y79699D01*
X1732552Y79685D01*
X1732609D01*
X1732623D01*
X1735061D01*
Y78078D01*
X1732355Y76584D01*
X1732214Y76499D01*
X1732087Y76429D01*
X1731988Y76344D01*
X1731918Y76288D01*
X1731862Y76231D01*
X1731819Y76189D01*
X1731805Y76175D01*
X1731791Y76161D01*
X1731706Y75992D01*
X1731664Y75822D01*
Y75738D01*
X1731650Y75681D01*
Y75696D01*
Y74638D01*
Y75625D01*
X1731664Y75484D01*
X1731692Y75343D01*
X1731720Y75230D01*
X1731777Y75132D01*
X1731819Y75061D01*
X1731847Y74991D01*
X1731876Y74963D01*
X1731890Y74948D01*
X1731988Y74864D01*
X1732087Y74793D01*
X1732186Y74751D01*
X1732284Y74709D01*
X1732369Y74695D01*
X1732440Y74681D01*
X1732482D01*
X1732496D01*
X1732609Y74695D01*
X1732735Y74709D01*
X1732834Y74737D01*
X1732933Y74779D01*
X1733017Y74822D01*
X1733088Y74850D01*
X1733130Y74864D01*
X1733144Y74878D01*
X1735386Y76175D01*
X1735513Y75921D01*
X1735668Y75696D01*
X1735837Y75498D01*
X1735992Y75329D01*
X1736133Y75216D01*
X1736246Y75118D01*
X1736330Y75061D01*
X1736344Y75047D01*
X1736358D01*
X1736612Y74906D01*
X1736880Y74807D01*
X1737148Y74737D01*
X1737388Y74695D01*
X1737585Y74652D01*
X1737754Y74638D01*
X1731650D01*
X1737895D01*
X1738135Y74652D01*
X1738374Y74681D01*
X1738586Y74723D01*
X1738783Y74765D01*
X1738981Y74836D01*
X1739150Y74906D01*
X1739305Y74991D01*
X1739446Y75061D01*
X1739573Y75146D01*
X1739685Y75230D01*
X1739784Y75301D01*
X1739854Y75357D01*
X1739911Y75414D01*
X1739967Y75456D01*
X1739981Y75484D01*
X1739996Y75498D01*
X1740136Y75667D01*
X1740249Y75837D01*
X1740348Y76034D01*
X1740432Y76231D01*
X1740573Y76626D01*
X1740658Y77007D01*
X1740700Y77190D01*
X1740714Y77345D01*
X1740728Y77500D01*
X1740743Y77627D01*
X1740757Y77740D01*
Y80996D01*
Y80630D01*
X1740743Y80785D01*
X1740714Y80926D01*
X1740672Y81038D01*
X1740630Y81137D01*
X1740573Y81222D01*
X1740531Y81278D01*
X1740503Y81306D01*
X1740489Y81320D01*
X1740390Y81405D01*
X1740277Y81461D01*
X1740150Y81503D01*
X1740038Y81532D01*
X1739939Y81546D01*
X1739854Y81560D01*
D02*
G37*
G36*
X1740884Y73525D02*
D01*
Y72524D01*
X1740869Y72665D01*
X1740841Y72806D01*
X1740799Y72918D01*
X1740757Y73017D01*
X1740714Y73088D01*
X1740672Y73158D01*
X1740644Y73186D01*
X1740630Y73200D01*
X1740531Y73285D01*
X1740418Y73355D01*
X1740320Y73398D01*
X1740221Y73440D01*
X1740136Y73454D01*
X1740066Y73468D01*
X1740010D01*
X1739996D01*
X1739869Y73454D01*
X1739742Y73426D01*
X1739615Y73384D01*
X1739502Y73327D01*
X1739418Y73285D01*
X1739333Y73243D01*
X1739291Y73215D01*
X1739276Y73200D01*
X1736330Y71029D01*
X1736274D01*
X1733144Y73271D01*
X1733017Y73355D01*
X1732891Y73412D01*
X1732778Y73468D01*
X1732679Y73496D01*
X1732595Y73510D01*
X1732524Y73525D01*
X1732468D01*
X1732341Y73510D01*
X1732242Y73482D01*
X1732143Y73440D01*
X1732059Y73398D01*
X1731988Y73355D01*
X1731932Y73313D01*
X1731904Y73285D01*
X1731890Y73271D01*
X1731819Y73172D01*
X1731763Y73059D01*
X1731720Y72961D01*
X1731692Y72862D01*
X1731678Y72763D01*
X1731664Y72693D01*
Y72636D01*
X1731678Y72453D01*
X1731720Y72312D01*
X1731735Y72270D01*
X1731749Y72228D01*
X1731763Y72214D01*
Y72200D01*
X1731805Y72129D01*
X1731862Y72073D01*
X1731974Y71960D01*
X1732031Y71918D01*
X1732073Y71875D01*
X1732101Y71861D01*
X1732115Y71847D01*
X1734921Y69873D01*
Y69817D01*
X1732115Y67815D01*
X1731960Y67674D01*
X1731862Y67562D01*
X1731791Y67477D01*
X1731777Y67463D01*
Y67449D01*
X1731706Y67294D01*
X1731678Y67153D01*
X1731664Y67082D01*
Y66025D01*
Y66998D01*
X1731678Y66857D01*
X1731706Y66730D01*
X1731735Y66617D01*
X1731777Y66518D01*
X1731819Y66448D01*
X1731862Y66392D01*
X1731876Y66363D01*
X1731890Y66349D01*
X1731988Y66265D01*
X1732087Y66208D01*
X1732186Y66152D01*
X1732284Y66124D01*
X1732369Y66110D01*
X1732440Y66095D01*
X1732482D01*
X1732496D01*
X1732637Y66110D01*
X1732764Y66138D01*
X1732876Y66180D01*
X1732975Y66222D01*
X1733060Y66265D01*
X1733130Y66307D01*
X1733172Y66335D01*
X1733187Y66349D01*
X1736246Y68619D01*
X1736288D01*
X1739403Y66279D01*
X1739530Y66194D01*
X1739643Y66138D01*
X1739756Y66081D01*
X1739869Y66053D01*
X1739953Y66039D01*
X1740024Y66025D01*
X1731664D01*
X1740884D01*
Y66152D01*
Y66025D01*
X1740080D01*
X1740207Y66039D01*
X1740306Y66067D01*
X1740404Y66110D01*
X1740489Y66166D01*
X1740559Y66222D01*
X1740602Y66265D01*
X1740630Y66293D01*
X1740644Y66307D01*
X1740728Y66406D01*
X1740785Y66518D01*
X1740827Y66631D01*
X1740855Y66730D01*
X1740869Y66814D01*
X1740884Y66885D01*
Y66152D01*
Y66885D01*
Y66941D01*
X1740869Y67125D01*
X1740827Y67266D01*
X1740813Y67308D01*
X1740785Y67350D01*
X1740771Y67364D01*
Y67378D01*
X1740728Y67435D01*
X1740672Y67505D01*
X1740559Y67604D01*
X1740503Y67660D01*
X1740461Y67688D01*
X1740432Y67702D01*
X1740418Y67717D01*
X1737514Y69704D01*
Y69747D01*
X1740362Y71678D01*
X1740531Y71805D01*
X1740658Y71932D01*
X1740728Y72016D01*
X1740757Y72044D01*
Y72059D01*
X1740827Y72214D01*
X1740869Y72369D01*
X1740884Y72425D01*
Y66941D01*
Y73525D01*
D02*
G37*
G36*
X1739854Y64658D02*
X1732750D01*
X1732581Y64644D01*
X1732440Y64615D01*
X1732313Y64587D01*
X1732214Y64531D01*
X1732129Y64488D01*
X1732073Y64460D01*
X1732045Y64432D01*
X1732031Y64418D01*
X1731946Y64319D01*
X1731890Y64207D01*
X1731833Y64094D01*
X1731805Y63981D01*
X1731791Y63882D01*
X1731777Y63798D01*
Y64658D01*
Y61232D01*
X1731791Y60866D01*
X1731833Y60513D01*
X1731890Y60189D01*
X1731960Y59879D01*
X1732059Y59597D01*
X1732157Y59343D01*
X1732256Y59103D01*
X1732369Y58892D01*
X1732482Y58709D01*
X1732581Y58540D01*
X1732693Y58398D01*
X1732778Y58286D01*
X1732848Y58187D01*
X1732905Y58131D01*
X1732947Y58088D01*
X1732961Y58074D01*
X1733201Y57877D01*
X1733454Y57708D01*
X1733708Y57553D01*
X1733990Y57426D01*
X1734272Y57313D01*
X1734540Y57214D01*
X1734822Y57144D01*
X1735076Y57087D01*
X1735329Y57045D01*
X1735555Y57003D01*
X1735766Y56975D01*
X1735950Y56961D01*
X1736091Y56947D01*
X1740757D01*
Y64094D01*
Y63727D01*
X1740743Y63882D01*
X1740714Y64023D01*
X1740672Y64136D01*
X1740630Y64235D01*
X1740573Y64319D01*
X1740531Y64376D01*
X1740503Y64404D01*
X1740489Y64418D01*
X1740390Y64503D01*
X1740277Y64559D01*
X1740150Y64601D01*
X1740038Y64629D01*
X1739939Y64644D01*
X1739854Y64658D01*
D02*
G37*
%LPD*%
G36*
X1739291Y78078D02*
X1739276Y77838D01*
X1739234Y77613D01*
X1739164Y77429D01*
X1739093Y77274D01*
X1739023Y77147D01*
X1738952Y77049D01*
X1738910Y76993D01*
X1738896Y76978D01*
X1738741Y76837D01*
X1738572Y76739D01*
X1738403Y76668D01*
X1738233Y76626D01*
X1738078Y76584D01*
X1737966Y76569D01*
X1737881D01*
X1737867D01*
X1737853D01*
X1737613Y76584D01*
X1737416Y76626D01*
X1737233Y76696D01*
X1737077Y76767D01*
X1736965Y76837D01*
X1736880Y76908D01*
X1736824Y76950D01*
X1736810Y76964D01*
X1736683Y77119D01*
X1736584Y77303D01*
X1736528Y77486D01*
X1736471Y77655D01*
X1736443Y77824D01*
X1736429Y77951D01*
Y79685D01*
X1739291D01*
Y78078D01*
D02*
G37*
G36*
X1739206Y61458D02*
X1739192Y61232D01*
X1739178Y61021D01*
X1739093Y60640D01*
X1739037Y60457D01*
X1738966Y60302D01*
X1738896Y60161D01*
X1738825Y60034D01*
X1738755Y59921D01*
X1738685Y59822D01*
X1738628Y59738D01*
X1738558Y59667D01*
X1738515Y59611D01*
X1738473Y59569D01*
X1738459Y59555D01*
X1738445Y59540D01*
X1738304Y59428D01*
X1738135Y59315D01*
X1737796Y59146D01*
X1737430Y59033D01*
X1737092Y58948D01*
X1736922Y58920D01*
X1736767Y58892D01*
X1736640Y58878D01*
X1736514D01*
X1736429Y58864D01*
X1736344D01*
X1736302D01*
X1736288D01*
X1736020D01*
X1735780Y58892D01*
X1735541Y58920D01*
X1735329Y58962D01*
X1735132Y59019D01*
X1734949Y59075D01*
X1734780Y59132D01*
X1734639Y59188D01*
X1734512Y59258D01*
X1734399Y59315D01*
X1734300Y59371D01*
X1734216Y59428D01*
X1734159Y59470D01*
X1734117Y59498D01*
X1734089Y59512D01*
X1734075Y59526D01*
X1733948Y59653D01*
X1733835Y59794D01*
X1733722Y59949D01*
X1733638Y60104D01*
X1733511Y60429D01*
X1733426Y60739D01*
X1733370Y61021D01*
X1733356Y61147D01*
X1733342Y61246D01*
X1733328Y61331D01*
Y62783D01*
X1739206D01*
Y61458D01*
D02*
G37*
G36*
X1740757Y56947D02*
X1736302D01*
X1736697Y56961D01*
X1737049Y56989D01*
X1737402Y57045D01*
X1737712Y57116D01*
X1738008Y57214D01*
X1738276Y57299D01*
X1738529Y57412D01*
X1738741Y57510D01*
X1738938Y57609D01*
X1739107Y57722D01*
X1739248Y57806D01*
X1739375Y57891D01*
X1739460Y57976D01*
X1739530Y58032D01*
X1739573Y58060D01*
X1739587Y58074D01*
X1739798Y58300D01*
X1739967Y58540D01*
X1740136Y58779D01*
X1740263Y59047D01*
X1740376Y59301D01*
X1740475Y59569D01*
X1740545Y59822D01*
X1740616Y60076D01*
X1740658Y60316D01*
X1740700Y60527D01*
X1740714Y60725D01*
X1740743Y60894D01*
Y61035D01*
X1740757Y61147D01*
Y56947D01*
D02*
G37*
%LPC*%
G36*
X1867926Y81560D02*
X1858650D01*
X1863302D01*
X1862907Y81546D01*
X1862527Y81503D01*
X1862174Y81447D01*
X1861850Y81377D01*
X1861540Y81292D01*
X1861258Y81193D01*
X1861004Y81095D01*
X1860765Y80982D01*
X1860567Y80869D01*
X1860384Y80771D01*
X1860229Y80672D01*
X1860102Y80587D01*
X1860003Y80517D01*
X1859933Y80446D01*
X1859891Y80418D01*
X1859877Y80404D01*
X1859665Y80178D01*
X1859468Y79939D01*
X1859313Y79685D01*
X1859172Y79417D01*
X1859045Y79149D01*
X1858946Y78896D01*
X1858876Y78628D01*
X1858805Y78388D01*
X1858749Y78148D01*
X1858721Y77937D01*
X1858692Y77740D01*
X1858664Y77571D01*
Y77429D01*
X1858650Y77317D01*
Y77232D01*
X1858664Y76894D01*
X1858692Y76570D01*
X1858749Y76259D01*
X1858805Y75978D01*
X1858890Y75724D01*
X1858974Y75484D01*
X1859073Y75258D01*
X1859172Y75061D01*
X1859256Y74892D01*
X1859355Y74737D01*
X1859440Y74596D01*
X1859524Y74497D01*
X1859581Y74413D01*
X1859637Y74342D01*
X1859665Y74314D01*
X1859679Y74300D01*
X1859877Y74117D01*
X1860088Y73948D01*
X1860314Y73807D01*
X1860553Y73694D01*
X1860779Y73581D01*
X1861004Y73496D01*
X1861230Y73426D01*
X1861455Y73370D01*
X1861653Y73327D01*
X1861850Y73299D01*
X1862019Y73271D01*
X1862174Y73257D01*
X1862287Y73243D01*
X1867926D01*
Y77274D01*
X1867912Y77641D01*
X1867870Y77979D01*
X1867813Y78303D01*
X1867728Y78600D01*
X1867644Y78882D01*
X1867531Y79135D01*
X1867418Y79375D01*
X1867306Y79586D01*
X1867193Y79784D01*
X1867080Y79953D01*
X1866967Y80094D01*
X1866883Y80207D01*
X1866798Y80291D01*
X1866742Y80362D01*
X1866700Y80404D01*
X1866685Y80418D01*
X1866446Y80615D01*
X1866192Y80799D01*
X1865924Y80954D01*
X1865642Y81081D01*
X1865360Y81193D01*
X1865078Y81278D01*
X1864796Y81363D01*
X1864529Y81419D01*
X1864289Y81461D01*
X1864049Y81503D01*
X1863838Y81518D01*
X1863654Y81546D01*
X1863513D01*
X1863401Y81560D01*
X1867926D01*
D02*
G37*
G36*
X1867024Y72002D02*
X1859609D01*
X1859454Y71988D01*
X1859313Y71960D01*
X1859186Y71932D01*
X1859101Y71875D01*
X1859017Y71833D01*
X1858960Y71805D01*
X1858932Y71777D01*
X1858918Y71762D01*
X1858833Y71664D01*
X1858777Y71551D01*
X1858735Y71452D01*
X1858707Y71340D01*
X1858692Y71241D01*
X1858678Y71170D01*
Y71100D01*
X1858692Y70945D01*
X1858721Y70818D01*
X1858749Y70705D01*
X1858805Y70621D01*
X1858847Y70550D01*
X1858876Y70494D01*
X1858904Y70466D01*
X1858918Y70451D01*
X1859017Y70367D01*
X1859129Y70311D01*
X1859242Y70268D01*
X1859355Y70240D01*
X1859454Y70226D01*
X1859538Y70212D01*
X1859595D01*
X1859609D01*
X1864669D01*
Y70155D01*
X1859214Y66251D01*
X1859101Y66166D01*
X1859017Y66095D01*
X1858946Y66025D01*
X1858890Y65954D01*
X1858847Y65912D01*
X1858819Y65870D01*
X1858791Y65842D01*
Y65828D01*
X1858721Y65658D01*
X1858692Y65489D01*
X1858678Y65419D01*
Y70155D01*
Y64390D01*
Y65306D01*
X1858692Y65151D01*
X1858721Y65010D01*
X1858749Y64897D01*
X1858791Y64799D01*
X1858833Y64728D01*
X1858876Y64672D01*
X1858890Y64644D01*
X1858904Y64629D01*
X1859003Y64545D01*
X1859115Y64488D01*
X1859228Y64446D01*
X1859327Y64418D01*
X1859425Y64404D01*
X1859510Y64390D01*
X1858678D01*
X1867898D01*
X1866953D01*
X1867108Y64404D01*
X1867249Y64432D01*
X1867376Y64460D01*
X1867475Y64503D01*
X1867545Y64559D01*
X1867602Y64587D01*
X1867630Y64615D01*
X1867644Y64629D01*
X1867728Y64728D01*
X1867785Y64827D01*
X1867841Y64939D01*
X1867870Y65052D01*
X1867884Y65151D01*
X1867898Y65222D01*
Y65292D01*
X1867884Y65447D01*
X1867855Y65574D01*
X1867813Y65687D01*
X1867771Y65785D01*
X1867728Y65856D01*
X1867686Y65912D01*
X1867658Y65940D01*
X1867644Y65954D01*
X1867545Y66039D01*
X1867433Y66095D01*
X1867320Y66138D01*
X1867207Y66166D01*
X1867108Y66180D01*
X1867024Y66194D01*
X1866967D01*
X1866953D01*
X1861921D01*
Y66237D01*
X1867348Y70127D01*
X1867447Y70212D01*
X1867545Y70282D01*
X1867616Y70353D01*
X1867672Y70423D01*
X1867715Y70480D01*
X1867743Y70522D01*
X1867771Y70550D01*
Y70564D01*
X1867841Y70733D01*
X1867884Y70889D01*
X1867898Y70959D01*
Y71058D01*
X1867884Y71213D01*
X1867855Y71354D01*
X1867813Y71481D01*
X1867771Y71579D01*
X1867728Y71664D01*
X1867686Y71720D01*
X1867658Y71748D01*
X1867644Y71762D01*
X1867545Y71847D01*
X1867433Y71904D01*
X1867320Y71946D01*
X1867207Y71974D01*
X1867108Y71988D01*
X1867024Y72002D01*
D02*
G37*
G36*
X1866869Y62895D02*
X1859764D01*
X1859595Y62881D01*
X1859454Y62853D01*
X1859327Y62825D01*
X1859228Y62769D01*
X1859144Y62726D01*
X1859087Y62698D01*
X1859059Y62670D01*
X1859045Y62656D01*
X1858960Y62557D01*
X1858904Y62444D01*
X1858847Y62332D01*
X1858819Y62219D01*
X1858805Y62120D01*
X1858791Y62036D01*
Y55184D01*
Y59470D01*
X1858805Y59103D01*
X1858847Y58751D01*
X1858904Y58427D01*
X1858974Y58117D01*
X1859073Y57835D01*
X1859172Y57581D01*
X1859270Y57341D01*
X1859383Y57130D01*
X1859496Y56947D01*
X1859595Y56777D01*
X1859707Y56636D01*
X1859792Y56524D01*
X1859862Y56425D01*
X1859919Y56369D01*
X1859961Y56326D01*
X1859975Y56312D01*
X1860215Y56115D01*
X1860469Y55946D01*
X1860722Y55791D01*
X1861004Y55664D01*
X1861286Y55551D01*
X1861554Y55452D01*
X1861836Y55382D01*
X1862090Y55325D01*
X1862343Y55283D01*
X1862569Y55241D01*
X1862780Y55213D01*
X1862964Y55198D01*
X1863105Y55184D01*
X1867771D01*
Y62332D01*
Y61965D01*
X1867757Y62120D01*
X1867728Y62261D01*
X1867686Y62374D01*
X1867644Y62473D01*
X1867588Y62557D01*
X1867545Y62614D01*
X1867517Y62642D01*
X1867503Y62656D01*
X1867404Y62740D01*
X1867292Y62797D01*
X1867165Y62839D01*
X1867052Y62867D01*
X1866953Y62881D01*
X1866869Y62895D01*
D02*
G37*
%LPD*%
G36*
X1863598Y79629D02*
X1863838Y79615D01*
X1864077Y79586D01*
X1864289Y79544D01*
X1864486Y79502D01*
X1864669Y79445D01*
X1864839Y79389D01*
X1864994Y79333D01*
X1865121Y79276D01*
X1865247Y79220D01*
X1865346Y79163D01*
X1865431Y79121D01*
X1865487Y79079D01*
X1865529Y79051D01*
X1865558Y79022D01*
X1865572D01*
X1865713Y78896D01*
X1865840Y78769D01*
X1865938Y78628D01*
X1866037Y78487D01*
X1866122Y78332D01*
X1866178Y78191D01*
X1866277Y77909D01*
X1866333Y77655D01*
X1866347Y77556D01*
X1866361Y77458D01*
X1866375Y77387D01*
Y77274D01*
X1866361Y77035D01*
X1866319Y76809D01*
X1866263Y76598D01*
X1866192Y76400D01*
X1866093Y76231D01*
X1865995Y76062D01*
X1865882Y75921D01*
X1865783Y75780D01*
X1865670Y75667D01*
X1865558Y75569D01*
X1865459Y75484D01*
X1865360Y75414D01*
X1865290Y75357D01*
X1865233Y75315D01*
X1865191Y75301D01*
X1865177Y75287D01*
X1864994Y75160D01*
X1864853Y75005D01*
X1864768Y74864D01*
X1864698Y74709D01*
X1864655Y74582D01*
X1864641Y74483D01*
X1864627Y74413D01*
Y74384D01*
X1864641Y74258D01*
X1864669Y74131D01*
X1864698Y74032D01*
X1864740Y73948D01*
X1864782Y73877D01*
X1864825Y73835D01*
X1864839Y73807D01*
X1864853Y73793D01*
X1864937Y73722D01*
X1865036Y73666D01*
X1865135Y73623D01*
X1865233Y73595D01*
X1865304Y73581D01*
X1865374Y73567D01*
X1865417D01*
X1865431D01*
X1865656Y73581D01*
X1865755Y73609D01*
X1865840Y73623D01*
X1865924Y73651D01*
X1865981Y73680D01*
X1866009Y73694D01*
X1866023D01*
X1866319Y73863D01*
X1866601Y74074D01*
X1866826Y74300D01*
X1867024Y74525D01*
X1867179Y74737D01*
X1867292Y74906D01*
X1867334Y74963D01*
X1867362Y75019D01*
X1867390Y75047D01*
Y75061D01*
X1867574Y75428D01*
X1867700Y75808D01*
X1867799Y76189D01*
X1867855Y76527D01*
X1867884Y76682D01*
X1867898Y76823D01*
X1867912Y76950D01*
Y77063D01*
X1867926Y77147D01*
Y73243D01*
X1862597D01*
X1862766Y73257D01*
X1862907Y73285D01*
X1863034Y73327D01*
X1863133Y73370D01*
X1863217Y73412D01*
X1863274Y73454D01*
X1863302Y73482D01*
X1863316Y73496D01*
X1863401Y73595D01*
X1863457Y73708D01*
X1863513Y73821D01*
X1863542Y73933D01*
X1863556Y74032D01*
X1863570Y74117D01*
Y76386D01*
X1863556Y76513D01*
X1863542Y76612D01*
X1863513Y76711D01*
X1863485Y76781D01*
X1863443Y76852D01*
X1863415Y76894D01*
X1863401Y76922D01*
X1863387Y76936D01*
X1863316Y77007D01*
X1863232Y77063D01*
X1863147Y77091D01*
X1863062Y77119D01*
X1862992Y77133D01*
X1862936Y77147D01*
X1862893D01*
X1862879D01*
X1862766Y77133D01*
X1862668Y77119D01*
X1862583Y77077D01*
X1862513Y77035D01*
X1862456Y77007D01*
X1862414Y76964D01*
X1862400Y76950D01*
X1862386Y76936D01*
X1862329Y76852D01*
X1862287Y76767D01*
X1862231Y76584D01*
X1862217Y76499D01*
X1862202Y76443D01*
Y75075D01*
X1862062Y75089D01*
X1861765Y75118D01*
X1861498Y75202D01*
X1861272Y75301D01*
X1861075Y75414D01*
X1860920Y75526D01*
X1860807Y75611D01*
X1860736Y75682D01*
X1860708Y75710D01*
X1860539Y75935D01*
X1860412Y76189D01*
X1860314Y76443D01*
X1860257Y76668D01*
X1860215Y76880D01*
X1860201Y76978D01*
Y77049D01*
X1860187Y77119D01*
Y77204D01*
X1860201Y77415D01*
X1860229Y77599D01*
X1860271Y77782D01*
X1860314Y77965D01*
X1860455Y78261D01*
X1860610Y78515D01*
X1860765Y78726D01*
X1860835Y78811D01*
X1860906Y78867D01*
X1860948Y78924D01*
X1860990Y78966D01*
X1861018Y78980D01*
X1861033Y78994D01*
X1861202Y79107D01*
X1861371Y79206D01*
X1861751Y79375D01*
X1862132Y79488D01*
X1862499Y79558D01*
X1862668Y79586D01*
X1862823Y79615D01*
X1862964Y79629D01*
X1863091D01*
X1863189Y79643D01*
X1863260D01*
X1863316D01*
X1863330D01*
X1863598Y79629D01*
D02*
G37*
G36*
X1866220Y59696D02*
X1866206Y59470D01*
X1866192Y59258D01*
X1866107Y58878D01*
X1866051Y58695D01*
X1865981Y58540D01*
X1865910Y58398D01*
X1865840Y58272D01*
X1865769Y58159D01*
X1865699Y58060D01*
X1865642Y57976D01*
X1865572Y57905D01*
X1865529Y57849D01*
X1865487Y57807D01*
X1865473Y57792D01*
X1865459Y57778D01*
X1865318Y57666D01*
X1865149Y57553D01*
X1864810Y57384D01*
X1864444Y57271D01*
X1864106Y57186D01*
X1863936Y57158D01*
X1863781Y57130D01*
X1863654Y57116D01*
X1863528D01*
X1863443Y57102D01*
X1863358D01*
X1863316D01*
X1863302D01*
X1863034D01*
X1862795Y57130D01*
X1862555Y57158D01*
X1862343Y57200D01*
X1862146Y57257D01*
X1861963Y57313D01*
X1861794Y57369D01*
X1861653Y57426D01*
X1861526Y57496D01*
X1861413Y57553D01*
X1861314Y57609D01*
X1861230Y57666D01*
X1861173Y57708D01*
X1861131Y57736D01*
X1861103Y57750D01*
X1861089Y57764D01*
X1860962Y57891D01*
X1860849Y58032D01*
X1860736Y58187D01*
X1860652Y58342D01*
X1860525Y58666D01*
X1860440Y58976D01*
X1860384Y59258D01*
X1860370Y59385D01*
X1860356Y59484D01*
X1860342Y59569D01*
Y61021D01*
X1866220D01*
Y59696D01*
D02*
G37*
G36*
X1867771Y55184D02*
X1863316D01*
X1863711Y55198D01*
X1864063Y55227D01*
X1864416Y55283D01*
X1864726Y55354D01*
X1865022Y55452D01*
X1865290Y55537D01*
X1865544Y55650D01*
X1865755Y55748D01*
X1865952Y55847D01*
X1866122Y55960D01*
X1866263Y56044D01*
X1866389Y56129D01*
X1866474Y56213D01*
X1866544Y56270D01*
X1866587Y56298D01*
X1866601Y56312D01*
X1866812Y56538D01*
X1866981Y56777D01*
X1867151Y57017D01*
X1867277Y57285D01*
X1867390Y57539D01*
X1867489Y57807D01*
X1867559Y58060D01*
X1867630Y58314D01*
X1867672Y58554D01*
X1867715Y58765D01*
X1867728Y58962D01*
X1867757Y59132D01*
Y59273D01*
X1867771Y59385D01*
Y55184D01*
D02*
G37*
%LPC*%
G36*
X1077270Y821760D02*
X951347D01*
Y658801D01*
X1080048Y719911D01*
X1077270Y821760D01*
D02*
G37*
G36*
X557837Y806020D02*
X453209D01*
X451358Y453250D01*
X557837D01*
Y806020D01*
D02*
G37*
%LPD*%
D10*
X2867411Y1135914D02*
G03*
X2867411Y1135914I-1270J0D01*
G01*
X2764541D02*
G03*
X2764541Y1135914I-1270J0D01*
G01*
X2642541Y1135694D02*
G03*
X2642541Y1135694I-1270J0D01*
G01*
X2492541D02*
G03*
X2492541Y1135694I-1270J0D01*
G01*
X2342541D02*
G03*
X2342541Y1135694I-1270J0D01*
G01*
X692541D02*
G03*
X692541Y1135694I-1270J0D01*
G01*
X2192541D02*
G03*
X2192541Y1135694I-1270J0D01*
G01*
X542541D02*
G03*
X542541Y1135694I-1270J0D01*
G01*
X242541D02*
G03*
X242541Y1135694I-1270J0D01*
G01*
X97621D02*
G03*
X97621Y1135694I-1270J0D01*
G01*
X1142541D02*
G03*
X1142541Y1135694I-1270J0D01*
G01*
X992541D02*
G03*
X992541Y1135694I-1270J0D01*
G01*
X392541D02*
G03*
X392541Y1135694I-1270J0D01*
G01*
X842541D02*
G03*
X842541Y1135694I-1270J0D01*
G01*
X1442541D02*
G03*
X1442541Y1135694I-1270J0D01*
G01*
X2042541D02*
G03*
X2042541Y1135694I-1270J0D01*
G01*
X1742541D02*
G03*
X1742541Y1135694I-1270J0D01*
G01*
X1892541D02*
G03*
X1892541Y1135694I-1270J0D01*
G01*
X1592541D02*
G03*
X1592541Y1135694I-1270J0D01*
G01*
X1292541D02*
G03*
X1292541Y1135694I-1270J0D01*
G01*
X2817500Y1105200D02*
Y1135200D01*
X2857500Y1105200D02*
Y1135200D01*
X2817500D02*
X2857500D01*
X2817500Y1105200D02*
X2857500D01*
D11*
X2905511Y1106196D02*
Y1109244D01*
Y1118134D02*
Y1123214D01*
Y1132104D02*
Y1134644D01*
X2870459Y1106196D02*
Y1108736D01*
Y1117626D02*
Y1122706D01*
Y1106196D02*
X2905511D01*
X2874269Y1134644D02*
X2905511D01*
X2871729Y1132104D02*
X2874269Y1134644D01*
X2802641Y1106196D02*
Y1109244D01*
Y1118134D02*
Y1123214D01*
Y1132104D02*
Y1134644D01*
X2767589Y1106196D02*
Y1108736D01*
Y1117626D02*
Y1122706D01*
Y1106196D02*
X2802641D01*
X2771399Y1134644D02*
X2802641D01*
X2768859Y1132104D02*
X2771399Y1134644D01*
X2680641Y1105976D02*
Y1109024D01*
Y1117914D02*
Y1122994D01*
Y1131884D02*
Y1134424D01*
X2645589Y1105976D02*
Y1108516D01*
Y1117406D02*
Y1122486D01*
Y1105976D02*
X2680641D01*
X2649399Y1134424D02*
X2680641D01*
X2646859Y1131884D02*
X2649399Y1134424D01*
X2530641Y1105976D02*
Y1109024D01*
Y1117914D02*
Y1122994D01*
Y1131884D02*
Y1134424D01*
X2495589Y1105976D02*
Y1108516D01*
Y1117406D02*
Y1122486D01*
Y1105976D02*
X2530641D01*
X2499399Y1134424D02*
X2530641D01*
X2496859Y1131884D02*
X2499399Y1134424D01*
X2380641Y1105976D02*
Y1109024D01*
Y1117914D02*
Y1122994D01*
Y1131884D02*
Y1134424D01*
X2345589Y1105976D02*
Y1108516D01*
Y1117406D02*
Y1122486D01*
Y1105976D02*
X2380641D01*
X2349399Y1134424D02*
X2380641D01*
X2346859Y1131884D02*
X2349399Y1134424D01*
X730641Y1105976D02*
Y1109024D01*
Y1117914D02*
Y1122994D01*
Y1131884D02*
Y1134424D01*
X695589Y1105976D02*
Y1108516D01*
Y1117406D02*
Y1122486D01*
Y1105976D02*
X730641D01*
X699399Y1134424D02*
X730641D01*
X696859Y1131884D02*
X699399Y1134424D01*
X2196859Y1131884D02*
X2199399Y1134424D01*
X2230641D01*
X2195589Y1105976D02*
X2230641D01*
X2195589Y1117406D02*
Y1122486D01*
Y1105976D02*
Y1108516D01*
X2230641Y1131884D02*
Y1134424D01*
Y1117914D02*
Y1122994D01*
Y1105976D02*
Y1109024D01*
X580641Y1105976D02*
Y1109024D01*
Y1117914D02*
Y1122994D01*
Y1131884D02*
Y1134424D01*
X545589Y1105976D02*
Y1108516D01*
Y1117406D02*
Y1122486D01*
Y1105976D02*
X580641D01*
X549399Y1134424D02*
X580641D01*
X546859Y1131884D02*
X549399Y1134424D01*
X280641Y1105976D02*
Y1109024D01*
Y1117914D02*
Y1122994D01*
Y1131884D02*
Y1134424D01*
X245589Y1105976D02*
Y1108516D01*
Y1117406D02*
Y1122486D01*
Y1105976D02*
X280641D01*
X249399Y1134424D02*
X280641D01*
X246859Y1131884D02*
X249399Y1134424D01*
X101939Y1131884D02*
X104479Y1134424D01*
X135721D01*
X100669Y1105976D02*
X135721D01*
X100669Y1117406D02*
Y1122486D01*
Y1105976D02*
Y1108516D01*
X135721Y1131884D02*
Y1134424D01*
Y1117914D02*
Y1122994D01*
Y1105976D02*
Y1109024D01*
X1180641Y1105976D02*
Y1109024D01*
Y1117914D02*
Y1122994D01*
Y1131884D02*
Y1134424D01*
X1145589Y1105976D02*
Y1108516D01*
Y1117406D02*
Y1122486D01*
Y1105976D02*
X1180641D01*
X1149399Y1134424D02*
X1180641D01*
X1146859Y1131884D02*
X1149399Y1134424D01*
X1030641Y1105976D02*
Y1109024D01*
Y1117914D02*
Y1122994D01*
Y1131884D02*
Y1134424D01*
X995589Y1105976D02*
Y1108516D01*
Y1117406D02*
Y1122486D01*
Y1105976D02*
X1030641D01*
X999399Y1134424D02*
X1030641D01*
X996859Y1131884D02*
X999399Y1134424D01*
X430641Y1105976D02*
Y1109024D01*
Y1117914D02*
Y1122994D01*
Y1131884D02*
Y1134424D01*
X395589Y1105976D02*
Y1108516D01*
Y1117406D02*
Y1122486D01*
Y1105976D02*
X430641D01*
X399399Y1134424D02*
X430641D01*
X396859Y1131884D02*
X399399Y1134424D01*
X880641Y1105976D02*
Y1109024D01*
Y1117914D02*
Y1122994D01*
Y1131884D02*
Y1134424D01*
X845589Y1105976D02*
Y1108516D01*
Y1117406D02*
Y1122486D01*
Y1105976D02*
X880641D01*
X849399Y1134424D02*
X880641D01*
X846859Y1131884D02*
X849399Y1134424D01*
X1480641Y1105976D02*
Y1109024D01*
Y1117914D02*
Y1122994D01*
Y1131884D02*
Y1134424D01*
X1445589Y1105976D02*
Y1108516D01*
Y1117406D02*
Y1122486D01*
Y1105976D02*
X1480641D01*
X1449399Y1134424D02*
X1480641D01*
X1446859Y1131884D02*
X1449399Y1134424D01*
X2080641Y1105976D02*
Y1109024D01*
Y1117914D02*
Y1122994D01*
Y1131884D02*
Y1134424D01*
X2045589Y1105976D02*
Y1108516D01*
Y1117406D02*
Y1122486D01*
Y1105976D02*
X2080641D01*
X2049399Y1134424D02*
X2080641D01*
X2046859Y1131884D02*
X2049399Y1134424D01*
X1780641Y1105976D02*
Y1109024D01*
Y1117914D02*
Y1122994D01*
Y1131884D02*
Y1134424D01*
X1745589Y1105976D02*
Y1108516D01*
Y1117406D02*
Y1122486D01*
Y1105976D02*
X1780641D01*
X1749399Y1134424D02*
X1780641D01*
X1746859Y1131884D02*
X1749399Y1134424D01*
X1930641Y1105976D02*
Y1109024D01*
Y1117914D02*
Y1122994D01*
Y1131884D02*
Y1134424D01*
X1895589Y1105976D02*
Y1108516D01*
Y1117406D02*
Y1122486D01*
Y1105976D02*
X1930641D01*
X1899399Y1134424D02*
X1930641D01*
X1896859Y1131884D02*
X1899399Y1134424D01*
X1630641Y1105976D02*
Y1109024D01*
Y1117914D02*
Y1122994D01*
Y1131884D02*
Y1134424D01*
X1595589Y1105976D02*
Y1108516D01*
Y1117406D02*
Y1122486D01*
Y1105976D02*
X1630641D01*
X1599399Y1134424D02*
X1630641D01*
X1596859Y1131884D02*
X1599399Y1134424D01*
X1330641Y1105976D02*
Y1109024D01*
Y1117914D02*
Y1122994D01*
Y1131884D02*
Y1134424D01*
X1295589Y1105976D02*
Y1108516D01*
Y1117406D02*
Y1122486D01*
Y1105976D02*
X1330641D01*
X1299399Y1134424D02*
X1330641D01*
X1296859Y1131884D02*
X1299399Y1134424D01*
M02*
