G04*
G04 #@! TF.GenerationSoftware,Altium Limited,Altium Designer,22.10.1 (41)*
G04*
G04 Layer_Color=12811406*
%FSLAX44Y44*%
%MOMM*%
G71*
G04*
G04 #@! TF.SameCoordinates,C522AA7B-F4F4-4EC6-81A6-D5D12569EC36*
G04*
G04*
G04 #@! TF.FilePolarity,Positive*
G04*
G01*
G75*
%ADD10C,0.2540*%
%ADD29C,0.1270*%
%ADD118C,0.0762*%
%ADD120C,0.1000*%
%ADD121C,0.0000*%
%ADD122C,0.1500*%
%ADD123C,0.0254*%
G36*
X2766553Y1332099D02*
X2766788Y1331982D01*
X2767141Y1331629D01*
X2767729Y1331276D01*
X2768434Y1330806D01*
X2769139Y1330218D01*
X2770903Y1328925D01*
X2772902Y1327396D01*
X2775018Y1325633D01*
X2777017Y1323987D01*
X2778781Y1322223D01*
X2772784Y1315992D01*
Y1316109D01*
X2772549Y1316227D01*
X2771844Y1316815D01*
X2770786Y1317873D01*
X2769375Y1319166D01*
X2767729Y1320812D01*
X2765730Y1322576D01*
X2763613Y1324575D01*
X2761262Y1326691D01*
X2766435Y1332217D01*
X2766553Y1332099D01*
D02*
G37*
G36*
X2708588Y1313640D02*
X2718582D01*
Y1305174D01*
X2708588D01*
Y1299296D01*
X2711174Y1301294D01*
Y1301177D01*
X2711409Y1301059D01*
X2711645Y1300706D01*
X2711997Y1300236D01*
X2712820Y1298943D01*
X2713996Y1297297D01*
X2715289Y1295298D01*
X2716818Y1293064D01*
X2718346Y1290595D01*
X2719875Y1288008D01*
X2712820Y1283893D01*
Y1284011D01*
X2712703Y1284128D01*
X2712350Y1284834D01*
X2711762Y1285892D01*
X2711057Y1287185D01*
X2710351Y1288714D01*
X2709646Y1290360D01*
X2709058Y1292006D01*
X2708588Y1293652D01*
Y1237685D01*
X2699769D01*
Y1288596D01*
X2699652Y1288126D01*
X2699417Y1287303D01*
X2699182Y1286127D01*
X2698946Y1284834D01*
X2698476Y1283188D01*
X2698006Y1281424D01*
X2697418Y1279543D01*
X2696007Y1275427D01*
X2694361Y1271077D01*
X2692244Y1266727D01*
X2690951Y1264728D01*
X2689658Y1262729D01*
Y1262847D01*
X2689540Y1262964D01*
X2689305Y1263670D01*
X2688952Y1264728D01*
X2688482Y1266021D01*
X2687894Y1267432D01*
X2687189Y1269078D01*
X2686601Y1270724D01*
X2685895Y1272253D01*
X2686013Y1272371D01*
X2686248Y1272958D01*
X2686718Y1273782D01*
X2687306Y1274840D01*
X2688011Y1276251D01*
X2688835Y1277897D01*
X2689775Y1279778D01*
X2690716Y1281894D01*
X2691774Y1284246D01*
X2692832Y1286832D01*
X2693890Y1289537D01*
X2695066Y1292359D01*
X2696124Y1295416D01*
X2697065Y1298590D01*
X2698946Y1305174D01*
X2687776D01*
Y1313640D01*
X2699769D01*
Y1332570D01*
X2708588D01*
Y1313640D01*
D02*
G37*
G36*
X2610646Y1314933D02*
X2624050D01*
Y1306350D01*
X2610646D01*
Y1292594D01*
X2613351Y1296356D01*
X2613468Y1296239D01*
X2613703Y1296004D01*
X2614174Y1295651D01*
X2614761Y1295180D01*
X2615349Y1294592D01*
X2616172Y1293887D01*
X2618054Y1292241D01*
X2620052Y1290360D01*
X2622169Y1288361D01*
X2624167Y1286245D01*
X2626049Y1284363D01*
X2619817Y1278132D01*
X2619700Y1278249D01*
X2619582Y1278484D01*
X2619229Y1278837D01*
X2618759Y1279308D01*
X2617583Y1280483D01*
X2616172Y1282012D01*
X2614644Y1283775D01*
X2613233Y1285539D01*
X2611822Y1287303D01*
X2610646Y1288949D01*
Y1238391D01*
X2601593D01*
Y1289537D01*
X2601475Y1288949D01*
X2601240Y1288126D01*
X2601005Y1287068D01*
X2600652Y1285657D01*
X2600182Y1284128D01*
X2599594Y1282365D01*
X2599006Y1280483D01*
X2598183Y1278484D01*
X2597360Y1276368D01*
X2596302Y1274252D01*
X2595244Y1272018D01*
X2594068Y1269784D01*
X2592657Y1267550D01*
X2591246Y1265434D01*
X2589600Y1263435D01*
Y1263552D01*
X2589482Y1263670D01*
X2589247Y1264258D01*
X2588777Y1265316D01*
X2588307Y1266492D01*
X2587719Y1268020D01*
X2587013Y1269549D01*
X2585720Y1272958D01*
X2585838Y1273194D01*
X2586190Y1273664D01*
X2586778Y1274604D01*
X2587484Y1275780D01*
X2588424Y1277309D01*
X2589365Y1279072D01*
X2590540Y1281071D01*
X2591716Y1283305D01*
X2592892Y1285657D01*
X2594185Y1288243D01*
X2595479Y1291065D01*
X2596772Y1293887D01*
X2599124Y1300001D01*
X2600064Y1303176D01*
X2601005Y1306350D01*
X2586660D01*
Y1314933D01*
X2601593D01*
Y1333746D01*
X2610646D01*
Y1314933D01*
D02*
G37*
G36*
X2759028Y1333040D02*
Y1332687D01*
Y1332099D01*
Y1331394D01*
Y1330453D01*
Y1329395D01*
X2759146Y1328219D01*
Y1326926D01*
Y1324104D01*
X2759263Y1321165D01*
Y1318225D01*
X2759380Y1315404D01*
X2781602D01*
Y1306938D01*
X2759733D01*
Y1306703D01*
Y1306115D01*
X2759851Y1305057D01*
X2759969Y1303763D01*
Y1302117D01*
X2760086Y1300119D01*
X2760321Y1298002D01*
X2760439Y1295651D01*
X2760556Y1293182D01*
X2760792Y1290477D01*
X2761262Y1284951D01*
X2761850Y1279308D01*
X2762085Y1276603D01*
X2762438Y1273899D01*
X2762555Y1274017D01*
X2762673Y1274487D01*
X2763026Y1275075D01*
X2763378Y1276015D01*
X2763966Y1277074D01*
X2764436Y1278484D01*
X2765142Y1280013D01*
X2765847Y1281777D01*
X2766553Y1283658D01*
X2767376Y1285774D01*
X2768081Y1288008D01*
X2768904Y1290477D01*
X2769727Y1292946D01*
X2770433Y1295651D01*
X2771844Y1301294D01*
X2780427Y1298943D01*
Y1298708D01*
X2780192Y1298002D01*
X2779839Y1296944D01*
X2779486Y1295416D01*
X2778898Y1293652D01*
X2778311Y1291535D01*
X2777487Y1289184D01*
X2776547Y1286715D01*
X2775606Y1283893D01*
X2774431Y1281071D01*
X2773137Y1278014D01*
X2771726Y1275075D01*
X2770198Y1272018D01*
X2768552Y1268961D01*
X2766671Y1266021D01*
X2764789Y1263082D01*
Y1262964D01*
X2764907Y1262612D01*
X2765142Y1262024D01*
X2765377Y1261318D01*
X2765612Y1260495D01*
X2765965Y1259437D01*
X2766788Y1257321D01*
X2767846Y1254969D01*
X2769022Y1252618D01*
X2769727Y1251560D01*
X2770433Y1250619D01*
X2771138Y1249796D01*
X2771961Y1249090D01*
X2772079Y1248973D01*
X2772314Y1248738D01*
X2772432D01*
X2772667Y1248855D01*
X2772784Y1249208D01*
X2772902Y1249678D01*
X2773019Y1249913D01*
Y1250149D01*
X2773137Y1250501D01*
X2773255Y1251089D01*
X2773372Y1251677D01*
X2773490Y1252500D01*
X2773725Y1253441D01*
X2773842Y1254499D01*
X2774078Y1255675D01*
X2774195Y1257086D01*
X2774431Y1258732D01*
X2774666Y1260495D01*
X2774901Y1262494D01*
X2775018Y1264611D01*
X2775254Y1266962D01*
X2775489Y1266844D01*
X2776076Y1266609D01*
X2776900Y1266257D01*
X2778075Y1265786D01*
X2779369Y1265316D01*
X2780780Y1264728D01*
X2783719Y1263788D01*
Y1263670D01*
Y1263200D01*
X2783601Y1262612D01*
X2783484Y1261789D01*
X2783366Y1260848D01*
X2783249Y1259672D01*
X2783014Y1257203D01*
X2782661Y1254381D01*
X2782191Y1251677D01*
X2781955Y1250384D01*
X2781720Y1249208D01*
X2781485Y1248267D01*
X2781250Y1247327D01*
Y1247209D01*
X2781132Y1246974D01*
X2781015Y1246621D01*
X2780897Y1246033D01*
X2780427Y1244740D01*
X2779604Y1243212D01*
X2778663Y1241683D01*
X2777370Y1240272D01*
X2775841Y1239096D01*
X2774901Y1238626D01*
X2773960Y1238391D01*
X2773137D01*
X2772079Y1238509D01*
X2770786Y1238861D01*
X2769257Y1239449D01*
X2767611Y1240390D01*
X2766788Y1240978D01*
X2765965Y1241801D01*
X2765024Y1242624D01*
X2764201Y1243682D01*
X2764084Y1243917D01*
X2763613Y1244505D01*
X2762908Y1245445D01*
X2761967Y1246739D01*
X2761027Y1248385D01*
X2760086Y1250384D01*
X2759028Y1252735D01*
X2758205Y1255440D01*
Y1255322D01*
X2757970Y1255204D01*
X2757499Y1254499D01*
X2756559Y1253441D01*
X2755383Y1252030D01*
X2753854Y1250384D01*
X2751973Y1248503D01*
X2749739Y1246504D01*
X2747270Y1244505D01*
X2747153Y1244622D01*
X2746917Y1245093D01*
X2746565Y1245798D01*
X2745977Y1246621D01*
X2745389Y1247680D01*
X2744801Y1248659D01*
Y1252970D01*
X2744096Y1252383D01*
X2743625Y1251912D01*
X2743273Y1251560D01*
X2743037Y1251324D01*
X2742920Y1251207D01*
X2744684Y1248855D01*
X2744801Y1248659D01*
Y1240742D01*
X2736218D01*
Y1274487D01*
X2729869D01*
Y1274369D01*
Y1274252D01*
Y1273899D01*
Y1273546D01*
X2729751Y1272371D01*
X2729634Y1270724D01*
X2729398Y1268843D01*
X2729046Y1266609D01*
X2728693Y1264258D01*
X2728105Y1261553D01*
X2727400Y1258849D01*
X2726577Y1255910D01*
X2725518Y1252970D01*
X2724343Y1250031D01*
X2722932Y1247209D01*
X2721286Y1244387D01*
X2719287Y1241801D01*
X2717171Y1239332D01*
X2717053Y1239449D01*
X2716700Y1239802D01*
X2716230Y1240390D01*
X2715525Y1241213D01*
X2714702Y1242153D01*
X2713643Y1243212D01*
X2712585Y1244387D01*
X2711292Y1245681D01*
X2711409Y1245798D01*
X2711645Y1246151D01*
X2712115Y1246739D01*
X2712820Y1247562D01*
X2713526Y1248620D01*
X2714349Y1249913D01*
X2715172Y1251442D01*
X2716112Y1253206D01*
X2716935Y1255204D01*
X2717876Y1257321D01*
X2718699Y1259672D01*
X2719405Y1262259D01*
X2720110Y1264963D01*
X2720580Y1268020D01*
X2720933Y1271195D01*
X2721168Y1274487D01*
X2714231D01*
Y1282953D01*
X2721286D01*
Y1302705D01*
X2729987D01*
Y1282953D01*
X2736218D01*
Y1302705D01*
X2744801D01*
Y1282953D01*
X2752091D01*
Y1274487D01*
X2744801D01*
Y1252970D01*
X2745507Y1253676D01*
X2747153Y1255440D01*
X2749152Y1257556D01*
X2751150Y1259907D01*
X2753384Y1262376D01*
X2755383Y1264963D01*
Y1265081D01*
X2755266Y1265551D01*
X2755148Y1266374D01*
X2754913Y1267550D01*
X2754678Y1268961D01*
X2754325Y1270724D01*
X2753972Y1272841D01*
X2753737Y1275310D01*
X2753267Y1278014D01*
X2752914Y1281189D01*
X2752561Y1284599D01*
X2752209Y1288361D01*
X2751856Y1292476D01*
X2751503Y1296944D01*
X2751150Y1301765D01*
X2750915Y1306938D01*
X2719640D01*
Y1315404D01*
X2750562D01*
Y1315521D01*
Y1315756D01*
Y1316109D01*
Y1316697D01*
X2750445Y1317402D01*
Y1318225D01*
Y1319166D01*
X2750327Y1320342D01*
Y1321518D01*
X2750210Y1322928D01*
Y1325868D01*
X2750092Y1329395D01*
X2749974Y1333158D01*
X2759028D01*
Y1333040D01*
D02*
G37*
G36*
X2666378Y1254616D02*
Y1254499D01*
Y1254029D01*
X2666495Y1253441D01*
X2666613Y1252735D01*
X2666965Y1251912D01*
X2667318Y1251324D01*
X2667906Y1250854D01*
X2668611Y1250736D01*
X2670963D01*
X2671198Y1250854D01*
X2671551Y1250972D01*
X2672021Y1251324D01*
X2672491Y1251912D01*
X2672962Y1252735D01*
X2673432Y1253911D01*
X2673785Y1255440D01*
Y1255557D01*
Y1255792D01*
X2673902Y1256145D01*
Y1256733D01*
X2674020Y1257438D01*
X2674138Y1258261D01*
X2674255Y1259202D01*
X2674373Y1260260D01*
X2674490Y1262729D01*
X2674726Y1265551D01*
X2674961Y1268726D01*
X2675196Y1272135D01*
X2675431Y1272018D01*
X2676019Y1271783D01*
X2676960Y1271430D01*
X2678135Y1271077D01*
X2679546Y1270489D01*
X2681075Y1269901D01*
X2684484Y1268608D01*
Y1268491D01*
Y1268138D01*
X2684367Y1267667D01*
Y1266844D01*
X2684249Y1266021D01*
X2684131Y1264963D01*
X2683896Y1262729D01*
X2683661Y1260025D01*
X2683309Y1257321D01*
X2683073Y1254734D01*
X2682721Y1252265D01*
Y1252147D01*
X2682603Y1251795D01*
X2682485Y1251207D01*
X2682368Y1250619D01*
X2682015Y1249678D01*
X2681663Y1248855D01*
X2680722Y1246856D01*
X2680134Y1245798D01*
X2679311Y1244740D01*
X2678488Y1243917D01*
X2677430Y1243094D01*
X2676254Y1242389D01*
X2674961Y1241801D01*
X2673550Y1241448D01*
X2671904Y1241330D01*
X2666378D01*
X2665907Y1241448D01*
X2665202Y1241565D01*
X2664496Y1241683D01*
X2663673Y1241918D01*
X2662733Y1242271D01*
X2661792Y1242859D01*
X2660734Y1243447D01*
X2659911Y1244270D01*
X2658970Y1245210D01*
X2658265Y1246386D01*
X2657559Y1247680D01*
X2657089Y1249325D01*
X2656736Y1251089D01*
X2656619Y1253206D01*
Y1318343D01*
X2638394D01*
Y1287655D01*
Y1287538D01*
Y1287303D01*
Y1286832D01*
Y1286127D01*
X2638277Y1285304D01*
Y1284363D01*
X2638159Y1283188D01*
Y1282012D01*
X2638042Y1280601D01*
X2637806Y1279072D01*
X2637454Y1275780D01*
X2636866Y1272135D01*
X2636160Y1268255D01*
X2635102Y1264140D01*
X2633926Y1260025D01*
X2632398Y1255792D01*
X2630634Y1251560D01*
X2628518Y1247562D01*
X2626166Y1243682D01*
X2623227Y1240155D01*
X2620052Y1236980D01*
X2619935Y1237098D01*
X2619464Y1237568D01*
X2618877Y1238273D01*
X2618054Y1239214D01*
X2616996Y1240390D01*
X2615937Y1241683D01*
X2614644Y1243094D01*
X2613468Y1244622D01*
X2613586Y1244740D01*
X2614174Y1245210D01*
X2614879Y1246033D01*
X2615820Y1247209D01*
X2616996Y1248620D01*
X2618289Y1250384D01*
X2619700Y1252500D01*
X2621111Y1254852D01*
X2622521Y1257556D01*
X2623815Y1260613D01*
X2625108Y1264023D01*
X2626284Y1267785D01*
X2627224Y1271783D01*
X2627930Y1276133D01*
X2628518Y1280836D01*
X2628636Y1285892D01*
Y1327632D01*
X2666378D01*
Y1254616D01*
D02*
G37*
D10*
X253900Y859540D02*
Y1015540D01*
X97900D02*
X253900D01*
X97900Y859540D02*
Y1015540D01*
Y859540D02*
X253900D01*
X2002900D02*
X2158900D01*
X2002900D02*
Y1015540D01*
X2158900D01*
Y859540D02*
Y1015540D01*
X444400Y859540D02*
Y1015540D01*
X288400D02*
X444400D01*
X288400Y859540D02*
Y1015540D01*
Y859540D02*
X444400D01*
X478900D02*
X634900D01*
X478900D02*
Y1015540D01*
X634900D01*
Y859540D02*
Y1015540D01*
X824130Y859540D02*
Y1015540D01*
X668130D02*
X824130D01*
X668130Y859540D02*
Y1015540D01*
Y859540D02*
X824130D01*
X859900D02*
X1015900D01*
X859900D02*
Y1015540D01*
X1015900D01*
Y859540D02*
Y1015540D01*
X1205130Y859540D02*
Y1015540D01*
X1049130D02*
X1205130D01*
X1049130Y859540D02*
Y1015540D01*
Y859540D02*
X1205130D01*
X1239630D02*
X1395630D01*
X1239630D02*
Y1015540D01*
X1395630D01*
Y859540D02*
Y1015540D01*
X1587400Y859540D02*
Y1015540D01*
X1431400D02*
X1587400D01*
X1431400Y859540D02*
Y1015540D01*
Y859540D02*
X1587400D01*
X1620630D02*
X1776630D01*
X1620630D02*
Y1015540D01*
X1776630D01*
Y859540D02*
Y1015540D01*
X1967130Y859540D02*
Y1015540D01*
X1811130D02*
X1967130D01*
X1811130Y859540D02*
Y1015540D01*
Y859540D02*
X1967130D01*
X2335640Y478540D02*
X2491640D01*
X2335640D02*
Y634540D01*
X2491640D01*
Y478540D02*
Y634540D01*
X1968400Y288040D02*
Y444040D01*
X1812400D02*
X1968400D01*
X1812400Y288040D02*
Y444040D01*
Y288040D02*
X1968400D01*
X2193000Y859540D02*
X2349000D01*
X2193000D02*
Y1015540D01*
X2349000D01*
Y859540D02*
Y1015540D01*
X2158500Y288040D02*
Y444040D01*
X2002500D02*
X2158500D01*
X2002500Y288040D02*
Y444040D01*
Y288040D02*
X2158500D01*
X2145140Y478540D02*
X2301140D01*
X2145140D02*
Y634540D01*
X2301140D01*
Y478540D02*
Y634540D01*
X2538630Y859540D02*
Y1015540D01*
X2382630D02*
X2538630D01*
X2382630Y859540D02*
Y1015540D01*
Y859540D02*
X2538630D01*
X2287380Y669040D02*
X2443380D01*
X2287380D02*
Y825040D01*
X2443380D01*
Y669040D02*
Y825040D01*
X2872640Y669040D02*
Y825040D01*
X2716640D02*
X2872640D01*
X2716640Y669040D02*
Y825040D01*
Y669040D02*
X2872640D01*
X2477880D02*
X2633880D01*
X2477880D02*
Y825040D01*
X2633880D01*
Y669040D02*
Y825040D01*
X586640Y478540D02*
Y634540D01*
X430640D02*
X586640D01*
X430640Y478540D02*
Y634540D01*
Y478540D02*
X586640D01*
X2668380Y859540D02*
X2824380D01*
X2668380D02*
Y1015540D01*
X2824380D01*
Y859540D02*
Y1015540D01*
X1396500Y288040D02*
Y444040D01*
X1240500D02*
X1396500D01*
X1240500Y288040D02*
Y444040D01*
Y288040D02*
X1396500D01*
X169020Y478540D02*
X325020D01*
X169020D02*
Y634540D01*
X325020D01*
Y478540D02*
Y634540D01*
X1015500Y288040D02*
Y444040D01*
X859500D02*
X1015500D01*
X859500Y288040D02*
Y444040D01*
Y288040D02*
X1015500D01*
X2764500D02*
X2920500D01*
X2764500D02*
Y444040D01*
X2920500D01*
Y288040D02*
Y444040D01*
X2729130Y97540D02*
Y253540D01*
X2573130D02*
X2729130D01*
X2573130Y97540D02*
Y253540D01*
Y97540D02*
X2729130D01*
X811240Y478540D02*
X967240D01*
X811240D02*
Y634540D01*
X967240D01*
Y478540D02*
Y634540D01*
X2800250Y478540D02*
Y634540D01*
X2644250D02*
X2800250D01*
X2644250Y478540D02*
Y634540D01*
Y478540D02*
X2800250D01*
X763380Y669040D02*
X919380D01*
X763380D02*
Y825040D01*
X919380D01*
Y669040D02*
Y825040D01*
X1158140Y478540D02*
Y634540D01*
X1002140D02*
X1158140D01*
X1002140Y478540D02*
Y634540D01*
Y478540D02*
X1158140D01*
X2002900Y97540D02*
X2158900D01*
X2002900D02*
Y253540D01*
X2158900D01*
Y97540D02*
Y253540D01*
X1348240Y478540D02*
Y634540D01*
X1192240D02*
X1348240D01*
X1192240Y478540D02*
Y634540D01*
Y478540D02*
X1348240D01*
X1383140D02*
X1539140D01*
X1383140D02*
Y634540D01*
X1539140D01*
Y478540D02*
Y634540D01*
X1871880Y669040D02*
Y825040D01*
X1715880D02*
X1871880D01*
X1715880Y669040D02*
Y825040D01*
Y669040D02*
X1871880D01*
X1573640Y478540D02*
X1729640D01*
X1573640D02*
Y634540D01*
X1729640D01*
Y478540D02*
Y634540D01*
X1920140Y478540D02*
Y634540D01*
X1764140D02*
X1920140D01*
X1764140Y478540D02*
Y634540D01*
Y478540D02*
X1920140D01*
X597010Y97540D02*
X753010D01*
X597010D02*
Y253540D01*
X753010D01*
Y97540D02*
Y253540D01*
X276760Y97540D02*
Y253540D01*
X120760D02*
X276760D01*
X120760Y97540D02*
Y253540D01*
Y97540D02*
X276760D01*
X2382630D02*
X2538630D01*
X2382630D02*
Y253540D01*
X2538630D01*
Y97540D02*
Y253540D01*
X347880Y288040D02*
Y444040D01*
X191880D02*
X347880D01*
X191880Y288040D02*
Y444040D01*
Y288040D02*
X347880D01*
X1954640Y478540D02*
X2110640D01*
X1954640D02*
Y634540D01*
X2110640D01*
Y478540D02*
Y634540D01*
X2348130Y97540D02*
Y253540D01*
X2192130D02*
X2348130D01*
X2192130Y97540D02*
Y253540D01*
Y97540D02*
X2348130D01*
X1620630Y288040D02*
X1776630D01*
X1620630D02*
Y444040D01*
X1776630D01*
Y288040D02*
Y444040D01*
X1586130Y288040D02*
Y444040D01*
X1430130D02*
X1586130D01*
X1430130Y288040D02*
Y444040D01*
Y288040D02*
X1586130D01*
X1906380Y669040D02*
X2062380D01*
X1906380D02*
Y825040D01*
X2062380D01*
Y669040D02*
Y825040D01*
X2252880Y669040D02*
Y825040D01*
X2096880D02*
X2252880D01*
X2096880Y669040D02*
Y825040D01*
Y669040D02*
X2252880D01*
X382380D02*
X538380D01*
X382380D02*
Y825040D01*
X538380D01*
Y669040D02*
Y825040D01*
X2919230Y97540D02*
Y253540D01*
X2763230D02*
X2919230D01*
X2763230Y97540D02*
Y253540D01*
Y97540D02*
X2919230D01*
X2383030Y288040D02*
X2539030D01*
X2383030D02*
Y444040D01*
X2539030D01*
Y288040D02*
Y444040D01*
X1109880Y669040D02*
Y825040D01*
X953880D02*
X1109880D01*
X953880Y669040D02*
Y825040D01*
Y669040D02*
X1109880D01*
X1312020Y97540D02*
X1468020D01*
X1312020D02*
Y253540D01*
X1468020D01*
Y97540D02*
Y253540D01*
X777140Y478540D02*
Y634540D01*
X621140D02*
X777140D01*
X621140Y478540D02*
Y634540D01*
Y478540D02*
X777140D01*
X1145250Y669040D02*
X1301250D01*
X1145250D02*
Y825040D01*
X1301250D01*
Y669040D02*
Y825040D01*
X2729130Y288040D02*
Y444040D01*
X2573130D02*
X2729130D01*
X2573130Y288040D02*
Y444040D01*
Y288040D02*
X2729130D01*
X1526650Y669040D02*
X1682650D01*
X1526650D02*
Y825040D01*
X1682650D01*
Y669040D02*
Y825040D01*
X1206400Y288040D02*
Y444040D01*
X1050400D02*
X1206400D01*
X1050400Y288040D02*
Y444040D01*
Y288040D02*
X1206400D01*
X572880Y669040D02*
X728880D01*
X572880D02*
Y825040D01*
X728880D01*
Y669040D02*
Y825040D01*
X824530Y288040D02*
Y444040D01*
X668530D02*
X824530D01*
X668530Y288040D02*
Y444040D01*
Y288040D02*
X824530D01*
X1334880Y669040D02*
X1490880D01*
X1334880D02*
Y825040D01*
X1490880D01*
Y669040D02*
Y825040D01*
X633630Y288040D02*
Y444040D01*
X477630D02*
X633630D01*
X477630Y288040D02*
Y444040D01*
Y288040D02*
X633630D01*
X2192130D02*
X2348130D01*
X2192130D02*
Y444040D01*
X2348130D01*
Y288040D02*
Y444040D01*
X302160Y669040D02*
Y825040D01*
X146160D02*
X302160D01*
X146160Y669040D02*
Y825040D01*
Y669040D02*
X302160D01*
X359520Y97540D02*
X515520D01*
X359520D02*
Y253540D01*
X515520D01*
Y97540D02*
Y253540D01*
X1976520Y202530D02*
Y242530D01*
X1946520D02*
X1976520D01*
X1946520Y202530D02*
Y242530D01*
Y202530D02*
X1976520D01*
X1632750Y110930D02*
X1652750D01*
X1632750Y130930D02*
X1652750D01*
Y110930D02*
Y130930D01*
X1632750Y110930D02*
Y130930D01*
X2817500Y1105200D02*
Y1135200D01*
Y1105200D02*
X2857500D01*
Y1135200D01*
X2817500D02*
X2857500D01*
X1976520Y136410D02*
Y166410D01*
X1946520Y136410D02*
Y166410D01*
Y136410D02*
X1976520D01*
X1946520Y166410D02*
X1976520D01*
X1938420Y202530D02*
Y242530D01*
X1908420D02*
X1938420D01*
X1908420Y202530D02*
Y242530D01*
Y202530D02*
X1938420D01*
D29*
X97900Y1015540D02*
X253900Y859540D01*
X97900D02*
X253900Y1015540D01*
X2002900Y859540D02*
X2158900Y1015540D01*
X2002900D02*
X2158900Y859540D01*
X288400Y1015540D02*
X444400Y859540D01*
X288400D02*
X444400Y1015540D01*
X478900Y859540D02*
X634900Y1015540D01*
X478900D02*
X634900Y859540D01*
X668130Y1015540D02*
X824130Y859540D01*
X668130D02*
X824130Y1015540D01*
X859900Y859540D02*
X1015900Y1015540D01*
X859900D02*
X1015900Y859540D01*
X1049130Y1015540D02*
X1205130Y859540D01*
X1049130D02*
X1205130Y1015540D01*
X1239630Y859540D02*
X1395630Y1015540D01*
X1239630D02*
X1395630Y859540D01*
X1431400Y1015540D02*
X1587400Y859540D01*
X1431400D02*
X1587400Y1015540D01*
X1620630Y859540D02*
X1776630Y1015540D01*
X1620630D02*
X1776630Y859540D01*
X1811130Y1015540D02*
X1967130Y859540D01*
X1811130D02*
X1967130Y1015540D01*
X2335640Y478540D02*
X2491640Y634540D01*
X2335640D02*
X2491640Y478540D01*
X1812400Y444040D02*
X1968400Y288040D01*
X1812400D02*
X1968400Y444040D01*
X2193000Y859540D02*
X2349000Y1015540D01*
X2193000D02*
X2349000Y859540D01*
X2002500Y444040D02*
X2158500Y288040D01*
X2002500D02*
X2158500Y444040D01*
X2145140Y478540D02*
X2301140Y634540D01*
X2145140D02*
X2301140Y478540D01*
X2382630Y1015540D02*
X2538630Y859540D01*
X2382630D02*
X2538630Y1015540D01*
X2287380Y669040D02*
X2443380Y825040D01*
X2287380D02*
X2443380Y669040D01*
X2716640Y825040D02*
X2872640Y669040D01*
X2716640D02*
X2872640Y825040D01*
X2477880Y669040D02*
X2633880Y825040D01*
X2477880D02*
X2633880Y669040D01*
X430640Y634540D02*
X586640Y478540D01*
X430640D02*
X586640Y634540D01*
X2668380Y859540D02*
X2824380Y1015540D01*
X2668380D02*
X2824380Y859540D01*
X1240500Y444040D02*
X1396500Y288040D01*
X1240500D02*
X1396500Y444040D01*
X169020Y478540D02*
X325020Y634540D01*
X169020D02*
X325020Y478540D01*
X859500Y444040D02*
X1015500Y288040D01*
X859500D02*
X1015500Y444040D01*
X2764500Y288040D02*
X2920500Y444040D01*
X2764500D02*
X2920500Y288040D01*
X2573130Y253540D02*
X2729130Y97540D01*
X2573130D02*
X2729130Y253540D01*
X811240Y478540D02*
X967240Y634540D01*
X811240D02*
X967240Y478540D01*
X2644250Y634540D02*
X2800250Y478540D01*
X2644250D02*
X2800250Y634540D01*
X763380Y669040D02*
X919380Y825040D01*
X763380D02*
X919380Y669040D01*
X1002140Y634540D02*
X1158140Y478540D01*
X1002140D02*
X1158140Y634540D01*
X2002900Y97540D02*
X2158900Y253540D01*
X2002900D02*
X2158900Y97540D01*
X1192240Y634540D02*
X1348240Y478540D01*
X1192240D02*
X1348240Y634540D01*
X1383140Y478540D02*
X1539140Y634540D01*
X1383140D02*
X1539140Y478540D01*
X1715880Y825040D02*
X1871880Y669040D01*
X1715880D02*
X1871880Y825040D01*
X1573640Y478540D02*
X1729640Y634540D01*
X1573640D02*
X1729640Y478540D01*
X1764140Y634540D02*
X1920140Y478540D01*
X1764140D02*
X1920140Y634540D01*
X597010Y97540D02*
X753010Y253540D01*
X597010D02*
X753010Y97540D01*
X120760Y253540D02*
X276760Y97540D01*
X120760D02*
X276760Y253540D01*
X2382630Y97540D02*
X2538630Y253540D01*
X2382630D02*
X2538630Y97540D01*
X191880Y444040D02*
X347880Y288040D01*
X191880D02*
X347880Y444040D01*
X1954640Y478540D02*
X2110640Y634540D01*
X1954640D02*
X2110640Y478540D01*
X2192130Y253540D02*
X2348130Y97540D01*
X2192130D02*
X2348130Y253540D01*
X1620630Y288040D02*
X1776630Y444040D01*
X1620630D02*
X1776630Y288040D01*
X1430130Y444040D02*
X1586130Y288040D01*
X1430130D02*
X1586130Y444040D01*
X1906380Y669040D02*
X2062380Y825040D01*
X1906380D02*
X2062380Y669040D01*
X2096880Y825040D02*
X2252880Y669040D01*
X2096880D02*
X2252880Y825040D01*
X382380Y669040D02*
X538380Y825040D01*
X382380D02*
X538380Y669040D01*
X2763230Y253540D02*
X2919230Y97540D01*
X2763230D02*
X2919230Y253540D01*
X2383030Y288040D02*
X2539030Y444040D01*
X2383030D02*
X2539030Y288040D01*
X953880Y825040D02*
X1109880Y669040D01*
X953880D02*
X1109880Y825040D01*
X1312020Y97540D02*
X1468020Y253540D01*
X1312020D02*
X1468020Y97540D01*
X621140Y634540D02*
X777140Y478540D01*
X621140D02*
X777140Y634540D01*
X1145250Y669040D02*
X1301250Y825040D01*
X1145250D02*
X1301250Y669040D01*
X2573130Y444040D02*
X2729130Y288040D01*
X2573130D02*
X2729130Y444040D01*
X1526650Y669040D02*
X1682650Y825040D01*
X1526650D02*
X1682650Y669040D01*
X1050400Y444040D02*
X1206400Y288040D01*
X1050400D02*
X1206400Y444040D01*
X572880Y669040D02*
X728880Y825040D01*
X572880D02*
X728880Y669040D01*
X668530Y444040D02*
X824530Y288040D01*
X668530D02*
X824530Y444040D01*
X1334880Y669040D02*
X1490880Y825040D01*
X1334880D02*
X1490880Y669040D01*
X477630Y444040D02*
X633630Y288040D01*
X477630D02*
X633630Y444040D01*
X2192130Y288040D02*
X2348130Y444040D01*
X2192130D02*
X2348130Y288040D01*
X146160Y825040D02*
X302160Y669040D01*
X146160D02*
X302160Y825040D01*
X359520Y97540D02*
X515520Y253540D01*
X359520D02*
X515520Y97540D01*
D118*
X1536485Y150970D02*
X1544949Y159434D01*
X1536485D02*
X1544949Y150970D01*
X1536485Y155202D02*
X1544949D01*
X1540717Y159434D02*
Y150970D01*
X1657575Y250910D02*
X1649111Y242446D01*
X1657575D02*
X1649111Y250910D01*
X1657575Y246678D02*
X1649111D01*
X1653343Y242446D02*
Y250910D01*
X1701004Y228499D02*
X1709468Y220035D01*
Y228499D02*
X1701004Y220035D01*
X1705236Y228499D02*
Y220035D01*
X1709468Y224267D02*
X1701004D01*
D120*
X852570Y1041920D02*
G03*
X852570Y1041920I-2000J0D01*
G01*
X2120030D02*
G03*
X2120030Y1041920I-2000J0D01*
G01*
X857570Y1036920D02*
Y1076920D01*
X817570Y1036920D02*
X857570D01*
X817570Y1076920D02*
X857570D01*
X817570Y1036920D02*
Y1076920D01*
X2125030Y1036920D02*
Y1076920D01*
X2085030Y1036920D02*
X2125030D01*
X2085030Y1076920D02*
X2125030D01*
X2085030Y1036920D02*
Y1076920D01*
X1651500Y63770D02*
Y94270D01*
X1634000Y63770D02*
Y94270D01*
X1651500D01*
X1634000Y63770D02*
X1651500D01*
X1598440Y101870D02*
Y132370D01*
X1615940Y101870D02*
Y132370D01*
X1598440Y101870D02*
X1615940D01*
X1598440Y132370D02*
X1615940D01*
X1598440Y63770D02*
Y94270D01*
X1615940Y63770D02*
Y94270D01*
X1598440Y63770D02*
X1615940D01*
X1598440Y94270D02*
X1615940D01*
X1571620Y1077840D02*
X1602120D01*
X1571620Y1095340D02*
X1602120D01*
Y1077840D02*
Y1095340D01*
X1571620Y1077840D02*
Y1095340D01*
X413530Y573450D02*
Y623450D01*
X367530Y573450D02*
X413530D01*
X367530D02*
Y623450D01*
X413530D01*
X310380Y798710D02*
X356380D01*
X310380Y748710D02*
Y798710D01*
Y748710D02*
X356380D01*
Y798710D01*
X310380Y854590D02*
X356380D01*
X310380Y804590D02*
Y854590D01*
Y804590D02*
X356380D01*
Y854590D01*
X367530Y567570D02*
X413530D01*
X367530Y517570D02*
Y567570D01*
Y517570D02*
X413530D01*
Y567570D01*
X399280Y321190D02*
X445280D01*
X399280Y271190D02*
Y321190D01*
Y271190D02*
X445280D01*
Y321190D01*
X399280Y377070D02*
X445280D01*
X399280Y327070D02*
Y377070D01*
Y327070D02*
X445280D01*
Y377070D01*
X399280Y431680D02*
X445280D01*
X399280Y381680D02*
Y431680D01*
Y381680D02*
X445280D01*
Y431680D01*
X367530Y511690D02*
X413530D01*
X367530Y461690D02*
Y511690D01*
Y461690D02*
X413530D01*
Y511690D01*
D121*
X1561978Y157330D02*
G03*
X1555882Y157330I-3048J0D01*
G01*
X1632082Y244550D02*
G03*
X1638178Y244550I3048J0D01*
G01*
D122*
X2554736Y557810D02*
G03*
X2554736Y557810I-6476J0D01*
G01*
X2538510Y567260D02*
X2621510D01*
X2538510Y510260D02*
Y567260D01*
Y510260D02*
X2621510D01*
Y567260D01*
D123*
X1543180Y161580D02*
Y164580D01*
Y161580D02*
Y164580D01*
Y166580D02*
Y169580D01*
Y166580D02*
Y169580D01*
Y171580D02*
Y174580D01*
Y171580D02*
Y174580D01*
Y176580D02*
Y179580D01*
Y176580D02*
Y179580D01*
Y181580D02*
Y184580D01*
Y181580D02*
Y184580D01*
Y186580D02*
Y189580D01*
Y186580D02*
Y189580D01*
Y191580D02*
Y194580D01*
Y191580D02*
Y194580D01*
X1574680Y191580D02*
Y194580D01*
Y191580D02*
Y194580D01*
Y186580D02*
Y189580D01*
Y186580D02*
Y189580D01*
Y181580D02*
Y184580D01*
Y181580D02*
Y184580D01*
Y176580D02*
Y179580D01*
Y176580D02*
Y179580D01*
Y171580D02*
Y174580D01*
Y171580D02*
Y174580D01*
Y166580D02*
Y169580D01*
Y166580D02*
Y169580D01*
Y161580D02*
Y164580D01*
Y161580D02*
Y164580D01*
X1543180Y198830D02*
X1574680D01*
Y157330D02*
Y198830D01*
X1543180Y157330D02*
X1574680D01*
X1543180D02*
Y198830D01*
X1650880Y203050D02*
Y244550D01*
X1619380D02*
X1650880D01*
X1619380Y203050D02*
Y244550D01*
Y203050D02*
X1650880D01*
X1619380Y237300D02*
Y240300D01*
Y237300D02*
Y240300D01*
Y232300D02*
Y235300D01*
Y232300D02*
Y235300D01*
Y227300D02*
Y230300D01*
Y227300D02*
Y230300D01*
Y222300D02*
Y225300D01*
Y222300D02*
Y225300D01*
Y217300D02*
Y220300D01*
Y217300D02*
Y220300D01*
Y212300D02*
Y215300D01*
Y212300D02*
Y215300D01*
Y207300D02*
Y210300D01*
Y207300D02*
Y210300D01*
X1650880Y207300D02*
Y210300D01*
Y207300D02*
Y210300D01*
Y212300D02*
Y215300D01*
Y212300D02*
Y215300D01*
Y217300D02*
Y220300D01*
Y217300D02*
Y220300D01*
Y222300D02*
Y225300D01*
Y222300D02*
Y225300D01*
Y227300D02*
Y230300D01*
Y227300D02*
Y230300D01*
Y232300D02*
Y235300D01*
Y232300D02*
Y235300D01*
Y237300D02*
Y240300D01*
Y237300D02*
Y240300D01*
X1693322Y241707D02*
X1885345D01*
X1693322Y61621D02*
Y241707D01*
Y61621D02*
X1885345D01*
Y241707D01*
M02*
