G04*
G04 #@! TF.GenerationSoftware,Altium Limited,Altium Designer,22.10.1 (41)*
G04*
G04 Layer_Color=8242323*
%FSLAX44Y44*%
%MOMM*%
G71*
G04*
G04 #@! TF.SameCoordinates,43F64E9B-3785-48AA-9826-90990096846F*
G04*
G04*
G04 #@! TF.FilePolarity,Positive*
G04*
G01*
G75*
%ADD10C,0.2540*%
%ADD11C,0.1524*%
%ADD29C,0.5080*%
%ADD33C,0.7620*%
%ADD93C,1.2700*%
%ADD140C,0.0127*%
G36*
X3508545Y932426D02*
X3508780Y932074D01*
X3509250Y931486D01*
X3509721Y930780D01*
X3510426Y929722D01*
X3511249Y928664D01*
X3512190Y927371D01*
X3513130Y925960D01*
X3514306Y924314D01*
X3515364Y922667D01*
X3517834Y919023D01*
X3520420Y915025D01*
X3523007Y910910D01*
X3514777Y905854D01*
X3514659Y905972D01*
X3514424Y906324D01*
X3514071Y906912D01*
X3513601Y907735D01*
X3513013Y908793D01*
X3512307Y909969D01*
X3511484Y911380D01*
X3510544Y912909D01*
X3509603Y914437D01*
X3508545Y916201D01*
X3506194Y919963D01*
X3503724Y923961D01*
X3501138Y927959D01*
X3508427Y932544D01*
X3508545Y932426D01*
D02*
G37*
G36*
X3564394Y927841D02*
X3564276Y927723D01*
X3564041Y927253D01*
X3563688Y926665D01*
X3563101Y925724D01*
X3562513Y924666D01*
X3561689Y923373D01*
X3560749Y921962D01*
X3559808Y920316D01*
X3557574Y916906D01*
X3555105Y913144D01*
X3552401Y909264D01*
X3549697Y905501D01*
X3542289Y910675D01*
X3542407Y910792D01*
X3542642Y911145D01*
X3542995Y911615D01*
X3543465Y912438D01*
X3544053Y913261D01*
X3544759Y914437D01*
X3545582Y915731D01*
X3546522Y917141D01*
X3547463Y918670D01*
X3548521Y920316D01*
X3549697Y922197D01*
X3550872Y924079D01*
X3553342Y928311D01*
X3555928Y932779D01*
X3564394Y927841D01*
D02*
G37*
G36*
X3354520Y902797D02*
X3355460Y902680D01*
X3356401Y902327D01*
X3357341Y901974D01*
X3358400Y901386D01*
X3359340Y900681D01*
X3359458Y900563D01*
X3359693Y900328D01*
X3360163Y899858D01*
X3360634Y899270D01*
X3360986Y898447D01*
X3361457Y897506D01*
X3361692Y896448D01*
X3361809Y895272D01*
Y895155D01*
Y894684D01*
X3361692Y894096D01*
X3361457Y893273D01*
X3361221Y892450D01*
X3360751Y891510D01*
X3360163Y890569D01*
X3359340Y889746D01*
X3359223Y889629D01*
X3358870Y889393D01*
X3358400Y889041D01*
X3357577Y888688D01*
X3356754Y888335D01*
X3355578Y887982D01*
X3354402Y887747D01*
X3352991Y887630D01*
X3352403D01*
X3351698Y887747D01*
X3350875Y887865D01*
X3349934Y888100D01*
X3348876Y888570D01*
X3347818Y889041D01*
X3346877Y889746D01*
X3346760Y889864D01*
X3346524Y890099D01*
X3346172Y890687D01*
X3345701Y891275D01*
X3345231Y892098D01*
X3344878Y893038D01*
X3344643Y894096D01*
X3344525Y895272D01*
Y895390D01*
Y895860D01*
X3344643Y896448D01*
X3344878Y897271D01*
X3345114Y898094D01*
X3345584Y899035D01*
X3346172Y899975D01*
X3346995Y900798D01*
X3347112Y900916D01*
X3347465Y901151D01*
X3347935Y901504D01*
X3348758Y901857D01*
X3349581Y902209D01*
X3350640Y902562D01*
X3351933Y902797D01*
X3353226Y902915D01*
X3353814D01*
X3354520Y902797D01*
D02*
G37*
G36*
X3491614Y917964D02*
X3505018D01*
Y909499D01*
X3491614D01*
Y897036D01*
X3493613Y900093D01*
X3493730Y899975D01*
X3493965Y899740D01*
X3494436Y899270D01*
X3495023Y898682D01*
X3495847Y897977D01*
X3496670Y897153D01*
X3498669Y895037D01*
X3501020Y892685D01*
X3503489Y890099D01*
X3506076Y887395D01*
X3508545Y884690D01*
X3501490Y878576D01*
X3501373Y878694D01*
X3501255Y878929D01*
X3500902Y879282D01*
X3500550Y879752D01*
X3499374Y881045D01*
X3498081Y882691D01*
X3496552Y884690D01*
X3494906Y886807D01*
X3493142Y889158D01*
X3491614Y891392D01*
Y842363D01*
X3482325D01*
Y891275D01*
X3482208Y890804D01*
X3481973Y889981D01*
X3481737Y888923D01*
X3481385Y887747D01*
X3480914Y886219D01*
X3480327Y884573D01*
X3479739Y882809D01*
X3479033Y880928D01*
X3478093Y878929D01*
X3476212Y874696D01*
X3473742Y870463D01*
X3472449Y868347D01*
X3470920Y866348D01*
X3470803Y866583D01*
X3470568Y867171D01*
X3470097Y868112D01*
X3469627Y869288D01*
X3468922Y870699D01*
X3468216Y872345D01*
X3466805Y875754D01*
X3466923Y875990D01*
X3467275Y876460D01*
X3467746Y877283D01*
X3468451Y878459D01*
X3469274Y879870D01*
X3470333Y881516D01*
X3471391Y883514D01*
X3472567Y885631D01*
X3473742Y888100D01*
X3475036Y890687D01*
X3476212Y893391D01*
X3477505Y896448D01*
X3478798Y899505D01*
X3479974Y902680D01*
X3482090Y909499D01*
X3467746D01*
Y917964D01*
X3482325D01*
Y937247D01*
X3491614D01*
Y917964D01*
D02*
G37*
G36*
X3277742Y854708D02*
X3262928D01*
Y894684D01*
Y894802D01*
Y895037D01*
Y895390D01*
Y895860D01*
Y896448D01*
Y897153D01*
X3263045Y898917D01*
Y901033D01*
X3263163Y903385D01*
X3263280Y906089D01*
X3263515Y908911D01*
X3263045D01*
Y908793D01*
Y908676D01*
X3262928Y907971D01*
X3262692Y906795D01*
X3262457Y905501D01*
X3262104Y904090D01*
X3261752Y902562D01*
X3261399Y901269D01*
X3261046Y900093D01*
X3245291Y854708D01*
X3233063D01*
X3217072Y899622D01*
Y899740D01*
X3216955Y900093D01*
X3216837Y900563D01*
X3216602Y901504D01*
X3216249Y902680D01*
X3215897Y904326D01*
X3215779Y905266D01*
X3215544Y906442D01*
X3215191Y907618D01*
X3214956Y908911D01*
X3214603D01*
Y908793D01*
Y908441D01*
Y907971D01*
X3214721Y907265D01*
Y906442D01*
X3214839Y905384D01*
Y904326D01*
X3214956Y903032D01*
Y900328D01*
X3215074Y897506D01*
X3215191Y894449D01*
Y891627D01*
Y854708D01*
X3201670D01*
Y921492D01*
X3223657D01*
X3237296Y881869D01*
X3237413Y881633D01*
X3237531Y881045D01*
X3237884Y880105D01*
X3238236Y878929D01*
X3238589Y877518D01*
X3238942Y875872D01*
X3239294Y874108D01*
X3239647Y872345D01*
X3240000D01*
Y872462D01*
X3240117Y872580D01*
X3240235Y873285D01*
X3240470Y874344D01*
X3240823Y875637D01*
X3241176Y877165D01*
X3241646Y878694D01*
X3242116Y880340D01*
X3242587Y881986D01*
X3256343Y921492D01*
X3277742D01*
Y854708D01*
D02*
G37*
G36*
X3330887Y909499D02*
X3306666D01*
X3305843Y896095D01*
X3306431D01*
X3307136Y896213D01*
X3308900D01*
X3309958Y896330D01*
X3312898D01*
X3313720Y896213D01*
X3314543D01*
X3315484Y896095D01*
X3317836Y895625D01*
X3320422Y895037D01*
X3323127Y894096D01*
X3325713Y892685D01*
X3326889Y891862D01*
X3328065Y890922D01*
X3328182Y890804D01*
X3328300Y890687D01*
X3328653Y890334D01*
X3329005Y889981D01*
X3329946Y888688D01*
X3331004Y887042D01*
X3332062Y885043D01*
X3333003Y882574D01*
X3333708Y879634D01*
X3333826Y878106D01*
X3333944Y876460D01*
Y876342D01*
Y875990D01*
Y875519D01*
X3333826Y874814D01*
X3333708Y873873D01*
X3333591Y872933D01*
X3333121Y870581D01*
X3332298Y867994D01*
X3331710Y866583D01*
X3331004Y865290D01*
X3330181Y863879D01*
X3329358Y862586D01*
X3328182Y861293D01*
X3327007Y859999D01*
X3326889Y859882D01*
X3326654Y859764D01*
X3326301Y859411D01*
X3325713Y859059D01*
X3325008Y858588D01*
X3324185Y858000D01*
X3323244Y857412D01*
X3322068Y856825D01*
X3320775Y856237D01*
X3319364Y855649D01*
X3317836Y855179D01*
X3316190Y854591D01*
X3314308Y854238D01*
X3312427Y853885D01*
X3310311Y853768D01*
X3308194Y853650D01*
X3306548D01*
X3305725Y853768D01*
X3304785D01*
X3302551Y854003D01*
X3299964Y854355D01*
X3297260Y854826D01*
X3294555Y855414D01*
X3291969Y856354D01*
Y868935D01*
X3292086D01*
X3292321Y868818D01*
X3292674Y868582D01*
X3293145Y868347D01*
X3293733Y867994D01*
X3294555Y867642D01*
X3296319Y866936D01*
X3298553Y866113D01*
X3301022Y865525D01*
X3303727Y865055D01*
X3306548Y864820D01*
X3307489D01*
X3308547Y864937D01*
X3309840Y865173D01*
X3311252Y865525D01*
X3312780Y865996D01*
X3314308Y866583D01*
X3315602Y867524D01*
X3315719Y867642D01*
X3316072Y867994D01*
X3316660Y868700D01*
X3317248Y869523D01*
X3317836Y870581D01*
X3318423Y871874D01*
X3318776Y873403D01*
X3318894Y875049D01*
Y875167D01*
Y875519D01*
X3318776Y875990D01*
X3318659Y876578D01*
X3318423Y877401D01*
X3318188Y878224D01*
X3317718Y879164D01*
X3317130Y880105D01*
X3316425Y880928D01*
X3315484Y881869D01*
X3314308Y882691D01*
X3313015Y883514D01*
X3311369Y884102D01*
X3309488Y884573D01*
X3307372Y884926D01*
X3304902Y885043D01*
X3302903D01*
X3301493Y884926D01*
X3299729Y884808D01*
X3297730Y884690D01*
X3295496Y884455D01*
X3293027Y884220D01*
X3295496Y921492D01*
X3330887D01*
Y909499D01*
D02*
G37*
G36*
X3354520Y868700D02*
X3355460Y868582D01*
X3356401Y868347D01*
X3357341Y867877D01*
X3358400Y867406D01*
X3359340Y866701D01*
X3359458Y866583D01*
X3359693Y866348D01*
X3360163Y865878D01*
X3360634Y865173D01*
X3360986Y864467D01*
X3361457Y863527D01*
X3361692Y862351D01*
X3361809Y861175D01*
Y861057D01*
Y860587D01*
X3361692Y859999D01*
X3361457Y859176D01*
X3361221Y858353D01*
X3360751Y857412D01*
X3360163Y856472D01*
X3359340Y855649D01*
X3359223Y855531D01*
X3358870Y855296D01*
X3358400Y855061D01*
X3357577Y854708D01*
X3356754Y854238D01*
X3355578Y854003D01*
X3354402Y853768D01*
X3352991Y853650D01*
X3352403D01*
X3351698Y853768D01*
X3350875Y853885D01*
X3349934Y854120D01*
X3348876Y854591D01*
X3347818Y855061D01*
X3346877Y855767D01*
X3346760Y855884D01*
X3346524Y856119D01*
X3346172Y856590D01*
X3345701Y857295D01*
X3345231Y858118D01*
X3344878Y858941D01*
X3344643Y859999D01*
X3344525Y861175D01*
Y861293D01*
Y861763D01*
X3344643Y862351D01*
X3344878Y863174D01*
X3345114Y863997D01*
X3345584Y864937D01*
X3346172Y865878D01*
X3346995Y866701D01*
X3347112Y866819D01*
X3347465Y867054D01*
X3347935Y867406D01*
X3348758Y867759D01*
X3349581Y868112D01*
X3350640Y868465D01*
X3351933Y868700D01*
X3353226Y868818D01*
X3353814D01*
X3354520Y868700D01*
D02*
G37*
G36*
X3416483Y938423D02*
X3416953Y937717D01*
X3417658Y936659D01*
X3418128Y935836D01*
X3418599Y935013D01*
X3419187Y934072D01*
X3419892Y932897D01*
X3420598Y931721D01*
X3421421Y930428D01*
X3422244Y928899D01*
X3423067Y927253D01*
X3424007Y925607D01*
X3425066Y923726D01*
X3418128Y921727D01*
X3463278D01*
Y912556D01*
X3445289D01*
Y912438D01*
Y912203D01*
X3445171Y911851D01*
X3445054Y911380D01*
X3444936Y910792D01*
X3444701Y909969D01*
X3444231Y908088D01*
X3443643Y905854D01*
X3442820Y903267D01*
X3441879Y900328D01*
X3440703Y897153D01*
X3439410Y893861D01*
X3437764Y890334D01*
X3436000Y886807D01*
X3434001Y883162D01*
X3431767Y879634D01*
X3429298Y876225D01*
X3426594Y872933D01*
X3423537Y869758D01*
X3423654Y869641D01*
X3424125Y869405D01*
X3424830Y868935D01*
X3425889Y868347D01*
X3427182Y867524D01*
X3428828Y866701D01*
X3430827Y865643D01*
X3433178Y864467D01*
X3435765Y863291D01*
X3438705Y861998D01*
X3441996Y860705D01*
X3445759Y859294D01*
X3449756Y857883D01*
X3454107Y856472D01*
X3458810Y854943D01*
X3463983Y853532D01*
Y853415D01*
X3463748Y853297D01*
X3463513Y852945D01*
X3463278Y852474D01*
X3462337Y851416D01*
X3461397Y850005D01*
X3460221Y848477D01*
X3458928Y846831D01*
X3457752Y845185D01*
X3456694Y843656D01*
X3456576D01*
X3456341Y843774D01*
X3455988Y843891D01*
X3455518Y844126D01*
X3454812Y844361D01*
X3453989Y844597D01*
X3452108Y845302D01*
X3449874Y846125D01*
X3447170Y847183D01*
X3444231Y848359D01*
X3441173Y849652D01*
X3437881Y851063D01*
X3434472Y852592D01*
X3427887Y855884D01*
X3424595Y857648D01*
X3421538Y859411D01*
X3418716Y861293D01*
X3416247Y863174D01*
X3416130Y863056D01*
X3415659Y862703D01*
X3414954Y862233D01*
X3413896Y861528D01*
X3412485Y860587D01*
X3410839Y859529D01*
X3408723Y858236D01*
X3406371Y856942D01*
X3403667Y855531D01*
X3400610Y853885D01*
X3397200Y852239D01*
X3393438Y850475D01*
X3389322Y848712D01*
X3384737Y846831D01*
X3379799Y844832D01*
X3374508Y842951D01*
X3374390Y843068D01*
X3374037Y843656D01*
X3373449Y844361D01*
X3372626Y845537D01*
X3371686Y846831D01*
X3370628Y848359D01*
X3369452Y850005D01*
X3368159Y851886D01*
X3368276D01*
X3368511Y852004D01*
X3368864Y852122D01*
X3369334Y852239D01*
X3370040Y852474D01*
X3370863Y852710D01*
X3372744Y853415D01*
X3375096Y854120D01*
X3377682Y855061D01*
X3380622Y856119D01*
X3383796Y857295D01*
X3387088Y858588D01*
X3390498Y859999D01*
X3397435Y863056D01*
X3400727Y864702D01*
X3403902Y866348D01*
X3406724Y867994D01*
X3409428Y869758D01*
X3409193Y869993D01*
X3408723Y870581D01*
X3407782Y871639D01*
X3406606Y872933D01*
X3405195Y874696D01*
X3403667Y876813D01*
X3401903Y879164D01*
X3400139Y881869D01*
X3398258Y884926D01*
X3396377Y888218D01*
X3394496Y891745D01*
X3392732Y895507D01*
X3391086Y899387D01*
X3389557Y903620D01*
X3388382Y907971D01*
X3387324Y912556D01*
X3369099D01*
Y921727D01*
X3415071D01*
Y921844D01*
X3414836Y922080D01*
X3414601Y922432D01*
X3414248Y923020D01*
X3413896Y923726D01*
X3413426Y924431D01*
X3412367Y926195D01*
X3411191Y928311D01*
X3409898Y930428D01*
X3408723Y932544D01*
X3407547Y934543D01*
X3416365Y938658D01*
X3416483Y938423D01*
D02*
G37*
G36*
X3536881Y902562D02*
X3561337D01*
Y842010D01*
X3551931D01*
Y847419D01*
X3500550D01*
Y856119D01*
X3551931D01*
Y871051D01*
X3504665D01*
Y879634D01*
X3551931D01*
Y893744D01*
X3503019D01*
Y902562D01*
X3527475D01*
Y937365D01*
X3536881D01*
Y902562D01*
D02*
G37*
%LPC*%
G36*
X3435177Y912556D02*
X3396965D01*
Y912438D01*
Y912321D01*
X3397082Y911968D01*
X3397200Y911615D01*
X3397435Y910440D01*
X3397905Y908911D01*
X3398376Y907030D01*
X3399081Y904796D01*
X3400022Y902327D01*
X3400962Y899622D01*
X3402256Y896801D01*
X3403549Y893861D01*
X3405195Y890804D01*
X3406959Y887747D01*
X3408958Y884573D01*
X3411309Y881516D01*
X3413778Y878576D01*
X3416483Y875754D01*
X3416600Y875872D01*
X3417070Y876342D01*
X3417893Y877165D01*
X3418834Y878341D01*
X3420010Y879634D01*
X3421303Y881398D01*
X3422714Y883279D01*
X3424243Y885513D01*
X3425889Y888100D01*
X3427417Y890804D01*
X3429063Y893861D01*
X3430474Y897153D01*
X3431885Y900681D01*
X3433178Y904443D01*
X3434236Y908323D01*
X3435177Y912556D01*
D02*
G37*
%LPD*%
D10*
X1207000Y5500D02*
X1810500D01*
X1207000Y500D02*
X1810500D01*
X1207000D02*
Y5500D01*
X1810500Y500D02*
Y5500D01*
X0Y1107500D02*
X100000D01*
X0Y1207500D02*
X100000D01*
Y1107500D02*
Y1207500D01*
X0Y1107500D02*
Y1207500D01*
Y1132500D02*
X75000D01*
X0Y1207500D02*
X75000D01*
Y1132500D02*
Y1207500D01*
X0Y1132500D02*
Y1207500D01*
X1810500Y1202500D02*
X2414000D01*
X1810500Y1207500D02*
X2414000D01*
Y1202500D02*
Y1207500D01*
X1810500Y1202500D02*
Y1207500D01*
X5000Y500D02*
Y604000D01*
X0Y500D02*
Y604000D01*
X5000D01*
X0Y500D02*
X5000D01*
X2414000Y1202500D02*
X3017500D01*
X2414000Y1207500D02*
X3017500D01*
Y1202500D02*
Y1207500D01*
X2414000Y1202500D02*
Y1207500D01*
X603500Y1202500D02*
X1207000D01*
X603500Y1207500D02*
X1207000D01*
Y1202500D02*
Y1207500D01*
X603500Y1202500D02*
Y1207500D01*
X2917500Y1107500D02*
X3017500D01*
X2917500Y1207500D02*
X3017500D01*
Y1107500D02*
Y1207500D01*
X2917500Y1107500D02*
Y1207500D01*
X2917500Y-0D02*
X3017500D01*
X2917500Y100000D02*
X3017500D01*
Y-0D02*
Y100000D01*
X2917500Y-0D02*
Y100000D01*
X2414000Y5500D02*
X3017500D01*
X2414000Y500D02*
X3017500D01*
X2414000D02*
Y5500D01*
X3017500Y500D02*
Y5500D01*
X3012500Y604000D02*
Y1207500D01*
X3017500Y604000D02*
Y1207500D01*
X3012500Y604000D02*
X3017500D01*
X3012500Y1207500D02*
X3017500D01*
X1207000Y1202500D02*
X1810500D01*
X1207000Y1207500D02*
X1810500D01*
Y1202500D02*
Y1207500D01*
X1207000Y1202500D02*
Y1207500D01*
X5000Y604000D02*
Y1207500D01*
X0Y604000D02*
Y1207500D01*
X5000D01*
X0Y604000D02*
X5000D01*
X0Y5500D02*
X603500D01*
X0Y500D02*
X603500D01*
X0D02*
Y5500D01*
X603500Y500D02*
Y5500D01*
X2837500Y1120200D02*
X3017500D01*
X2837500Y1207500D02*
X3017500D01*
Y1120200D02*
Y1207500D01*
X2837500Y1120200D02*
Y1207500D01*
X0Y-0D02*
X100000D01*
X0Y100000D02*
X100000D01*
Y-0D02*
Y100000D01*
X0Y-0D02*
Y100000D01*
X3012500Y500D02*
Y604000D01*
X3017500Y500D02*
Y604000D01*
X3012500Y500D02*
X3017500D01*
X3012500Y604000D02*
X3017500D01*
X603500Y5500D02*
X1207000D01*
X603500Y500D02*
X1207000D01*
X603500D02*
Y5500D01*
X1207000Y500D02*
Y5500D01*
X0Y1202500D02*
X603500D01*
X0Y1207500D02*
X603500D01*
Y1202500D02*
Y1207500D01*
X0Y1202500D02*
Y1207500D01*
X1810500Y5500D02*
X2414000D01*
X1810500Y500D02*
X2414000D01*
X1810500D02*
Y5500D01*
X2414000Y500D02*
Y5500D01*
X2715750Y1044370D02*
Y1202500D01*
X175120Y1067500D02*
X285450D01*
X395780D01*
X506110D01*
X616440D01*
X726770D01*
X837100D01*
X947430D01*
X1057760D01*
X1168090D01*
X1278420D01*
X1388750D01*
X2492050D02*
X2602380D01*
X2381720D02*
X2492050D01*
X2271390D02*
X2381720D01*
X2161060D02*
X2271390D01*
X2050730D02*
X2161060D01*
X1940400D02*
X2050730D01*
X1830070D02*
X1940400D01*
X1719740D02*
X1830070D01*
X1609410D02*
X1719740D01*
X1499080D02*
X1609410D01*
X1388750D02*
X1499080D01*
X1508750Y5500D02*
Y1107500D01*
X5000D02*
X1508750D01*
X1508750Y5500D02*
Y119040D01*
X1107000Y1081240D02*
Y1205000D01*
X2260625Y1035330D02*
Y1107500D01*
X1508750D02*
X3012500D01*
X756875Y1031520D02*
Y1107500D01*
X100000D02*
X2917500D01*
X100000Y1047060D02*
Y1107500D01*
X301750Y1046880D02*
Y1202500D01*
X2715750Y5500D02*
Y109350D01*
X703500Y3000D02*
Y97520D01*
X301750Y5500D02*
Y95410D01*
X2514000Y1039170D02*
Y1105000D01*
X1910500Y1042730D02*
Y1105000D01*
X1307000Y1034530D02*
Y1105000D01*
X703500Y1037150D02*
Y1105000D01*
X5000Y302250D02*
X105760D01*
X2879690Y905750D02*
X3012500D01*
X1307000Y1205000D02*
X1319500D01*
X2500Y704000D02*
X102500D01*
X703500Y1105000D02*
Y1205000D01*
X1307000Y1105000D02*
Y1205000D01*
X1910500Y1105000D02*
Y1205000D01*
X2514000Y1105000D02*
Y1205000D01*
X2915000Y504000D02*
X3015000D01*
X2500Y1107500D02*
Y1207500D01*
Y604000D02*
Y704000D01*
Y504000D02*
Y604000D01*
Y500D02*
Y100500D01*
X0Y3000D02*
X100000D01*
X503500D02*
X603500D01*
X703500D01*
X1107000D02*
X1207000D01*
X1307000D01*
X1710500D02*
X1810500D01*
X1910500D01*
X2313301Y3003D02*
X2413301D01*
X2414000Y3000D02*
X2514000D01*
X2917500D02*
X3017500D01*
X3015000Y500D02*
Y100500D01*
Y504000D02*
Y604000D01*
Y704000D01*
Y1107500D02*
Y1207500D01*
X2917500Y1205000D02*
X3017500D01*
X2414000D02*
X2514000D01*
X2314000D02*
X2414000D01*
X1810500D02*
X1910500D01*
X1710500D02*
X1810500D01*
X1107000D02*
X1207000D01*
X1307000D01*
X603500D02*
X703500D01*
X503500D02*
X603500D01*
X0D02*
X100000D01*
X119900Y1059460D02*
X135140Y1064540D01*
X119900Y1059460D02*
X135140Y1054380D01*
X2642360D02*
X2657600Y1059460D01*
X2642360Y1064540D02*
X2657600Y1059460D01*
X119900D02*
X1338726D01*
X1430647D02*
X2657600D01*
X119900Y1056920D02*
Y1073850D01*
X2657600Y1056920D02*
Y1073850D01*
X0Y1256310D02*
X15240Y1261390D01*
X0Y1256310D02*
X15240Y1251230D01*
X3002260D02*
X3017500Y1256310D01*
X3002260Y1261390D02*
X3017500Y1256310D01*
X0D02*
X1444760D01*
X1564612D02*
X3017500D01*
X0Y1206310D02*
Y1258850D01*
X3017500Y1211310D02*
Y1258850D01*
X3118490Y1207500D02*
X3123570Y1192260D01*
X3113410D02*
X3118490Y1207500D01*
X3113410Y15240D02*
X3118490Y-0D01*
X3123570Y15240D01*
X3118490Y659612D02*
Y1207500D01*
Y-0D02*
Y539760D01*
X3021310Y1207500D02*
X3121030D01*
X3021310Y-0D02*
X3121030D01*
X3035940Y444860D02*
X3041020Y429620D01*
X3030860D02*
X3035940Y444860D01*
X3030860Y470100D02*
X3035940Y454860D01*
X3041020Y470100D01*
X3035940Y419460D02*
Y444860D01*
Y454860D02*
Y480260D01*
X2489920Y454860D02*
X3038480D01*
X2489920Y444860D02*
X3038480D01*
X3035940Y254360D02*
X3041020Y239120D01*
X3030860D02*
X3035940Y254360D01*
X3030860Y279600D02*
X3035940Y264360D01*
X3041020Y279600D01*
X3035940Y228960D02*
Y254360D01*
Y264360D02*
Y289760D01*
X2346330Y264360D02*
X3038480D01*
X2346330Y254360D02*
X3038480D01*
X1408750Y1183920D02*
X1423990Y1189000D01*
X1408750Y1183920D02*
X1423990Y1178840D01*
X1593510D02*
X1608750Y1183920D01*
X1593510Y1189000D02*
X1608750Y1183920D01*
X1408750D02*
X1466343D01*
X1543029D02*
X1608750D01*
X1408750Y1132500D02*
Y1186460D01*
X1608750Y1132500D02*
Y1186460D01*
D11*
X1352946Y1050318D02*
X1342790D01*
X1352946Y1060475D01*
Y1063014D01*
X1350407Y1065553D01*
X1345329D01*
X1342790Y1063014D01*
X1368181Y1065553D02*
X1358025D01*
Y1057936D01*
X1363103Y1060475D01*
X1365642D01*
X1368181Y1057936D01*
Y1052858D01*
X1365642Y1050318D01*
X1360564D01*
X1358025Y1052858D01*
X1373260Y1063014D02*
X1375799Y1065553D01*
X1380877D01*
X1383416Y1063014D01*
Y1060475D01*
X1380877Y1057936D01*
X1378338D01*
X1380877D01*
X1383416Y1055397D01*
Y1052858D01*
X1380877Y1050318D01*
X1375799D01*
X1373260Y1052858D01*
X1388495Y1050318D02*
Y1052858D01*
X1391034D01*
Y1050318D01*
X1388495D01*
X1401191Y1065553D02*
X1411348D01*
Y1063014D01*
X1401191Y1052858D01*
Y1050318D01*
X1416426Y1065553D02*
X1426582D01*
Y1063014D01*
X1416426Y1052858D01*
Y1050318D01*
X1448824Y1259864D02*
X1451363Y1262403D01*
X1456442D01*
X1458981Y1259864D01*
Y1257325D01*
X1456442Y1254786D01*
X1453903D01*
X1456442D01*
X1458981Y1252247D01*
Y1249708D01*
X1456442Y1247168D01*
X1451363D01*
X1448824Y1249708D01*
X1464059Y1259864D02*
X1466599Y1262403D01*
X1471677D01*
X1474216Y1259864D01*
Y1249708D01*
X1471677Y1247168D01*
X1466599D01*
X1464059Y1249708D01*
Y1259864D01*
X1479294Y1247168D02*
X1484373D01*
X1481833D01*
Y1262403D01*
X1479294Y1259864D01*
X1491990Y1247168D02*
Y1249708D01*
X1494529D01*
Y1247168D01*
X1491990D01*
X1504686Y1262403D02*
X1514843D01*
Y1259864D01*
X1504686Y1249708D01*
Y1247168D01*
X1530078Y1262403D02*
X1519921D01*
Y1254786D01*
X1525000Y1257325D01*
X1527539D01*
X1530078Y1254786D01*
Y1249708D01*
X1527539Y1247168D01*
X1522460D01*
X1519921Y1249708D01*
X1535156Y1247168D02*
Y1257325D01*
X1537695D01*
X1540235Y1254786D01*
Y1247168D01*
Y1254786D01*
X1542774Y1257325D01*
X1545313Y1254786D01*
Y1247168D01*
X1550391D02*
Y1257325D01*
X1552930D01*
X1555470Y1254786D01*
Y1247168D01*
Y1254786D01*
X1558009Y1257325D01*
X1560548Y1254786D01*
Y1247168D01*
X3127632Y543824D02*
Y548902D01*
Y546363D01*
X3112397D01*
X3114936Y543824D01*
X3127632Y566677D02*
Y556520D01*
X3117475Y566677D01*
X3114936D01*
X3112397Y564137D01*
Y559059D01*
X3114936Y556520D01*
Y571755D02*
X3112397Y574294D01*
Y579372D01*
X3114936Y581912D01*
X3125092D01*
X3127632Y579372D01*
Y574294D01*
X3125092Y571755D01*
X3114936D01*
X3127632Y586990D02*
X3125092D01*
Y589529D01*
X3127632D01*
Y586990D01*
X3112397Y599686D02*
Y609843D01*
X3114936D01*
X3125092Y599686D01*
X3127632D01*
X3112397Y625078D02*
Y614921D01*
X3120014D01*
X3117475Y619999D01*
Y622538D01*
X3120014Y625078D01*
X3125092D01*
X3127632Y622538D01*
Y617460D01*
X3125092Y614921D01*
X3127632Y630156D02*
X3117475D01*
Y632695D01*
X3120014Y635234D01*
X3127632D01*
X3120014D01*
X3117475Y637774D01*
X3120014Y640313D01*
X3127632D01*
Y645391D02*
X3117475D01*
Y647930D01*
X3120014Y650470D01*
X3127632D01*
X3120014D01*
X3117475Y653009D01*
X3120014Y655548D01*
X3127632D01*
X3072506Y405169D02*
Y410247D01*
Y407708D01*
X3057271D01*
X3059810Y405169D01*
X3072506Y417865D02*
X3069967D01*
Y420404D01*
X3072506D01*
Y417865D01*
X3059810Y430561D02*
X3057271Y433100D01*
Y438178D01*
X3059810Y440718D01*
X3069967D01*
X3072506Y438178D01*
Y433100D01*
X3069967Y430561D01*
X3059810D01*
Y445796D02*
X3057271Y448335D01*
Y453414D01*
X3059810Y455953D01*
X3069967D01*
X3072506Y453414D01*
Y448335D01*
X3069967Y445796D01*
X3059810D01*
X3072506Y461031D02*
X3062350D01*
Y463570D01*
X3064889Y466109D01*
X3072506D01*
X3064889D01*
X3062350Y468648D01*
X3064889Y471188D01*
X3072506D01*
Y476266D02*
X3062350D01*
Y478805D01*
X3064889Y481344D01*
X3072506D01*
X3064889D01*
X3062350Y483884D01*
X3064889Y486423D01*
X3072506D01*
Y214669D02*
Y219747D01*
Y217208D01*
X3057271D01*
X3059810Y214669D01*
X3072506Y227365D02*
X3069967D01*
Y229904D01*
X3072506D01*
Y227365D01*
X3059810Y240061D02*
X3057271Y242600D01*
Y247678D01*
X3059810Y250217D01*
X3069967D01*
X3072506Y247678D01*
Y242600D01*
X3069967Y240061D01*
X3059810D01*
Y255296D02*
X3057271Y257835D01*
Y262913D01*
X3059810Y265452D01*
X3069967D01*
X3072506Y262913D01*
Y257835D01*
X3069967Y255296D01*
X3059810D01*
X3072506Y270531D02*
X3062350D01*
Y273070D01*
X3064889Y275609D01*
X3072506D01*
X3064889D01*
X3062350Y278148D01*
X3064889Y280688D01*
X3072506D01*
Y285766D02*
X3062350D01*
Y288305D01*
X3064889Y290844D01*
X3072506D01*
X3064889D01*
X3062350Y293384D01*
X3064889Y295923D01*
X3072506D01*
X1480564Y1174778D02*
X1470407D01*
X1480564Y1184935D01*
Y1187474D01*
X1478025Y1190013D01*
X1472946D01*
X1470407Y1187474D01*
X1485642D02*
X1488181Y1190013D01*
X1493260D01*
X1495799Y1187474D01*
Y1177318D01*
X1493260Y1174778D01*
X1488181D01*
X1485642Y1177318D01*
Y1187474D01*
X1500877Y1174778D02*
Y1177318D01*
X1503416D01*
Y1174778D01*
X1500877D01*
X1513573Y1187474D02*
X1516112Y1190013D01*
X1521191D01*
X1523730Y1187474D01*
Y1177318D01*
X1521191Y1174778D01*
X1516112D01*
X1513573Y1177318D01*
Y1187474D01*
X1528808D02*
X1531348Y1190013D01*
X1536426D01*
X1538965Y1187474D01*
Y1177318D01*
X1536426Y1174778D01*
X1531348D01*
X1528808Y1177318D01*
Y1187474D01*
D29*
X113750Y1120200D02*
Y1138120D01*
X263750Y1120200D02*
Y1138420D01*
X413750Y1120200D02*
Y1139110D01*
X563750Y1120200D02*
Y1138970D01*
X713750Y1120200D02*
Y1138830D01*
X863750Y1120200D02*
Y1138980D01*
X1013750Y1120200D02*
Y1139120D01*
X1163750Y1120200D02*
Y1140530D01*
X1313750Y1120200D02*
Y1141940D01*
X2663750Y1120200D02*
Y1139550D01*
X2513750Y1120200D02*
Y1140520D01*
X2363750Y1120200D02*
Y1140380D01*
X2213750Y1120200D02*
Y1140240D01*
X2063750Y1120200D02*
Y1140110D01*
X1913750Y1120200D02*
Y1140250D01*
X1763750Y1120200D02*
Y1140390D01*
X1613750Y1120200D02*
Y1140530D01*
X1463750Y1120200D02*
Y1141940D01*
X38750Y1120200D02*
X188750D01*
X2588750D02*
X2738750D01*
X188750D02*
X338750D01*
X488750D01*
X638750D01*
X788750D01*
X938750D01*
X1088750D01*
X1238750D01*
X1388750D01*
X2438750D02*
X2588750D01*
X2288750D02*
X2438750D01*
X2138750D02*
X2288750D01*
X1988750D02*
X2138750D01*
X1838750D02*
X1988750D01*
X1688750D02*
X1838750D01*
X1538750D02*
X1688750D01*
X1388750D02*
X1538750D01*
X1388750Y1080200D02*
Y1160200D01*
D33*
X2697500Y1120300D02*
G03*
X2657600Y1160200I-39900J0D01*
G01*
Y1080200D02*
G03*
X2697500Y1120100I0J39900D01*
G01*
X119900Y1160200D02*
G03*
X80000Y1120300I0J-39900D01*
G01*
Y1120100D02*
G03*
X119900Y1080200I39900J0D01*
G01*
X2937150Y1120080D02*
G03*
X2897150Y1160080I-40000J0D01*
G01*
Y1080080D02*
G03*
X2937150Y1120080I0J40000D01*
G01*
X2777150Y1160080D02*
G03*
X2737150Y1120080I0J-40000D01*
G01*
D02*
G03*
X2777150Y1080080I40000J0D01*
G01*
X119900Y1080200D02*
X2657600D01*
X119900Y1160200D02*
X2657600D01*
X2697500Y1120100D02*
Y1120300D01*
X80000Y1120100D02*
Y1120300D01*
X2777150Y1080080D02*
X2897150D01*
X2777150Y1160080D02*
X2897150D01*
X-1900Y1032495D02*
X3016890D01*
D93*
X3017500Y1107500D02*
G03*
X2917500Y1207500I-100000J0D01*
G01*
Y500D02*
G03*
X3017500Y100500I0J100000D01*
G01*
X100000Y1207500D02*
G03*
X0Y1107500I0J-100000D01*
G01*
Y100500D02*
G03*
X100000Y500I100000J0D01*
G01*
X2917500D01*
X100000Y1207500D02*
X2917500D01*
X3017500Y100500D02*
Y1107500D01*
X0Y100500D02*
Y1107500D01*
D140*
X1962620Y486258D02*
X2102620D01*
Y626251D01*
X1962620Y486258D02*
Y626251D01*
X1912120Y486258D02*
Y626251D01*
X1772120Y486258D02*
X1912120D01*
X1772120Y626251D02*
X1912120D01*
X1772120Y486258D02*
Y626251D01*
X1819750Y435750D02*
X1959740D01*
X2010250Y245251D02*
X2150240D01*
X2010250Y105256D02*
X2150240D01*
Y245251D01*
X2200750Y105256D02*
Y245251D01*
X1959740Y295756D02*
Y435750D01*
X2010250Y295756D02*
Y435750D01*
X2150240D01*
Y295756D02*
Y435750D01*
X2010250Y295756D02*
X2150240D01*
X1819750D02*
X1959740D01*
X2010250Y105256D02*
Y245251D01*
X1931670Y170258D02*
Y198246D01*
X1923430Y170258D02*
X1931670D01*
X1923430Y198246D02*
X1931670D01*
X1923430D02*
Y230548D01*
Y107558D02*
Y170258D01*
X1906180Y107558D02*
X1923430D01*
X1906180Y230548D02*
X1923430D01*
X1906180D02*
Y239767D01*
Y97746D02*
Y107558D01*
X1873170Y239767D02*
X1906180D01*
X1873170Y97746D02*
X1906180D01*
X1629250Y295756D02*
X1769240D01*
X1629250D02*
Y435750D01*
X1769240Y295756D02*
Y435750D01*
X1819750Y295756D02*
Y435750D01*
X1629250D02*
X1769240D01*
X1873170Y230548D02*
Y239767D01*
X1855920Y230548D02*
X1873170D01*
X1855920Y107558D02*
X1873170D01*
X1855920D02*
Y152261D01*
Y198246D02*
Y230548D01*
X1459680Y198246D02*
X1855920D01*
X1459680Y152261D02*
X1855920D01*
X1873170Y97746D02*
Y107558D01*
X1581620Y486258D02*
Y626251D01*
Y486258D02*
X1721620D01*
Y626251D01*
X1581620D02*
X1721620D01*
X2644490Y869558D02*
X2661740D01*
X2644490Y859747D02*
Y869558D01*
Y992547D02*
Y1001768D01*
X2611480D02*
X2644490D01*
X2611480Y992547D02*
Y1001768D01*
Y859747D02*
Y869558D01*
X2594250Y992547D02*
X2611480D01*
X2594250Y869558D02*
X2611480D01*
X2594250Y960246D02*
Y992547D01*
Y869558D02*
Y932257D01*
X2585990Y960246D02*
X2594250D01*
X2585990Y932257D02*
X2594250D01*
X2611480Y859747D02*
X2644490D01*
X2677000Y1007251D02*
X2816990D01*
Y960246D02*
Y1007251D01*
X2677000Y960246D02*
Y1007251D01*
Y867258D02*
Y914248D01*
X2661740Y960246D02*
X2677000D01*
X2661740Y914248D02*
X2677000D01*
X2661740Y960246D02*
Y992547D01*
Y869558D02*
Y914248D01*
X2644490Y992547D02*
X2661740D01*
X2793180Y579246D02*
Y626251D01*
X2724620Y676758D02*
Y816751D01*
X2653170Y626251D02*
X2793180D01*
X2724620Y816751D02*
X2864620D01*
X2724620Y676758D02*
X2864620D01*
X2677000Y867258D02*
X2816990D01*
X2653170Y579246D02*
Y626251D01*
X2585990Y932257D02*
Y960246D01*
X2531240Y867258D02*
Y1007251D01*
X2391250D02*
X2531240D01*
X2486500Y676758D02*
X2626490D01*
X2486500D02*
Y816751D01*
X2391250Y867258D02*
X2531240D01*
X2486500Y816751D02*
X2626490D01*
X2435990Y676758D02*
Y816751D01*
X2626490Y676758D02*
Y816751D01*
X2587670Y620754D02*
X2620660D01*
Y611547D02*
Y620754D01*
X2587670Y611547D02*
Y620754D01*
X2620660Y611547D02*
X2637930D01*
X2570420D02*
X2587670D01*
X2653170Y486258D02*
X2793180D01*
Y533248D02*
X2808420D01*
X2793180Y486258D02*
Y533248D01*
X2808420Y488558D02*
Y533248D01*
X2653170Y486258D02*
Y533248D01*
X2581750Y435750D02*
X2721740D01*
X2793180Y579246D02*
X2808420D01*
Y611547D01*
X2772250Y105256D02*
X2912240D01*
Y245251D01*
Y295756D02*
Y435750D01*
X2772250Y245251D02*
X2912240D01*
X2772250Y295756D02*
X2912240D01*
X2772250D02*
Y435750D01*
X2721740Y295756D02*
Y435750D01*
X2581750Y105256D02*
X2721740D01*
X2581750Y245251D02*
X2721740D01*
X2581750Y295756D02*
X2721740D01*
X2772250Y105256D02*
Y245251D01*
X2721740Y105256D02*
Y245251D01*
X2531240Y295756D02*
Y435750D01*
X2587670Y478747D02*
Y488558D01*
X2581750Y295756D02*
Y435750D01*
X2570420Y488558D02*
X2587670D01*
X2570420D02*
Y551257D01*
X2562180D02*
X2570420D01*
Y579246D02*
Y611547D01*
X2562180Y551257D02*
Y579246D01*
X2483620Y486258D02*
Y626251D01*
X2391250Y435750D02*
X2531240D01*
X2562180Y579246D02*
X2570420D01*
X2391250Y105256D02*
Y245251D01*
X2581750Y105256D02*
Y245251D01*
X2391250D02*
X2531240D01*
Y105256D02*
Y245251D01*
X2391250Y295756D02*
X2531240D01*
X2391250Y105256D02*
X2531240D01*
X2200750Y295756D02*
X2340740D01*
X2200750Y435750D02*
X2340740D01*
X2391250Y295756D02*
Y435750D01*
X2340740Y295756D02*
Y435750D01*
X2200750Y295756D02*
Y435750D01*
X2153120Y486258D02*
X2293120D01*
X2343620D02*
Y626251D01*
X2293120Y486258D02*
Y626251D01*
X2153120Y486258D02*
Y626251D01*
X2293120D01*
X1578740Y867258D02*
Y1007251D01*
X1438750Y867258D02*
X1578740D01*
X1534000Y816751D02*
X1673990D01*
X1438750Y1007251D02*
X1578740D01*
X80001Y1032495D02*
X2937500D01*
X1534000Y676758D02*
X1673990D01*
X1534000D02*
Y816751D01*
X1391120Y626251D02*
X1531120D01*
X1483490Y676758D02*
Y816751D01*
X2343620Y486258D02*
X2483620D01*
X1578740Y295756D02*
Y435750D01*
X1438750Y295756D02*
X1578740D01*
X1438750D02*
Y435750D01*
X1319670Y245251D02*
X1459680D01*
X1319670Y198246D02*
Y245251D01*
X1248230Y295756D02*
X1388240D01*
X1319670Y105256D02*
X1459680D01*
X923431Y198246D02*
X1319670D01*
X1057733Y295756D02*
Y435750D01*
X1007240Y295756D02*
Y435750D01*
X1057733Y295756D02*
X1197740D01*
X867247D02*
X1007240D01*
X923431Y198246D02*
Y230548D01*
Y107558D02*
Y152261D01*
X906176Y107558D02*
X923431D01*
X906176Y230548D02*
X923431D01*
Y152261D02*
X1319670D01*
X80001Y79997D02*
Y1032495D01*
X906176Y97746D02*
Y107558D01*
X873170Y239767D02*
X906176D01*
X873170Y97746D02*
X906176D01*
X873170D02*
Y107558D01*
Y230548D02*
Y239767D01*
X867247Y295756D02*
Y435750D01*
X855920Y107558D02*
X873170D01*
X855920Y230548D02*
X873170D01*
X855920Y198246D02*
Y230548D01*
Y107558D02*
Y170258D01*
X847679Y198246D02*
X855920D01*
X847679Y170258D02*
X855920D01*
X847679D02*
Y198246D01*
X816740Y295756D02*
Y435750D01*
X906176Y230548D02*
Y239767D01*
X2200750Y245251D02*
X2340740D01*
Y105256D02*
Y245251D01*
X2200750Y105256D02*
X2340740D01*
X80001Y79997D02*
X2937500D01*
X1459680Y105256D02*
Y152261D01*
Y198246D02*
Y245251D01*
X605310D02*
X745303D01*
Y105256D02*
Y245251D01*
X605310Y105256D02*
Y245251D01*
Y105256D02*
X745303D01*
X200497Y435750D02*
X340491D01*
Y388746D02*
Y435750D01*
X405990Y421048D02*
Y430268D01*
X372999Y421048D02*
Y430268D01*
X355746Y421048D02*
X372999D01*
X355746Y388746D02*
Y421048D01*
X340491Y388746D02*
X355746D01*
X372999Y430268D02*
X405990D01*
X340491Y342747D02*
X355746D01*
X626240Y295756D02*
Y435750D01*
X676747Y295756D02*
Y435750D01*
X816740D01*
X676747Y295756D02*
X816740D01*
X507178Y105256D02*
Y245251D01*
X367170D02*
X507178D01*
X372999Y288246D02*
X405990D01*
Y298058D01*
X367170Y105256D02*
X507178D01*
X423243Y298058D02*
Y360758D01*
X405990Y298058D02*
X423243D01*
X200497Y388746D02*
Y435750D01*
X185242Y388746D02*
X200497D01*
X185242D02*
Y421048D01*
X167988D02*
X185242D01*
X167988D02*
Y430268D01*
X134999D02*
X167988D01*
X134999Y421048D02*
Y430268D01*
X117746Y421048D02*
X134999D01*
X117746Y388746D02*
Y421048D01*
X109491Y388746D02*
X117746D01*
X109491Y360758D02*
X117746D01*
X109491D02*
Y388746D01*
X185242Y342747D02*
X200497D01*
X438622Y486258D02*
X578615D01*
X176670D02*
X316679D01*
X486247Y435750D02*
X626240D01*
X629122Y486258D02*
X769115D01*
X200497Y295756D02*
X340491D01*
X269054Y105256D02*
Y245251D01*
X355746Y298058D02*
Y342747D01*
X340491Y295756D02*
Y342747D01*
X372999Y288246D02*
Y298058D01*
X355746D02*
X372999D01*
X200497Y295756D02*
Y342747D01*
X367170Y105256D02*
Y245251D01*
X185242Y298058D02*
Y342747D01*
X167988Y298058D02*
X185242D01*
X129059Y105256D02*
X269054D01*
X167988Y288246D02*
Y298058D01*
X134999Y288246D02*
X167988D01*
X129059Y245251D02*
X269054D01*
X134999Y288246D02*
Y298058D01*
X129059Y105256D02*
Y245251D01*
X117746Y298058D02*
X134999D01*
X117746D02*
Y360758D01*
X486247Y295756D02*
X626240D01*
X486247D02*
Y435750D01*
X431497Y360758D02*
Y388746D01*
X423243D02*
X431497D01*
X423243Y360758D02*
X431497D01*
X423243Y388746D02*
Y421048D01*
X405990D02*
X423243D01*
X2858680Y488558D02*
X2875930D01*
X2772250Y435750D02*
X2912240D01*
X2825670Y478747D02*
X2858680D01*
X2825670D02*
Y488558D01*
X2858680Y478747D02*
Y488558D01*
X2808420D02*
X2825670D01*
X2637930D02*
Y533248D01*
X2653170D01*
X2620660Y488558D02*
X2637930D01*
X2620660Y478747D02*
Y488558D01*
X2587670Y478747D02*
X2620660D01*
X2637930Y579246D02*
X2653170D01*
X2637930D02*
Y611547D01*
X2899740Y960246D02*
Y992547D01*
Y869558D02*
Y932257D01*
X2882490Y992547D02*
X2899740D01*
X2882490D02*
Y1001768D01*
X2849500Y992547D02*
Y1001768D01*
X2832250Y992547D02*
X2849500D01*
X2832250Y960246D02*
Y992547D01*
Y869558D02*
Y914248D01*
X2816990Y960246D02*
X2832250D01*
X2816990Y914248D02*
X2832250D01*
X2849500Y1001768D02*
X2882490D01*
X2899740Y932257D02*
X2908000D01*
X2825670Y620754D02*
X2858680D01*
X2825670Y611547D02*
Y620754D01*
X2808420Y611547D02*
X2825670D01*
X2858680D02*
X2875930D01*
X2858680D02*
Y620754D01*
X2882490Y859747D02*
Y869558D01*
X2832250D02*
X2849500D01*
X2816990Y867258D02*
Y914248D01*
X2849500Y859747D02*
X2882490D01*
X2849500D02*
Y869558D01*
X2875930Y488558D02*
Y551257D01*
Y579246D02*
Y611547D01*
X2864620Y676758D02*
Y816751D01*
X2884170Y551257D02*
Y579246D01*
X2875930D02*
X2884170D01*
X2875930Y551257D02*
X2884170D01*
X2937500Y79997D02*
X2937500Y1032495D01*
X2882490Y869558D02*
X2899740D01*
X2908000Y932257D02*
Y960246D01*
X2899740D02*
X2908000D01*
X2150240Y867258D02*
Y1007251D01*
X2010250D02*
X2150240D01*
X2010250Y867258D02*
X2150240D01*
X2105500Y816751D02*
X2245490D01*
X2200750Y867258D02*
Y1007251D01*
X2105500Y676758D02*
X2245490D01*
X2296000D02*
Y816751D01*
X2245490Y676758D02*
Y816751D01*
X2296000Y676758D02*
X2435990D01*
X2343620Y626251D02*
X2483620D01*
X2105500Y676758D02*
Y816751D01*
X2340740Y867258D02*
Y1007251D01*
X2391250Y867258D02*
Y1007251D01*
X2200750D02*
X2340740D01*
X2200750Y867258D02*
X2340740D01*
X2296000Y816751D02*
X2435990D01*
X1819750Y1007251D02*
X1959740D01*
X1819750Y867258D02*
X1959740D01*
X2010250D02*
Y1007251D01*
X1915000Y816751D02*
X2054990D01*
X1959740Y867258D02*
Y1007251D01*
X2054990Y676758D02*
Y816751D01*
X1915000Y676758D02*
X2054990D01*
X1962620Y626251D02*
X2102620D01*
X1915000Y676758D02*
Y816751D01*
X1864490Y676758D02*
Y816751D01*
X1724500Y676758D02*
Y816751D01*
X1673990Y676758D02*
Y816751D01*
X1724500Y676758D02*
X1864490D01*
X1724500Y816751D02*
X1864490D01*
X1629250Y1007251D02*
X1769240D01*
Y867258D02*
Y1007251D01*
X1819750Y867258D02*
Y1007251D01*
X1629250Y867258D02*
X1769240D01*
X1629250D02*
Y1007251D01*
X1343500Y676758D02*
Y816751D01*
X1483490D01*
X1153000Y676758D02*
X1292990D01*
X1248230Y867258D02*
X1388240D01*
Y1007251D01*
X1438750Y867258D02*
Y1007251D01*
X1057733Y867258D02*
X1197740D01*
X1248230D02*
Y1007251D01*
X1197740Y867258D02*
Y1007251D01*
X1057733Y867258D02*
Y1007251D01*
X1197740D01*
X962497Y816751D02*
X1102490D01*
X1153000Y676758D02*
Y816751D01*
X1102490Y676758D02*
Y816751D01*
X1292990Y676758D02*
Y816751D01*
X1153000D02*
X1292990D01*
X1340620Y486258D02*
Y626251D01*
X1200620Y486258D02*
X1340620D01*
X1200620D02*
Y626251D01*
X1340620D01*
X819622D02*
X959615D01*
X771997Y676758D02*
X911990D01*
X962497D02*
Y816751D01*
X771997Y676758D02*
Y816751D01*
X911990Y676758D02*
Y816751D01*
X867247Y1007251D02*
X1007240D01*
X867247Y867258D02*
X1007240D01*
X867247D02*
Y1007251D01*
X1007240Y867258D02*
Y1007251D01*
X816740Y867258D02*
Y1007251D01*
X771997Y816751D02*
X911990D01*
X1248230Y1007251D02*
X1388240D01*
X1343500Y676758D02*
X1483490D01*
X1438750Y435750D02*
X1578740D01*
X1391120Y486258D02*
X1531120D01*
Y626251D01*
X1391120Y486258D02*
Y626251D01*
X819622Y486258D02*
X959615D01*
X819622D02*
Y626251D01*
X1010122D02*
X1150120D01*
X962497Y676758D02*
X1102490D01*
X959615Y486258D02*
Y626251D01*
X1010122Y486258D02*
X1150120D01*
X1010122D02*
Y626251D01*
X1150120Y486258D02*
Y626251D01*
X867247Y435750D02*
X1007240D01*
X1248230D02*
X1388240D01*
X1057733D02*
X1197740D01*
X769115Y486258D02*
Y626251D01*
X629122D02*
X769115D01*
X629122Y486258D02*
Y626251D01*
X676747Y1007251D02*
X816740D01*
X676747Y867258D02*
X816740D01*
X486247D02*
X626240D01*
X721490Y676758D02*
Y816751D01*
X530990Y676758D02*
Y816751D01*
X581497Y676758D02*
X721490D01*
X581497D02*
Y816751D01*
X721490D01*
X316679Y486258D02*
Y626251D01*
X390997Y676758D02*
Y816751D01*
X578615Y486258D02*
Y626251D01*
X438622D02*
X578615D01*
X438622Y486258D02*
Y626251D01*
X390997Y676758D02*
X530990D01*
X1388240Y295756D02*
Y435750D01*
X1319670Y105256D02*
Y152261D01*
X1248230Y295756D02*
Y435750D01*
X1197740Y295756D02*
Y435750D01*
X152872Y816751D02*
X292867D01*
X245242Y867258D02*
Y1007251D01*
X105246D02*
X245242D01*
X105246Y867258D02*
X245242D01*
X486247Y1007251D02*
X626240D01*
X676747Y867258D02*
Y1007251D01*
X626240Y867258D02*
Y1007251D01*
X486247Y867258D02*
Y1007251D01*
X176670Y626251D02*
X316679D01*
X152872Y676758D02*
X292867D01*
Y816751D01*
X152872Y676758D02*
Y816751D01*
X176670Y486258D02*
Y626251D01*
X105246Y867258D02*
Y1007251D01*
X390997Y816751D02*
X530990D01*
X295747Y867258D02*
X435740D01*
Y1007251D01*
X295747Y867258D02*
Y1007251D01*
X435740D01*
M02*
