G04*
G04 #@! TF.GenerationSoftware,Altium Limited,Altium Designer,22.10.1 (41)*
G04*
G04 Layer_Color=10964583*
%FSLAX44Y44*%
%MOMM*%
G71*
G04*
G04 #@! TF.SameCoordinates,C522AA7B-F4F4-4EC6-81A6-D5D12569EC36*
G04*
G04*
G04 #@! TF.FilePolarity,Positive*
G04*
G01*
G75*
%ADD11C,0.1524*%
%ADD120C,0.1000*%
%ADD123C,0.0254*%
%ADD124C,0.0500*%
G36*
X2987533Y1339720D02*
X2987768Y1339602D01*
X2988121Y1339249D01*
X2988708Y1338896D01*
X2989414Y1338426D01*
X2990120Y1337838D01*
X2991883Y1336545D01*
X2993882Y1335016D01*
X2995998Y1333253D01*
X2997997Y1331607D01*
X2999761Y1329843D01*
X2993764Y1323611D01*
Y1323729D01*
X2993529Y1323847D01*
X2992824Y1324435D01*
X2991766Y1325493D01*
X2990355Y1326786D01*
X2988708Y1328432D01*
X2986710Y1330196D01*
X2984594Y1332195D01*
X2982242Y1334311D01*
X2987415Y1339837D01*
X2987533Y1339720D01*
D02*
G37*
G36*
X2929568Y1321260D02*
X2939561D01*
Y1312794D01*
X2929568D01*
Y1306916D01*
X2932154Y1308914D01*
Y1308797D01*
X2932390Y1308679D01*
X2932625Y1308327D01*
X2932977Y1307856D01*
X2933800Y1306563D01*
X2934976Y1304917D01*
X2936270Y1302918D01*
X2937798Y1300684D01*
X2939326Y1298215D01*
X2940855Y1295628D01*
X2933800Y1291513D01*
Y1291631D01*
X2933683Y1291748D01*
X2933330Y1292454D01*
X2932742Y1293512D01*
X2932037Y1294805D01*
X2931331Y1296334D01*
X2930626Y1297980D01*
X2930038Y1299626D01*
X2929568Y1301272D01*
Y1245305D01*
X2920749D01*
Y1296216D01*
X2920632Y1295746D01*
X2920397Y1294923D01*
X2920161Y1293747D01*
X2919926Y1292454D01*
X2919456Y1290808D01*
X2918986Y1289044D01*
X2918398Y1287163D01*
X2916987Y1283047D01*
X2915341Y1278697D01*
X2913224Y1274347D01*
X2911931Y1272348D01*
X2910638Y1270349D01*
Y1270467D01*
X2910520Y1270584D01*
X2910285Y1271290D01*
X2909932Y1272348D01*
X2909462Y1273641D01*
X2908874Y1275052D01*
X2908169Y1276698D01*
X2907581Y1278344D01*
X2906875Y1279873D01*
X2906993Y1279991D01*
X2907228Y1280578D01*
X2907698Y1281402D01*
X2908286Y1282460D01*
X2908992Y1283871D01*
X2909815Y1285517D01*
X2910755Y1287398D01*
X2911696Y1289514D01*
X2912754Y1291866D01*
X2913812Y1294453D01*
X2914871Y1297157D01*
X2916046Y1299979D01*
X2917104Y1303036D01*
X2918045Y1306210D01*
X2919926Y1312794D01*
X2908756D01*
Y1321260D01*
X2920749D01*
Y1340190D01*
X2929568D01*
Y1321260D01*
D02*
G37*
G36*
X2831626Y1322553D02*
X2845030D01*
Y1313970D01*
X2831626D01*
Y1300214D01*
X2834330Y1303976D01*
X2834448Y1303859D01*
X2834683Y1303624D01*
X2835154Y1303271D01*
X2835741Y1302800D01*
X2836329Y1302213D01*
X2837152Y1301507D01*
X2839034Y1299861D01*
X2841032Y1297980D01*
X2843149Y1295981D01*
X2845147Y1293865D01*
X2847029Y1291983D01*
X2840797Y1285752D01*
X2840680Y1285869D01*
X2840562Y1286104D01*
X2840209Y1286457D01*
X2839739Y1286928D01*
X2838563Y1288103D01*
X2837152Y1289632D01*
X2835624Y1291396D01*
X2834213Y1293159D01*
X2832802Y1294923D01*
X2831626Y1296569D01*
Y1246011D01*
X2822573D01*
Y1297157D01*
X2822455Y1296569D01*
X2822220Y1295746D01*
X2821985Y1294688D01*
X2821632Y1293277D01*
X2821162Y1291748D01*
X2820574Y1289985D01*
X2819986Y1288103D01*
X2819163Y1286104D01*
X2818340Y1283988D01*
X2817282Y1281872D01*
X2816224Y1279638D01*
X2815048Y1277404D01*
X2813637Y1275170D01*
X2812226Y1273054D01*
X2810580Y1271055D01*
Y1271172D01*
X2810463Y1271290D01*
X2810227Y1271878D01*
X2809757Y1272936D01*
X2809287Y1274112D01*
X2808699Y1275640D01*
X2807993Y1277169D01*
X2806700Y1280578D01*
X2806818Y1280814D01*
X2807170Y1281284D01*
X2807758Y1282224D01*
X2808464Y1283400D01*
X2809404Y1284929D01*
X2810345Y1286692D01*
X2811521Y1288691D01*
X2812697Y1290925D01*
X2813872Y1293277D01*
X2815165Y1295863D01*
X2816459Y1298685D01*
X2817752Y1301507D01*
X2820104Y1307621D01*
X2821044Y1310796D01*
X2821985Y1313970D01*
X2807641D01*
Y1322553D01*
X2822573D01*
Y1341366D01*
X2831626D01*
Y1322553D01*
D02*
G37*
G36*
X2980008Y1340660D02*
Y1340307D01*
Y1339720D01*
Y1339014D01*
Y1338073D01*
Y1337015D01*
X2980125Y1335839D01*
Y1334546D01*
Y1331724D01*
X2980243Y1328785D01*
Y1325845D01*
X2980361Y1323024D01*
X3002583D01*
Y1314558D01*
X2980714D01*
Y1314323D01*
Y1313735D01*
X2980831Y1312677D01*
X2980948Y1311384D01*
Y1309737D01*
X2981066Y1307739D01*
X2981301Y1305622D01*
X2981419Y1303271D01*
X2981536Y1300802D01*
X2981772Y1298097D01*
X2982242Y1292571D01*
X2982830Y1286928D01*
X2983065Y1284223D01*
X2983418Y1281519D01*
X2983535Y1281637D01*
X2983653Y1282107D01*
X2984005Y1282695D01*
X2984358Y1283635D01*
X2984946Y1284694D01*
X2985416Y1286104D01*
X2986122Y1287633D01*
X2986827Y1289397D01*
X2987533Y1291278D01*
X2988356Y1293394D01*
X2989061Y1295628D01*
X2989884Y1298097D01*
X2990707Y1300567D01*
X2991413Y1303271D01*
X2992824Y1308914D01*
X3001407Y1306563D01*
Y1306328D01*
X3001172Y1305622D01*
X3000819Y1304564D01*
X3000466Y1303036D01*
X2999879Y1301272D01*
X2999290Y1299155D01*
X2998467Y1296804D01*
X2997527Y1294335D01*
X2996586Y1291513D01*
X2995410Y1288691D01*
X2994117Y1285634D01*
X2992706Y1282695D01*
X2991178Y1279638D01*
X2989532Y1276581D01*
X2987650Y1273641D01*
X2985769Y1270702D01*
Y1270584D01*
X2985887Y1270232D01*
X2986122Y1269644D01*
X2986357Y1268938D01*
X2986592Y1268115D01*
X2986945Y1267057D01*
X2987768Y1264941D01*
X2988826Y1262589D01*
X2990002Y1260238D01*
X2990707Y1259180D01*
X2991413Y1258239D01*
X2992118Y1257416D01*
X2992941Y1256710D01*
X2993059Y1256593D01*
X2993294Y1256358D01*
X2993412D01*
X2993647Y1256475D01*
X2993764Y1256828D01*
X2993882Y1257298D01*
X2994000Y1257533D01*
Y1257769D01*
X2994117Y1258121D01*
X2994235Y1258709D01*
X2994352Y1259297D01*
X2994470Y1260120D01*
X2994705Y1261061D01*
X2994823Y1262119D01*
X2995058Y1263295D01*
X2995175Y1264706D01*
X2995410Y1266352D01*
X2995646Y1268115D01*
X2995881Y1270114D01*
X2995998Y1272231D01*
X2996234Y1274582D01*
X2996469Y1274464D01*
X2997057Y1274229D01*
X2997880Y1273877D01*
X2999055Y1273406D01*
X3000349Y1272936D01*
X3001760Y1272348D01*
X3004699Y1271407D01*
Y1271290D01*
Y1270820D01*
X3004581Y1270232D01*
X3004464Y1269409D01*
X3004346Y1268468D01*
X3004229Y1267292D01*
X3003994Y1264823D01*
X3003641Y1262001D01*
X3003170Y1259297D01*
X3002935Y1258004D01*
X3002700Y1256828D01*
X3002465Y1255887D01*
X3002230Y1254947D01*
Y1254829D01*
X3002112Y1254594D01*
X3001995Y1254241D01*
X3001877Y1253653D01*
X3001407Y1252360D01*
X3000584Y1250832D01*
X2999643Y1249303D01*
X2998350Y1247892D01*
X2996821Y1246716D01*
X2995881Y1246246D01*
X2994940Y1246011D01*
X2994117D01*
X2993059Y1246128D01*
X2991766Y1246481D01*
X2990237Y1247069D01*
X2988591Y1248010D01*
X2987768Y1248598D01*
X2986945Y1249421D01*
X2986004Y1250244D01*
X2985181Y1251302D01*
X2985064Y1251537D01*
X2984594Y1252125D01*
X2983888Y1253065D01*
X2982947Y1254359D01*
X2982007Y1256005D01*
X2981066Y1258004D01*
X2980008Y1260355D01*
X2979185Y1263059D01*
Y1262942D01*
X2978950Y1262824D01*
X2978479Y1262119D01*
X2977539Y1261061D01*
X2976363Y1259650D01*
X2974835Y1258004D01*
X2972953Y1256123D01*
X2970719Y1254124D01*
X2968250Y1252125D01*
X2968133Y1252243D01*
X2967898Y1252713D01*
X2967545Y1253418D01*
X2966957Y1254241D01*
X2966369Y1255300D01*
X2965781Y1256279D01*
Y1260590D01*
X2965076Y1260003D01*
X2964605Y1259532D01*
X2964253Y1259180D01*
X2964018Y1258944D01*
X2963900Y1258827D01*
X2965663Y1256475D01*
X2965781Y1256279D01*
Y1248363D01*
X2957198D01*
Y1282107D01*
X2950849D01*
Y1281989D01*
Y1281872D01*
Y1281519D01*
Y1281166D01*
X2950731Y1279991D01*
X2950614Y1278344D01*
X2950379Y1276463D01*
X2950026Y1274229D01*
X2949673Y1271878D01*
X2949085Y1269174D01*
X2948380Y1266469D01*
X2947557Y1263530D01*
X2946499Y1260590D01*
X2945323Y1257651D01*
X2943912Y1254829D01*
X2942266Y1252007D01*
X2940267Y1249421D01*
X2938151Y1246952D01*
X2938033Y1247069D01*
X2937680Y1247422D01*
X2937210Y1248010D01*
X2936505Y1248833D01*
X2935681Y1249773D01*
X2934623Y1250832D01*
X2933565Y1252007D01*
X2932272Y1253301D01*
X2932390Y1253418D01*
X2932625Y1253771D01*
X2933095Y1254359D01*
X2933800Y1255182D01*
X2934506Y1256240D01*
X2935329Y1257533D01*
X2936152Y1259062D01*
X2937092Y1260826D01*
X2937916Y1262824D01*
X2938856Y1264941D01*
X2939679Y1267292D01*
X2940385Y1269879D01*
X2941090Y1272583D01*
X2941560Y1275640D01*
X2941913Y1278815D01*
X2942148Y1282107D01*
X2935211D01*
Y1290573D01*
X2942266D01*
Y1310325D01*
X2950966D01*
Y1290573D01*
X2957198D01*
Y1310325D01*
X2965781D01*
Y1290573D01*
X2973071D01*
Y1282107D01*
X2965781D01*
Y1260590D01*
X2966487Y1261296D01*
X2968133Y1263059D01*
X2970132Y1265176D01*
X2972130Y1267527D01*
X2974364Y1269996D01*
X2976363Y1272583D01*
Y1272701D01*
X2976245Y1273171D01*
X2976128Y1273994D01*
X2975893Y1275170D01*
X2975658Y1276581D01*
X2975305Y1278344D01*
X2974952Y1280461D01*
X2974717Y1282930D01*
X2974247Y1285634D01*
X2973894Y1288809D01*
X2973541Y1292218D01*
X2973188Y1295981D01*
X2972836Y1300096D01*
X2972483Y1304564D01*
X2972130Y1309385D01*
X2971895Y1314558D01*
X2940620D01*
Y1323024D01*
X2971542D01*
Y1323141D01*
Y1323376D01*
Y1323729D01*
Y1324317D01*
X2971425Y1325022D01*
Y1325845D01*
Y1326786D01*
X2971307Y1327962D01*
Y1329138D01*
X2971190Y1330549D01*
Y1333488D01*
X2971072Y1337015D01*
X2970955Y1340778D01*
X2980008D01*
Y1340660D01*
D02*
G37*
G36*
X2887357Y1262236D02*
Y1262119D01*
Y1261649D01*
X2887475Y1261061D01*
X2887593Y1260355D01*
X2887945Y1259532D01*
X2888298Y1258944D01*
X2888886Y1258474D01*
X2889591Y1258356D01*
X2891943D01*
X2892178Y1258474D01*
X2892531Y1258592D01*
X2893001Y1258944D01*
X2893471Y1259532D01*
X2893942Y1260355D01*
X2894412Y1261531D01*
X2894765Y1263059D01*
Y1263177D01*
Y1263412D01*
X2894883Y1263765D01*
Y1264353D01*
X2895000Y1265058D01*
X2895117Y1265881D01*
X2895235Y1266822D01*
X2895353Y1267880D01*
X2895470Y1270349D01*
X2895706Y1273171D01*
X2895941Y1276346D01*
X2896176Y1279755D01*
X2896411Y1279638D01*
X2896999Y1279403D01*
X2897939Y1279050D01*
X2899115Y1278697D01*
X2900526Y1278109D01*
X2902055Y1277521D01*
X2905464Y1276228D01*
Y1276111D01*
Y1275758D01*
X2905347Y1275287D01*
Y1274464D01*
X2905229Y1273641D01*
X2905112Y1272583D01*
X2904876Y1270349D01*
X2904641Y1267645D01*
X2904289Y1264941D01*
X2904053Y1262354D01*
X2903701Y1259885D01*
Y1259767D01*
X2903583Y1259415D01*
X2903466Y1258827D01*
X2903348Y1258239D01*
X2902995Y1257298D01*
X2902643Y1256475D01*
X2901702Y1254476D01*
X2901114Y1253418D01*
X2900291Y1252360D01*
X2899468Y1251537D01*
X2898410Y1250714D01*
X2897234Y1250008D01*
X2895941Y1249421D01*
X2894530Y1249068D01*
X2892884Y1248950D01*
X2887357D01*
X2886887Y1249068D01*
X2886182Y1249185D01*
X2885476Y1249303D01*
X2884653Y1249538D01*
X2883713Y1249891D01*
X2882772Y1250479D01*
X2881714Y1251067D01*
X2880891Y1251890D01*
X2879950Y1252830D01*
X2879245Y1254006D01*
X2878539Y1255300D01*
X2878069Y1256945D01*
X2877716Y1258709D01*
X2877599Y1260826D01*
Y1325963D01*
X2859374D01*
Y1295276D01*
Y1295158D01*
Y1294923D01*
Y1294453D01*
Y1293747D01*
X2859257Y1292924D01*
Y1291983D01*
X2859139Y1290808D01*
Y1289632D01*
X2859022Y1288221D01*
X2858786Y1286692D01*
X2858434Y1283400D01*
X2857846Y1279755D01*
X2857141Y1275875D01*
X2856082Y1271760D01*
X2854906Y1267645D01*
X2853378Y1263412D01*
X2851614Y1259180D01*
X2849498Y1255182D01*
X2847146Y1251302D01*
X2844207Y1247775D01*
X2841032Y1244600D01*
X2840915Y1244718D01*
X2840445Y1245188D01*
X2839857Y1245893D01*
X2839034Y1246834D01*
X2837975Y1248010D01*
X2836917Y1249303D01*
X2835624Y1250714D01*
X2834448Y1252243D01*
X2834566Y1252360D01*
X2835154Y1252830D01*
X2835859Y1253653D01*
X2836800Y1254829D01*
X2837975Y1256240D01*
X2839269Y1258004D01*
X2840680Y1260120D01*
X2842090Y1262472D01*
X2843502Y1265176D01*
X2844795Y1268233D01*
X2846088Y1271643D01*
X2847264Y1275405D01*
X2848205Y1279403D01*
X2848910Y1283753D01*
X2849498Y1288456D01*
X2849615Y1293512D01*
Y1335252D01*
X2887357D01*
Y1262236D01*
D02*
G37*
D11*
X1537592Y156822D02*
Y199338D01*
Y156822D02*
X1580268D01*
Y199338D01*
X1537592D02*
X1580268D01*
X1613792Y202542D02*
X1656468D01*
X1613792D02*
Y245058D01*
X1656468D01*
Y202542D02*
Y245058D01*
X1877319Y244247D02*
X1887885D01*
X1877319D02*
Y249200D01*
X1698249D02*
X1877319D01*
X1698249Y244247D02*
Y249200D01*
X1690782Y244247D02*
X1698249D01*
X1690782Y59081D02*
Y244247D01*
Y59081D02*
X1698249D01*
Y54128D02*
Y59081D01*
Y54128D02*
X1877319D01*
Y59081D01*
X1887885D01*
Y74829D01*
X1892864D01*
Y228499D01*
X1887885D02*
X1892864D01*
X1887885D02*
Y244247D01*
D120*
X810570Y1083920D02*
X864570D01*
X810570Y1029920D02*
Y1083920D01*
Y1029920D02*
X864570D01*
Y1083920D01*
X2078030D02*
X2132030D01*
X2078030Y1029920D02*
Y1083920D01*
Y1029920D02*
X2132030D01*
Y1083920D01*
X1637750Y79020D02*
X1647750D01*
X1642750Y74020D02*
Y84020D01*
X1602190Y117120D02*
X1612190D01*
X1607190Y112120D02*
Y122120D01*
X1602190Y79020D02*
X1612190D01*
X1607190Y74020D02*
Y84020D01*
X1586870Y1081590D02*
Y1091590D01*
X1581870Y1086590D02*
X1591870D01*
X2536830Y585750D02*
X2623190D01*
Y491770D02*
Y585750D01*
X2536830Y491770D02*
X2623190D01*
X2536830D02*
Y585750D01*
X351160Y626390D02*
X429900D01*
X351160Y570510D02*
Y626390D01*
Y570510D02*
X429900D01*
Y626390D01*
X372750Y745770D02*
Y801650D01*
X294010Y745770D02*
X372750D01*
X294010D02*
Y801650D01*
X372750D01*
Y857530D01*
X294010Y801650D02*
X372750D01*
X294010D02*
Y857530D01*
X372750D01*
X429900Y514630D02*
Y570510D01*
X351160Y514630D02*
X429900D01*
X351160D02*
Y570510D01*
X429900D01*
X461650Y268250D02*
Y324130D01*
X382910Y268250D02*
X461650D01*
X382910D02*
Y324130D01*
X461650D01*
Y380010D01*
X382910Y324130D02*
X461650D01*
X382910D02*
Y380010D01*
X461650D01*
Y378740D02*
Y434620D01*
X382910Y378740D02*
X461650D01*
X382910D02*
Y434620D01*
X461650D01*
X429900Y458750D02*
Y514630D01*
X351160Y458750D02*
X429900D01*
X351160D02*
Y514630D01*
X429900D01*
D123*
X2524130Y574320D02*
G03*
X2524130Y574320I-1270J0D01*
G01*
X1998350Y217450D02*
G03*
X1998350Y217450I-1270J0D01*
G01*
X2065660Y1042950D02*
G03*
X2065660Y1042950I-1270J0D01*
G01*
X798200D02*
G03*
X798200Y1042950I-1270J0D01*
G01*
Y1026440D02*
G03*
X798200Y1026440I-1270J0D01*
G01*
X2146940Y1040410D02*
G03*
X2146940Y1040410I-1270J0D01*
G01*
X2065660Y1027710D02*
G03*
X2065660Y1027710I-1270J0D01*
G01*
X879480Y1040410D02*
G03*
X879480Y1040410I-1270J0D01*
G01*
X1599570Y1055650D02*
G03*
X1599570Y1055650I-1270J0D01*
G01*
X1584330Y122200D02*
G03*
X1584330Y122200I-1270J0D01*
G01*
Y73940D02*
G03*
X1584330Y73940I-1270J0D01*
G01*
X1674500Y118390D02*
G03*
X1674500Y118390I-1270J0D01*
G01*
Y106960D02*
G03*
X1674500Y106960I-1270J0D01*
G01*
Y72670D02*
G03*
X1674500Y72670I-1270J0D01*
G01*
X1576710Y1055650D02*
G03*
X1576710Y1055650I-1270J0D01*
G01*
X1674500Y84100D02*
G03*
X1674500Y84100I-1270J0D01*
G01*
Y95530D02*
G03*
X1674500Y95530I-1270J0D01*
G01*
X1998350Y206020D02*
G03*
X1998350Y206020I-1270J0D01*
G01*
X1588140Y1055650D02*
G03*
X1588140Y1055650I-1270J0D01*
G01*
X1598300Y173000D02*
G03*
X1598300Y173000I-1270J0D01*
G01*
Y184430D02*
G03*
X1598300Y184430I-1270J0D01*
G01*
Y195860D02*
G03*
X1598300Y195860I-1270J0D01*
G01*
X1522100Y183160D02*
G03*
X1522100Y183160I-1270J0D01*
G01*
Y194590D02*
G03*
X1522100Y194590I-1270J0D01*
G01*
Y206020D02*
G03*
X1522100Y206020I-1270J0D01*
G01*
Y217450D02*
G03*
X1522100Y217450I-1270J0D01*
G01*
X1598300Y161570D02*
G03*
X1598300Y161570I-1270J0D01*
G01*
X1522100Y171730D02*
G03*
X1522100Y171730I-1270J0D01*
G01*
Y160300D02*
G03*
X1522100Y160300I-1270J0D01*
G01*
X1644020Y101880D02*
G03*
X1644020Y101880I-1270J0D01*
G01*
X1584330Y98070D02*
G03*
X1584330Y98070I-1270J0D01*
G01*
X1998350Y240310D02*
G03*
X1998350Y240310I-1270J0D01*
G01*
Y228880D02*
G03*
X1998350Y228880I-1270J0D01*
G01*
X1674500Y195860D02*
G03*
X1674500Y195860I-1270J0D01*
G01*
Y207290D02*
G03*
X1674500Y207290I-1270J0D01*
G01*
Y218720D02*
G03*
X1674500Y218720I-1270J0D01*
G01*
X1598300D02*
G03*
X1598300Y218720I-1270J0D01*
G01*
Y230150D02*
G03*
X1598300Y230150I-1270J0D01*
G01*
Y207290D02*
G03*
X1598300Y207290I-1270J0D01*
G01*
X1674500Y241580D02*
G03*
X1674500Y241580I-1270J0D01*
G01*
Y230150D02*
G03*
X1674500Y230150I-1270J0D01*
G01*
X1598300Y241580D02*
G03*
X1598300Y241580I-1270J0D01*
G01*
X387990Y813080D02*
G03*
X387990Y813080I-1270J0D01*
G01*
X281310Y829590D02*
G03*
X281310Y829590I-1270J0D01*
G01*
X387990Y773710D02*
G03*
X387990Y773710I-1270J0D01*
G01*
X281310D02*
G03*
X281310Y773710I-1270J0D01*
G01*
X445140Y598450D02*
G03*
X445140Y598450I-1270J0D01*
G01*
X338460D02*
G03*
X338460Y598450I-1270J0D01*
G01*
X445140Y533680D02*
G03*
X445140Y533680I-1270J0D01*
G01*
X338460Y557810D02*
G03*
X338460Y557810I-1270J0D01*
G01*
X445140Y480340D02*
G03*
X445140Y480340I-1270J0D01*
G01*
X338460Y486690D02*
G03*
X338460Y486690I-1270J0D01*
G01*
X476890Y406680D02*
G03*
X476890Y406680I-1270J0D01*
G01*
X370210D02*
G03*
X370210Y406680I-1270J0D01*
G01*
X476890Y352070D02*
G03*
X476890Y352070I-1270J0D01*
G01*
X370210Y366040D02*
G03*
X370210Y366040I-1270J0D01*
G01*
X476890Y289840D02*
G03*
X476890Y289840I-1270J0D01*
G01*
X370210Y296190D02*
G03*
X370210Y296190I-1270J0D01*
G01*
X1674500Y184430D02*
G03*
X1674500Y184430I-1270J0D01*
G01*
X2522860Y572320D02*
Y576320D01*
X2520860Y574320D02*
X2524860D01*
X1997080Y215450D02*
Y219450D01*
X1995080Y217450D02*
X1999080D01*
X2062390Y1042950D02*
X2066390D01*
X2064390Y1040950D02*
Y1044950D01*
X794930Y1042950D02*
X798930D01*
X796930Y1040950D02*
Y1044950D01*
X794930Y1026440D02*
X798930D01*
X796930Y1024440D02*
Y1028440D01*
X2143670Y1040410D02*
X2147670D01*
X2145670Y1038410D02*
Y1042410D01*
X2062390Y1027710D02*
X2066390D01*
X2064390Y1025710D02*
Y1029710D01*
X876210Y1040410D02*
X880210D01*
X878210Y1038410D02*
Y1042410D01*
X1598300Y1053650D02*
Y1057650D01*
X1596300Y1055650D02*
X1600300D01*
X1583060Y120200D02*
Y124200D01*
X1581060Y122200D02*
X1585060D01*
X1583060Y71940D02*
Y75940D01*
X1581060Y73940D02*
X1585060D01*
X1671230Y118390D02*
X1675230D01*
X1673230Y116390D02*
Y120390D01*
X1671230Y106960D02*
X1675230D01*
X1673230Y104960D02*
Y108960D01*
X1671230Y72670D02*
X1675230D01*
X1673230Y70670D02*
Y74670D01*
X1575440Y1053650D02*
Y1057650D01*
X1573440Y1055650D02*
X1577440D01*
X1671230Y84100D02*
X1675230D01*
X1673230Y82100D02*
Y86100D01*
X1671230Y95530D02*
X1675230D01*
X1673230Y93530D02*
Y97530D01*
X1995080Y206020D02*
X1999080D01*
X1997080Y204020D02*
Y208020D01*
X1584870Y1055650D02*
X1588870D01*
X1586870Y1053650D02*
Y1057650D01*
X1597030Y171000D02*
Y175000D01*
X1595030Y173000D02*
X1599030D01*
X1597030Y182430D02*
Y186430D01*
X1595030Y184430D02*
X1599030D01*
X1597030Y193860D02*
Y197860D01*
X1595030Y195860D02*
X1599030D01*
X1520830Y181160D02*
Y185160D01*
X1518830Y183160D02*
X1522830D01*
X1520830Y192590D02*
Y196590D01*
X1518830Y194590D02*
X1522830D01*
X1520830Y204020D02*
Y208020D01*
X1518830Y206020D02*
X1522830D01*
X1520830Y215450D02*
Y219450D01*
X1518830Y217450D02*
X1522830D01*
X1597030Y159570D02*
Y163570D01*
X1595030Y161570D02*
X1599030D01*
X1520830Y169730D02*
Y173730D01*
X1518830Y171730D02*
X1522830D01*
X1520830Y158300D02*
Y162300D01*
X1518830Y160300D02*
X1522830D01*
X1640750Y101880D02*
X1644750D01*
X1642750Y99880D02*
Y103880D01*
X1583060Y96070D02*
Y100070D01*
X1581060Y98070D02*
X1585060D01*
X1995080Y240310D02*
X1999080D01*
X1997080Y238310D02*
Y242310D01*
X1995080Y228880D02*
X1999080D01*
X1997080Y226880D02*
Y230880D01*
X1673230Y193860D02*
Y197860D01*
X1671230Y195860D02*
X1675230D01*
X1673230Y205290D02*
Y209290D01*
X1671230Y207290D02*
X1675230D01*
X1673230Y216720D02*
Y220720D01*
X1671230Y218720D02*
X1675230D01*
X1597030Y216720D02*
Y220720D01*
X1595030Y218720D02*
X1599030D01*
X1597030Y228150D02*
Y232150D01*
X1595030Y230150D02*
X1599030D01*
X1597030Y205290D02*
Y209290D01*
X1595030Y207290D02*
X1599030D01*
X1673230Y239580D02*
Y243580D01*
X1671230Y241580D02*
X1675230D01*
X1673230Y228150D02*
Y232150D01*
X1671230Y230150D02*
X1675230D01*
X1597030Y239580D02*
Y243580D01*
X1595030Y241580D02*
X1599030D01*
X384720Y813080D02*
X388720D01*
X386720Y811080D02*
Y815080D01*
X278040Y829590D02*
X282040D01*
X280040Y827590D02*
Y831590D01*
X384720Y773710D02*
X388720D01*
X386720Y771710D02*
Y775710D01*
X278040Y773710D02*
X282040D01*
X280040Y771710D02*
Y775710D01*
X441870Y598450D02*
X445870D01*
X443870Y596450D02*
Y600450D01*
X335190Y598450D02*
X339190D01*
X337190Y596450D02*
Y600450D01*
X441870Y533680D02*
X445870D01*
X443870Y531680D02*
Y535680D01*
X335190Y557810D02*
X339190D01*
X337190Y555810D02*
Y559810D01*
X441870Y480340D02*
X445870D01*
X443870Y478340D02*
Y482340D01*
X335190Y486690D02*
X339190D01*
X337190Y484690D02*
Y488690D01*
X473620Y406680D02*
X477620D01*
X475620Y404680D02*
Y408680D01*
X366940Y406680D02*
X370940D01*
X368940Y404680D02*
Y408680D01*
X473620Y352070D02*
X477620D01*
X475620Y350070D02*
Y354070D01*
X366940Y366040D02*
X370940D01*
X368940Y364040D02*
Y368040D01*
X473620Y289840D02*
X477620D01*
X475620Y287840D02*
Y291840D01*
X366940Y296190D02*
X370940D01*
X368940Y294190D02*
Y298190D01*
X1673230Y182430D02*
Y186430D01*
X1671230Y184430D02*
X1675230D01*
D124*
X1511630Y90450D02*
G03*
X1511630Y90450I-3500J0D01*
G01*
X2930220Y439700D02*
G03*
X2930220Y439700I-3500J0D01*
G01*
X2172660Y201930D02*
G03*
X2172660Y201930I-3500J0D01*
G01*
X2360620Y200660D02*
G03*
X2360620Y200660I-3500J0D01*
G01*
X2551205Y202667D02*
G03*
X2551205Y202667I-3500J0D01*
G01*
X2342840Y1016000D02*
G03*
X2342840Y1016000I-3500J0D01*
G01*
X530550Y209550D02*
G03*
X530550Y209550I-3500J0D01*
G01*
X1796740Y1023620D02*
G03*
X1796740Y1023620I-3500J0D01*
G01*
X1512369Y1073467D02*
G03*
X1512369Y1073467I-3500J0D01*
G01*
X1676730Y151410D02*
G03*
X1676730Y151410I-3500J0D01*
G01*
X1638630Y145060D02*
G03*
X1638630Y145060I-3500J0D01*
G01*
X794080Y219990D02*
G03*
X794080Y219990I-3500J0D01*
G01*
X841070Y1056920D02*
G03*
X841070Y1056920I-3500J0D01*
G01*
X2108530D02*
G03*
X2108530Y1056920I-3500J0D01*
G01*
X2892120Y1120420D02*
G03*
X2892120Y1120420I-3500J0D01*
G01*
X2789250D02*
G03*
X2789250Y1120420I-3500J0D01*
G01*
X2667250Y1120200D02*
G03*
X2667250Y1120200I-3500J0D01*
G01*
X2517250D02*
G03*
X2517250Y1120200I-3500J0D01*
G01*
X2367250D02*
G03*
X2367250Y1120200I-3500J0D01*
G01*
X1562430Y223800D02*
G03*
X1562430Y223800I-3500J0D01*
G01*
X2583510Y538760D02*
G03*
X2583510Y538760I-3500J0D01*
G01*
X1638630Y178080D02*
G03*
X1638630Y178080I-3500J0D01*
G01*
X394030Y598450D02*
G03*
X394030Y598450I-3500J0D01*
G01*
X336880Y773710D02*
G03*
X336880Y773710I-3500J0D01*
G01*
Y829590D02*
G03*
X336880Y829590I-3500J0D01*
G01*
X394030Y542570D02*
G03*
X394030Y542570I-3500J0D01*
G01*
X425780Y296190D02*
G03*
X425780Y296190I-3500J0D01*
G01*
Y352070D02*
G03*
X425780Y352070I-3500J0D01*
G01*
Y406680D02*
G03*
X425780Y406680I-3500J0D01*
G01*
X394030Y486690D02*
G03*
X394030Y486690I-3500J0D01*
G01*
X717250Y1120200D02*
G03*
X717250Y1120200I-3500J0D01*
G01*
X2217250D02*
G03*
X2217250Y1120200I-3500J0D01*
G01*
X567250D02*
G03*
X567250Y1120200I-3500J0D01*
G01*
X267250D02*
G03*
X267250Y1120200I-3500J0D01*
G01*
X122330D02*
G03*
X122330Y1120200I-3500J0D01*
G01*
X1167250D02*
G03*
X1167250Y1120200I-3500J0D01*
G01*
X1017250D02*
G03*
X1017250Y1120200I-3500J0D01*
G01*
X417250D02*
G03*
X417250Y1120200I-3500J0D01*
G01*
X867250D02*
G03*
X867250Y1120200I-3500J0D01*
G01*
X1467250D02*
G03*
X1467250Y1120200I-3500J0D01*
G01*
X2067250D02*
G03*
X2067250Y1120200I-3500J0D01*
G01*
X1767250D02*
G03*
X1767250Y1120200I-3500J0D01*
G01*
X1917250D02*
G03*
X1917250Y1120200I-3500J0D01*
G01*
X1617250D02*
G03*
X1617250Y1120200I-3500J0D01*
G01*
X1317250D02*
G03*
X1317250Y1120200I-3500J0D01*
G01*
X2719400Y1073430D02*
G03*
X2719400Y1073430I-3500J0D01*
G01*
X2264740Y1083590D02*
G03*
X2264740Y1083590I-3500J0D01*
G01*
X706450D02*
G03*
X706450Y1083590I-3500J0D01*
G01*
X94310Y768630D02*
G03*
X94310Y768630I-3500J0D01*
G01*
X2930220Y905790D02*
G03*
X2930220Y905790I-3500J0D01*
G01*
X2719400Y90450D02*
G03*
X2719400Y90450I-3500J0D01*
G01*
X1967560D02*
G03*
X1967560Y90450I-3500J0D01*
G01*
X1977720Y1073430D02*
G03*
X1977720Y1073430I-3500J0D01*
G01*
X1374470D02*
G03*
X1374470Y1073430I-3500J0D01*
G01*
X1046810D02*
G03*
X1046810Y1073430I-3500J0D01*
G01*
X305130D02*
G03*
X305130Y1073430I-3500J0D01*
G01*
X94310Y302540D02*
G03*
X94310Y302540I-3500J0D01*
G01*
X305130Y90450D02*
G03*
X305130Y90450I-3500J0D01*
G01*
X771220D02*
G03*
X771220Y90450I-3500J0D01*
G01*
X1503130D02*
X1513130D01*
X1508130Y85450D02*
Y95450D01*
X2921720Y439700D02*
X2931720D01*
X2926720Y434700D02*
Y444700D01*
X2169160Y196930D02*
Y206930D01*
X2164160Y201930D02*
X2174160D01*
X2357120Y195660D02*
Y205660D01*
X2352120Y200660D02*
X2362120D01*
X2547705Y197667D02*
Y207667D01*
X2542705Y202667D02*
X2552705D01*
X2339340Y1011000D02*
Y1021000D01*
X2334340Y1016000D02*
X2344340D01*
X527050Y204550D02*
Y214550D01*
X522050Y209550D02*
X532050D01*
X1793240Y1018620D02*
Y1028620D01*
X1788240Y1023620D02*
X1798240D01*
X1508869Y1068467D02*
Y1078467D01*
X1503869Y1073467D02*
X1513869D01*
X1673230Y146410D02*
Y156410D01*
X1668230Y151410D02*
X1678230D01*
X1630130Y145060D02*
X1640130D01*
X1635130Y140060D02*
Y150060D01*
X785580Y219990D02*
X795580D01*
X790580Y214990D02*
Y224990D01*
X837570Y1051920D02*
Y1061920D01*
X832570Y1056920D02*
X842570D01*
X2105030Y1051920D02*
Y1061920D01*
X2100030Y1056920D02*
X2110030D01*
X2888620Y1115420D02*
Y1125420D01*
X2883620Y1120420D02*
X2893620D01*
X2785750Y1115420D02*
Y1125420D01*
X2780750Y1120420D02*
X2790750D01*
X2663750Y1115200D02*
Y1125200D01*
X2658750Y1120200D02*
X2668750D01*
X2513750Y1115200D02*
Y1125200D01*
X2508750Y1120200D02*
X2518750D01*
X2363750Y1115200D02*
Y1125200D01*
X2358750Y1120200D02*
X2368750D01*
X1553930Y223800D02*
X1563930D01*
X1558930Y218800D02*
Y228800D01*
X1660000Y62520D02*
Y95520D01*
X1625500Y62520D02*
Y95520D01*
X1660000D01*
X1625500Y62520D02*
X1660000D01*
X1589940Y100620D02*
Y133620D01*
X1624440Y100620D02*
Y133620D01*
X1589940Y100620D02*
X1624440D01*
X1589940Y133620D02*
X1624440D01*
X1589940Y62520D02*
Y95520D01*
X1624440Y62520D02*
Y95520D01*
X1589940Y62520D02*
X1624440D01*
X1589940Y95520D02*
X1624440D01*
X1568870Y1066840D02*
X1604870D01*
X1568870Y1106340D02*
X1604870D01*
Y1066840D02*
Y1106340D01*
X1568870Y1066840D02*
Y1106340D01*
X2580010Y533760D02*
Y543760D01*
X2575010Y538760D02*
X2585010D01*
X1635130Y173080D02*
Y183080D01*
X1630130Y178080D02*
X1640130D01*
X385530Y598450D02*
X395530D01*
X390530Y593450D02*
Y603450D01*
X333380Y768710D02*
Y778710D01*
X328380Y773710D02*
X338380D01*
X333380Y824590D02*
Y834590D01*
X328380Y829590D02*
X338380D01*
X390530Y537570D02*
Y547570D01*
X385530Y542570D02*
X395530D01*
X422280Y291190D02*
Y301190D01*
X417280Y296190D02*
X427280D01*
X422280Y347070D02*
Y357070D01*
X417280Y352070D02*
X427280D01*
X422280Y401680D02*
Y411680D01*
X417280Y406680D02*
X427280D01*
X390530Y481690D02*
Y491690D01*
X385530Y486690D02*
X395530D01*
X713750Y1115200D02*
Y1125200D01*
X708750Y1120200D02*
X718750D01*
X2208750D02*
X2218750D01*
X2213750Y1115200D02*
Y1125200D01*
X563750Y1115200D02*
Y1125200D01*
X558750Y1120200D02*
X568750D01*
X263750Y1115200D02*
Y1125200D01*
X258750Y1120200D02*
X268750D01*
X113830D02*
X123830D01*
X118830Y1115200D02*
Y1125200D01*
X1163750Y1115200D02*
Y1125200D01*
X1158750Y1120200D02*
X1168750D01*
X1013750Y1115200D02*
Y1125200D01*
X1008750Y1120200D02*
X1018750D01*
X413750Y1115200D02*
Y1125200D01*
X408750Y1120200D02*
X418750D01*
X863750Y1115200D02*
Y1125200D01*
X858750Y1120200D02*
X868750D01*
X1463750Y1115200D02*
Y1125200D01*
X1458750Y1120200D02*
X1468750D01*
X2063750Y1115200D02*
Y1125200D01*
X2058750Y1120200D02*
X2068750D01*
X1763750Y1115200D02*
Y1125200D01*
X1758750Y1120200D02*
X1768750D01*
X1913750Y1115200D02*
Y1125200D01*
X1908750Y1120200D02*
X1918750D01*
X1613750Y1115200D02*
Y1125200D01*
X1608750Y1120200D02*
X1618750D01*
X1313750Y1115200D02*
Y1125200D01*
X1308750Y1120200D02*
X1318750D01*
X2715900Y1068430D02*
Y1078430D01*
X2710900Y1073430D02*
X2720900D01*
X2261240Y1078590D02*
Y1088590D01*
X2256240Y1083590D02*
X2266240D01*
X702950Y1078590D02*
Y1088590D01*
X697950Y1083590D02*
X707950D01*
X85810Y768630D02*
X95810D01*
X90810Y763630D02*
Y773630D01*
X2926720Y900790D02*
Y910790D01*
X2921720Y905790D02*
X2931720D01*
X2710900Y90450D02*
X2720900D01*
X2715900Y85450D02*
Y95450D01*
X1959060Y90450D02*
X1969060D01*
X1964060Y85450D02*
Y95450D01*
X1974220Y1068430D02*
Y1078430D01*
X1969220Y1073430D02*
X1979220D01*
X1370970Y1068430D02*
Y1078430D01*
X1365970Y1073430D02*
X1375970D01*
X1038310D02*
X1048310D01*
X1043310Y1068430D02*
Y1078430D01*
X296630Y1073430D02*
X306630D01*
X301630Y1068430D02*
Y1078430D01*
X90810Y297540D02*
Y307540D01*
X85810Y302540D02*
X95810D01*
X301630Y85450D02*
Y95450D01*
X296630Y90450D02*
X306630D01*
X767720Y85450D02*
Y95450D01*
X762720Y90450D02*
X772720D01*
M02*
