G04*
G04 #@! TF.GenerationSoftware,Altium Limited,Altium Designer,22.10.1 (41)*
G04*
G04 Layer_Color=12811406*
%FSLAX44Y44*%
%MOMM*%
G71*
G04*
G04 #@! TF.SameCoordinates,43F64E9B-3785-48AA-9826-90990096846F*
G04*
G04*
G04 #@! TF.FilePolarity,Positive*
G04*
G01*
G75*
%ADD10C,0.2540*%
%ADD27C,0.1270*%
%ADD138C,0.0762*%
%ADD141C,0.1000*%
%ADD142C,0.1500*%
%ADD143C,0.0254*%
G36*
X3509603Y807215D02*
X3433061D01*
Y816504D01*
X3509603D01*
Y807215D01*
D02*
G37*
G36*
X3594258Y800161D02*
X3617186D01*
Y791460D01*
X3594258D01*
Y769120D01*
X3620360D01*
Y760420D01*
X3594258D01*
Y727028D01*
X3584500D01*
Y760420D01*
X3551225D01*
Y769120D01*
X3584500D01*
Y791460D01*
X3568039D01*
Y791342D01*
X3567921Y790990D01*
X3567686Y790519D01*
X3567333Y789814D01*
X3566981Y788991D01*
X3566628Y787933D01*
X3566040Y786757D01*
X3565452Y785463D01*
X3564159Y782642D01*
X3562630Y779585D01*
X3560866Y776292D01*
X3558985Y773000D01*
X3558868Y773118D01*
X3558398Y773471D01*
X3557574Y774059D01*
X3556634Y774882D01*
X3555576Y775705D01*
X3554282Y776645D01*
X3551460Y778762D01*
X3551578Y778997D01*
X3551813Y779467D01*
X3552283Y780408D01*
X3552989Y781701D01*
X3553694Y783230D01*
X3554518Y785111D01*
X3555576Y787227D01*
X3556516Y789696D01*
X3557692Y792283D01*
X3558750Y795222D01*
X3559926Y798279D01*
X3560984Y801571D01*
X3562160Y804981D01*
X3563218Y808509D01*
X3564159Y812271D01*
X3565099Y816033D01*
X3574741Y813329D01*
Y813212D01*
X3574623Y812976D01*
X3574505Y812506D01*
X3574388Y812036D01*
X3574270Y811330D01*
X3574035Y810507D01*
X3573447Y808626D01*
X3572859Y806510D01*
X3572271Y804393D01*
X3571448Y802159D01*
X3570743Y800161D01*
X3584500D01*
Y822383D01*
X3594258D01*
Y800161D01*
D02*
G37*
G36*
X3635175Y822147D02*
X3635410Y821912D01*
X3635763Y821442D01*
X3636233Y820854D01*
X3636821Y820149D01*
X3637527Y819325D01*
X3638350Y818267D01*
X3639290Y817092D01*
X3640231Y815798D01*
X3641289Y814387D01*
X3643758Y811213D01*
X3646345Y807685D01*
X3649167Y803688D01*
X3648931Y803570D01*
X3648461Y803217D01*
X3647638Y802747D01*
X3646580Y802042D01*
X3645287Y801219D01*
X3643876Y800278D01*
X3640818Y798397D01*
X3640701Y798514D01*
X3640583Y798867D01*
X3640231Y799337D01*
X3639760Y800043D01*
X3639172Y800984D01*
X3638467Y801924D01*
X3637644Y803100D01*
X3636821Y804393D01*
X3634822Y807333D01*
X3632588Y810507D01*
X3630354Y813799D01*
X3627885Y817209D01*
X3635057Y822265D01*
X3635175Y822147D01*
D02*
G37*
G36*
X3409428Y787462D02*
X3410369Y787345D01*
X3411309Y786992D01*
X3412250Y786639D01*
X3413308Y786051D01*
X3414248Y785346D01*
X3414366Y785228D01*
X3414601Y784993D01*
X3415071Y784523D01*
X3415542Y783935D01*
X3415894Y783112D01*
X3416365Y782171D01*
X3416600Y781113D01*
X3416718Y779937D01*
Y779820D01*
Y779350D01*
X3416600Y778762D01*
X3416365Y777939D01*
X3416130Y777115D01*
X3415659Y776175D01*
X3415071Y775234D01*
X3414248Y774411D01*
X3414131Y774294D01*
X3413778Y774059D01*
X3413308Y773706D01*
X3412485Y773353D01*
X3411662Y773000D01*
X3410486Y772648D01*
X3409310Y772412D01*
X3407899Y772295D01*
X3407311D01*
X3406606Y772412D01*
X3405783Y772530D01*
X3404843Y772765D01*
X3403784Y773235D01*
X3402726Y773706D01*
X3401785Y774411D01*
X3401668Y774529D01*
X3401432Y774764D01*
X3401080Y775352D01*
X3400610Y775940D01*
X3400139Y776763D01*
X3399787Y777703D01*
X3399551Y778762D01*
X3399434Y779937D01*
Y780055D01*
Y780525D01*
X3399551Y781113D01*
X3399787Y781936D01*
X3400022Y782759D01*
X3400492Y783700D01*
X3401080Y784640D01*
X3401903Y785463D01*
X3402021Y785581D01*
X3402373Y785816D01*
X3402844Y786169D01*
X3403667Y786522D01*
X3404490Y786874D01*
X3405548Y787227D01*
X3406841Y787462D01*
X3408134Y787580D01*
X3408723D01*
X3409428Y787462D01*
D02*
G37*
G36*
X3746873Y804276D02*
X3758865D01*
Y795575D01*
X3746873D01*
Y782406D01*
X3750047Y786286D01*
X3750165D01*
X3750282Y786051D01*
X3750988Y785463D01*
X3751928Y784405D01*
X3753340Y782994D01*
X3754985Y781231D01*
X3756867Y779114D01*
X3758865Y776763D01*
X3759806Y775624D01*
Y772883D01*
X3754633Y768180D01*
Y768297D01*
X3754398Y768415D01*
X3753810Y769120D01*
X3752987Y770296D01*
X3751928Y771707D01*
X3750635Y773471D01*
X3749342Y775234D01*
X3748048Y777233D01*
X3746873Y779232D01*
Y726558D01*
X3737702D01*
Y777586D01*
X3737584Y776998D01*
X3737349Y776175D01*
X3737114Y775117D01*
X3736761Y773823D01*
X3736408Y772295D01*
X3735821Y770649D01*
X3735233Y768768D01*
X3733822Y764770D01*
X3731941Y760537D01*
X3729706Y756304D01*
X3728413Y754306D01*
X3727002Y752424D01*
X3726885Y752660D01*
X3726649Y753248D01*
X3726297Y754188D01*
X3725826Y755481D01*
X3725239Y756892D01*
X3724651Y758538D01*
X3723240Y761948D01*
X3723358Y762183D01*
X3723710Y762654D01*
X3724180Y763594D01*
X3724886Y764770D01*
X3725709Y766299D01*
X3726649Y768062D01*
X3727708Y770061D01*
X3728883Y772295D01*
X3730059Y774764D01*
X3731235Y777351D01*
X3732411Y780173D01*
X3733586Y782994D01*
X3735821Y789226D01*
X3736879Y792401D01*
X3737702Y795575D01*
X3723945D01*
Y804276D01*
X3737702D01*
Y822970D01*
X3746873D01*
Y804276D01*
D02*
G37*
G36*
X3277742Y739373D02*
X3262928D01*
Y779350D01*
Y779467D01*
Y779702D01*
Y780055D01*
Y780525D01*
Y781113D01*
Y781819D01*
X3263045Y783582D01*
Y785699D01*
X3263163Y788050D01*
X3263280Y790754D01*
X3263515Y793576D01*
X3263045D01*
Y793459D01*
Y793341D01*
X3262928Y792636D01*
X3262692Y791460D01*
X3262457Y790166D01*
X3262104Y788756D01*
X3261752Y787227D01*
X3261399Y785934D01*
X3261046Y784758D01*
X3245291Y739373D01*
X3233063D01*
X3217072Y784288D01*
Y784405D01*
X3216955Y784758D01*
X3216837Y785228D01*
X3216602Y786169D01*
X3216249Y787345D01*
X3215897Y788991D01*
X3215779Y789931D01*
X3215544Y791107D01*
X3215191Y792283D01*
X3214956Y793576D01*
X3214603D01*
Y793459D01*
Y793106D01*
Y792636D01*
X3214721Y791930D01*
Y791107D01*
X3214839Y790049D01*
Y788991D01*
X3214956Y787697D01*
Y784993D01*
X3215074Y782171D01*
X3215191Y779114D01*
Y776292D01*
Y739373D01*
X3201670D01*
Y806157D01*
X3223657D01*
X3237296Y766534D01*
X3237413Y766299D01*
X3237531Y765711D01*
X3237884Y764770D01*
X3238236Y763594D01*
X3238589Y762183D01*
X3238942Y760537D01*
X3239294Y758774D01*
X3239647Y757010D01*
X3240000D01*
Y757128D01*
X3240117Y757245D01*
X3240235Y757951D01*
X3240470Y759009D01*
X3240823Y760302D01*
X3241176Y761831D01*
X3241646Y763359D01*
X3242116Y765005D01*
X3242587Y766651D01*
X3256343Y806157D01*
X3277742D01*
Y739373D01*
D02*
G37*
G36*
X3682441Y822383D02*
Y822147D01*
Y821677D01*
Y820972D01*
Y820266D01*
Y819325D01*
X3682323Y818267D01*
Y817092D01*
Y814505D01*
X3682206Y811565D01*
Y808509D01*
X3682088Y805334D01*
X3714657D01*
Y805216D01*
Y804981D01*
Y804628D01*
Y804041D01*
X3714539Y803335D01*
Y802512D01*
Y801571D01*
X3714422Y800513D01*
X3714304Y798162D01*
X3714186Y795340D01*
X3714069Y792283D01*
X3713951Y788991D01*
X3713716Y785463D01*
X3713599Y781936D01*
X3713128Y774646D01*
X3713011Y771237D01*
X3712776Y767827D01*
X3712540Y764770D01*
X3712305Y761948D01*
Y761713D01*
X3712188Y761243D01*
X3712070Y760420D01*
X3711835Y759361D01*
X3711600Y758068D01*
X3711129Y756540D01*
X3710541Y755011D01*
X3709836Y753483D01*
X3709013Y751954D01*
X3707837Y750426D01*
X3706661Y748897D01*
X3705133Y747721D01*
X3703369Y746546D01*
X3701371Y745723D01*
X3699137Y745252D01*
X3696550Y745017D01*
X3692905D01*
X3691847Y745135D01*
X3689495D01*
X3686791Y745252D01*
X3683734Y745370D01*
X3680442Y745487D01*
Y745605D01*
Y745723D01*
X3680324Y746428D01*
X3680207Y747369D01*
X3679972Y748780D01*
X3679737Y750308D01*
X3679501Y752189D01*
X3679266Y754071D01*
X3678913Y756187D01*
X3679384D01*
X3679854Y756069D01*
X3680559D01*
X3681500Y755952D01*
X3682441Y755834D01*
X3684792Y755717D01*
X3687261Y755481D01*
X3689848Y755246D01*
X3692317Y755129D01*
X3695139D01*
X3695609Y755246D01*
X3696785Y755599D01*
X3698196Y756187D01*
X3698901Y756657D01*
X3699607Y757128D01*
X3700312Y757833D01*
X3700900Y758656D01*
X3701488Y759597D01*
X3701958Y760772D01*
X3702311Y762066D01*
X3702546Y763477D01*
Y763594D01*
Y764064D01*
X3702664Y764887D01*
X3702781Y765828D01*
X3702899Y767122D01*
Y768768D01*
X3703134Y770531D01*
X3703252Y772530D01*
X3703369Y774882D01*
X3703487Y777351D01*
X3703604Y780055D01*
X3703840Y782877D01*
X3703957Y785934D01*
X3704075Y789108D01*
X3704193Y792518D01*
X3704310Y796045D01*
X3681853D01*
Y795928D01*
Y795575D01*
Y795105D01*
X3681735Y794399D01*
Y793576D01*
X3681618Y792518D01*
X3681500Y791342D01*
X3681265Y789931D01*
X3681147Y788520D01*
X3680912Y786874D01*
X3680207Y783347D01*
X3679266Y779467D01*
X3678091Y775352D01*
X3676562Y771119D01*
X3674681Y766651D01*
X3672447Y762301D01*
X3671153Y760067D01*
X3669742Y757951D01*
X3668214Y755834D01*
X3666568Y753835D01*
X3664687Y751836D01*
X3662805Y749955D01*
X3660807Y748074D01*
X3658573Y746310D01*
X3656221Y744782D01*
X3653752Y743253D01*
X3653635Y743371D01*
X3653282Y743841D01*
X3652694Y744547D01*
X3651871Y745370D01*
X3650930Y746546D01*
X3649872Y747839D01*
X3648696Y749250D01*
X3647403Y750896D01*
X3647520D01*
X3647638Y751013D01*
X3647991Y751249D01*
X3648461Y751484D01*
X3649637Y752307D01*
X3651165Y753483D01*
X3652929Y755011D01*
X3654928Y756775D01*
X3657044Y759009D01*
X3659278Y761595D01*
X3661630Y764535D01*
X3663746Y767827D01*
X3665862Y771472D01*
X3667744Y775587D01*
X3669272Y780055D01*
X3670565Y784993D01*
X3671506Y790284D01*
X3671741Y793106D01*
X3671859Y796045D01*
X3653047D01*
Y805334D01*
X3672094D01*
Y805452D01*
Y805687D01*
Y806157D01*
Y806745D01*
Y807568D01*
X3672212Y808391D01*
Y809449D01*
Y810625D01*
Y813094D01*
X3672329Y816033D01*
Y819208D01*
Y822500D01*
X3682441D01*
Y822383D01*
D02*
G37*
G36*
X3366277Y807215D02*
X3367218D01*
X3368159Y807097D01*
X3370510Y806745D01*
X3372979Y806157D01*
X3375683Y805334D01*
X3378152Y804158D01*
X3380504Y802630D01*
X3380622D01*
X3380739Y802394D01*
X3381445Y801807D01*
X3382385Y800748D01*
X3383443Y799455D01*
X3384502Y797691D01*
X3385325Y795693D01*
X3386030Y793341D01*
X3386148Y792048D01*
X3386265Y790637D01*
Y790519D01*
Y790049D01*
X3386148Y789461D01*
X3386030Y788520D01*
X3385912Y787462D01*
X3385560Y786286D01*
X3385207Y785111D01*
X3384619Y783700D01*
X3383914Y782289D01*
X3382973Y780878D01*
X3381915Y779585D01*
X3380622Y778291D01*
X3379093Y776998D01*
X3377329Y775940D01*
X3375331Y774999D01*
X3372979Y774294D01*
Y774059D01*
X3373332D01*
X3373685Y773941D01*
X3374155Y773823D01*
X3375448Y773588D01*
X3377094Y773118D01*
X3378858Y772412D01*
X3380739Y771472D01*
X3382503Y770296D01*
X3384149Y768885D01*
X3384384Y768650D01*
X3384854Y768180D01*
X3385442Y767239D01*
X3386265Y765946D01*
X3386971Y764417D01*
X3387676Y762654D01*
X3388146Y760655D01*
X3388264Y758421D01*
Y758303D01*
Y758068D01*
Y757480D01*
X3388146Y756892D01*
X3388029Y756069D01*
X3387911Y755129D01*
X3387441Y753012D01*
X3386618Y750661D01*
X3386030Y749485D01*
X3385442Y748192D01*
X3384619Y747016D01*
X3383679Y745840D01*
X3382621Y744664D01*
X3381445Y743606D01*
X3381327D01*
X3381092Y743371D01*
X3380739Y743136D01*
X3380151Y742783D01*
X3379446Y742430D01*
X3378623Y741960D01*
X3377682Y741490D01*
X3376506Y741020D01*
X3375213Y740432D01*
X3373802Y739961D01*
X3372274Y739491D01*
X3370628Y739138D01*
X3368746Y738785D01*
X3366865Y738550D01*
X3364749Y738433D01*
X3362515Y738315D01*
X3360751D01*
X3359928Y738433D01*
X3358870D01*
X3356518Y738668D01*
X3353814Y739138D01*
X3351110Y739609D01*
X3348288Y740432D01*
X3345701Y741490D01*
Y754306D01*
X3345819D01*
X3346054Y754071D01*
X3346407Y753835D01*
X3346877Y753600D01*
X3347583Y753248D01*
X3348288Y752777D01*
X3349229Y752307D01*
X3350169Y751954D01*
X3352521Y751013D01*
X3355107Y750191D01*
X3358047Y749720D01*
X3361339Y749485D01*
X3362280D01*
X3363338Y749603D01*
X3364514Y749838D01*
X3365924Y750073D01*
X3367453Y750426D01*
X3368864Y751013D01*
X3370157Y751836D01*
X3370275Y751954D01*
X3370628Y752307D01*
X3371216Y752895D01*
X3371803Y753600D01*
X3372274Y754541D01*
X3372862Y755717D01*
X3373214Y757128D01*
X3373332Y758656D01*
Y758891D01*
Y759361D01*
X3373097Y760184D01*
X3372862Y761243D01*
X3372391Y762301D01*
X3371686Y763477D01*
X3370628Y764535D01*
X3369334Y765475D01*
X3369217Y765593D01*
X3368629Y765828D01*
X3367806Y766299D01*
X3366512Y766769D01*
X3365102Y767122D01*
X3363220Y767592D01*
X3361104Y767827D01*
X3358752Y767944D01*
X3352521D01*
Y779232D01*
X3358870D01*
X3359458Y779350D01*
X3360281D01*
X3361339Y779467D01*
X3362397Y779702D01*
X3364866Y780290D01*
X3366042Y780760D01*
X3367218Y781348D01*
X3368276Y782054D01*
X3369334Y782877D01*
X3370157Y783935D01*
X3370745Y785111D01*
X3371216Y786404D01*
X3371333Y787933D01*
Y788050D01*
Y788285D01*
X3371216Y788638D01*
Y789226D01*
X3370745Y790519D01*
X3370510Y791225D01*
X3370040Y792048D01*
X3369569Y792753D01*
X3368864Y793459D01*
X3368041Y794164D01*
X3367100Y794752D01*
X3365924Y795340D01*
X3364514Y795693D01*
X3362985Y795928D01*
X3361221Y796045D01*
X3360516D01*
X3360046Y795928D01*
X3358752Y795810D01*
X3357106Y795458D01*
X3355107Y794987D01*
X3352874Y794164D01*
X3350522Y793106D01*
X3348170Y791695D01*
Y803688D01*
X3348288D01*
X3348523Y803805D01*
X3348876Y804041D01*
X3349464Y804276D01*
X3350052Y804511D01*
X3350875Y804864D01*
X3351815Y805216D01*
X3352874Y805569D01*
X3355343Y806157D01*
X3358047Y806745D01*
X3361221Y807215D01*
X3364631Y807333D01*
X3365572D01*
X3366277Y807215D01*
D02*
G37*
G36*
X3816478Y790990D02*
X3798959D01*
Y779114D01*
X3814362D01*
Y770649D01*
X3798959D01*
Y757833D01*
X3818477D01*
Y749367D01*
X3770270D01*
Y757833D01*
X3789788D01*
Y770649D01*
X3774386D01*
Y779114D01*
X3789788D01*
Y790990D01*
X3772740D01*
Y799455D01*
X3816478D01*
Y790990D01*
D02*
G37*
G36*
X3324067Y739373D02*
X3309370D01*
Y791107D01*
X3309135Y790872D01*
X3308547Y790402D01*
X3307724Y789696D01*
X3306548Y788991D01*
X3306431D01*
X3306313Y788873D01*
X3305960Y788638D01*
X3305490Y788403D01*
X3304314Y787815D01*
X3303021Y787227D01*
X3302903D01*
X3302668Y787110D01*
X3302316Y786992D01*
X3301845Y786757D01*
X3300552Y786404D01*
X3299141Y785934D01*
X3299023D01*
X3298788Y785816D01*
X3298435D01*
X3297965Y785699D01*
X3296672Y785463D01*
X3295261Y785228D01*
Y797691D01*
X3295379D01*
X3295496Y797809D01*
X3296201Y798044D01*
X3297260Y798397D01*
X3298671Y798867D01*
X3300317Y799455D01*
X3302198Y800161D01*
X3305960Y801924D01*
X3306078D01*
X3306196Y802042D01*
X3306783Y802394D01*
X3307842Y802865D01*
X3309017Y803570D01*
X3310546Y804511D01*
X3312074Y805452D01*
X3315249Y807685D01*
X3324067D01*
Y739373D01*
D02*
G37*
G36*
X3409428Y753365D02*
X3410369Y753248D01*
X3411309Y753012D01*
X3412250Y752542D01*
X3413308Y752072D01*
X3414248Y751366D01*
X3414366Y751249D01*
X3414601Y751013D01*
X3415071Y750543D01*
X3415542Y749838D01*
X3415894Y749132D01*
X3416365Y748192D01*
X3416600Y747016D01*
X3416718Y745840D01*
Y745723D01*
Y745252D01*
X3416600Y744664D01*
X3416365Y743841D01*
X3416130Y743018D01*
X3415659Y742078D01*
X3415071Y741137D01*
X3414248Y740314D01*
X3414131Y740197D01*
X3413778Y739961D01*
X3413308Y739726D01*
X3412485Y739373D01*
X3411662Y738903D01*
X3410486Y738668D01*
X3409310Y738433D01*
X3407899Y738315D01*
X3407311D01*
X3406606Y738433D01*
X3405783Y738550D01*
X3404843Y738785D01*
X3403784Y739256D01*
X3402726Y739726D01*
X3401785Y740432D01*
X3401668Y740549D01*
X3401432Y740784D01*
X3401080Y741255D01*
X3400610Y741960D01*
X3400139Y742783D01*
X3399787Y743606D01*
X3399551Y744664D01*
X3399434Y745840D01*
Y745958D01*
Y746428D01*
X3399551Y747016D01*
X3399787Y747839D01*
X3400022Y748662D01*
X3400492Y749603D01*
X3401080Y750543D01*
X3401903Y751366D01*
X3402021Y751484D01*
X3402373Y751719D01*
X3402844Y752072D01*
X3403667Y752424D01*
X3404490Y752777D01*
X3405548Y753130D01*
X3406841Y753365D01*
X3408134Y753483D01*
X3408723D01*
X3409428Y753365D01*
D02*
G37*
G36*
X3818594Y808156D02*
X3769212D01*
Y739491D01*
X3819888D01*
Y730673D01*
X3759806D01*
Y772883D01*
X3761100Y774059D01*
X3759806Y775624D01*
Y817092D01*
X3818594D01*
Y808156D01*
D02*
G37*
G36*
X3645639Y747604D02*
X3645757Y747486D01*
X3645992Y747251D01*
X3646345Y746898D01*
X3646933Y746310D01*
X3647638Y745723D01*
X3648579Y745017D01*
X3649637Y744194D01*
X3650813Y743489D01*
X3652224Y742666D01*
X3653870Y741842D01*
X3655633Y741137D01*
X3657515Y740549D01*
X3659749Y739961D01*
X3661982Y739491D01*
X3664569Y739138D01*
X3667273Y739021D01*
X3690436Y738785D01*
X3720536Y739726D01*
Y739609D01*
X3720418Y739491D01*
X3720183Y738785D01*
X3719830Y737727D01*
X3719360Y736434D01*
X3718889Y734905D01*
X3718302Y733259D01*
X3717714Y731613D01*
X3717126Y730085D01*
X3689495Y729732D01*
X3667038Y729967D01*
X3666215D01*
X3665157Y730085D01*
X3663864Y730202D01*
X3662217Y730438D01*
X3660454Y730673D01*
X3658455Y731025D01*
X3656339Y731496D01*
X3654105Y732084D01*
X3651871Y732907D01*
X3649519Y733730D01*
X3647403Y734788D01*
X3645287Y736081D01*
X3643405Y737610D01*
X3641642Y739256D01*
X3640231Y741137D01*
X3639996Y740902D01*
X3639408Y740314D01*
X3638350Y739256D01*
X3636821Y737845D01*
X3635057Y736081D01*
X3633058Y733965D01*
X3630707Y731496D01*
X3628120Y728792D01*
X3623182Y738080D01*
X3623300Y738198D01*
X3623535Y738433D01*
X3624005Y738785D01*
X3624475Y739256D01*
X3625181Y739844D01*
X3626004Y740549D01*
X3627768Y742195D01*
X3629884Y743959D01*
X3632000Y745840D01*
X3633999Y747604D01*
X3635880Y749250D01*
Y780408D01*
X3623652D01*
Y789343D01*
X3645639D01*
Y747604D01*
D02*
G37*
G36*
X3518657Y779350D02*
X3488322D01*
Y743018D01*
Y742783D01*
X3488439Y742313D01*
X3488557Y741607D01*
X3488910Y740784D01*
X3489497Y739844D01*
X3490321Y739138D01*
X3491496Y738668D01*
X3493025Y738433D01*
X3501490D01*
X3502196Y738550D01*
X3503254Y738785D01*
X3504312Y739138D01*
X3505605Y739844D01*
X3506664Y740784D01*
X3507604Y742195D01*
X3507839Y743136D01*
X3508075Y744077D01*
Y744194D01*
Y744312D01*
X3508192Y745017D01*
X3508427Y746193D01*
X3508545Y747839D01*
X3508780Y749838D01*
X3509015Y752307D01*
X3509368Y755129D01*
X3509603Y758303D01*
X3509721D01*
X3509838Y758186D01*
X3510544Y758068D01*
X3511484Y757833D01*
X3512895Y757480D01*
X3514424Y757010D01*
X3516187Y756540D01*
X3518069Y756069D01*
X3519950Y755599D01*
Y755481D01*
Y755246D01*
X3519832Y754776D01*
Y754071D01*
X3519715Y753365D01*
X3519597Y752424D01*
X3519362Y750426D01*
X3519009Y748074D01*
X3518657Y745605D01*
X3518304Y743136D01*
X3517951Y740902D01*
Y740784D01*
X3517834Y740432D01*
X3517716Y739844D01*
X3517481Y739138D01*
X3517128Y738315D01*
X3516658Y737375D01*
X3516070Y736316D01*
X3515247Y735258D01*
X3514424Y734200D01*
X3513365Y733142D01*
X3512190Y732201D01*
X3510779Y731378D01*
X3509133Y730673D01*
X3507369Y730085D01*
X3505253Y729732D01*
X3503019Y729615D01*
X3490673D01*
X3490085Y729732D01*
X3489262Y729850D01*
X3488204Y729967D01*
X3487146Y730320D01*
X3485970Y730673D01*
X3484795Y731261D01*
X3483501Y731849D01*
X3482325Y732672D01*
X3481267Y733730D01*
X3480209Y735023D01*
X3479386Y736434D01*
X3478798Y738080D01*
X3478328Y740079D01*
X3478210Y742313D01*
Y779350D01*
X3460691D01*
Y777351D01*
Y777115D01*
Y776410D01*
Y775352D01*
X3460574Y773941D01*
X3460456Y772295D01*
X3460338Y770296D01*
X3460103Y768062D01*
X3459868Y765711D01*
X3459515Y763242D01*
X3459163Y760655D01*
X3457987Y755599D01*
X3457281Y753130D01*
X3456341Y750661D01*
X3455400Y748427D01*
X3454225Y746428D01*
X3454107Y746310D01*
X3453872Y745958D01*
X3453519Y745370D01*
X3452931Y744664D01*
X3452226Y743724D01*
X3451285Y742548D01*
X3450109Y741372D01*
X3448816Y739961D01*
X3447170Y738433D01*
X3445406Y736904D01*
X3443290Y735258D01*
X3440938Y733495D01*
X3438352Y731731D01*
X3435530Y729967D01*
X3432355Y728204D01*
X3428946Y726440D01*
X3428828Y726675D01*
X3428358Y727145D01*
X3427534Y727969D01*
X3426712Y729027D01*
X3425653Y730320D01*
X3424595Y731496D01*
X3423537Y732789D01*
X3422596Y734082D01*
X3422832Y734200D01*
X3423302Y734435D01*
X3424243Y734905D01*
X3425301Y735611D01*
X3426712Y736316D01*
X3428240Y737257D01*
X3429886Y738315D01*
X3431767Y739609D01*
X3435530Y742195D01*
X3439292Y745252D01*
X3441056Y746898D01*
X3442702Y748544D01*
X3444113Y750308D01*
X3445406Y752072D01*
X3445524Y752189D01*
X3445641Y752424D01*
X3445876Y752895D01*
X3446229Y753600D01*
X3446582Y754423D01*
X3447052Y755481D01*
X3447523Y756657D01*
X3447993Y758068D01*
X3448463Y759714D01*
X3448934Y761595D01*
X3449404Y763594D01*
X3449756Y765828D01*
X3450109Y768297D01*
X3450345Y771002D01*
X3450580Y773941D01*
Y776998D01*
Y779350D01*
X3423890D01*
Y788638D01*
X3518657D01*
Y779350D01*
D02*
G37*
G36*
X3553577Y819678D02*
Y819561D01*
X3553459Y819090D01*
X3553224Y818503D01*
X3552989Y817679D01*
X3552636Y816621D01*
X3552283Y815328D01*
X3551813Y813917D01*
X3551343Y812389D01*
X3550167Y809096D01*
X3548874Y805452D01*
X3547463Y801689D01*
X3545934Y797927D01*
Y726910D01*
X3536293D01*
Y781113D01*
X3536176Y780878D01*
X3535940Y780408D01*
X3535705Y779820D01*
X3535352Y778997D01*
X3535000Y778056D01*
X3534529Y777115D01*
X3533942Y775940D01*
X3532648Y773353D01*
X3530884Y770531D01*
X3528886Y767592D01*
X3526534Y764535D01*
X3526417Y764770D01*
X3526181Y765358D01*
X3525711Y766299D01*
X3525241Y767592D01*
X3524535Y769003D01*
X3523830Y770649D01*
X3522301Y774059D01*
X3522419Y774294D01*
X3522889Y774999D01*
X3523595Y776057D01*
X3524535Y777586D01*
X3525711Y779585D01*
X3527004Y781819D01*
X3528416Y784523D01*
X3530061Y787580D01*
X3531707Y790872D01*
X3533471Y794634D01*
X3535235Y798514D01*
X3537116Y802865D01*
X3538880Y807333D01*
X3540643Y812153D01*
X3542289Y817209D01*
X3543936Y822383D01*
X3553577Y819678D01*
D02*
G37*
D10*
X1650130Y203800D02*
Y243800D01*
X1620130Y203800D02*
Y243800D01*
X1650130D01*
X1620130Y203800D02*
X1650130D01*
X1543930Y158080D02*
Y198080D01*
X1573930Y158080D02*
Y198080D01*
X1543930Y158080D02*
X1573930D01*
X1543930Y198080D02*
X1573930D01*
X325020Y478540D02*
Y634540D01*
X169020D02*
X325020D01*
X169020Y478540D02*
Y634540D01*
Y478540D02*
X325020D01*
X1975880Y141210D02*
Y171210D01*
X1945880Y141210D02*
Y171210D01*
Y141210D02*
X1975880D01*
X1945880Y171210D02*
X1975880D01*
X253900Y859540D02*
Y1015540D01*
X97900D02*
X253900D01*
X97900Y859540D02*
Y1015540D01*
Y859540D02*
X253900D01*
X2002900D02*
X2158900D01*
X2002900D02*
Y1015540D01*
X2158900D01*
Y859540D02*
Y1015540D01*
X444400Y859540D02*
Y1015540D01*
X288400D02*
X444400D01*
X288400Y859540D02*
Y1015540D01*
Y859540D02*
X444400D01*
X478900D02*
X634900D01*
X478900D02*
Y1015540D01*
X634900D01*
Y859540D02*
Y1015540D01*
X824130Y859540D02*
Y1015540D01*
X668130D02*
X824130D01*
X668130Y859540D02*
Y1015540D01*
Y859540D02*
X824130D01*
X859900D02*
X1015900D01*
X859900D02*
Y1015540D01*
X1015900D01*
Y859540D02*
Y1015540D01*
X1205130Y859540D02*
Y1015540D01*
X1049130D02*
X1205130D01*
X1049130Y859540D02*
Y1015540D01*
Y859540D02*
X1205130D01*
X1239630D02*
X1395630D01*
X1239630D02*
Y1015540D01*
X1395630D01*
Y859540D02*
Y1015540D01*
X1587400Y859540D02*
Y1015540D01*
X1431400D02*
X1587400D01*
X1431400Y859540D02*
Y1015540D01*
Y859540D02*
X1587400D01*
X1620630D02*
X1776630D01*
X1620630D02*
Y1015540D01*
X1776630D01*
Y859540D02*
Y1015540D01*
X1967130Y859540D02*
Y1015540D01*
X1811130D02*
X1967130D01*
X1811130Y859540D02*
Y1015540D01*
Y859540D02*
X1967130D01*
X2335640Y478540D02*
X2491640D01*
X2335640D02*
Y634540D01*
X2491640D01*
Y478540D02*
Y634540D01*
X1968400Y288040D02*
Y444040D01*
X1812400D02*
X1968400D01*
X1812400Y288040D02*
Y444040D01*
Y288040D02*
X1968400D01*
X2193000Y859540D02*
X2349000D01*
X2193000D02*
Y1015540D01*
X2349000D01*
Y859540D02*
Y1015540D01*
X2158500Y288040D02*
Y444040D01*
X2002500D02*
X2158500D01*
X2002500Y288040D02*
Y444040D01*
Y288040D02*
X2158500D01*
X2145140Y478540D02*
X2301140D01*
X2145140D02*
Y634540D01*
X2301140D01*
Y478540D02*
Y634540D01*
X2538630Y859540D02*
Y1015540D01*
X2382630D02*
X2538630D01*
X2382630Y859540D02*
Y1015540D01*
Y859540D02*
X2538630D01*
X2287380Y669040D02*
X2443380D01*
X2287380D02*
Y825040D01*
X2443380D01*
Y669040D02*
Y825040D01*
X2872640Y669040D02*
Y825040D01*
X2716640D02*
X2872640D01*
X2716640Y669040D02*
Y825040D01*
Y669040D02*
X2872640D01*
X2477880D02*
X2633880D01*
X2477880D02*
Y825040D01*
X2633880D01*
Y669040D02*
Y825040D01*
X586640Y478540D02*
Y634540D01*
X430640D02*
X586640D01*
X430640Y478540D02*
Y634540D01*
Y478540D02*
X586640D01*
X2668380Y859540D02*
X2824380D01*
X2668380D02*
Y1015540D01*
X2824380D01*
Y859540D02*
Y1015540D01*
X1396500Y288040D02*
Y444040D01*
X1240500D02*
X1396500D01*
X1240500Y288040D02*
Y444040D01*
Y288040D02*
X1396500D01*
X1015500D02*
Y444040D01*
X859500D02*
X1015500D01*
X859500Y288040D02*
Y444040D01*
Y288040D02*
X1015500D01*
X2764500D02*
X2920500D01*
X2764500D02*
Y444040D01*
X2920500D01*
Y288040D02*
Y444040D01*
X2729130Y97540D02*
Y253540D01*
X2573130D02*
X2729130D01*
X2573130Y97540D02*
Y253540D01*
Y97540D02*
X2729130D01*
X811240Y478540D02*
X967240D01*
X811240D02*
Y634540D01*
X967240D01*
Y478540D02*
Y634540D01*
X2800250Y478540D02*
Y634540D01*
X2644250D02*
X2800250D01*
X2644250Y478540D02*
Y634540D01*
Y478540D02*
X2800250D01*
X763380Y669040D02*
X919380D01*
X763380D02*
Y825040D01*
X919380D01*
Y669040D02*
Y825040D01*
X1158140Y478540D02*
Y634540D01*
X1002140D02*
X1158140D01*
X1002140Y478540D02*
Y634540D01*
Y478540D02*
X1158140D01*
X2002900Y97540D02*
X2158900D01*
X2002900D02*
Y253540D01*
X2158900D01*
Y97540D02*
Y253540D01*
X1348240Y478540D02*
Y634540D01*
X1192240D02*
X1348240D01*
X1192240Y478540D02*
Y634540D01*
Y478540D02*
X1348240D01*
X1383140D02*
X1539140D01*
X1383140D02*
Y634540D01*
X1539140D01*
Y478540D02*
Y634540D01*
X1871880Y669040D02*
Y825040D01*
X1715880D02*
X1871880D01*
X1715880Y669040D02*
Y825040D01*
Y669040D02*
X1871880D01*
X1573640Y478540D02*
X1729640D01*
X1573640D02*
Y634540D01*
X1729640D01*
Y478540D02*
Y634540D01*
X1920140Y478540D02*
Y634540D01*
X1764140D02*
X1920140D01*
X1764140Y478540D02*
Y634540D01*
Y478540D02*
X1920140D01*
X597010Y97540D02*
X753010D01*
X597010D02*
Y253540D01*
X753010D01*
Y97540D02*
Y253540D01*
X276760Y97540D02*
Y253540D01*
X120760D02*
X276760D01*
X120760Y97540D02*
Y253540D01*
Y97540D02*
X276760D01*
X2382630D02*
X2538630D01*
X2382630D02*
Y253540D01*
X2538630D01*
Y97540D02*
Y253540D01*
X347880Y288040D02*
Y444040D01*
X191880D02*
X347880D01*
X191880Y288040D02*
Y444040D01*
Y288040D02*
X347880D01*
X1954640Y478540D02*
X2110640D01*
X1954640D02*
Y634540D01*
X2110640D01*
Y478540D02*
Y634540D01*
X2348130Y97540D02*
Y253540D01*
X2192130D02*
X2348130D01*
X2192130Y97540D02*
Y253540D01*
Y97540D02*
X2348130D01*
X1620630Y288040D02*
X1776630D01*
X1620630D02*
Y444040D01*
X1776630D01*
Y288040D02*
Y444040D01*
X1586130Y288040D02*
Y444040D01*
X1430130D02*
X1586130D01*
X1430130Y288040D02*
Y444040D01*
Y288040D02*
X1586130D01*
X1906380Y669040D02*
X2062380D01*
X1906380D02*
Y825040D01*
X2062380D01*
Y669040D02*
Y825040D01*
X2252880Y669040D02*
Y825040D01*
X2096880D02*
X2252880D01*
X2096880Y669040D02*
Y825040D01*
Y669040D02*
X2252880D01*
X382380D02*
X538380D01*
X382380D02*
Y825040D01*
X538380D01*
Y669040D02*
Y825040D01*
X2919230Y97540D02*
Y253540D01*
X2763230D02*
X2919230D01*
X2763230Y97540D02*
Y253540D01*
Y97540D02*
X2919230D01*
X2383030Y288040D02*
X2539030D01*
X2383030D02*
Y444040D01*
X2539030D01*
Y288040D02*
Y444040D01*
X1109880Y669040D02*
Y825040D01*
X953880D02*
X1109880D01*
X953880Y669040D02*
Y825040D01*
Y669040D02*
X1109880D01*
X1312020Y97540D02*
X1468020D01*
X1312020D02*
Y253540D01*
X1468020D01*
Y97540D02*
Y253540D01*
X777140Y478540D02*
Y634540D01*
X621140D02*
X777140D01*
X621140Y478540D02*
Y634540D01*
Y478540D02*
X777140D01*
X1145250Y669040D02*
X1301250D01*
X1145250D02*
Y825040D01*
X1301250D01*
Y669040D02*
Y825040D01*
X2729130Y288040D02*
Y444040D01*
X2573130D02*
X2729130D01*
X2573130Y288040D02*
Y444040D01*
Y288040D02*
X2729130D01*
X1526650Y669040D02*
X1682650D01*
X1526650D02*
Y825040D01*
X1682650D01*
Y669040D02*
Y825040D01*
X1206400Y288040D02*
Y444040D01*
X1050400D02*
X1206400D01*
X1050400Y288040D02*
Y444040D01*
Y288040D02*
X1206400D01*
X572880Y669040D02*
X728880D01*
X572880D02*
Y825040D01*
X728880D01*
Y669040D02*
Y825040D01*
X824530Y288040D02*
Y444040D01*
X668530D02*
X824530D01*
X668530Y288040D02*
Y444040D01*
Y288040D02*
X824530D01*
X1334880Y669040D02*
X1490880D01*
X1334880D02*
Y825040D01*
X1490880D01*
Y669040D02*
Y825040D01*
X633630Y288040D02*
Y444040D01*
X477630D02*
X633630D01*
X477630Y288040D02*
Y444040D01*
Y288040D02*
X633630D01*
X2192130D02*
X2348130D01*
X2192130D02*
Y444040D01*
X2348130D01*
Y288040D02*
Y444040D01*
X302160Y669040D02*
Y825040D01*
X146160D02*
X302160D01*
X146160Y669040D02*
Y825040D01*
Y669040D02*
X302160D01*
X359520Y97540D02*
X515520D01*
X359520D02*
Y253540D01*
X515520D01*
Y97540D02*
Y253540D01*
X1976520Y202530D02*
Y242530D01*
X1946520D02*
X1976520D01*
X1946520Y202530D02*
Y242530D01*
Y202530D02*
X1976520D01*
X1633380Y109380D02*
X1653380D01*
X1633380Y129380D02*
X1653380D01*
Y109380D02*
Y129380D01*
X1633380Y109380D02*
Y129380D01*
X2817500Y1105200D02*
Y1135200D01*
Y1105200D02*
X2857500D01*
Y1135200D01*
X2817500D02*
X2857500D01*
X1938420Y202530D02*
Y242530D01*
X1908420D02*
X1938420D01*
X1908420Y202530D02*
Y242530D01*
Y202530D02*
X1938420D01*
D27*
X169020Y634540D02*
X325020Y478540D01*
X169020D02*
X325020Y634540D01*
X97900Y1015540D02*
X253900Y859540D01*
X97900D02*
X253900Y1015540D01*
X2002900Y859540D02*
X2158900Y1015540D01*
X2002900D02*
X2158900Y859540D01*
X288400Y1015540D02*
X444400Y859540D01*
X288400D02*
X444400Y1015540D01*
X478900Y859540D02*
X634900Y1015540D01*
X478900D02*
X634900Y859540D01*
X668130Y1015540D02*
X824130Y859540D01*
X668130D02*
X824130Y1015540D01*
X859900Y859540D02*
X1015900Y1015540D01*
X859900D02*
X1015900Y859540D01*
X1049130Y1015540D02*
X1205130Y859540D01*
X1049130D02*
X1205130Y1015540D01*
X1239630Y859540D02*
X1395630Y1015540D01*
X1239630D02*
X1395630Y859540D01*
X1431400Y1015540D02*
X1587400Y859540D01*
X1431400D02*
X1587400Y1015540D01*
X1620630Y859540D02*
X1776630Y1015540D01*
X1620630D02*
X1776630Y859540D01*
X1811130Y1015540D02*
X1967130Y859540D01*
X1811130D02*
X1967130Y1015540D01*
X2335640Y478540D02*
X2491640Y634540D01*
X2335640D02*
X2491640Y478540D01*
X1812400Y444040D02*
X1968400Y288040D01*
X1812400D02*
X1968400Y444040D01*
X2193000Y859540D02*
X2349000Y1015540D01*
X2193000D02*
X2349000Y859540D01*
X2002500Y444040D02*
X2158500Y288040D01*
X2002500D02*
X2158500Y444040D01*
X2145140Y478540D02*
X2301140Y634540D01*
X2145140D02*
X2301140Y478540D01*
X2382630Y1015540D02*
X2538630Y859540D01*
X2382630D02*
X2538630Y1015540D01*
X2287380Y669040D02*
X2443380Y825040D01*
X2287380D02*
X2443380Y669040D01*
X2716640Y825040D02*
X2872640Y669040D01*
X2716640D02*
X2872640Y825040D01*
X2477880Y669040D02*
X2633880Y825040D01*
X2477880D02*
X2633880Y669040D01*
X430640Y634540D02*
X586640Y478540D01*
X430640D02*
X586640Y634540D01*
X2668380Y859540D02*
X2824380Y1015540D01*
X2668380D02*
X2824380Y859540D01*
X1240500Y444040D02*
X1396500Y288040D01*
X1240500D02*
X1396500Y444040D01*
X859500D02*
X1015500Y288040D01*
X859500D02*
X1015500Y444040D01*
X2764500Y288040D02*
X2920500Y444040D01*
X2764500D02*
X2920500Y288040D01*
X2573130Y253540D02*
X2729130Y97540D01*
X2573130D02*
X2729130Y253540D01*
X811240Y478540D02*
X967240Y634540D01*
X811240D02*
X967240Y478540D01*
X2644250Y634540D02*
X2800250Y478540D01*
X2644250D02*
X2800250Y634540D01*
X763380Y669040D02*
X919380Y825040D01*
X763380D02*
X919380Y669040D01*
X1002140Y634540D02*
X1158140Y478540D01*
X1002140D02*
X1158140Y634540D01*
X2002900Y97540D02*
X2158900Y253540D01*
X2002900D02*
X2158900Y97540D01*
X1192240Y634540D02*
X1348240Y478540D01*
X1192240D02*
X1348240Y634540D01*
X1383140Y478540D02*
X1539140Y634540D01*
X1383140D02*
X1539140Y478540D01*
X1715880Y825040D02*
X1871880Y669040D01*
X1715880D02*
X1871880Y825040D01*
X1573640Y478540D02*
X1729640Y634540D01*
X1573640D02*
X1729640Y478540D01*
X1764140Y634540D02*
X1920140Y478540D01*
X1764140D02*
X1920140Y634540D01*
X597010Y97540D02*
X753010Y253540D01*
X597010D02*
X753010Y97540D01*
X120760Y253540D02*
X276760Y97540D01*
X120760D02*
X276760Y253540D01*
X2382630Y97540D02*
X2538630Y253540D01*
X2382630D02*
X2538630Y97540D01*
X191880Y444040D02*
X347880Y288040D01*
X191880D02*
X347880Y444040D01*
X1954640Y478540D02*
X2110640Y634540D01*
X1954640D02*
X2110640Y478540D01*
X2192130Y253540D02*
X2348130Y97540D01*
X2192130D02*
X2348130Y253540D01*
X1620630Y288040D02*
X1776630Y444040D01*
X1620630D02*
X1776630Y288040D01*
X1430130Y444040D02*
X1586130Y288040D01*
X1430130D02*
X1586130Y444040D01*
X1906380Y669040D02*
X2062380Y825040D01*
X1906380D02*
X2062380Y669040D01*
X2096880Y825040D02*
X2252880Y669040D01*
X2096880D02*
X2252880Y825040D01*
X382380Y669040D02*
X538380Y825040D01*
X382380D02*
X538380Y669040D01*
X2763230Y253540D02*
X2919230Y97540D01*
X2763230D02*
X2919230Y253540D01*
X2383030Y288040D02*
X2539030Y444040D01*
X2383030D02*
X2539030Y288040D01*
X953880Y825040D02*
X1109880Y669040D01*
X953880D02*
X1109880Y825040D01*
X1312020Y97540D02*
X1468020Y253540D01*
X1312020D02*
X1468020Y97540D01*
X621140Y634540D02*
X777140Y478540D01*
X621140D02*
X777140Y634540D01*
X1145250Y669040D02*
X1301250Y825040D01*
X1145250D02*
X1301250Y669040D01*
X2573130Y444040D02*
X2729130Y288040D01*
X2573130D02*
X2729130Y444040D01*
X1526650Y669040D02*
X1682650Y825040D01*
X1526650D02*
X1682650Y669040D01*
X1050400Y444040D02*
X1206400Y288040D01*
X1050400D02*
X1206400Y444040D01*
X572880Y669040D02*
X728880Y825040D01*
X572880D02*
X728880Y669040D01*
X668530Y444040D02*
X824530Y288040D01*
X668530D02*
X824530Y444040D01*
X1334880Y669040D02*
X1490880Y825040D01*
X1334880D02*
X1490880Y669040D01*
X477630Y444040D02*
X633630Y288040D01*
X477630D02*
X633630Y444040D01*
X2192130Y288040D02*
X2348130Y444040D01*
X2192130D02*
X2348130Y288040D01*
X146160Y825040D02*
X302160Y669040D01*
X146160D02*
X302160Y825040D01*
X359520Y97540D02*
X515520Y253540D01*
X359520D02*
X515520Y97540D01*
D138*
X1701004Y228499D02*
X1709468Y220035D01*
Y228499D02*
X1701004Y220035D01*
X1705236Y228499D02*
Y220035D01*
X1709468Y224267D02*
X1701004D01*
D141*
X852570Y1041920D02*
G03*
X852570Y1041920I-2000J0D01*
G01*
X2120030D02*
G03*
X2120030Y1041920I-2000J0D01*
G01*
X1582560Y1074410D02*
X1600060Y1074410D01*
X1582560Y1104910D02*
X1600060Y1104910D01*
X1582560Y1074410D02*
Y1104910D01*
X1600060Y1074410D02*
Y1104910D01*
X857570Y1036920D02*
Y1076920D01*
X817570Y1036920D02*
X857570D01*
X817570Y1076920D02*
X857570D01*
X817570Y1036920D02*
Y1076920D01*
X2125030Y1036920D02*
Y1076920D01*
X2085030Y1036920D02*
X2125030D01*
X2085030Y1076920D02*
X2125030D01*
X2085030Y1036920D02*
Y1076920D01*
X1651500Y63770D02*
Y94270D01*
X1634000Y63770D02*
Y94270D01*
X1651500D01*
X1634000Y63770D02*
X1651500D01*
X1598440Y101870D02*
Y132370D01*
X1615940Y101870D02*
Y132370D01*
X1598440Y101870D02*
X1615940D01*
X1598440Y132370D02*
X1615940D01*
X1598440Y63770D02*
Y94270D01*
X1615940Y63770D02*
Y94270D01*
X1598440Y63770D02*
X1615940D01*
X1598440Y94270D02*
X1615940D01*
X413530Y573450D02*
Y623450D01*
X367530Y573450D02*
X413530D01*
X367530D02*
Y623450D01*
X413530D01*
X310380Y798710D02*
X356380D01*
X310380Y748710D02*
Y798710D01*
Y748710D02*
X356380D01*
Y798710D01*
X310380Y854590D02*
X356380D01*
X310380Y804590D02*
Y854590D01*
Y804590D02*
X356380D01*
Y854590D01*
X367530Y567570D02*
X413530D01*
X367530Y517570D02*
Y567570D01*
Y517570D02*
X413530D01*
Y567570D01*
X399280Y321190D02*
X445280D01*
X399280Y271190D02*
Y321190D01*
Y271190D02*
X445280D01*
Y321190D01*
X399280Y377070D02*
X445280D01*
X399280Y327070D02*
Y377070D01*
Y327070D02*
X445280D01*
Y377070D01*
X399280Y431680D02*
X445280D01*
X399280Y381680D02*
Y431680D01*
Y381680D02*
X445280D01*
Y431680D01*
X367530Y511690D02*
X413530D01*
X367530Y461690D02*
Y511690D01*
Y461690D02*
X413530D01*
Y511690D01*
D142*
X2554736Y557810D02*
G03*
X2554736Y557810I-6476J0D01*
G01*
X2538510Y567260D02*
X2621510D01*
X2538510Y510260D02*
Y567260D01*
Y510260D02*
X2621510D01*
Y567260D01*
D143*
X1693322Y241707D02*
X1885345D01*
X1693322Y61621D02*
Y241707D01*
Y61621D02*
X1885345D01*
Y241707D01*
M02*
