G04*
G04 #@! TF.GenerationSoftware,Altium Limited,Altium Designer,22.10.1 (41)*
G04*
G04 Layer_Color=10964583*
%FSLAX44Y44*%
%MOMM*%
G71*
G04*
G04 #@! TF.SameCoordinates,9A037A66-6DE6-4E6B-824F-FEF4343B680E*
G04*
G04*
G04 #@! TF.FilePolarity,Positive*
G04*
G01*
G75*
%ADD11C,0.0254*%
%ADD12C,0.1524*%
%ADD136C,0.1000*%
%ADD137C,0.0500*%
G36*
X3509603Y685295D02*
X3433061D01*
Y694584D01*
X3509603D01*
Y685295D01*
D02*
G37*
G36*
X3594258Y678241D02*
X3617186D01*
Y669540D01*
X3594258D01*
Y647200D01*
X3620360D01*
Y638500D01*
X3594258D01*
Y605108D01*
X3584500D01*
Y638500D01*
X3551225D01*
Y647200D01*
X3584500D01*
Y669540D01*
X3568039D01*
Y669422D01*
X3567921Y669070D01*
X3567686Y668599D01*
X3567333Y667894D01*
X3566981Y667071D01*
X3566628Y666013D01*
X3566040Y664837D01*
X3565452Y663543D01*
X3564159Y660722D01*
X3562630Y657665D01*
X3560866Y654372D01*
X3558985Y651080D01*
X3558868Y651198D01*
X3558398Y651551D01*
X3557574Y652139D01*
X3556634Y652962D01*
X3555576Y653785D01*
X3554282Y654725D01*
X3551460Y656842D01*
X3551578Y657077D01*
X3551813Y657547D01*
X3552283Y658488D01*
X3552989Y659781D01*
X3553694Y661310D01*
X3554518Y663191D01*
X3555576Y665307D01*
X3556516Y667776D01*
X3557692Y670363D01*
X3558750Y673302D01*
X3559926Y676359D01*
X3560984Y679651D01*
X3562160Y683061D01*
X3563218Y686589D01*
X3564159Y690351D01*
X3565099Y694113D01*
X3574741Y691409D01*
Y691292D01*
X3574623Y691056D01*
X3574505Y690586D01*
X3574388Y690116D01*
X3574270Y689410D01*
X3574035Y688587D01*
X3573447Y686706D01*
X3572859Y684590D01*
X3572271Y682473D01*
X3571448Y680239D01*
X3570743Y678241D01*
X3584500D01*
Y700462D01*
X3594258D01*
Y678241D01*
D02*
G37*
G36*
X3635175Y700227D02*
X3635410Y699992D01*
X3635763Y699522D01*
X3636233Y698934D01*
X3636821Y698229D01*
X3637527Y697405D01*
X3638350Y696347D01*
X3639290Y695172D01*
X3640231Y693878D01*
X3641289Y692467D01*
X3643758Y689293D01*
X3646345Y685765D01*
X3649167Y681768D01*
X3648931Y681650D01*
X3648461Y681298D01*
X3647638Y680827D01*
X3646580Y680122D01*
X3645287Y679299D01*
X3643876Y678358D01*
X3640818Y676477D01*
X3640701Y676594D01*
X3640583Y676947D01*
X3640231Y677418D01*
X3639760Y678123D01*
X3639172Y679064D01*
X3638467Y680004D01*
X3637644Y681180D01*
X3636821Y682473D01*
X3634822Y685413D01*
X3632588Y688587D01*
X3630354Y691879D01*
X3627885Y695289D01*
X3635057Y700345D01*
X3635175Y700227D01*
D02*
G37*
G36*
X3409428Y665542D02*
X3410369Y665425D01*
X3411309Y665072D01*
X3412250Y664719D01*
X3413308Y664131D01*
X3414248Y663426D01*
X3414366Y663308D01*
X3414601Y663073D01*
X3415071Y662603D01*
X3415542Y662015D01*
X3415894Y661192D01*
X3416365Y660251D01*
X3416600Y659193D01*
X3416718Y658017D01*
Y657900D01*
Y657430D01*
X3416600Y656842D01*
X3416365Y656019D01*
X3416130Y655195D01*
X3415659Y654255D01*
X3415071Y653314D01*
X3414248Y652491D01*
X3414131Y652374D01*
X3413778Y652139D01*
X3413308Y651786D01*
X3412485Y651433D01*
X3411662Y651080D01*
X3410486Y650728D01*
X3409310Y650492D01*
X3407899Y650375D01*
X3407311D01*
X3406606Y650492D01*
X3405783Y650610D01*
X3404843Y650845D01*
X3403784Y651316D01*
X3402726Y651786D01*
X3401785Y652491D01*
X3401668Y652609D01*
X3401432Y652844D01*
X3401080Y653432D01*
X3400610Y654020D01*
X3400139Y654843D01*
X3399787Y655783D01*
X3399551Y656842D01*
X3399434Y658017D01*
Y658135D01*
Y658605D01*
X3399551Y659193D01*
X3399787Y660016D01*
X3400022Y660839D01*
X3400492Y661780D01*
X3401080Y662720D01*
X3401903Y663543D01*
X3402021Y663661D01*
X3402373Y663896D01*
X3402844Y664249D01*
X3403667Y664602D01*
X3404490Y664954D01*
X3405548Y665307D01*
X3406841Y665542D01*
X3408134Y665660D01*
X3408723D01*
X3409428Y665542D01*
D02*
G37*
G36*
X3746873Y682356D02*
X3758865D01*
Y673655D01*
X3746873D01*
Y660487D01*
X3750047Y664367D01*
X3750165D01*
X3750282Y664131D01*
X3750988Y663543D01*
X3751928Y662485D01*
X3753340Y661074D01*
X3754985Y659311D01*
X3756867Y657194D01*
X3758865Y654843D01*
X3759806Y653704D01*
Y650963D01*
X3754633Y646260D01*
Y646377D01*
X3754398Y646495D01*
X3753810Y647200D01*
X3752987Y648376D01*
X3751928Y649787D01*
X3750635Y651551D01*
X3749342Y653314D01*
X3748048Y655313D01*
X3746873Y657312D01*
Y604638D01*
X3737702D01*
Y655666D01*
X3737584Y655078D01*
X3737349Y654255D01*
X3737114Y653197D01*
X3736761Y651903D01*
X3736408Y650375D01*
X3735821Y648729D01*
X3735233Y646848D01*
X3733822Y642850D01*
X3731941Y638617D01*
X3729706Y634384D01*
X3728413Y632386D01*
X3727002Y630504D01*
X3726885Y630740D01*
X3726649Y631328D01*
X3726297Y632268D01*
X3725826Y633561D01*
X3725239Y634972D01*
X3724651Y636618D01*
X3723240Y640028D01*
X3723358Y640263D01*
X3723710Y640734D01*
X3724180Y641674D01*
X3724886Y642850D01*
X3725709Y644379D01*
X3726649Y646142D01*
X3727708Y648141D01*
X3728883Y650375D01*
X3730059Y652844D01*
X3731235Y655431D01*
X3732411Y658252D01*
X3733586Y661074D01*
X3735821Y667306D01*
X3736879Y670480D01*
X3737702Y673655D01*
X3723945D01*
Y682356D01*
X3737702D01*
Y701050D01*
X3746873D01*
Y682356D01*
D02*
G37*
G36*
X3277742Y617453D02*
X3262928D01*
Y657430D01*
Y657547D01*
Y657782D01*
Y658135D01*
Y658605D01*
Y659193D01*
Y659899D01*
X3263045Y661662D01*
Y663779D01*
X3263163Y666130D01*
X3263280Y668834D01*
X3263515Y671656D01*
X3263045D01*
Y671539D01*
Y671421D01*
X3262928Y670716D01*
X3262692Y669540D01*
X3262457Y668247D01*
X3262104Y666836D01*
X3261752Y665307D01*
X3261399Y664014D01*
X3261046Y662838D01*
X3245291Y617453D01*
X3233063D01*
X3217072Y662368D01*
Y662485D01*
X3216955Y662838D01*
X3216837Y663308D01*
X3216602Y664249D01*
X3216249Y665425D01*
X3215897Y667071D01*
X3215779Y668011D01*
X3215544Y669187D01*
X3215191Y670363D01*
X3214956Y671656D01*
X3214603D01*
Y671539D01*
Y671186D01*
Y670716D01*
X3214721Y670010D01*
Y669187D01*
X3214839Y668129D01*
Y667071D01*
X3214956Y665777D01*
Y663073D01*
X3215074Y660251D01*
X3215191Y657194D01*
Y654372D01*
Y617453D01*
X3201670D01*
Y684237D01*
X3223657D01*
X3237296Y644614D01*
X3237413Y644379D01*
X3237531Y643791D01*
X3237884Y642850D01*
X3238236Y641674D01*
X3238589Y640263D01*
X3238942Y638617D01*
X3239294Y636854D01*
X3239647Y635090D01*
X3240000D01*
Y635207D01*
X3240117Y635325D01*
X3240235Y636031D01*
X3240470Y637089D01*
X3240823Y638382D01*
X3241176Y639911D01*
X3241646Y641439D01*
X3242116Y643085D01*
X3242587Y644731D01*
X3256343Y684237D01*
X3277742D01*
Y617453D01*
D02*
G37*
G36*
X3682441Y700462D02*
Y700227D01*
Y699757D01*
Y699052D01*
Y698346D01*
Y697405D01*
X3682323Y696347D01*
Y695172D01*
Y692585D01*
X3682206Y689645D01*
Y686589D01*
X3682088Y683414D01*
X3714657D01*
Y683296D01*
Y683061D01*
Y682708D01*
Y682121D01*
X3714539Y681415D01*
Y680592D01*
Y679651D01*
X3714422Y678593D01*
X3714304Y676242D01*
X3714186Y673420D01*
X3714069Y670363D01*
X3713951Y667071D01*
X3713716Y663543D01*
X3713599Y660016D01*
X3713128Y652726D01*
X3713011Y649317D01*
X3712776Y645907D01*
X3712540Y642850D01*
X3712305Y640028D01*
Y639793D01*
X3712188Y639323D01*
X3712070Y638500D01*
X3711835Y637441D01*
X3711600Y636148D01*
X3711129Y634620D01*
X3710541Y633091D01*
X3709836Y631563D01*
X3709013Y630034D01*
X3707837Y628506D01*
X3706661Y626977D01*
X3705133Y625801D01*
X3703369Y624626D01*
X3701371Y623803D01*
X3699137Y623332D01*
X3696550Y623097D01*
X3692905D01*
X3691847Y623215D01*
X3689495D01*
X3686791Y623332D01*
X3683734Y623450D01*
X3680442Y623567D01*
Y623685D01*
Y623803D01*
X3680324Y624508D01*
X3680207Y625449D01*
X3679972Y626860D01*
X3679737Y628388D01*
X3679501Y630269D01*
X3679266Y632150D01*
X3678913Y634267D01*
X3679384D01*
X3679854Y634149D01*
X3680559D01*
X3681500Y634032D01*
X3682441Y633914D01*
X3684792Y633797D01*
X3687261Y633561D01*
X3689848Y633326D01*
X3692317Y633209D01*
X3695139D01*
X3695609Y633326D01*
X3696785Y633679D01*
X3698196Y634267D01*
X3698901Y634737D01*
X3699607Y635207D01*
X3700312Y635913D01*
X3700900Y636736D01*
X3701488Y637677D01*
X3701958Y638852D01*
X3702311Y640146D01*
X3702546Y641557D01*
Y641674D01*
Y642144D01*
X3702664Y642968D01*
X3702781Y643908D01*
X3702899Y645201D01*
Y646848D01*
X3703134Y648611D01*
X3703252Y650610D01*
X3703369Y652962D01*
X3703487Y655431D01*
X3703604Y658135D01*
X3703840Y660957D01*
X3703957Y664014D01*
X3704075Y667188D01*
X3704193Y670598D01*
X3704310Y674125D01*
X3681853D01*
Y674008D01*
Y673655D01*
Y673185D01*
X3681735Y672479D01*
Y671656D01*
X3681618Y670598D01*
X3681500Y669422D01*
X3681265Y668011D01*
X3681147Y666600D01*
X3680912Y664954D01*
X3680207Y661427D01*
X3679266Y657547D01*
X3678091Y653432D01*
X3676562Y649199D01*
X3674681Y644731D01*
X3672447Y640381D01*
X3671153Y638147D01*
X3669742Y636031D01*
X3668214Y633914D01*
X3666568Y631915D01*
X3664687Y629916D01*
X3662805Y628035D01*
X3660807Y626154D01*
X3658573Y624390D01*
X3656221Y622862D01*
X3653752Y621334D01*
X3653635Y621451D01*
X3653282Y621921D01*
X3652694Y622627D01*
X3651871Y623450D01*
X3650930Y624626D01*
X3649872Y625919D01*
X3648696Y627330D01*
X3647403Y628976D01*
X3647520D01*
X3647638Y629094D01*
X3647991Y629329D01*
X3648461Y629564D01*
X3649637Y630387D01*
X3651165Y631563D01*
X3652929Y633091D01*
X3654928Y634855D01*
X3657044Y637089D01*
X3659278Y639675D01*
X3661630Y642615D01*
X3663746Y645907D01*
X3665862Y649552D01*
X3667744Y653667D01*
X3669272Y658135D01*
X3670565Y663073D01*
X3671506Y668364D01*
X3671741Y671186D01*
X3671859Y674125D01*
X3653047D01*
Y683414D01*
X3672094D01*
Y683531D01*
Y683767D01*
Y684237D01*
Y684825D01*
Y685648D01*
X3672212Y686471D01*
Y687529D01*
Y688705D01*
Y691174D01*
X3672329Y694113D01*
Y697288D01*
Y700580D01*
X3682441D01*
Y700462D01*
D02*
G37*
G36*
X3385795Y672244D02*
X3361574D01*
X3360751Y658840D01*
X3361339D01*
X3362044Y658958D01*
X3363808D01*
X3364866Y659075D01*
X3367806D01*
X3368629Y658958D01*
X3369452D01*
X3370392Y658840D01*
X3372744Y658370D01*
X3375331Y657782D01*
X3378035Y656842D01*
X3380622Y655431D01*
X3381797Y654608D01*
X3382973Y653667D01*
X3383091Y653549D01*
X3383208Y653432D01*
X3383561Y653079D01*
X3383914Y652726D01*
X3384854Y651433D01*
X3385912Y649787D01*
X3386971Y647788D01*
X3387911Y645319D01*
X3388617Y642380D01*
X3388734Y640851D01*
X3388852Y639205D01*
Y639087D01*
Y638735D01*
Y638265D01*
X3388734Y637559D01*
X3388617Y636618D01*
X3388499Y635678D01*
X3388029Y633326D01*
X3387206Y630740D01*
X3386618Y629329D01*
X3385912Y628035D01*
X3385089Y626624D01*
X3384266Y625331D01*
X3383091Y624038D01*
X3381915Y622744D01*
X3381797Y622627D01*
X3381562Y622509D01*
X3381209Y622156D01*
X3380622Y621804D01*
X3379916Y621334D01*
X3379093Y620746D01*
X3378152Y620158D01*
X3376977Y619570D01*
X3375683Y618982D01*
X3374272Y618394D01*
X3372744Y617924D01*
X3371098Y617336D01*
X3369217Y616983D01*
X3367336Y616630D01*
X3365219Y616513D01*
X3363103Y616395D01*
X3361457D01*
X3360634Y616513D01*
X3359693D01*
X3357459Y616748D01*
X3354872Y617101D01*
X3352168Y617571D01*
X3349464Y618159D01*
X3346877Y619100D01*
Y631680D01*
X3346995D01*
X3347230Y631563D01*
X3347583Y631328D01*
X3348053Y631092D01*
X3348641Y630740D01*
X3349464Y630387D01*
X3351227Y629681D01*
X3353461Y628858D01*
X3355930Y628270D01*
X3358635Y627800D01*
X3361457Y627565D01*
X3362397D01*
X3363456Y627683D01*
X3364749Y627918D01*
X3366160Y628270D01*
X3367688Y628741D01*
X3369217Y629329D01*
X3370510Y630269D01*
X3370628Y630387D01*
X3370980Y630740D01*
X3371568Y631445D01*
X3372156Y632268D01*
X3372744Y633326D01*
X3373332Y634620D01*
X3373685Y636148D01*
X3373802Y637794D01*
Y637912D01*
Y638265D01*
X3373685Y638735D01*
X3373567Y639323D01*
X3373332Y640146D01*
X3373097Y640969D01*
X3372626Y641909D01*
X3372039Y642850D01*
X3371333Y643673D01*
X3370392Y644614D01*
X3369217Y645437D01*
X3367923Y646260D01*
X3366277Y646848D01*
X3364396Y647318D01*
X3362280Y647671D01*
X3359810Y647788D01*
X3357812D01*
X3356401Y647671D01*
X3354637Y647553D01*
X3352639Y647436D01*
X3350404Y647200D01*
X3347935Y646965D01*
X3350404Y684237D01*
X3385795D01*
Y672244D01*
D02*
G37*
G36*
X3816478Y669070D02*
X3798959D01*
Y657194D01*
X3814362D01*
Y648729D01*
X3798959D01*
Y635913D01*
X3818477D01*
Y627447D01*
X3770270D01*
Y635913D01*
X3789788D01*
Y648729D01*
X3774386D01*
Y657194D01*
X3789788D01*
Y669070D01*
X3772740D01*
Y677535D01*
X3816478D01*
Y669070D01*
D02*
G37*
G36*
X3324067Y617453D02*
X3309370D01*
Y669187D01*
X3309135Y668952D01*
X3308547Y668482D01*
X3307724Y667776D01*
X3306548Y667071D01*
X3306431D01*
X3306313Y666953D01*
X3305960Y666718D01*
X3305490Y666483D01*
X3304314Y665895D01*
X3303021Y665307D01*
X3302903D01*
X3302668Y665190D01*
X3302316Y665072D01*
X3301845Y664837D01*
X3300552Y664484D01*
X3299141Y664014D01*
X3299023D01*
X3298788Y663896D01*
X3298435D01*
X3297965Y663779D01*
X3296672Y663543D01*
X3295261Y663308D01*
Y675771D01*
X3295379D01*
X3295496Y675889D01*
X3296201Y676124D01*
X3297260Y676477D01*
X3298671Y676947D01*
X3300317Y677535D01*
X3302198Y678241D01*
X3305960Y680004D01*
X3306078D01*
X3306196Y680122D01*
X3306783Y680474D01*
X3307842Y680945D01*
X3309017Y681650D01*
X3310546Y682591D01*
X3312074Y683531D01*
X3315249Y685765D01*
X3324067D01*
Y617453D01*
D02*
G37*
G36*
X3409428Y631445D02*
X3410369Y631328D01*
X3411309Y631092D01*
X3412250Y630622D01*
X3413308Y630152D01*
X3414248Y629446D01*
X3414366Y629329D01*
X3414601Y629094D01*
X3415071Y628623D01*
X3415542Y627918D01*
X3415894Y627212D01*
X3416365Y626272D01*
X3416600Y625096D01*
X3416718Y623920D01*
Y623803D01*
Y623332D01*
X3416600Y622744D01*
X3416365Y621921D01*
X3416130Y621098D01*
X3415659Y620158D01*
X3415071Y619217D01*
X3414248Y618394D01*
X3414131Y618276D01*
X3413778Y618041D01*
X3413308Y617806D01*
X3412485Y617453D01*
X3411662Y616983D01*
X3410486Y616748D01*
X3409310Y616513D01*
X3407899Y616395D01*
X3407311D01*
X3406606Y616513D01*
X3405783Y616630D01*
X3404843Y616866D01*
X3403784Y617336D01*
X3402726Y617806D01*
X3401785Y618512D01*
X3401668Y618629D01*
X3401432Y618864D01*
X3401080Y619335D01*
X3400610Y620040D01*
X3400139Y620863D01*
X3399787Y621686D01*
X3399551Y622744D01*
X3399434Y623920D01*
Y624038D01*
Y624508D01*
X3399551Y625096D01*
X3399787Y625919D01*
X3400022Y626742D01*
X3400492Y627683D01*
X3401080Y628623D01*
X3401903Y629446D01*
X3402021Y629564D01*
X3402373Y629799D01*
X3402844Y630152D01*
X3403667Y630504D01*
X3404490Y630857D01*
X3405548Y631210D01*
X3406841Y631445D01*
X3408134Y631563D01*
X3408723D01*
X3409428Y631445D01*
D02*
G37*
G36*
X3818594Y686236D02*
X3769212D01*
Y617571D01*
X3819888D01*
Y608753D01*
X3759806D01*
Y650963D01*
X3761100Y652139D01*
X3759806Y653704D01*
Y695172D01*
X3818594D01*
Y686236D01*
D02*
G37*
G36*
X3645639Y625684D02*
X3645757Y625566D01*
X3645992Y625331D01*
X3646345Y624978D01*
X3646933Y624390D01*
X3647638Y623803D01*
X3648579Y623097D01*
X3649637Y622274D01*
X3650813Y621569D01*
X3652224Y620746D01*
X3653870Y619922D01*
X3655633Y619217D01*
X3657515Y618629D01*
X3659749Y618041D01*
X3661982Y617571D01*
X3664569Y617218D01*
X3667273Y617101D01*
X3690436Y616866D01*
X3720536Y617806D01*
Y617689D01*
X3720418Y617571D01*
X3720183Y616866D01*
X3719830Y615807D01*
X3719360Y614514D01*
X3718889Y612985D01*
X3718302Y611339D01*
X3717714Y609693D01*
X3717126Y608165D01*
X3689495Y607812D01*
X3667038Y608047D01*
X3666215D01*
X3665157Y608165D01*
X3663864Y608283D01*
X3662217Y608518D01*
X3660454Y608753D01*
X3658455Y609105D01*
X3656339Y609576D01*
X3654105Y610164D01*
X3651871Y610987D01*
X3649519Y611810D01*
X3647403Y612868D01*
X3645287Y614161D01*
X3643405Y615690D01*
X3641642Y617336D01*
X3640231Y619217D01*
X3639996Y618982D01*
X3639408Y618394D01*
X3638350Y617336D01*
X3636821Y615925D01*
X3635057Y614161D01*
X3633058Y612045D01*
X3630707Y609576D01*
X3628120Y606871D01*
X3623182Y616160D01*
X3623300Y616278D01*
X3623535Y616513D01*
X3624005Y616866D01*
X3624475Y617336D01*
X3625181Y617924D01*
X3626004Y618629D01*
X3627768Y620275D01*
X3629884Y622039D01*
X3632000Y623920D01*
X3633999Y625684D01*
X3635880Y627330D01*
Y658488D01*
X3623652D01*
Y667423D01*
X3645639D01*
Y625684D01*
D02*
G37*
G36*
X3518657Y657430D02*
X3488322D01*
Y621098D01*
Y620863D01*
X3488439Y620393D01*
X3488557Y619687D01*
X3488910Y618864D01*
X3489497Y617924D01*
X3490321Y617218D01*
X3491496Y616748D01*
X3493025Y616513D01*
X3501490D01*
X3502196Y616630D01*
X3503254Y616866D01*
X3504312Y617218D01*
X3505605Y617924D01*
X3506664Y618864D01*
X3507604Y620275D01*
X3507839Y621216D01*
X3508075Y622156D01*
Y622274D01*
Y622392D01*
X3508192Y623097D01*
X3508427Y624273D01*
X3508545Y625919D01*
X3508780Y627918D01*
X3509015Y630387D01*
X3509368Y633209D01*
X3509603Y636383D01*
X3509721D01*
X3509838Y636266D01*
X3510544Y636148D01*
X3511484Y635913D01*
X3512895Y635560D01*
X3514424Y635090D01*
X3516187Y634620D01*
X3518069Y634149D01*
X3519950Y633679D01*
Y633561D01*
Y633326D01*
X3519832Y632856D01*
Y632150D01*
X3519715Y631445D01*
X3519597Y630504D01*
X3519362Y628506D01*
X3519009Y626154D01*
X3518657Y623685D01*
X3518304Y621216D01*
X3517951Y618982D01*
Y618864D01*
X3517834Y618512D01*
X3517716Y617924D01*
X3517481Y617218D01*
X3517128Y616395D01*
X3516658Y615455D01*
X3516070Y614396D01*
X3515247Y613338D01*
X3514424Y612280D01*
X3513365Y611222D01*
X3512190Y610281D01*
X3510779Y609458D01*
X3509133Y608753D01*
X3507369Y608165D01*
X3505253Y607812D01*
X3503019Y607695D01*
X3490673D01*
X3490085Y607812D01*
X3489262Y607930D01*
X3488204Y608047D01*
X3487146Y608400D01*
X3485970Y608753D01*
X3484795Y609341D01*
X3483501Y609929D01*
X3482325Y610752D01*
X3481267Y611810D01*
X3480209Y613103D01*
X3479386Y614514D01*
X3478798Y616160D01*
X3478328Y618159D01*
X3478210Y620393D01*
Y657430D01*
X3460691D01*
Y655431D01*
Y655195D01*
Y654490D01*
Y653432D01*
X3460574Y652021D01*
X3460456Y650375D01*
X3460338Y648376D01*
X3460103Y646142D01*
X3459868Y643791D01*
X3459515Y641321D01*
X3459163Y638735D01*
X3457987Y633679D01*
X3457281Y631210D01*
X3456341Y628741D01*
X3455400Y626507D01*
X3454225Y624508D01*
X3454107Y624390D01*
X3453872Y624038D01*
X3453519Y623450D01*
X3452931Y622744D01*
X3452226Y621804D01*
X3451285Y620628D01*
X3450109Y619452D01*
X3448816Y618041D01*
X3447170Y616513D01*
X3445406Y614984D01*
X3443290Y613338D01*
X3440938Y611575D01*
X3438352Y609811D01*
X3435530Y608047D01*
X3432355Y606284D01*
X3428946Y604520D01*
X3428828Y604755D01*
X3428358Y605225D01*
X3427534Y606049D01*
X3426712Y607107D01*
X3425653Y608400D01*
X3424595Y609576D01*
X3423537Y610869D01*
X3422596Y612163D01*
X3422832Y612280D01*
X3423302Y612515D01*
X3424243Y612985D01*
X3425301Y613691D01*
X3426712Y614396D01*
X3428240Y615337D01*
X3429886Y616395D01*
X3431767Y617689D01*
X3435530Y620275D01*
X3439292Y623332D01*
X3441056Y624978D01*
X3442702Y626624D01*
X3444113Y628388D01*
X3445406Y630152D01*
X3445524Y630269D01*
X3445641Y630504D01*
X3445876Y630975D01*
X3446229Y631680D01*
X3446582Y632503D01*
X3447052Y633561D01*
X3447523Y634737D01*
X3447993Y636148D01*
X3448463Y637794D01*
X3448934Y639675D01*
X3449404Y641674D01*
X3449756Y643908D01*
X3450109Y646377D01*
X3450345Y649081D01*
X3450580Y652021D01*
Y655078D01*
Y657430D01*
X3423890D01*
Y666718D01*
X3518657D01*
Y657430D01*
D02*
G37*
G36*
X3553577Y697758D02*
Y697641D01*
X3553459Y697170D01*
X3553224Y696582D01*
X3552989Y695759D01*
X3552636Y694701D01*
X3552283Y693408D01*
X3551813Y691997D01*
X3551343Y690469D01*
X3550167Y687176D01*
X3548874Y683531D01*
X3547463Y679769D01*
X3545934Y676007D01*
Y604990D01*
X3536293D01*
Y659193D01*
X3536176Y658958D01*
X3535940Y658488D01*
X3535705Y657900D01*
X3535352Y657077D01*
X3535000Y656136D01*
X3534529Y655195D01*
X3533942Y654020D01*
X3532648Y651433D01*
X3530884Y648611D01*
X3528886Y645672D01*
X3526534Y642615D01*
X3526417Y642850D01*
X3526181Y643438D01*
X3525711Y644379D01*
X3525241Y645672D01*
X3524535Y647083D01*
X3523830Y648729D01*
X3522301Y652139D01*
X3522419Y652374D01*
X3522889Y653079D01*
X3523595Y654137D01*
X3524535Y655666D01*
X3525711Y657665D01*
X3527004Y659899D01*
X3528416Y662603D01*
X3530061Y665660D01*
X3531707Y668952D01*
X3533471Y672714D01*
X3535235Y676594D01*
X3537116Y680945D01*
X3538880Y685413D01*
X3540643Y690233D01*
X3542289Y695289D01*
X3543936Y700462D01*
X3553577Y697758D01*
D02*
G37*
D11*
X480060Y289560D02*
G03*
X480060Y289560I-1270J0D01*
G01*
X2065660Y1042950D02*
G03*
X2065660Y1042950I-1270J0D01*
G01*
X1998529Y165368D02*
G03*
X1998529Y165368I-1270J0D01*
G01*
X1584410Y97701D02*
G03*
X1584410Y97701I-1270J0D01*
G01*
X1674514Y102238D02*
G03*
X1674514Y102238I-1270J0D01*
G01*
X1674494Y124162D02*
G03*
X1674494Y124162I-1270J0D01*
G01*
X1522074Y243280D02*
G03*
X1522074Y243280I-1270J0D01*
G01*
X1522196Y228781D02*
G03*
X1522196Y228781I-1270J0D01*
G01*
X1674547Y173254D02*
G03*
X1674547Y173254I-1270J0D01*
G01*
X1674596Y161807D02*
G03*
X1674596Y161807I-1270J0D01*
G01*
X1674500Y67590D02*
G03*
X1674500Y67590I-1270J0D01*
G01*
Y79020D02*
G03*
X1674500Y79020I-1270J0D01*
G01*
Y184430D02*
G03*
X1674500Y184430I-1270J0D01*
G01*
X1579880Y1061720D02*
G03*
X1579880Y1061720I-1270J0D01*
G01*
X2528570Y556260D02*
G03*
X2528570Y556260I-1270J0D01*
G01*
X1998350Y217450D02*
G03*
X1998350Y217450I-1270J0D01*
G01*
X798200Y1042950D02*
G03*
X798200Y1042950I-1270J0D01*
G01*
Y1026440D02*
G03*
X798200Y1026440I-1270J0D01*
G01*
X2146940Y1040410D02*
G03*
X2146940Y1040410I-1270J0D01*
G01*
X2065660Y1027710D02*
G03*
X2065660Y1027710I-1270J0D01*
G01*
X879480Y1040410D02*
G03*
X879480Y1040410I-1270J0D01*
G01*
X1605280Y1061720D02*
G03*
X1605280Y1061720I-1270J0D01*
G01*
X1584330Y122200D02*
G03*
X1584330Y122200I-1270J0D01*
G01*
Y73940D02*
G03*
X1584330Y73940I-1270J0D01*
G01*
X1674493Y113210D02*
G03*
X1674493Y113210I-1270J0D01*
G01*
X1674545Y90640D02*
G03*
X1674545Y90640I-1270J0D01*
G01*
X1998350Y206020D02*
G03*
X1998350Y206020I-1270J0D01*
G01*
X1592580Y1061720D02*
G03*
X1592580Y1061720I-1270J0D01*
G01*
X1598300Y173000D02*
G03*
X1598300Y173000I-1270J0D01*
G01*
Y184430D02*
G03*
X1598300Y184430I-1270J0D01*
G01*
Y195860D02*
G03*
X1598300Y195860I-1270J0D01*
G01*
X1522100Y183160D02*
G03*
X1522100Y183160I-1270J0D01*
G01*
Y194590D02*
G03*
X1522100Y194590I-1270J0D01*
G01*
Y206020D02*
G03*
X1522100Y206020I-1270J0D01*
G01*
Y217450D02*
G03*
X1522100Y217450I-1270J0D01*
G01*
X1598300Y161570D02*
G03*
X1598300Y161570I-1270J0D01*
G01*
X1522100Y171730D02*
G03*
X1522100Y171730I-1270J0D01*
G01*
Y160300D02*
G03*
X1522100Y160300I-1270J0D01*
G01*
X1644650Y101600D02*
G03*
X1644650Y101600I-1270J0D01*
G01*
X1998350Y240310D02*
G03*
X1998350Y240310I-1270J0D01*
G01*
Y228880D02*
G03*
X1998350Y228880I-1270J0D01*
G01*
X1674500Y195860D02*
G03*
X1674500Y195860I-1270J0D01*
G01*
Y207290D02*
G03*
X1674500Y207290I-1270J0D01*
G01*
Y218720D02*
G03*
X1674500Y218720I-1270J0D01*
G01*
X1598300D02*
G03*
X1598300Y218720I-1270J0D01*
G01*
Y230150D02*
G03*
X1598300Y230150I-1270J0D01*
G01*
Y207290D02*
G03*
X1598300Y207290I-1270J0D01*
G01*
X1674500Y241580D02*
G03*
X1674500Y241580I-1270J0D01*
G01*
Y230150D02*
G03*
X1674500Y230150I-1270J0D01*
G01*
X1598300Y241580D02*
G03*
X1598300Y241580I-1270J0D01*
G01*
X387990Y813080D02*
G03*
X387990Y813080I-1270J0D01*
G01*
X281310Y829590D02*
G03*
X281310Y829590I-1270J0D01*
G01*
X387990Y773710D02*
G03*
X387990Y773710I-1270J0D01*
G01*
X281310D02*
G03*
X281310Y773710I-1270J0D01*
G01*
X445140Y598450D02*
G03*
X445140Y598450I-1270J0D01*
G01*
X338460D02*
G03*
X338460Y598450I-1270J0D01*
G01*
X445140Y533680D02*
G03*
X445140Y533680I-1270J0D01*
G01*
X338460Y557810D02*
G03*
X338460Y557810I-1270J0D01*
G01*
X445140Y480340D02*
G03*
X445140Y480340I-1270J0D01*
G01*
X338460Y486690D02*
G03*
X338460Y486690I-1270J0D01*
G01*
X476890Y406680D02*
G03*
X476890Y406680I-1270J0D01*
G01*
X370210D02*
G03*
X370210Y406680I-1270J0D01*
G01*
X476890Y352070D02*
G03*
X476890Y352070I-1270J0D01*
G01*
X370210Y366040D02*
G03*
X370210Y366040I-1270J0D01*
G01*
Y296190D02*
G03*
X370210Y296190I-1270J0D01*
G01*
X478790Y287560D02*
Y291560D01*
X476790Y289560D02*
X480790D01*
X2064390Y1040950D02*
Y1044950D01*
X2062390Y1042950D02*
X2066390D01*
X1995259Y165368D02*
X1999259D01*
X1997259Y163368D02*
Y167368D01*
X1581140Y97701D02*
X1585140D01*
X1583140Y95701D02*
Y99701D01*
X1671244Y102238D02*
X1675244D01*
X1673244Y100238D02*
Y104238D01*
X1673224Y122162D02*
Y126161D01*
X1671223Y124162D02*
X1675224D01*
X1518804Y243280D02*
X1522804D01*
X1520804Y241280D02*
Y245280D01*
X1518926Y228781D02*
X1522926D01*
X1520926Y226781D02*
Y230781D01*
X1671277Y173254D02*
X1675277D01*
X1673277Y171254D02*
Y175254D01*
X1671326Y161807D02*
X1675326D01*
X1673326Y159808D02*
Y163808D01*
X1673230Y65590D02*
Y69590D01*
X1671230Y67590D02*
X1675230D01*
X1673230Y77020D02*
Y81020D01*
X1671230Y79020D02*
X1675230D01*
X1671230Y184430D02*
X1675230D01*
X1673230Y182430D02*
Y186430D01*
X1578610Y1059720D02*
Y1063720D01*
X1576610Y1061720D02*
X1580610D01*
X2527300Y554260D02*
Y558260D01*
X2525300Y556260D02*
X2529300D01*
X1997080Y215450D02*
Y219450D01*
X1995080Y217450D02*
X1999080D01*
X794930Y1042950D02*
X798930D01*
X796930Y1040950D02*
Y1044950D01*
X794930Y1026440D02*
X798930D01*
X796930Y1024440D02*
Y1028440D01*
X2143670Y1040410D02*
X2147670D01*
X2145670Y1038410D02*
Y1042410D01*
X2062390Y1027710D02*
X2066390D01*
X2064390Y1025710D02*
Y1029710D01*
X876210Y1040410D02*
X880210D01*
X878210Y1038410D02*
Y1042410D01*
X1604010Y1059720D02*
Y1063720D01*
X1602010Y1061720D02*
X1606010D01*
X1583060Y120200D02*
Y124200D01*
X1581060Y122200D02*
X1585060D01*
X1583060Y71940D02*
Y75940D01*
X1581060Y73940D02*
X1585060D01*
X1671223Y113210D02*
X1675223D01*
X1673223Y111210D02*
Y115210D01*
X1671275Y90640D02*
X1675275D01*
X1673275Y88640D02*
Y92640D01*
X1995080Y206020D02*
X1999080D01*
X1997080Y204020D02*
Y208020D01*
X1589310Y1061720D02*
X1593310D01*
X1591310Y1059720D02*
Y1063720D01*
X1597030Y171000D02*
Y175000D01*
X1595030Y173000D02*
X1599030D01*
X1597030Y182430D02*
Y186430D01*
X1595030Y184430D02*
X1599030D01*
X1597030Y193860D02*
Y197860D01*
X1595030Y195860D02*
X1599030D01*
X1520830Y181160D02*
Y185160D01*
X1518830Y183160D02*
X1522830D01*
X1520830Y192590D02*
Y196590D01*
X1518830Y194590D02*
X1522830D01*
X1520830Y204020D02*
Y208020D01*
X1518830Y206020D02*
X1522830D01*
X1520830Y215450D02*
Y219450D01*
X1518830Y217450D02*
X1522830D01*
X1597030Y159570D02*
Y163570D01*
X1595030Y161570D02*
X1599030D01*
X1520830Y169730D02*
Y173730D01*
X1518830Y171730D02*
X1522830D01*
X1520830Y158300D02*
Y162300D01*
X1518830Y160300D02*
X1522830D01*
X1641380Y101600D02*
X1645380D01*
X1643380Y99600D02*
Y103600D01*
X1995080Y240310D02*
X1999080D01*
X1997080Y238310D02*
Y242310D01*
X1995080Y228880D02*
X1999080D01*
X1997080Y226880D02*
Y230880D01*
X1673230Y193860D02*
Y197860D01*
X1671230Y195860D02*
X1675230D01*
X1673230Y205290D02*
Y209290D01*
X1671230Y207290D02*
X1675230D01*
X1673230Y216720D02*
Y220720D01*
X1671230Y218720D02*
X1675230D01*
X1597030Y216720D02*
Y220720D01*
X1595030Y218720D02*
X1599030D01*
X1597030Y228150D02*
Y232150D01*
X1595030Y230150D02*
X1599030D01*
X1597030Y205290D02*
Y209290D01*
X1595030Y207290D02*
X1599030D01*
X1673230Y239580D02*
Y243580D01*
X1671230Y241580D02*
X1675230D01*
X1673230Y228150D02*
Y232150D01*
X1671230Y230150D02*
X1675230D01*
X1597030Y239580D02*
Y243580D01*
X1595030Y241580D02*
X1599030D01*
X384720Y813080D02*
X388720D01*
X386720Y811080D02*
Y815080D01*
X278040Y829590D02*
X282040D01*
X280040Y827590D02*
Y831590D01*
X384720Y773710D02*
X388720D01*
X386720Y771710D02*
Y775710D01*
X278040Y773710D02*
X282040D01*
X280040Y771710D02*
Y775710D01*
X441870Y598450D02*
X445870D01*
X443870Y596450D02*
Y600450D01*
X335190Y598450D02*
X339190D01*
X337190Y596450D02*
Y600450D01*
X441870Y533680D02*
X445870D01*
X443870Y531680D02*
Y535680D01*
X335190Y557810D02*
X339190D01*
X337190Y555810D02*
Y559810D01*
X441870Y480340D02*
X445870D01*
X443870Y478340D02*
Y482340D01*
X335190Y486690D02*
X339190D01*
X337190Y484690D02*
Y488690D01*
X473620Y406680D02*
X477620D01*
X475620Y404680D02*
Y408680D01*
X366940Y406680D02*
X370940D01*
X368940Y404680D02*
Y408680D01*
X473620Y352070D02*
X477620D01*
X475620Y350070D02*
Y354070D01*
X366940Y366040D02*
X370940D01*
X368940Y364040D02*
Y368040D01*
X366940Y296190D02*
X370940D01*
X368940Y294190D02*
Y298190D01*
D12*
X1877319Y244247D02*
X1887885D01*
X1877319D02*
Y249200D01*
X1698249D02*
X1877319D01*
X1698249Y244247D02*
Y249200D01*
X1690782Y244247D02*
X1698249D01*
X1690782Y59081D02*
Y244247D01*
Y59081D02*
X1698249D01*
Y54128D02*
Y59081D01*
Y54128D02*
X1877319D01*
Y59081D01*
X1887885D01*
Y74829D01*
X1892864D01*
Y228499D01*
X1887885D02*
X1892864D01*
X1887885D02*
Y244247D01*
D136*
X1591310Y1084660D02*
Y1094660D01*
X1586310Y1089660D02*
X1596310D01*
X1637750Y79020D02*
X1647750D01*
X1642750Y74020D02*
Y84020D01*
X1602190Y117120D02*
X1612190D01*
X1607190Y112120D02*
Y122120D01*
X1602190Y79020D02*
X1612190D01*
X1607190Y74020D02*
Y84020D01*
X2536830Y585750D02*
X2623190D01*
Y491770D02*
Y585750D01*
X2536830Y491770D02*
X2623190D01*
X2536830D02*
Y585750D01*
X351160Y626390D02*
X429900D01*
X351160Y570510D02*
Y626390D01*
Y570510D02*
X429900D01*
Y626390D01*
X372750Y745770D02*
Y801650D01*
X294010Y745770D02*
X372750D01*
X294010D02*
Y801650D01*
X372750D01*
Y857530D01*
X294010Y801650D02*
X372750D01*
X294010D02*
Y857530D01*
X372750D01*
X429900Y514630D02*
Y570510D01*
X351160Y514630D02*
X429900D01*
X351160D02*
Y570510D01*
X429900D01*
X461650Y268250D02*
Y324130D01*
X382910Y268250D02*
X461650D01*
X382910D02*
Y324130D01*
X461650D01*
Y380010D01*
X382910Y324130D02*
X461650D01*
X382910D02*
Y380010D01*
X461650D01*
Y378740D02*
Y434620D01*
X382910Y378740D02*
X461650D01*
X382910D02*
Y434620D01*
X461650D01*
X429900Y458750D02*
Y514630D01*
X351160Y458750D02*
X429900D01*
X351160D02*
Y514630D01*
X429900D01*
D137*
X1212540Y1073150D02*
G03*
X1212540Y1073150I-3500J0D01*
G01*
X1917250Y1120200D02*
G03*
X1917250Y1120200I-3500J0D01*
G01*
X1625290Y1076960D02*
G03*
X1625290Y1076960I-3500J0D01*
G01*
X1608780Y146050D02*
G03*
X1608780Y146050I-3500J0D01*
G01*
X1662120D02*
G03*
X1662120Y146050I-3500J0D01*
G01*
X1512369Y1073467D02*
G03*
X1512369Y1073467I-3500J0D01*
G01*
X1374470Y1073430D02*
G03*
X1374470Y1073430I-3500J0D01*
G01*
X706450Y1083590D02*
G03*
X706450Y1083590I-3500J0D01*
G01*
X794710Y214630D02*
G03*
X794710Y214630I-3500J0D01*
G01*
X1511630Y90450D02*
G03*
X1511630Y90450I-3500J0D01*
G01*
X2930220Y439700D02*
G03*
X2930220Y439700I-3500J0D01*
G01*
X2172660Y201930D02*
G03*
X2172660Y201930I-3500J0D01*
G01*
X2360620Y200660D02*
G03*
X2360620Y200660I-3500J0D01*
G01*
X2551205Y202667D02*
G03*
X2551205Y202667I-3500J0D01*
G01*
X2342840Y1016000D02*
G03*
X2342840Y1016000I-3500J0D01*
G01*
X530550Y209550D02*
G03*
X530550Y209550I-3500J0D01*
G01*
X1797193Y1013180D02*
G03*
X1797193Y1013180I-3500J0D01*
G01*
X2892120Y1120420D02*
G03*
X2892120Y1120420I-3500J0D01*
G01*
X2789250D02*
G03*
X2789250Y1120420I-3500J0D01*
G01*
X2667250Y1120200D02*
G03*
X2667250Y1120200I-3500J0D01*
G01*
X2517250D02*
G03*
X2517250Y1120200I-3500J0D01*
G01*
X2367250D02*
G03*
X2367250Y1120200I-3500J0D01*
G01*
X1562430Y223800D02*
G03*
X1562430Y223800I-3500J0D01*
G01*
X2583510Y538760D02*
G03*
X2583510Y538760I-3500J0D01*
G01*
X1638630Y178080D02*
G03*
X1638630Y178080I-3500J0D01*
G01*
X394030Y598450D02*
G03*
X394030Y598450I-3500J0D01*
G01*
X336880Y773710D02*
G03*
X336880Y773710I-3500J0D01*
G01*
Y829590D02*
G03*
X336880Y829590I-3500J0D01*
G01*
X394030Y542570D02*
G03*
X394030Y542570I-3500J0D01*
G01*
X425780Y296190D02*
G03*
X425780Y296190I-3500J0D01*
G01*
Y352070D02*
G03*
X425780Y352070I-3500J0D01*
G01*
Y406680D02*
G03*
X425780Y406680I-3500J0D01*
G01*
X394030Y486690D02*
G03*
X394030Y486690I-3500J0D01*
G01*
X717250Y1120200D02*
G03*
X717250Y1120200I-3500J0D01*
G01*
X2217250D02*
G03*
X2217250Y1120200I-3500J0D01*
G01*
X567250D02*
G03*
X567250Y1120200I-3500J0D01*
G01*
X267250D02*
G03*
X267250Y1120200I-3500J0D01*
G01*
X122330D02*
G03*
X122330Y1120200I-3500J0D01*
G01*
X1167250D02*
G03*
X1167250Y1120200I-3500J0D01*
G01*
X1017250D02*
G03*
X1017250Y1120200I-3500J0D01*
G01*
X417250D02*
G03*
X417250Y1120200I-3500J0D01*
G01*
X867250D02*
G03*
X867250Y1120200I-3500J0D01*
G01*
X1467250D02*
G03*
X1467250Y1120200I-3500J0D01*
G01*
X2067250D02*
G03*
X2067250Y1120200I-3500J0D01*
G01*
X1767250D02*
G03*
X1767250Y1120200I-3500J0D01*
G01*
X1617250D02*
G03*
X1617250Y1120200I-3500J0D01*
G01*
X1317250D02*
G03*
X1317250Y1120200I-3500J0D01*
G01*
X2719400Y1073430D02*
G03*
X2719400Y1073430I-3500J0D01*
G01*
X2264740Y1083590D02*
G03*
X2264740Y1083590I-3500J0D01*
G01*
X94310Y768630D02*
G03*
X94310Y768630I-3500J0D01*
G01*
X2930220Y905790D02*
G03*
X2930220Y905790I-3500J0D01*
G01*
X2719400Y90450D02*
G03*
X2719400Y90450I-3500J0D01*
G01*
X1967560D02*
G03*
X1967560Y90450I-3500J0D01*
G01*
X1977720Y1073430D02*
G03*
X1977720Y1073430I-3500J0D01*
G01*
X1046810D02*
G03*
X1046810Y1073430I-3500J0D01*
G01*
X305130D02*
G03*
X305130Y1073430I-3500J0D01*
G01*
X94310Y302540D02*
G03*
X94310Y302540I-3500J0D01*
G01*
X305130Y90450D02*
G03*
X305130Y90450I-3500J0D01*
G01*
X771220D02*
G03*
X771220Y90450I-3500J0D01*
G01*
X1209040Y1068150D02*
Y1078150D01*
X1204040Y1073150D02*
X1214040D01*
X1908750Y1120200D02*
X1918750D01*
X1913750Y1115200D02*
Y1125200D01*
X1621790Y1071960D02*
Y1081960D01*
X1616790Y1076960D02*
X1626790D01*
X1605280Y141050D02*
Y151050D01*
X1600280Y146050D02*
X1610280D01*
X1658620Y141050D02*
Y151050D01*
X1653620Y146050D02*
X1663620D01*
X1503869Y1073467D02*
X1513869D01*
X1508869Y1068467D02*
Y1078467D01*
X1365970Y1073430D02*
X1375970D01*
X1370970Y1068430D02*
Y1078430D01*
X697950Y1083590D02*
X707950D01*
X702950Y1078590D02*
Y1088590D01*
X786210Y214630D02*
X796210D01*
X791210Y209630D02*
Y219630D01*
X1571560Y1071660D02*
X1611060D01*
X1571560Y1107660D02*
X1611060D01*
X1571560Y1071660D02*
Y1107660D01*
X1611060Y1071660D02*
Y1107660D01*
X1503130Y90450D02*
X1513130D01*
X1508130Y85450D02*
Y95450D01*
X2921720Y439700D02*
X2931720D01*
X2926720Y434700D02*
Y444700D01*
X2169160Y196930D02*
Y206930D01*
X2164160Y201930D02*
X2174160D01*
X2357120Y195660D02*
Y205660D01*
X2352120Y200660D02*
X2362120D01*
X2547705Y197667D02*
Y207667D01*
X2542705Y202667D02*
X2552705D01*
X2339340Y1011000D02*
Y1021000D01*
X2334340Y1016000D02*
X2344340D01*
X527050Y204550D02*
Y214550D01*
X522050Y209550D02*
X532050D01*
X1793693Y1008180D02*
Y1018180D01*
X1788693Y1013180D02*
X1798693D01*
X2888620Y1115420D02*
Y1125420D01*
X2883620Y1120420D02*
X2893620D01*
X2785750Y1115420D02*
Y1125420D01*
X2780750Y1120420D02*
X2790750D01*
X2663750Y1115200D02*
Y1125200D01*
X2658750Y1120200D02*
X2668750D01*
X2513750Y1115200D02*
Y1125200D01*
X2508750Y1120200D02*
X2518750D01*
X2363750Y1115200D02*
Y1125200D01*
X2358750Y1120200D02*
X2368750D01*
X1553930Y223800D02*
X1563930D01*
X1558930Y218800D02*
Y228800D01*
X1660000Y62520D02*
Y95520D01*
X1625500Y62520D02*
Y95520D01*
X1660000D01*
X1625500Y62520D02*
X1660000D01*
X1589940Y100620D02*
Y133620D01*
X1624440Y100620D02*
Y133620D01*
X1589940Y100620D02*
X1624440D01*
X1589940Y133620D02*
X1624440D01*
X1589940Y62520D02*
Y95520D01*
X1624440Y62520D02*
Y95520D01*
X1589940Y62520D02*
X1624440D01*
X1589940Y95520D02*
X1624440D01*
X2580010Y533760D02*
Y543760D01*
X2575010Y538760D02*
X2585010D01*
X1635130Y173080D02*
Y183080D01*
X1630130Y178080D02*
X1640130D01*
X385530Y598450D02*
X395530D01*
X390530Y593450D02*
Y603450D01*
X333380Y768710D02*
Y778710D01*
X328380Y773710D02*
X338380D01*
X333380Y824590D02*
Y834590D01*
X328380Y829590D02*
X338380D01*
X390530Y537570D02*
Y547570D01*
X385530Y542570D02*
X395530D01*
X422280Y291190D02*
Y301190D01*
X417280Y296190D02*
X427280D01*
X422280Y347070D02*
Y357070D01*
X417280Y352070D02*
X427280D01*
X422280Y401680D02*
Y411680D01*
X417280Y406680D02*
X427280D01*
X390530Y481690D02*
Y491690D01*
X385530Y486690D02*
X395530D01*
X713750Y1115200D02*
Y1125200D01*
X708750Y1120200D02*
X718750D01*
X2208750D02*
X2218750D01*
X2213750Y1115200D02*
Y1125200D01*
X563750Y1115200D02*
Y1125200D01*
X558750Y1120200D02*
X568750D01*
X263750Y1115200D02*
Y1125200D01*
X258750Y1120200D02*
X268750D01*
X113830D02*
X123830D01*
X118830Y1115200D02*
Y1125200D01*
X1163750Y1115200D02*
Y1125200D01*
X1158750Y1120200D02*
X1168750D01*
X1013750Y1115200D02*
Y1125200D01*
X1008750Y1120200D02*
X1018750D01*
X413750Y1115200D02*
Y1125200D01*
X408750Y1120200D02*
X418750D01*
X863750Y1115200D02*
Y1125200D01*
X858750Y1120200D02*
X868750D01*
X1463750Y1115200D02*
Y1125200D01*
X1458750Y1120200D02*
X1468750D01*
X2063750Y1115200D02*
Y1125200D01*
X2058750Y1120200D02*
X2068750D01*
X1763750Y1115200D02*
Y1125200D01*
X1758750Y1120200D02*
X1768750D01*
X1613750Y1115200D02*
Y1125200D01*
X1608750Y1120200D02*
X1618750D01*
X1313750Y1115200D02*
Y1125200D01*
X1308750Y1120200D02*
X1318750D01*
X2715900Y1068430D02*
Y1078430D01*
X2710900Y1073430D02*
X2720900D01*
X2261240Y1078590D02*
Y1088590D01*
X2256240Y1083590D02*
X2266240D01*
X85810Y768630D02*
X95810D01*
X90810Y763630D02*
Y773630D01*
X2926720Y900790D02*
Y910790D01*
X2921720Y905790D02*
X2931720D01*
X2710900Y90450D02*
X2720900D01*
X2715900Y85450D02*
Y95450D01*
X1959060Y90450D02*
X1969060D01*
X1964060Y85450D02*
Y95450D01*
X1974220Y1068430D02*
Y1078430D01*
X1969220Y1073430D02*
X1979220D01*
X1038310D02*
X1048310D01*
X1043310Y1068430D02*
Y1078430D01*
X296630Y1073430D02*
X306630D01*
X301630Y1068430D02*
Y1078430D01*
X90810Y297540D02*
Y307540D01*
X85810Y302540D02*
X95810D01*
X301630Y85450D02*
Y95450D01*
X296630Y90450D02*
X306630D01*
X767720Y85450D02*
Y95450D01*
X762720Y90450D02*
X772720D01*
M02*
