M48
;Layer_Color=9474304
;FILE_FORMAT=4:4
METRIC,LZ
;TYPE=PLATED
T1F00S00C0.3048
T2F00S00C0.5080
T3F00S00C0.7620
T4F00S00C1.7018
T5F00S00C2.2000
T6F00S00C3.0000
T7F00S00C3.2000
%
T01
X0011875Y0015522
X0014415
X0016955
X0022035
X0023305Y0012982
X0020765
X0022543Y0021364
X0023686Y002365
X0028385Y0023142
X002775Y0025936
X0028385Y0028222
X0025845
X0027115Y0030762
X0033465Y0028222
X0032258Y002413
X0031433Y0024158
X0033465Y0018062
Y0012982
X0032385Y0013208
X003175
X0029909Y0010061
X00304124Y00093
X0030925Y0008537
X0028385Y0018062
X0037084Y002159
X0036894Y003127
X0018225Y0033302
X0016955Y0035842
X0014415
X0011875
X0013145Y0033302
X000997Y0030508
X0009208Y00300003
X0008446Y0029492
X0013145Y0023142
X0014415Y0020602
X0011875
X0017209Y00227114
X0039561Y0023523
X0040132Y00247422
X0041085Y00253137
X0042545Y0025908
X0041085Y0027714
X0038724Y0028644
X0039232Y0029294
X0038724Y0029944
X0039232Y0030594
X0038724Y0034232
X0039232Y0034882
X0038724Y0035532
X0039232Y0036182
X00397388Y00368494
X0042355Y0035842
X00435488Y003683
X0044724Y0036832
X0045232Y0036182
X004574Y0035532
X0045232Y0034882
X004574Y0034232
X0044724Y0031244
X0045232Y0030594
X004574Y0029944
X0045232Y0029294
X004574Y0028644
X0046419Y0027587
X00463229Y00227114
X0040259Y0022225
X0039497Y00216497
X00435488Y0031242
X0051435Y0034163
X0056325Y0033302
X0057595Y0030762
X0060135
X0062675
X0065215
X0066485Y0033302
X0067755Y0035842
X0074105Y0033302
X0076645
X0075375Y0030762
X0074105Y0023142
X0071565Y0023396
X0070104Y0023114
X0071755Y0021658
X0069025Y0012982
X00750158Y00107722
X0076518Y0010061
X00770214Y00093
X0058865Y0012982
X0060389Y0022761
X0059436Y0024511
X0057023
X0056325Y0023142
X0054864Y0024511
X0077915Y0030762
X0080455
X0082995
X0085535Y0035842
X0090615
X0094425Y0033302
X0095695Y0030762
X0098235
X0100775
X0103315
X0105855Y0035842
X0112205Y0033302
X0114745
X0116015Y0035842
Y0030762
X0113475
X0114745Y0023142
X0112205
X0109665
X0107125
X0104585
X0102045
X0099505
X0096965
X0094425
X0091885
X0089345
X0086805
X0084265
X0086805Y0018062
X0089345
X0091885
X0094425
X0096965
X0099505
X0102045
X0104585
X0107125
X0109665
X0112205
X0114745
X0116015Y0015522
X0113475
X0110935
X0108395
X0105855
X0103315
X0100775
X0098235
X0095695
X0093155
X0090615
X0088075
X0085535
X0082995
X0080455
X0081725Y0012982
X0084265
X0086805
X0089345
X0091885
X0094425
X0096965
X0099505
X0102045
X0104585
X0107125
X0109665
X0112205
X0114745
X0077534Y0008537
X0077915Y0035842
X0123635
X0128715
X0132525Y0033302
X0133795Y0030762
X0136335
X0138875
X0141415
X0143955Y0035842
X0150305Y0033302
X0152845
X0154115Y0035842
Y0030762
X0151575
X0152753Y0023396
X0155448Y0023495
X015621
X0156274Y0018316
X0155512
Y0017554
X0156274
X0155702Y0012573
Y0011557
X0152908Y0009906
X0152273
X01510624Y00093
X0150559Y0010061
X0151575Y0008537
X0152464Y0007902
X0150305Y0012982
X0149098Y0013335
X0147765Y0012982
X0147447Y0018415
X0148336
X0146558
X0145669
X01503685Y0019332
Y0022126
X0143193Y00236475
X0141605Y00229966
X0135192Y0022126
X0132525Y0023142
X0129985
X0127445
X0124905
X0122365
X0119825
X0117285
Y0018062
X0119825
X0122365
X0124905
X0127445
X0128715Y0015522
X0131255
X0129985Y0012982
X0127445
X0124905
X0122365
X0119825
X0117285
X0118555Y0015522
X0121095
X0123635
X0126175
X0136335
X0141415
X0140145Y0012982
X0121095Y0030762
X0118555
X0156655
X0159195
X0161735Y0035842
X0166815
X0170625Y0033302
X0171895Y0030762
X0174435
X0176975
X0179515
X0180785Y0033302
X0182055Y0035842
X0188405Y0033302
X0190945
X0192215Y0035842
Y0030762
X0194755
X0189675
X0189738Y0022606
X0188151Y0023523
X0193993Y0023904
X0196215Y00220752
X0192659Y0019431
X0191072Y0017427
X0189548Y0017046
X019031Y0015776
X0191072Y0014506
X0193167Y0013208
X01950234Y00109486
X0196152Y0010061
X01906834Y00107458
X0185865Y0012982
X0183325
X0180785
X0178245
X01782425Y0015268
X01768429
X0175768Y0014986
X0175006
X0175705Y0012982
X0173165
X0170625
X0167894Y0013208
X0166751
X01656186Y00129436
X0165354Y001397
X0164465
X01641473Y00112382
X016525Y00110515
X0164275Y0007902
X0161798Y00077902
X0159844Y0007902
X015983Y0009553
X01598488Y00117026
X0161989Y0011966
X0161798Y0009906
X0156845Y0011557
Y0012573
X0158306Y0013744
X0158171Y00172746
X0158369Y0018161
X0160973Y0019586
X01609659Y0022126
X0163132Y0022761
Y0023396
X0163894
Y0022761
X01660597Y0022126
X0169291Y0023241
X0171768Y0022126
X0172974Y00220752
X0172593Y0019431
X0171577
X0170688
X0169672
X0170625Y0018062
X0174308Y0019586
X0175578
X0176848
X0178118
X0179388
X0179642Y00180671
Y00166675
X01782425
X0179642Y0015268
X0184595Y0015522
X0183325Y0018062
X0183261Y0019558
X01806834Y00074597
X01794134
X01781434
X01768734
X01756034
X01743334
X0169482Y00073688
X0169926Y0008509
X0169355Y0010442
X0166688Y0006124
X0163513Y0017808
Y0019078
X01971741Y00195745
X0197549Y0023904
X0202184Y0022352
X020428Y0022126
X0210693Y0023114
X0212281Y002365
X0213805Y0023142
X0213106Y00193
X0211265Y0018062
X0209995Y0015522
X0209423Y0011176
X02109704Y0011164
X0212471Y0011176
X0213868
X0215392
X0219964Y0018034
X0221869Y00193
X0223965Y0018062
X0223203Y0022126
X0221425Y0023142
X022968Y0023015
X0231204Y002365
X0232093Y0019205
X0231775Y0011049
X0230251
X0228727
X0233426
X0235077
X0235395Y0030762
X0232855
X0230315
X0227775
X0229045Y0033302
X0226505
X0230315Y0035842
X0220155
X0217615Y0030762
X0215075
X0212535
X0209995
X0208725Y0033302
X0204915Y0035842
X0199835
X0197295Y0030762
X0198184Y0015522
X0199263Y0015494
X0199708Y0012855
X01981494Y00107722
X01966554Y00093
X0197168Y0008537
X0203645Y0010823
X0201359Y0017427
X0239205Y0018062
X024238Y0019205
X0242253Y0022126
X0241745Y0023142
X0239205
X024873Y0023015
X0250254Y002365
X0251905Y0023142
X0249111Y0019205
X0249365Y0018062
X0248095Y0015522
X0248031Y0011049
X0249301
X0250698
X0252222
X0253619
X0258255Y0015522
X0260795
X0262065Y0018062
X0261303Y0022126
X026778Y0023015
X0269304Y002365
X0269685Y0028222
X0272225
X0274384Y0027841
X0275019Y0027333
X0273495Y0030762
X0270955
X0268415
X0267843Y0033655
X0266891Y0034064
X02671551Y00349631
X0267145Y0028222
X02547561Y00283998
X0254191Y0028984
X02547561Y00295682
X0253175Y0030762
X0250635
X0248095
X0246825Y0033302
X0243015Y0035842
X0237935
X0272225Y0018062
X0274765
X02733269Y00107945
X0271336Y0010061
X02718394Y00093
X0272352Y0008537
X0267145Y0012982
X0277305Y0018062
X0278575Y0020602
X0281115
X0280353Y0022126
X0279845Y0023142
X0277305
X0277749Y00289078
X02770002Y0029492
X0281115Y0035842
X0284925Y0033302
X0288735Y0030762
X0290005Y0028222
X0288735Y0025682
X0288354Y002365
X0290005Y0023142
X0288735Y0020602
X0286195
X0283655
X0286195Y0015522
X0287465Y0012982
X0284925
X0281115Y0015522
X0279845Y0038382
X0277305
X0278575Y0040922
X028048Y0041176
X0281115Y0046002
X0283655
X02876428Y00462204
X02910718Y0046101
Y00453162
X0291783Y0043716
X0292545Y00442237
X0293307Y0044732
X02910718Y00426552
Y00418276
X02891922Y00432205
X0289433Y0038989
X0290449
X0286957Y0040287
X0286195Y0051082
X0287465Y0053622
X0288735Y0056162
X0286195
X0287465Y0058702
X0288735Y0061242
X0286195
X0287465Y0063782
X0288735Y0066322
X0286195
X0287465Y0068862
X0284925
X0286195Y0076482
X0283655
X0278575Y0066322
X0276035
X0277305Y0063782
X0279845
X0278575Y0061242
Y0046002
X0276035
X0289814Y0049276
X0290576
X0274765Y0053622
X0274875Y005932
X0274765Y0063782
X0272225
X0269685
X026905Y0062893
X0268415Y0060226
X0263081Y0062893
X0260795Y0066322
X0258255
X0255715
X0253175
X0248095
X0245555
X0243015
X0240475
X0237935
X0239205Y0068862
X0241745
X0244285
X0246825
X0245174Y006175
X0244031Y0059337
X0249809Y0060325
X0250635Y0056162
X0251778Y0055908
X02536185Y00568139
X02536196Y00576307
X0254426Y00562079
X025508Y0053495
X0255715Y00528854
X025654Y0052451
Y0051562
X0254445Y005159
X02536559Y0050226
X0254445Y0047526
X0256794Y0046863
X0249365Y0048542
X0246825
X0244285
X0241745
X0243015Y0051082
X0248095
X024873Y004397
X0249873Y00427
X0250635Y0040922
X0253175
X0254445Y0038382
X0251905
X0249365
X024873Y0040287
X0242253Y0041176
X0240475Y0040922
X0237935
X0239205Y0038382
X0241745
X0236665
Y0053622
X0239205
X0237554Y0060226
X0236665Y0068862
X0237935Y0071402
X0239205Y0073942
X0240475Y0076482
X0243015
X0245555
X0248095
X0253175
X0258255
X0263335
X0262065Y0068862
X0259525
X0256985
X0258255Y0071402
X0255715
X0272225Y0073942
X0273495Y0076482
X0270955Y0066322
X0262763Y005715
X0261557Y0051844
X0263335Y0051082
X0261303Y0041176
X026778Y0040287
X0268923Y00427
X0273495Y0040922
X0274765Y0038382
X0272225
X02754Y004397
X0273495Y0046002
X0234125Y0048542
X0231585
X0229045
X0226505
X0223965
X0221425
X0222695Y0051082
X0225235
Y0056162
X0224981Y0059337
X0226124Y006175
X0225235Y0066322
X0227775
X0226505Y0068862
X0223965
X0221425
X0218885
X0220155Y0071402
X0217615
Y0066322
X0220155
X0222695
X0215075
X0208725Y0068862
X0206185
X0203645
X0201105
X0198565
X0199835Y0071402
X0201105Y0073942
X0202375Y0076482
X0204915
X0207455
X0209995
X0215075
X0220155
X0225235
X0227775
X0230315
X0232855
X0229045Y0073942
X0232855Y0066322
X0235395
X023114Y0060325
X0230315Y0056162
X0232855
X0234125Y0053622
X0232855Y0051082
Y0040922
X0235395
X0234125Y0038382
X0231585
X022968Y0040287
X0230823Y00427
X0223203Y0041176
X0220155Y0040922
X0217615
X0215075
X0212535
X02119Y00427
X0210757Y0040287
X0211265Y0038382
X0213805
X0216345
X0218885
X0221425
X0223965
X0216345Y0048542
X0213805
X0211265
X0208725
X0206185
X0203645
X0204915Y0051082
X0209995
X0212535Y0056162
X0215075
X0216345Y0053622
X0218885
X0218504Y0060226
X0207074Y006175
X0205931Y0059337
X0199454Y0060226
X0198565Y0053622
X0201105
X0202375Y0040922
X020428Y0041176
X0203645Y0038382
X0201105
X0198565
X0199835Y0040922
X0197295
X0194755
X019285Y00427
X0191707Y0040287
X0193485Y0038382
X0196025
Y0048542
X0193485
X0190945
X0188405
X0185865
X0183325
X0184595Y0051082
X0187135
Y0056162
X0186881Y0059337
X0188024Y006175
X0188405Y0068862
X0185865
X0183325
X0180785
X0182055Y0071402
X0179515
X0182055Y0076482
X0187135
X0189675
X0192215
X0194755
X0190945Y0073942
X0176975Y0076482
X0171895
X0169355
X0166815
X0164275
X0161735Y0071402
X0163005Y0068862
X0165545
X0168085
X0170625
X0168974Y006175
X0167831Y0059337
X0161354Y0060226
X0160465Y0053622
X0163005
X0157925
X0156655Y0056162
Y0051082
X0157925Y0048542
X0165545
X0168085
X0170625
X0173165
X0175705
X0178245
Y0053622
X0180785
X0176975Y0056162
X0174435
X0171895Y0051082
X0166815
X0166053Y0041176
X0164275Y0040922
X0161735
X0159195
X0156655
X0157925Y0038382
X0160465
X0163005
X0165545
X0173165
X0175705
X0178245
X0180785
X0183325
X0185865
X018523Y0041176
X0182055Y0040922
X0179515
X0176975
X0174435
X0173673Y00427
X017253Y0040287
X0180404Y0060226
X0192215Y0056162
X0194755
X0196025Y0053622
X0194755Y0051082
X0160465Y0068862
X0156655Y0076482
X0154115
X0151575
X0149035
X0143955
Y0071402
X0141415
X0142685Y0068862
X0145225
X0147765
X0150305
X0149924Y006175
X0148781Y0059337
X0149035Y0056162
X0154115
X0155385Y0048542
X0152845
X0150305
X0147765
X0145225
X0146495Y0051082
X0149035
X0142685Y0053622
X0140145
X0138875Y0056162
X0136335
X0133795Y0051082
X0135065Y0048542
X0137605
X0140145
X0132525
X0129985
X0127445
X0128715Y0051082
X0124905Y0053622
X0122365
X0119825
X0118555Y0056162
Y0051082
X0119825Y0048542
X0117285
X0118555Y0040922
X0121095
X0123635
X0126175
X012808Y0041176
X0127445Y0038382
X0124905
X0122365
X0119825
X0117285
X0135065
X0134557Y0040287
X0136335Y0040922
X01357Y00427
X0138875Y0040922
X0141415
X0143955
X0147003Y0041176
X0147765Y0038382
X0145225
X0142685
X0140145
X0137605
X0155385
X015348Y0040287
X0154623Y00427
X0142304Y0060226
X0130874Y006175
X0129731Y0059337
X0123254Y0060226
X0122365Y0068862
X0124905
X0127445
X0129985
X0132525
X0133795Y0076482
X0131255
X0128715
X0126175
X0123635Y0071402
X0118555Y0076482
X0138875
X0152845Y0073942
X0114745
X0116015Y0076482
X0113475
X0110935
X0105855
Y0071402
X0103315
X0104585Y0068862
X0107125
X0109665
X0112205
X0111824Y006175
X0110681Y0059337
X0110935Y0056162
X0116015
X0114745Y0048542
X0112205
X0109665
X0107125
X0108395Y0051082
X0110935
X0104585Y0053622
X0102045
X0100775Y0056162
X0098235
X0095695Y0051082
X0090615
X0086805Y0053622
X0084265
X0081725
X0080455Y0056162
X0077915
X0080455Y0051082
Y0040922
X0082995
X0085535
X0088075
X008998Y0041176
X0089345Y0038382
X0086805
X0084265
X0081725
X0079185
X007728Y0040287
X0078423Y00427
X00976
X0098235Y0040922
X0096457Y0040287
X0096965Y0038382
X0099505
X0102045
X0104585
X0107125
X0109665
X010903Y0041176
X0105855Y0040922
X0103315
X0100775
X0115507Y0040287
X011665Y00427
X0104204Y0060226
X0092774Y006175
X0091631Y0059337
X0085154Y0060226
X0084265Y0068862
X0086805
X0089345
X0091885
X0094425
X0095695Y0076482
X0093155
X0090615
X0088075
X0086805Y0073942
X0085535Y0071402
X0080455Y0076482
X0077915
X0100775
X0075375
X0072835
X0067755
Y0071402
X0065215
X0066485Y0068862
X0069025
X0071565
X0074105
X0073724Y006175
X0072581Y0059337
X0072835Y0056162
Y0051082
X0070295
X0066485Y0053622
X0063945
X0062675Y0056162
X0060135
X0057595Y0051082
X0052515
X0050673Y0048895
X00513811Y004397
X0051753Y0041176
X0049022Y0038862
Y0037719
X004574Y0039693
X0045232Y0040343
X004574Y0040993
X0045232Y0041643
X0044724Y0042293
X00435488Y0042291
X0042355Y0040922
X0038724Y0040993
X0039232Y0041643
Y0040343
X0038724Y0039693
X0041085Y0038382
X00395737Y00436734
X00396878Y00444782
X0038545Y0044732
Y0048542
X00385466Y0051169
X00403738Y0050292
X0041549Y0050294
X0042057Y0049644
X0042565Y0048994
X0042057Y0048344
X00425448Y00476938
X00424693Y00515766
X0042565Y0053282
X0042057Y0053932
X0042565Y0054582
X00420594Y00552494
X0041549Y0055882
X00403738Y005588
X0039815Y0057037
X0039751Y0058039
X0037846
Y0057023
X0042565Y005887
X0042057Y005952
X0042565Y006017
X0042057Y006082
X0041549Y006147
X00403738Y0061468
X00434832Y00583358
X0043815Y0056388
X0046419Y0058448
X0047943
X0048197Y0059337
X0047117Y0062865
X0046165Y0068862
X0048705
X0051245
X0053785
X0056325
X0056261Y0062738
X0054674Y006175
X0056261Y0059944
X0053531Y0059337
X0066104Y0060226
X0065405Y0061976
X0062675Y0076482
X0057595
X0055055
X0052515
X0042355
X0038735Y0075692
X0038799Y007191
X0037783Y00726359
X0076645Y0073942
X0070803Y0041176
X0067755Y0040922
X0065215
X0062675
X0060135
X0059373Y00427
X005823Y0040287
X0058865Y0038382
X0061405
X0063945
X0066485
X0069025
X0071565
X0037148Y0043716
X0034163Y0042164
X0029638Y0042654
X0029655Y0040287
Y0046002
X0027115
X0024575
X0022035
X0019495
X0016955
X0014415
X0011875
X0013145Y0048542
X0014415Y0051082
X0011875
X0013145Y0053622
X0014415Y0056162
X0016955
X0018225Y0053622
X0020765
Y0048542
X0018225
Y0043462
X0020765
X0022035Y0040922
X0019495
X0016955
X0014415
X0011875
X0013145Y0043462
Y0038382
X0018225
X0020765
X0023305
X0028385Y0048542
X0030734Y0049657
X0036057Y0049644
X0035549Y0048994
X0036057Y0048344
X0035549Y0047694
Y0053282
X0036057Y0053932
X00355552Y00545868
X0036057Y0055232
X00365457Y00558815
X0034219Y00548466
X0035549Y005887
X0036057Y005952
X0035569Y006017
X00351294Y00608536
X00311284Y00611004
X00293756Y006048
X0028512Y006175
X0028385Y0063782
X0030925
X0033465
X0034735Y0066322
X0032195
X0033401Y0072898
X003683Y0074041
X003685Y0076396
X0036342Y0077046
X0030342
X0029834Y0076396
X0026162Y0069088
X0025845Y0063782
X0023305
X0018225
X0019495Y0066322
X0016955
X0014415
X0011875
X0013145Y0068862
X0011875Y0071402
X0013145Y0073942
X0014415Y0076482
X0016955
X0009208Y00766093
X0008446Y0076101
X0013145Y0063782
X0014415Y0061242
X0011875
X0013145Y0058702
X0011875Y0056162
X0019495Y0061242
X0020892Y0060226
X0027369Y0059337
X0028194Y0078994
X0030342Y0078346
X0029834Y0077696
Y0081984
X0030342Y0082634
X0029834Y0083284
X0030342Y0083934
X0031623Y0085217
X00346588Y0084584
X0035834Y0084584
X0036322Y0083934
X0035834Y0083284
X0036342Y0082634
X00368524Y00820014
X00373022Y00802024
X00358272Y00807014
X0035834Y0078996
X0036342Y0078346
X003685Y0077696
X0034544Y0078994
X00341127Y00801482
X00341186Y00811559
X0032131Y0080137
X00255656Y0081689
X0023495Y00819366
X0025083Y0078387
X0024575Y0086642
X0028321Y0084582
X0029655Y0091722
X0032195
X0028385Y0094262
X0025845
X0021527Y0098199
X00214Y009985
X0014034Y0100739
X0014415Y0096802
X0011875
Y0091722
Y0086642
X0013145Y0084102
X0015685
X0018225
X0018542Y0080645
X0014415Y0081562
X0011875
X0013145Y0079022
X0012764Y0077625
X000997Y0077117
X0019495Y0091722
X003283Y0098326
X0030417Y0102263
X0029909Y0103025
X0029401Y0103787
X0029782Y0111407
X0031687Y0112677
X0034862
X0037021
X0021273
X0018352
X0011113Y011128
X0008065Y0109502
Y0104422
X004045Y009985
X0040577Y0098326
X0043625Y0094262
X0046165
X0048705
X005188Y0098326
X0059627
X00595Y009985
X0058865Y0094262
X0057595Y0091722
X0058865Y0089182
X0063945Y0094262
X0066485
X0070803Y0098326
X0070045Y0102263
X00705784Y0103029
X0071045Y0103787
X0071565Y0112677
X0068263
X0067045Y0112083
X0065088Y0112677
X0062167
X0051245
X004807
X0049848Y00808
X0048705Y0078387
X0053785Y0079022
X0056325
X0058865
X0061278Y0079276
X00677865Y00783275
X0068898Y00808
X0071565Y0079022
X0074105
X0076645
X0042228Y0079149
X00389447Y00791668
X0038799Y0087277
X0079185Y0079022
X0080328Y0079276
X0086788Y007837
X0089345Y0079022
X0091885
X0094425
X0096965
X0099378Y0079276
X0105855Y0078387
X0106998Y00808
X0109665Y0079022
X0112205
X0114745
X0116015Y0086642
X0113475
X0109665Y0094262
X0108903Y0098326
X0104648Y0097917
X0104585Y0102263
X0104077Y0103025
X0103569Y0103787
X0099314Y01003326
X00976Y009985
X0097727Y0098326
X0096965Y0094262
X0095695Y0091722
X0096965Y0089182
X0102045Y0094262
X0086805
X0081725
X007855Y0098326
X0078423Y009985
X0078232Y0104902
X0077343Y0105664
X0080645Y0109347
X0081534
X0082423
X0083312
X0084201
X008509
X0085979
X0086868
X0087122Y0105537
X0087757Y0104902
X008998Y0098326
X0092647Y0112677
X0094679
X0097092
X0106172Y0112776
X0109919Y0112677
X0112332
X0116523Y009985
X011665Y0098326
X0087948Y00808
X0082106Y0112677
X0079693
X0077407
X01199148Y0112745
X0121095Y0111407
X0123381Y0110264
X0128588
X0127826Y011128
X0127191Y0112677
X0135065Y011128
X0136335Y0103787
X0136843Y0103025
X0137351Y0102263
X0137605Y0099342
X0138557Y0100076
X0140589Y01003072
X0142367Y0097917
X0145161Y0099949
X014605Y00992021
X014713Y0098326
X0147765Y0094262
X0140145
X0135065
X0133795Y0091722
X0135065Y0089182
X0136335Y0086642
X0138875
X0141415
X0133795
X0131255
X0123635
X0121095
X0118555
Y0079276
X0117285Y0079022
X0125032Y0078387
X0127445Y0079022
X0129985
X0132525
X0135065
X0137478Y0079276
X0143955Y0078387
X0145098Y00808
X0147765Y0079022
X0150305
X0152845
X0155385
X0154115Y0086642
X0151575
X0154877Y0098326
X015475Y009985
X0135573
X01357Y0098326
X0127953
X0124079Y0097917
X0122428
X012065
X0119825Y0094262
X0122365
X0124905
X0126175Y00808
X0156655Y0079276
Y0086642
X0159195
X0161735
X0157925Y0089182
Y0094262
X0160465
X0163005
X0161735Y0097945
X015983
X0157925
X0166053Y0098326
X01738
X0173673Y009985
X0177546Y0097917
X0179324
X0181229
X0180785Y0094262
X0178245
X0173165
X0171895Y0091722
X0173165Y0089182
X0174435Y0086642
X0176975
X0179515
X0182055
X0183198Y00808
X0182055Y0078387
X0185865Y0079022
X0188405
X0190945
X0193485
X0194628Y0079276
X0194755Y0086642
X0192215
X0189675
X0185865Y0094262
X0185103Y0098326
X019285
X0192723Y009985
X019558Y0101219
X0196025Y0094262
X0194564Y0112014
X0191375Y011202
X0186881Y0112804
X018396
X0173863Y0112649
X0171768Y0112677
X0171133Y011128
X0168593Y0110264
X016491Y0111534
X01656566Y0112745
X016364Y0110264
X0169355Y0086642
X0171895
X0173165Y0079022
X0170625
X0168085
X0165545
X0164275Y00808
X0163132Y0078387
X0175578Y0079276
X0201105Y0078387
X0203645Y0079022
X0206185
X0208725
X0211265
X0213678Y0079276
X0220155Y0078387
X0221298Y00808
X0223965Y0079022
X0226505
X0229045
X0231585
X0232728Y0079276
X0234125Y0094262
X0234823Y0098044
X0231077Y0098326
X023095Y009985
X0225874Y0102263
X02264074Y0103029
X0226874Y0103787
X0222885Y01015518
X02219328
X02210282
X0218567Y0101473
X0217551
X0216662
X0216408Y0099822
Y0098552
X02159Y0097917
X02158333Y00991267
X0216789Y0097282
X0217678
X0218567
X0220091Y0097155
X02209519Y00971651
X022333Y0098326
X0222758Y0099314
X0223965Y0094262
X0216345
X0211265
X0209995Y0091722
X0211265Y0089182
X0212027Y0098326
X02117872Y00997706
X0211404Y01015518
X0212269
X02132186
X0214122
X021463Y0104902
X0213868Y0105537
X0213614Y010922
X0212725
X0211836
X0210947
X0210058
X0209169
X020828
X0207391
X0204978Y0104902
X0204216Y0105537
X0203835Y0100076
X020428Y0098326
X0201676Y0097917
X0199771
X0198501Y00979678
X0196342Y0097917
X0196469Y0101473
X0198247Y01015518
X019939Y0101473
X0200279
X0201168Y0101219
X0197676Y0102263
X0197168Y0103025
X019666Y0103787
X0197295Y0112042
X0198311Y0112804
X0202502Y0112042
X0203835Y0112776
X021444Y0112804
X0221375Y011202
X022479Y0112014
X0227203
X0228346Y0112776
X0230823Y0112804
X0197295Y0086642
X0202248Y00808
X0240348
X0241745Y0079022
X0244285
X0246825
X0249365
X0251778Y0079276
X0258255Y0078387
X0259398Y00808
X0262065Y0079022
X0264605
X0265113Y0081943
X026905Y008334
X0272225Y0084102
Y0079022
X02662058Y0086374
X0265557Y0089535
X02647442
X0262065Y0089182
X0262128Y009525
X0261366Y0095885
X0260985Y0097536
X0262001
Y0099187
X0260985
X0259969
Y0097536
X026289Y0094488
X0263906Y0093472
X02647442Y00930947
X0265557Y0093091
X0267462Y0092837
X0267716Y009398
X0270256Y00953669
X0272542Y00959003
X0270828Y0098326
X0271844Y0102263
X0271336Y0103025
X0270828Y0103787
X026975Y011202
X0273241Y0112042
X0272733Y0112804
X0266025Y011202
X02627Y0112804
X0260414
X025762
X0251375Y011202
X0244666Y0112042
X0242126Y0112804
X0236725Y011202
X0236601Y0098044
X0238506
X0242253Y0098326
X0239205Y0094262
X0236665
X0249365
X0248095Y0091722
X0249365Y0089182
X025Y0098326
X0249873Y009985
X02568742Y01014977
X0256985Y0094262
X0254445
X0258255Y0091722
X0239205Y0078387
X0276797Y0079784
X0278158Y0081943
X0277305Y0084102
X027921Y0086642
X0277305Y0089182
X02841546Y00866697
X0288735Y0086642
X02889218Y0089829
X0291783Y0090325
X0292545Y00908327
X0293307Y0091341
X0295466Y0093829
X0287465Y0094262
X0288735Y0096802
X0290005Y0099342
X0287465
X0287846Y0100866
X0283718Y0099822
X0282131Y0099977
X0284607Y0098298
X0283655Y0096802
X0278575Y0098326
Y0112042
X0277813Y0112804
X0282744Y011202
X0284607Y0112014
X02885127Y011202
X0289497Y0112804
X0292545Y0109502
Y0104422
X0282131Y0110264
X0283655Y0081562
X0284925Y0079022
X0282131Y0078387
X0290005Y0079022
X0288735Y0081562
X0290005Y0084102
X0287465
T02
X0007303Y0007648
X0006287Y0010442
Y0012982
Y0015649
Y0018316
Y0020983
Y002365
Y0026317
Y0028984
Y0031651
Y0034318
Y0036985
X0010224Y0006378
X0012891
X0015558
X0018225
X0020892
X0023559
X0026226
X0028893
X003156
X0034227
X0036894
X0039561
X0042228
X0044895
X0047562
X0050229
X0052896
X0055563
X005823
X0060897
X0063564
X0066231
X0068898
X0071565
X0074232
X0076899
X0079566
X0082233
X00849
X0087567
X0090234
X0092901
X0095568
X0098235
X0100902
X0103569
X0106236
X0108903
X011157
X0114237
X0116904
X0119571
X0122238
X0124905
X0127572
X0130239
X0132906
X0135573
X013824
X0140907
X0143574
X0146241
X0148908
X0151575
X0154063
X019285
X0195517
X0198184
X0200851
X0203518
X0206185
X0208852
X0211519
X0214186
X0216853
X021952
X0222187
X0224854
X0227521
X0230188
X0232855
X0235522
X0238189
X0240856
X0243523
X024619
X0248857
X0251524
X0254191
X0256858
X0259525
X0262192
X0264859
X0267526
X0270193
X027286
X0275527
X0278194
X0280861
X0283528
X0286195
X0288862
X0291529
X0294323Y0007521
X0295466Y0010315
Y0012982
Y0015649
Y0018316
Y0020983
Y002365
Y0026317
Y0028984
Y0031651
Y0034318
Y0036985
Y0039652
Y0042319
Y0044986
Y0047653
Y005032
Y0052987
Y0055654
Y0058321
Y0060988
Y0063655
Y0066322
Y0068989
Y0071656
Y0074323
Y007699
X0006287
Y0074323
Y0071656
Y0068989
Y0066322
Y0063655
Y0060988
Y0058321
Y0055654
Y0052987
Y005032
Y0047653
Y0044986
Y0042319
Y0039652
Y0079657
Y0082324
Y0084991
Y0087658
Y0090325
Y0092992
Y0095659
Y0098326
Y0100993
Y010366
Y0106327
Y0108994
X000743Y0113312
X00102151Y0114455
X00128821
X00155491
X00182161
X00208831
X00235501
X00262171
X00288841
X00315511
X00342181
X00368851
X00395521
X00422191
X00448861
X00475531
X00502201
X00528871
X00555541
X00582211
X00608881
X00635551
X00662221
X00688891
X00715561
X00742231
X00768901
X00795571
X00822241
X00848911
X00875581
X00902251
X00928921
X00955591
X00982261
X01008931
X01035601
X01062271
X01088941
X01115611
X01142281
X01168951
X01195621
X0171514
X0174181
X0176848
X0179515
X0182182
X0184849
X0187516
X0190183
X019285
X0195517
X0198184
X0200851
X0203518
X0206185
X0208852
X0211519
X0214186
X0216853
X021952
X0222187
X0224854
X0227521
X0230188
X0232855
X0235522
X0238189
X0240856
X0243523
X024619
X0248857
X0251524
X0254191
X0256858
X0259525
X0262192
X0264859
X0267526
X0270193
X027286
X0275527
X0278194
X0280861
X0283528
X0286195
X0288862
X0291529
X0294196Y0113312
X0295466Y0108994
Y0106327
Y010366
Y0100993
Y0098326
Y0095659
Y0092992
Y0090325
Y0087658
Y0084991
Y0082324
Y0079657
T03
X0171133Y0009807
X0173673
X0176213
X0178753
X0181293
X0183833
X0186373
T04
X0014796Y0017554
X0024956
X0021908Y0036604
X0032068
X0050483
X0060643
X0069573
X0072581Y0017554
X0062421
X0048832
X0038672
X0079733Y0036604
X008867
X009883
X010776
X011792
X012677
X013693
X0145733
X0155893
X0144082Y0017554
X0133922
X0164783Y0036604
X0174943
X018396
X019412
X020297
X021313
X0221933
X0232093
Y0017554
X0221933
X021317
X020301
X0240983
X0251143
X0260033
X0270193
Y0036604
X0260033
X0251183
X0241023
X027917
X028933
X0289203Y0017554
X0279043
X0277305Y0055654
X0284544Y0074704
X0274384
X0260668
X0250508
X0241618
X0246444Y0055654
X0236284
X0267145
X0227394
X0217234
X0208344
X0198184
X0203518Y0074704
X0212408
X0222568
X0231458
X0193358
X0184468
X0174308
X0165545
X0170244Y0055654
X0179134
X0189294
X0160084
X0151194
X0141034
X0132104
X0121944
X0117245Y0074704
X0127405
X0136208
X0146368
X0155385
X0108268
X0098108
X0089218
X0079058
X0083844Y0055654
X0094004
X0102934
X0113094
X0074994
X0064834
X0055944
X0045784
X0040958Y0074704
X0051118
X0060008
X0070168
X0027496
X0017336
X0019622Y0055654
X0029782
X003156Y0093754
X002267
X001251
X004172
X005061
X006077
X0069533
X0079693
X008871
X009887
X0107633
X0117793
X0126683
X0136843
X014586
X015602
X0164783
X0174943
X0183833
X0193993
X020301
X021317
X022202
X023218
X0240983
X0251143
X0269558
X0279718
T05
X0022Y0027
X027975Y00269252
X0022Y008405
X00842Y009475
X0198692Y00947318
X027975Y008405
T06
X0017336Y0012474
X0024956Y0015014
X0024448Y0031524
X0032068Y0034064
X0053023Y0031524
X0060643Y0034064
X0072113Y0031524
X0072581Y0015014
X0064961Y0012474
X0048832Y0015014
X0041212Y0012474
X0079733Y0034064
X009121Y0031524
X009883Y0034064
X01103Y0031524
X011792Y0034064
X012931Y0031524
X013693Y0034064
X0148273Y0031524
X0155893Y0034064
X0144082Y0015014
X0136462Y0012474
X0167323Y0031524
X0174943Y0034064
X01865Y0031524
X019412Y0034064
X020551Y0031524
X021313Y0034064
X0224473Y0031524
X0232093Y0034064
Y0015014
X0224473Y0012474
X021317Y0015014
X020555Y0012474
X0243523
X0251143Y0015014
X0262573Y0012474
X0270193Y0015014
Y0034064
X0262573Y0031524
X0251183Y0034064
X0243563Y0031524
X028171
X028933Y0034064
X0289203Y0015014
X0281583Y0012474
X0277305Y0053114
X0276924Y0069624
X0284544Y0072164
X0260668
X0253048Y0069624
X0241618Y0072164
X0246444Y0053114
X0238824Y0050574
X0269685
X0227394Y0053114
X0219774Y0050574
X0208344Y0053114
X0200724Y0050574
X0203518Y0072164
X0214948Y0069624
X0222568Y0072164
X0233998Y0069624
X0195898
X0184468Y0072164
X0176848Y0069624
X0165545Y0072164
X0157925Y0069624
X0162624Y0050574
X0170244Y0053114
X0181674Y0050574
X0189294Y0053114
X0151194
X0143574Y0050574
X0132104Y0053114
X0124484Y0050574
X0119785Y0069624
X0127405Y0072164
X0138748Y0069624
X0146368Y0072164
X0108268
X0100648Y0069624
X0089218Y0072164
X0081598Y0069624
X0086384Y0050574
X0094004Y0053114
X0105474Y0050574
X0113094Y0053114
X0074994
X0067374Y0050574
X0055944Y0053114
X0048324Y0050574
X0043498Y0069624
X0051118Y0072164
X0062548Y0069624
X0070168Y0072164
X0027496
X0019876Y0069624
X0022162Y0050574
X0029782Y0053114
X00341Y0088674
X002267Y0091214
X001505Y0088674
X004172Y0091214
X005315Y0088674
X006077Y0091214
X0072073Y0088674
X0079693Y0091214
X009125Y0088674
X009887Y0091214
X0110173Y0088674
X0117793Y0091214
X0129223Y0088674
X0136843Y0091214
X01484Y0088674
X015602Y0091214
X0167323Y0088674
X0174943Y0091214
X0186373Y0088674
X0193993Y0091214
X020555Y0088674
X021317Y0091214
X022456Y0088674
X023218Y0091214
X0243523Y0088674
X0251143Y0091214
X0272098Y0088674
X0279718Y0091214
T07
X0056198Y0016665
M30
