G04*
G04 #@! TF.GenerationSoftware,Altium Limited,Altium Designer,22.10.1 (41)*
G04*
G04 Layer_Color=8242323*
%FSLAX44Y44*%
%MOMM*%
G71*
G04*
G04 #@! TF.SameCoordinates,43F64E9B-3785-48AA-9826-90990096846F*
G04*
G04*
G04 #@! TF.FilePolarity,Positive*
G04*
G01*
G75*
%ADD10C,0.2540*%
%ADD93C,1.2700*%
G36*
X3509815Y1047996D02*
X3510050Y1047644D01*
X3510520Y1047056D01*
X3510991Y1046350D01*
X3511696Y1045292D01*
X3512519Y1044234D01*
X3513460Y1042941D01*
X3514400Y1041530D01*
X3515576Y1039884D01*
X3516635Y1038238D01*
X3519103Y1034593D01*
X3521690Y1030595D01*
X3524277Y1026480D01*
X3516046Y1021424D01*
X3515929Y1021542D01*
X3515694Y1021894D01*
X3515341Y1022482D01*
X3514871Y1023305D01*
X3514283Y1024363D01*
X3513577Y1025539D01*
X3512754Y1026950D01*
X3511814Y1028479D01*
X3510873Y1030007D01*
X3509815Y1031771D01*
X3507463Y1035533D01*
X3504994Y1039531D01*
X3502408Y1043529D01*
X3509697Y1048114D01*
X3509815Y1047996D01*
D02*
G37*
G36*
X3565664Y1043411D02*
X3565546Y1043293D01*
X3565311Y1042823D01*
X3564958Y1042235D01*
X3564370Y1041294D01*
X3563783Y1040236D01*
X3562960Y1038943D01*
X3562019Y1037532D01*
X3561078Y1035886D01*
X3558844Y1032476D01*
X3556375Y1028714D01*
X3553671Y1024834D01*
X3550967Y1021071D01*
X3543559Y1026245D01*
X3543677Y1026362D01*
X3543912Y1026715D01*
X3544265Y1027185D01*
X3544735Y1028008D01*
X3545323Y1028831D01*
X3546028Y1030007D01*
X3546852Y1031301D01*
X3547792Y1032711D01*
X3548733Y1034240D01*
X3549791Y1035886D01*
X3550967Y1037767D01*
X3552143Y1039649D01*
X3554612Y1043881D01*
X3557198Y1048349D01*
X3565664Y1043411D01*
D02*
G37*
G36*
X3355789Y1018367D02*
X3356730Y1018250D01*
X3357671Y1017897D01*
X3358611Y1017544D01*
X3359669Y1016956D01*
X3360610Y1016251D01*
X3360728Y1016133D01*
X3360963Y1015898D01*
X3361433Y1015428D01*
X3361904Y1014840D01*
X3362256Y1014017D01*
X3362727Y1013076D01*
X3362962Y1012018D01*
X3363079Y1010842D01*
Y1010725D01*
Y1010254D01*
X3362962Y1009666D01*
X3362727Y1008843D01*
X3362491Y1008020D01*
X3362021Y1007080D01*
X3361433Y1006139D01*
X3360610Y1005316D01*
X3360493Y1005199D01*
X3360140Y1004963D01*
X3359669Y1004611D01*
X3358847Y1004258D01*
X3358023Y1003905D01*
X3356848Y1003552D01*
X3355672Y1003317D01*
X3354261Y1003200D01*
X3353673D01*
X3352968Y1003317D01*
X3352145Y1003435D01*
X3351204Y1003670D01*
X3350146Y1004140D01*
X3349088Y1004611D01*
X3348147Y1005316D01*
X3348029Y1005434D01*
X3347794Y1005669D01*
X3347442Y1006257D01*
X3346971Y1006845D01*
X3346501Y1007668D01*
X3346148Y1008608D01*
X3345913Y1009666D01*
X3345796Y1010842D01*
Y1010960D01*
Y1011430D01*
X3345913Y1012018D01*
X3346148Y1012841D01*
X3346383Y1013664D01*
X3346854Y1014605D01*
X3347442Y1015545D01*
X3348265Y1016368D01*
X3348382Y1016486D01*
X3348735Y1016721D01*
X3349205Y1017074D01*
X3350028Y1017427D01*
X3350851Y1017779D01*
X3351909Y1018132D01*
X3353203Y1018367D01*
X3354496Y1018485D01*
X3355084D01*
X3355789Y1018367D01*
D02*
G37*
G36*
X3492884Y1033534D02*
X3506288D01*
Y1025069D01*
X3492884D01*
Y1012606D01*
X3494883Y1015663D01*
X3495000Y1015545D01*
X3495235Y1015310D01*
X3495706Y1014840D01*
X3496294Y1014252D01*
X3497117Y1013547D01*
X3497940Y1012723D01*
X3499938Y1010607D01*
X3502290Y1008255D01*
X3504759Y1005669D01*
X3507346Y1002965D01*
X3509815Y1000260D01*
X3502760Y994146D01*
X3502643Y994264D01*
X3502525Y994499D01*
X3502173Y994852D01*
X3501820Y995322D01*
X3500644Y996615D01*
X3499351Y998261D01*
X3497822Y1000260D01*
X3496176Y1002377D01*
X3494413Y1004728D01*
X3492884Y1006962D01*
Y957933D01*
X3483595D01*
Y1006845D01*
X3483478Y1006374D01*
X3483242Y1005551D01*
X3483008Y1004493D01*
X3482655Y1003317D01*
X3482184Y1001789D01*
X3481596Y1000143D01*
X3481009Y998379D01*
X3480303Y996498D01*
X3479362Y994499D01*
X3477481Y990266D01*
X3475012Y986033D01*
X3473719Y983917D01*
X3472191Y981918D01*
X3472073Y982153D01*
X3471838Y982741D01*
X3471367Y983682D01*
X3470897Y984858D01*
X3470192Y986269D01*
X3469486Y987915D01*
X3468075Y991324D01*
X3468193Y991560D01*
X3468546Y992030D01*
X3469016Y992853D01*
X3469721Y994029D01*
X3470544Y995440D01*
X3471602Y997086D01*
X3472661Y999084D01*
X3473836Y1001201D01*
X3475012Y1003670D01*
X3476306Y1006257D01*
X3477481Y1008961D01*
X3478775Y1012018D01*
X3480068Y1015075D01*
X3481244Y1018250D01*
X3483360Y1025069D01*
X3469016D01*
Y1033534D01*
X3483595D01*
Y1052817D01*
X3492884D01*
Y1033534D01*
D02*
G37*
G36*
X3279012Y970278D02*
X3264197D01*
Y1010254D01*
Y1010372D01*
Y1010607D01*
Y1010960D01*
Y1011430D01*
Y1012018D01*
Y1012723D01*
X3264315Y1014487D01*
Y1016603D01*
X3264433Y1018955D01*
X3264550Y1021659D01*
X3264785Y1024481D01*
X3264315D01*
Y1024363D01*
Y1024246D01*
X3264197Y1023540D01*
X3263962Y1022365D01*
X3263727Y1021071D01*
X3263374Y1019660D01*
X3263022Y1018132D01*
X3262669Y1016839D01*
X3262316Y1015663D01*
X3246561Y970278D01*
X3234333D01*
X3218343Y1015192D01*
Y1015310D01*
X3218225Y1015663D01*
X3218107Y1016133D01*
X3217872Y1017074D01*
X3217520Y1018250D01*
X3217167Y1019896D01*
X3217049Y1020836D01*
X3216814Y1022012D01*
X3216461Y1023188D01*
X3216226Y1024481D01*
X3215873D01*
Y1024363D01*
Y1024011D01*
Y1023540D01*
X3215991Y1022835D01*
Y1022012D01*
X3216109Y1020954D01*
Y1019896D01*
X3216226Y1018602D01*
Y1015898D01*
X3216344Y1013076D01*
X3216461Y1010019D01*
Y1007197D01*
Y970278D01*
X3202940D01*
Y1037062D01*
X3224927D01*
X3238566Y997439D01*
X3238683Y997203D01*
X3238801Y996615D01*
X3239154Y995675D01*
X3239506Y994499D01*
X3239859Y993088D01*
X3240212Y991442D01*
X3240565Y989678D01*
X3240917Y987915D01*
X3241270D01*
Y988032D01*
X3241388Y988150D01*
X3241505Y988855D01*
X3241740Y989914D01*
X3242093Y991207D01*
X3242446Y992735D01*
X3242916Y994264D01*
X3243387Y995910D01*
X3243857Y997556D01*
X3257613Y1037062D01*
X3279012D01*
Y970278D01*
D02*
G37*
G36*
X3315108Y1038120D02*
X3316401D01*
X3317812Y1037885D01*
X3319341Y1037650D01*
X3320869Y1037297D01*
X3322398Y1036827D01*
X3322633D01*
X3323103Y1036591D01*
X3323809Y1036239D01*
X3324749Y1035886D01*
X3325925Y1035298D01*
X3326983Y1034710D01*
X3328159Y1033887D01*
X3329217Y1033064D01*
X3329335Y1032947D01*
X3329688Y1032594D01*
X3330158Y1032124D01*
X3330863Y1031418D01*
X3331451Y1030478D01*
X3332157Y1029537D01*
X3332862Y1028361D01*
X3333450Y1027068D01*
X3333568Y1026950D01*
X3333685Y1026480D01*
X3333920Y1025774D01*
X3334273Y1024716D01*
X3334508Y1023540D01*
X3334743Y1022247D01*
X3334861Y1020836D01*
X3334979Y1019190D01*
Y1018955D01*
Y1018367D01*
X3334861Y1017544D01*
Y1016486D01*
X3334626Y1015192D01*
X3334391Y1013782D01*
X3334038Y1012371D01*
X3333568Y1010960D01*
X3333450Y1010842D01*
X3333333Y1010372D01*
X3332980Y1009666D01*
X3332627Y1008843D01*
X3332039Y1007785D01*
X3331334Y1006727D01*
X3329805Y1004493D01*
X3329688Y1004376D01*
X3329453Y1004023D01*
X3328864Y1003435D01*
X3328277Y1002729D01*
X3327454Y1001906D01*
X3326513Y1000966D01*
X3324397Y999084D01*
X3324279Y998967D01*
X3323926Y998614D01*
X3323221Y998144D01*
X3322515Y997556D01*
X3321457Y996851D01*
X3320399Y996028D01*
X3318047Y994381D01*
X3317930Y994264D01*
X3317695Y994146D01*
X3317224Y993794D01*
X3316637Y993323D01*
X3315226Y992383D01*
X3313697Y991207D01*
X3313580Y991089D01*
X3313344Y990972D01*
X3312992Y990619D01*
X3312404Y990266D01*
X3311228Y989326D01*
X3309935Y988150D01*
X3309817Y988032D01*
X3309700Y987915D01*
X3309112Y987209D01*
X3308289Y986269D01*
X3307466Y985093D01*
Y984975D01*
X3307348Y984858D01*
X3307113Y984270D01*
X3306760Y983329D01*
X3306642Y982389D01*
X3334979D01*
Y970278D01*
X3290417D01*
Y975217D01*
Y975334D01*
Y975452D01*
Y976040D01*
X3290535Y977098D01*
X3290652Y978273D01*
X3290887Y979684D01*
X3291122Y981330D01*
X3291593Y982859D01*
X3292180Y984388D01*
X3292298Y984623D01*
X3292533Y985093D01*
X3292886Y985916D01*
X3293356Y986857D01*
X3294062Y988032D01*
X3294767Y989208D01*
X3296531Y991677D01*
X3296649Y991795D01*
X3297001Y992265D01*
X3297472Y992853D01*
X3298177Y993676D01*
X3299000Y994499D01*
X3300058Y995557D01*
X3302175Y997439D01*
X3302292Y997556D01*
X3302762Y997909D01*
X3303351Y998379D01*
X3304174Y998967D01*
X3304997Y999672D01*
X3306055Y1000496D01*
X3308171Y1002024D01*
X3308289Y1002141D01*
X3308641Y1002377D01*
X3309229Y1002847D01*
X3309935Y1003317D01*
X3311581Y1004611D01*
X3313227Y1006022D01*
X3313344Y1006139D01*
X3313580Y1006374D01*
X3314050Y1006727D01*
X3314520Y1007197D01*
X3315814Y1008373D01*
X3316989Y1009784D01*
X3317107Y1009902D01*
X3317224Y1010137D01*
X3317460Y1010490D01*
X3317812Y1010960D01*
X3318635Y1012135D01*
X3319223Y1013547D01*
Y1013664D01*
X3319341Y1013899D01*
X3319458Y1014252D01*
X3319694Y1014840D01*
X3319929Y1016133D01*
X3320046Y1017779D01*
Y1018014D01*
Y1018485D01*
X3319929Y1019190D01*
X3319694Y1020131D01*
X3319458Y1021189D01*
X3318988Y1022247D01*
X3318400Y1023305D01*
X3317577Y1024246D01*
X3317460Y1024363D01*
X3317107Y1024599D01*
X3316519Y1024951D01*
X3315814Y1025422D01*
X3314755Y1025774D01*
X3313462Y1026127D01*
X3311934Y1026362D01*
X3310170Y1026480D01*
X3309347D01*
X3308759Y1026362D01*
X3307936Y1026245D01*
X3306995Y1026127D01*
X3306055Y1025892D01*
X3304879Y1025657D01*
X3302410Y1024834D01*
X3300999Y1024246D01*
X3299588Y1023540D01*
X3298177Y1022717D01*
X3296649Y1021894D01*
X3295238Y1020719D01*
X3293709Y1019543D01*
Y1032594D01*
X3293827Y1032711D01*
X3294062Y1032829D01*
X3294532Y1033064D01*
X3295238Y1033534D01*
X3296061Y1033887D01*
X3297001Y1034358D01*
X3298177Y1034945D01*
X3299471Y1035416D01*
X3300764Y1036004D01*
X3302292Y1036474D01*
X3305702Y1037414D01*
X3309347Y1038002D01*
X3311346Y1038120D01*
X3313344Y1038238D01*
X3314167D01*
X3315108Y1038120D01*
D02*
G37*
G36*
X3355789Y984270D02*
X3356730Y984152D01*
X3357671Y983917D01*
X3358611Y983447D01*
X3359669Y982977D01*
X3360610Y982271D01*
X3360728Y982153D01*
X3360963Y981918D01*
X3361433Y981448D01*
X3361904Y980743D01*
X3362256Y980037D01*
X3362727Y979097D01*
X3362962Y977921D01*
X3363079Y976745D01*
Y976627D01*
Y976157D01*
X3362962Y975569D01*
X3362727Y974746D01*
X3362491Y973923D01*
X3362021Y972982D01*
X3361433Y972042D01*
X3360610Y971219D01*
X3360493Y971101D01*
X3360140Y970866D01*
X3359669Y970631D01*
X3358847Y970278D01*
X3358023Y969808D01*
X3356848Y969573D01*
X3355672Y969338D01*
X3354261Y969220D01*
X3353673D01*
X3352968Y969338D01*
X3352145Y969455D01*
X3351204Y969690D01*
X3350146Y970161D01*
X3349088Y970631D01*
X3348147Y971337D01*
X3348029Y971454D01*
X3347794Y971689D01*
X3347442Y972160D01*
X3346971Y972865D01*
X3346501Y973688D01*
X3346148Y974511D01*
X3345913Y975569D01*
X3345796Y976745D01*
Y976863D01*
Y977333D01*
X3345913Y977921D01*
X3346148Y978744D01*
X3346383Y979567D01*
X3346854Y980507D01*
X3347442Y981448D01*
X3348265Y982271D01*
X3348382Y982389D01*
X3348735Y982624D01*
X3349205Y982977D01*
X3350028Y983329D01*
X3350851Y983682D01*
X3351909Y984035D01*
X3353203Y984270D01*
X3354496Y984388D01*
X3355084D01*
X3355789Y984270D01*
D02*
G37*
G36*
X3417752Y1053993D02*
X3418223Y1053287D01*
X3418928Y1052229D01*
X3419398Y1051406D01*
X3419869Y1050583D01*
X3420457Y1049642D01*
X3421162Y1048467D01*
X3421868Y1047291D01*
X3422691Y1045998D01*
X3423514Y1044469D01*
X3424337Y1042823D01*
X3425277Y1041177D01*
X3426335Y1039296D01*
X3419398Y1037297D01*
X3464548D01*
Y1028126D01*
X3446559D01*
Y1028008D01*
Y1027773D01*
X3446441Y1027421D01*
X3446324Y1026950D01*
X3446206Y1026362D01*
X3445971Y1025539D01*
X3445500Y1023658D01*
X3444913Y1021424D01*
X3444090Y1018837D01*
X3443149Y1015898D01*
X3441973Y1012723D01*
X3440680Y1009431D01*
X3439034Y1005904D01*
X3437270Y1002377D01*
X3435271Y998732D01*
X3433037Y995204D01*
X3430568Y991795D01*
X3427864Y988503D01*
X3424807Y985328D01*
X3424925Y985210D01*
X3425395Y984975D01*
X3426100Y984505D01*
X3427159Y983917D01*
X3428452Y983094D01*
X3430098Y982271D01*
X3432097Y981213D01*
X3434448Y980037D01*
X3437035Y978861D01*
X3439974Y977568D01*
X3443267Y976275D01*
X3447029Y974864D01*
X3451027Y973453D01*
X3455377Y972042D01*
X3460080Y970513D01*
X3465253Y969102D01*
Y968985D01*
X3465018Y968867D01*
X3464783Y968515D01*
X3464548Y968044D01*
X3463607Y966986D01*
X3462667Y965575D01*
X3461491Y964047D01*
X3460197Y962401D01*
X3459022Y960755D01*
X3457964Y959226D01*
X3457846D01*
X3457611Y959344D01*
X3457258Y959461D01*
X3456788Y959696D01*
X3456082Y959931D01*
X3455259Y960167D01*
X3453378Y960872D01*
X3451144Y961695D01*
X3448440Y962753D01*
X3445500Y963929D01*
X3442444Y965222D01*
X3439151Y966633D01*
X3435742Y968162D01*
X3429157Y971454D01*
X3425865Y973218D01*
X3422808Y974981D01*
X3419986Y976863D01*
X3417517Y978744D01*
X3417400Y978626D01*
X3416929Y978273D01*
X3416224Y977803D01*
X3415166Y977098D01*
X3413755Y976157D01*
X3412109Y975099D01*
X3409992Y973806D01*
X3407641Y972512D01*
X3404937Y971101D01*
X3401880Y969455D01*
X3398470Y967809D01*
X3394707Y966046D01*
X3390592Y964282D01*
X3386007Y962401D01*
X3381068Y960402D01*
X3375778Y958521D01*
X3375660Y958638D01*
X3375307Y959226D01*
X3374720Y959931D01*
X3373896Y961107D01*
X3372956Y962401D01*
X3371898Y963929D01*
X3370722Y965575D01*
X3369428Y967456D01*
X3369546D01*
X3369781Y967574D01*
X3370134Y967692D01*
X3370604Y967809D01*
X3371310Y968044D01*
X3372133Y968279D01*
X3374014Y968985D01*
X3376365Y969690D01*
X3378952Y970631D01*
X3381891Y971689D01*
X3385066Y972865D01*
X3388358Y974158D01*
X3391768Y975569D01*
X3398705Y978626D01*
X3401997Y980272D01*
X3405172Y981918D01*
X3407993Y983564D01*
X3410698Y985328D01*
X3410463Y985563D01*
X3409992Y986151D01*
X3409052Y987209D01*
X3407876Y988503D01*
X3406465Y990266D01*
X3404937Y992383D01*
X3403173Y994734D01*
X3401409Y997439D01*
X3399528Y1000496D01*
X3397647Y1003788D01*
X3395766Y1007315D01*
X3394002Y1011077D01*
X3392356Y1014957D01*
X3390827Y1019190D01*
X3389651Y1023540D01*
X3388593Y1028126D01*
X3370369D01*
Y1037297D01*
X3416342D01*
Y1037414D01*
X3416106Y1037650D01*
X3415871Y1038002D01*
X3415518Y1038590D01*
X3415166Y1039296D01*
X3414695Y1040001D01*
X3413637Y1041765D01*
X3412462Y1043881D01*
X3411168Y1045998D01*
X3409992Y1048114D01*
X3408817Y1050113D01*
X3417635Y1054228D01*
X3417752Y1053993D01*
D02*
G37*
G36*
X3538151Y1018132D02*
X3562607D01*
Y957580D01*
X3553201D01*
Y962989D01*
X3501820D01*
Y971689D01*
X3553201D01*
Y986621D01*
X3505935D01*
Y995204D01*
X3553201D01*
Y1009314D01*
X3504289D01*
Y1018132D01*
X3528745D01*
Y1052935D01*
X3538151D01*
Y1018132D01*
D02*
G37*
%LPC*%
G36*
X3436447Y1028126D02*
X3398235D01*
Y1028008D01*
Y1027891D01*
X3398352Y1027538D01*
X3398470Y1027185D01*
X3398705Y1026010D01*
X3399175Y1024481D01*
X3399646Y1022600D01*
X3400351Y1020366D01*
X3401292Y1017897D01*
X3402232Y1015192D01*
X3403526Y1012371D01*
X3404819Y1009431D01*
X3406465Y1006374D01*
X3408229Y1003317D01*
X3410227Y1000143D01*
X3412579Y997086D01*
X3415048Y994146D01*
X3417752Y991324D01*
X3417870Y991442D01*
X3418340Y991912D01*
X3419164Y992735D01*
X3420104Y993911D01*
X3421280Y995204D01*
X3422573Y996968D01*
X3423984Y998849D01*
X3425512Y1001083D01*
X3427159Y1003670D01*
X3428687Y1006374D01*
X3430333Y1009431D01*
X3431744Y1012723D01*
X3433155Y1016251D01*
X3434448Y1020013D01*
X3435507Y1023893D01*
X3436447Y1028126D01*
D02*
G37*
%LPD*%
D10*
X2819358Y269252D02*
G03*
X2819358Y269252I-21858J0D01*
G01*
X2006067Y947500D02*
G03*
X2006067Y947500I-19787J0D01*
G01*
X867017D02*
G03*
X867017Y947500I-25017J0D01*
G01*
X241026Y840500D02*
G03*
X241026Y840500I-21026J0D01*
G01*
X2817646D02*
G03*
X2817646Y840500I-20146J0D01*
G01*
X242609Y270000D02*
G03*
X242609Y270000I-22609J0D01*
G01*
X1986280Y947500D02*
X3016280D01*
X1986280Y1207500D02*
X3016280D01*
Y947500D02*
Y1207500D01*
X1986280Y947500D02*
Y1207500D01*
X0Y500D02*
X220000D01*
X0Y840500D02*
X220000D01*
Y500D02*
Y840500D01*
X0Y500D02*
Y840500D01*
Y947500D02*
X842000D01*
X0Y1207500D02*
X842000D01*
Y947500D02*
Y1207500D01*
X0Y947500D02*
Y1207500D01*
X220000Y840500D02*
X2797500D01*
X220000Y270000D02*
X2791460Y269254D01*
D93*
X0Y500D02*
X3017500D01*
X0Y1207500D02*
X3017500D01*
Y500D02*
Y1207500D01*
X0Y500D02*
Y1207500D01*
M02*
